<svg width="28" height="29" viewBox="0 0 28 29" fill="none" xmlns="http://www.w3.org/2000/svg">
<path d="M4.2105 2.96835L16.0907 14.852L4.21167 26.7357C4.00043 26.6469 3.82017 26.4976 3.69354 26.3066C3.56691 26.1157 3.49958 25.8915 3.5 25.6624V4.04169C3.50009 3.81281 3.5675 3.58902 3.69383 3.39817C3.82017 3.20732 3.99985 3.05784 4.2105 2.96835ZM16.9155 15.6769L19.6012 18.3625L6.84134 25.751L16.9155 15.6769ZM20.6477 11.9459L23.9225 13.8429C24.0993 13.9454 24.246 14.0926 24.3481 14.2697C24.4501 14.4468 24.5038 14.6476 24.5038 14.852C24.5038 15.0564 24.4501 15.2572 24.3481 15.4343C24.246 15.6114 24.0993 15.7586 23.9225 15.8612L20.6465 17.7582L17.7403 14.852L20.6477 11.9459ZM6.84134 3.95302L19.6023 11.3404L16.9155 14.0272L6.84134 3.95302Z" fill="white"/>
</svg>
