<svg width="231" height="212" viewBox="0 0 231 212" fill="none" xmlns="http://www.w3.org/2000/svg">
<g clip-path="url(#clip0_84_12334)">
<path d="M17.8759 147.544C33.5595 138.492 58.9248 138.492 74.5002 147.544C88.275 155.544 89.8099 167.941 79.1738 176.963C87.7633 176.432 96.6874 178.075 103.24 181.883C114.762 188.574 114.703 199.426 103.103 206.127C91.5022 212.827 72.7488 212.817 61.2567 206.127C52.0866 200.794 50.2663 192.844 55.7369 186.439C42.5328 188.347 28.0003 186.32 17.7086 180.338C2.10369 171.286 2.19225 156.606 17.8759 147.544Z" fill="white"/>
<path d="M26.7478 19.7142C29.247 18.2777 31.3526 18.9762 32.0019 21.2196C32.6021 19.9897 33.5369 18.9467 34.6979 18.2186C36.6559 17.0871 38.2498 18.0022 38.2498 20.2455V21.2688L40.867 19.7535C42.2347 18.9566 43.3465 19.5961 43.3563 21.1704C43.2678 22.9021 42.3626 24.4862 40.9162 25.4406L18.6797 38.2905C17.3121 39.0875 16.2003 38.4479 16.1904 36.8737C16.279 35.1321 17.2039 33.5382 18.6601 32.5936L21.2871 31.0784V29.1893C21.4741 25.3323 23.5108 21.8099 26.7478 19.7142Z" fill="#E6E6E6"/>
<path d="M48.5416 28.1266C50.3324 27.0935 51.8476 27.6052 52.3297 29.2089C52.7626 28.3234 53.4415 27.5855 54.268 27.0542C55.6652 26.2375 56.8164 26.8967 56.8164 28.5104V29.2483L58.7055 28.1561C59.6894 27.5756 60.4864 28.0479 60.4864 29.1794C60.4273 30.429 59.778 31.5703 58.735 32.2492L42.7661 41.4587C41.7822 42.0392 40.9753 41.5767 40.9753 40.4452C41.0344 39.2055 41.6838 38.0642 42.7267 37.3754L44.606 36.2833V34.9156C44.7437 32.1607 46.2098 29.632 48.5416 28.1266Z" fill="#E6E6E6"/>
<path d="M115.195 26.515C115.195 17.7975 109.095 7.18106 101.509 2.80264C97.4549 0.470757 93.8144 0.382205 91.2858 2.12373L88.2947 3.9243C90.7741 2.61569 94.1293 2.87151 97.8387 5.00661C105.425 9.39487 111.554 20.0015 111.525 28.719C111.525 33.0383 110 36.0688 107.55 37.5053L110.935 35.4489C111.181 35.321 111.427 35.1734 111.653 35.016C113.857 33.4713 115.185 30.549 115.195 26.515Z" fill="#E0E0E0"/>
<path opacity="0.1" d="M115.195 26.515C115.195 17.7975 109.095 7.18106 101.509 2.80264C97.4549 0.470757 93.8144 0.382205 91.2858 2.12373L88.2947 3.9243C90.7741 2.61569 94.1293 2.87151 97.8387 5.00661C105.425 9.39487 111.554 20.0015 111.525 28.719C111.525 33.0383 110 36.0688 107.55 37.5053L110.935 35.4489C111.181 35.321 111.427 35.1734 111.653 35.016C113.857 33.4713 115.185 30.549 115.195 26.515Z" fill="black"/>
<path d="M111.525 28.7189C111.554 20.0014 105.425 9.385 97.8385 5.00658C94.139 2.87148 90.774 2.61567 88.2946 3.92427C88.0683 4.04234 87.842 4.18009 87.6255 4.32768C85.4215 5.85275 84.0736 8.78481 84.0637 12.8484C84.0637 21.5659 90.1738 32.1922 97.7598 36.5706C101.597 38.7844 105.06 38.9812 107.569 37.5053C110.078 36.0294 111.515 33.0383 111.525 28.7189Z" fill="#E0E0E0"/>
<path d="M99.6786 34.5241C92.5058 30.3916 86.6909 20.3163 86.7204 12.081C86.7204 8.94229 87.6158 6.51202 89.2097 5.12469C89.131 5.16405 89.0621 5.18373 88.9834 5.22309C88.8063 5.31164 88.639 5.41987 88.4816 5.5281L88.4029 5.56746C86.5531 6.89574 85.5397 9.4736 85.52 12.8681C85.52 21.1035 91.3153 31.1689 98.488 35.3112C100.121 36.3246 101.991 36.9052 103.909 36.9937C104.933 37.0134 105.936 36.7576 106.832 36.2558C107.107 36.0885 107.373 35.8917 107.619 35.6753C106.841 36.0393 105.985 36.2361 105.12 36.2263C103.191 36.1377 101.312 35.5474 99.6786 34.5241Z" fill="#E0E0E0"/>
<path opacity="0.2" d="M99.6786 34.5241C92.5058 30.3916 86.6909 20.3163 86.7204 12.081C86.7204 8.94229 87.6158 6.51202 89.2097 5.12469C89.131 5.16405 89.0621 5.18373 88.9834 5.22309C88.8063 5.31164 88.639 5.41987 88.4816 5.5281L88.4029 5.56746C86.5531 6.89574 85.5397 9.4736 85.52 12.8681C85.52 21.1035 91.3153 31.1689 98.488 35.3112C100.121 36.3246 101.991 36.9052 103.909 36.9937C104.933 37.0134 105.936 36.7576 106.832 36.2558C107.107 36.0885 107.373 35.8917 107.619 35.6753C106.841 36.0393 105.985 36.2361 105.12 36.2263C103.191 36.1377 101.312 35.5474 99.6786 34.5241Z" fill="black"/>
<path d="M97.1005 6.27588C95.4672 5.25261 93.5978 4.6721 91.6693 4.59339C90.8231 4.58355 89.977 4.77049 89.2095 5.1247C87.6057 6.51202 86.7202 8.95213 86.7202 12.081C86.7202 20.3164 92.5155 30.3916 99.6784 34.5241C101.312 35.5474 103.181 36.1279 105.1 36.2066C105.966 36.2164 106.822 36.0295 107.599 35.6556C109.183 34.2683 110.049 31.8478 110.059 28.7091C110.078 20.4836 104.263 10.4182 97.1005 6.27588Z" fill="#EBEBEB"/>
<path d="M103.496 26.3674L100.387 23.5436C99.9244 23.1303 99.6489 22.5498 99.6193 21.9299V21.4478C101.577 21.7332 102.974 20.3852 102.984 17.8565C102.788 14.2456 100.879 10.9495 97.8581 8.97178C95.0146 7.32864 92.7024 8.64709 92.7024 11.894C92.8599 14.708 94.0405 17.3646 96.0281 19.3619V19.8342C96.0281 20.3754 95.7034 20.6804 95.2508 20.5623L92.1416 19.785C90.9215 19.3914 89.6129 20.0703 89.2194 21.2904C89.1603 21.4675 89.1308 21.6544 89.1111 21.8316L89.0718 22.0283C91.4037 27.2234 95.2901 31.956 99.6685 34.5044C101.302 35.5277 103.171 36.1082 105.09 36.1869C105.769 36.1869 106.438 36.0786 107.077 35.8523L106.497 31.8773C106.123 29.7717 105.07 27.8334 103.496 26.3674Z" fill="#128B84"/>
<path d="M189.264 164.893C189.284 156.175 183.154 145.569 175.568 141.18C171.514 138.849 167.864 138.76 165.345 140.511L162.354 142.312C164.833 141.003 168.189 141.259 171.898 143.394C179.484 147.783 185.614 158.389 185.584 167.107C185.584 171.426 184.059 174.456 181.609 175.893L184.994 173.846C185.24 173.719 185.486 173.571 185.712 173.404C187.926 171.839 189.254 168.927 189.264 164.893Z" fill="#E0E0E0"/>
<path opacity="0.1" d="M189.264 164.893C189.284 156.175 183.154 145.569 175.568 141.18C171.514 138.849 167.864 138.76 165.345 140.511L162.354 142.312C164.833 141.003 168.189 141.259 171.898 143.394C179.484 147.783 185.614 158.389 185.584 167.107C185.584 171.426 184.059 174.456 181.609 175.893L184.994 173.846C185.24 173.719 185.486 173.571 185.712 173.404C187.926 171.839 189.254 168.927 189.264 164.893Z" fill="black"/>
<path d="M185.594 167.097C185.594 158.379 179.494 147.773 171.908 143.384C168.208 141.249 164.843 140.994 162.364 142.302C162.128 142.42 161.901 142.558 161.685 142.706C159.481 144.231 158.133 147.163 158.123 151.226C158.123 159.944 164.233 170.57 171.819 174.948C175.656 177.172 179.12 177.359 181.619 175.883C184.118 174.407 185.584 171.406 185.594 167.097Z" fill="#E0E0E0"/>
<path d="M173.738 172.902C166.565 168.76 160.75 158.694 160.78 150.459C160.78 147.32 161.675 144.89 163.269 143.503L163.043 143.601C162.866 143.689 162.698 143.798 162.531 143.906L162.462 143.955C160.612 145.274 159.589 147.861 159.579 151.246C159.579 159.481 165.375 169.557 172.538 173.689C174.171 174.702 176.04 175.283 177.959 175.372C178.982 175.391 179.986 175.135 180.881 174.634C181.157 174.466 181.422 174.27 181.668 174.053C180.891 174.417 180.035 174.614 179.169 174.604C177.25 174.506 175.381 173.925 173.738 172.902Z" fill="#E0E0E0"/>
<path opacity="0.2" d="M173.738 172.902C166.565 168.76 160.75 158.694 160.78 150.459C160.78 147.32 161.675 144.89 163.269 143.503L163.043 143.601C162.866 143.689 162.698 143.798 162.531 143.906L162.462 143.955C160.612 145.274 159.589 147.861 159.579 151.246C159.579 159.481 165.375 169.557 172.538 173.689C174.171 174.702 176.04 175.283 177.959 175.372C178.982 175.391 179.986 175.135 180.881 174.634C181.157 174.466 181.422 174.27 181.668 174.053C180.891 174.417 180.035 174.614 179.169 174.604C177.25 174.506 175.381 173.925 173.738 172.902Z" fill="black"/>
<path d="M171.17 144.654C169.537 143.63 167.667 143.05 165.748 142.971C164.892 142.961 164.056 143.148 163.279 143.503C161.675 144.89 160.79 147.33 160.79 150.459C160.79 158.694 166.585 168.769 173.748 172.902C175.381 173.925 177.25 174.506 179.169 174.584C180.035 174.594 180.891 174.407 181.668 174.033C183.252 172.646 184.118 170.226 184.128 167.087C184.148 158.852 178.333 148.786 171.17 144.654Z" fill="#EBEBEB"/>
<path d="M177.555 164.735L174.446 161.912C173.994 161.488 173.718 160.908 173.679 160.298V159.826C175.637 160.111 177.034 158.753 177.044 156.225C176.847 152.614 174.948 149.317 171.918 147.34C169.084 145.697 166.762 147.015 166.762 150.262C166.919 153.076 168.1 155.733 170.088 157.73V158.202C170.088 158.743 169.763 159.048 169.31 158.93L166.191 158.153C164.971 157.769 163.663 158.448 163.279 159.668C163.22 159.845 163.19 160.032 163.18 160.219L163.141 160.406C165.473 165.591 169.35 170.334 173.738 172.882C175.371 173.905 177.241 174.486 179.169 174.575C179.848 174.575 180.517 174.466 181.157 174.24L180.576 170.265C180.192 168.13 179.14 166.201 177.555 164.735Z" fill="#128B84"/>
<path d="M230.185 141.633C230.185 133.958 224.813 124.611 218.132 120.764C214.57 118.708 211.353 118.629 209.139 120.184L206.512 121.728C208.686 120.558 211.648 120.804 214.905 122.683C221.586 126.54 226.977 135.887 226.958 143.552C226.958 147.35 225.61 150.016 223.455 151.295L226.436 149.495C226.653 149.386 226.869 149.258 227.066 149.111H227.095C229.004 147.753 230.175 145.185 230.185 141.633Z" fill="#E0E0E0"/>
<path opacity="0.1" d="M230.185 141.633C230.185 133.958 224.813 124.611 218.132 120.764C214.57 118.708 211.353 118.629 209.139 120.184L206.512 121.728C208.686 120.558 211.648 120.804 214.905 122.683C221.586 126.54 226.977 135.887 226.958 143.552C226.958 147.35 225.61 150.016 223.455 151.295L226.436 149.495C226.653 149.386 226.869 149.258 227.066 149.111H227.095C229.004 147.753 230.175 145.185 230.185 141.633Z" fill="black"/>
<path d="M226.938 143.571C226.938 135.897 221.566 126.55 214.885 122.703C211.628 120.823 208.667 120.597 206.492 121.748C206.296 121.856 206.099 121.974 205.912 122.102C203.974 123.45 202.793 126.028 202.773 129.6C202.773 137.274 208.145 146.631 214.826 150.478C218.201 152.427 221.251 152.594 223.455 151.305C225.659 150.016 226.938 147.369 226.938 143.571Z" fill="#E0E0E0"/>
<path d="M216.518 148.688C210.211 145.047 205.095 136.182 205.115 128.931C205.115 126.166 205.902 124.031 207.309 122.801C207.24 122.83 207.171 122.85 207.112 122.889C206.955 122.968 206.807 123.057 206.669 123.155L206.601 123.194C204.977 124.365 204.072 126.628 204.062 129.619C204.062 136.871 209.159 145.736 215.475 149.376C216.912 150.272 218.555 150.783 220.247 150.862C221.143 150.882 222.028 150.646 222.806 150.203C223.052 150.055 223.288 149.888 223.504 149.691C222.815 150.016 222.068 150.173 221.3 150.173C219.598 150.095 217.955 149.583 216.518 148.688Z" fill="#E0E0E0"/>
<path opacity="0.2" d="M216.518 148.688C210.211 145.047 205.095 136.182 205.115 128.931C205.115 126.166 205.902 124.031 207.309 122.801C207.24 122.83 207.171 122.85 207.112 122.889C206.955 122.968 206.807 123.057 206.669 123.155L206.601 123.194C204.977 124.365 204.072 126.628 204.062 129.619C204.062 136.871 209.159 145.736 215.475 149.376C216.912 150.272 218.555 150.783 220.247 150.862C221.143 150.882 222.028 150.646 222.806 150.203C223.052 150.055 223.288 149.888 223.504 149.691C222.815 150.016 222.068 150.173 221.3 150.173C219.598 150.095 217.955 149.583 216.518 148.688Z" fill="black"/>
<path d="M214.255 123.824C212.819 122.919 211.176 122.407 209.483 122.338C208.736 122.329 207.988 122.496 207.309 122.811C205.902 124.041 205.115 126.176 205.115 128.941C205.115 136.192 210.211 145.057 216.518 148.698C217.955 149.593 219.598 150.105 221.29 150.183C222.048 150.193 222.806 150.026 223.494 149.701C224.891 148.471 225.659 146.346 225.659 143.581C225.679 136.32 220.562 127.465 214.255 123.824Z" fill="#EBEBEB"/>
<path d="M219.883 141.505L217.148 139.016C216.745 138.652 216.508 138.14 216.479 137.589V137.176C218.201 137.432 219.431 136.241 219.441 134.008C219.273 130.83 217.591 127.927 214.924 126.186C212.425 124.739 210.389 125.9 210.379 128.773C210.516 131.243 211.55 133.585 213.301 135.336V135.759C213.301 136.241 213.016 136.497 212.622 136.399L209.897 135.73C208.824 135.385 207.673 135.985 207.329 137.058C207.279 137.215 207.25 137.373 207.24 137.54V137.707C209.296 142.282 212.711 146.464 216.577 148.698C218.014 149.593 219.657 150.105 221.349 150.183C221.95 150.183 222.54 150.085 223.101 149.888L222.579 146.385C222.235 144.506 221.29 142.794 219.883 141.505Z" fill="#128B84"/>
<path d="M168.562 33.3926C168.562 26.6429 163.83 18.4174 157.966 15.0229C154.827 13.2125 152.003 13.1436 150.045 14.5014L147.713 15.8887C149.632 14.8753 152.239 15.0819 155.102 16.7251C160.976 20.1196 165.719 28.3353 165.699 35.0947C165.699 38.4302 164.528 40.7818 162.619 41.9034L165.237 40.3193C165.433 40.2111 165.62 40.1029 165.817 39.9848C167.539 38.7746 168.562 36.4919 168.562 33.3926Z" fill="#E0E0E0"/>
<path opacity="0.1" d="M168.562 33.3926C168.562 26.6429 163.83 18.4174 157.966 15.0229C154.827 13.2125 152.003 13.1436 150.045 14.5014L147.713 15.8887C149.632 14.8753 152.239 15.0819 155.102 16.7251C160.976 20.1196 165.719 28.3353 165.699 35.0947C165.699 38.4302 164.528 40.7818 162.619 41.9034L165.237 40.3193C165.433 40.2111 165.62 40.1029 165.817 39.9848C167.539 38.7746 168.562 36.4919 168.562 33.3926Z" fill="black"/>
<path d="M165.729 35.1046C165.729 28.3549 160.996 20.1294 155.132 16.7349C152.269 15.0819 149.661 14.8851 147.743 15.8985C147.566 15.9969 147.389 16.0953 147.221 16.2134C145.509 17.3843 144.466 19.6669 144.457 22.8056C144.457 29.5553 149.189 37.7907 155.063 41.1852C158.035 42.8972 160.721 43.0448 162.649 41.9034C164.578 40.7621 165.719 38.44 165.729 35.1046Z" fill="#E0E0E0"/>
<path d="M156.559 39.5912C150.999 36.3837 146.503 28.5911 146.523 22.2153C146.523 19.785 147.221 17.8959 148.451 16.8234C148.382 16.8333 148.323 16.8628 148.274 16.9021C148.136 16.971 148.008 17.0497 147.88 17.1284L147.821 17.1678C146.395 18.1911 145.598 20.1884 145.588 22.8155C145.588 29.2011 150.075 36.9937 155.624 40.2012C156.893 40.9884 158.339 41.441 159.825 41.5C160.612 41.5099 161.39 41.3131 162.068 40.9195C162.275 40.7916 162.472 40.6342 162.649 40.4669C162.049 40.7522 161.38 40.89 160.721 40.89C159.245 40.8211 157.808 40.3784 156.559 39.5912Z" fill="#E0E0E0"/>
<path opacity="0.2" d="M156.559 39.5912C150.999 36.3837 146.503 28.5911 146.523 22.2153C146.523 19.785 147.221 17.8959 148.451 16.8234C148.382 16.8333 148.323 16.8628 148.274 16.9021C148.136 16.971 148.008 17.0497 147.88 17.1284L147.821 17.1678C146.395 18.1911 145.598 20.1884 145.588 22.8155C145.588 29.2011 150.075 36.9937 155.624 40.2012C156.893 40.9884 158.339 41.441 159.825 41.5C160.612 41.5099 161.39 41.3131 162.068 40.9195C162.275 40.7916 162.472 40.6342 162.649 40.4669C162.049 40.7522 161.38 40.89 160.721 40.89C159.245 40.8211 157.808 40.3784 156.559 39.5912Z" fill="black"/>
<path d="M154.561 17.7188C153.302 16.9316 151.856 16.479 150.36 16.4102C149.701 16.4003 149.042 16.5381 148.441 16.8234C147.202 17.8959 146.513 19.785 146.513 22.2153C146.513 28.591 151 36.3935 156.549 39.5912C157.808 40.3783 159.255 40.8309 160.75 40.8998C161.419 40.9096 162.078 40.7621 162.679 40.4767C163.909 39.3944 164.578 37.525 164.587 35.0849C164.617 28.7189 160.111 20.9263 154.561 17.7188Z" fill="#EBEBEB"/>
<path d="M159.51 33.2745L157.11 31.0902C156.765 30.7655 156.549 30.3129 156.529 29.8308V29.4766C158.044 29.693 159.127 28.6501 159.137 26.6823C158.989 23.8879 157.513 21.3298 155.161 19.8047C152.958 18.5354 151.167 19.5587 151.167 22.0775C151.285 24.252 152.2 26.3182 153.745 27.8531V28.227C153.745 28.6403 153.489 28.8764 153.164 28.8075L150.744 28.227C149.799 27.9318 148.786 28.4533 148.491 29.3979C148.451 29.5356 148.422 29.6832 148.412 29.821L148.382 29.9685C150.094 33.9436 152.948 37.3085 156.598 39.6306C157.857 40.4177 159.304 40.8703 160.799 40.9392C161.321 40.9392 161.842 40.8506 162.344 40.6735L161.882 37.5939C161.586 35.9507 160.76 34.4257 159.51 33.2745Z" fill="#128B84"/>
<path d="M224.223 93.4704C224.223 86.7109 219.49 78.4952 213.616 75.1007C210.477 73.2805 207.653 73.2214 205.695 74.5792L203.364 75.9666C205.282 74.9531 207.88 75.1499 210.753 76.8029C216.637 80.1974 221.379 88.4131 221.359 95.1726C221.359 98.5081 220.188 100.869 218.28 101.981L220.897 100.397C221.094 100.299 221.271 100.191 221.448 100.063C223.18 98.8524 224.213 96.6189 224.223 93.4704Z" fill="#E0E0E0"/>
<path opacity="0.1" d="M224.223 93.4704C224.223 86.7109 219.49 78.4952 213.616 75.1007C210.477 73.2805 207.653 73.2214 205.695 74.5792L203.364 75.9666C205.282 74.9531 207.88 75.1499 210.753 76.8029C216.637 80.1974 221.379 88.4131 221.359 95.1726C221.359 98.5081 220.188 100.869 218.28 101.981L220.897 100.397C221.094 100.299 221.271 100.191 221.448 100.063C223.18 98.8524 224.213 96.6189 224.223 93.4704Z" fill="black"/>
<path d="M221.379 95.1726C221.379 88.4131 216.646 80.1974 210.772 76.8029C207.909 75.1499 205.302 74.9531 203.383 75.9665C203.206 76.0649 203.029 76.1633 202.862 76.2814C201.159 77.4522 200.107 79.7349 200.107 82.8835C200.107 89.643 204.839 97.8685 210.713 101.253C213.675 102.965 216.371 103.123 218.299 101.981C220.228 100.84 221.369 98.508 221.379 95.1726Z" fill="#E0E0E0"/>
<path d="M212.189 99.6691C206.64 96.4615 202.133 88.6689 202.153 82.2833C202.153 79.853 202.852 77.9737 204.082 76.8914L203.905 76.9701C203.767 77.039 203.639 77.1177 203.511 77.2063L203.462 77.2456C202.025 78.2689 201.238 80.2662 201.228 82.8933C201.228 89.2789 205.715 97.0715 211.264 100.279C212.524 101.066 213.97 101.519 215.466 101.578C216.253 101.588 217.03 101.391 217.719 100.997C217.925 100.869 218.122 100.712 218.299 100.545C217.699 100.83 217.03 100.978 216.371 100.968C214.885 100.899 213.448 100.456 212.189 99.6691Z" fill="#E0E0E0"/>
<path opacity="0.2" d="M212.189 99.6691C206.64 96.4615 202.133 88.6689 202.153 82.2833C202.153 79.853 202.852 77.9737 204.082 76.8914L203.905 76.9701C203.767 77.039 203.639 77.1177 203.511 77.2063L203.462 77.2456C202.025 78.2689 201.238 80.2662 201.228 82.8933C201.228 89.2789 205.715 97.0715 211.264 100.279C212.524 101.066 213.97 101.519 215.466 101.578C216.253 101.588 217.03 101.391 217.719 100.997C217.925 100.869 218.122 100.712 218.299 100.545C217.699 100.83 217.03 100.978 216.371 100.968C214.885 100.899 213.448 100.456 212.189 99.6691Z" fill="black"/>
<path d="M210.202 77.7868C208.932 76.9997 207.486 76.5471 206 76.488C205.341 76.4782 204.692 76.6159 204.092 76.8914C202.852 77.9639 202.163 79.853 202.163 82.2833C202.163 88.6689 206.65 96.4615 212.199 99.6691C213.468 100.456 214.915 100.909 216.4 100.978C217.069 100.978 217.729 100.84 218.329 100.555C219.559 99.4821 220.228 97.6029 220.238 95.1726C220.257 88.7968 215.761 80.9944 210.202 77.7868Z" fill="#EBEBEB"/>
<path d="M215.151 93.3523L212.74 91.1582C212.386 90.8335 212.179 90.3809 212.16 89.9086V89.5446C213.675 89.761 214.757 88.7181 214.767 86.7503C214.62 83.956 213.144 81.3879 210.792 79.8629C208.588 78.5936 206.797 79.6169 206.797 82.1455C206.915 84.32 207.83 86.3862 209.375 87.9211V88.2852C209.375 88.7083 209.129 88.9346 208.795 88.8657L206.384 88.2852C205.44 87.9802 204.436 88.5016 204.131 89.4462C204.082 89.5839 204.062 89.7315 204.052 89.8791V90.0267C205.754 94.0017 208.618 97.3667 212.258 99.6887C213.527 100.476 214.974 100.928 216.459 100.997C216.981 100.997 217.502 100.909 217.994 100.732L217.542 97.652C217.247 96.0089 216.41 94.4838 215.151 93.3523Z" fill="#128B84"/>
<path d="M136.064 137.776C136.064 131.026 131.331 122.801 125.467 119.406C122.328 117.596 119.504 117.527 117.556 118.885L115.224 120.272C117.143 119.259 119.75 119.456 122.614 121.109C128.497 124.503 133.24 132.729 133.21 139.478C133.21 142.814 132.039 145.175 130.131 146.287L132.748 144.703C132.955 144.604 133.141 144.486 133.328 144.368C135.031 143.158 136.064 140.905 136.064 137.776Z" fill="#E0E0E0"/>
<path opacity="0.1" d="M136.064 137.776C136.064 131.026 131.331 122.801 125.467 119.406C122.328 117.596 119.504 117.527 117.556 118.885L115.224 120.272C117.143 119.259 119.75 119.456 122.614 121.109C128.497 124.503 133.24 132.729 133.21 139.478C133.21 142.814 132.039 145.175 130.131 146.287L132.748 144.703C132.955 144.604 133.141 144.486 133.328 144.368C135.031 143.158 136.064 140.905 136.064 137.776Z" fill="black"/>
<path d="M133.22 139.488C133.22 132.738 128.497 124.523 122.623 121.118C119.76 119.465 117.153 119.269 115.234 120.282C115.057 120.371 114.88 120.479 114.713 120.587C113.011 121.758 111.968 124.041 111.948 127.189C111.948 133.939 116.681 142.174 122.555 145.559C125.526 147.271 128.212 147.418 130.141 146.287C132.069 145.155 133.22 142.824 133.22 139.488Z" fill="#E0E0E0"/>
<path d="M124.04 143.985C118.481 140.777 113.985 132.984 114.004 126.599C114.004 124.169 114.703 122.279 115.933 121.207L115.756 121.286C115.618 121.355 115.49 121.433 115.362 121.522L115.303 121.561C113.876 122.575 113.079 124.582 113.07 127.199C113.07 133.575 117.556 141.377 123.106 144.585C124.375 145.372 125.821 145.825 127.307 145.893C128.094 145.903 128.871 145.706 129.55 145.313C129.767 145.185 129.973 145.028 130.16 144.86C129.55 145.146 128.891 145.283 128.222 145.283C126.756 145.215 125.309 144.772 124.04 143.985Z" fill="#E0E0E0"/>
<path opacity="0.2" d="M124.04 143.985C118.481 140.777 113.985 132.984 114.004 126.599C114.004 124.169 114.703 122.279 115.933 121.207L115.756 121.286C115.618 121.355 115.49 121.433 115.362 121.522L115.303 121.561C113.876 122.575 113.079 124.582 113.07 127.199C113.07 133.575 117.556 141.377 123.106 144.585C124.375 145.372 125.821 145.825 127.307 145.893C128.094 145.903 128.871 145.706 129.55 145.313C129.767 145.185 129.973 145.028 130.16 144.86C129.55 145.146 128.891 145.283 128.222 145.283C126.756 145.215 125.309 144.772 124.04 143.985Z" fill="black"/>
<path d="M122.053 122.102C120.784 121.315 119.337 120.863 117.852 120.794C117.192 120.794 116.533 120.932 115.933 121.207C114.693 122.289 114.004 124.169 114.004 126.599C114.004 132.975 118.491 140.777 124.05 143.985C125.31 144.772 126.756 145.224 128.251 145.283C128.921 145.293 129.58 145.146 130.19 144.86C131.42 143.778 132.089 141.909 132.099 139.478C132.108 133.103 127.612 125.31 122.053 122.102Z" fill="#EBEBEB"/>
<path d="M127.002 137.668L124.601 135.484C124.247 135.159 124.04 134.706 124.021 134.224V133.86C125.536 134.086 126.628 133.034 126.628 131.066C126.48 128.272 125.004 125.713 122.653 124.188C120.449 122.919 118.658 123.932 118.658 126.461C118.776 128.645 119.691 130.702 121.236 132.247V132.611C121.236 133.034 120.99 133.27 120.656 133.191L118.245 132.611C117.3 132.315 116.287 132.837 115.992 133.781C115.952 133.919 115.923 134.057 115.913 134.195L115.884 134.342C117.596 138.317 120.449 141.682 124.099 144.014C125.359 144.801 126.805 145.254 128.301 145.313C128.822 145.313 129.344 145.234 129.845 145.057L129.383 141.977C129.078 140.324 128.242 138.799 127.002 137.668Z" fill="#128B84"/>
<path d="M107.619 87.7243C107.619 80.9747 102.896 72.759 97.0219 69.3546C93.8832 67.5442 91.0593 67.4852 89.1112 68.8332L86.7793 70.2205C88.6979 69.2071 91.3053 69.4038 94.1685 71.0568C100.052 74.4513 104.795 82.667 104.775 89.4265C104.775 92.762 103.604 95.1234 101.695 96.2352L104.323 94.6511C104.509 94.5527 104.696 94.4445 104.873 94.3166C106.586 93.126 107.609 90.8532 107.619 87.7243Z" fill="#E0E0E0"/>
<path opacity="0.1" d="M107.619 87.7243C107.619 80.9747 102.896 72.759 97.0219 69.3546C93.8832 67.5442 91.0593 67.4852 89.1112 68.8332L86.7793 70.2205C88.6979 69.2071 91.3053 69.4038 94.1685 71.0568C100.052 74.4513 104.795 82.667 104.775 89.4265C104.775 92.762 103.604 95.1234 101.695 96.2352L104.323 94.6511C104.509 94.5527 104.696 94.4445 104.873 94.3166C106.586 93.126 107.609 90.8532 107.619 87.7243Z" fill="black"/>
<path d="M104.785 89.4364C104.785 82.6769 100.052 74.4612 94.1784 71.0667C91.3152 69.4137 88.7078 69.2071 86.7892 70.2304C86.6121 70.3288 86.435 70.4271 86.2677 70.5354C84.5557 71.7062 83.5128 73.9988 83.5029 77.1374C83.5029 83.8969 88.2356 92.1225 94.1095 95.5071C97.081 97.2192 99.7769 97.3667 101.696 96.2352C103.614 95.1037 104.765 92.7719 104.785 89.4364Z" fill="#E0E0E0"/>
<path d="M95.5953 93.9328C90.0461 90.7253 85.5299 82.9327 85.5496 76.5471C85.5496 74.1168 86.2481 72.2375 87.4879 71.1552L87.3108 71.2339C87.173 71.3028 87.0451 71.3815 86.9172 71.4701L86.868 71.5094C85.4315 72.5327 84.6345 74.53 84.6345 77.1571C84.6345 83.5329 89.1212 91.3353 94.6803 94.5429C95.9397 95.33 97.3861 95.7826 98.8816 95.8416C99.6687 95.8515 100.446 95.6547 101.125 95.2611C101.341 95.1332 101.548 94.9856 101.735 94.8085C101.125 95.0939 100.466 95.2415 99.7967 95.2316C98.3011 95.1726 96.8547 94.72 95.5953 93.9328Z" fill="#E0E0E0"/>
<path opacity="0.2" d="M95.5953 93.9328C90.0461 90.7253 85.5299 82.9327 85.5496 76.5471C85.5496 74.1168 86.2481 72.2375 87.4879 71.1552L87.3108 71.2339C87.173 71.3028 87.0451 71.3815 86.9172 71.4701L86.868 71.5094C85.4315 72.5327 84.6345 74.53 84.6345 77.1571C84.6345 83.5329 89.1212 91.3353 94.6803 94.5429C95.9397 95.33 97.3861 95.7826 98.8816 95.8416C99.6687 95.8515 100.446 95.6547 101.125 95.2611C101.341 95.1332 101.548 94.9856 101.735 94.8085C101.125 95.0939 100.466 95.2415 99.7967 95.2316C98.3011 95.1726 96.8547 94.72 95.5953 93.9328Z" fill="black"/>
<path d="M93.6078 72.0506C92.3385 71.2635 90.8921 70.8109 89.4064 70.7518C88.7472 70.742 88.0978 70.8797 87.4976 71.1552C86.2579 72.2277 85.5692 74.1168 85.5593 76.5471C85.5593 82.9327 90.046 90.7253 95.6051 93.9329C96.8645 94.72 98.3109 95.1726 99.8064 95.2415C100.475 95.2415 101.135 95.1037 101.745 94.8184C102.975 93.7361 103.644 91.8667 103.654 89.4364C103.663 83.0606 99.157 75.2582 93.6078 72.0506Z" fill="#EBEBEB"/>
<path d="M98.5568 87.6063L96.1757 85.422C95.8215 85.0973 95.6149 84.6447 95.5952 84.1724V83.8084C97.1105 84.0248 98.2026 82.9819 98.2026 81.0141C98.055 78.2099 96.5791 75.6517 94.2276 74.1267C92.0236 72.8574 90.2427 73.8807 90.2329 76.3995C90.351 78.5838 91.266 80.6402 92.8108 82.1849V82.549C92.8108 82.9721 92.5648 83.1984 92.2302 83.1295L89.8196 82.549C88.8751 82.244 87.8715 82.7654 87.5665 83.71C87.5173 83.8477 87.4976 83.9953 87.4878 84.1429L87.4583 84.2905C89.1703 88.2557 92.0335 91.6305 95.6739 93.9525C96.9334 94.7397 98.3797 95.1923 99.8753 95.2612C100.397 95.2612 100.918 95.1726 101.42 94.9955L100.967 91.9158C100.653 90.2629 99.8064 88.7476 98.5568 87.6063Z" fill="#128B84"/>
<path d="M229.585 43.9696C229.585 35.7244 223.809 25.6885 216.636 21.556C212.809 19.3422 209.365 19.2635 206.974 20.9165L204.17 22.6187C206.502 21.3789 209.69 21.6249 213.193 23.6419C220.365 27.7842 226.161 37.8202 226.131 46.0654C226.131 50.1486 224.695 53.0118 222.373 54.3795L225.57 52.4411C225.806 52.3231 226.033 52.1853 226.249 52.0377C228.315 50.5422 229.575 47.7872 229.585 43.9696Z" fill="#E0E0E0"/>
<path opacity="0.1" d="M229.585 43.9696C229.585 35.7244 223.809 25.6885 216.636 21.556C212.809 19.3422 209.365 19.2635 206.974 20.9165L204.17 22.6187C206.502 21.3789 209.69 21.6249 213.193 23.6419C220.365 27.7842 226.161 37.8202 226.131 46.0654C226.131 50.1486 224.695 53.0118 222.373 54.3795L225.57 52.4411C225.806 52.3231 226.033 52.1853 226.249 52.0377C228.315 50.5422 229.575 47.7872 229.585 43.9696Z" fill="black"/>
<path d="M226.112 46.0555C226.112 37.8103 220.346 27.7744 213.173 23.6321C209.67 21.6151 206.492 21.3691 204.151 22.6088C203.934 22.7269 203.718 22.8548 203.511 22.9926C201.425 24.4389 200.156 27.2136 200.146 31.0508C200.097 39.296 205.931 49.3418 213.085 53.4841C216.705 55.57 219.992 55.7569 222.353 54.3696C224.714 52.9823 226.102 50.1289 226.112 46.0555Z" fill="#E0E0E0"/>
<path d="M214.905 51.5458C208.126 47.6298 202.645 38.1154 202.645 30.3227C202.645 27.3612 203.491 25.0686 204.977 23.7404L204.761 23.8387C204.593 23.9273 204.436 24.0159 204.278 24.1241L204.21 24.1733C202.458 25.413 201.484 27.863 201.484 31.0607C201.484 38.8533 206.965 48.3678 213.744 52.2837C215.288 53.248 217.05 53.799 218.87 53.8777C219.834 53.8974 220.779 53.6514 221.615 53.1693C221.881 53.0118 222.127 52.8249 222.353 52.6183C221.625 52.9626 220.828 53.1397 220.021 53.1397C218.211 53.0512 216.449 52.51 214.905 51.5458Z" fill="#E0E0E0"/>
<path opacity="0.2" d="M214.905 51.5458C208.126 47.6298 202.645 38.1154 202.645 30.3227C202.645 27.3612 203.491 25.0686 204.977 23.7404L204.761 23.8387C204.593 23.9273 204.436 24.0159 204.278 24.1241L204.21 24.1733C202.458 25.413 201.484 27.863 201.484 31.0607C201.484 38.8533 206.965 48.3678 213.744 52.2837C215.288 53.248 217.05 53.799 218.87 53.8777C219.834 53.8974 220.779 53.6514 221.615 53.1693C221.881 53.0118 222.127 52.8249 222.353 52.6183C221.625 52.9626 220.828 53.1397 220.021 53.1397C218.211 53.0512 216.449 52.51 214.905 51.5458Z" fill="black"/>
<path d="M212.475 24.8227C210.93 23.8584 209.159 23.3074 207.348 23.2287C206.542 23.2189 205.745 23.396 205.016 23.7305C203.501 25.0391 202.685 27.3415 202.685 30.3129C202.685 38.0957 208.165 47.62 214.944 51.536C216.489 52.5002 218.26 53.0512 220.07 53.1299C220.877 53.1397 221.674 52.9528 222.402 52.6084C223.898 51.29 224.734 49.0073 224.734 46.0359C224.744 38.2433 219.254 28.7386 212.475 24.8227Z" fill="#EBEBEB"/>
<path d="M218.516 43.8319L215.593 41.1655C215.161 40.7719 214.905 40.2209 214.865 39.6404V39.1878C216.715 39.4535 218.043 38.1744 218.043 35.7835C217.856 32.3693 216.056 29.2503 213.193 27.3808C210.507 25.8361 208.322 27.0758 208.312 30.1555C208.46 32.8219 209.582 35.3309 211.461 37.22V37.6628C211.461 38.1744 211.166 38.4597 210.733 38.3417L207.811 37.6136C206.659 37.2495 205.42 37.8792 205.056 39.0402C205.007 39.2075 204.967 39.3846 204.957 39.5617L204.918 39.7388C207.142 44.6486 210.802 49.1352 214.944 51.536C216.489 52.5002 218.26 53.0512 220.07 53.1299C220.71 53.1299 221.34 53.0217 221.94 52.8052L221.389 49.0466C221.044 47.0395 220.021 45.2094 218.516 43.8319Z" fill="#128B84"/>
<path d="M184.787 143.542C184.472 143.542 184.207 143.286 184.217 142.961C184.217 142.873 184.236 142.774 184.285 142.696L206 102.532C206.099 102.227 206.433 102.06 206.738 102.168C207.043 102.267 207.211 102.601 207.102 102.906C207.083 102.975 207.043 103.034 207.004 103.083L185.289 143.237C185.191 143.424 185.004 143.542 184.787 143.542Z" fill="#128B84"/>
<path d="M188.674 151.885C188.349 151.866 188.103 151.59 188.123 151.275C188.133 151.069 188.251 150.892 188.428 150.793L203.974 143.542C204.239 143.365 204.603 143.434 204.78 143.699C204.957 143.965 204.889 144.329 204.623 144.506C204.574 144.545 204.515 144.565 204.456 144.585L188.91 151.836C188.841 151.876 188.762 151.885 188.674 151.885Z" fill="#128B84"/>
<path d="M219.047 117.744C218.742 117.744 218.486 117.507 218.467 117.202L217.758 105.474C217.748 105.159 217.994 104.894 218.319 104.884C218.634 104.874 218.899 105.12 218.909 105.435L219.618 117.163C219.637 117.478 219.391 117.753 219.077 117.773L219.047 117.744Z" fill="#128B84"/>
<path d="M213.124 73.1329H213.025C212.711 73.0738 212.504 72.7787 212.553 72.4638L215.308 56.977C215.416 56.672 215.751 56.5145 216.056 56.6228C216.292 56.7113 216.449 56.9278 216.44 57.1836L213.685 72.6901C213.626 72.9459 213.389 73.1329 213.124 73.1329Z" fill="#128B84"/>
<path d="M197.086 27.2825H197.057L170.51 26.1116C170.196 26.0919 169.959 25.8263 169.979 25.5114C169.999 25.2064 170.245 24.9801 170.55 24.9801L197.096 26.151C197.421 26.151 197.676 26.4166 197.676 26.7315C197.676 27.0463 197.411 27.312 197.096 27.312L197.086 27.2825Z" fill="#128B84"/>
<path d="M142.036 20.9264C141.987 20.9362 141.947 20.9362 141.898 20.9264L115.992 14.6195C115.697 14.5014 115.549 14.157 115.677 13.8619C115.775 13.6257 116.011 13.4781 116.267 13.5076L142.174 19.8145C142.498 19.8244 142.754 20.09 142.754 20.4147C142.744 20.7394 142.479 20.9952 142.154 20.9952C142.115 20.9952 142.085 20.9854 142.046 20.9854L142.036 20.9264Z" fill="#128B84"/>
<path d="M94.6014 64.3859H94.5227C94.2078 64.3367 93.9914 64.0514 94.0307 63.7365L97.2186 40.831C97.2777 40.5063 97.5925 40.2996 97.9074 40.3587C98.2025 40.4177 98.4092 40.6932 98.3895 40.9884L95.2114 63.8939C95.1622 64.1891 94.8966 64.3957 94.6014 64.3859Z" fill="#128B84"/>
<path d="M111.938 118.954C111.732 118.954 111.535 118.846 111.427 118.659L100.849 99.1378C100.741 98.8328 100.899 98.4982 101.194 98.39C101.44 98.3014 101.705 98.3802 101.863 98.5868L112.469 118.098C112.617 118.383 112.509 118.737 112.223 118.885C112.145 118.924 112.056 118.944 111.968 118.954H111.938Z" fill="#128B84"/>
<path d="M155.9 150.006C155.831 150.006 155.762 149.996 155.703 149.977L137.274 143.503C136.999 143.345 136.9 142.991 137.058 142.706C137.176 142.489 137.422 142.381 137.658 142.42L156.086 148.894C156.382 149.022 156.51 149.367 156.382 149.662C156.303 149.868 156.106 149.996 155.9 150.006Z" fill="#128B84"/>
<path d="M160.18 140.6C160.022 140.6 159.884 140.541 159.766 140.433L109.665 90.5679C109.439 90.3416 109.439 89.9775 109.665 89.7512C109.892 89.5249 110.256 89.5249 110.482 89.7512L160.583 139.616C160.809 139.852 160.79 140.216 160.563 140.443C160.455 140.531 160.317 140.59 160.18 140.6Z" fill="#128B84"/>
<path d="M103.644 72.1096C103.329 72.1096 103.073 71.844 103.073 71.5291C103.073 71.352 103.152 71.1847 103.299 71.0765L145.627 38.6073C145.854 38.3712 146.218 38.3712 146.454 38.5975C146.69 38.8238 146.69 39.1878 146.464 39.424C146.424 39.4633 146.375 39.5027 146.326 39.5322L103.988 71.9817C103.89 72.0604 103.772 72.0998 103.644 72.1096Z" fill="#128B84"/>
<path d="M202.655 73.1329C202.478 73.1329 202.311 73.0542 202.203 72.9164L170.393 32.7235C170.225 32.448 170.324 32.0839 170.599 31.9265C170.825 31.7986 171.111 31.8281 171.298 32.0052L203.098 72.1982C203.295 72.4441 203.255 72.8082 203.009 73.005C202.911 73.0935 202.783 73.1329 202.655 73.1329Z" fill="#128B84"/>
<g opacity="0.5">
<path d="M184.789 143.538C184.474 143.538 184.208 143.282 184.218 142.957C184.218 142.869 184.238 142.77 184.287 142.692L206.002 102.528C206.101 102.223 206.435 102.056 206.74 102.164C207.045 102.263 207.212 102.597 207.104 102.902C207.084 102.971 207.045 103.03 207.006 103.079L185.291 143.233C185.192 143.43 184.996 143.538 184.789 143.538Z" fill="white"/>
<path d="M188.675 151.891C188.351 151.872 188.105 151.596 188.124 151.281C188.134 151.075 188.252 150.898 188.429 150.799L203.975 143.548C204.241 143.371 204.605 143.439 204.782 143.705C204.959 143.971 204.89 144.335 204.625 144.512C204.575 144.551 204.516 144.571 204.457 144.591L188.912 151.842C188.843 151.872 188.754 151.891 188.675 151.891Z" fill="white"/>
<path d="M219.039 117.74C218.734 117.74 218.478 117.503 218.459 117.198L217.75 105.47C217.74 105.155 217.986 104.89 218.311 104.88C218.626 104.87 218.892 105.116 218.901 105.431L219.61 117.159C219.63 117.474 219.384 117.749 219.069 117.769L219.039 117.74Z" fill="white"/>
<path d="M213.126 73.129H213.027C212.713 73.0699 212.506 72.7747 212.555 72.4599L215.31 56.9731C215.418 56.6681 215.753 56.5106 216.058 56.6189C216.294 56.7074 216.451 56.9239 216.442 57.1797L213.687 72.6862C213.628 72.9519 213.391 73.129 213.126 73.129Z" fill="white"/>
<path d="M197.088 27.2785H197.058L170.512 26.1076C170.198 26.088 169.961 25.8223 169.981 25.5074C170.001 25.2024 170.247 24.9761 170.552 24.9761L197.098 26.147C197.423 26.147 197.678 26.4127 197.678 26.7275C197.678 27.0424 197.413 27.308 197.098 27.308L197.088 27.2785Z" fill="white"/>
<path d="M142.038 20.9322C141.989 20.9421 141.949 20.9421 141.9 20.9322L115.994 14.6253C115.699 14.5073 115.551 14.1629 115.679 13.8677C115.777 13.6316 116.013 13.484 116.269 13.5135L142.176 19.8204C142.5 19.8302 142.756 20.0959 142.756 20.4206C142.746 20.7453 142.481 21.0011 142.156 21.0011C142.117 21.0011 142.087 20.9913 142.048 20.9913L142.038 20.9322Z" fill="white"/>
<path d="M94.6034 64.3819H94.5246C94.2098 64.3327 93.9933 64.0474 94.0327 63.7325L97.2206 40.827C97.2796 40.5023 97.5945 40.2957 97.9093 40.3547C98.2045 40.4138 98.4111 40.6892 98.3914 40.9844L95.2036 63.89C95.1642 64.1851 94.8985 64.4016 94.6034 64.3819Z" fill="white"/>
<path d="M111.94 118.95C111.733 118.95 111.537 118.842 111.428 118.655L100.841 99.1436C100.733 98.8386 100.891 98.5041 101.186 98.3959C101.432 98.3073 101.697 98.386 101.855 98.5926L112.461 118.104C112.609 118.389 112.501 118.743 112.215 118.891C112.137 118.93 112.048 118.95 111.96 118.96L111.94 118.95Z" fill="white"/>
<path d="M155.901 150.012C155.832 150.012 155.763 150.002 155.704 149.983L137.276 143.508C137 143.351 136.902 142.997 137.059 142.711C137.177 142.495 137.423 142.387 137.659 142.426L156.088 148.9C156.383 149.028 156.511 149.372 156.383 149.668C156.295 149.864 156.108 150.002 155.901 150.012Z" fill="white"/>
<path d="M160.171 140.596C160.014 140.596 159.876 140.537 159.758 140.429L109.667 90.5639C109.441 90.3376 109.441 89.9735 109.667 89.7472C109.893 89.5209 110.257 89.5209 110.484 89.7472L160.585 139.612C160.811 139.848 160.791 140.212 160.565 140.439C160.457 140.537 160.319 140.596 160.171 140.596Z" fill="white"/>
<path d="M103.646 72.1057C103.331 72.1057 103.075 71.84 103.075 71.5251C103.075 71.348 103.154 71.1808 103.301 71.0725L145.629 38.6033C145.856 38.3672 146.22 38.3672 146.456 38.5935C146.692 38.8198 146.692 39.1839 146.466 39.42C146.426 39.4593 146.377 39.4987 146.328 39.5282L103.99 71.9876C103.892 72.0565 103.774 72.1057 103.646 72.1057Z" fill="white"/>
<path d="M202.647 73.1388C202.47 73.1388 202.303 73.06 202.194 72.9223L170.394 32.7195C170.227 32.444 170.325 32.08 170.601 31.9226C170.827 31.7946 171.113 31.8242 171.299 32.0013L203.1 72.1942C203.296 72.4402 203.257 72.8042 203.011 73.001C202.913 73.0896 202.785 73.1289 202.647 73.1388Z" fill="white"/>
</g>
<path d="M67.1424 116.113C72.4949 119.832 78.5165 122.4 82.9933 127.389C91.3369 136.687 91.5337 151.662 84.9808 162.308C78.4279 172.954 66.2372 179.349 53.8202 180.815C40.6358 182.409 27.3627 178.71 16.9136 170.534C6.51359 162.18 0.383795 149.645 0.187012 136.323C0.196851 123.188 6.90715 110.17 17.8975 103.007C27.9236 96.4644 42.3183 94.6049 52.3837 102.083C57.4607 105.871 60.8552 111.42 65.9224 115.238C66.3258 115.543 66.7292 115.828 67.1424 116.113Z" fill="#128B84"/>
<path opacity="0.2" d="M67.1424 116.113C72.4949 119.832 78.5165 122.4 82.9933 127.389C91.3369 136.687 91.5337 151.662 84.9808 162.308C78.4279 172.954 66.2372 179.349 53.8202 180.815C40.6358 182.409 27.3627 178.71 16.9136 170.534C6.51359 162.18 0.383795 149.645 0.187012 136.323C0.196851 123.188 6.90715 110.17 17.8975 103.007C27.9236 96.4644 42.3183 94.6049 52.3837 102.083C57.4607 105.871 60.8552 111.42 65.9224 115.238C66.3258 115.543 66.7292 115.828 67.1424 116.113Z" fill="black"/>
<path opacity="0.1" d="M67.1424 116.113C72.4949 119.832 78.5165 122.4 82.9933 127.389C91.3369 136.687 91.5337 151.662 84.9808 162.308C78.4279 172.954 66.2372 179.349 53.8202 180.815C40.6358 182.409 27.3627 178.71 16.9136 170.534C6.51359 162.18 0.383795 149.645 0.187012 136.323C0.196851 123.188 6.90715 110.17 17.8975 103.007C27.9236 96.4644 42.3183 94.6049 52.3837 102.083C57.4607 105.871 60.8552 111.42 65.9224 115.238C66.3258 115.543 66.7292 115.828 67.1424 116.113Z" fill="white"/>
<path opacity="0.1" d="M64.9581 170.642L64.9187 170.376C64.0135 164.423 59.4285 159.711 53.5053 158.638C48.3496 157.644 43.4103 155.745 38.9138 153.04C35.7161 151.111 32.7053 148.74 29.114 147.697C25.631 146.683 21.902 146.89 18.5566 148.277C21.7544 145.031 26.4968 143.82 30.8654 145.149C28.0022 140.78 25.4932 136.077 24.5093 130.941C23.5254 125.805 24.1945 120.216 27.284 116.005C32.2134 109.305 41.6393 107.868 48.3398 112.797C49.1269 113.378 49.8648 114.037 50.524 114.765C53.584 118.12 55.3059 122.824 57.3229 126.897C58.7594 129.819 60.2451 132.81 62.636 135.034C66.2372 138.399 71.3929 139.609 75.1219 142.827C79.3528 146.477 81.173 152.302 81.1828 157.88C81.114 161.649 80.563 165.388 79.5495 169.018C75.181 173.18 69.976 176.368 64.2693 178.356C65.1352 175.866 65.3615 173.23 64.9581 170.642Z" fill="black"/>
<path d="M7.1827 134.571C7.51723 115.867 21.3314 100.154 39.829 97.409C41.0786 97.5271 42.3085 97.7337 43.5285 98.0289C23.988 99.062 8.57002 115.011 8.1863 134.571C7.95016 146.782 13.9225 159.219 24.1552 167.847C32.1741 174.617 42.8398 179.094 54.5582 180.688L53.8104 180.786C52.7577 180.914 51.7049 181.002 50.6422 181.052C40.685 179.271 31.3477 174.981 23.5157 168.595C13.037 159.789 6.93672 147.057 7.1827 134.571Z" fill="white"/>
<path d="M78.6051 166.559C78.2214 168.566 78.005 170.602 77.9558 172.649L76.5192 172.108C75.1221 171.577 73.538 171.941 72.5049 173.023L72.436 173.102C71.8948 173.662 71.0192 173.702 70.4288 173.2C70.1238 172.934 69.9467 172.551 69.927 172.147L69.7302 165.998L78.6051 166.559Z" fill="#FFA8A7"/>
<path d="M73.0264 189.444C76.0273 192.652 81.5471 195.456 85.5614 192.721L85.1088 193.744C81.0945 196.479 75.5747 193.675 72.5738 190.468C69.5728 187.26 71.521 185.036 68.825 182.193C67.8116 181.219 67.0146 180.038 66.4932 178.73C66.6112 178.425 66.7293 178.021 66.867 177.559C67.4476 178.897 68.2642 180.117 69.2776 181.17C71.9736 183.984 70.0353 186.207 73.0264 189.444Z" fill="white"/>
<path d="M68.3528 174.184C68.8152 173.525 69.1301 172.777 69.2973 171.99C69.3465 171.616 69.563 171.291 69.8778 171.094V172.128C69.9074 172.934 70.5863 173.564 71.3931 173.535C71.767 173.525 72.131 173.357 72.3868 173.092L72.4557 173.013C73.4888 171.931 75.0729 171.577 76.4701 172.098L77.9361 172.649C78.3887 172.816 78.6741 173.249 78.6642 173.731C78.802 178.287 80.1598 182.724 82.59 186.571C84.7054 187.447 86.5454 190.33 85.6107 192.455L85.5123 192.662C81.4979 195.397 75.9781 192.593 72.9772 189.385C69.9762 186.178 71.9244 183.954 69.2285 181.111C68.215 180.058 67.3984 178.838 66.8179 177.5C67.1721 176.339 67.6837 175.217 68.3528 174.184Z" fill="#37474F"/>
<path d="M74.2069 180.255C73.9412 180.363 73.646 180.235 73.5378 179.979C73.4394 179.743 73.528 179.477 73.7444 179.349C75.5253 178.336 77.7194 178.336 79.5003 179.349C79.5987 179.684 79.6873 180.018 79.7857 180.343C78.0736 179.33 75.9484 179.3 74.2069 180.255Z" fill="white"/>
<path d="M73.469 177.982C73.2132 178.1 72.9082 178.002 72.7803 177.746C72.6622 177.5 72.7606 177.205 72.9967 177.077C74.8662 176.053 77.139 176.073 78.9888 177.126C79.0478 177.47 79.1167 177.815 79.1954 178.159C77.4539 177.067 75.2696 176.998 73.469 177.982Z" fill="white"/>
<path d="M75.0237 182.518C74.7679 182.636 74.4629 182.537 74.3349 182.282C74.2169 182.036 74.3153 181.74 74.5514 181.612C76.2929 180.629 78.428 180.609 80.1892 181.563C80.3171 181.917 80.4549 182.272 80.5926 182.606C78.8806 181.593 76.7652 181.563 75.0237 182.518Z" fill="white"/>
<path d="M82.6292 186.601C84.7446 187.477 86.5845 190.36 85.6498 192.485L85.5514 192.691C81.596 195.387 76.214 192.691 73.1541 189.553C75.6926 184.604 80.9959 185.843 82.6292 186.601Z" fill="white"/>
<path d="M75.9091 184.731C75.6533 184.85 75.3581 184.751 75.2302 184.495C75.1023 184.249 75.1908 183.954 75.4368 183.816C77.1882 182.833 79.3233 182.813 81.0845 183.767C81.2616 184.161 81.4485 184.535 81.6355 184.899C79.8939 183.816 77.7097 183.748 75.9091 184.731Z" fill="white"/>
<path d="M84.902 178.789C85.3644 180.786 85.9843 182.734 86.7616 184.623L85.2168 184.712C83.7213 184.791 82.4225 185.755 81.9109 187.162L81.8715 187.26C81.6059 187.988 80.8188 188.382 80.071 188.156C79.6873 188.037 79.3626 187.762 79.1855 187.398L76.519 181.858L84.902 178.789Z" fill="#FFA8A7"/>
<path d="M89.0247 201.95C93.0686 203.701 99.2476 204.006 101.816 199.894V201.005C99.2476 205.128 93.0588 204.793 89.0247 203.062C84.9907 201.33 85.8762 198.516 82.2554 197.011C80.9271 196.529 79.7169 195.771 78.7133 194.777C78.7133 194.453 78.6444 194.039 78.5952 193.567C79.6677 194.551 80.9074 195.348 82.2554 195.899C85.8762 197.404 84.9907 200.228 89.0247 201.95Z" fill="white"/>
<path d="M78.605 189.897C78.7723 189.11 78.7723 188.303 78.605 187.516C78.5067 187.152 78.5755 186.768 78.792 186.463L79.2348 187.398C79.4119 187.762 79.7366 188.037 80.1203 188.155C80.8582 188.382 81.6552 187.988 81.9208 187.26L81.9602 187.162C82.4718 185.755 83.7706 184.791 85.2662 184.712L86.8404 184.623C87.3225 184.594 87.7653 184.879 87.9424 185.322C89.9102 189.435 92.9505 192.947 96.7288 195.496C99.0213 195.446 101.855 197.345 101.855 199.667V199.894C99.2869 204.016 93.0981 203.682 89.0641 201.95C85.03 200.218 85.9155 197.404 82.2947 195.899C80.9468 195.338 79.707 194.551 78.6346 193.567C78.4476 192.347 78.4378 191.117 78.605 189.897Z" fill="#37474F"/>
<path d="M86.4174 193.085C86.2304 193.301 85.9057 193.321 85.6893 193.124C85.4925 192.947 85.463 192.652 85.6105 192.436C86.8306 190.792 88.828 189.907 90.8647 190.104C91.0811 190.369 91.3074 190.625 91.5337 190.891C89.5659 190.674 87.6177 191.511 86.4174 193.085Z" fill="white"/>
<path d="M84.8233 191.304C84.6462 191.52 84.3215 191.55 84.105 191.373C83.8886 191.196 83.8492 190.881 84.0263 190.664C85.3251 188.972 87.411 188.077 89.5264 188.293C89.7232 188.588 89.92 188.874 90.1069 189.149C88.0899 188.864 86.0729 189.69 84.8233 191.304Z" fill="white"/>
<path d="M88.0704 194.836C87.8835 195.053 87.5588 195.072 87.3423 194.876C87.1456 194.699 87.116 194.403 87.2636 194.187C88.464 192.573 90.4023 191.698 92.3997 191.855C92.6653 192.131 92.9211 192.396 93.1868 192.652C91.219 192.426 89.2708 193.252 88.0704 194.836Z" fill="white"/>
<path d="M96.6894 195.496C98.9819 195.446 101.816 197.345 101.816 199.667V199.894C99.287 203.977 93.2556 203.692 89.2117 202.029C89.5265 196.45 94.8495 195.476 96.6894 195.496Z" fill="white"/>
<path d="M89.7528 196.499C89.5659 196.716 89.2412 196.735 89.0247 196.538C88.8279 196.361 88.7984 196.066 88.946 195.85C90.1464 194.236 92.0945 193.351 94.0919 193.518C94.3969 193.803 94.7216 194.079 95.0561 194.334C93.0391 194.059 91.0122 194.885 89.7528 196.499Z" fill="white"/>
<path d="M61.1897 126.257L81.3993 137.523C85.1578 139.619 87.1552 143.869 86.3681 148.1L82.4422 169.225L86.5255 181.721C82.6292 186.591 75.1514 185.873 75.1514 185.873C71.5995 178.749 70.3302 173.19 68.3132 167.218C66.2962 161.245 64.9482 157.123 64.9482 157.123L48.1725 152.548C40.3208 150.413 34.5551 143.702 33.6302 135.614C33.3449 133.076 33.3252 131.344 33.3252 131.344L61.1897 126.257Z" fill="#0763B2"/>
<path opacity="0.2" d="M61.0323 131.944C61.0323 134.198 60.2255 136.382 58.7693 138.104L73.0361 147.028C75.122 148.336 76.6765 150.363 77.3948 152.725L82.4423 169.235L77.8868 150.855C77.3653 148.74 76.0272 146.92 74.1774 145.768L61.0028 137.631C61.8489 135.821 61.8489 133.745 61.0323 131.944Z" fill="black"/>
<path d="M73.6165 106.992C71.5601 112.512 64.5547 111.076 64.5547 111.076C64.2005 103.677 73.6165 106.992 73.6165 106.992Z" fill="#263238"/>
<path d="M58.9956 91.535H59.5171C63.0198 91.5744 67.4278 93.9456 69.5924 100.046L77.9852 116.29L68.4018 120.561L63.1477 105.231L58.9956 91.535Z" fill="#FFBE9D"/>
<path opacity="0.2" d="M65.7255 102.319C66.2864 104.277 66.5619 106.294 66.5422 108.33C66.5422 110.485 66.9751 112.63 67.8114 114.618C69.917 113.162 72.7212 113.27 74.7087 114.874C75.4073 115.454 75.9386 116.212 76.2633 117.058L68.4018 120.561L63.1477 105.231L60.5698 96.7596C62.9607 97.842 64.8203 99.8491 65.7255 102.319Z" fill="black"/>
<path d="M68.3134 117.638C69.0513 115.798 70.6944 114.48 72.6426 114.136C74.6793 113.929 76.6766 114.746 77.9754 116.33C78.9003 117.648 78.9888 119.39 78.2017 120.797C77.0604 123.197 74.394 124.467 71.8161 123.827C69.3268 123.099 67.3786 120.01 68.3134 117.638Z" fill="#FFBE9D"/>
<path d="M58.9955 91.5351C63.1673 91.0628 68.4214 92.9913 73.6165 106.992C66.8472 107.16 64.5546 111.076 64.5546 111.076C61.4947 103.313 58.0608 92.5387 58.0608 92.5387L58.9955 91.5351Z" fill="#455A64"/>
<path opacity="0.566" d="M58.9955 91.5351C63.1673 91.0628 68.4214 92.9913 73.6165 106.992C66.8472 107.16 64.5546 111.076 64.5546 111.076C61.4947 103.313 58.0608 92.5387 58.0608 92.5387L58.9955 91.5351Z" fill="#128B84"/>
<path d="M33.0202 132.928C36.6016 136.372 53.83 137.012 62.6164 128.638C61.9079 122.499 61.9079 116.29 62.6164 110.151C63.1969 103.923 66.8373 92.9519 59.8516 91.6826C50.5142 89.8624 45.8111 91.535 38.1956 93.5127C31.5443 104.601 32.4594 121.19 33.0202 132.928Z" fill="#128B84"/>
<path opacity="0.2" d="M33.0202 132.928C36.6016 136.372 53.83 137.012 62.6164 128.638C61.9079 122.499 61.9079 116.29 62.6164 110.151C63.1969 103.923 66.8373 92.9519 59.8516 91.6826C50.5142 89.8624 45.8111 91.535 38.1956 93.5127C31.5443 104.601 32.4594 121.19 33.0202 132.928Z" fill="#128B84"/>
<path d="M46.7656 87.6781C45.4078 87.0681 44.3845 85.907 43.9614 84.4804C43.5482 83.0734 43.3415 81.6172 43.3514 80.1511C43.2136 76.7665 43.066 73.3916 42.9185 70.007C42.7315 68.6393 42.9381 67.252 43.499 66.0024C44.5026 64.2019 46.7754 63.5525 48.576 64.5561C48.7432 64.6446 48.9007 64.7529 49.0581 64.8709C50.4651 62.0569 53.466 60.4138 56.5949 60.7188C58.3364 61.0927 59.9992 61.7814 61.5046 62.7555L66.5816 65.6286C67.6934 66.1303 68.6577 66.9175 69.3759 67.9112C69.9171 68.8755 70.0942 70.007 69.8974 71.0893C69.7006 72.1716 69.3759 73.2145 68.943 74.228C68.5298 75.4382 67.9689 76.5992 67.29 77.6815C66.6013 78.7737 65.5583 79.6001 64.3383 80.0134C60.3337 81.1842 57.2344 84.4607 53.6136 86.5564C52.6395 87.1763 51.5966 87.6683 50.5044 88.0421C49.2352 88.2783 47.9364 88.1602 46.7656 87.6781Z" fill="#263238"/>
<path d="M55.7782 88.4947L55.4141 92.5386C55.3945 92.8535 55.4732 93.1683 55.6404 93.434C56.1029 94.2998 55.9651 95.3624 55.2862 96.0709C54.7648 96.4546 54.135 96.6612 53.4857 96.6514C50.9964 96.7891 48.5562 95.8446 46.8049 94.0735C46.4507 93.6996 46.2539 93.2077 46.2736 92.6862L46.5392 82.424L55.7782 88.4947Z" fill="#FFBE9D"/>
<path opacity="0.3" d="M46.559 82.4633L55.798 88.4849L55.4733 92.0762C53.4956 91.7318 51.6262 90.9545 49.9929 89.7836C48.0054 88.1897 46.2737 86.6056 46.559 82.4633Z" fill="black"/>
<path d="M66.2964 73.8541C66.0897 78.5769 64.9681 83.221 62.9806 87.5108C62.5772 88.4652 62.036 89.3507 61.3866 90.1576C60.7274 90.9644 59.8124 91.5252 58.7989 91.7613C57.5297 91.8794 56.2506 91.6531 55.0896 91.1218C52.8561 90.4626 50.7603 89.3901 48.9106 87.9733C47.1592 86.4482 45.9883 84.0376 46.5787 81.7844C45.3193 82.2862 43.9024 82.119 42.7906 81.3318C41.728 80.4857 41.1672 79.1574 41.2951 77.7996C41.2164 76.4319 42.2691 75.2512 43.6466 75.1824C44.4928 75.1332 45.2996 75.5169 45.7916 76.2056C46.2835 76.8255 46.6968 77.5143 47.0018 78.2522C47.1395 78.6064 47.3461 78.9213 47.6118 79.1967C47.8873 79.4722 48.3104 79.5411 48.6646 79.3739C48.9794 79.0984 49.1664 78.7048 49.1566 78.2817L49.5304 75.3595C49.5895 74.897 49.924 74.5231 50.3668 74.3952C51.0162 74.1689 51.5671 73.7262 51.9214 73.1358C52.2264 72.6144 52.4527 72.0535 52.5904 71.4632C52.679 71.0794 53.0725 70.8433 53.4563 70.9319C53.535 70.9515 53.6038 70.9811 53.6727 71.0204C57.4903 73.2342 61.8983 74.228 66.2964 73.8541Z" fill="#FFBE9D"/>
<path d="M66.6209 73.0473C66.4438 74.4444 65.4697 75.6153 64.1316 76.0384L64.8499 74.5527C63.6003 75.4775 62.1047 76.0089 60.56 76.0876C61.2192 75.6546 61.7604 75.0446 62.1047 74.3362C60.4419 75.4874 58.5233 76.2056 56.5161 76.4221C57.7263 75.9498 58.7988 75.1922 59.6548 74.2181C58.1789 75.2611 56.3685 75.7334 54.568 75.5661L55.9651 73.9328C54.568 74.6511 52.9937 74.9364 51.4293 74.7593L53.0921 73.1358L50.6028 73.5786C51.1046 72.3192 51.4686 71.0204 51.7048 69.6921C54.2236 69.4855 56.7523 69.7118 59.2022 70.3317C61.721 71.0893 64.2005 71.9945 66.6209 73.0473Z" fill="#263238"/>
<path opacity="0.15" d="M58.4347 132.515V132.318L64.7022 120.639L65.5582 121.623L59.2907 133.302C59.2513 133.371 59.2218 133.44 59.212 133.519C59.1923 133.558 59.1923 133.607 59.212 133.656L58.356 132.672C58.356 132.653 58.356 132.643 58.356 132.623C58.356 132.613 58.356 132.594 58.356 132.584L58.4347 132.515Z" fill="white"/>
<path opacity="0.2" d="M64.8008 120.561V120.423C64.8008 120.413 64.8008 120.393 64.8008 120.383L64.8303 120.344L64.8598 120.305V120.206L64.9483 120.128H65.0959L65.1353 120.098L72.3376 116.044H72.8295C72.8689 116.044 72.9082 116.054 72.9377 116.084L73.7937 117.068C73.7544 117.018 73.6855 117.009 73.5871 117.028C73.4494 117.068 73.3215 117.117 73.1936 117.196L65.9815 121.249C65.8339 121.328 65.706 121.417 65.5781 121.515C65.4403 121.623 65.3124 121.741 65.1845 121.849C65.0664 121.968 64.9484 122.095 64.85 122.214C64.7614 122.322 64.6827 122.43 64.6138 122.548L63.7578 121.564L64.8008 120.561Z" fill="white"/>
<path d="M33.581 96.6612C34.4862 94.9 36.2179 93.7193 38.1956 93.5225L39.4058 95.3723C40.675 97.6845 41.3244 100.272 41.2949 102.909L41.0785 122.381L42.5051 122.961C46.5195 124.693 50.7208 125.962 55.0304 126.749C57.2639 124.978 60.0385 124.034 62.8918 124.073L61.8292 126.051C63.8462 127.34 68.3919 125.018 68.3919 125.018C68.7265 127.851 66.8964 130.803 64.4563 132.289C62.0162 133.774 38.7662 131.59 33.8073 128.392C30.5604 126.287 31.3279 106.205 31.3279 106.205C31.1212 102.87 31.8985 99.5441 33.581 96.6612Z" fill="#FFBE9D"/>
<path d="M73.341 119.144C73.4985 119.911 73.587 120.698 73.6067 121.476C73.4296 123.335 72.6326 125.087 71.3634 126.454C71.0977 126.759 70.773 126.985 70.3991 127.133C70.0252 127.281 69.5923 127.212 69.2775 126.956C69.002 126.631 68.8642 126.208 68.8839 125.785C68.8249 125.155 68.8544 124.516 68.9823 123.896C69.12 123.266 69.4742 122.715 69.976 122.332C70.3696 122.086 70.7927 121.889 71.2355 121.751C71.6684 121.574 72.0521 121.289 72.3571 120.934L73.341 119.144Z" fill="#FFBE9D"/>
<path d="M38.1956 93.5225C32.5971 94.0538 29.4978 97.9305 30.8654 115.07C34.8405 117.648 41.8656 115.454 41.8656 115.454C43.0561 96.6809 40.0158 94.6245 38.1956 93.5225Z" fill="#455A64"/>
<path opacity="0.566" d="M38.1956 93.5225C32.5971 94.0538 29.4978 97.9305 30.8654 115.07C34.8405 117.648 41.8656 115.454 41.8656 115.454C43.0561 96.6809 40.0158 94.6245 38.1956 93.5225Z" fill="#128B84"/>
<path d="M58.425 132.545C58.425 132.554 58.425 132.574 58.425 132.584C58.425 132.604 58.425 132.614 58.425 132.633L59.2811 133.617V133.548C59.2811 133.696 59.5369 133.696 59.9009 133.489L67.113 129.435C67.6738 129.111 68.1461 128.668 68.4905 128.127L74.758 116.458C74.8663 116.261 74.8564 116.153 74.758 116.094L73.9807 115.119C73.9512 115.09 73.9119 115.08 73.8725 115.08H73.3806L66.1783 119.134L66.1389 119.163H65.9914L65.9028 119.242V119.34L65.8733 119.38L65.8438 119.419C65.8438 119.429 65.8438 119.449 65.8438 119.459V119.636L59.5762 131.315V131.512V131.551L58.425 132.545ZM66.198 120.895L66.3948 120.728L66.198 120.895ZM65.8536 121.259L65.9422 121.161L65.8536 121.259ZM59.2712 133.479C59.2811 133.401 59.3106 133.332 59.3499 133.263C59.3106 133.332 59.2811 133.41 59.2712 133.499C59.2811 133.489 59.2909 133.489 59.2909 133.479H59.2712Z" fill="#263238"/>
<path opacity="0.566" fill-rule="evenodd" clip-rule="evenodd" d="M152.29 120.518C149.811 118.816 149.811 118.777 149.486 116.15C149.427 115.648 149.191 115.126 148.935 114.684C147.312 111.899 145.196 109.37 144.567 106.065C144.478 105.592 144.026 105.209 143.76 104.766C143.15 103.742 142.422 102.768 141.999 101.676C141.595 100.643 141.477 99.4821 141.29 98.3703C140.966 96.3828 140.601 94.3953 140.405 92.3881C140.277 91.109 140.434 89.8004 140.454 88.5115C140.287 88.5115 140.119 88.5115 139.952 88.5115C139.903 88.9247 139.873 89.3478 139.805 89.761C139.529 91.296 137.669 92.4963 136.292 91.7781C134.796 90.9909 133.498 89.8299 131.815 88.6099C133.104 88.0294 133.94 87.6555 134.787 87.2717C132.858 87.2324 131.569 86.3272 130.516 84.9497C130.516 84.7529 130.516 84.5561 130.516 84.3692C131.274 83.9756 131.992 83.3558 132.789 83.2278C134.009 83.0311 135.288 83.1787 136.548 83.1787C136.617 83.0015 136.676 82.8146 136.745 82.6375C135.889 81.1518 135.092 79.6366 134.167 78.2C133.537 77.2161 133.753 76.3995 134.304 75.5041C134.855 74.6284 135.593 74.6875 136.469 74.8252C136.931 74.8941 137.581 74.8646 137.896 74.5891C140.316 72.4441 141.467 69.3842 143.347 66.8457C143.445 66.7079 143.406 66.4816 143.435 66.2947C143.553 65.6453 143.671 64.9959 143.839 64.1399C143.72 64.0809 143.356 63.7857 142.973 63.7463C141.989 63.6381 141.398 63.3134 141.615 62.1819C141.654 61.9753 141.585 61.6506 141.438 61.5227C139.923 60.2731 140.71 59.2892 142.117 58.1872C140.867 57.4788 139.824 56.8786 138.417 56.0718C139.175 55.4519 139.854 54.773 140.651 54.2909C141.29 53.8973 142.058 53.7301 142.776 53.4644C143.356 53.4644 143.947 53.4644 144.527 53.4644C145.521 54.2319 146.584 54.9304 147.489 55.7865C148.473 56.7113 149.299 57.036 150.441 56.0029C150.854 55.6192 151.641 55.3929 152.192 55.4814C152.822 55.5897 153.629 56.0029 153.894 56.5146C154.15 57.0163 153.993 57.9019 153.717 58.4725C153.294 59.3581 152.33 60.0468 152.822 61.2177C153.629 63.1166 153.56 63.4118 151.828 64.6319C152.507 66.029 153.648 66.8161 155.134 67.1999C155.852 67.3868 156.62 67.3475 156.885 68.4101C157.141 69.4334 156.748 69.9352 156.049 70.4861C155.439 70.9683 155.134 71.6176 156.019 72.0998C158.194 73.2903 160.526 73.9594 163.025 74.1463C164.078 74.225 165.239 74.53 166.085 75.1204C167.649 76.1929 169.263 75.1893 170.808 75.5632C170.896 75.5828 171.024 75.3959 171.142 75.3073C172.077 74.5792 171.565 73.9495 171.123 73.2018C170.936 72.8869 170.985 72.208 171.211 71.9423C171.516 71.5783 172.097 71.4504 172.559 71.2241C172.756 71.6275 172.972 72.0211 173.13 72.4343C173.297 72.8672 173.287 73.4674 173.582 73.7331C174.655 74.6875 178.866 73.9102 179.801 72.6803C179.417 72.2375 179.033 71.7948 178.699 71.4012C179.624 70.7912 180.519 70.4173 181.09 69.7679C182.29 68.3806 183.254 66.7473 185.498 67.0818C185.645 67.1015 185.822 66.8358 185.989 66.826C186.501 66.7965 187.278 66.6194 187.465 66.8653C188.075 67.6918 188.922 67.623 189.738 67.7607C189.738 68.8332 189.738 69.8958 189.738 70.9683C188.971 71.2733 188.144 71.4897 187.436 71.8931C185.566 72.9755 186.521 74.8843 186.432 76.3503C186.334 78.1607 186.039 79.1249 184.091 79.6759C184.091 80.8369 184.14 82.0373 184.061 83.2475C184.041 83.6608 183.726 84.0543 183.54 84.4577C183.136 84.1724 182.546 83.9756 182.369 83.5919C182.014 82.7851 181.877 81.8799 181.621 80.8861C180.932 81.5355 180.332 82.0963 179.732 82.6572C179.515 81.2502 178.403 79.8727 180.056 78.7707C180.312 78.5936 180.312 78.0229 180.43 77.6294C180.027 77.5999 179.624 77.5211 179.24 77.5605C178.964 77.59 178.709 77.777 178.433 77.8753C176.662 78.4657 176.062 78.2197 175.048 76.5766C174.881 76.3011 174.458 76.0256 174.163 76.0256C173.553 76.0354 172.933 76.2322 172.067 76.3995C173.572 76.9505 174.33 77.5703 173.051 78.8494C172.903 78.997 172.923 79.6169 173.081 79.7251C174.891 80.9944 174.507 83.1393 175.137 84.871C175.255 85.1957 174.901 85.973 174.576 86.1304C173.523 86.6125 172.382 86.9077 171.29 87.2619C171.329 87.744 171.29 88.0097 171.388 88.2163C171.89 89.3478 171.487 90.007 170.503 90.7351C168.948 91.8961 167.039 92.7423 166.341 94.838C166.193 95.2808 165.495 95.5071 165.219 95.94C164.314 97.3274 162.297 97.9079 162.277 99.9839C162.277 100.22 161.677 100.496 161.313 100.673C160.201 101.233 159.07 101.725 157.977 102.306C157.84 102.385 157.8 102.847 157.869 103.093C158.528 105.789 159.63 108.465 157.84 111.151C157.771 111.25 157.859 111.447 157.82 111.574C157.456 112.893 158.794 114.605 156.895 115.589C156.826 115.628 156.934 116.14 157.053 116.376C157.239 116.75 157.515 117.075 157.781 117.468C155.213 117.694 155.213 117.694 153.609 120.518" fill="#128B84"/>
</g>
<defs>
<clipPath id="clip0_84_12334">
<rect width="230" height="210.223" fill="white" transform="translate(0.187012 0.92334)"/>
</clipPath>
</defs>
</svg>
