<svg width="46" height="46" viewBox="0 0 46 46" fill="none" xmlns="http://www.w3.org/2000/svg">
<path d="M37.5967 41.3213H7.59668C7.0994 41.3213 6.62249 41.1237 6.27085 40.7721C5.91922 40.4205 5.72168 39.9436 5.72168 39.4463V5.69629C5.72168 5.19901 5.91922 4.72209 6.27085 4.37046C6.62249 4.01883 7.0994 3.82129 7.59668 3.82129H37.5967C38.094 3.82129 38.5709 4.01883 38.9225 4.37046C39.2741 4.72209 39.4717 5.19901 39.4717 5.69629V39.4463C39.4717 39.9436 39.2741 40.4205 38.9225 40.7721C38.5709 41.1237 38.094 41.3213 37.5967 41.3213ZM35.7217 37.5713V7.57129H9.47168V37.5713H35.7217ZM16.9717 11.3213V15.0713C16.9717 16.5631 17.5643 17.9939 18.6192 19.0488C19.6741 20.1037 21.1048 20.6963 22.5967 20.6963C24.0885 20.6963 25.5193 20.1037 26.5742 19.0488C27.629 17.9939 28.2217 16.5631 28.2217 15.0713V11.3213H31.9717V15.0713C31.9717 17.5577 30.984 19.9423 29.2258 21.7004C27.4677 23.4586 25.0831 24.4463 22.5967 24.4463C20.1103 24.4463 17.7257 23.4586 15.9676 21.7004C14.2094 19.9423 13.2217 17.5577 13.2217 15.0713V11.3213H16.9717Z" fill="#00B6AD"/>
</svg>
