<svg width="40" height="40" viewBox="0 0 40 40" fill="none" xmlns="http://www.w3.org/2000/svg">
<path d="M5.2684 7.44836C7.20184 5.51458 9.79507 4.38351 12.5277 4.28211C15.2604 4.18072 17.9303 5.11651 20.0017 6.9017C22.0713 5.11948 24.7377 4.18475 27.4671 4.28463C30.1965 4.38452 32.7874 5.51165 34.7212 7.44037C36.655 9.3691 37.7889 11.9571 37.8959 14.6862C38.0029 17.4153 37.0752 20.0841 35.2984 22.1584L22.3567 35.1417C21.7621 35.7365 20.9647 36.0845 20.1243 36.1161C19.2838 36.1476 18.4626 35.8603 17.8251 35.3117L17.6417 35.1434L4.70174 22.1584C2.92589 20.0859 1.9977 17.4195 2.10276 14.6923C2.20782 11.9651 3.33838 9.37805 5.2684 7.44836ZM7.62507 9.80503C6.26214 11.1683 5.47649 13.0041 5.43118 14.9313C5.38587 16.8585 6.08438 18.7292 7.38174 20.155L7.62507 20.4117L20.0001 32.7867L28.8384 23.9467L22.9467 18.055L21.1801 19.8217C20.7158 20.2861 20.1647 20.6546 19.5581 20.906C18.9515 21.1575 18.3012 21.287 17.6446 21.2871C16.3184 21.2874 15.0464 20.7609 14.1084 19.8234C13.1704 18.8858 12.6433 17.6141 12.643 16.2879C12.6427 14.9617 13.1692 13.6897 14.1067 12.7517L17.6101 9.2467C16.2159 8.13399 14.4708 7.55451 12.6879 7.61224C10.905 7.66997 9.20105 8.36112 7.88174 9.5617L7.62507 9.80503ZM21.7684 14.5184C22.0809 14.2059 22.5048 14.0304 22.9467 14.0304C23.3887 14.0304 23.8125 14.2059 24.1251 14.5184L31.1951 21.5884L32.3751 20.4117C33.7608 19.0269 34.5498 17.1549 34.5731 15.196C34.5965 13.237 33.8524 11.3467 32.5001 9.92929C31.1478 8.51185 29.2945 7.67981 27.3366 7.61112C25.3788 7.54242 23.4718 8.24253 22.0234 9.5617L21.7684 9.80503L16.4651 15.1084C16.1762 15.3971 16.0034 15.7818 15.9794 16.1895C15.9554 16.5972 16.082 16.9995 16.3351 17.32L16.4651 17.465C16.7538 17.7539 17.1385 17.9267 17.5462 17.9507C17.9539 17.9747 18.3562 17.8481 18.6767 17.595L18.8217 17.465L21.7684 14.5184Z" fill="#275A9E"/>
</svg>
