<?xml version="1.0" encoding="utf-8"?>
<!-- Generator: Adobe Illustrator 26.3.1, SVG Export Plug-In . SVG Version: 6.00 Build 0)  -->
<svg version="1.1" id="Layer_1" xmlns="http://www.w3.org/2000/svg" xmlns:xlink="http://www.w3.org/1999/xlink" x="0px" y="0px"
	 viewBox="0 0 26 30" style="enable-background:new 0 0 26 30;" xml:space="preserve">
<style type="text/css">
	.st0{fill:#1C9F98;stroke:#FFFFFF;stroke-width:0.4;stroke-miterlimit:10;}
</style>
<g id="Layer_2_00000174586269770927106960000014291205735199423912_">
	<g id="Layer_1-2_00000060020330635474073740000010648215618173089722_">
		<path class="st0" d="M13,27c-2,0-4,0-6,0c-2.3,0-4.3-1.6-4.9-3.8C2.1,22.8,2,22.3,2,21.9c0-2.6,0-5.2,0-7.8c0-2.5,1.6-4.4,3.9-5
			C6.3,9,6.7,9,7.1,9c4,0,7.9,0,11.9,0c2.6,0,4.7,1.8,5,4.4c0,0.2,0,0.5,0,0.8c0,2.6,0,5.2,0,7.8c0,2.5-1.6,4.4-3.9,5
			C19.7,27,19.3,27,18.9,27C16.9,27,15,27,13,27z M13,11h-1.6c-1.4,0-2.9,0-4.3,0C5.3,11,4,12.3,4,14.1c0,2.6,0,5.3,0,7.9
			c0,0.4,0.1,0.8,0.2,1.1C4.7,24.3,5.8,25,7.1,25c3.9,0,7.9,0,11.8,0c0.1,0,0.2,0,0.3,0c1.6-0.1,2.8-1.4,2.8-3c0-2.7,0-5.4,0-8.1
			c0-0.2,0-0.4-0.1-0.6c-0.3-1.4-1.5-2.3-3-2.3C17,11,15,11,13,11z"/>
		<path class="st0" d="M13,3c2.3,0,4.7,0,7,0c2.3,0,4.3,1.5,4.8,3.7C24.9,7.1,25,7.5,25,7.9c0,0.6-0.4,1-0.9,1.1c-0.5,0-1-0.4-1-1
			c0-0.7-0.2-1.2-0.6-1.8C21.9,5.5,21.1,5,20.2,5c-0.1,0-0.2,0-0.3,0c-4.6,0-9.2,0-13.8,0C4.7,5,3.6,5.7,3.2,7C3.1,7.3,3,7.8,3,8.2
			C2.9,8.7,2.4,9.1,1.9,9C1.7,9,1.6,8.9,1.4,8.8C1.1,8.6,1,8.3,1,7.9c0-2.2,1.6-4.3,3.8-4.8C5.3,3.1,5.7,3,6.1,3C8.4,3,10.7,3,13,3z
			"/>
		<path class="st0" d="M13,17c-1.1,0-2.2,0.1-3.3,0C8.2,16.9,7,15.6,7,14.1c0-0.4,0-0.7,0-1.1c0-0.6,0.4-1,1-1c0.5,0,1,0.4,1,0.9
			c0,0.3,0,0.7,0,1c0,0.7,0.4,1.1,1.1,1.1h5.8c0.7,0,1.1-0.4,1.1-1.1c0-0.3,0-0.6,0-0.9c0-0.6,0.4-1,1-1c0.6,0,1,0.5,1,1.1
			c0,0.5,0,1.1-0.1,1.6c-0.3,1.4-1.5,2.4-3,2.4C15,17,14,17,13,17L13,17z"/>
	</g>
</g>
</svg>
