<svg xmlns="http://www.w3.org/2000/svg" viewBox="0 0 320.6 230.53"><defs><style>.cls-1{opacity:0.6;}.cls-2{fill:#fff;}</style></defs><g id="Layer_2" data-name="Layer 2"><g id="Layer_1-2" data-name="Layer 1"><g class="cls-1"><path d="M281.09,230.2q-37.38-2-74.75-4-26.42-1.46-52.8-3c-4.48-.26-9-.58-13.41-1.12-10.4-1.25-18-9.59-17.53-20.18,1-22.45,2.42-44.89,3.71-67.33q3.23-55.83,6.45-111.68c.55-9.69,3.81-17.66,13.49-21.34A24.37,24.37,0,0,1,155.91,0c29.74,1.61,59.47,3.43,89.21,5.17,18.6,1.09,37.19,2.23,55.8,3.2,11.5.59,20.18,9.29,19.66,20.79-1,21.28-2.27,42.56-3.49,63.83q-2.37,41.13-4.82,82.25c-.7,12-1.21,23.95-2.21,35.89-1.09,13-9.85,20.14-23,19.31-2-.13-4,0-6,0ZM309.93,45.28c.32-5.32.75-10.64.92-16,.2-6.28-3.57-10.62-9.75-11-28.75-1.77-57.5-3.42-86.25-5.14C195.08,12,175.3,10.8,155.54,9.5c-7.86-.51-12.42,3.32-13,11.52-.51,7.64-.84,15.29-1.27,22.94q-2.75,48.14-5.5,96.26c-1.15,20.29-2.38,40.57-3.36,60.87-.34,6.82,3.48,10.85,9.9,11.25,21.59,1.35,43.18,2.76,64.78,4,26.92,1.52,53.86,2.87,80.78,4.34,7.92.43,12-2.88,12.45-10.77,1.76-29.43,3.4-58.86,5.11-88.3Q307.67,83.44,309.93,45.28Z"/><path d="M61.19,62.36c.62,3.4,1.16,6.31,1.78,9.7-4.37,1.68-8.84,3.37-13.28,5.11-6.86,2.69-8,5.92-4.22,12.27,20.4,34.24,40.91,68.42,61.17,102.75,2.84,4.81,4.57,10.28,6.69,15.5A142.89,142.89,0,0,1,119.89,227c-3.13-3.17-7-5.88-9.25-9.58C90.3,183.64,70.26,149.7,50.11,115.84c-4.4-7.38-9-14.63-13.37-22-6.43-11-3.08-20.63,8.68-25.34C50.5,66.41,55.62,64.5,61.19,62.36Z"/><path d="M121.92,28.4c0,2.82.49,5.12-.14,7.06-.54,1.67-2.08,3.72-3.63,4.26-8.61,3-17.4,5.45-26.06,8.31-9,3-12.38,10-9,18.82q14.66,38.69,29.54,77.29c1.84,4.76,2.94,9.31,2,14.47-.74,4.19-.57,8.53-1.89,13.07q-4.2-10.89-8.41-21.78Q89.52,111.31,74.7,72.69C68.22,55.91,74,43.52,91.06,38.06,101.15,34.83,111.28,31.72,121.92,28.4Z"/><path d="M96.28,216.31,37,161.31c-10.25-9.52-20.53-19-30.72-28.57-9.19-8.65-8.27-18.49,2.28-25.21,5.46-3.48,11-6.81,16.79-10.39l4.85,8.35c-5.31,3.32-10.47,6.54-15.62,9.78-6,3.76-6.3,6-1.29,10.68,21,19.52,42,39,62.89,58.53a43.55,43.55,0,0,1,7,8.36c4.81,7.53,9.29,15.27,13.9,22.92Z"/><path d="M295.6,50.85C294.72,66,294,81.09,292.92,96.19c-.66,9.58-3.59,12.36-13.25,11.94-16.25-.7-32.47-1.86-48.7-2.81-12.59-.73-25.18-1.37-37.76-2.13-9.45-.57-18.91-1-28.33-2-6.84-.66-9.78-4.39-9.53-11.44.29-8.65.75-17.29,1.25-25.93.55-9.64,1.25-19.26,1.82-28.9.45-7.45,4.43-11.15,12-10.73q52.79,3,105.57,6c3.81.22,7.68.15,11.39.89,6.48,1.28,9,4.71,8.76,11.23-.08,2.83-.35,5.65-.54,8.48ZM173.28,90.53l.45,1.63,103.69,6.07A18.89,18.89,0,0,0,275,96c-16.1-8.27-32.19-16.58-48.38-24.67a7.76,7.76,0,0,0-5.55.08C211.47,75.07,202,79,192.4,82.82Zm96.87-49.41.1-1.35-91.73-5.38c.59,1,.73,1.59,1.07,1.76,14.47,7.45,28.94,14.9,43.48,22.21a5.91,5.91,0,0,0,4.22,0C241.61,52.66,255.87,46.87,270.15,41.12Zm13.37,48.2c.87-15,1.69-29,2.56-44l-49.7,19.87Zm-118-6.3,47.15-18.89L168,41.29C167.16,55.37,166.36,68.68,165.51,83Z"/><path d="M281,169q-29.56-1.83-59.14-3.64c-5.31-.33-10.62-.59-15.92-.92q-24.61-1.51-49.21-3.06c-3.35-.2-5.61-1.78-5.12-5.26s3.12-4.61,6.59-4.39c19.55,1.25,39.12,2.37,58.67,3.6,20.54,1.28,41.07,2.65,61.6,3.95,1.66.11,3.33.05,5,.05,3.3,0,5.67,1.46,5.65,4.9s-2.29,4.94-5.62,4.93H281Z"/><path d="M281.36,148.93l-58.19-3.41q-28.86-1.67-57.7-3.33c-3.15-.19-6.27-.66-9.4-.94s-5.42-2.29-4.36-5.19c.7-1.95,3.68-4.48,5.52-4.38,22.55,1.17,45.07,2.86,67.6,4.26,15.09.93,30.2,1.6,45.29,2.43,4.31.24,8.61.71,12.91.88,3.44.13,6.15,1.26,6,5.05s-2.75,5-6.22,4.85c-.5,0-1,0-1.49,0Z"/><path d="M281.28,128.86q-28.62-1.73-57.24-3.44c-19.26-1.12-38.53-2.15-57.79-3.28-2.47-.14-4.93-.76-7.4-.89-3.39-.18-5.38-2.26-4.5-5.09.6-1.94,3.55-4.58,5.33-4.49,18.59.91,37.15,2.39,55.73,3.54,18.41,1.15,36.84,2.1,55.26,3.15,4.15.24,8.28.68,12.43.81,3.48.11,6.11,1.3,6,5.1s-2.86,4.92-6.29,4.77c-.5,0-1,0-1.5,0Z"/><path d="M163.64,201.57c-7.37,1-14.77-7.87-14.63-15.08a14.84,14.84,0,1,1,29.68.6C178.56,195.48,172.18,201.61,163.64,201.57Z"/></g><circle class="cls-2" cx="163.85" cy="186.7" r="6.1"/></g></g></svg>