<?xml version="1.0" encoding="utf-8"?>
<!-- Generator: Adobe Illustrator 26.3.1, SVG Export Plug-In . SVG Version: 6.00 Build 0)  -->
<svg version="1.1" id="Layer_1" xmlns="http://www.w3.org/2000/svg" xmlns:xlink="http://www.w3.org/1999/xlink" x="0px" y="0px"
	 viewBox="0 0 320.6 230.5" style="enable-background:new 0 0 320.6 230.5;" xml:space="preserve">
<style type="text/css">
	.st0{fill:#007CC4;}
	.st1{fill:#FFFFFF;}
</style>
<g id="Layer_2_00000065794511799030755330000010983808692560488106_">
	<g id="Layer_1-2">
		<path class="st0" d="M281.1,230.2c-24.9-1.3-49.8-2.7-74.8-4c-17.6-1-35.2-2-52.8-3c-4.5-0.3-9-0.6-13.4-1.1
			c-10.4-1.2-18-9.6-17.5-20.2c1-22.4,2.4-44.9,3.7-67.3c2.2-37.2,4.3-74.4,6.5-111.7c0.6-9.7,3.8-17.7,13.5-21.3
			c3.1-1.2,6.4-1.7,9.7-1.5c29.7,1.6,59.5,3.4,89.2,5.2c18.6,1.1,37.2,2.2,55.8,3.2c11.5,0.6,20.2,9.3,19.7,20.8
			c-1,21.3-2.3,42.6-3.5,63.8c-1.6,27.4-3.2,54.8-4.8,82.2c-0.7,12-1.2,23.9-2.2,35.9c-1.1,13-9.9,20.1-23,19.3c-2-0.1-4,0-6,0
			L281.1,230.2z M309.9,45.3c0.3-5.3,0.8-10.6,0.9-16c0.2-6.3-3.6-10.6-9.8-11c-28.8-1.8-57.5-3.4-86.2-5.1
			c-19.8-1.1-39.6-2.3-59.3-3.6c-7.9-0.5-12.4,3.3-13,11.5c-0.5,7.6-0.8,15.3-1.3,22.9c-1.8,32.1-3.7,64.2-5.5,96.3
			c-1.1,20.3-2.4,40.6-3.4,60.9c-0.3,6.8,3.5,10.9,9.9,11.2c21.6,1.4,43.2,2.8,64.8,4c26.9,1.5,53.9,2.9,80.8,4.3
			c7.9,0.4,12-2.9,12.5-10.8c1.8-29.4,3.4-58.9,5.1-88.3C306.9,96.2,308.4,70.7,309.9,45.3z"/>
		<path class="st0" d="M61.2,62.4c0.6,3.4,1.2,6.3,1.8,9.7c-4.4,1.7-8.8,3.4-13.3,5.1c-6.9,2.7-8,5.9-4.2,12.3
			c20.4,34.2,40.9,68.4,61.2,102.7c2.8,4.8,4.6,10.3,6.7,15.5c2.6,6.3,4.8,12.7,6.6,19.3c-3.1-3.2-7-5.9-9.2-9.6
			c-20.3-33.8-40.4-67.7-60.5-101.6c-4.4-7.4-9-14.6-13.4-22c-6.4-11-3.1-20.6,8.7-25.3C50.5,66.4,55.6,64.5,61.2,62.4z"/>
		<path class="st0" d="M121.9,28.4c0,2.8,0.5,5.1-0.1,7.1c-0.5,1.7-2.1,3.7-3.6,4.3c-8.6,3-17.4,5.5-26.1,8.3c-9,3-12.4,10-9,18.8
			c9.8,25.8,19.6,51.6,29.5,77.3c1.8,4.8,2.9,9.3,2,14.5c-0.7,4.2-0.6,8.5-1.9,13.1c-2.8-7.3-5.6-14.5-8.4-21.8
			c-9.9-25.7-19.8-51.5-29.6-77.2C68.2,55.9,74,43.5,91.1,38.1C101.2,34.8,111.3,31.7,121.9,28.4z"/>
		<path class="st0" d="M96.3,216.3l-59.3-55c-10.2-9.5-20.5-19-30.7-28.6c-9.2-8.6-8.3-18.5,2.3-25.2c5.5-3.5,11-6.8,16.8-10.4
			l4.9,8.3c-5.3,3.3-10.5,6.5-15.6,9.8c-6,3.8-6.3,6-1.3,10.7c21,19.5,42,39,62.9,58.5c2.7,2.5,5,5.3,7,8.4
			c4.8,7.5,9.3,15.3,13.9,22.9L96.3,216.3z"/>
		<path class="st0" d="M295.6,50.8c-0.9,15.2-1.6,30.2-2.7,45.3c-0.7,9.6-3.6,12.4-13.2,11.9c-16.2-0.7-32.5-1.9-48.7-2.8
			c-12.6-0.7-25.2-1.4-37.8-2.1c-9.4-0.6-18.9-1-28.3-2c-6.8-0.7-9.8-4.4-9.5-11.4c0.3-8.7,0.8-17.3,1.2-25.9
			c0.6-9.6,1.2-19.3,1.8-28.9c0.4-7.5,4.4-11.2,12-10.7c35.2,2,70.4,4,105.6,6c3.8,0.2,7.7,0.1,11.4,0.9c6.5,1.3,9,4.7,8.8,11.2
			C296.1,45.1,295.8,48,295.6,50.8L295.6,50.8z M173.3,90.5l0.4,1.6l103.7,6.1c-0.7-0.8-1.5-1.6-2.4-2.2
			c-16.1-8.3-32.2-16.6-48.4-24.7c-1.8-0.7-3.8-0.6-5.6,0.1c-9.6,3.7-19.1,7.6-28.7,11.4L173.3,90.5z M270.1,41.1l0.1-1.3l-91.7-5.4
			c0.6,1,0.7,1.6,1.1,1.8c14.5,7.5,28.9,14.9,43.5,22.2c1.4,0.5,2.9,0.5,4.2,0C241.6,52.7,255.9,46.9,270.1,41.1z M283.5,89.3
			c0.9-15,1.7-29,2.6-44l-49.7,19.9L283.5,89.3z M165.5,83l47.1-18.9L168,41.3C167.2,55.4,166.4,68.7,165.5,83L165.5,83z"/>
		<path class="st0" d="M281,169c-19.7-1.2-39.4-2.4-59.1-3.6c-5.3-0.3-10.6-0.6-15.9-0.9c-16.4-1-32.8-2-49.2-3.1
			c-3.4-0.2-5.6-1.8-5.1-5.3s3.1-4.6,6.6-4.4c19.6,1.2,39.1,2.4,58.7,3.6c20.5,1.3,41.1,2.6,61.6,3.9c1.7,0.1,3.3,0.1,5,0.1
			c3.3,0,5.7,1.5,5.6,4.9s-2.3,4.9-5.6,4.9H281V169z"/>
		<path class="st0" d="M281.4,148.9l-58.2-3.4c-19.2-1.1-38.5-2.2-57.7-3.3c-3.1-0.2-6.3-0.7-9.4-0.9s-5.4-2.3-4.4-5.2
			c0.7-1.9,3.7-4.5,5.5-4.4c22.6,1.2,45.1,2.9,67.6,4.3c15.1,0.9,30.2,1.6,45.3,2.4c4.3,0.2,8.6,0.7,12.9,0.9c3.4,0.1,6.1,1.3,6,5.1
			s-2.8,5-6.2,4.9c-0.5,0-1,0-1.5,0L281.4,148.9z"/>
		<path class="st0" d="M281.3,128.9c-19.1-1.2-38.2-2.3-57.2-3.4c-19.3-1.1-38.5-2.2-57.8-3.3c-2.5-0.1-4.9-0.8-7.4-0.9
			c-3.4-0.2-5.4-2.3-4.5-5.1c0.6-1.9,3.6-4.6,5.3-4.5c18.6,0.9,37.2,2.4,55.7,3.5c18.4,1.2,36.8,2.1,55.3,3.2
			c4.1,0.2,8.3,0.7,12.4,0.8c3.5,0.1,6.1,1.3,6,5.1s-2.9,4.9-6.3,4.8c-0.5,0-1,0-1.5,0L281.3,128.9z"/>
		<path class="st0" d="M163.6,201.6c-7.4,1-14.8-7.9-14.6-15.1c0.2-8.2,6.9-14.7,15.1-14.5c8.2,0.2,14.7,6.9,14.5,15.1
			C178.6,195.5,172.2,201.6,163.6,201.6z"/>
		<circle class="st1" cx="163.9" cy="186.7" r="6.1"/>
	</g>
</g>
</svg>
