<svg width="55" height="46" viewBox="0 0 55 46" fill="none" xmlns="http://www.w3.org/2000/svg">
<path d="M23 29.19V29.035C23 22.765 28.04 17.49 34.8825 15.9525C33.9725 10.1975 27.8975 5.5 20.25 5.5C11.95 5.5 5.5 11.0325 5.5 17.45C5.5 19.8725 6.4 22.2 8.1 24.195C8.18 24.29 8.3075 24.43 8.48 24.6075C9.94975 26.118 10.8372 28.1001 10.985 30.2025C12.7702 29.1705 14.8549 28.7805 16.8925 29.0975C17.3075 29.1625 17.6475 29.2125 17.905 29.2475C19.5977 29.4674 21.313 29.4472 23 29.1875V29.19ZM24.1425 34.0675C21.8682 34.458 19.5481 34.5043 17.26 34.205C16.881 34.1537 16.5026 34.0979 16.125 34.0375C15.1907 33.8919 14.235 34.0795 13.425 34.5675L8.665 37.4375C8.29841 37.6634 7.8691 37.7659 7.44 37.73C7.18048 37.7104 6.92738 37.6398 6.69521 37.5222C6.46305 37.4046 6.25638 37.2423 6.08706 37.0446C5.91775 36.847 5.78911 36.6178 5.70853 36.3704C5.62796 36.1229 5.59702 35.8619 5.6175 35.6025L5.9925 31.15C6.03923 30.5915 5.96542 30.0295 5.77607 29.502C5.58672 28.9745 5.28625 28.4938 4.895 28.0925C4.6872 27.8807 4.48626 27.6622 4.2925 27.4375C1.9075 24.6375 0.5 21.1825 0.5 17.4475C0.5 8.0875 9.3425 0.5 20.25 0.5C30.4 0.5 38.7575 7.0675 39.875 15.52C48.305 15.9025 55 21.8075 55 29.035C55 32.0175 53.86 34.775 51.9275 37.01C51.8 37.16 51.6375 37.335 51.44 37.535C51.124 37.8531 50.8808 38.236 50.7271 38.6573C50.5735 39.0786 50.5131 39.5281 50.55 39.975L50.8525 43.5325C50.8678 43.7411 50.8418 43.9506 50.7758 44.1491C50.7099 44.3476 50.6054 44.5311 50.4683 44.6891C50.3313 44.847 50.1643 44.9764 49.9771 45.0696C49.7899 45.1629 49.5862 45.2182 49.3775 45.2325C49.0302 45.2609 48.6827 45.1787 48.385 44.9975L44.5275 42.705C43.8699 42.3158 43.0978 42.1665 42.3425 42.2825C41.975 42.34 41.6675 42.3825 41.4225 42.415C40.6325 42.515 39.8225 42.57 39 42.57C32.265 42.57 26.505 39.05 24.1425 34.0675ZM41.585 37.3425C42.9958 37.1253 44.4389 37.2751 45.775 37.7775C46.1256 36.3596 46.8519 35.0624 47.8775 34.0225C48.0025 33.8975 48.095 33.7975 48.1425 33.7425C49.365 32.33 50 30.71 50 29.035C50 24.525 45.2425 20.5 39 20.5C32.7575 20.5 28 24.525 28 29.035C28 33.545 32.7575 37.57 39 37.57C39.6025 37.57 40.2 37.53 40.785 37.455C40.985 37.43 41.255 37.3925 41.585 37.34V37.3425Z" fill="#009E98"/>
</svg>
