<?xml version="1.0" encoding="utf-8"?>
<!-- Generator: Adobe Illustrator 26.3.1, SVG Export Plug-In . SVG Version: 6.00 Build 0)  -->
<svg version="1.1" id="Countryflags.com" xmlns="http://www.w3.org/2000/svg" xmlns:xlink="http://www.w3.org/1999/xlink" x="0px"
	 y="0px" viewBox="0 0 300 300" style="enable-background:new 0 0 300 300;" xml:space="preserve">
<style type="text/css">
	.st0{clip-path:url(#SVGID_00000076602327910778236840000001322834569130298274_);}
	.st1{fill:#FF9933;}
	.st2{fill:#FFFFFF;}
	.st3{fill:#128807;}
	.st4{fill:#000088;}
</style>
<g>
	<defs>
		<circle id="SVGID_1_" cx="150" cy="150" r="150"/>
	</defs>
	<clipPath id="SVGID_00000083067433351882912180000015943283255118104707_">
		<use xlink:href="#SVGID_1_"  style="overflow:visible;"/>
	</clipPath>
	<g style="clip-path:url(#SVGID_00000083067433351882912180000015943283255118104707_);">
		<rect id="_x35_3" x="-75" class="st1" width="450" height="300"/>
		<rect id="_x35_2" x="-75" y="100" class="st2" width="450" height="100"/>
		<rect id="_x35_1" x="-75" y="200" class="st3" width="450" height="100"/>
		<circle id="_x35_0" class="st4" cx="150" cy="150" r="40"/>
		<circle id="_x34_9" class="st2" cx="150" cy="150" r="35"/>
		<circle id="_x34_8" class="st4" cx="150" cy="150" r="7"/>
		<path id="_x34_7" class="st4" d="M184.9,152.8c1,0.1,1.6,1,1.5,2c-0.1,1-1,1.6-2,1.5c-1-0.1-1.6-1-1.5-2
			C183.1,153.4,184,152.7,184.9,152.8z"/>
		<path id="_x34_6" class="st4" d="M150,185l1.2-21l-1.2-10l-1.2,10L150,185z"/>
		<path id="_x34_5" class="st4" d="M183,161.8c0.9,0.4,1.3,1.4,0.9,2.3s-1.4,1.3-2.3,0.9c-0.9-0.4-1.3-1.4-0.9-2.3
			C181.1,161.8,182.1,161.4,183,161.8z"/>
		<path id="_x34_4" class="st4" d="M140.9,183.8l6.6-20l1.4-10l-3.7,9.3L140.9,183.8z"/>
		<path id="_x34_3" class="st4" d="M178.8,169.9c0.8,0.6,0.9,1.7,0.3,2.5c-0.6,0.8-1.7,0.9-2.5,0.3c-0.8-0.6-0.9-1.7-0.3-2.5
			C177,169.5,178.1,169.3,178.8,169.9z"/>
		<path id="_x34_2" class="st4" d="M132.5,180.3l11.5-17.6l4-9.3l-6,8.1L132.5,180.3z"/>
		<path id="_x34_1" class="st4" d="M172.7,176.7c0.6,0.8,0.4,1.9-0.3,2.5c-0.8,0.6-1.9,0.4-2.5-0.3c-0.6-0.8-0.4-1.9,0.3-2.5
			C171,175.8,172.1,175.9,172.7,176.7z"/>
		<path id="_x34_0" class="st4" d="M125.3,174.7l15.7-14l6.2-7.9l-7.9,6.2L125.3,174.7z"/>
		<path id="_x33_9" class="st4" d="M165,181.7c0.4,0.9-0.1,1.9-0.9,2.3c-0.9,0.4-1.9-0.1-2.3-0.9c-0.4-0.9,0.1-1.9,0.9-2.3
			C163.6,180.3,164.6,180.8,165,181.7z"/>
		<path id="_x33_8" class="st4" d="M119.7,167.5l18.8-9.5l8.1-6l-9.3,4L119.7,167.5z"/>
		<path id="_x33_7" class="st4" d="M156.3,184.5c0.1,1-0.5,1.8-1.5,2c-1,0.1-1.8-0.5-2-1.5c-0.1-1,0.5-1.8,1.5-2
			C155.3,182.8,156.2,183.5,156.3,184.5z"/>
		<path id="_x33_6" class="st4" d="M116.2,159.1l20.6-4.3l9.3-3.7l-10,1.4L116.2,159.1z"/>
		<path id="_x33_5" class="st4" d="M147.2,184.9c-0.1,1-1,1.6-2,1.5c-1-0.1-1.6-1-1.5-2c0.1-1,1-1.6,2-1.5
			C146.6,183.1,147.3,184,147.2,184.9z"/>
		<path id="_x33_4" class="st4" d="M115,150l21,1.2l10-1.2l-10-1.2L115,150z"/>
		<path id="_x33_3" class="st4" d="M138.2,183c-0.4,0.9-1.4,1.3-2.3,0.9c-0.9-0.4-1.3-1.4-0.9-2.3c0.4-0.9,1.4-1.3,2.3-0.9
			C138.2,181.1,138.6,182.1,138.2,183z"/>
		<path id="_x33_2" class="st4" d="M116.2,140.9l20,6.6l10,1.4l-9.3-3.7L116.2,140.9z"/>
		<path id="_x33_1" class="st4" d="M130.1,178.8c-0.6,0.8-1.7,0.9-2.5,0.3c-0.8-0.6-0.9-1.7-0.3-2.5c0.6-0.8,1.7-0.9,2.5-0.3
			C130.5,177,130.7,178.1,130.1,178.8z"/>
		<path id="_x33_0" class="st4" d="M119.7,132.5l17.6,11.5l9.3,4l-8.1-6L119.7,132.5z"/>
		<path id="_x32_9" class="st4" d="M123.3,172.7c-0.8,0.6-1.9,0.4-2.5-0.3c-0.6-0.8-0.4-1.9,0.3-2.5c0.8-0.6,1.9-0.4,2.5,0.3
			C124.2,171,124.1,172.1,123.3,172.7z"/>
		<path id="_x32_8" class="st4" d="M125.3,125.3l14,15.7l7.9,6.2l-6.2-7.9L125.3,125.3z"/>
		<path id="_x32_7" class="st4" d="M118.3,165c-0.9,0.4-1.9-0.1-2.3-0.9c-0.4-0.9,0.1-1.9,0.9-2.3c0.9-0.4,1.9,0.1,2.3,0.9
			C119.7,163.6,119.2,164.6,118.3,165z"/>
		<path id="_x32_6" class="st4" d="M132.5,119.7l9.5,18.8l6,8.1l-4-9.3L132.5,119.7z"/>
		<path id="_x32_5" class="st4" d="M115.5,156.3c-1,0.1-1.8-0.5-2-1.5c-0.1-1,0.5-1.8,1.5-2c1-0.1,1.8,0.5,2,1.5
			C117.2,155.3,116.5,156.2,115.5,156.3z"/>
		<path id="_x32_4" class="st4" d="M140.9,116.2l4.3,20.6l3.7,9.3l-1.4-10L140.9,116.2z"/>
		<path id="_x32_3" class="st4" d="M115.1,147.2c-1-0.1-1.6-1-1.5-2c0.1-1,1-1.6,2-1.5c1,0.1,1.6,1,1.5,2
			C116.9,146.6,116,147.3,115.1,147.2z"/>
		<path id="_x32_2_1_" class="st4" d="M150,115l-1.2,21l1.2,10l1.2-10L150,115z"/>
		<path id="_x32_2" class="st4" d="M117,138.2c-0.9-0.4-1.3-1.4-0.9-2.3c0.4-0.9,1.4-1.3,2.3-0.9c0.9,0.4,1.3,1.4,0.9,2.3
			C118.9,138.2,117.9,138.6,117,138.2z"/>
		<path id="_x32_1" class="st4" d="M159.1,116.2l-6.6,20l-1.4,10l3.7-9.3L159.1,116.2z"/>
		<path id="_x32_0" class="st4" d="M121.2,130.1c-0.8-0.6-0.9-1.7-0.3-2.5c0.6-0.8,1.7-0.9,2.5-0.3c0.8,0.6,0.9,1.7,0.3,2.5
			C123,130.5,121.9,130.7,121.2,130.1z"/>
		<path id="_x31_9" class="st4" d="M167.5,119.7L156,137.3l-4,9.3l6-8.1L167.5,119.7z"/>
		<path id="_x31_8" class="st4" d="M127.3,123.3c-0.6-0.8-0.4-1.9,0.3-2.5c0.8-0.6,1.9-0.4,2.5,0.3c0.6,0.8,0.4,1.9-0.3,2.5
			C129,124.2,127.9,124.1,127.3,123.3z"/>
		<path id="_x31_7" class="st4" d="M174.7,125.3l-15.7,14l-6.2,7.9l7.9-6.2L174.7,125.3z"/>
		<path id="_x31_6" class="st4" d="M135,118.3c-0.4-0.9,0.1-1.9,0.9-2.3c0.9-0.4,1.9,0.1,2.3,0.9c0.4,0.9-0.1,1.9-0.9,2.3
			C136.4,119.7,135.4,119.2,135,118.3z"/>
		<path id="_x31_5" class="st4" d="M180.3,132.5l-18.8,9.5l-8.1,6l9.3-4L180.3,132.5z"/>
		<path id="_x31_4" class="st4" d="M143.7,115.5c-0.1-1,0.5-1.8,1.5-2c1-0.1,1.8,0.5,2,1.5c0.1,1-0.5,1.8-1.5,2
			C144.7,117.2,143.8,116.5,143.7,115.5z"/>
		<path id="_x31_3" class="st4" d="M183.8,140.9l-20.6,4.3l-9.3,3.7l10-1.4L183.8,140.9z"/>
		<path id="_x31_2" class="st4" d="M152.8,115.1c0.1-1,1-1.6,2-1.5c1,0.1,1.6,1,1.5,2c-0.1,1-1,1.6-2,1.5
			C153.4,116.9,152.7,116,152.8,115.1z"/>
		<path id="_x31_1" class="st4" d="M185,150l-21-1.2l-10,1.2l10,1.2L185,150z"/>
		<path id="_x31_0" class="st4" d="M161.8,117c0.4-0.9,1.4-1.3,2.3-0.9c0.9,0.4,1.3,1.4,0.9,2.3c-0.4,0.9-1.4,1.3-2.3,0.9
			C161.8,118.9,161.4,117.9,161.8,117z"/>
		<path id="_x39_" class="st4" d="M183.8,159.1l-20-6.6l-10-1.4l9.3,3.7L183.8,159.1z"/>
		<path id="_x38_" class="st4" d="M169.9,121.2c0.6-0.8,1.7-0.9,2.5-0.3c0.8,0.6,0.9,1.7,0.3,2.5c-0.6,0.8-1.7,0.9-2.5,0.3
			C169.5,123,169.3,121.9,169.9,121.2z"/>
		<path id="_x37_" class="st4" d="M180.3,167.5L162.7,156l-9.3-4l8.1,6L180.3,167.5z"/>
		<path id="_x36_" class="st4" d="M176.7,127.3c0.8-0.6,1.9-0.4,2.5,0.3c0.6,0.8,0.4,1.9-0.3,2.5c-0.8,0.6-1.9,0.4-2.5-0.3
			C175.8,129,175.9,127.9,176.7,127.3z"/>
		<path id="_x35_" class="st4" d="M174.7,174.7l-14-15.7l-7.9-6.2l6.2,7.9L174.7,174.7z"/>
		<path id="_x34_" class="st4" d="M181.7,135c0.9-0.4,1.9,0.1,2.3,0.9s-0.1,1.9-0.9,2.3c-0.9,0.4-1.9-0.1-2.3-0.9
			C180.3,136.4,180.8,135.4,181.7,135z"/>
		<path id="_x33__1_" class="st4" d="M167.5,180.3l-9.5-18.8l-6-8.1l4,9.3L167.5,180.3z"/>
		<path id="_x32__1_" class="st4" d="M184.5,143.7c1-0.1,1.8,0.5,2,1.5c0.1,1-0.5,1.8-1.5,2c-1,0.1-1.8-0.5-2-1.5
			C182.8,144.7,183.5,143.8,184.5,143.7z"/>
		<path id="_x31__1_" class="st4" d="M159.1,183.8l-4.3-20.6l-3.7-9.3l1.4,10L159.1,183.8z"/>
	</g>
</g>
</svg>
