<svg width="28" height="29" viewBox="0 0 28 29" fill="none" xmlns="http://www.w3.org/2000/svg">
<path d="M13.5614 9.27769C12.5394 9.27769 10.9574 8.11569 9.29141 8.15769C7.09341 8.18569 5.0774 9.43169 3.94341 11.4057C1.66141 15.3677 3.35541 21.2197 5.5814 24.4397C6.6734 26.0077 7.96141 27.7717 9.6694 27.7157C11.3074 27.6457 11.9234 26.6517 13.9114 26.6517C15.8854 26.6517 16.4454 27.7157 18.1814 27.6737C19.9454 27.6457 21.0654 26.0777 22.1434 24.4957C23.3894 22.6757 23.9074 20.9117 23.9354 20.8137C23.8934 20.7997 20.5054 19.4977 20.4634 15.5777C20.4354 12.3017 23.1374 10.7337 23.2634 10.6637C21.7234 8.40969 19.3574 8.15769 18.5314 8.10169C16.3754 7.93369 14.5694 9.27769 13.5614 9.27769ZM17.2014 5.97369C18.1114 4.88169 18.7134 3.35569 18.5454 1.84369C17.2434 1.89969 15.6754 2.71169 14.7374 3.80369C13.8974 4.76969 13.1694 6.32369 13.3654 7.80769C14.8074 7.91969 16.2914 7.06569 17.2014 5.97369Z" fill="white"/>
</svg>
