<svg xmlns="http://www.w3.org/2000/svg" width="196" height="36.436" viewBox="0 0 196 36.436">
  <g id="Group_738" data-name="Group 738" transform="translate(0 0)">
    <g id="Group_737" data-name="Group 737">
      <path id="Path_415" data-name="Path 415" d="M542.307,196.708c0,7.3-5.326,12.667-11.861,12.667-2.944,0-5.326-.887-6.7-2.985l-2.1,10.448h-7.666l5.931-29.692h7.262l-.444,2.057a8.978,8.978,0,0,1,6.334-2.421c4.72,0,9.239,3.591,9.239,9.926m-7.746.4a3.868,3.868,0,0,0-4.156-4.2c-3.026,0-5.2,2.461-5.2,6.133a3.837,3.837,0,0,0,4.156,4.155c3.026,0,5.2-2.461,5.2-6.092" transform="translate(-427.242 -180.766)" fill="#0063b2"/>
      <path id="Path_416" data-name="Path 416" d="M587.995,203.125l-.807,5.692a11.861,11.861,0,0,1-3.711.565c-3.51,0-5.689-1.453-6.5-3.631a8.9,8.9,0,0,1-7.382,3.631c-4.721,0-9.239-3.591-9.239-9.965,0-7.262,5.325-12.627,11.861-12.627,2.944,0,5.326.888,6.7,2.985l.523-2.622h7.665l-2.743,13.6a5.881,5.881,0,0,0-.081.806c0,1.332.807,1.9,2.018,1.9a4.22,4.22,0,0,0,1.694-.323m-10.533-6.011a3.868,3.868,0,0,0-4.156-4.2c-3.025,0-5.2,2.461-5.2,6.133a3.838,3.838,0,0,0,4.156,4.155c3.066,0,5.2-2.461,5.2-6.092" transform="translate(-443.276 -180.77)" fill="#0063b2"/>
      <path id="Path_417" data-name="Path 417" d="M634.308,203.125l-.807,5.692a11.865,11.865,0,0,1-3.712.565c-3.51,0-5.688-1.453-6.495-3.631a8.9,8.9,0,0,1-7.383,3.631c-4.72,0-9.24-3.591-9.24-9.965,0-7.262,5.326-12.627,11.861-12.627,2.944,0,5.326.888,6.7,2.985l.523-2.622h7.665l-2.743,13.6a5.939,5.939,0,0,0-.081.806c0,1.332.807,1.9,2.018,1.9a4.221,4.221,0,0,0,1.694-.323m-10.533-6.011a3.868,3.868,0,0,0-4.156-4.2c-3.025,0-5.2,2.461-5.2,6.133a3.837,3.837,0,0,0,4.156,4.155c3.066,0,5.2-2.461,5.2-6.092" transform="translate(-459.289 -180.77)" fill="#0063b2"/>
      <path id="Path_418" data-name="Path 418" d="M670.917,186.784l-1.331,6.9a13.388,13.388,0,0,0-1.736-.122c-3.348,0-5.486,1.494-6.215,5.123l-2.1,10.329h-7.662l4.357-21.867h7.262l-.484,2.421c1.937-1.977,4.64-2.784,7.907-2.784" transform="translate(-474.918 -180.768)" fill="#0063b2"/>
      <path id="Path_419" data-name="Path 419" d="M444.445,196.66c-.686,3.348-2.5,4.921-5.083,4.921a2.623,2.623,0,0,1-2.944-2.944,9.42,9.42,0,0,1,.162-1.413l1.976-9.884h-7.666l-2.1,10.611a13.126,13.126,0,0,0-.283,2.7c0,4.923,3.188,7.423,7.827,7.423a10.122,10.122,0,0,0,6.253-2.137l-.12.564c-.646,3.268-2.26,5-6.133,5a12.052,12.052,0,0,1-7.3-2.34l-3.389,5.365c2.582,1.9,6.215,2.864,10.49,2.864,7.625,0,12.547-3.468,14.282-12.1l3.551-17.952H446.3Z" transform="translate(-396.698 -180.96)" fill="#009e98"/>
      <path id="Path_420" data-name="Path 420" d="M495.677,203.446c-1.211,0-2.018-.564-2.018-1.9a5.951,5.951,0,0,1,.081-.807l2.743-13.6h-7.668l-.523,2.622c-1.374-2.1-3.753-2.986-6.7-2.986-6.536,0-11.861,5.365-11.861,12.627,0,6.374,4.519,9.966,9.239,9.966a8.9,8.9,0,0,0,7.383-3.631c.807,2.178,2.985,3.631,6.5,3.631a11.867,11.867,0,0,0,3.711-.565l.807-5.689a4.218,4.218,0,0,1-1.694.323m-14.04-.242a3.838,3.838,0,0,1-4.156-4.155c0-3.672,2.179-6.133,5.2-6.133a3.868,3.868,0,0,1,4.155,4.2c0,3.632-2.137,6.092-5.2,6.092" transform="translate(-411.942 -180.767)" fill="#009e98"/>
      <path id="Path_421" data-name="Path 421" d="M403.966,188.868l6.891-6.72.928-4.56H387.452l-1.17,6.173h13.96l-5.234,5.1h-5.522a5.177,5.177,0,0,0-4.192,2.843c-.052.111-.1.221-.135.327l-1.193,2.515h5.21l-6.849,6.68-.928,4.6h25.3l1.252-6.174H392.9l5.234-5.1h5.542a5.178,5.178,0,0,0,4.192-2.843c.029-.065.053-.123.078-.185l.013-.007,1.257-2.652h-5.252Z" transform="translate(-381.4 -177.588)" fill="#009e98"/>
    </g>
  </g>
</svg>
