<svg width="70" height="41" viewBox="0 0 70 41" fill="none" xmlns="http://www.w3.org/2000/svg">
<g clip-path="url(#clip0_92_13258)">
<path d="M56.223 37.7745C53.0181 37.7745 50.4109 35.1672 50.4109 31.9623C50.4109 28.7574 53.0181 26.1501 56.223 26.1501C59.428 26.1501 62.0352 28.7574 62.0352 31.9623C62.0352 35.1668 59.428 37.7745 56.223 37.7745ZM56.223 27.2893C53.6466 27.2893 51.5505 29.3854 51.5505 31.9619C51.5505 34.5383 53.6466 36.6344 56.223 36.6344C58.7995 36.6344 60.8956 34.5383 60.8956 31.9619C60.8956 29.3854 58.7995 27.2893 56.223 27.2893Z" fill="#275A9E"/>
<path d="M64.4343 15.1699C61.886 15.1699 59.8125 13.0969 59.8125 10.5481C59.8125 7.99974 61.8855 5.92627 64.4343 5.92627C66.9831 5.92627 69.0561 7.99929 69.0561 10.5481C69.0557 13.0964 66.9827 15.1699 64.4343 15.1699ZM64.4343 7.06632C62.5144 7.06632 60.9521 8.62822 60.9521 10.5485C60.9521 12.4684 62.514 14.0308 64.4343 14.0308C66.3542 14.0308 67.9165 12.4689 67.9165 10.5485C67.9165 8.62822 66.3542 7.06632 64.4343 7.06632Z" fill="#275A9E"/>
<path d="M6.43152 18.4729C3.48489 18.4729 1.08789 16.0759 1.08789 13.1293C1.08789 10.1826 3.48489 7.78564 6.43152 7.78564C9.37816 7.78564 11.7752 10.1826 11.7752 13.1293C11.7752 16.0759 9.37816 18.4729 6.43152 18.4729ZM6.43152 8.92524C4.11337 8.92524 2.22749 10.8111 2.22749 13.1293C2.22749 15.4474 4.11337 17.3333 6.43152 17.3333C8.74968 17.3333 10.6356 15.4474 10.6356 13.1293C10.6356 10.8111 8.74968 8.92524 6.43152 8.92524Z" fill="#275A9E"/>
<path d="M13.8133 39.1864C11.642 39.1864 9.87524 37.4197 9.87524 35.2484C9.87524 33.077 11.642 31.3103 13.8133 31.3103C15.9846 31.3103 17.7514 33.077 17.7514 35.2484C17.7514 37.4202 15.9846 39.1864 13.8133 39.1864ZM13.8133 32.4499C12.27 32.4499 11.0148 33.7055 11.0148 35.2484C11.0148 36.7917 12.2704 38.0468 13.8133 38.0468C15.3566 38.0468 16.6118 36.7912 16.6118 35.2484C16.6118 33.7055 15.3562 32.4499 13.8133 32.4499Z" fill="#275A9E"/>
<path d="M18.4817 28.0687C17.4133 28.0687 16.5442 27.1996 16.5442 26.1311C16.5442 25.0627 17.4133 24.1936 18.4817 24.1936C19.5502 24.1936 20.4193 25.0627 20.4193 26.1311C20.4197 27.1996 19.5502 28.0687 18.4817 28.0687ZM18.4817 25.3332C18.0417 25.3332 17.6838 25.6912 17.6838 26.1311C17.6838 26.5711 18.0417 26.9291 18.4817 26.9291C18.9217 26.9291 19.2797 26.5711 19.2797 26.1311C19.2801 25.6912 18.9222 25.3332 18.4817 25.3332Z" fill="#275A9E"/>
<path d="M41.542 38.0941C40.4736 38.0941 39.6045 37.225 39.6045 36.1565C39.6045 35.0881 40.4736 34.219 41.542 34.219C42.6105 34.219 43.4796 35.0881 43.4796 36.1565C43.4796 37.225 42.6105 38.0941 41.542 38.0941ZM41.542 35.3586C41.1021 35.3586 40.7441 35.7166 40.7441 36.1565C40.7441 36.5965 41.1021 36.9545 41.542 36.9545C41.982 36.9545 42.34 36.5965 42.34 36.1565C42.34 35.7166 41.982 35.3586 41.542 35.3586Z" fill="#275A9E"/>
<path d="M45.3896 24.7734L44.814 25.7568L51.4926 29.6657L52.0682 28.6822L45.3896 24.7734Z" fill="#275A9E"/>
<path d="M60.2057 11.6997L44.7903 16.7959L45.148 17.8779L60.5634 12.7817L60.2057 11.6997Z" fill="#275A9E"/>
<path d="M11.2277 13.741L10.9001 14.8325L23.1697 18.5142L23.4972 17.4226L11.2277 13.741Z" fill="#275A9E"/>
<path d="M23.2133 24.0809L19.5361 24.875L19.7767 25.989L23.4539 25.1948L23.2133 24.0809Z" fill="#275A9E"/>
<path d="M25.3508 28.2145L16.4792 33.1067L17.0296 34.1046L25.9011 29.2124L25.3508 28.2145Z" fill="#275A9E"/>
<path d="M40.0334 31.2615L38.9988 31.7393L40.5163 35.0258L41.5509 34.5481L40.0334 31.2615Z" fill="#275A9E"/>
<path d="M26.6593 4.35026C27.7246 4.27006 28.6567 5.07117 28.7373 6.13646C28.8175 7.20174 28.0164 8.13381 26.9511 8.21446C25.8858 8.29466 24.9538 7.49355 24.8736 6.42826C24.7925 5.36298 25.5936 4.43092 26.6593 4.35026ZM26.865 7.07849C27.3037 7.04541 27.634 6.66162 27.6009 6.22255C27.5678 5.78393 27.184 5.45361 26.745 5.48668C26.3063 5.51976 25.976 5.90355 26.0091 6.34262C26.0422 6.78124 26.426 7.11157 26.865 7.07849Z" fill="#275A9E"/>
<path d="M27.9125 7.33192L26.9167 7.88599L28.6768 11.0491L29.6726 10.495L27.9125 7.33192Z" fill="#275A9E"/>
<path d="M45.6454 1.72756C46.2412 2.61431 46.0047 3.82051 45.1179 4.41636C44.2312 5.01222 43.025 4.77569 42.4291 3.88893C41.8333 3.00218 42.0698 1.79598 42.9566 1.20012C43.8433 0.604273 45.0495 0.840801 45.6454 1.72756ZM43.3748 3.25321C43.6204 3.61842 44.117 3.71584 44.4822 3.47025C44.8474 3.22466 44.9448 2.72804 44.6993 2.36283C44.4537 1.99761 43.957 1.90019 43.5918 2.14578C43.2266 2.39137 43.1292 2.88799 43.3748 3.25321Z" fill="#275A9E"/>
<path d="M43.673 4.29043L39.7784 10.9785L38.8047 10.3858L42.6992 3.69775L43.673 4.29043Z" fill="#275A9E"/>
<path d="M45.0146 19.2968L46.2996 19.2058C45.7573 16.0081 43.9588 13.2323 41.4313 11.4058L40.7571 12.4996C42.9456 14.1095 44.5103 16.5206 45.0146 19.2968Z" fill="#275A9E"/>
<path d="M34.345 10.3952C36.742 10.3952 38.9596 11.1772 40.7566 12.4994L41.4309 11.4056C39.4362 9.96424 36.988 9.11328 34.3445 9.11328C31.7396 9.11328 29.324 9.93932 27.3452 11.3426L28.1713 12.3291C29.9248 11.1106 32.0527 10.3952 34.345 10.3952Z" fill="#275A9E"/>
<path d="M28.1716 12.3292L27.3456 11.3428C26.0542 12.2585 24.9499 13.4212 24.1003 14.7607L25.2109 15.4032C25.9862 14.1943 26.994 13.148 28.1716 12.3292Z" fill="#275A9E"/>
<path d="M46.2998 19.2058L45.0147 19.2969C45.1294 19.9272 45.1892 20.5765 45.1892 21.2394C45.1892 27.2188 40.3245 32.0835 34.3451 32.0835C28.3658 32.0835 23.5011 27.2188 23.5011 21.2394C23.5011 19.0921 24.1296 17.0893 25.2107 15.4033L24.1001 14.7607C22.9098 16.6362 22.2188 18.8583 22.2188 21.2394C22.2188 27.9257 27.6584 33.3654 34.3447 33.3654C41.0309 33.3654 46.4706 27.9257 46.4706 21.2394C46.471 20.5466 46.4117 19.8674 46.2998 19.2058Z" fill="#275A9E"/>
<path d="M15.7871 34.8564C15.7871 34.7998 15.7486 34.7518 15.6938 34.7395L15.2683 34.6444L15.5021 34.2755C15.5325 34.2279 15.5257 34.1668 15.4858 34.1269L14.9325 33.5727C14.8936 33.5338 14.8292 33.527 14.7839 33.5564L14.416 33.7902L14.3208 33.3643C14.3086 33.309 14.2605 33.2705 14.2039 33.2705H13.4218C13.3652 33.2705 13.3172 33.309 13.3049 33.3643L13.2098 33.7902L12.8423 33.5564C12.7961 33.5265 12.7322 33.5338 12.6932 33.5727L12.1404 34.1269C12.101 34.1668 12.0942 34.2279 12.1241 34.2755L12.3579 34.6444L11.9324 34.7395C11.8771 34.7518 11.8386 34.7998 11.8386 34.8564V35.6399C11.8386 35.6965 11.8771 35.7445 11.932 35.7568L12.3574 35.8519L12.1236 36.2208C12.0933 36.2683 12.1001 36.3295 12.1399 36.3694L12.6928 36.9231C12.7313 36.9621 12.7956 36.9689 12.8418 36.9399L13.2098 36.7061L13.3049 37.132C13.3172 37.1864 13.3661 37.2258 13.4218 37.2258H14.2039C14.2605 37.2258 14.3086 37.1873 14.3208 37.132L14.416 36.7061L14.7839 36.9399C14.8301 36.9693 14.8945 36.9621 14.9325 36.9231L15.4853 36.3689C15.5247 36.33 15.5315 36.2674 15.5021 36.2203L15.2683 35.8515L15.6938 35.7563C15.749 35.7441 15.7876 35.6961 15.7876 35.6394L15.7871 34.8564ZM13.8101 36.1224C13.8097 36.1224 13.8097 36.1224 13.8092 36.1224L13.7979 36.122C13.3534 36.1143 12.9918 35.7454 12.9918 35.3C12.9918 34.8551 13.3534 34.4862 13.7975 34.4781C13.8024 34.4781 13.8074 34.4776 13.812 34.4776H13.8147C14.2664 34.479 14.6335 34.8474 14.6335 35.3C14.6339 35.7536 14.2664 36.1224 13.8101 36.1224Z" fill="#275A9E"/>
<path d="M64.4345 8.14819C62.9007 8.14819 61.6523 9.12829 61.6523 10.3331C61.6523 11.538 62.9002 12.5181 64.4345 12.5181C64.5147 12.5181 64.5976 12.5149 64.681 12.509L64.8994 13.0373C64.9162 13.0781 64.9524 13.1067 64.9941 13.1135C65.0013 13.1148 65.0091 13.1157 65.0168 13.1157C65.053 13.1157 65.0874 13.1003 65.111 13.0736L65.9076 12.1873C66.7277 11.7854 67.2166 11.093 67.2166 10.3331C67.2166 9.12829 65.9683 8.14819 64.4345 8.14819ZM63.3919 10.8945C63.2084 10.8945 63.0593 10.7455 63.0593 10.562C63.0593 10.3784 63.2084 10.2294 63.3919 10.2294C63.5754 10.2294 63.7245 10.3784 63.7245 10.562C63.7245 10.7455 63.5754 10.8945 63.3919 10.8945ZM64.4417 10.8945C64.2582 10.8945 64.1092 10.7455 64.1092 10.562C64.1092 10.3784 64.2582 10.2294 64.4417 10.2294C64.6253 10.2294 64.7743 10.3784 64.7743 10.562C64.7743 10.7455 64.6253 10.8945 64.4417 10.8945ZM65.4436 10.8945C65.2601 10.8945 65.111 10.7455 65.111 10.562C65.111 10.3784 65.2601 10.2294 65.4436 10.2294C65.6271 10.2294 65.7762 10.3784 65.7762 10.562C65.7762 10.7455 65.6271 10.8945 65.4436 10.8945Z" fill="#275A9E"/>
<path d="M35.0419 27.597L38.9872 26.0061C39.1168 25.954 39.1821 25.8081 39.135 25.6767L39.0797 25.5231C39.0711 25.4991 39.0756 25.4724 39.0915 25.452C39.884 24.4143 39.3425 23.0328 39.3425 23.0328L38.5477 21.0014C38.5464 20.9973 38.5459 20.9955 38.5445 20.9919C38.5296 20.9221 38.3071 19.9552 37.5857 19.9552C37.1689 19.9552 36.9387 20.1369 36.8168 20.2982C36.7765 20.3517 36.694 20.3381 36.6786 20.2733C36.6288 20.0648 36.4643 19.8011 35.9595 19.744C35.399 19.6806 35.1756 19.995 35.0877 20.223C35.0641 20.2841 34.9776 20.2887 34.949 20.2298C34.7678 19.8541 34.3817 19.4182 33.8937 19.5809C33.5589 19.6924 33.4053 19.908 33.335 20.0716C33.3074 20.136 33.2177 20.1364 33.1923 20.0712L32.3812 17.9868C32.3812 17.9868 31.9911 16.7344 31.1777 17.0434C30.3644 17.3525 30.8035 18.4259 30.8035 18.4259L32.6762 23.3735C32.702 23.4419 32.6268 23.5045 32.5643 23.4664L31.6707 22.9263C31.6671 22.9236 31.6653 22.9222 31.6617 22.9199C31.5969 22.8633 30.6517 22.0595 30.0549 22.6875C29.4604 23.3132 30.1147 23.9993 30.1659 24.0505C30.1691 24.0532 30.1709 24.0545 30.1741 24.0573L34.6092 27.2785C34.6174 27.2885 34.6255 27.298 34.6337 27.3079L34.708 27.4665C34.7673 27.5911 34.9137 27.6487 35.0419 27.597Z" fill="#275A9E"/>
<path d="M40.5645 28.3899L39.6755 26.3894C39.6116 26.2453 39.4453 26.1782 39.2989 26.2366L34.9449 27.9898C34.7899 28.0523 34.7188 28.2317 34.7886 28.3835L35.6935 30.3469C35.7582 30.4878 35.9223 30.5535 36.0664 30.4964L40.405 28.7805C40.559 28.7193 40.632 28.5417 40.5645 28.3899Z" fill="#275A9E"/>
<path d="M29.8545 15.2477C29.9343 15.4548 30.1314 15.5812 30.3403 15.5812C30.4023 15.5812 30.4658 15.5699 30.5269 15.5463C30.7952 15.443 30.9289 15.1417 30.8255 14.8734L30.2818 13.4619C30.1785 13.1937 29.8772 13.06 29.6089 13.1633C29.3407 13.2667 29.207 13.568 29.3103 13.8362L29.8545 15.2477Z" fill="#275A9E"/>
<path d="M27.4978 16.1158L28.8803 16.7297C28.9487 16.7601 29.0208 16.7746 29.0915 16.7746C29.2908 16.7746 29.4811 16.6591 29.5672 16.4651C29.6837 16.2023 29.5654 15.8946 29.3026 15.7782L27.9202 15.1642C27.6578 15.0473 27.3501 15.1656 27.2332 15.4288C27.1168 15.6917 27.2355 15.9993 27.4978 16.1158Z" fill="#275A9E"/>
<path d="M34.8153 18.212L33.4324 17.5981C33.1701 17.4812 32.862 17.5994 32.7455 17.8627C32.629 18.1255 32.7473 18.4332 33.0101 18.5496L34.393 19.1636C34.4615 19.1939 34.5335 19.2084 34.6037 19.2084C34.8031 19.2084 34.9934 19.0929 35.0795 18.899C35.1964 18.6362 35.0782 18.3289 34.8153 18.212Z" fill="#275A9E"/>
<path d="M29.5392 17.7937C29.4359 17.5255 29.1345 17.3918 28.8663 17.4951L27.4544 18.0389C27.1861 18.1422 27.0525 18.4431 27.1558 18.7118C27.2355 18.9184 27.4326 19.0452 27.6415 19.0452C27.7036 19.0452 27.767 19.0339 27.8282 19.0104L29.2401 18.4666C29.5084 18.3629 29.642 18.062 29.5392 17.7937Z" fill="#275A9E"/>
<path d="M32.7739 16.5346C32.8537 16.7412 33.0508 16.8681 33.2597 16.8681C33.3218 16.8681 33.3852 16.8567 33.4464 16.8332L34.8583 16.2894C35.1265 16.1861 35.2602 15.8852 35.1569 15.6165C35.0536 15.3483 34.7527 15.2151 34.484 15.3179L33.0721 15.8617C32.8048 15.965 32.6711 16.2659 32.7739 16.5346Z" fill="#275A9E"/>
<path d="M30.1087 20.8225L30.7226 19.4401C30.8391 19.1773 30.7208 18.8696 30.458 18.7531C30.1957 18.6367 29.888 18.7545 29.7711 19.0178L29.1571 20.4002C29.0407 20.663 29.1589 20.9707 29.4217 21.0872C29.4902 21.1175 29.5622 21.132 29.6324 21.132C29.8318 21.132 30.0221 21.0169 30.1087 20.8225Z" fill="#275A9E"/>
<path d="M31.8555 15.5753C31.9239 15.6056 31.9959 15.6201 32.0662 15.6201C32.2655 15.6201 32.4559 15.5046 32.5419 15.3107L33.1559 13.9277C33.2724 13.6649 33.1541 13.3573 32.8913 13.2408C32.6285 13.1239 32.3208 13.2426 32.2044 13.5054L31.5904 14.8884C31.4739 15.1512 31.5927 15.4584 31.8555 15.5753Z" fill="#275A9E"/>
<path d="M57.5235 28.7104H54.9226C54.6217 28.7104 54.3779 28.9592 54.3779 29.2664V34.6581C54.3779 34.9653 54.6217 35.2141 54.9226 35.2141H57.5235C57.8244 35.2141 58.0677 34.9649 58.0677 34.6581V29.2664C58.0681 28.9592 57.8244 28.7104 57.5235 28.7104ZM56.5615 34.7587C56.5615 34.8321 56.5022 34.8914 56.4292 34.8914H56.0173C55.9444 34.8914 55.8846 34.8321 55.8846 34.7587V34.5317C55.8846 34.4583 55.9439 34.3994 56.0173 34.3994H56.4292C56.5022 34.3994 56.5615 34.4587 56.5615 34.5317V34.7587ZM57.301 34.0201H55.1451C54.9987 34.0201 54.88 33.9014 54.88 33.755V29.5981C54.88 29.4518 54.9987 29.333 55.1451 29.333H57.301C57.4474 29.333 57.5661 29.4518 57.5661 29.5981V33.755C57.5665 33.9014 57.4474 34.0201 57.301 34.0201Z" fill="#275A9E"/>
<path d="M8.33786 12.383C8.2794 12.383 8.22005 12.3866 8.16114 12.3943C8.16748 12.3377 8.1702 12.2842 8.1702 12.233C8.1702 11.3354 7.43977 10.605 6.54215 10.605C5.83483 10.605 5.2059 11.0681 4.99248 11.7387C4.94309 11.7342 4.89642 11.7323 4.8511 11.7323C3.8991 11.7323 3.12427 12.5072 3.12427 13.4592C3.12427 14.4112 3.8991 15.186 4.8511 15.186H8.33786C9.11042 15.186 9.73935 14.5575 9.73935 13.7845C9.73935 13.012 9.11042 12.383 8.33786 12.383Z" fill="#275A9E"/>
</g>
<defs>
<clipPath id="clip0_92_13258">
<rect width="69.1578" height="40" fill="white" transform="translate(0.282715 0.275391)"/>
</clipPath>
</defs>
</svg>
