<svg width="41" height="41" viewBox="0 0 41 41" fill="none" xmlns="http://www.w3.org/2000/svg">
<path d="M11.931 12.5445V5.87785C11.931 5.43582 12.1066 5.0119 12.4191 4.69934C12.7317 4.38678 13.1556 4.21118 13.5977 4.21118H35.2643C35.7064 4.21118 36.1303 4.38678 36.4428 4.69934C36.7554 5.0119 36.931 5.43582 36.931 5.87785V27.5445C36.931 27.9865 36.7554 28.4105 36.4428 28.723C36.1303 29.0356 35.7064 29.2112 35.2643 29.2112H28.5977V35.8662C28.5977 36.7929 27.8493 37.5445 26.9193 37.5445H5.27599C5.05553 37.5447 4.83718 37.5015 4.63346 37.4172C4.42974 37.3329 4.24463 37.2093 4.08874 37.0534C3.93285 36.8975 3.80923 36.7124 3.72497 36.5087C3.6407 36.305 3.59744 36.0866 3.59766 35.8662L3.60266 14.2228C3.60266 13.2962 4.35099 12.5445 5.28099 12.5445H11.931ZM15.2643 12.5445H26.9193C27.846 12.5445 28.5977 13.2928 28.5977 14.2228V25.8778H33.5977V7.54452H15.2643V12.5445ZM25.2643 15.8778H6.93599L6.93099 34.2112H25.2643V15.8778ZM14.436 30.8778L8.54266 24.9845L10.8993 22.6278L14.436 26.1645L21.506 19.0928L23.8627 21.4495L14.436 30.8778Z" fill="#275A9E"/>
</svg>
