<svg width="41" height="41" viewBox="0 0 41 41" fill="none" xmlns="http://www.w3.org/2000/svg">
<path d="M4.0813 36.9413C4.0813 33.4051 5.48606 30.0137 7.98654 27.5132C10.487 25.0127 13.8784 23.608 17.4146 23.608C20.9509 23.608 24.3422 25.0127 26.8427 27.5132C29.3432 30.0137 30.748 33.4051 30.748 36.9413H27.4146C27.4146 34.2891 26.3611 31.7456 24.4857 29.8702C22.6103 27.9949 20.0668 26.9413 17.4146 26.9413C14.7625 26.9413 12.2189 27.9949 10.3436 29.8702C8.4682 31.7456 7.41463 34.2891 7.41463 36.9413H4.0813ZM17.4146 21.9413C11.8896 21.9413 7.41463 17.4663 7.41463 11.9413C7.41463 6.41628 11.8896 1.94128 17.4146 1.94128C22.9396 1.94128 27.4146 6.41628 27.4146 11.9413C27.4146 17.4663 22.9396 21.9413 17.4146 21.9413ZM17.4146 18.608C21.098 18.608 24.0813 15.6246 24.0813 11.9413C24.0813 8.25795 21.098 5.27462 17.4146 5.27462C13.7313 5.27462 10.748 8.25795 10.748 11.9413C10.748 15.6246 13.7313 18.608 17.4146 18.608ZM31.2213 24.7796C33.5635 25.8345 35.5513 27.5434 36.9456 29.7008C38.34 31.8582 39.0816 34.3725 39.0813 36.9413H35.748C35.7483 35.0146 35.1922 33.1288 34.1464 31.5106C33.1007 29.8924 31.6098 28.6107 29.853 27.8196L31.2196 24.7796H31.2213ZM30.0746 5.96295C31.7538 6.65511 33.1896 7.83051 34.1997 9.34C35.2097 10.8495 35.7486 12.625 35.748 14.4413C35.7487 16.7285 34.8941 18.9333 33.3522 20.6227C31.8103 22.312 29.6924 23.3637 27.4146 23.5713V20.2163C28.6495 20.0394 29.7952 19.4713 30.6835 18.5954C31.5717 17.7194 32.1558 16.5818 32.3499 15.3495C32.544 14.1172 32.3379 12.8551 31.7619 11.7485C31.1859 10.642 30.2704 9.74919 29.1496 9.20128L30.0746 5.96295Z" fill="#275A9E"/>
</svg>
