<svg width="41" height="41" viewBox="0 0 41 41" fill="none" xmlns="http://www.w3.org/2000/svg">
<path d="M12.5977 9.29045V4.29045C12.5977 3.84842 12.7733 3.4245 13.0859 3.11193C13.3985 2.79937 13.8224 2.62378 14.2644 2.62378H27.5977C28.0398 2.62378 28.4637 2.79937 28.7763 3.11193C29.0888 3.4245 29.2644 3.84842 29.2644 4.29045V9.29045H35.9311C36.3731 9.29045 36.797 9.46604 37.1096 9.7786C37.4221 10.0912 37.5977 10.5151 37.5977 10.9571V34.2904C37.5977 34.7325 37.4221 35.1564 37.1096 35.469C36.797 35.7815 36.3731 35.9571 35.9311 35.9571H5.93107C5.48904 35.9571 5.06512 35.7815 4.75256 35.469C4.44 35.1564 4.2644 34.7325 4.2644 34.2904V10.9571C4.2644 10.5151 4.44 10.0912 4.75256 9.7786C5.06512 9.46604 5.48904 9.29045 5.93107 9.29045H12.5977ZM34.2644 22.6238H7.59774V32.6238H34.2644V22.6238ZM34.2644 12.6238H7.59774V19.2904H12.5977V15.9571H15.9311V19.2904H25.9311V15.9571H29.2644V19.2904H34.2644V12.6238ZM15.9311 5.95711V9.29045H25.9311V5.95711H15.9311Z" fill="#275A9E"/>
</svg>
