<svg width="41" height="41" viewBox="0 0 41 41" fill="none" xmlns="http://www.w3.org/2000/svg">
<path d="M18.7911 4.45703L35.2894 6.81537L37.6461 23.3154L22.3261 38.6354C22.0135 38.9478 21.5897 39.1233 21.1478 39.1233C20.7058 39.1233 20.282 38.9478 19.9694 38.6354L3.46942 22.1354C3.15697 21.8228 2.98145 21.399 2.98145 20.957C2.98145 20.5151 3.15697 20.0912 3.46942 19.7787L18.7911 4.45703ZM19.9694 7.9937L7.00442 20.957L21.1478 35.0987L34.1111 22.1354L32.3444 9.76037L19.9694 7.9937V7.9937ZM23.5028 18.6004C22.8775 17.9749 22.5263 17.1267 22.5265 16.2423C22.5266 15.8044 22.6129 15.3708 22.7805 14.9662C22.9482 14.5617 23.1939 14.1941 23.5036 13.8845C23.8133 13.5749 24.1809 13.3294 24.5855 13.1619C24.9901 12.9944 25.4238 12.9082 25.8617 12.9083C26.7461 12.9084 27.5942 13.2599 28.2194 13.8854C28.8447 14.5108 29.1958 15.3591 29.1957 16.2435C29.1955 17.1278 28.8441 17.976 28.2186 18.6012C27.5931 19.2264 26.7449 19.5776 25.8605 19.5775C24.9761 19.5773 24.128 19.2258 23.5028 18.6004V18.6004Z" fill="#275A9E"/>
</svg>
