<svg width="46" height="46" viewBox="0 0 46 46" fill="none" xmlns="http://www.w3.org/2000/svg">
<path d="M7.1898 5.43254L22.5967 2.00879L38.0036 5.43254C38.4199 5.5251 38.7923 5.75685 39.0592 6.08955C39.3261 6.42225 39.4716 6.83601 39.4717 7.26254V25.9882C39.4715 27.8402 39.0142 29.6635 38.1402 31.2963C37.2662 32.9291 36.0027 34.3209 34.4617 35.3482L22.5967 43.2588L10.7317 35.3482C9.19094 34.3211 7.92754 32.9296 7.05358 31.2971C6.17962 29.6647 5.72212 27.8417 5.72168 25.99V7.26254C5.72175 6.83601 5.86725 6.42225 6.13416 6.08955C6.40107 5.75685 6.77344 5.5251 7.1898 5.43254ZM9.47168 8.76629V25.9882C9.4717 27.2228 9.77651 28.4383 10.359 29.5268C10.9416 30.6154 11.7838 31.5433 12.8111 32.2282L22.5967 38.7532L32.3823 32.2282C33.4093 31.5434 34.2513 30.6158 34.8339 29.5277C35.4164 28.4395 35.7213 27.2243 35.7217 25.99V8.76629L22.5967 5.85254L9.47168 8.76629ZM22.5967 20.7588C21.3535 20.7588 20.1612 20.2649 19.2821 19.3859C18.403 18.5068 17.9092 17.3145 17.9092 16.0713C17.9092 14.8281 18.403 13.6358 19.2821 12.7567C20.1612 11.8776 21.3535 11.3838 22.5967 11.3838C23.8399 11.3838 25.0322 11.8776 25.9112 12.7567C26.7903 13.6358 27.2842 14.8281 27.2842 16.0713C27.2842 17.3145 26.7903 18.5068 25.9112 19.3859C25.0322 20.2649 23.8399 20.7588 22.5967 20.7588ZM14.2098 30.1338C14.4371 28.0683 15.4186 26.1593 16.9662 24.7726C18.5138 23.386 20.5187 22.6192 22.5967 22.6192C24.6746 22.6192 26.6795 23.386 28.2272 24.7726C29.7748 26.1593 30.7563 28.0683 30.9836 30.1338H14.2098Z" fill="#00B6AD"/>
</svg>
