<svg width="112" height="87" viewBox="0 0 112 87" fill="none" xmlns="http://www.w3.org/2000/svg">
<path d="M10.0305 78.7331C3.59296 71.8956 0.136711 64.2268 0.136711 51.7956C0.136711 29.9206 15.493 10.3143 37.8242 0.62056L43.4055 9.23306C22.5617 20.5081 18.4867 35.1393 16.8617 44.3643C20.218 42.6268 24.6117 42.0206 28.918 42.4206C40.193 43.4643 49.0805 52.7206 49.0805 64.2268C49.0805 70.0284 46.7758 75.5924 42.6734 79.6948C38.5711 83.7971 33.0071 86.1018 27.2055 86.1018C20.4992 86.1018 14.0867 83.0393 10.0305 78.7331ZM72.5305 78.7331C66.093 71.8956 62.6367 64.2268 62.6367 51.7956C62.6367 29.9206 77.993 10.3143 100.324 0.62056L105.905 9.23306C85.0617 20.5081 80.9867 35.1393 79.3617 44.3643C82.718 42.6268 87.1117 42.0206 91.418 42.4206C102.693 43.4643 111.574 52.7206 111.574 64.2268C111.574 70.0284 109.27 75.5924 105.167 79.6948C101.065 83.7971 95.5008 86.1018 89.6992 86.1018C82.993 86.1018 76.5805 83.0393 72.5242 78.7331H72.5305Z" fill="#00B6AD" fill-opacity="0.47"/>
</svg>
