<?xml version="1.0" encoding="utf-8"?>
<!-- Generator: Adobe Illustrator 26.3.1, SVG Export Plug-In . SVG Version: 6.00 Build 0)  -->
<svg version="1.1" id="Layer_1" xmlns="http://www.w3.org/2000/svg" xmlns:xlink="http://www.w3.org/1999/xlink" x="0px" y="0px"
	 viewBox="0 0 250 224" style="enable-background:new 0 0 250 224;" xml:space="preserve">
<style type="text/css">
	.st0{clip-path:url(#SVGID_00000059295631786323418600000007342968164647248007_);}
	.st1{fill:#5A9B93;}
	.st2{fill:#82D8D0;}
	.st3{fill:#EBEBEB;}
	.st4{fill:#8CBAB6;}
	.st5{fill:#E6E6E6;}
	.st6{fill:#128B84;}
	.st7{fill:#E0E0E0;}
	.st8{fill:#FFFFFF;}
	.st9{fill:#F5F5F5;}
	.st10{fill:#407BFF;}
	.st11{opacity:0.2;enable-background:new    ;}
	.st12{opacity:0.5;}
	.st13{fill:none;stroke:#FFFFFF;stroke-width:0.9446;stroke-miterlimit:10;}
	.st14{fill:#176660;}
	.st15{fill:#263238;}
	.st16{opacity:0.2;fill:#FFFFFF;enable-background:new    ;}
	.st17{fill:#0D605A;}
	.st18{fill:#E4897B;}
	.st19{opacity:0.4;fill:#2C7CB7;enable-background:new    ;}
	.st20{fill:#DE5753;}
	.st21{opacity:0.7;fill:#FFFFFF;enable-background:new    ;}
	.st22{fill:#545454;}
</style>
<g>
	<defs>
		<rect id="SVGID_1_" y="0.5" width="250" height="223"/>
	</defs>
	<clipPath id="SVGID_00000081632998069752568240000006670478370024807870_">
		<use xlink:href="#SVGID_1_"  style="overflow:visible;"/>
	</clipPath>
	<g style="clip-path:url(#SVGID_00000081632998069752568240000006670478370024807870_);">
		<path class="st1" d="M120.1,60H28.5v134.2h91.5V60z"/>
		<path class="st2" d="M116.8,64.2H31.8V89h85.1V64.2z"/>
		<path class="st3" d="M36.6,68.2h-4.8V89h4.8V68.2z"/>
		<path class="st3" d="M60,68.2h-4.8V89H60V68.2z"/>
		<path class="st3" d="M86.5,67.7l-4.8,0.8L85.2,89l4.8-0.8L86.5,67.7z"/>
		<path class="st3" d="M42.6,71h-4.8v18h4.8V71z"/>
		<path class="st3" d="M53.7,71h-4.8v18h4.8V71z"/>
		<path class="st3" d="M81.7,71h-4.8v18h4.8V71z"/>
		<path class="st3" d="M66.3,70.4l-4.7,1L65.5,89l4.7-1L66.3,70.4z"/>
		<path class="st3" d="M46.8,67.2h-2.4V89h2.4V67.2z"/>
		<path class="st3" d="M75.5,67.2h-2.4V89h2.4V67.2z"/>
		<path class="st2" d="M31.8,117.7h85.1V92.9H31.8V117.7z"/>
		<path class="st3" d="M112,117.7h4.8V97H112V117.7z"/>
		<path class="st3" d="M88.6,117.7h4.8V97h-4.8V117.7z"/>
		<path class="st3" d="M58.6,116.9l4.8,0.8l3.5-20.5l-4.8-0.8L58.6,116.9z"/>
		<path class="st3" d="M106,117.7h4.8v-18H106V117.7z"/>
		<path class="st3" d="M94.9,117.7h4.8v-18h-4.8V117.7z"/>
		<path class="st3" d="M66.9,117.7h4.8v-18h-4.8V117.7z"/>
		<path class="st3" d="M78.4,116.7l4.7,1l3.9-17.6l-4.7-1L78.4,116.7z"/>
		<path class="st3" d="M101.8,117.7h2.4V95.9h-2.4V117.7z"/>
		<path class="st3" d="M73.1,117.7h2.4V95.9h-2.4V117.7z"/>
		<path class="st3" d="M36.6,97h-4.8v20.8h4.8V97z"/>
		<path class="st3" d="M42.6,99.7h-4.8v18h4.8V99.7z"/>
		<path class="st3" d="M53.7,99.7h-4.8v18h4.8V99.7z"/>
		<path class="st3" d="M46.8,95.9h-2.4v21.8h2.4V95.9z"/>
		<path class="st2" d="M116.8,121.7H31.8v24.8h85.1V121.7z"/>
		<path class="st3" d="M85.4,125.7h-4.8v20.8h4.8V125.7z"/>
		<path class="st3" d="M111.9,125.2l-4.8,0.8l3.5,20.5l4.8-0.8L111.9,125.2z"/>
		<path class="st3" d="M68,128.4h-4.8v18H68V128.4z"/>
		<path class="st3" d="M79.1,128.4h-4.8v18h4.8V128.4z"/>
		<path class="st3" d="M107.2,128.4h-4.8v18h4.8V128.4z"/>
		<path class="st3" d="M91.8,127.8l-4.7,1l3.9,17.6l4.7-1L91.8,127.8z"/>
		<path class="st3" d="M72.2,124.6h-2.4v21.8h2.4V124.6z"/>
		<path class="st3" d="M101,124.6h-2.4v21.8h2.4V124.6z"/>
		<path class="st3" d="M56.3,125.2l-4.8,0.8l3.5,20.5l4.8-0.8L56.3,125.2z"/>
		<path class="st3" d="M51.6,128.4h-4.8v18h4.8V128.4z"/>
		<path class="st3" d="M36.2,127.8l-4.7,1l3.9,17.6l4.7-1L36.2,127.8z"/>
		<path class="st3" d="M45.4,124.6h-2.4v21.8h2.4V124.6z"/>
		<path class="st4" d="M12.7,194.6h15.8V60H12.7V194.6z"/>
		<path class="st4" d="M173.6,191.1h-13.4l7.1-57.4c0.3-2.4,2.5-4.4,4.9-4.4h4.6h53.9l-8.6,61.9H173.6z"/>
		<path class="st4" d="M216.2,191.1h13.4l7.1-57.4c0.3-2.4-1.4-4.4-3.9-4.4h-4.6c-2.4,0-4.6,2-4.9,4.4L216.2,191.1z"/>
		<path class="st4" d="M211.2,191l2.4-27.8c0.1-1.2,1.1-2.2,2.3-2.4l1-0.1c1.7-0.2,2.9-1.5,3.1-3.2l0.4-5.1c0.2-2.1-1.5-3.9-3.5-3.9
			h22.4c2.1,0,3.7,1.8,3.5,3.9l-0.4,5.1c-0.1,1.7-1.4,3-3.1,3.2l-1,0.1c-1.2,0.2-2.2,1.2-2.3,2.4l-2.4,27.8c-0.2,2-1.9,3.6-3.9,3.6
			h-22.4C209.4,194.6,211.1,193,211.2,191z"/>
		<path class="st5" d="M149.5,156.2c-0.4-4.4-4-7.7-8.4-7.7H152h8.7c4.4,0,8,3.3,8.4,7.7l1.9,22h-19.5L149.5,156.2z"/>
		<path class="st6" d="M132.5,148.5h8.7c4.4,0,8,3.3,8.4,7.7l1.9,22H198l1.9-22c0.4-4.4,4-7.7,8.4-7.7h8.7c2.1,0,3.7,1.8,3.5,3.9
			l-0.4,5.1c-0.1,1.7-1.4,3-3.1,3.2l-1,0.1c-1.2,0.2-2.2,1.2-2.3,2.4l-2.4,27.8c-0.2,2-1.9,3.6-3.9,3.6h-65.3c-2,0-3.7-1.6-3.9-3.6
			l-2.4-27.8c-0.1-1.2-1.1-2.2-2.3-2.4l-1-0.1c-1.7-0.2-2.9-1.5-3.1-3.2l-0.4-5.1C128.7,150.3,130.4,148.5,132.5,148.5z"/>
		<path class="st5" d="M29.7,53.3c0,0-0.7-4.7,2.7-7.7c3.4-3,3.1-4.8,2.2-5c-1-0.2-1.9,2.8-3.4,3.6c0,0,0-4.3,1.5-5.9
			c1.5-1.6,2.3-5.7,0.9-5.7c-1.5-0.1-1.6,2.4-1.9,4.2S29.7,41,29.7,41s-0.3-3.8-1.3-5.4c-1-1.6,1.7-5.2,0.6-6.8
			c-1-1.6-2.8,1.4-2.7,4.8c0.1,3.4,2.4,7,1.9,10.6c0,0-1-2.5-1.9-2.7c-0.9-0.2-1.8-1.9-2.4-2.5c-0.6-0.6-1.4,1.5,0,3.5
			c1.4,2,4.8,7.2,4.3,11.5L29.7,53.3z"/>
		<path class="st5" d="M31.7,51.2l1.1,7.1c0.3,2.2-1.3,4.2-3.5,4.2h-1.2c-2.2,0-3.9-2-3.5-4.2l1.1-7.1H31.7z"/>
		<path class="st3" d="M99.3,61h3.5V45.9h-3.5V61z"/>
		<path class="st3" d="M82.3,61h3.5V45.9h-3.5V61z"/>
		<path class="st3" d="M60.5,60.4L64,61l2.6-14.8l-3.4-0.6L60.5,60.4z"/>
		<path class="st3" d="M94.9,61h3.5V47.9h-3.5V61z"/>
		<path class="st3" d="M86.9,61h3.5V47.9h-3.5V61z"/>
		<path class="st3" d="M66.5,61H70V47.9h-3.5V61z"/>
		<path class="st3" d="M74.9,60.2l3.4,0.8l2.8-12.8l-3.4-0.8L74.9,60.2z"/>
		<path class="st3" d="M91.9,61h1.8V45.2h-1.8V61z"/>
		<path class="st3" d="M71,61h1.8V45.2H71V61z"/>
		<path class="st3" d="M58.6,49H41.5v11.8h17.1V49z"/>
		<path class="st3" d="M117.1,53.9h-14.3v8.8h14.3V53.9z"/>
		<path class="st3" d="M113.8,46.1h-7.1v8.8h7.1V46.1z"/>
		<path class="st6" d="M233.2,34.5h-17v70.8h17V34.5z"/>
		<path class="st7" d="M167.8,105.5h63.6v-71h-63.6V105.5z"/>
		<path class="st4" d="M165.7,105.5h66v-71h-66V105.5z"/>
		<path class="st8" d="M168.6,102.3H229V36.8h-60.4V102.3z"/>
		<path class="st6" d="M168.6,102.3h1.1V36.8h-1.1V102.3z"/>
		<path class="st7" d="M169.5,83.9v1.8h59.7v-1.8H169.5z"/>
		<path class="st6" d="M168.6,83.9h61.4v-3h-61.4V83.9z"/>
		<path class="st9" d="M125,223.6c69,0,125-3.3,125-7.3c0-4-56-7.3-125-7.3c-69,0-125,3.3-125,7.3C0,220.3,56,223.6,125,223.6z"/>
		<path class="st10" d="M171.4,191.7H56c-2.6,0-4.7-2.1-4.7-4.7V51.2c0-2.6,2.1-4.7,4.7-4.7h115.3c2.6,0,4.7,2.1,4.7,4.7V187
			C176.1,189.6,174,191.7,171.4,191.7z"/>
		<path class="st4" d="M171.4,191.7H56c-2.6,0-4.7-2.1-4.7-4.7V51.2c0-2.6,2.1-4.7,4.7-4.7h115.3c2.6,0,4.7,2.1,4.7,4.7V187
			C176.1,189.6,174,191.7,171.4,191.7z"/>
		<path class="st8" d="M155.9,113H71.5v14.4h84.4V113z"/>
		<path class="st8" d="M155.9,132.8H71.5v14.4h84.4V132.8z"/>
		<path class="st11" d="M155.9,161.9H71.5v14.4h84.4V161.9z"/>
		<g class="st12">
			<path d="M92.1,155.3h-1.4l-0.3,0.7h-0.3l1.1-2.5h0.3l1.1,2.5h-0.3L92.1,155.3z M92,155.1l-0.6-1.3l-0.6,1.3H92z"/>
			<path d="M93,153.4h0.3v2.6H93V153.4z"/>
			<path d="M94.9,154.1v0.2c0,0,0,0-0.1,0c-0.4,0-0.6,0.2-0.6,0.7v0.9h-0.3v-1.9h0.2v0.4C94.3,154.2,94.5,154.1,94.9,154.1z"/>
			<path d="M96.9,155.1h-1.6c0,0.4,0.3,0.6,0.7,0.6c0.2,0,0.4-0.1,0.6-0.2l0.1,0.2c-0.2,0.2-0.4,0.3-0.7,0.3c-0.6,0-1-0.4-1-0.9
				c0-0.6,0.4-0.9,0.9-0.9C96.5,154.1,96.9,154.5,96.9,155.1C96.9,155.1,96.9,155.1,96.9,155.1z M95.4,154.9h1.3
				c0-0.4-0.3-0.6-0.7-0.6C95.7,154.3,95.4,154.6,95.4,154.9z"/>
			<path d="M98.8,154.8v1.2h-0.2v-0.3c-0.1,0.2-0.3,0.3-0.6,0.3c-0.4,0-0.7-0.2-0.7-0.5c0-0.3,0.2-0.5,0.7-0.5h0.6v-0.1
				c0-0.3-0.2-0.5-0.5-0.5c-0.2,0-0.5,0.1-0.6,0.2l-0.1-0.2c0.2-0.2,0.5-0.3,0.8-0.3C98.5,154.1,98.8,154.3,98.8,154.8z M98.5,155.4
				v-0.3H98c-0.4,0-0.5,0.1-0.5,0.3c0,0.2,0.2,0.3,0.5,0.3C98.2,155.8,98.4,155.7,98.5,155.4z"/>
			<path d="M101.2,153.4v2.6h-0.2v-0.4c-0.2,0.3-0.4,0.4-0.7,0.4c-0.5,0-0.9-0.4-0.9-0.9s0.4-0.9,0.9-0.9c0.3,0,0.5,0.1,0.7,0.4
				v-1.1H101.2z M100.9,155c0-0.4-0.3-0.7-0.7-0.7c-0.4,0-0.7,0.3-0.7,0.7s0.3,0.7,0.7,0.7C100.6,155.8,100.9,155.5,100.9,155z"/>
			<path d="M103.4,154.1l-0.9,2.1c-0.2,0.4-0.4,0.5-0.6,0.5c-0.2,0-0.3-0.1-0.5-0.2l0.1-0.2c0.1,0.1,0.2,0.1,0.3,0.1
				c0.2,0,0.3-0.1,0.4-0.3l0.1-0.2l-0.8-1.9h0.3l0.7,1.6l0.7-1.6L103.4,154.1L103.4,154.1z"/>
			<path d="M106.1,154.8v1.2h-0.2v-0.3c-0.1,0.2-0.3,0.3-0.6,0.3c-0.4,0-0.7-0.2-0.7-0.5c0-0.3,0.2-0.5,0.7-0.5h0.6v-0.1
				c0-0.3-0.2-0.5-0.5-0.5c-0.2,0-0.5,0.1-0.6,0.2l-0.1-0.2c0.2-0.2,0.5-0.3,0.8-0.3C105.8,154.1,106.1,154.3,106.1,154.8z
				 M105.9,155.4v-0.3h-0.6c-0.4,0-0.5,0.1-0.5,0.3c0,0.2,0.2,0.3,0.5,0.3C105.6,155.8,105.8,155.7,105.9,155.4z"/>
			<path d="M110.8,154.9v1.1h-0.3v-1.1c0-0.4-0.2-0.6-0.5-0.6c-0.4,0-0.6,0.2-0.6,0.7v1h-0.3v-1.1c0-0.4-0.2-0.6-0.5-0.6
				c-0.4,0-0.6,0.2-0.6,0.7v1h-0.3v-1.9h0.2v0.3c0.1-0.2,0.4-0.4,0.7-0.4c0.3,0,0.5,0.1,0.7,0.4c0.1-0.2,0.4-0.4,0.7-0.4
				C110.5,154.1,110.8,154.4,110.8,154.9z"/>
			<path d="M113.1,155.1h-1.6c0,0.4,0.3,0.6,0.7,0.6c0.2,0,0.4-0.1,0.6-0.2l0.1,0.2c-0.2,0.2-0.4,0.3-0.7,0.3c-0.6,0-1-0.4-1-0.9
				c0-0.6,0.4-0.9,0.9-0.9C112.7,154.1,113.1,154.5,113.1,155.1C113.1,155.1,113.1,155.1,113.1,155.1z M111.5,154.9h1.3
				c0-0.4-0.3-0.6-0.7-0.6S111.6,154.6,111.5,154.9z"/>
			<path d="M116.7,154.9v1.1h-0.3v-1.1c0-0.4-0.2-0.6-0.5-0.6c-0.4,0-0.6,0.2-0.6,0.7v1H115v-1.1c0-0.4-0.2-0.6-0.5-0.6
				c-0.4,0-0.6,0.2-0.6,0.7v1h-0.3v-1.9h0.2v0.3c0.1-0.2,0.4-0.4,0.7-0.4s0.5,0.1,0.7,0.4c0.1-0.2,0.4-0.4,0.7-0.4
				C116.4,154.1,116.7,154.4,116.7,154.9z"/>
			<path d="M119.2,155c0,0.6-0.4,0.9-0.9,0.9c-0.3,0-0.6-0.1-0.7-0.4v0.4h-0.2v-2.6h0.3v1.1c0.2-0.2,0.4-0.4,0.7-0.4
				C118.9,154.1,119.2,154.5,119.2,155z M119,155c0-0.4-0.3-0.7-0.7-0.7c-0.4,0-0.7,0.3-0.7,0.7s0.3,0.7,0.7,0.7
				C118.7,155.8,119,155.5,119,155z"/>
			<path d="M121.4,155.1h-1.6c0,0.4,0.3,0.6,0.7,0.6c0.2,0,0.4-0.1,0.6-0.2l0.1,0.2c-0.2,0.2-0.4,0.3-0.7,0.3c-0.6,0-1-0.4-1-0.9
				c0-0.6,0.4-0.9,0.9-0.9S121.4,154.5,121.4,155.1C121.4,155.1,121.4,155.1,121.4,155.1z M119.8,154.9h1.3c0-0.4-0.3-0.6-0.7-0.6
				S119.9,154.6,119.8,154.9z"/>
			<path d="M122.8,154.1v0.2c0,0,0,0-0.1,0c-0.4,0-0.6,0.2-0.6,0.7v0.9h-0.3v-1.9h0.2v0.4C122.3,154.2,122.5,154.1,122.8,154.1z"/>
			<path d="M124.5,154.1c0-0.3-0.2-0.4-0.6-0.4c-0.3,0-0.5,0.1-0.7,0.3l-0.2-0.1c0.2-0.2,0.5-0.4,0.9-0.4c0.5,0,0.8,0.2,0.8,0.6
				c0,0.6-0.6,0.6-0.6,1.1h-0.3C123.8,154.6,124.5,154.6,124.5,154.1z M123.8,155.8c0-0.1,0.1-0.2,0.2-0.2c0.1,0,0.2,0.1,0.2,0.2
				c0,0.1-0.1,0.2-0.2,0.2C123.8,156,123.8,155.9,123.8,155.8z"/>
			<path d="M126.2,153.5h0.6v2h1.2v0.5h-1.8V153.5z"/>
			<path d="M128.1,155c0-0.6,0.4-1,1-1c0.6,0,1,0.4,1,1c0,0.6-0.4,1-1,1C128.6,156,128.1,155.6,128.1,155z M129.7,155
				c0-0.3-0.2-0.5-0.5-0.5c-0.3,0-0.5,0.2-0.5,0.5c0,0.3,0.2,0.5,0.5,0.5C129.5,155.6,129.7,155.4,129.7,155z"/>
			<path d="M132.6,154.1v1.6c0,0.7-0.4,1-1.1,1c-0.4,0-0.7-0.1-0.9-0.3l0.2-0.4c0.2,0.1,0.4,0.2,0.7,0.2c0.4,0,0.6-0.2,0.6-0.5v-0.1
				c-0.1,0.2-0.4,0.2-0.6,0.2c-0.5,0-0.9-0.4-0.9-0.9c0-0.6,0.4-0.9,0.9-0.9c0.3,0,0.5,0.1,0.6,0.3v-0.2L132.6,154.1L132.6,154.1z
				 M132,155c0-0.3-0.2-0.5-0.5-0.5c-0.3,0-0.5,0.2-0.5,0.5c0,0.3,0.2,0.5,0.5,0.5C131.8,155.4,132,155.2,132,155z"/>
			<path d="M134,153.5c0-0.2,0.1-0.3,0.3-0.3c0.2,0,0.3,0.1,0.3,0.3c0,0.2-0.1,0.3-0.3,0.3C134.1,153.8,134,153.7,134,153.5z
				 M134.1,154.1h0.5v1.9h-0.5V154.1z"/>
			<path d="M137.1,154.9v1.1h-0.5v-1c0-0.3-0.1-0.5-0.4-0.5c-0.3,0-0.5,0.2-0.5,0.5v0.9h-0.5v-1.9h0.5v0.2c0.1-0.2,0.4-0.3,0.6-0.3
				C136.7,154,137.1,154.3,137.1,154.9z"/>
		</g>
		<path class="st10" d="M155.9,161.1H71.5v14.4h84.4V161.1z"/>
		<path class="st8" d="M102.8,170.5l-1.1-1.5c-0.1,0-0.2,0-0.3,0h-1.2v1.5h-0.7v-4.9h1.9c1.3,0,2.1,0.7,2.1,1.7
			c0,0.8-0.4,1.3-1.1,1.6l1.2,1.7L102.8,170.5L102.8,170.5z M102.8,167.3c0-0.7-0.5-1.1-1.4-1.1h-1.2v2.2h1.2
			C102.3,168.4,102.8,168,102.8,167.3z"/>
		<path class="st8" d="M107.9,168.9h-3c0.1,0.7,0.6,1.1,1.4,1.1c0.4,0,0.8-0.1,1.1-0.5l0.4,0.4c-0.3,0.4-0.9,0.6-1.5,0.6
			c-1.2,0-2-0.8-2-1.9c0-1.1,0.8-1.9,1.9-1.9c1.1,0,1.8,0.8,1.8,1.9C107.9,168.7,107.9,168.8,107.9,168.9z M104.9,168.4h2.4
			c-0.1-0.6-0.5-1.1-1.2-1.1C105.4,167.3,105,167.8,104.9,168.4z"/>
		<path class="st8" d="M112.5,166.8v3.2c0,1.3-0.7,1.9-1.9,1.9c-0.7,0-1.4-0.2-1.8-0.6l0.3-0.5c0.3,0.3,0.9,0.5,1.4,0.5
			c0.9,0,1.3-0.4,1.3-1.3v-0.3c-0.3,0.4-0.8,0.6-1.3,0.6c-1.1,0-1.9-0.7-1.9-1.8c0-1.1,0.8-1.8,1.9-1.8c0.6,0,1.1,0.2,1.4,0.6v-0.6
			H112.5z M111.8,168.6c0-0.7-0.5-1.2-1.3-1.2c-0.8,0-1.3,0.5-1.3,1.2s0.5,1.2,1.3,1.2C111.3,169.8,111.8,169.3,111.8,168.6z"/>
		<path class="st8" d="M113.6,165.6c0-0.2,0.2-0.4,0.5-0.4c0.3,0,0.5,0.2,0.5,0.4c0,0.3-0.2,0.5-0.5,0.5
			C113.8,166.1,113.6,165.9,113.6,165.6z M113.8,166.8h0.7v3.7h-0.7V166.8z"/>
		<path class="st8" d="M115.3,170.1l0.3-0.5c0.3,0.2,0.8,0.4,1.3,0.4c0.6,0,0.9-0.2,0.9-0.5c0-0.8-2.4-0.1-2.4-1.6
			c0-0.7,0.6-1.1,1.6-1.1c0.5,0,1,0.1,1.4,0.3l-0.3,0.5c-0.3-0.2-0.7-0.3-1.1-0.3c-0.6,0-0.9,0.2-0.9,0.5c0,0.9,2.4,0.2,2.4,1.6
			c0,0.7-0.6,1.1-1.6,1.1C116.2,170.6,115.6,170.4,115.3,170.1z"/>
		<path class="st8" d="M121.4,170.3c-0.2,0.2-0.5,0.3-0.8,0.3c-0.8,0-1.2-0.4-1.2-1.2v-2.1h-0.6v-0.6h0.6V166h0.7v0.8h1.1v0.6H120v2
			c0,0.4,0.2,0.6,0.6,0.6c0.2,0,0.4-0.1,0.5-0.2L121.4,170.3z"/>
		<path class="st8" d="M125.4,168.9h-3c0.1,0.7,0.6,1.1,1.4,1.1c0.4,0,0.8-0.1,1.1-0.5l0.4,0.4c-0.3,0.4-0.9,0.6-1.5,0.6
			c-1.2,0-2-0.8-2-1.9c0-1.1,0.8-1.9,1.9-1.9c1.1,0,1.8,0.8,1.8,1.9C125.5,168.7,125.4,168.8,125.4,168.9z M122.4,168.4h2.4
			c-0.1-0.6-0.5-1.1-1.2-1.1C123,167.3,122.5,167.8,122.4,168.4z"/>
		<path class="st8" d="M128.4,166.8v0.7c-0.1,0-0.1,0-0.2,0c-0.7,0-1.2,0.4-1.2,1.3v1.9h-0.7v-3.7h0.7v0.6
			C127.3,167,127.8,166.8,128.4,166.8z"/>
		<path class="st8" d="M155.9,93.3H71.5v14.4h84.4V93.3z"/>
		<path class="st8" d="M155.9,73.6H71.5V88h84.4V73.6z"/>
		<path class="st8" d="M82.6,57.8c0.3-0.1,0.8-0.1,1.3-0.1c0.7,0,1.2,0.1,1.5,0.4c0.3,0.2,0.4,0.6,0.4,1c0,0.7-0.4,1.1-1,1.3v0
			c0.4,0.1,0.6,0.5,0.8,1.1c0.2,0.7,0.3,1.2,0.4,1.4h-0.7c-0.1-0.1-0.2-0.6-0.3-1.2c-0.2-0.7-0.4-1-1-1h-0.6v2.3h-0.7L82.6,57.8
			L82.6,57.8z M83.3,60.1H84c0.7,0,1.2-0.4,1.2-1c0-0.7-0.5-1-1.2-1c-0.3,0-0.6,0-0.7,0.1V60.1z"/>
		<path class="st8" d="M87.2,61.2c0,0.9,0.6,1.3,1.3,1.3c0.5,0,0.8-0.1,1-0.2l0.1,0.5c-0.2,0.1-0.7,0.2-1.2,0.2
			c-1.2,0-1.8-0.8-1.8-1.9s0.7-2,1.8-2c1.2,0,1.5,1.1,1.5,1.8c0,0.1,0,0.2,0,0.3L87.2,61.2L87.2,61.2z M89.1,60.7
			c0-0.4-0.2-1.1-0.9-1.1c-0.7,0-1,0.6-1,1.1H89.1z"/>
		<path class="st8" d="M93.9,59.2c0,0.3,0,0.6,0,1v2.2c0,0.9-0.2,1.4-0.5,1.7c-0.4,0.3-0.9,0.5-1.4,0.5c-0.5,0-0.9-0.1-1.2-0.3
			l0.2-0.5c0.2,0.2,0.6,0.3,1.1,0.3c0.7,0,1.2-0.4,1.2-1.3v-0.4h0c-0.2,0.3-0.6,0.6-1.2,0.6c-0.9,0-1.6-0.8-1.6-1.8
			c0-1.3,0.8-2,1.7-2c0.7,0,1,0.3,1.2,0.7h0l0-0.6H93.9z M93.2,60.7c0-0.1,0-0.2,0-0.3c-0.1-0.4-0.5-0.7-1-0.7
			c-0.7,0-1.1,0.5-1.1,1.4c0,0.7,0.4,1.3,1.1,1.3c0.4,0,0.8-0.3,0.9-0.7c0-0.1,0.1-0.2,0.1-0.4L93.2,60.7L93.2,60.7z"/>
		<path class="st8" d="M95.7,58.1c0,0.2-0.2,0.4-0.4,0.4c-0.2,0-0.4-0.2-0.4-0.4c0-0.2,0.2-0.4,0.4-0.4
			C95.5,57.7,95.7,57.9,95.7,58.1z M94.9,62.9v-3.7h0.7v3.7H94.9z"/>
		<path class="st8" d="M96.6,62.2c0.2,0.1,0.6,0.3,0.9,0.3c0.5,0,0.7-0.2,0.7-0.6c0-0.3-0.2-0.5-0.7-0.7c-0.7-0.2-1-0.6-1-1.1
			c0-0.6,0.5-1.1,1.3-1.1c0.4,0,0.7,0.1,0.9,0.2l-0.2,0.5c-0.1-0.1-0.4-0.2-0.8-0.2c-0.4,0-0.6,0.2-0.6,0.5c0,0.3,0.2,0.5,0.7,0.6
			c0.7,0.2,1,0.6,1,1.1c0,0.7-0.5,1.1-1.4,1.1c-0.4,0-0.8-0.1-1.1-0.3L96.6,62.2z"/>
		<path class="st8" d="M100.6,58.1v1.1h1v0.5h-1v2c0,0.5,0.1,0.7,0.5,0.7c0.2,0,0.3,0,0.4,0l0,0.5c-0.1,0.1-0.3,0.1-0.6,0.1
			c-0.3,0-0.6-0.1-0.7-0.3c-0.2-0.2-0.3-0.5-0.3-1v-2h-0.6v-0.5h0.6v-0.9L100.6,58.1z"/>
		<path class="st8" d="M102.7,61.2c0,0.9,0.6,1.3,1.3,1.3c0.5,0,0.8-0.1,1-0.2l0.1,0.5c-0.2,0.1-0.7,0.2-1.2,0.2
			c-1.2,0-1.8-0.8-1.8-1.9s0.7-2,1.8-2c1.2,0,1.5,1.1,1.5,1.8c0,0.1,0,0.2,0,0.3L102.7,61.2L102.7,61.2z M104.7,60.7
			c0-0.4-0.2-1.1-0.9-1.1c-0.7,0-1,0.6-1,1.1H104.7z"/>
		<path class="st8" d="M106.2,60.3c0-0.4,0-0.8,0-1.2h0.6l0,0.7h0c0.2-0.5,0.6-0.8,1-0.8c0.1,0,0.1,0,0.2,0v0.6c-0.1,0-0.1,0-0.2,0
			c-0.5,0-0.8,0.4-0.9,0.9c0,0.1,0,0.2,0,0.3v2h-0.7V60.3z"/>
		<path class="st8" d="M113.7,61c0,1.4-1,2-1.9,2c-1,0-1.8-0.7-1.8-1.9c0-1.3,0.8-2,1.9-2C113,59.1,113.7,59.9,113.7,61z
			 M110.8,61.1c0,0.8,0.5,1.4,1.1,1.4c0.7,0,1.1-0.6,1.1-1.5c0-0.6-0.3-1.4-1.1-1.4C111.1,59.6,110.8,60.3,110.8,61.1z"/>
		<path class="st8" d="M114.6,60.2c0-0.4,0-0.7,0-1h0.6l0,0.6h0c0.2-0.4,0.6-0.7,1.2-0.7c0.5,0,1.3,0.3,1.3,1.6v2.2h-0.7v-2.2
			c0-0.6-0.2-1.1-0.9-1.1c-0.5,0-0.8,0.3-0.9,0.7c0,0.1,0,0.2,0,0.3v2.2h-0.7L114.6,60.2L114.6,60.2z"/>
		<path class="st8" d="M120.2,62.5l2.9-4.2v0h-2.6v-0.6h3.5v0.4l-2.9,4.2v0h2.9v0.6h-3.8L120.2,62.5L120.2,62.5z"/>
		<path class="st8" d="M125,59.2l0.8,2.2c0.1,0.2,0.2,0.5,0.2,0.8h0c0.1-0.2,0.1-0.5,0.2-0.8l0.7-2.2h0.7l-1,2.7
			c-0.5,1.3-0.8,1.9-1.3,2.3c-0.3,0.3-0.7,0.4-0.8,0.4l-0.2-0.6c0.2-0.1,0.4-0.2,0.6-0.3c0.2-0.1,0.4-0.4,0.6-0.8
			c0-0.1,0.1-0.1,0.1-0.2c0,0,0-0.1,0-0.2l-1.4-3.4L125,59.2L125,59.2z"/>
		<path class="st8" d="M130.4,62.9l-0.1-0.5h0c-0.2,0.3-0.6,0.6-1.1,0.6c-0.8,0-1.1-0.5-1.1-1.1c0-0.9,0.8-1.4,2.2-1.4v-0.1
			c0-0.3-0.1-0.9-0.9-0.9c-0.3,0-0.7,0.1-1,0.3l-0.2-0.5c0.3-0.2,0.8-0.3,1.2-0.3c1.1,0,1.4,0.8,1.4,1.5V62c0,0.3,0,0.6,0.1,0.9
			L130.4,62.9L130.4,62.9z M130.3,61c-0.7,0-1.6,0.1-1.6,0.8c0,0.4,0.3,0.7,0.6,0.7c0.5,0,0.8-0.3,0.9-0.6c0-0.1,0-0.1,0-0.2V61z"/>
		<path class="st8" d="M132.1,60.4c0-0.5,0-0.9,0-1.2h0.6l0,0.6h0c0.3-0.5,0.7-0.7,1.3-0.7c0.9,0,1.6,0.8,1.6,1.9c0,1.3-0.8,2-1.7,2
			c-0.5,0-0.9-0.2-1.2-0.6h0v2h-0.7V60.4z M132.8,61.4c0,0.1,0,0.2,0,0.3c0.1,0.5,0.5,0.8,1,0.8c0.7,0,1.1-0.6,1.1-1.4
			c0-0.7-0.4-1.4-1.1-1.4c-0.5,0-0.9,0.3-1,0.8c0,0.1,0,0.2,0,0.3L132.8,61.4L132.8,61.4z"/>
		<path class="st8" d="M138.6,62.9l-0.1-0.5h0c-0.2,0.3-0.6,0.6-1.1,0.6c-0.8,0-1.1-0.5-1.1-1.1c0-0.9,0.8-1.4,2.2-1.4v-0.1
			c0-0.3-0.1-0.9-0.9-0.9c-0.3,0-0.7,0.1-1,0.3l-0.2-0.5c0.3-0.2,0.8-0.3,1.2-0.3c1.1,0,1.4,0.8,1.4,1.5V62c0,0.3,0,0.6,0.1,0.9
			L138.6,62.9L138.6,62.9z M138.5,61c-0.7,0-1.6,0.1-1.6,0.8c0,0.4,0.3,0.7,0.6,0.7c0.5,0,0.8-0.3,0.9-0.6c0-0.1,0-0.1,0-0.2V61z"/>
		<path class="st8" d="M142.3,62.9l-0.1-0.5h0c-0.2,0.3-0.6,0.6-1.1,0.6c-0.8,0-1.1-0.5-1.1-1.1c0-0.9,0.8-1.4,2.2-1.4v-0.1
			c0-0.3-0.1-0.9-0.9-0.9c-0.3,0-0.7,0.1-1,0.3l-0.2-0.5c0.3-0.2,0.8-0.3,1.2-0.3c1.1,0,1.4,0.8,1.4,1.5V62c0,0.3,0,0.6,0.1,0.9
			L142.3,62.9L142.3,62.9z M142.2,61c-0.7,0-1.6,0.1-1.6,0.8c0,0.4,0.3,0.7,0.6,0.7c0.5,0,0.8-0.3,0.9-0.6c0-0.1,0-0.1,0-0.2V61z"/>
		<path class="st8" d="M143.9,60.3c0-0.4,0-0.8,0-1.2h0.6l0,0.7h0c0.2-0.5,0.6-0.8,1-0.8c0.1,0,0.1,0,0.2,0v0.6c-0.1,0-0.1,0-0.2,0
			c-0.5,0-0.8,0.4-0.9,0.9c0,0.1,0,0.2,0,0.3v2h-0.7V60.3z"/>
		<path class="st13" d="M51.8,170.7c0,0-4.3-3.6-7.9,0s-4.4,25.6-4.4,25.6"/>
		<path class="st13" d="M39.2,200.5c0,0,2.5-25.9-7-36.7"/>
		<path class="st13" d="M40.1,197.8c0,0-1.9-29.4,5.2-36"/>
		<path class="st13" d="M39.2,197.8c0,0-0.2-19.5-5.4-22.5c-5.3-3-8,6.8-8,6.8"/>
		<path class="st13" d="M41.3,197.8c0,0-0.9-14.9,3.2-20.3c4.1-5.3,8.4,2.3,8.4,2.3"/>
		<path class="st13" d="M39.9,199.8c0,0,2.6-34.9-1.7-40.9"/>
		<path class="st14" d="M29.2,178.2c0,0,2.6,1,1.9,3.3c-0.8,2.3-9.1,6.1-9.1,6.1s-3.5-3.2-0.3-8.4C24.9,173.9,29.2,176.5,29.2,178.2
			z"/>
		<path class="st14" d="M40.7,173.8c0,0-2.8-0.1-3,2.3c-0.2,2.4,6.1,9.1,6.1,9.1s4.4-1.6,3.5-7.6C46.3,171.5,41.4,172.3,40.7,173.8z
			"/>
		<path class="st14" d="M43,162.2c0,0-1.9-0.2-1.7-1.3c0.1-1.1,7.3-4.1,11.5,0.7c0,0-2.7,4.6-6.6,4.7C42.3,166.3,43,162.2,43,162.2z
			"/>
		<path class="st14" d="M39.6,159.5c0,0,1.7,0.8,2.2-0.2c0.5-1-4-7.3-10.1-5.5c0,0-0.2,5.3,3.1,7.4C38,163.3,39.6,159.5,39.6,159.5z
			"/>
		<path class="st14" d="M48.4,177.2c0,0-1.3-1,0.1-1.5c1.4-0.5,8.2-0.4,8.3,6.4c0,0-8,1.3-8.9-1.3C46.9,178.3,48.4,177.2,48.4,177.2
			z"/>
		<path class="st14" d="M32.2,162.1c0,0,1.3-1-0.1-1.5c-1.4-0.5-8.2-0.4-8.3,6.4c0,0,8,1.3,8.9-1.3
			C33.7,163.1,32.2,162.1,32.2,162.1z"/>
		<path class="st14" d="M36.4,167.5c0,0,0.1-1.3-0.9-0.8c-1,0.5-4.6,4.3-0.9,8c0,0,5-3.7,4.1-5.6C37.8,167.2,36.4,167.5,36.4,167.5z
			"/>
		<path class="st14" d="M49.6,169.3c0,0-0.8-1,0.4-1.1c1.1-0.1,6.2,1.2,5,6.3c0,0-6.2-0.5-6.4-2.6C48.2,169.8,49.6,169.3,49.6,169.3
			z"/>
		<path class="st15" d="M29.7,216.6h19.9l2.6-19.4H27L29.7,216.6z"/>
		<path class="st16" d="M29.7,216.6h19.9l2.6-19.4H27L29.7,216.6z"/>
		<path class="st15" d="M54.8,195.6v1.8c0,1.2-1,2.2-2.2,2.2h-26c-1.2,0-2.2-1-2.2-2.2v-1.8H54.8z"/>
		<path class="st10" d="M220.8,11.9h-18.5c-3.2,0-5.7,2.6-5.7,5.7v16.1c0,3.2,2.6,5.7,5.7,5.7h5.4l-1.3,5.1l5.1-5.1h9.3
			c3.2,0,5.7-2.6,5.7-5.7V17.6C226.5,14.5,224,11.9,220.8,11.9z"/>
		<path class="st4" d="M220.8,11.9h-18.5c-3.2,0-5.7,2.6-5.7,5.7v16.1c0,3.2,2.6,5.7,5.7,5.7h5.4l-1.3,5.1l5.1-5.1h9.3
			c3.2,0,5.7-2.6,5.7-5.7V17.6C226.5,14.5,224,11.9,220.8,11.9z"/>
		<path class="st10" d="M218.1,32.1c3.6-3.6,3.6-9.4,0-13c-3.6-3.6-9.4-3.6-13,0c-3.6,3.6-3.6,9.4,0,13
			C208.6,35.7,214.5,35.7,218.1,32.1z"/>
		<path class="st8" d="M210.6,29.7c-0.2,0-0.5-0.1-0.6-0.3l-3.6-4.2c-0.3-0.4-0.3-0.9,0.1-1.2c0.4-0.3,0.9-0.3,1.2,0.1l3,3.5
			l4.9-5.8c0.3-0.4,0.8-0.4,1.2-0.1c0.4,0.3,0.4,0.8,0.1,1.2l-5.5,6.5C211.1,29.6,210.8,29.7,210.6,29.7z"/>
		<path class="st17" d="M217.6,111.4c0,0-11.2-1.4-28.2,3.2c0,0-2.7-30.4-2.4-34.6c0.3-4.2,26.3-3,26.3-3s0.7,12.2,2.3,19.5
			C217.2,103.9,218.5,110,217.6,111.4z"/>
		<path class="st18" d="M181.2,212l4.6,1.3l1.1-7.1l0.6-3.8l-4.6-1.3l-0.8,5.1L181.2,212z"/>
		<path class="st18" d="M207.5,212.4l4.7,0.6l0-6.8l0-4.2l-4.7-0.6l0,4.9L207.5,212.4z"/>
		<path class="st11" d="M207.6,201.3l0,4.9h4.7l0-4.2L207.6,201.3z"/>
		<path class="st11" d="M182.1,206.2h4.8l0.6-3.8l-4.6-1.3L182.1,206.2z"/>
		<path class="st18" d="M160.9,82.5l-4.5-1.3l0.8,5.2c0,0,4.1,1,4.5-1.2L160.9,82.5z"/>
		<path class="st18" d="M151.8,82.4l2.2,4.2l3.1-0.2l-0.8-5.2L151.8,82.4z"/>
		<path class="st18" d="M167.1,83.9l-7.5-1.7l-0.7,3.6l6.8,1.7L167.1,83.9z"/>
		<path class="st6" d="M189.7,80.6c0,0-0.2,0.2-0.4,0.5c-0.9,1.1-3.2,3.8-5.6,6.1c-1.9,1.9-3.9,3.5-5.2,3.8c-3.7,0.9-16.9-3-16.9-3
			l1.4-5.4c0,0,12.4,1.6,13.3,1.6c0.7,0,8.3-10.9,10.1-11.8L189.7,80.6z"/>
		<path class="st11" d="M189.3,81.1c-0.9,1.1-3.2,3.8-5.6,6.1c0.5-3.8,1.9-7.2,3.7-9.4c0.2-0.2,0.4-0.4,0.6-0.6L189.3,81.1z"/>
		<path class="st15" d="M181.2,211.3l5.2-0.1c0.2,0,0.4,0.1,0.4,0.3l1.1,4.2c0.1,0.4-0.2,0.9-0.7,0.9c-1.9,0-4.6,0-6.9,0
			c-2.8,0.1-4.5-0.1-7.7,0c-2,0.1-2.6-1.9-1.8-2.1c3.7-0.9,6.1-0.7,9.3-2.8C180.4,211.5,180.8,211.3,181.2,211.3z"/>
		<path class="st10" d="M180.8,211.9C180.8,211.9,180.8,211.9,180.8,211.9c-0.8,0.2-2.1,0.4-2.7,0c-0.2-0.1-0.2-0.3-0.2-0.5
			c0-0.1,0.1-0.2,0.2-0.3c0.6-0.3,2.5,0.6,2.7,0.7C180.8,211.8,180.9,211.8,180.8,211.9C180.9,211.9,180.8,211.9,180.8,211.9z
			 M178.2,211.2C178.2,211.2,178.2,211.2,178.2,211.2c-0.1,0-0.1,0.1-0.1,0.1c0,0.2,0,0.3,0.1,0.4c0.3,0.3,1.1,0.3,2.1,0.1
			C179.6,211.5,178.6,211.1,178.2,211.2z"/>
		<path class="st10" d="M180.8,211.9C180.8,212,180.7,212,180.8,211.9c-0.7-0.2-1.8-1.2-1.8-1.8c0-0.1,0.1-0.3,0.4-0.3
			c0.2,0,0.4,0,0.6,0.2c0.6,0.5,0.8,1.8,0.8,1.8C180.9,211.9,180.8,211.9,180.8,211.9C180.8,211.9,180.8,211.9,180.8,211.9z
			 M179.3,210.1c-0.1,0-0.1,0.1-0.1,0.1c0,0.3,0.8,1.1,1.4,1.4c-0.1-0.4-0.3-1.1-0.7-1.4c-0.1-0.1-0.3-0.2-0.5-0.1
			C179.4,210.1,179.4,210.1,179.3,210.1z"/>
		<path class="st15" d="M207.7,211.3l5.2-0.1c0.2,0,0.4,0.1,0.4,0.3l1.1,4.2c0.1,0.4-0.2,0.9-0.7,0.9c-1.9,0-4.6,0-7,0
			c-2.8,0.1-4.5-0.1-7.7,0c-2,0.1-2.6-1.9-1.8-2.1c3.7-0.9,6.1-0.7,9.3-2.8C206.9,211.5,207.3,211.3,207.7,211.3z"/>
		<path class="st10" d="M207.2,211.9C207.2,211.9,207.2,211.9,207.2,211.9c-0.8,0.2-2.1,0.4-2.7,0c-0.2-0.1-0.2-0.3-0.2-0.5
			c0-0.1,0.1-0.2,0.2-0.3c0.6-0.3,2.5,0.6,2.7,0.7C207.3,211.8,207.3,211.8,207.2,211.9C207.3,211.9,207.3,211.9,207.2,211.9z
			 M204.7,211.2C204.6,211.2,204.6,211.2,204.7,211.2c-0.1,0-0.1,0.1-0.1,0.1c0,0.2,0,0.3,0.1,0.4c0.3,0.3,1.1,0.3,2.1,0.1
			C206.1,211.5,205,211.1,204.7,211.2z"/>
		<path class="st10" d="M207.2,211.9C207.2,212,207.2,212,207.2,211.9c-0.7-0.2-1.8-1.2-1.8-1.8c0-0.1,0.1-0.3,0.4-0.3
			c0.2,0,0.4,0,0.6,0.2c0.6,0.5,0.8,1.8,0.8,1.8C207.3,211.9,207.3,211.9,207.2,211.9C207.2,211.9,207.2,211.9,207.2,211.9z
			 M205.8,210.1c-0.1,0-0.1,0.1-0.1,0.1c0,0.3,0.8,1.1,1.4,1.4c-0.1-0.4-0.3-1.1-0.7-1.4c-0.1-0.1-0.3-0.2-0.5-0.1
			C205.8,210.1,205.8,210.1,205.8,210.1z"/>
		<path class="st15" d="M217.2,108.6c2.5,10.8-1.8,96.1-1.8,96.1h-8.3l-3.5-71.1l-13.1,71.1l-8.9-0.6c5.8-55,10.9-87.9,10.9-87.9
			l0-4.2L217.2,108.6z"/>
		<path class="st19" d="M181.7,204.1l8.9,0.6l10.3-55.9l2.8-15.1l3.5,71.1h8.3c0,0,4.3-85.3,1.8-96.1l-24.6,3.4l0,4.2
			C192.6,116.2,187.5,149,181.7,204.1z"/>
		<path class="st15" d="M212.8,68.5c-0.3,5.3-0.1,10.6,0.4,15.5c0.3,3.6,0.8,7,1.3,10.1c1.2,7.2,2.5,12.6,2.7,14.5
			c-3.6,0.5-17.2,2.4-24.6,3.4c-9-25.1-5.6-39.8-5.6-39.8s2.6-1.1,5.7-1.9c0.4-0.1,0.8-0.2,1.2-0.3c2.7-0.6,7.3-1.2,10.5-1.4
			c0.7-0.1,1.3-0.1,2-0.1C209.7,68.3,212.8,68.5,212.8,68.5z"/>
		<path class="st18" d="M199.6,57.2c0.2,3.4,0.5,9.9,3.4,11.6c0,0-1.8,3.4-5.6,3.7c-2.9,0.3-2.7-2.6-2.7-2.6c1.7-1.3,1.3-3.4,0-5.8
			L199.6,57.2z"/>
		<path class="st11" d="M197.5,60l-2.9,4.1c0.3,0.6,0.6,1.2,0.8,1.7c1.4-0.5,2.9-2.6,2.7-4.1C198,61,197.7,60.3,197.5,60z"/>
		<path class="st15" d="M187,50.2c-0.6,1.8-0.3,5.5,2.2,4.3C191.7,53.3,188,47.1,187,50.2z"/>
		<path class="st18" d="M199.9,52.6c0.3,4.6,0.7,7.3-1.4,9.9c-3.1,3.9-9,2.5-10.6-2c-1.5-4-1.7-10.8,2.6-13.2
			C194.7,45.1,199.6,48,199.9,52.6z"/>
		<path class="st15" d="M196.7,50.1V45c0,0,5.5-0.4,5.2,2.4c3,1.5,1.6,6.2-2.5,8.5c-2.2-1.8-2-6.1-2-6.1
			C197.2,49.9,196.9,50,196.7,50.1z"/>
		<path class="st18" d="M202.1,56.2c-0.2,1.2-1,2.2-1.8,2.8c-1.3,0.8-2.4-0.2-2.4-1.6c0-1.3,0.6-3.3,2.1-3.6
			C201.3,53.5,202.4,54.8,202.1,56.2z"/>
		<path class="st15" d="M193.1,54.7c0,0.4-0.1,0.7-0.4,0.7c-0.2,0-0.5-0.3-0.5-0.6c0-0.4,0.1-0.7,0.4-0.7
			C192.8,54,193,54.3,193.1,54.7z"/>
		<path class="st15" d="M188.9,55.2c0,0.4-0.1,0.7-0.4,0.7c-0.2,0-0.5-0.3-0.5-0.6c0-0.4,0.1-0.7,0.4-0.7
			C188.6,54.5,188.8,54.8,188.9,55.2z"/>
		<path class="st20" d="M190.2,55.2c0,0-0.6,2.2-1.4,3.3c0.7,0.5,1.8,0.1,1.8,0.1L190.2,55.2z"/>
		<path class="st15" d="M192.8,59.8c-0.1,0-0.3,0.1-0.5,0.1c-0.1,0-0.1,0-0.1-0.1c0-0.1,0-0.1,0.1-0.1c1.6-0.2,2.3-1.4,2.3-1.4
			c0-0.1,0.1-0.1,0.1-0.1c0.1,0,0.1,0.1,0.1,0.1C194.7,58.4,194.2,59.4,192.8,59.8z"/>
		<path class="st15" d="M194.2,53.2c-0.1,0-0.2,0-0.2-0.1c-0.7-0.7-1.5-0.6-1.5-0.6c-0.1,0-0.2-0.1-0.3-0.2c0-0.1,0.1-0.2,0.2-0.3
			c0,0,1-0.2,1.9,0.7c0.1,0.1,0.1,0.2,0,0.3C194.3,53.2,194.3,53.2,194.2,53.2z"/>
		<path class="st15" d="M186.9,53.9c0,0-0.1,0-0.1,0c-0.1,0-0.2-0.2-0.1-0.3c0.4-1.1,1.4-1.4,1.4-1.4c0.1,0,0.2,0,0.3,0.2
			c0,0.1,0,0.2-0.2,0.3c0,0-0.8,0.2-1.1,1.1C187,53.8,187,53.9,186.9,53.9z"/>
		<path class="st15" d="M199.1,52c0,0-3.2-1.2-4.7-3c0,0-2.9,0.8-3.5,2c0,0-1-0.9-0.3-2c0,0-2.2,0.5-2.6,2c0,0-1.1-0.4-1-2
			c0,0-1,0.4-1.3,2c0,0-2.4-5,5.6-6.5c0,0-0.6-0.3-1.9-0.3c0,0,5.6-2.2,10-0.2C203.8,46,203,50,199.1,52z"/>
		<path class="st6" d="M219.1,112.9l-7.7,1c0,0-3.2-22.3-4.6-29.5V69.1l4-1.1l3.1,1.1c0.7,2.5,1.4,5.8,2,9.4c0.4,2.4,0.7,5,1,7.6
			c0.4,3.6,0.8,7.2,1.1,10.6c0.5,5.5,0.8,10.3,0.9,13.3C219.1,111.8,219.1,112.9,219.1,112.9z"/>
		<path class="st10" d="M206.8,84.5c0,0,0.6-10.9,4-16.4c0,0-0.1-1.6-0.8-1.9c-0.7-0.3-3.3,1.3-3.3,1.3s-1.6-1.1-2-0.6
			C204.5,67.4,203.6,70.8,206.8,84.5z"/>
		<path class="st21" d="M206.8,84.5c0,0,0.6-10.9,4-16.4c0,0-0.1-1.6-0.8-1.9c-0.7-0.3-3.3,1.3-3.3,1.3s-1.6-1.1-2-0.6
			C204.5,67.4,203.6,70.8,206.8,84.5z"/>
		<path class="st6" d="M189.2,115.9l0.9,0.6c0,0-1.3-7.2-0.8-25.4c0-0.9,0.1-1.7,0.1-2.5c0.7-15.4,3-18.2,3.2-18.3l-2.2,0.8l-4,1.4
			C185.2,85.6,189.2,115.9,189.2,115.9z"/>
		<path class="st10" d="M189.6,86c0,0-2.2-10.5-1.6-14.2c0.7-3.6,3-2,3-2s2.2-1.8,2.8,0.2C193.9,70,190.9,72.1,189.6,86z"/>
		<path class="st21" d="M189.6,86c0,0-2.2-10.5-1.6-14.2c0.7-3.6,3-2,3-2s2.2-1.8,2.8,0.2C193.9,70,190.9,72.1,189.6,86z"/>
		<path class="st11" d="M217,86.1c-3.3-1.9-3.7-6.7-3.7-6.7c0.2-0.1,1.4-0.5,2.7-0.9C216.3,80.9,216.7,83.5,217,86.1z"/>
		<path class="st11" d="M200.8,148.8l2.8-15.1l-0.5-8C203.1,125.7,199.2,139.5,200.8,148.8z"/>
		<path class="st11" d="M219,110c-2.1-0.1-3.9-0.3-3.9-0.3l-0.4-8.4c0,0,0.7-0.6,2.2-0.4c0,0,0.7-1.7,1.2-4.2
			C218.5,102.2,218.8,107,219,110z"/>
		<path class="st18" d="M219.7,96.7l-4,6.5l3.2,1.8l3.8-5.8L219.7,96.7z"/>
		<path class="st6" d="M213.8,69c2.7,0.3,14.3,16.2,14.8,21s-6.8,13-6.8,13l-4.9-2.9c0,0,5-7.6,5.2-9.6c0.3-2-9.1-10.4-9.1-10.4
			s-1-2.4-1.1-6C211.8,70.6,213.8,69,213.8,69z"/>
		<path class="st6" d="M214.7,101.2c0,0,4.2,0.9,5.8,3.5c0,0-1.7,5.4-3,6c-1.2,0.6-4.3,0.6-4.3,0.6S213,105.3,214.7,101.2z"/>
	</g>
</g>
<g>
	<path class="st22" d="M79.2,80.9h-2.4v2.5H76v-5.7h3.5v0.6h-2.8v1.9h2.4V80.9z"/>
	<path class="st22" d="M80.5,78.1c0-0.1,0-0.2,0.1-0.3s0.2-0.1,0.3-0.1s0.2,0,0.3,0.1s0.1,0.2,0.1,0.3s0,0.2-0.1,0.3
		s-0.2,0.1-0.3,0.1s-0.2,0-0.3-0.1S80.5,78.2,80.5,78.1z M81.3,83.5h-0.7v-4.2h0.7V83.5z"/>
	<path class="st22" d="M84.6,79.9c-0.1,0-0.2,0-0.4,0c-0.5,0-0.8,0.2-1,0.6v3h-0.7v-4.2h0.7l0,0.5c0.2-0.4,0.6-0.6,1-0.6
		c0.1,0,0.2,0,0.3,0.1V79.9z"/>
	<path class="st22" d="M87.9,82.3c0-0.2-0.1-0.3-0.2-0.5s-0.4-0.2-0.8-0.3s-0.7-0.2-0.9-0.3s-0.4-0.2-0.5-0.4s-0.2-0.3-0.2-0.5
		c0-0.3,0.1-0.6,0.4-0.9s0.7-0.4,1.1-0.4c0.5,0,0.9,0.1,1.2,0.4s0.4,0.6,0.4,0.9h-0.7c0-0.2-0.1-0.4-0.3-0.5s-0.4-0.2-0.6-0.2
		c-0.3,0-0.5,0.1-0.6,0.2s-0.2,0.3-0.2,0.4c0,0.2,0.1,0.3,0.2,0.4s0.4,0.2,0.7,0.3s0.7,0.2,0.9,0.3s0.4,0.2,0.5,0.4s0.2,0.3,0.2,0.6
		c0,0.4-0.2,0.7-0.5,0.9s-0.7,0.3-1.2,0.3c-0.3,0-0.6-0.1-0.9-0.2s-0.5-0.3-0.6-0.5s-0.2-0.4-0.2-0.7H86c0,0.2,0.1,0.4,0.3,0.6
		s0.4,0.2,0.7,0.2c0.3,0,0.5-0.1,0.7-0.2S87.9,82.5,87.9,82.3z"/>
	<path class="st22" d="M90.7,78.2v1h0.8v0.6h-0.8v2.6c0,0.2,0,0.3,0.1,0.4c0.1,0.1,0.2,0.1,0.4,0.1c0.1,0,0.2,0,0.3,0v0.6
		c-0.2,0.1-0.4,0.1-0.6,0.1c-0.3,0-0.6-0.1-0.7-0.3S90,82.8,90,82.4v-2.6h-0.8v-0.6H90v-1H90.7z"/>
	<path class="st22" d="M95.3,79.2l0,0.5c0.3-0.4,0.7-0.6,1.3-0.6c0.9,0,1.3,0.5,1.4,1.5v2.8h-0.7v-2.8c0-0.3-0.1-0.5-0.2-0.7
		s-0.3-0.2-0.6-0.2c-0.2,0-0.4,0.1-0.6,0.2s-0.3,0.3-0.4,0.5v3h-0.7v-4.2H95.3z"/>
	<path class="st22" d="M101.8,83.5c0-0.1-0.1-0.2-0.1-0.4c-0.3,0.3-0.7,0.5-1.2,0.5c-0.4,0-0.8-0.1-1-0.4s-0.4-0.5-0.4-0.9
		c0-0.4,0.2-0.8,0.5-1s0.8-0.4,1.4-0.4h0.7v-0.3c0-0.3-0.1-0.5-0.2-0.6s-0.4-0.2-0.7-0.2c-0.3,0-0.5,0.1-0.6,0.2s-0.3,0.3-0.3,0.5
		h-0.7c0-0.2,0.1-0.4,0.2-0.6s0.4-0.4,0.6-0.5s0.5-0.2,0.8-0.2c0.5,0,0.9,0.1,1.1,0.4s0.4,0.6,0.4,1v1.9c0,0.4,0,0.7,0.1,0.9v0.1
		H101.8z M100.6,82.9c0.2,0,0.4-0.1,0.6-0.2s0.4-0.3,0.4-0.5v-0.9h-0.6c-0.9,0-1.3,0.3-1.3,0.8c0,0.2,0.1,0.4,0.2,0.5
		S100.4,82.9,100.6,82.9z"/>
	<path class="st22" d="M104.4,79.2l0,0.5c0.3-0.4,0.7-0.5,1.3-0.5c0.6,0,1,0.2,1.2,0.7c0.1-0.2,0.3-0.4,0.5-0.5s0.5-0.2,0.8-0.2
		c0.9,0,1.4,0.5,1.4,1.5v2.8h-0.7v-2.8c0-0.3-0.1-0.5-0.2-0.7s-0.4-0.2-0.7-0.2c-0.3,0-0.5,0.1-0.7,0.2s-0.3,0.4-0.3,0.6v2.8h-0.7
		v-2.8c0-0.6-0.3-0.9-0.9-0.9c-0.5,0-0.8,0.2-1,0.6v3.1h-0.7v-4.2H104.4z"/>
	<path class="st22" d="M112.7,83.5c-0.6,0-1-0.2-1.4-0.6s-0.5-0.9-0.5-1.5v-0.1c0-0.4,0.1-0.8,0.2-1.1s0.4-0.6,0.7-0.8
		s0.6-0.3,0.9-0.3c0.5,0,1,0.2,1.3,0.5s0.5,0.9,0.5,1.6v0.3h-2.9c0,0.4,0.1,0.8,0.4,1s0.5,0.4,0.9,0.4c0.3,0,0.5-0.1,0.6-0.2
		s0.3-0.2,0.5-0.4l0.4,0.3C113.9,83.3,113.4,83.5,112.7,83.5z M112.6,79.7c-0.3,0-0.5,0.1-0.7,0.3s-0.3,0.5-0.4,0.9h2.1v-0.1
		c0-0.4-0.1-0.7-0.3-0.9S112.9,79.7,112.6,79.7z"/>
</g>
<g>
	<path class="st22" d="M76.3,104H79v0.6h-3.4v-5.7h0.8V104z"/>
	<path class="st22" d="M82.5,104.6c0-0.1-0.1-0.2-0.1-0.4c-0.3,0.3-0.7,0.5-1.2,0.5c-0.4,0-0.8-0.1-1-0.4s-0.4-0.5-0.4-0.9
		c0-0.4,0.2-0.8,0.5-1s0.8-0.4,1.4-0.4h0.7v-0.3c0-0.3-0.1-0.5-0.2-0.6s-0.4-0.2-0.7-0.2c-0.3,0-0.5,0.1-0.6,0.2s-0.3,0.3-0.3,0.5
		h-0.7c0-0.2,0.1-0.4,0.2-0.6s0.4-0.4,0.6-0.5s0.5-0.2,0.8-0.2c0.5,0,0.9,0.1,1.1,0.4s0.4,0.6,0.4,1v1.9c0,0.4,0,0.7,0.1,0.9v0.1
		H82.5z M81.3,104.1c0.2,0,0.4-0.1,0.6-0.2s0.4-0.3,0.4-0.5v-0.9h-0.6c-0.9,0-1.3,0.3-1.3,0.8c0,0.2,0.1,0.4,0.2,0.5
		S81.1,104.1,81.3,104.1z"/>
	<path class="st22" d="M86.9,103.5c0-0.2-0.1-0.3-0.2-0.5s-0.4-0.2-0.8-0.3s-0.7-0.2-0.9-0.3s-0.4-0.2-0.5-0.4s-0.2-0.3-0.2-0.5
		c0-0.3,0.1-0.6,0.4-0.9s0.7-0.4,1.1-0.4c0.5,0,0.9,0.1,1.2,0.4s0.4,0.6,0.4,0.9h-0.7c0-0.2-0.1-0.4-0.3-0.5s-0.4-0.2-0.6-0.2
		c-0.3,0-0.5,0.1-0.6,0.2s-0.2,0.3-0.2,0.4c0,0.2,0.1,0.3,0.2,0.4s0.4,0.2,0.7,0.3s0.7,0.2,0.9,0.3s0.4,0.2,0.5,0.4s0.2,0.3,0.2,0.6
		c0,0.4-0.2,0.7-0.5,0.9s-0.7,0.3-1.2,0.3c-0.3,0-0.6-0.1-0.9-0.2s-0.5-0.3-0.6-0.5s-0.2-0.4-0.2-0.7h0.7c0,0.2,0.1,0.4,0.3,0.6
		s0.4,0.2,0.7,0.2c0.3,0,0.5-0.1,0.7-0.2S86.9,103.7,86.9,103.5z"/>
	<path class="st22" d="M89.7,99.4v1h0.8v0.6h-0.8v2.6c0,0.2,0,0.3,0.1,0.4c0.1,0.1,0.2,0.1,0.4,0.1c0.1,0,0.2,0,0.3,0v0.6
		c-0.2,0.1-0.4,0.1-0.6,0.1c-0.3,0-0.6-0.1-0.7-0.3s-0.2-0.5-0.2-0.8v-2.6h-0.8v-0.6h0.8v-1H89.7z"/>
	<path class="st22" d="M94.3,100.4l0,0.5c0.3-0.4,0.7-0.6,1.3-0.6c0.9,0,1.3,0.5,1.4,1.5v2.8h-0.7v-2.8c0-0.3-0.1-0.5-0.2-0.7
		s-0.3-0.2-0.6-0.2c-0.2,0-0.4,0.1-0.6,0.2s-0.3,0.3-0.4,0.5v3h-0.7v-4.2H94.3z"/>
	<path class="st22" d="M100.8,104.6c0-0.1-0.1-0.2-0.1-0.4c-0.3,0.3-0.7,0.5-1.2,0.5c-0.4,0-0.8-0.1-1-0.4s-0.4-0.5-0.4-0.9
		c0-0.4,0.2-0.8,0.5-1s0.8-0.4,1.4-0.4h0.7v-0.3c0-0.3-0.1-0.5-0.2-0.6s-0.4-0.2-0.7-0.2c-0.3,0-0.5,0.1-0.6,0.2s-0.3,0.3-0.3,0.5
		h-0.7c0-0.2,0.1-0.4,0.2-0.6s0.4-0.4,0.6-0.5s0.5-0.2,0.8-0.2c0.5,0,0.9,0.1,1.1,0.4s0.4,0.6,0.4,1v1.9c0,0.4,0,0.7,0.1,0.9v0.1
		H100.8z M99.6,104.1c0.2,0,0.4-0.1,0.6-0.2s0.4-0.3,0.4-0.5v-0.9h-0.6c-0.9,0-1.3,0.3-1.3,0.8c0,0.2,0.1,0.4,0.2,0.5
		S99.3,104.1,99.6,104.1z"/>
	<path class="st22" d="M103.4,100.4l0,0.5c0.3-0.4,0.7-0.5,1.3-0.5c0.6,0,1,0.2,1.2,0.7c0.1-0.2,0.3-0.4,0.5-0.5s0.5-0.2,0.8-0.2
		c0.9,0,1.4,0.5,1.4,1.5v2.8h-0.7v-2.8c0-0.3-0.1-0.5-0.2-0.7s-0.4-0.2-0.7-0.2c-0.3,0-0.5,0.1-0.7,0.2s-0.3,0.4-0.3,0.6v2.8h-0.7
		v-2.8c0-0.6-0.3-0.9-0.9-0.9c-0.5,0-0.8,0.2-1,0.6v3.1h-0.7v-4.2H103.4z"/>
	<path class="st22" d="M111.6,104.7c-0.6,0-1-0.2-1.4-0.6s-0.5-0.9-0.5-1.5v-0.1c0-0.4,0.1-0.8,0.2-1.1s0.4-0.6,0.7-0.8
		s0.6-0.3,0.9-0.3c0.5,0,1,0.2,1.3,0.5s0.5,0.9,0.5,1.6v0.3h-2.9c0,0.4,0.1,0.8,0.4,1s0.5,0.4,0.9,0.4c0.3,0,0.5-0.1,0.6-0.2
		s0.3-0.2,0.5-0.4l0.4,0.3C112.8,104.4,112.3,104.7,111.6,104.7z M111.5,100.9c-0.3,0-0.5,0.1-0.7,0.3s-0.3,0.5-0.4,0.9h2.1v-0.1
		c0-0.4-0.1-0.7-0.3-0.9S111.8,100.9,111.5,100.9z"/>
</g>
<g>
	<path class="st22" d="M78.8,120.4h-2.5v2h2.9v0.6h-3.6v-5.7h3.6v0.6h-2.8v1.8h2.5V120.4z"/>
	<path class="st22" d="M81.7,120.9h-1.9v-0.6h1.9V120.9z"/>
	<path class="st22" d="M83.7,117.3l1.9,4.6l1.9-4.6h1v5.7h-0.8v-2.2l0.1-2.4l-1.9,4.6h-0.6l-1.9-4.6l0.1,2.4v2.2h-0.8v-5.7H83.7z"/>
	<path class="st22" d="M92.3,123c0-0.1-0.1-0.2-0.1-0.4c-0.3,0.3-0.7,0.5-1.2,0.5c-0.4,0-0.8-0.1-1-0.4c-0.3-0.2-0.4-0.5-0.4-0.9
		c0-0.4,0.2-0.8,0.5-1c0.3-0.2,0.8-0.4,1.4-0.4h0.7v-0.3c0-0.3-0.1-0.5-0.2-0.6c-0.2-0.1-0.4-0.2-0.7-0.2c-0.3,0-0.5,0.1-0.6,0.2
		c-0.2,0.1-0.3,0.3-0.3,0.5h-0.7c0-0.2,0.1-0.4,0.2-0.6c0.1-0.2,0.4-0.4,0.6-0.5c0.3-0.1,0.5-0.2,0.8-0.2c0.5,0,0.9,0.1,1.1,0.4
		c0.3,0.2,0.4,0.6,0.4,1v1.9c0,0.4,0,0.7,0.1,0.9v0.1H92.3z M91.1,122.5c0.2,0,0.4-0.1,0.6-0.2s0.4-0.3,0.4-0.5V121h-0.6
		c-0.9,0-1.3,0.3-1.3,0.8c0,0.2,0.1,0.4,0.2,0.5C90.7,122.4,90.9,122.5,91.1,122.5z"/>
	<path class="st22" d="M94.2,117.7c0-0.1,0-0.2,0.1-0.3c0.1-0.1,0.2-0.1,0.3-0.1s0.2,0,0.3,0.1c0.1,0.1,0.1,0.2,0.1,0.3
		s0,0.2-0.1,0.3s-0.2,0.1-0.3,0.1s-0.2,0-0.3-0.1S94.2,117.8,94.2,117.7z M95,123h-0.7v-4.2H95V123z"/>
	<path class="st22" d="M97.1,123h-0.7v-6h0.7V123z"/>
</g>
<g>
	<path class="st22" d="M75.8,140.8v2.2H75v-5.7h2.1c0.6,0,1.1,0.2,1.5,0.5c0.4,0.3,0.5,0.7,0.5,1.3c0,0.6-0.2,1-0.5,1.3
		c-0.3,0.3-0.8,0.4-1.5,0.4H75.8z M75.8,140.2h1.3c0.4,0,0.7-0.1,0.9-0.3c0.2-0.2,0.3-0.5,0.3-0.8c0-0.3-0.1-0.6-0.3-0.8
		c-0.2-0.2-0.5-0.3-0.9-0.3h-1.4V140.2z"/>
	<path class="st22" d="M82.7,143.1c0-0.1-0.1-0.2-0.1-0.4c-0.3,0.3-0.7,0.5-1.2,0.5c-0.4,0-0.8-0.1-1-0.4c-0.3-0.2-0.4-0.5-0.4-0.9
		c0-0.4,0.2-0.8,0.5-1c0.3-0.2,0.8-0.4,1.4-0.4h0.7v-0.3c0-0.3-0.1-0.5-0.2-0.6c-0.2-0.1-0.4-0.2-0.7-0.2c-0.3,0-0.5,0.1-0.6,0.2
		c-0.2,0.1-0.3,0.3-0.3,0.5h-0.7c0-0.2,0.1-0.4,0.2-0.6c0.1-0.2,0.4-0.4,0.6-0.5c0.3-0.1,0.5-0.2,0.8-0.2c0.5,0,0.9,0.1,1.1,0.4
		c0.3,0.2,0.4,0.6,0.4,1v1.9c0,0.4,0,0.7,0.1,0.9v0.1H82.7z M81.5,142.5c0.2,0,0.4-0.1,0.6-0.2s0.4-0.3,0.4-0.5V141H82
		c-0.9,0-1.3,0.3-1.3,0.8c0,0.2,0.1,0.4,0.2,0.5C81.1,142.5,81.3,142.5,81.5,142.5z"/>
	<path class="st22" d="M87.1,141.9c0-0.2-0.1-0.3-0.2-0.5c-0.1-0.1-0.4-0.2-0.8-0.3s-0.7-0.2-0.9-0.3s-0.4-0.2-0.5-0.4
		c-0.1-0.2-0.2-0.3-0.2-0.5c0-0.3,0.1-0.6,0.4-0.9c0.3-0.2,0.7-0.4,1.1-0.4c0.5,0,0.9,0.1,1.2,0.4c0.3,0.2,0.4,0.6,0.4,0.9H87
		c0-0.2-0.1-0.4-0.3-0.5c-0.2-0.1-0.4-0.2-0.6-0.2c-0.3,0-0.5,0.1-0.6,0.2c-0.1,0.1-0.2,0.3-0.2,0.4c0,0.2,0.1,0.3,0.2,0.4
		c0.1,0.1,0.4,0.2,0.7,0.3c0.4,0.1,0.7,0.2,0.9,0.3c0.2,0.1,0.4,0.2,0.5,0.4c0.1,0.2,0.2,0.3,0.2,0.6c0,0.4-0.2,0.7-0.5,0.9
		c-0.3,0.2-0.7,0.3-1.2,0.3c-0.3,0-0.6-0.1-0.9-0.2c-0.3-0.1-0.5-0.3-0.6-0.5s-0.2-0.4-0.2-0.7h0.7c0,0.2,0.1,0.4,0.3,0.6
		c0.2,0.1,0.4,0.2,0.7,0.2c0.3,0,0.5-0.1,0.7-0.2C87,142.3,87.1,142.1,87.1,141.9z"/>
	<path class="st22" d="M91.4,141.9c0-0.2-0.1-0.3-0.2-0.5c-0.1-0.1-0.4-0.2-0.8-0.3s-0.7-0.2-0.9-0.3s-0.4-0.2-0.5-0.4
		c-0.1-0.2-0.2-0.3-0.2-0.5c0-0.3,0.1-0.6,0.4-0.9c0.3-0.2,0.7-0.4,1.1-0.4c0.5,0,0.9,0.1,1.2,0.4c0.3,0.2,0.4,0.6,0.4,0.9h-0.7
		c0-0.2-0.1-0.4-0.3-0.5c-0.2-0.1-0.4-0.2-0.6-0.2c-0.3,0-0.5,0.1-0.6,0.2c-0.1,0.1-0.2,0.3-0.2,0.4c0,0.2,0.1,0.3,0.2,0.4
		c0.1,0.1,0.4,0.2,0.7,0.3c0.4,0.1,0.7,0.2,0.9,0.3c0.2,0.1,0.4,0.2,0.5,0.4c0.1,0.2,0.2,0.3,0.2,0.6c0,0.4-0.2,0.7-0.5,0.9
		c-0.3,0.2-0.7,0.3-1.2,0.3c-0.3,0-0.6-0.1-0.9-0.2c-0.3-0.1-0.5-0.3-0.6-0.5s-0.2-0.4-0.2-0.7h0.7c0,0.2,0.1,0.4,0.3,0.6
		c0.2,0.1,0.4,0.2,0.7,0.2c0.3,0,0.5-0.1,0.7-0.2C91.3,142.3,91.4,142.1,91.4,141.9z"/>
	<path class="st22" d="M96.9,142.1l0.8-3.2h0.7l-1.2,4.2h-0.6l-1-3.2l-1,3.2H94l-1.2-4.2h0.7l0.8,3.2l1-3.2h0.6L96.9,142.1z"/>
	<path class="st22" d="M99.2,140.9c0-0.4,0.1-0.8,0.2-1.1c0.2-0.3,0.4-0.6,0.7-0.8s0.6-0.3,1-0.3c0.6,0,1,0.2,1.4,0.6
		s0.5,0.9,0.5,1.6v0.1c0,0.4-0.1,0.8-0.2,1.1c-0.2,0.3-0.4,0.6-0.7,0.8c-0.3,0.2-0.6,0.3-1,0.3c-0.6,0-1-0.2-1.4-0.6
		S99.2,141.6,99.2,140.9L99.2,140.9z M99.9,141c0,0.5,0.1,0.8,0.3,1.1c0.2,0.3,0.5,0.4,0.9,0.4c0.4,0,0.7-0.1,0.9-0.4
		c0.2-0.3,0.3-0.7,0.3-1.2c0-0.5-0.1-0.8-0.3-1.1c-0.2-0.3-0.5-0.4-0.9-0.4c-0.4,0-0.6,0.1-0.9,0.4C100,140.1,99.9,140.5,99.9,141z"
		/>
	<path class="st22" d="M106.1,139.5c-0.1,0-0.2,0-0.4,0c-0.5,0-0.8,0.2-1,0.6v3h-0.7v-4.2h0.7l0,0.5c0.2-0.4,0.6-0.6,1-0.6
		c0.1,0,0.2,0,0.3,0.1V139.5z"/>
	<path class="st22" d="M106.7,140.9c0-0.6,0.2-1.2,0.5-1.6s0.7-0.6,1.2-0.6c0.5,0,0.9,0.2,1.2,0.5v-2.2h0.7v6h-0.7l0-0.5
		c-0.3,0.4-0.7,0.5-1.2,0.5c-0.5,0-0.9-0.2-1.2-0.6C106.8,142.1,106.7,141.6,106.7,140.9L106.7,140.9z M107.4,141
		c0,0.5,0.1,0.9,0.3,1.1c0.2,0.3,0.5,0.4,0.8,0.4c0.5,0,0.8-0.2,1-0.6V140c-0.2-0.4-0.5-0.6-1-0.6c-0.4,0-0.6,0.1-0.8,0.4
		S107.4,140.5,107.4,141z"/>
</g>
</svg>
