<svg width="41" height="41" viewBox="0 0 41 41" fill="none" xmlns="http://www.w3.org/2000/svg">
<path d="M29.2814 28.6569L36.4147 35.7903L34.048 38.1403L26.9147 31.007C24.2814 33.1403 20.9647 34.2903 17.5647 34.2903C9.28136 34.2903 2.5647 27.5736 2.5647 19.2903C2.5647 11.0069 9.28136 4.29028 17.5647 4.29028C25.848 4.29028 32.5647 11.0069 32.5647 19.2903C32.5647 22.6903 31.4147 25.9903 29.2814 28.6569ZM25.948 27.4236C28.0647 25.2403 29.248 22.3403 29.248 19.2903C29.248 12.8403 24.0314 7.62362 17.5814 7.62362C11.1314 7.62362 5.9147 12.8403 5.9147 19.2903C5.9147 25.7403 11.1314 30.9569 17.5814 30.9569C20.6147 30.9569 23.5314 29.7736 25.7147 27.6569C25.698 27.6569 25.948 27.4236 25.948 27.4236Z" fill="#275A9E"/>
<path d="M17.0814 17.9736L21.698 13.3569L22.5314 14.1903L21.698 15.0236L23.148 16.4736L22.3147 17.3069L20.8647 15.8569L20.0314 16.6903L21.2814 17.9403L20.448 18.7736L19.198 17.5236L17.9147 18.8069C18.8147 20.1736 18.4314 21.9903 17.0647 22.8903C15.898 23.6569 14.348 23.5069 13.3647 22.5236C12.2147 21.3736 12.2147 19.5069 13.3647 18.3569C14.348 17.3569 15.898 17.2069 17.0814 17.9736ZM16.698 21.6903C17.4147 21.0236 17.4314 19.9069 16.7647 19.1903C16.098 18.4736 14.9814 18.4569 14.2647 19.1236C14.248 19.1403 14.2147 19.1736 14.198 19.1903C13.5147 19.8903 13.5314 21.0069 14.248 21.6903C14.9314 22.3569 16.0147 22.3569 16.698 21.6903Z" fill="#275A9E"/>
</svg>
