<svg width="49" height="49" viewBox="0 0 49 49" fill="none" xmlns="http://www.w3.org/2000/svg">
<path d="M42.0967 27.3053V40.8213H44.0967V44.8213H4.09668V40.8213H6.09668V27.3053C4.86542 26.4835 3.85611 25.3704 3.15832 24.0648C2.46053 22.7593 2.09586 21.3016 2.09668 19.8213C2.09668 18.1673 2.54468 16.5733 3.36268 15.2153L8.78668 5.82129C8.96221 5.51726 9.21468 5.26479 9.51871 5.08925C9.82274 4.91371 10.1676 4.8213 10.5187 4.82129H37.6767C38.0277 4.8213 38.3726 4.91371 38.6767 5.08925C38.9807 5.26479 39.2331 5.51726 39.4087 5.82129L44.8127 15.1853C46.0058 17.167 46.3893 19.5324 45.8835 21.7896C45.3777 24.0468 44.0214 26.0222 42.0967 27.3053ZM38.0967 28.7653C36.7215 28.9196 35.3294 28.7544 34.0285 28.2826C32.7277 27.8108 31.5532 27.0452 30.5967 26.0453C29.7571 26.9234 28.7483 27.6223 27.6311 28.0998C26.5139 28.5773 25.3116 28.8234 24.0967 28.8233C22.882 28.8239 21.6799 28.5784 20.5627 28.1016C19.4456 27.6249 18.4366 26.9267 17.5967 26.0493C16.6399 27.0488 15.4654 27.8141 14.1646 28.2855C12.8637 28.7569 11.4717 28.9218 10.0967 28.7673V40.8213H38.0967V28.7673V28.7653ZM11.6747 8.82129L6.80868 17.2473C6.33583 18.4156 6.32164 19.7193 6.76894 20.8976C7.21624 22.076 8.09204 23.0419 9.22104 23.6021C10.35 24.1623 11.649 24.2754 12.8578 23.9189C14.0667 23.5624 15.0964 22.7625 15.7407 21.6793C16.4107 20.0053 18.7807 20.0053 19.4527 21.6793C19.8233 22.6081 20.4639 23.4045 21.2917 23.9655C22.1196 24.5265 23.0966 24.8264 24.0967 24.8264C25.0967 24.8264 26.0738 24.5265 26.9016 23.9655C27.7295 23.4045 28.3701 22.6081 28.7407 21.6793C29.4107 20.0053 31.7807 20.0053 32.4527 21.6793C32.7122 22.3182 33.1011 22.8965 33.595 23.3778C34.0888 23.8592 34.6768 24.2332 35.3221 24.4763C35.9675 24.7195 36.6561 24.8265 37.3448 24.7907C38.0335 24.7548 38.7073 24.5769 39.3239 24.2681C39.9405 23.9594 40.4866 23.5264 40.9278 22.9964C41.369 22.4664 41.6958 21.8508 41.8876 21.1884C42.0795 20.5261 42.1322 19.8311 42.0426 19.1474C41.9529 18.4636 41.7228 17.8058 41.3667 17.2153L36.5167 8.82129H11.6767H11.6747Z" fill="#00B6AD"/>
</svg>
