<svg width="41" height="41" viewBox="0 0 41 41" fill="none" xmlns="http://www.w3.org/2000/svg">
<path d="M21.9912 28.4967L14.9929 24.68C14.0792 25.6568 12.8928 26.3362 11.588 26.6298C10.2831 26.9235 8.92011 26.8179 7.67606 26.3267C6.43202 25.8356 5.36446 24.9816 4.61214 23.8758C3.85982 22.7699 3.45752 21.4633 3.45752 20.1258C3.45752 18.7884 3.85982 17.4818 4.61214 16.3759C5.36446 15.2701 6.43202 14.4161 7.67606 13.9249C8.92011 13.4338 10.2831 13.3282 11.588 13.6219C12.8928 13.9155 14.0792 14.5949 14.9929 15.5717L21.9929 11.755C21.5955 10.1818 21.7855 8.51766 22.5273 7.07452C23.269 5.63138 24.5117 4.50832 26.0223 3.91585C27.5329 3.32338 29.2077 3.30219 30.7328 3.85624C32.2579 4.41029 33.5286 5.50154 34.3067 6.92545C35.0848 8.34936 35.3168 10.0082 34.9594 11.5909C34.6019 13.1737 33.6794 14.5717 32.3649 15.523C31.0504 16.4743 29.4341 16.9135 27.8189 16.7583C26.2037 16.6031 24.7005 15.8642 23.5912 14.68L16.5912 18.4967C16.8599 19.5656 16.8599 20.6844 16.5912 21.7533L23.5895 25.57C24.6989 24.3858 26.202 23.6469 27.8172 23.4917C29.4324 23.3365 31.0487 23.7757 32.3633 24.727C33.6778 25.6783 34.6002 27.0763 34.9577 28.6591C35.3152 30.2419 35.0831 31.9007 34.305 33.3246C33.527 34.7485 32.2563 35.8397 30.7312 36.3938C29.2061 36.9478 27.5312 36.9266 26.0206 36.3342C24.51 35.7417 23.2674 34.6187 22.5256 33.1755C21.7838 31.7324 21.5938 30.0682 21.9912 28.495V28.4967ZM10.1245 23.4583C11.0086 23.4583 11.8564 23.1072 12.4816 22.482C13.1067 21.8569 13.4579 21.0091 13.4579 20.125C13.4579 19.241 13.1067 18.3931 12.4816 17.768C11.8564 17.1429 11.0086 16.7917 10.1245 16.7917C9.24047 16.7917 8.39263 17.1429 7.76751 17.768C7.14239 18.3931 6.7912 19.241 6.7912 20.125C6.7912 21.0091 7.14239 21.8569 7.76751 22.482C8.39263 23.1072 9.24047 23.4583 10.1245 23.4583ZM28.4579 13.4583C29.3419 13.4583 30.1898 13.1072 30.8149 12.482C31.44 11.8569 31.7912 11.0091 31.7912 10.125C31.7912 9.24096 31.44 8.39311 30.8149 7.76799C30.1898 7.14287 29.3419 6.79168 28.4579 6.79168C27.5738 6.79168 26.726 7.14287 26.1008 7.76799C25.4757 8.39311 25.1245 9.24096 25.1245 10.125C25.1245 11.0091 25.4757 11.8569 26.1008 12.482C26.726 13.1072 27.5738 13.4583 28.4579 13.4583ZM28.4579 33.4583C29.3419 33.4583 30.1898 33.1072 30.8149 32.482C31.44 31.8569 31.7912 31.0091 31.7912 30.125C31.7912 29.241 31.44 28.3931 30.8149 27.768C30.1898 27.1429 29.3419 26.7917 28.4579 26.7917C27.5738 26.7917 26.726 27.1429 26.1008 27.768C25.4757 28.3931 25.1245 29.241 25.1245 30.125C25.1245 31.0091 25.4757 31.8569 26.1008 32.482C26.726 33.1072 27.5738 33.4583 28.4579 33.4583Z" fill="#275A9E"/>
</svg>
