<svg width="281" height="179" viewBox="0 0 281 179" fill="none" xmlns="http://www.w3.org/2000/svg">
<g clip-path="url(#clip0_101_14814)">
<path d="M218.226 165.954C218.226 165.954 237.666 101.236 271.183 67.1211C273.436 64.8277 277.205 65.9532 277.818 69.1129C281.928 90.2405 288.238 154.005 218.226 165.954Z" fill="#30C6BB"/>
<path d="M224.823 162.06C224.658 162.208 224.846 162.465 225.028 162.341C231.76 157.755 258.134 134.869 270.527 87.1722C270.567 87.0195 270.351 86.9481 270.298 87.0984C266.436 98.1022 250.952 138.617 224.823 162.06Z" fill="#DCE5FE"/>
<path d="M0.265199 87.6767C-0.0815666 87.4414 0.127494 86.8993 0.54186 86.9619C7.16421 87.9709 31.1699 93.1198 48.3492 116.234C64.0663 137.383 71.63 154.795 74.1813 161.386C74.6858 162.689 73.6017 164.055 72.2184 163.856C64.0187 162.679 41.2324 158.182 32.244 143.764C21.503 126.536 16.8323 98.9284 0.265199 87.6767Z" fill="#30C6BB"/>
<path d="M19.3022 100.079C19.3022 100.079 40.6064 109.192 72.44 161.515C72.44 161.515 37.662 110.626 19.3022 100.079Z" fill="#DCE5FE"/>
<path d="M83.4002 132.24C83.4002 132.24 70.864 53.5297 34.8818 8.63547C32.4632 5.61723 27.4983 6.38587 26.1363 9.99874C17.0302 34.1647 -2.76544 107.991 83.4002 132.24Z" fill="#30C6BB"/>
<path d="M75.7952 126.709C75.9767 126.906 75.6913 127.182 75.4835 127.009C67.8371 120.648 38.7889 89.9614 31.9926 32.2343C31.9713 32.049 32.2567 31.9977 32.2955 32.1805C35.1272 45.6467 47.1589 95.4057 75.7952 126.709Z" fill="#DCE5FE"/>
<path d="M246.406 159.91C246.406 161.943 244.741 163.608 242.706 163.608H42.5645C40.5289 163.608 38.864 161.945 38.864 159.91L37.199 44.8956C37.199 42.8626 39.595 38.8917 43.9866 39.1896L239.586 34.1283C242.14 34.062 244.61 35.0447 246.419 36.8486C248.228 38.6513 249.217 41.1162 249.157 43.6675L246.406 159.91Z" fill="#2C7CB7"/>
<path d="M242.753 156.363C242.753 158.288 241.177 159.864 239.252 159.864H47.3916C45.4663 159.864 43.8902 158.288 43.8902 156.363L42.3191 51.9511C42.5044 45.668 48.0126 43.4097 51.3525 43.5424L238.817 38.5124C240.611 38.4648 242.346 39.1558 243.617 40.4227C244.888 41.6908 245.586 43.4247 245.541 45.2198L242.753 156.363Z" fill="#20A595"/>
<g opacity="0.67">
<path d="M45.9633 106.53C45.8093 106.53 45.6829 106.406 45.6804 106.251L45.5564 97.783C45.5539 97.6265 45.6791 97.4975 45.8356 97.4963C45.9821 97.4913 46.1198 97.619 46.1223 97.7755L46.2462 106.243C46.2487 106.4 46.1235 106.528 45.967 106.53C45.9658 106.53 45.9645 106.53 45.9633 106.53Z" fill="white"/>
<path d="M45.659 85.7789C45.505 85.7789 45.3786 85.655 45.3761 85.4997L44.9004 53.069C44.9104 50.9033 45.5776 49.1732 46.8833 47.9214C49.2594 45.6442 52.9786 45.7594 53.1351 45.7644L113 44.1583C113.157 44.1608 113.287 44.2772 113.291 44.4337C113.295 44.5902 113.172 44.7191 113.015 44.7241L53.1339 46.3302C52.9661 46.3227 49.4797 46.2176 47.2739 48.3295C46.0821 49.4712 45.4737 51.0648 45.465 53.0665L45.9407 85.4922C45.9432 85.6487 45.818 85.7764 45.6615 85.7789C45.6615 85.7789 45.6603 85.7789 45.659 85.7789Z" fill="white"/>
</g>
<path d="M52.3428 150.57C52.5431 141.94 52.4692 65.5212 51.9735 58.9214C51.4777 52.3216 61.7568 51.0835 77.5377 50.3412C93.3187 49.5988 226.47 46.6582 229.899 46.3803C237.606 45.7556 239.201 57.274 238.429 82.2799C237.85 101.067 236.89 132.014 236.449 146.246C236.318 150.484 232.854 153.846 228.614 153.858C196.572 153.945 73.7646 154.297 65.59 154.541C56.1822 154.82 52.2626 153.993 52.3428 150.57Z" fill="white"/>
<path d="M261.704 169.478H27.6247C27.1077 169.478 26.6846 169.055 26.6846 168.538V160.312C26.6846 159.795 27.1077 159.372 27.6247 159.372H261.704C262.221 159.372 262.644 159.795 262.644 160.312V168.538C262.643 169.055 262.22 169.478 261.704 169.478Z" fill="#2C7CB7"/>
<path d="M188.126 61.126L203.331 57.5857C203.331 57.5857 213.497 56.6719 214.873 65.7078C216.247 74.7438 215.849 128.28 215.419 139.321C214.988 150.362 216.025 158.854 222.238 160.51L177.035 161.292L188.126 61.126Z" fill="#20A595"/>
<path d="M183.5 150.76C183.5 150.76 186.358 110.686 206.686 86.2571C206.951 85.9391 207.409 86.018 207.55 86.4098C209.765 92.5978 222.215 132.393 183.5 150.76Z" fill="#30C6BB"/>
<path d="M205.808 97.8856C205.637 100.224 205.299 102.531 204.906 104.833C204.5 107.133 204.023 109.42 203.462 111.689C202.343 116.225 200.944 120.7 199.222 125.052C198.355 127.226 197.435 129.38 196.404 131.483C195.905 132.542 195.348 133.574 194.813 134.615C194.246 135.641 193.692 136.672 193.078 137.67C190.698 141.703 187.912 145.503 184.731 148.923C184.636 149.024 184.477 149.03 184.374 148.935C184.278 148.846 184.268 148.7 184.345 148.597L184.348 148.594C187.178 144.924 189.729 141.066 191.941 137.018C192.511 136.015 193.019 134.978 193.561 133.962C194.066 132.925 194.593 131.899 195.064 130.846C195.299 130.32 195.556 129.803 195.783 129.274L196.479 127.69C196.707 127.16 196.923 126.625 197.144 126.093C197.368 125.562 197.579 125.023 197.785 124.485C198.216 123.415 198.615 122.332 199.018 121.25C199.403 120.163 199.787 119.073 200.147 117.977C200.89 115.79 201.548 113.574 202.184 111.352C202.806 109.126 203.386 106.885 203.905 104.629C204.435 102.377 204.907 100.104 205.306 97.8293L205.308 97.8218C205.331 97.6841 205.463 97.5927 205.599 97.6165C205.729 97.6415 205.817 97.758 205.808 97.8856Z" fill="#DCE5FE"/>
<path d="M183.734 156.195C183.734 156.195 201.589 119.277 224.257 116.772C224.659 116.727 224.997 117.072 224.948 117.474C224.376 122.147 219.681 146.76 183.734 156.195Z" fill="#30C6BB"/>
<path d="M219.927 122.758C218.675 124.321 217.377 125.833 216.058 127.333C215.391 128.076 214.724 128.817 214.048 129.551C213.366 130.279 212.692 131.016 212.001 131.736C209.247 134.625 206.391 137.417 203.445 140.111C201.985 141.473 200.463 142.765 198.964 144.083L196.663 146C196.279 146.318 195.897 146.641 195.508 146.952L194.329 147.875C191.219 150.381 187.942 152.67 184.634 154.903C184.519 154.981 184.362 154.95 184.285 154.835C184.208 154.721 184.236 154.567 184.347 154.489L184.354 154.484L186.787 152.76L188.004 151.898C188.406 151.606 188.798 151.3 189.195 151.001L191.577 149.207C192.361 148.595 193.132 147.969 193.91 147.35L195.076 146.42L196.219 145.464L198.503 143.549C199.992 142.23 201.503 140.938 202.953 139.578C204.426 138.242 205.859 136.865 207.295 135.489L209.416 133.392L211.505 131.264C212.201 130.554 212.88 129.827 213.568 129.11C214.249 128.385 214.922 127.652 215.595 126.921C216.933 125.453 218.262 123.967 219.528 122.443L219.532 122.44C219.621 122.333 219.78 122.318 219.887 122.407C219.997 122.495 220.012 122.651 219.927 122.758Z" fill="#DCE5FE"/>
<path d="M157.213 61.8609C157.213 61.8609 184.901 63.3819 203.331 57.5858C203.331 57.5858 191.079 56.7458 191.079 85.0341C191.079 106.662 194.286 147.944 191.486 155.781C188.685 163.617 178.213 174.15 163.201 165.098C148.189 156.046 157.213 61.8609 157.213 61.8609Z" fill="#2BBCAE"/>
<path d="M187.482 123.699C187.229 123.699 187.021 123.496 187.016 123.242C187.016 123.228 186.988 121.76 186.847 116.729C186.84 116.471 187.043 116.257 187.301 116.25C187.552 116.238 187.773 116.446 187.779 116.704C187.92 121.741 187.949 123.211 187.949 123.226C187.954 123.484 187.749 123.695 187.492 123.7C187.488 123.699 187.485 123.699 187.482 123.699Z" fill="white"/>
<path d="M187.143 111.42C186.892 111.42 186.685 111.22 186.677 110.968C186.577 107.693 186.421 104.072 186.255 100.239C186.032 95.0602 185.801 89.706 185.679 84.5471C185.358 70.9331 187.604 65.7066 189.544 63.7199C190.598 62.6395 191.482 62.6082 191.579 62.6082C191.837 62.6082 192.045 62.8173 192.045 63.0739C192.045 63.328 191.841 63.5346 191.588 63.5396C191.482 63.5471 186.129 64.1355 186.611 84.5246C186.732 89.6735 186.963 95.0239 187.187 100.199C187.352 104.035 187.508 107.658 187.609 110.939C187.616 111.197 187.415 111.411 187.157 111.418C187.153 111.42 187.148 111.42 187.143 111.42Z" fill="white"/>
<path d="M149.853 19.4503C149.853 19.4503 180.4 22.7802 184.336 17.6026C184.336 17.6026 181.205 8.2837 171.909 8.90337C162.613 9.52304 149.853 19.4503 149.853 19.4503Z" fill="#176B65"/>
<path d="M50.4986 29.9346C53.1625 59.8716 58.7571 123.193 61.192 154.039C61.734 160.916 67.246 166.347 74.1299 166.789C98.6514 168.363 153.836 171.418 175.012 168.576C170.161 166.185 167.107 161.227 167.151 155.819L168.275 17.4073C168.315 12.5162 173.186 9.00227 177.767 10.7186C180.652 11.8002 182.837 14.1036 184.335 17.6038C182.336 11.7776 179.191 7.51381 171.908 8.90463C171.908 8.90463 100.678 9.61694 66.113 11.7601C56.7216 12.341 49.6648 20.5607 50.4986 29.9346Z" fill="#12AD9E"/>
<mask id="mask0_101_14814" style="mask-type:alpha" maskUnits="userSpaceOnUse" x="53" y="12" width="116" height="156">
<path d="M68.1197 15.721L163.832 12.0368C159.885 41.2615 161.55 100.776 163.057 159.43C163.146 162.907 165.185 166.036 168.33 167.523C168.33 167.523 104.491 168.259 77.0605 166.312C70.6022 165.854 65.3331 160.967 64.3742 154.564C60.6086 129.434 51.5989 64.5161 53.4742 30.1475C53.9024 22.2758 60.243 16.024 68.1197 15.721Z" fill="url(#paint0_linear_101_14814)"/>
</mask>
<g mask="url(#mask0_101_14814)">
<path d="M68.1197 15.721L163.832 12.0368C159.885 41.2615 161.55 100.776 163.057 159.43C163.146 162.907 165.185 166.036 168.33 167.523C168.33 167.523 104.491 168.259 77.0605 166.312C70.6022 165.854 65.3331 160.967 64.3742 154.564C60.6086 129.434 51.5989 64.5161 53.4742 30.1475C53.9024 22.2758 60.243 16.024 68.1197 15.721Z" fill="#BABEC6"/>
<path d="M70.5132 54.1119C83.9695 53.7889 135.625 52.492 148.669 52.1652C150.314 52.1239 151.675 53.1429 151.675 54.4136C151.675 55.6229 150.436 56.6168 148.87 56.6619L70.7636 58.9002C69.2589 58.9428 67.9594 58.094 67.7666 56.9423L67.7178 56.6506C67.4962 55.3312 68.7932 54.1532 70.5132 54.1119Z" fill="url(#paint1_linear_101_14814)"/>
<path d="M69.6682 68.2454C69.896 68.5408 70.3129 68.7198 70.7598 68.7123L124.392 67.8122C125.066 67.801 125.604 67.3766 125.604 66.8558V64.1255C125.604 63.5834 125.02 63.149 124.318 63.1691L72.1819 64.6738C69.8597 64.7427 68.4789 66.7043 69.6682 68.2454Z" fill="url(#paint2_linear_101_14814)"/>
<path d="M70.5132 83.8661C83.9695 83.5431 135.625 82.2462 148.669 81.9194C150.314 81.8781 151.675 82.8971 151.675 84.1678C151.675 85.3771 150.436 86.371 148.87 86.4161L70.7636 88.6544C69.2589 88.697 67.9594 87.8482 67.7666 86.6965L67.7178 86.4048C67.4962 85.0854 68.7932 83.9074 70.5132 83.8661Z" fill="url(#paint3_linear_101_14814)"/>
<path d="M69.6682 97.9996C69.896 98.295 70.3129 98.474 70.7598 98.4665L124.392 97.5664C125.066 97.5552 125.604 97.1308 125.604 96.61V93.8797C125.604 93.3376 125.02 92.9032 124.318 92.9233L72.1819 94.428C69.8597 94.4969 68.4789 96.4585 69.6682 97.9996Z" fill="url(#paint4_linear_101_14814)"/>
<path d="M70.5132 113.62C83.9695 113.297 135.625 112 148.669 111.674C150.314 111.632 151.675 112.651 151.675 113.922C151.675 115.131 150.436 116.125 148.87 116.17L70.7636 118.409C69.2589 118.451 67.9594 117.602 67.7666 116.451L67.7178 116.159C67.4962 114.84 68.7932 113.662 70.5132 113.62Z" fill="url(#paint5_linear_101_14814)"/>
<path d="M69.6682 127.754C69.896 128.049 70.3129 128.228 70.7598 128.221L124.392 127.321C125.066 127.309 125.604 126.885 125.604 126.364V123.634C125.604 123.092 125.02 122.657 124.318 122.677L72.1819 124.182C69.8597 124.251 68.4789 126.214 69.6682 127.754Z" fill="url(#paint6_linear_101_14814)"/>
</g>
<path d="M118.48 98.7444C118.48 98.7444 117.582 96.3821 116.534 96.5987C115.486 96.8153 114.34 97.6202 114.34 97.6202L112.656 99.8974C112.656 99.8974 117.383 101.76 119.047 100.692C119.047 100.692 123.875 101.526 129.973 100.526C129.09 98.6618 128.565 96.7965 128.255 95.3481C125.166 97.0969 121.84 98.4026 118.48 98.7444Z" fill="url(#paint7_linear_101_14814)"/>
<path d="M144.059 81.6077C144.059 81.6077 137.145 90.3156 128.254 95.3481C128.563 96.7965 129.089 98.6618 129.972 100.526C134.584 99.7684 139.921 97.9632 144.447 93.9498L144.059 81.6077Z" fill="#0CAA9E"/>
<path d="M152.681 120.203C151.329 113.781 149.977 110.062 145.45 97.8894C144.025 94.0587 142.732 90.1829 143.357 86.1432L144.059 81.6064C144.059 81.6064 152.857 78.6295 162.609 81.4813C162.609 81.4813 175.914 87.2611 166.877 115.807C162.803 120.367 158.036 121.665 152.681 120.203Z" fill="#0CAA9E"/>
<path d="M145.556 75.8178L147.837 81.2985C147.981 81.6452 148.293 81.8919 148.662 81.9544C149.978 82.1798 153.159 82.5328 155.248 81.1583C155.497 80.9943 155.56 80.6563 155.39 80.4121L151.175 74.3607L145.556 75.8178Z" fill="url(#paint8_linear_101_14814)"/>
<path d="M147.916 67.4329C147.82 67.523 143.873 75.2758 143.873 75.2758L148.347 77.4352L153.18 70.6439C153.18 70.6439 149.52 65.9231 147.916 67.4329Z" fill="url(#paint9_linear_101_14814)"/>
<path d="M151.146 71.4588L148.914 75.1794C148.88 75.2357 148.84 75.287 148.791 75.3321C148.526 75.58 147.617 76.2985 146.913 75.3196C146.315 74.4846 145.753 73.726 145.151 73.413C144.799 73.2302 144.366 73.3767 144.188 73.7297C143.82 74.4583 143.108 75.9443 142.661 77.3526C142.548 77.7056 142.731 78.0849 143.074 78.2239C143.98 78.5907 145.77 79.2554 147.359 79.4745C147.621 79.5108 147.878 79.4006 148.034 79.1878C148.717 78.2514 150.644 75.6338 151.302 74.9791C151.913 74.3707 153.041 74.5998 153.549 74.7462C153.742 74.8013 153.947 74.775 154.119 74.6711C154.635 74.3607 155.534 73.587 154.711 72.2788C154.507 71.9533 154.611 71.5202 154.931 71.3086C155.507 70.9306 156.132 70.2195 155.536 69.069C154.934 67.9036 153.859 67.7996 153.125 67.8885C152.801 67.9286 152.472 67.7583 152.348 67.4566C152.292 67.3227 152.182 67.2075 151.98 67.1662C151.595 67.0886 151.344 66.7368 151.419 66.3525C151.548 65.6928 151.45 64.8365 150.398 64.2581C148.468 63.1966 146.777 64.9266 146.346 66.3863C145.916 67.846 148.075 68.8775 149.432 69.0503C150.43 69.1767 150.977 70.2658 151.196 70.8342C151.28 71.0382 151.26 71.2686 151.146 71.4588Z" fill="#494949"/>
<path d="M150.365 76.0907C150.365 76.0907 151.325 73.8311 152.424 73.9237C153.523 74.0164 154.388 75.1105 153.026 76.3411C151.331 77.8721 150.365 76.0907 150.365 76.0907Z" fill="url(#paint10_linear_101_14814)"/>
<path d="M151.814 176.802C153.939 176.986 157.627 177.284 160.535 177.411C162.282 177.488 163.289 177.317 163.868 177.085C163.867 177.15 163.866 177.211 163.863 177.269C163.85 177.574 163.6 177.819 163.292 177.837C157.799 178.144 153.43 177.943 151.874 177.848C151.552 177.828 151.361 177.479 151.525 177.205C151.606 177.07 151.706 176.934 151.814 176.802Z" fill="#176B65"/>
<path d="M160.535 177.413C157.628 177.285 153.94 176.986 151.814 176.803C153.904 174.24 160.535 172.513 160.535 172.513H162.407C163.696 174.369 163.882 176.137 163.868 177.087C163.289 177.317 162.282 177.489 160.535 177.413Z" fill="#A0A0A0"/>
<path d="M162.723 169.455L162.548 172.922C162.529 173.298 162.247 173.613 161.872 173.667C161.497 173.721 160.997 173.727 160.465 173.551C160.138 173.442 159.895 173.166 159.835 172.831L159.229 169.455H162.723Z" fill="url(#paint11_linear_101_14814)"/>
<path d="M187.048 177.386C187.969 177.257 188.386 176.779 188.561 176.267C188.563 176.272 188.564 176.276 188.565 176.281C188.7 176.82 188.386 177.38 187.758 177.647C186.998 177.968 186.168 178.024 185.523 177.996C184.832 177.967 184.196 177.682 183.848 177.224L183.843 177.216C184.537 177.56 185.51 177.6 187.048 177.386Z" fill="#176B65"/>
<path d="M182.703 169.432H184.247C186.6 169.384 188.077 174.346 188.561 176.267C188.386 176.779 187.969 177.257 187.048 177.386C185.511 177.6 184.537 177.56 183.842 177.217C182.571 175.545 181.94 173.095 181.637 171.665C181.294 170.039 182.703 169.432 182.703 169.432Z" fill="#A0A0A0"/>
<path d="M184.048 166.213L184.906 169.625C185.011 170.043 184.811 170.476 184.424 170.674C183.945 170.92 183.269 171.178 182.648 171.104C182.356 171.069 182.113 170.864 182.017 170.589L180.757 167L184.048 166.213Z" fill="url(#paint12_linear_101_14814)"/>
<path d="M185.072 167.199C184.006 168.145 180.534 168.27 180.534 168.27C168.033 138.266 162.821 130.005 162.821 130.005C164.626 141.33 163.21 170.4 163.21 170.4C161.147 171.31 158.487 170.4 158.487 170.4C158.319 151.858 155.709 131.936 152.343 119.189C160.793 118.998 165.384 117.157 166.852 115.996C173.895 127.352 185.072 167.199 185.072 167.199Z" fill="#2C7CB7"/>
<path d="M150.214 127.574L151.769 137.244C152.041 138.93 153.602 140.1 155.306 139.892L178.577 137.054C179.714 136.915 180.578 135.965 180.601 134.823C180.651 132.324 180.552 127.878 179.504 123.825L150.214 127.574Z" fill="#176B65"/>
<path d="M155.564 139.267C155.541 139.267 155.522 139.25 155.521 139.227C155.52 139.203 155.537 139.183 155.561 139.182C155.63 139.178 155.698 139.172 155.766 139.165L155.9 139.148C155.924 139.146 155.945 139.162 155.948 139.186C155.95 139.21 155.934 139.231 155.91 139.233L155.776 139.25C155.705 139.258 155.635 139.265 155.565 139.268C155.566 139.267 155.565 139.267 155.564 139.267ZM154.766 139.205C154.764 139.205 154.76 139.205 154.757 139.203C154.645 139.18 154.531 139.148 154.422 139.112C154.399 139.104 154.387 139.079 154.394 139.057C154.402 139.034 154.426 139.022 154.449 139.029C154.556 139.066 154.666 139.096 154.776 139.118C154.8 139.123 154.814 139.146 154.809 139.17C154.804 139.191 154.786 139.205 154.766 139.205ZM156.703 139.134C156.682 139.134 156.663 139.118 156.66 139.097C156.658 139.073 156.674 139.052 156.698 139.049L157.04 139.008C157.063 139.006 157.085 139.022 157.087 139.046C157.09 139.069 157.073 139.091 157.05 139.093L156.708 139.134C156.707 139.134 156.704 139.134 156.703 139.134ZM157.841 138.997C157.819 138.997 157.801 138.981 157.798 138.959C157.796 138.935 157.812 138.914 157.836 138.912L158.178 138.87C158.201 138.868 158.223 138.884 158.225 138.908C158.228 138.932 158.211 138.953 158.188 138.955L157.846 138.997C157.845 138.996 157.843 138.997 157.841 138.997ZM158.979 138.858C158.957 138.858 158.939 138.842 158.936 138.82C158.934 138.796 158.95 138.775 158.974 138.773L159.315 138.731C159.339 138.729 159.361 138.745 159.363 138.769C159.366 138.793 159.349 138.814 159.325 138.817L158.984 138.858C158.982 138.858 158.981 138.858 158.979 138.858ZM153.716 138.761C153.707 138.761 153.7 138.759 153.692 138.754C153.596 138.69 153.502 138.619 153.413 138.545C153.394 138.53 153.393 138.502 153.408 138.485C153.423 138.467 153.45 138.465 153.468 138.48C153.554 138.552 153.646 138.621 153.74 138.683C153.76 138.696 153.765 138.723 153.752 138.743C153.743 138.755 153.731 138.761 153.716 138.761ZM160.118 138.719C160.097 138.719 160.078 138.703 160.075 138.681C160.073 138.658 160.089 138.636 160.113 138.634L160.455 138.592C160.478 138.59 160.5 138.606 160.502 138.63C160.505 138.654 160.488 138.675 160.465 138.678L160.123 138.719C160.12 138.719 160.119 138.719 160.118 138.719ZM161.256 138.58C161.235 138.58 161.216 138.564 161.213 138.542C161.211 138.519 161.227 138.497 161.251 138.495L161.593 138.453C161.616 138.451 161.638 138.467 161.64 138.491C161.643 138.515 161.626 138.536 161.603 138.539L161.261 138.58C161.26 138.58 161.257 138.58 161.256 138.58ZM162.394 138.441C162.373 138.441 162.354 138.425 162.351 138.403C162.349 138.38 162.365 138.358 162.389 138.356L162.731 138.315C162.754 138.311 162.776 138.328 162.778 138.352C162.781 138.376 162.764 138.397 162.741 138.4L162.399 138.441C162.398 138.441 162.395 138.441 162.394 138.441ZM163.532 138.302C163.51 138.302 163.492 138.286 163.489 138.264C163.487 138.241 163.503 138.219 163.527 138.217L163.868 138.176C163.892 138.173 163.914 138.189 163.916 138.213C163.919 138.237 163.902 138.258 163.879 138.261L163.537 138.302C163.535 138.302 163.534 138.302 163.532 138.302ZM164.67 138.163C164.648 138.163 164.63 138.147 164.627 138.125C164.625 138.102 164.641 138.08 164.665 138.078L165.006 138.037C165.03 138.034 165.052 138.05 165.054 138.074C165.057 138.098 165.04 138.119 165.016 138.122L164.675 138.163C164.673 138.163 164.672 138.163 164.67 138.163ZM165.809 138.024C165.788 138.024 165.769 138.008 165.766 137.987C165.764 137.963 165.78 137.941 165.804 137.939L166.146 137.898C166.169 137.894 166.191 137.911 166.193 137.935C166.196 137.959 166.179 137.98 166.156 137.983L165.814 138.024C165.811 138.024 165.81 138.024 165.809 138.024ZM152.903 137.964C152.89 137.964 152.876 137.958 152.868 137.945C152.802 137.85 152.741 137.75 152.687 137.647C152.676 137.626 152.683 137.6 152.704 137.59C152.726 137.578 152.752 137.586 152.762 137.607C152.815 137.706 152.875 137.804 152.938 137.896C152.952 137.916 152.947 137.943 152.927 137.956C152.92 137.961 152.911 137.964 152.903 137.964ZM166.947 137.885C166.926 137.885 166.907 137.869 166.904 137.848C166.902 137.824 166.918 137.803 166.942 137.8L167.284 137.759C167.307 137.756 167.329 137.772 167.331 137.796C167.334 137.82 167.317 137.841 167.294 137.844L166.952 137.885C166.951 137.885 166.948 137.885 166.947 137.885ZM168.085 137.746C168.063 137.746 168.045 137.73 168.042 137.709C168.04 137.685 168.056 137.664 168.08 137.661L168.422 137.62C168.444 137.617 168.467 137.634 168.469 137.657C168.472 137.681 168.455 137.702 168.432 137.705L168.09 137.746C168.089 137.746 168.086 137.746 168.085 137.746ZM169.223 137.608C169.201 137.608 169.183 137.592 169.18 137.571C169.178 137.547 169.194 137.526 169.218 137.523L169.559 137.482C169.583 137.48 169.605 137.496 169.607 137.52C169.61 137.543 169.593 137.565 169.569 137.567L169.228 137.608C169.226 137.607 169.225 137.608 169.223 137.608ZM170.361 137.47C170.339 137.47 170.321 137.453 170.318 137.432C170.316 137.408 170.332 137.387 170.356 137.384L170.697 137.343C170.721 137.339 170.742 137.357 170.745 137.381C170.747 137.404 170.731 137.426 170.707 137.428L170.366 137.47C170.364 137.47 170.363 137.47 170.361 137.47ZM171.499 137.331C171.477 137.331 171.459 137.314 171.456 137.293C171.454 137.269 171.47 137.248 171.494 137.245L171.835 137.204C171.859 137.202 171.88 137.218 171.883 137.242C171.885 137.265 171.869 137.287 171.845 137.289L171.504 137.331C171.502 137.331 171.501 137.331 171.499 137.331ZM172.638 137.192C172.616 137.192 172.598 137.175 172.595 137.154C172.593 137.13 172.609 137.109 172.633 137.106L172.975 137.065C172.998 137.063 173.02 137.079 173.022 137.103C173.025 137.127 173.008 137.148 172.985 137.15L172.643 137.192C172.64 137.192 172.639 137.192 172.638 137.192ZM173.776 137.053C173.754 137.053 173.736 137.036 173.733 137.015C173.731 136.991 173.747 136.97 173.771 136.968L174.112 136.926C174.136 136.922 174.158 136.94 174.16 136.964C174.163 136.988 174.146 137.009 174.122 137.011L173.781 137.053C173.779 137.053 173.777 137.053 173.776 137.053ZM152.444 136.92C152.424 136.92 152.406 136.906 152.403 136.886C152.388 136.822 152.375 136.757 152.365 136.691L152.341 136.544C152.338 136.521 152.354 136.499 152.376 136.496C152.4 136.492 152.421 136.508 152.425 136.531L152.449 136.677C152.459 136.741 152.472 136.804 152.485 136.866C152.49 136.89 152.477 136.912 152.453 136.917C152.45 136.92 152.448 136.92 152.444 136.92ZM174.914 136.914C174.892 136.914 174.874 136.897 174.871 136.876C174.869 136.852 174.885 136.831 174.909 136.829L175.25 136.787C175.274 136.785 175.295 136.801 175.298 136.825C175.3 136.849 175.284 136.87 175.26 136.872L174.919 136.914C174.917 136.914 174.915 136.914 174.914 136.914ZM176.052 136.775C176.03 136.775 176.012 136.758 176.009 136.737C176.007 136.713 176.023 136.692 176.047 136.69L176.388 136.648C176.412 136.646 176.433 136.662 176.436 136.686C176.438 136.71 176.422 136.731 176.398 136.733L176.057 136.775C176.055 136.775 176.054 136.775 176.052 136.775ZM177.19 136.636C177.168 136.636 177.149 136.62 177.147 136.598C177.144 136.574 177.161 136.553 177.185 136.551L177.526 136.509C177.55 136.507 177.571 136.523 177.574 136.547C177.576 136.571 177.56 136.592 177.536 136.594L177.195 136.636C177.193 136.636 177.192 136.636 177.19 136.636ZM178.321 136.459C178.302 136.459 178.286 136.448 178.28 136.429C178.272 136.407 178.285 136.383 178.307 136.375C178.414 136.342 178.519 136.299 178.619 136.248C178.64 136.236 178.667 136.245 178.677 136.266C178.687 136.288 178.679 136.314 178.658 136.324C178.554 136.377 178.445 136.42 178.334 136.457C178.33 136.459 178.325 136.459 178.321 136.459ZM179.275 135.848C179.265 135.848 179.254 135.845 179.246 135.837C179.229 135.821 179.228 135.793 179.244 135.776C179.319 135.693 179.389 135.603 179.45 135.51C179.463 135.49 179.49 135.485 179.51 135.498C179.531 135.51 179.536 135.538 179.523 135.558C179.459 135.656 179.387 135.748 179.308 135.835C179.299 135.843 179.288 135.848 179.275 135.848ZM152.256 135.79C152.235 135.79 152.217 135.774 152.214 135.753L152.159 135.414C152.155 135.39 152.171 135.369 152.194 135.365C152.217 135.361 152.239 135.378 152.242 135.4L152.298 135.739C152.301 135.763 152.285 135.785 152.262 135.788C152.261 135.79 152.259 135.79 152.256 135.79ZM179.796 134.842C179.793 134.842 179.79 134.842 179.787 134.841C179.763 134.836 179.75 134.813 179.755 134.789C179.778 134.68 179.793 134.568 179.8 134.455C179.801 134.431 179.82 134.414 179.845 134.415C179.869 134.416 179.886 134.436 179.885 134.46C179.879 134.576 179.862 134.694 179.838 134.807C179.833 134.828 179.816 134.842 179.796 134.842ZM152.073 134.658C152.052 134.658 152.035 134.643 152.031 134.622L151.976 134.282C151.972 134.258 151.988 134.237 152.011 134.233C152.035 134.23 152.056 134.246 152.06 134.269L152.115 134.608C152.119 134.632 152.102 134.653 152.08 134.657C152.078 134.658 152.076 134.658 152.073 134.658ZM179.854 133.699C179.83 133.699 179.811 133.679 179.811 133.655C179.811 133.572 179.812 133.487 179.812 133.402V133.312C179.812 133.288 179.831 133.27 179.855 133.27C179.879 133.27 179.897 133.288 179.897 133.312V133.403C179.897 133.49 179.897 133.574 179.896 133.658C179.896 133.679 179.877 133.699 179.854 133.699ZM151.892 133.525C151.871 133.525 151.853 133.51 151.849 133.489L151.794 133.149C151.791 133.126 151.807 133.104 151.829 133.101C151.853 133.097 151.874 133.113 151.878 133.136L151.933 133.475C151.937 133.499 151.921 133.52 151.898 133.524C151.897 133.525 151.894 133.525 151.892 133.525ZM179.846 132.551C179.822 132.551 179.803 132.532 179.803 132.508C179.801 132.396 179.798 132.281 179.796 132.164C179.796 132.14 179.815 132.12 179.837 132.12C179.862 132.119 179.881 132.139 179.881 132.162C179.884 132.278 179.886 132.393 179.889 132.506C179.89 132.531 179.871 132.551 179.846 132.551C179.847 132.551 179.847 132.551 179.846 132.551ZM151.71 132.393C151.689 132.393 151.672 132.378 151.668 132.357L151.613 132.018C151.609 131.994 151.625 131.973 151.648 131.969C151.672 131.965 151.693 131.981 151.697 132.004L151.752 132.343C151.755 132.367 151.739 132.388 151.717 132.392C151.714 132.393 151.713 132.393 151.71 132.393ZM179.812 131.406C179.79 131.406 179.771 131.388 179.77 131.364C179.765 131.25 179.76 131.136 179.755 131.021C179.753 130.997 179.772 130.977 179.796 130.976C179.821 130.975 179.84 130.994 179.841 131.017C179.846 131.134 179.852 131.248 179.856 131.362C179.857 131.385 179.838 131.406 179.815 131.407C179.813 131.406 179.813 131.406 179.812 131.406ZM151.528 131.262C151.506 131.262 151.489 131.247 151.485 131.225L151.43 130.886C151.426 130.862 151.443 130.841 151.465 130.837C151.489 130.833 151.51 130.85 151.514 130.872L151.569 131.211C151.573 131.235 151.556 131.257 151.534 131.26C151.533 131.262 151.53 131.262 151.528 131.262ZM179.752 130.26C179.73 130.26 179.711 130.243 179.71 130.22C179.702 130.106 179.695 129.992 179.686 129.877C179.685 129.853 179.702 129.833 179.726 129.831C179.75 129.828 179.77 129.847 179.772 129.871C179.781 129.986 179.788 130.101 179.796 130.214C179.797 130.238 179.78 130.258 179.756 130.26C179.753 130.26 179.752 130.26 179.752 130.26ZM151.346 130.13C151.325 130.13 151.307 130.115 151.304 130.094L151.248 129.754C151.245 129.731 151.261 129.709 151.284 129.705C151.307 129.702 151.329 129.718 151.332 129.741L151.387 130.08C151.391 130.104 151.375 130.125 151.352 130.129C151.351 130.129 151.349 130.13 151.346 130.13ZM179.662 129.116C179.639 129.116 179.621 129.1 179.619 129.077C179.609 128.963 179.598 128.849 179.587 128.735C179.584 128.712 179.602 128.69 179.626 128.688C179.649 128.685 179.671 128.703 179.673 128.727C179.685 128.842 179.696 128.956 179.706 129.07C179.708 129.093 179.691 129.115 179.667 129.116C179.664 129.116 179.663 129.116 179.662 129.116ZM151.165 128.997C151.143 128.997 151.126 128.982 151.122 128.961L151.067 128.621C151.063 128.598 151.079 128.576 151.102 128.573C151.126 128.569 151.147 128.585 151.151 128.608L151.206 128.947C151.21 128.971 151.193 128.992 151.171 128.996C151.168 128.997 151.166 128.997 151.165 128.997ZM179.541 127.975C179.519 127.975 179.5 127.959 179.498 127.938C179.484 127.824 179.47 127.711 179.455 127.597C179.453 127.574 179.469 127.552 179.493 127.549C179.517 127.545 179.538 127.562 179.542 127.586C179.557 127.7 179.571 127.814 179.584 127.928C179.587 127.952 179.571 127.973 179.547 127.975C179.543 127.975 179.542 127.975 179.541 127.975ZM150.982 127.865C150.961 127.865 150.943 127.85 150.939 127.829L150.878 127.446L151.004 127.43C151.028 127.427 151.049 127.443 151.052 127.467C151.054 127.491 151.038 127.512 151.014 127.515L150.976 127.52L151.023 127.815C151.027 127.839 151.011 127.86 150.988 127.864C150.987 127.865 150.984 127.865 150.982 127.865ZM151.806 127.413C151.784 127.413 151.765 127.397 151.763 127.376C151.76 127.352 151.777 127.331 151.801 127.328L152.142 127.284C152.166 127.281 152.187 127.298 152.19 127.322C152.192 127.346 152.176 127.367 152.152 127.37L151.811 127.413C151.809 127.413 151.808 127.413 151.806 127.413ZM152.944 127.268C152.922 127.268 152.903 127.252 152.901 127.231C152.898 127.207 152.915 127.185 152.938 127.183L153.28 127.139C153.303 127.135 153.325 127.153 153.328 127.177C153.33 127.201 153.314 127.222 153.29 127.224L152.949 127.268C152.947 127.267 152.945 127.268 152.944 127.268ZM154.08 127.122C154.059 127.122 154.04 127.105 154.038 127.084C154.035 127.06 154.051 127.039 154.075 127.037L154.417 126.993C154.439 126.99 154.462 127.006 154.465 127.03C154.467 127.054 154.451 127.075 154.427 127.078L154.085 127.122C154.084 127.122 154.083 127.122 154.08 127.122ZM155.218 126.976C155.197 126.976 155.178 126.96 155.176 126.939C155.173 126.915 155.189 126.894 155.213 126.891L155.555 126.847C155.579 126.845 155.6 126.861 155.602 126.885C155.605 126.909 155.589 126.93 155.565 126.933L155.223 126.976C155.222 126.976 155.219 126.976 155.218 126.976ZM179.384 126.84C179.363 126.84 179.345 126.825 179.341 126.804C179.324 126.691 179.306 126.578 179.288 126.464C179.284 126.441 179.3 126.419 179.323 126.416C179.347 126.412 179.368 126.428 179.372 126.451C179.39 126.565 179.408 126.677 179.425 126.79C179.429 126.814 179.413 126.835 179.389 126.839C179.389 126.84 179.387 126.84 179.384 126.84ZM156.355 126.831C156.334 126.831 156.315 126.815 156.312 126.794C156.31 126.77 156.326 126.749 156.35 126.746L156.692 126.702C156.715 126.7 156.737 126.716 156.739 126.74C156.742 126.764 156.725 126.785 156.702 126.787L156.36 126.831C156.359 126.831 156.357 126.831 156.355 126.831ZM157.493 126.685C157.471 126.685 157.453 126.668 157.45 126.647C157.448 126.623 157.464 126.602 157.488 126.6L157.83 126.556C157.853 126.553 157.875 126.57 157.877 126.593C157.88 126.617 157.863 126.638 157.84 126.641L157.498 126.685C157.497 126.685 157.494 126.685 157.493 126.685ZM158.629 126.54C158.608 126.54 158.589 126.523 158.587 126.502C158.584 126.478 158.601 126.457 158.624 126.454L158.966 126.411C158.989 126.408 159.011 126.424 159.014 126.448C159.016 126.472 159 126.493 158.976 126.496L158.634 126.54C158.633 126.54 158.632 126.54 158.629 126.54ZM159.767 126.394C159.746 126.394 159.727 126.378 159.725 126.357C159.722 126.333 159.739 126.312 159.762 126.309L160.104 126.265C160.127 126.263 160.149 126.279 160.152 126.303C160.154 126.327 160.138 126.348 160.114 126.35L159.772 126.394C159.771 126.394 159.769 126.394 159.767 126.394ZM160.904 126.249C160.883 126.249 160.864 126.233 160.862 126.212C160.859 126.188 160.875 126.166 160.899 126.164L161.241 126.12C161.265 126.118 161.286 126.134 161.288 126.158C161.291 126.181 161.275 126.203 161.251 126.205L160.909 126.249C160.908 126.249 160.907 126.249 160.904 126.249ZM162.042 126.103C162.021 126.103 162.002 126.086 161.999 126.065C161.997 126.041 162.013 126.02 162.037 126.017L162.379 125.974C162.403 125.971 162.424 125.987 162.426 126.011C162.429 126.035 162.413 126.056 162.389 126.059L162.047 126.103C162.046 126.103 162.043 126.103 162.042 126.103ZM163.18 125.957C163.159 125.957 163.14 125.941 163.137 125.92C163.135 125.896 163.151 125.875 163.175 125.872L163.517 125.828C163.541 125.826 163.562 125.842 163.564 125.866C163.567 125.89 163.551 125.911 163.527 125.914L163.185 125.957C163.182 125.957 163.181 125.957 163.18 125.957ZM164.317 125.812C164.295 125.812 164.277 125.796 164.274 125.775C164.272 125.751 164.288 125.73 164.312 125.727L164.653 125.683C164.677 125.679 164.698 125.697 164.701 125.721C164.703 125.745 164.687 125.766 164.663 125.768L164.322 125.812C164.32 125.812 164.319 125.812 164.317 125.812ZM179.191 125.711C179.171 125.711 179.152 125.697 179.149 125.676C179.127 125.563 179.105 125.45 179.082 125.339C179.077 125.315 179.092 125.293 179.116 125.289C179.14 125.284 179.162 125.299 179.166 125.323C179.189 125.435 179.211 125.548 179.233 125.661C179.238 125.684 179.221 125.707 179.199 125.711C179.196 125.711 179.194 125.711 179.191 125.711ZM165.455 125.667C165.433 125.667 165.415 125.651 165.412 125.629C165.41 125.606 165.426 125.584 165.45 125.582L165.791 125.538C165.814 125.534 165.836 125.552 165.839 125.576C165.841 125.599 165.825 125.621 165.801 125.623L165.46 125.667C165.457 125.667 165.456 125.667 165.455 125.667ZM166.591 125.521C166.57 125.521 166.551 125.504 166.549 125.483C166.546 125.459 166.562 125.438 166.586 125.435L166.928 125.392C166.951 125.389 166.973 125.405 166.976 125.429C166.978 125.453 166.962 125.474 166.938 125.477L166.596 125.521C166.595 125.521 166.594 125.521 166.591 125.521ZM167.729 125.375C167.708 125.375 167.689 125.359 167.687 125.338C167.684 125.314 167.7 125.293 167.724 125.29L168.066 125.246C168.09 125.244 168.111 125.26 168.114 125.284C168.116 125.308 168.1 125.329 168.076 125.331L167.734 125.375C167.733 125.375 167.73 125.375 167.729 125.375ZM168.866 125.23C168.845 125.23 168.826 125.214 168.823 125.193C168.821 125.169 168.837 125.147 168.861 125.145L169.203 125.101C169.226 125.099 169.248 125.115 169.25 125.139C169.253 125.162 169.236 125.184 169.213 125.186L168.871 125.23C168.87 125.23 168.868 125.23 168.866 125.23ZM170.004 125.085C169.983 125.085 169.964 125.069 169.961 125.047C169.959 125.024 169.975 125.002 169.999 125L170.341 124.956C170.364 124.953 170.386 124.97 170.388 124.993C170.391 125.017 170.374 125.039 170.351 125.041L170.009 125.085C170.008 125.085 170.005 125.085 170.004 125.085ZM171.141 124.938C171.119 124.938 171.1 124.922 171.098 124.901C171.095 124.877 171.112 124.856 171.136 124.853L171.477 124.809C171.5 124.807 171.522 124.823 171.525 124.847C171.527 124.871 171.511 124.892 171.487 124.895L171.146 124.938C171.144 124.938 171.143 124.938 171.141 124.938ZM172.278 124.793C172.257 124.793 172.238 124.777 172.236 124.756C172.233 124.732 172.25 124.711 172.273 124.708L172.615 124.664C172.638 124.662 172.66 124.678 172.663 124.702C172.665 124.726 172.649 124.747 172.625 124.749L172.284 124.793C172.282 124.793 172.28 124.793 172.278 124.793ZM173.415 124.648C173.394 124.648 173.375 124.632 173.373 124.61C173.37 124.587 173.386 124.565 173.41 124.563L173.752 124.519C173.776 124.517 173.797 124.533 173.8 124.557C173.802 124.58 173.786 124.602 173.762 124.604L173.42 124.648C173.419 124.648 173.418 124.648 173.415 124.648ZM178.955 124.588C178.935 124.588 178.917 124.574 178.913 124.554C178.887 124.443 178.861 124.331 178.833 124.22C178.827 124.197 178.842 124.174 178.865 124.167C178.887 124.161 178.911 124.176 178.917 124.199C178.945 124.31 178.971 124.421 178.997 124.534C179.002 124.557 178.988 124.58 178.965 124.585C178.961 124.588 178.958 124.588 178.955 124.588ZM174.553 124.503C174.532 124.503 174.513 124.486 174.511 124.465C174.508 124.441 174.524 124.42 174.548 124.418L174.89 124.374C174.914 124.371 174.935 124.388 174.937 124.411C174.94 124.435 174.924 124.456 174.9 124.459L174.558 124.503C174.557 124.503 174.554 124.503 174.553 124.503ZM175.69 124.356C175.669 124.356 175.65 124.34 175.647 124.319C175.645 124.295 175.661 124.274 175.685 124.271L176.027 124.227C176.05 124.225 176.072 124.241 176.074 124.265C176.077 124.289 176.06 124.31 176.037 124.312L175.695 124.356C175.694 124.356 175.692 124.356 175.69 124.356ZM176.828 124.211C176.806 124.211 176.788 124.195 176.785 124.174C176.783 124.15 176.799 124.128 176.823 124.126L177.165 124.082C177.187 124.08 177.21 124.096 177.212 124.12C177.215 124.143 177.198 124.165 177.175 124.167L176.833 124.211C176.832 124.211 176.829 124.211 176.828 124.211ZM177.964 124.066C177.943 124.066 177.924 124.05 177.922 124.028C177.919 124.005 177.936 123.983 177.959 123.981L178.301 123.937C178.324 123.934 178.346 123.951 178.349 123.974C178.351 123.998 178.335 124.02 178.311 124.022L177.969 124.066C177.968 124.066 177.967 124.066 177.964 124.066Z" fill="white"/>
<path d="M156.127 119.653L156.101 118.896C156.157 118.707 156.305 118.559 156.494 118.504C157.203 118.296 158.974 117.863 159.921 118.399L160.162 119.252L156.127 119.653Z" fill="#176B65"/>
<path d="M158.298 118.643C158.136 118.705 157.968 118.727 157.796 118.707C157.586 118.683 157.42 118.52 157.394 118.312L157.093 115.968L158.286 115.815L158.587 118.158C158.614 118.366 158.494 118.566 158.298 118.643Z" fill="#176B65"/>
<path d="M167.685 118.173L167.659 117.416C167.716 117.227 167.863 117.079 168.052 117.024C168.762 116.816 170.532 116.383 171.48 116.919L171.72 117.773L167.685 118.173Z" fill="#176B65"/>
<path d="M169.856 117.163C169.695 117.226 169.527 117.247 169.355 117.227C169.146 117.203 168.98 117.04 168.954 116.833L168.622 114.24L169.815 114.087L170.147 116.677C170.173 116.886 170.053 117.088 169.856 117.163Z" fill="#176B65"/>
<path d="M157.047 116.557L169.826 114.49C170.118 114.443 170.338 114.2 170.352 113.907C170.371 113.496 170.356 112.887 170.184 112.275C169.989 111.579 169.312 111.13 168.589 111.205C166.188 111.455 160.093 112.237 156.904 113.995C156.568 114.181 156.342 114.518 156.3 114.9C156.26 115.264 156.262 115.742 156.436 116.207C156.528 116.455 156.785 116.6 157.047 116.557Z" fill="#0D4C7C"/>
<path opacity="0.69" d="M156.732 115.976C156.679 115.976 156.633 115.94 156.62 115.887C156.615 115.867 156.505 115.38 156.573 114.89C156.625 114.505 156.882 114.169 157.241 114.011C157.932 113.708 159.258 113.175 160.376 112.999C160.438 112.989 160.497 113.032 160.507 113.095C160.517 113.157 160.475 113.216 160.412 113.226C159.319 113.397 158.014 113.922 157.334 114.22C157.047 114.345 156.843 114.613 156.8 114.92C156.739 115.369 156.843 115.83 156.844 115.835C156.858 115.896 156.821 115.958 156.758 115.973C156.749 115.976 156.74 115.976 156.732 115.976Z" fill="white"/>
<path d="M150.134 120.122C154.274 119.539 172.186 117.055 177.476 117.017C177.932 117.013 178.34 117.294 178.493 117.721C178.978 119.073 180.011 122.228 180.348 125.442C180.394 125.879 180.121 126.288 179.701 126.424L168.096 130.196L163.871 130.737L150.877 129.839C150.418 129.808 150.04 129.471 149.96 129.022C149.671 127.42 149.059 123.654 149.183 121.163C149.212 120.634 149.607 120.198 150.134 120.122Z" fill="#128B84"/>
<path d="M163.842 129.743C163.841 129.743 163.84 129.743 163.84 129.743L163.497 129.719C163.473 129.718 163.455 129.697 163.456 129.673C163.458 129.649 163.482 129.632 163.503 129.633L163.846 129.657C163.87 129.658 163.887 129.679 163.886 129.703C163.883 129.727 163.865 129.743 163.842 129.743ZM164.194 129.699C164.173 129.699 164.154 129.683 164.151 129.662C164.149 129.638 164.165 129.617 164.189 129.614L164.531 129.57C164.554 129.568 164.576 129.584 164.578 129.608C164.581 129.632 164.564 129.653 164.541 129.655L164.199 129.699C164.198 129.698 164.195 129.699 164.194 129.699ZM162.699 129.664C162.698 129.664 162.697 129.664 162.697 129.664L162.354 129.64C162.33 129.639 162.312 129.618 162.314 129.594C162.315 129.57 162.337 129.553 162.36 129.554L162.703 129.578C162.727 129.579 162.744 129.6 162.743 129.624C162.74 129.647 162.72 129.664 162.699 129.664ZM161.555 129.585C161.554 129.585 161.552 129.585 161.552 129.585L161.209 129.561C161.186 129.56 161.168 129.539 161.169 129.515C161.171 129.491 161.193 129.474 161.216 129.475L161.559 129.499C161.582 129.5 161.6 129.521 161.599 129.545C161.596 129.568 161.577 129.585 161.555 129.585ZM165.331 129.553C165.309 129.553 165.29 129.536 165.288 129.515C165.285 129.491 165.302 129.47 165.326 129.468L165.667 129.424C165.691 129.421 165.712 129.438 165.715 129.461C165.717 129.485 165.701 129.506 165.677 129.509L165.336 129.553C165.334 129.553 165.333 129.553 165.331 129.553ZM160.411 129.506C160.409 129.506 160.408 129.506 160.408 129.506L160.065 129.483C160.041 129.481 160.024 129.46 160.025 129.436C160.026 129.413 160.049 129.394 160.071 129.396L160.414 129.42C160.438 129.421 160.456 129.443 160.455 129.466C160.452 129.489 160.433 129.506 160.411 129.506ZM159.267 129.428C159.265 129.428 159.264 129.428 159.264 129.428L158.921 129.404C158.897 129.402 158.88 129.381 158.881 129.357C158.882 129.334 158.903 129.316 158.927 129.317L159.27 129.341C159.294 129.342 159.312 129.364 159.31 129.387C159.308 129.41 159.289 129.428 159.267 129.428ZM166.468 129.408C166.447 129.408 166.428 129.391 166.426 129.37C166.423 129.346 166.44 129.325 166.463 129.322L166.805 129.279C166.829 129.276 166.85 129.292 166.853 129.316C166.855 129.34 166.839 129.361 166.815 129.364L166.473 129.408C166.472 129.408 166.47 129.408 166.468 129.408ZM158.124 129.349C158.122 129.349 158.121 129.349 158.121 129.349L157.778 129.325C157.754 129.324 157.737 129.302 157.738 129.279C157.739 129.255 157.762 129.237 157.784 129.238L158.127 129.262C158.151 129.264 158.169 129.285 158.167 129.309C158.165 129.331 158.146 129.349 158.124 129.349ZM156.979 129.27C156.978 129.27 156.977 129.27 156.977 129.27L156.634 129.246C156.61 129.245 156.593 129.223 156.594 129.2C156.595 129.176 156.618 129.158 156.64 129.16L156.983 129.183C157.007 129.185 157.024 129.206 157.023 129.23C157.021 129.252 157.002 129.27 156.979 129.27ZM167.605 129.262C167.584 129.262 167.565 129.246 167.563 129.225C167.56 129.201 167.576 129.18 167.6 129.177L167.864 129.143L167.929 129.121C167.952 129.113 167.976 129.126 167.983 129.148C167.991 129.171 167.978 129.195 167.956 129.202L167.882 129.226L167.609 129.261C167.609 129.262 167.608 129.262 167.605 129.262ZM155.835 129.191C155.834 129.191 155.833 129.191 155.833 129.191L155.49 129.167C155.466 129.166 155.448 129.145 155.45 129.121C155.451 129.097 155.473 129.08 155.496 129.081L155.839 129.105C155.863 129.106 155.88 129.127 155.879 129.151C155.876 129.173 155.858 129.191 155.835 129.191ZM154.691 129.112C154.69 129.112 154.688 129.112 154.688 129.112L154.345 129.088C154.322 129.087 154.304 129.066 154.305 129.042C154.307 129.018 154.33 129.001 154.352 129.002L154.695 129.026C154.718 129.027 154.736 129.048 154.735 129.072C154.732 129.095 154.713 129.112 154.691 129.112ZM153.548 129.033C153.547 129.033 153.545 129.033 153.545 129.033L153.202 129.009C153.179 129.008 153.161 128.987 153.162 128.963C153.164 128.939 153.186 128.922 153.209 128.923L153.552 128.947C153.576 128.948 153.593 128.969 153.592 128.993C153.589 129.016 153.569 129.033 153.548 129.033ZM168.707 128.957C168.688 128.957 168.672 128.946 168.665 128.927C168.658 128.904 168.67 128.88 168.693 128.873L169.02 128.767C169.042 128.759 169.066 128.772 169.074 128.794C169.081 128.817 169.069 128.84 169.046 128.848L168.719 128.954C168.716 128.956 168.712 128.957 168.707 128.957ZM152.404 128.953C152.403 128.953 152.401 128.953 152.401 128.953L152.058 128.929C152.034 128.928 152.017 128.907 152.018 128.883C152.019 128.859 152.042 128.842 152.065 128.843L152.408 128.867C152.431 128.868 152.449 128.889 152.448 128.913C152.445 128.937 152.426 128.953 152.404 128.953ZM151.26 128.874C151.258 128.874 151.257 128.874 151.257 128.874L150.938 128.852L150.922 128.763C150.918 128.739 150.933 128.718 150.957 128.713C150.979 128.708 151.002 128.724 151.007 128.748L151.01 128.77L151.263 128.788C151.287 128.789 151.305 128.81 151.303 128.834C151.301 128.858 151.282 128.874 151.26 128.874ZM169.797 128.601C169.778 128.601 169.762 128.59 169.756 128.571C169.748 128.549 169.761 128.525 169.783 128.517L170.11 128.411C170.133 128.403 170.156 128.416 170.164 128.439C170.171 128.461 170.159 128.485 170.136 128.492L169.81 128.599C169.806 128.601 169.802 128.601 169.797 128.601ZM170.888 128.247C170.869 128.247 170.852 128.236 170.846 128.217C170.839 128.194 170.851 128.171 170.874 128.163L171.2 128.057C171.223 128.049 171.247 128.062 171.254 128.084C171.262 128.107 171.249 128.131 171.227 128.138L170.9 128.245C170.896 128.247 170.893 128.247 170.888 128.247ZM150.826 128.007C150.805 128.007 150.788 127.992 150.784 127.97C150.766 127.861 150.748 127.748 150.729 127.63C150.725 127.606 150.741 127.585 150.764 127.581C150.788 127.577 150.809 127.594 150.813 127.616C150.831 127.734 150.85 127.846 150.868 127.955C150.872 127.979 150.855 128 150.833 128.004C150.831 128.007 150.829 128.007 150.826 128.007ZM171.978 127.893C171.959 127.893 171.943 127.881 171.937 127.863C171.929 127.84 171.942 127.816 171.964 127.809L172.291 127.702C172.313 127.695 172.337 127.707 172.345 127.73C172.352 127.753 172.34 127.776 172.317 127.784L171.99 127.89C171.987 127.893 171.983 127.893 171.978 127.893ZM173.068 127.538C173.049 127.538 173.033 127.527 173.027 127.508C173.019 127.486 173.032 127.462 173.054 127.455L173.381 127.348C173.404 127.341 173.428 127.353 173.435 127.376C173.443 127.398 173.43 127.422 173.408 127.43L173.081 127.536C173.077 127.538 173.073 127.538 173.068 127.538ZM174.159 127.184C174.14 127.184 174.124 127.173 174.117 127.154C174.11 127.132 174.122 127.108 174.145 127.1L174.472 126.994C174.494 126.986 174.518 126.999 174.525 127.021C174.533 127.044 174.52 127.068 174.498 127.075L174.171 127.182C174.167 127.183 174.164 127.184 174.159 127.184ZM150.649 126.874C150.627 126.874 150.61 126.859 150.606 126.837C150.59 126.726 150.574 126.612 150.556 126.497C150.552 126.473 150.569 126.452 150.592 126.448C150.616 126.444 150.637 126.461 150.641 126.484C150.657 126.6 150.674 126.713 150.691 126.825C150.695 126.849 150.679 126.87 150.655 126.874C150.654 126.872 150.651 126.874 150.649 126.874ZM175.25 126.83C175.233 126.83 175.215 126.819 175.209 126.8C175.201 126.777 175.214 126.754 175.236 126.746L175.563 126.64C175.586 126.632 175.61 126.645 175.617 126.667C175.625 126.69 175.612 126.713 175.59 126.721L175.263 126.827C175.259 126.829 175.254 126.83 175.25 126.83ZM176.341 126.476C176.322 126.476 176.306 126.464 176.299 126.446C176.292 126.423 176.304 126.399 176.327 126.392L176.654 126.285C176.676 126.278 176.7 126.29 176.707 126.313C176.715 126.335 176.702 126.359 176.68 126.367L176.353 126.473C176.349 126.474 176.344 126.476 176.341 126.476ZM177.431 126.121C177.412 126.121 177.396 126.11 177.39 126.091C177.382 126.069 177.395 126.045 177.417 126.037L177.744 125.931C177.766 125.924 177.79 125.936 177.798 125.959C177.805 125.981 177.793 126.005 177.77 126.012L177.444 126.119C177.44 126.12 177.435 126.121 177.431 126.121ZM178.521 125.767C178.503 125.767 178.486 125.756 178.48 125.737C178.473 125.715 178.485 125.691 178.508 125.683L178.834 125.577C178.857 125.569 178.881 125.582 178.888 125.604C178.896 125.627 178.883 125.651 178.861 125.658L178.534 125.765C178.53 125.766 178.525 125.767 178.521 125.767ZM150.492 125.737C150.471 125.737 150.452 125.721 150.45 125.699C150.435 125.587 150.421 125.473 150.407 125.358C150.405 125.334 150.421 125.313 150.445 125.31C150.468 125.308 150.49 125.324 150.492 125.348C150.506 125.463 150.52 125.576 150.535 125.689C150.537 125.713 150.521 125.735 150.497 125.737C150.496 125.736 150.493 125.737 150.492 125.737ZM179.276 125.197C179.255 125.197 179.236 125.181 179.234 125.16C179.22 125.046 179.205 124.933 179.189 124.819C179.185 124.796 179.202 124.774 179.225 124.771C179.249 124.767 179.27 124.784 179.274 124.807C179.29 124.921 179.304 125.035 179.319 125.149C179.321 125.172 179.305 125.194 179.281 125.196C179.28 125.197 179.279 125.197 179.276 125.197ZM150.361 124.597C150.339 124.597 150.321 124.58 150.318 124.558C150.307 124.444 150.296 124.329 150.284 124.215C150.282 124.191 150.299 124.17 150.323 124.168C150.347 124.166 150.368 124.183 150.37 124.207C150.381 124.321 150.392 124.435 150.403 124.549C150.406 124.573 150.388 124.594 150.365 124.597C150.363 124.597 150.362 124.597 150.361 124.597ZM179.11 124.062C179.09 124.062 179.071 124.047 179.067 124.026C179.048 123.913 179.028 123.8 179.007 123.688C179.003 123.664 179.018 123.641 179.042 123.638C179.066 123.634 179.088 123.649 179.092 123.673C179.112 123.785 179.132 123.898 179.152 124.012C179.156 124.036 179.141 124.057 179.117 124.062C179.113 124.062 179.112 124.062 179.11 124.062ZM150.261 123.454C150.238 123.454 150.219 123.436 150.218 123.414C150.211 123.298 150.203 123.183 150.196 123.069C150.194 123.046 150.212 123.026 150.236 123.024C150.259 123.023 150.279 123.041 150.281 123.064C150.287 123.178 150.294 123.292 150.303 123.407C150.304 123.431 150.287 123.451 150.263 123.454C150.262 123.454 150.262 123.454 150.261 123.454ZM178.894 122.937C178.874 122.937 178.857 122.923 178.852 122.903C178.828 122.79 178.804 122.677 178.779 122.567C178.774 122.544 178.789 122.521 178.812 122.516C178.834 122.511 178.858 122.526 178.863 122.549C178.888 122.66 178.912 122.773 178.936 122.885C178.941 122.909 178.926 122.932 178.902 122.937C178.901 122.937 178.897 122.937 178.894 122.937ZM150.206 122.308C150.182 122.308 150.163 122.289 150.163 122.266C150.16 122.149 150.159 122.034 150.158 121.92C150.158 121.896 150.177 121.878 150.201 121.878C150.224 121.878 150.243 121.896 150.243 121.92C150.243 122.033 150.246 122.148 150.248 122.263C150.249 122.288 150.231 122.307 150.206 122.308C150.206 122.308 150.207 122.308 150.206 122.308ZM178.638 121.819C178.619 121.819 178.601 121.806 178.596 121.786C178.569 121.673 178.54 121.562 178.513 121.453C178.506 121.431 178.52 121.407 178.544 121.401C178.568 121.394 178.59 121.408 178.596 121.432C178.625 121.542 178.653 121.653 178.68 121.766C178.687 121.789 178.672 121.812 178.649 121.819C178.645 121.819 178.642 121.819 178.638 121.819ZM150.278 121.189C150.257 121.189 150.237 121.174 150.234 121.154C150.231 121.131 150.243 121.11 150.266 121.105C150.267 121.105 150.272 121.104 150.273 121.104L150.61 121.056C150.634 121.053 150.655 121.069 150.659 121.093C150.662 121.116 150.646 121.138 150.622 121.141L150.286 121.189C150.283 121.189 150.281 121.189 150.278 121.189ZM151.411 121.03C151.39 121.03 151.371 121.015 151.369 120.992C151.365 120.969 151.381 120.947 151.405 120.944L151.745 120.896C151.769 120.892 151.79 120.91 151.794 120.932C151.798 120.956 151.782 120.977 151.758 120.981L151.417 121.029C151.415 121.03 151.412 121.03 151.411 121.03ZM152.547 120.872C152.525 120.872 152.506 120.857 152.504 120.835C152.5 120.811 152.518 120.79 152.54 120.786L152.881 120.738C152.905 120.735 152.926 120.752 152.93 120.775C152.933 120.798 152.916 120.82 152.893 120.823L152.553 120.871C152.552 120.872 152.549 120.872 152.547 120.872ZM153.683 120.717C153.662 120.717 153.643 120.702 153.641 120.68C153.637 120.656 153.654 120.634 153.677 120.631L154.017 120.584C154.04 120.581 154.063 120.598 154.066 120.621C154.07 120.644 154.052 120.666 154.03 120.67L153.689 120.716C153.687 120.716 153.686 120.717 153.683 120.717ZM178.346 120.71C178.327 120.71 178.31 120.697 178.305 120.678C178.274 120.566 178.242 120.455 178.211 120.348C178.205 120.325 178.217 120.301 178.24 120.294C178.263 120.288 178.286 120.3 178.294 120.323C178.325 120.43 178.356 120.542 178.387 120.654C178.394 120.677 178.38 120.701 178.357 120.707C178.354 120.708 178.35 120.71 178.346 120.71ZM154.82 120.562C154.799 120.562 154.78 120.547 154.777 120.524C154.774 120.501 154.791 120.479 154.814 120.475L155.154 120.429C155.178 120.425 155.199 120.443 155.203 120.465C155.207 120.489 155.189 120.511 155.167 120.514L154.826 120.561C154.824 120.562 154.822 120.562 154.82 120.562ZM155.957 120.409C155.935 120.409 155.917 120.393 155.914 120.372C155.91 120.348 155.928 120.326 155.95 120.323L156.291 120.278C156.313 120.274 156.336 120.291 156.34 120.314C156.343 120.338 156.326 120.359 156.302 120.363L155.962 120.408C155.96 120.409 155.959 120.409 155.957 120.409ZM157.093 120.256C157.072 120.256 157.053 120.24 157.051 120.219C157.048 120.195 157.064 120.174 157.087 120.17L157.429 120.125C157.451 120.122 157.474 120.139 157.478 120.163C157.48 120.186 157.464 120.208 157.44 120.211L157.1 120.256C157.097 120.256 157.096 120.256 157.093 120.256ZM158.231 120.106C158.21 120.106 158.191 120.09 158.189 120.069C158.186 120.045 158.202 120.024 158.226 120.02L158.568 119.975C158.59 119.972 158.613 119.988 158.616 120.012C158.618 120.036 158.602 120.057 158.578 120.061L158.237 120.106C158.235 120.106 158.232 120.106 158.231 120.106ZM159.368 119.958C159.347 119.958 159.328 119.942 159.325 119.921C159.323 119.897 159.339 119.876 159.363 119.873L159.705 119.83C159.727 119.826 159.75 119.843 159.752 119.867C159.755 119.891 159.738 119.912 159.715 119.915L159.374 119.958C159.372 119.958 159.37 119.958 159.368 119.958ZM160.506 119.811C160.485 119.811 160.466 119.794 160.463 119.773C160.461 119.749 160.477 119.728 160.501 119.726L160.843 119.682C160.866 119.679 160.888 119.696 160.89 119.719C160.893 119.743 160.876 119.764 160.853 119.767L160.511 119.811C160.51 119.811 160.507 119.811 160.506 119.811ZM161.643 119.667C161.621 119.667 161.602 119.65 161.6 119.629C161.597 119.605 161.614 119.584 161.638 119.582L161.969 119.54C161.993 119.538 162.019 119.553 162.022 119.577C162.024 119.6 162.013 119.622 161.989 119.624L161.648 119.667C161.646 119.667 161.645 119.667 161.643 119.667ZM178.021 119.609C178.002 119.609 177.986 119.598 177.979 119.579C177.944 119.466 177.909 119.356 177.875 119.251C177.868 119.229 177.88 119.205 177.903 119.197C177.925 119.19 177.949 119.202 177.957 119.225C177.991 119.33 178.026 119.44 178.061 119.553C178.068 119.575 178.054 119.599 178.032 119.607C178.029 119.608 178.024 119.609 178.021 119.609ZM162.78 119.523C162.759 119.523 162.74 119.507 162.738 119.485C162.735 119.461 162.752 119.44 162.775 119.438L163.117 119.395C163.141 119.393 163.162 119.409 163.165 119.433C163.167 119.456 163.151 119.478 163.127 119.48L162.785 119.523C162.784 119.523 162.783 119.523 162.78 119.523ZM163.918 119.383C163.897 119.383 163.878 119.366 163.876 119.345C163.873 119.321 163.89 119.3 163.913 119.297L164.255 119.256C164.279 119.254 164.3 119.27 164.303 119.294C164.305 119.317 164.289 119.339 164.265 119.341L163.923 119.383C163.922 119.383 163.921 119.383 163.918 119.383ZM165.058 119.244C165.036 119.244 165.018 119.227 165.015 119.206C165.013 119.182 165.029 119.161 165.053 119.159L165.394 119.117C165.418 119.115 165.439 119.131 165.442 119.155C165.444 119.179 165.428 119.2 165.404 119.202L165.063 119.244C165.06 119.244 165.059 119.244 165.058 119.244ZM166.196 119.108C166.174 119.108 166.155 119.092 166.153 119.071C166.15 119.047 166.167 119.026 166.191 119.023L166.532 118.983C166.556 118.981 166.577 118.997 166.58 119.021C166.582 119.045 166.566 119.066 166.542 119.068L166.201 119.108C166.199 119.108 166.197 119.108 166.196 119.108ZM167.335 118.976C167.313 118.976 167.295 118.959 167.292 118.938C167.29 118.914 167.306 118.893 167.33 118.891L167.671 118.852C167.694 118.849 167.717 118.866 167.719 118.889C167.722 118.913 167.705 118.934 167.682 118.937L167.34 118.976C167.338 118.976 167.336 118.976 167.335 118.976ZM168.474 118.846C168.453 118.846 168.434 118.829 168.431 118.807C168.429 118.783 168.445 118.762 168.469 118.759L168.811 118.722C168.834 118.719 168.856 118.735 168.858 118.759C168.861 118.783 168.844 118.804 168.821 118.807L168.479 118.844C168.478 118.846 168.475 118.846 168.474 118.846ZM169.614 118.72C169.593 118.72 169.574 118.704 169.572 118.682C169.569 118.658 169.587 118.636 169.609 118.634L169.951 118.598C169.975 118.595 169.996 118.613 169.999 118.636C170.001 118.66 169.984 118.682 169.961 118.684L169.619 118.72C169.617 118.72 169.616 118.72 169.614 118.72ZM170.754 118.6C170.732 118.6 170.714 118.584 170.711 118.561C170.709 118.538 170.726 118.516 170.75 118.514L171.092 118.479C171.115 118.476 171.137 118.494 171.139 118.518C171.142 118.541 171.124 118.563 171.1 118.565L170.759 118.6C170.757 118.6 170.756 118.6 170.754 118.6ZM177.664 118.519C177.646 118.519 177.629 118.508 177.624 118.49C177.582 118.371 177.545 118.263 177.51 118.166C177.502 118.143 177.514 118.118 177.536 118.111C177.559 118.103 177.584 118.114 177.591 118.137C177.626 118.235 177.664 118.344 177.705 118.462C177.713 118.485 177.701 118.509 177.679 118.518C177.673 118.518 177.668 118.519 177.664 118.519ZM171.895 118.485C171.874 118.485 171.855 118.469 171.853 118.446C171.85 118.422 171.868 118.401 171.892 118.399L172.235 118.365C172.258 118.362 172.28 118.38 172.281 118.404C172.283 118.427 172.266 118.449 172.242 118.45L171.9 118.484C171.898 118.485 171.897 118.485 171.895 118.485ZM173.037 118.376C173.014 118.376 172.996 118.36 172.994 118.337C172.992 118.314 173.009 118.292 173.033 118.291L173.376 118.26C173.399 118.257 173.421 118.275 173.423 118.298C173.425 118.322 173.408 118.344 173.384 118.345L173.041 118.376C173.039 118.376 173.038 118.376 173.037 118.376ZM174.179 118.277C174.156 118.277 174.137 118.26 174.136 118.237C174.134 118.213 174.151 118.193 174.175 118.191C174.291 118.181 174.405 118.172 174.518 118.163C174.542 118.162 174.562 118.18 174.564 118.203C174.567 118.227 174.548 118.247 174.524 118.25C174.412 118.258 174.298 118.267 174.181 118.277C174.181 118.277 174.18 118.277 174.179 118.277ZM175.323 118.191C175.3 118.191 175.282 118.173 175.28 118.151C175.279 118.127 175.297 118.107 175.32 118.104C175.438 118.097 175.552 118.089 175.663 118.082C175.686 118.081 175.707 118.098 175.708 118.122C175.71 118.146 175.692 118.166 175.668 118.167C175.557 118.175 175.443 118.182 175.325 118.19C175.324 118.191 175.323 118.191 175.323 118.191ZM176.467 118.123C176.445 118.123 176.426 118.106 176.424 118.082C176.423 118.058 176.442 118.038 176.466 118.037C176.585 118.032 176.7 118.027 176.81 118.023C176.836 118.022 176.854 118.041 176.855 118.064C176.856 118.088 176.838 118.108 176.814 118.109C176.704 118.113 176.59 118.118 176.471 118.123C176.468 118.123 176.468 118.123 176.467 118.123Z" fill="white"/>
<path d="M167.927 132.023L164.226 132.496C163.742 132.558 163.286 132.249 163.167 131.777L162.284 128.271C162.143 127.712 162.524 127.157 163.099 127.083L167.545 126.514C168.107 126.443 168.61 126.866 168.632 127.43L168.769 131.031C168.788 131.528 168.423 131.959 167.927 132.023Z" fill="#176B65"/>
<path d="M167.387 131.426L164.571 131.786C164.201 131.834 163.856 131.598 163.765 131.239L163.092 128.57C162.985 128.144 163.275 127.721 163.712 127.666L167.096 127.233C167.524 127.178 167.907 127.501 167.923 127.93L168.028 130.672C168.043 131.05 167.766 131.377 167.387 131.426Z" fill="#128B84"/>
<path d="M165.187 103.045C166.059 106.651 166.083 110.18 165.95 111.466C165.9 111.95 165.511 112.328 165.025 112.362C164.473 112.401 163.722 112.451 163.051 112.49C162.314 112.532 161.494 112.065 160.946 111.676C160.667 111.477 160.306 111.788 160.462 112.093C160.731 112.619 161.198 113.034 161.663 113.386C161.942 113.598 162.869 113.975 162.804 114.393C162.784 114.524 162.704 114.639 162.619 114.742C162.103 115.36 161.325 115.691 160.555 115.926C160.458 115.956 160.356 115.988 160.288 116.063C160.269 116.561 161.799 117.113 162.195 117.244C162.787 117.441 163.414 117.524 164.036 117.458C165.576 117.296 166.999 116.233 167.828 114.951C170.046 111.525 171.192 107.386 171.611 104.221C169.547 102.159 166.432 102.683 165.187 103.045Z" fill="url(#paint13_linear_101_14814)"/>
<path d="M171.61 104.548C173.255 92.1195 163.678 82.5641 163.678 82.5641L157.979 89.2077C162.306 94.6007 164.363 99.5418 165.302 103.423C166.547 103.058 169.547 102.485 171.61 104.548Z" fill="#0CAA9E"/>
<path d="M165.165 103.36C165.006 103.36 164.861 103.252 164.822 103.09C163.664 98.305 161.223 93.5692 157.568 89.0124C157.446 88.861 157.47 88.6381 157.622 88.5167C157.773 88.3953 157.996 88.4191 158.117 88.5705C161.838 93.2087 164.324 98.0371 165.507 102.923C165.553 103.112 165.437 103.304 165.247 103.349C165.22 103.358 165.193 103.36 165.165 103.36Z" fill="#176B65"/>
<path d="M87.9906 177.037C87.9919 176.977 87.9881 176.916 87.9719 176.853C87.0555 173.22 82.5062 170.957 82.5062 170.957L80.7036 171.098C79.667 174.3 79.801 176.265 79.9662 177.14C79.9712 177.165 79.9787 177.187 79.985 177.211C81.4735 177.344 84.533 177.43 87.9906 177.037Z" fill="#A0A0A0"/>
<path d="M79.9863 177.21C80.0664 177.501 80.2818 177.729 80.5584 177.787C82.6741 178.231 86.0353 177.873 87.4462 177.689C87.7579 177.648 87.9857 177.36 87.9907 177.036C84.5331 177.43 81.4735 177.344 79.9863 177.21Z" fill="#176B65"/>
<path d="M79.98 168.413L80.7436 172.088C80.8 172.358 81.0065 172.559 81.2569 172.583C81.5636 172.612 82.0005 172.628 82.4399 172.564C82.8342 172.507 83.1084 172.106 83.0383 171.677L82.5075 168.413H79.98Z" fill="url(#paint14_linear_101_14814)"/>
<path d="M95.7974 177.163C93.8069 177.107 92.7766 176.873 92.2446 176.655C92.2433 176.853 92.2446 177.055 92.2508 177.264C92.2571 177.486 92.4223 177.664 92.6264 177.663L103.556 177.593C103.906 177.59 104.108 177.186 103.958 176.867C102.525 176.984 98.8744 177.25 95.7974 177.163Z" fill="#176B65"/>
<path d="M103.957 176.867C103.943 176.839 103.932 176.81 103.913 176.784C102.948 175.436 100.489 172.749 95.6307 171.585L93.2998 171.511C93.2998 171.511 92.262 173.315 92.2419 176.656C92.774 176.874 93.8043 177.108 95.7947 177.165C98.8743 177.25 102.525 176.984 103.957 176.867Z" fill="#A0A0A0"/>
<path d="M92.7654 168.087C92.8017 168.259 93.2874 170.874 93.4752 171.888C93.5203 172.128 93.708 172.306 93.9309 172.319C94.3302 172.341 94.9737 172.344 95.527 172.194C95.8249 172.112 96.0265 171.808 96.0052 171.47L95.7448 167.334L92.7654 168.087Z" fill="url(#paint15_linear_101_14814)"/>
<path d="M91.0002 119.806C91.0002 119.806 94.2062 141.835 96.5196 168.05C96.5622 168.538 96.1741 168.963 95.6946 169.064C94.9873 169.213 93.9495 169.389 93.0883 169.366C92.6288 169.353 92.2458 169.013 92.1681 168.559C91.3795 163.938 85.7561 139.131 84.2802 133.671C84.2802 133.671 82.5851 156.862 83.1272 168.894C83.141 169.193 82.9219 169.452 82.624 169.487C82.1733 169.54 81.451 169.578 80.5321 169.481C80.1828 169.443 79.9024 169.18 79.8523 168.832C79.2915 164.92 76.0592 141.636 76.1969 124.863C76.2044 123.917 77.3073 116.145 77.3073 116.145L91.0002 119.806Z" fill="#2C7CB7"/>
<path d="M76.8241 121.075C76.4948 120.957 76.2645 120.659 76.2282 120.311C75.8013 116.175 73.7382 90.5297 86.7701 79.9802C86.7701 79.9802 87.5175 78.0248 93.6603 82.832C99.8032 87.6379 96.5146 92.6766 95.0436 99.6257C93.2635 108.034 90.1414 114.907 91.5234 120.082C91.6186 120.439 91.4308 120.815 91.084 120.942C86.3119 122.7 81.5586 122.758 76.8241 121.075Z" fill="#128B84"/>
<path d="M91.8528 72.2963C91.849 72.6619 86.645 80.0529 86.645 80.0529C86.645 80.0529 87.5789 81.8918 92.038 83.3866L95.8875 75.4723L91.8528 72.2963Z" fill="url(#paint16_linear_101_14814)"/>
<path d="M95.9502 68.0613C95.9502 68.0613 97.8017 72.3151 97.9256 74.5472C98.0495 76.7792 98.5315 78.2276 95.9502 78.6783C93.3688 79.1277 91.1943 77.8421 90.0163 75.6175C90.0163 75.6175 88.1711 72.1912 88.5842 70.7878C88.9986 69.3845 95.9502 68.0613 95.9502 68.0613Z" fill="url(#paint17_linear_101_14814)"/>
<path d="M90.8988 74.0189L91.0453 73.9538C91.2318 73.8712 91.3119 73.6483 91.218 73.4668C90.8537 72.7633 90.1439 71.1521 91.0615 70.7753C92.2433 70.2909 96.9227 69.3369 97.9317 67.6757C98.9019 66.0796 98.0419 64.0203 96.75 63.4344C96.6636 63.3956 96.561 63.4269 96.5171 63.5108L96.4095 63.7148C96.3356 63.8538 96.1303 63.8338 96.0865 63.681C96.0439 63.5358 95.8512 63.507 95.771 63.636C95.4606 64.133 94.6231 64.9379 92.3822 65.3523C89.1975 65.9406 87.0919 67.2288 87.0393 69.4296C87.0355 69.5698 86.8878 69.6474 86.7677 69.5748C86.5323 69.4321 86.1567 69.3645 85.6535 69.7876C84.7784 70.5224 85.1365 72.4303 87.0543 74.0001C87.1457 74.0752 87.1445 74.2167 87.0456 74.2805C86.6975 74.5071 86.1793 75.0454 87.5225 75.7627C88.9108 76.5051 89.9486 76.4438 90.348 76.3787C90.4469 76.3624 90.5107 76.266 90.4894 76.1683L90.0638 74.2342C90.04 74.1253 90.1226 74.0214 90.2353 74.0214H90.8988V74.0189Z" fill="#494949"/>
<path d="M90.979 74.427C90.979 74.427 90.2729 71.7104 89.0549 72.4716C87.8368 73.234 89.687 75.5161 90.666 75.6175L90.979 74.427Z" fill="url(#paint18_linear_101_14814)"/>
<path d="M95.6357 85.0616L95.995 94.6972C97.014 95.0477 97.9842 95.3206 98.9081 95.5246C99.4865 93.6644 100.758 91.381 101.8 89.6835C97.9717 88.3302 95.6357 85.0616 95.6357 85.0616Z" fill="#128B84"/>
<path d="M114.749 84.8976C109.498 90.5673 105.248 90.9015 101.8 89.6822C100.758 91.3797 99.4853 93.6631 98.9082 95.5234C112.932 98.6155 116.234 85.7226 116.234 85.7226L114.749 84.8976Z" fill="url(#paint19_linear_101_14814)"/>
<path d="M115.813 84.2954C115.813 84.2954 116.418 83.6457 117.538 83.8498C118.657 84.0538 119.654 84.4432 120.352 83.8498C121.05 83.2564 121.295 84.0526 121.295 84.0526L119.206 85.6399L115.813 84.2954Z" fill="url(#paint20_linear_101_14814)"/>
<path d="M114.564 85.4058C114.564 85.4058 114.978 83.6732 116.228 83.9098C117.477 84.1477 120.313 85.69 121.044 85.4058C121.775 85.1216 122.709 84.4419 123.188 84.6822L122.343 85.7325C122.343 85.7325 124.514 84.4807 124.888 85.2493L121.275 87.2823C121.276 87.2823 115.991 86.7528 114.564 85.4058Z" fill="url(#paint21_linear_101_14814)"/>
<path d="M89.8071 97.6728C89.8071 97.6728 99.6806 105.941 110.341 102.334C111.002 102.109 111.726 102.158 112.343 102.484L115.408 104.102C116.695 104.782 118.287 104.335 119.034 103.087C119.46 102.375 119.823 101.561 119.896 100.782L113.898 98.3551L114.34 97.6203C114.34 97.6203 111.412 97.3724 110.646 99.4705C110.646 99.4705 105.069 101.79 95.6633 91.4448C95.6621 91.4448 91.3932 95.074 89.8071 97.6728Z" fill="url(#paint22_linear_101_14814)"/>
<path d="M89.275 97.5877C89.2425 97.5877 89.2099 97.579 89.1811 97.5589C85.0237 94.7497 83.0683 90.2168 83.0495 90.1717C83.0132 90.0853 83.0533 89.9864 83.1396 89.9501C83.226 89.9138 83.3249 89.9539 83.3612 90.039C83.38 90.0841 85.2991 94.5269 89.3714 97.2785C89.449 97.3311 89.4691 97.435 89.4165 97.5138C89.3827 97.5614 89.3288 97.5877 89.275 97.5877Z" fill="#176B65"/>
<path d="M95.4667 91.3046C95.4117 91.3046 95.3566 91.277 95.324 91.227C95.3115 91.2069 94.0409 89.2302 91.6223 84.8988C90.8787 83.5668 89.901 82.7231 88.7167 82.3926C86.7563 81.8443 84.866 82.8958 84.8472 82.9071C84.7658 82.9522 84.6632 82.9246 84.6169 82.8432C84.5705 82.7619 84.5993 82.6592 84.6807 82.6129C84.7621 82.5666 86.7062 81.4787 88.8056 82.0671C90.0812 82.4226 91.1278 83.3202 91.9177 84.7348C94.3301 89.055 95.5957 91.0254 95.6082 91.0442C95.6583 91.1218 95.6357 91.227 95.5581 91.277C95.5306 91.2958 95.498 91.3046 95.4667 91.3046Z" fill="#176B65"/>
<path d="M124.752 160.037C124.387 160.037 124.019 159.862 123.629 159.502C122.11 158.108 121.752 155.931 121.662 153.888C120.935 154.706 120.187 155.503 119.45 156.289L119.176 156.032C120.001 155.153 120.837 154.262 121.643 153.341C121.576 150.59 121.702 147.81 122.019 145.077C122.212 143.411 122.489 141.648 123.211 140.043C123.438 139.536 123.815 138.811 124.459 138.361C125.121 137.898 125.988 137.845 126.567 138.233C127.22 138.673 127.397 139.515 127.474 140.111C127.933 143.679 126.539 146.95 125.29 149.067C124.356 150.649 123.223 152.099 122.023 153.477C122.083 155.551 122.366 157.832 123.882 159.226C124.211 159.529 124.505 159.67 124.778 159.66C125.231 159.644 125.585 159.221 125.873 158.809C127.136 156.999 128.119 155.037 128.805 152.955C128.884 152.337 129.055 151.731 129.318 151.165L129.671 151.289C129.527 151.881 129.361 152.464 129.173 153.039C129.101 153.636 129.123 154.244 129.241 154.835C129.305 155.156 129.576 156.212 130.375 156.365C130.977 156.48 131.57 156.056 132.244 155.033L134.655 151.369L134.417 152.393C134.295 152.92 134.093 154.181 134.857 154.495C135.295 154.675 135.758 154.415 136.247 154.138C136.728 153.868 137.224 153.587 137.776 153.661L137.97 153.687L137.936 153.88C137.81 154.611 137.872 155.51 138.461 155.64C138.846 155.725 139.163 155.432 139.53 155.093C139.843 154.804 140.167 154.505 140.583 154.403L140.671 154.769C140.35 154.847 140.063 155.112 139.785 155.37C139.378 155.747 138.956 156.136 138.379 156.008C137.596 155.836 137.428 154.908 137.534 154.029C137.171 154.05 136.811 154.254 136.43 154.467C135.883 154.775 135.319 155.093 134.711 154.844C134.156 154.615 133.884 154.019 133.925 153.162L132.557 155.242C132.074 155.976 131.315 156.93 130.304 156.737C129.609 156.604 129.074 155.922 128.871 154.912C128.823 154.665 128.789 154.416 128.77 154.166C128.108 155.879 127.24 157.507 126.179 159.027C125.838 159.515 125.406 160.016 124.789 160.038C124.779 160.036 124.765 160.037 124.752 160.037ZM125.662 138.347C125.331 138.347 124.978 138.456 124.675 138.668C124.107 139.064 123.764 139.73 123.554 140.196C122.854 141.755 122.582 143.483 122.392 145.12C122.093 147.698 121.965 150.319 122.01 152.916C123.097 151.646 124.117 150.315 124.967 148.875C126.186 146.808 127.547 143.62 127.103 140.157C126.996 139.326 126.76 138.813 126.359 138.544C126.161 138.412 125.918 138.347 125.662 138.347Z" fill="#176B65"/>
<path d="M116.81 32.2156C116.837 34.9033 114.897 36.9 112.491 36.9251C111.407 36.9363 110.527 36.6184 110.012 35.851L109.279 39.7067L106.456 39.7355L108.526 28.7792L111.2 28.7517L111.045 29.5103C111.67 28.9132 112.503 28.5839 113.368 28.5952C115.106 28.5777 116.783 29.8821 116.808 32.2156H116.81ZM113.957 32.3933C114.018 31.6097 113.433 30.9237 112.649 30.8611C112.57 30.8548 112.49 30.8548 112.411 30.8623C111.297 30.8736 110.505 31.7887 110.519 33.1407C110.459 33.9194 111.042 34.5979 111.82 34.658C111.901 34.6642 111.984 34.663 112.065 34.6554C113.179 34.6442 113.97 33.7291 113.957 32.3921" fill="#0063B2"/>
<path d="M127.753 34.4652L127.478 36.5645C127.037 36.711 126.578 36.7861 126.114 36.7861C124.822 36.7999 124.013 36.2728 123.706 35.4742C123.082 36.3429 122.073 36.8537 121.002 36.8387C119.263 36.8562 117.587 35.5518 117.562 33.2045C117.535 30.5306 119.475 28.5351 121.881 28.5101C122.965 28.4988 123.845 28.8168 124.36 29.5842L124.542 28.6165L127.365 28.5877L126.408 33.6064C126.391 33.7053 126.383 33.8042 126.381 33.9031C126.386 34.3938 126.686 34.5991 127.131 34.5954C127.345 34.5966 127.557 34.554 127.753 34.4702V34.4652ZM123.85 32.2957C123.911 31.512 123.327 30.826 122.542 30.7634C122.463 30.7571 122.383 30.7571 122.304 30.7647C121.19 30.7759 120.399 31.691 120.413 33.043C120.354 33.8217 120.936 34.5002 121.714 34.5603C121.796 34.5666 121.877 34.5653 121.959 34.5578C123.088 34.5465 123.864 33.6314 123.85 32.2944" fill="#0063B2"/>
<path d="M138.91 34.3487L138.635 36.4481C138.194 36.5945 137.733 36.6697 137.27 36.6697C135.978 36.6834 135.171 36.1564 134.865 35.3577C134.241 36.2277 133.23 36.7373 132.16 36.7222C130.423 36.7398 128.744 35.4353 128.72 33.0881C128.692 30.4141 130.633 28.4186 133.039 28.3936C134.123 28.3823 135.003 28.7003 135.518 29.4677L135.7 28.5L138.523 28.4712L137.566 33.4899C137.549 33.5888 137.541 33.6877 137.539 33.7866C137.544 34.2773 137.844 34.4827 138.289 34.4789C138.503 34.4801 138.715 34.4376 138.911 34.3537L138.91 34.3487ZM135.009 32.1805C135.071 31.3968 134.486 30.7108 133.701 30.6482C133.622 30.6419 133.542 30.6419 133.463 30.6495C132.349 30.6607 131.558 31.5758 131.572 32.9278C131.512 33.7065 132.095 34.385 132.872 34.4451C132.954 34.4514 133.036 34.4501 133.118 34.4426C134.247 34.4313 135.023 33.5162 135.009 32.1792" fill="#0063B2"/>
<path d="M146.573 28.2534L146.108 30.7997C145.896 30.7734 145.683 30.7609 145.469 30.7609C144.236 30.7734 143.454 31.3317 143.199 32.6712L142.465 36.4832L139.644 36.5119L141.165 28.4437L143.839 28.4162L143.67 29.31C144.377 28.5726 145.37 28.2659 146.573 28.2534Z" fill="#0063B2"/>
<path d="M92.0205 32.3833C91.7801 33.6189 91.1191 34.2047 90.1677 34.2147C89.6394 34.2899 89.15 33.9231 89.0748 33.3948C89.0623 33.3109 89.0623 33.2258 89.0723 33.1419C89.0773 32.9666 89.0949 32.7926 89.1262 32.6211L89.8159 28.9745L86.993 29.0033L86.2607 32.9191C86.1956 33.2471 86.163 33.5801 86.1668 33.9143C86.1856 35.727 87.3686 36.6358 89.0773 36.6183C89.9111 36.6121 90.7185 36.3266 91.372 35.8071L91.3294 36.0149C91.1041 37.2205 90.5157 37.8652 89.0899 37.8789C88.1247 37.9015 87.177 37.6085 86.3934 37.0452L85.1653 39.0332C86.123 39.7229 87.465 40.0647 89.0385 40.0484C91.8465 40.0196 93.6454 38.724 94.2513 35.538L95.4906 28.9144L92.6677 28.9432L92.0205 32.3833Z" fill="#009E98"/>
<path d="M105.299 34.8157C104.853 34.8207 104.554 34.6154 104.549 34.1234C104.551 34.0232 104.56 33.9243 104.575 33.8254L105.533 28.8067L102.71 28.8355L102.527 29.8032C102.013 29.0346 101.134 28.7178 100.048 28.7291C97.6411 28.7541 95.702 30.7496 95.7295 33.4236C95.7533 35.7708 97.4321 37.0765 99.1697 37.0577C100.24 37.0715 101.25 36.562 101.875 35.6932C102.18 36.4919 102.988 37.0189 104.282 37.0052C104.745 37.0039 105.206 36.9288 105.647 36.7836L105.922 34.6855C105.726 34.7693 105.514 34.8119 105.3 34.8107L105.299 34.8157ZM100.127 34.7769C99.3499 34.852 98.6589 34.2836 98.5838 33.5075C98.5763 33.4261 98.575 33.3447 98.5813 33.2634C98.5675 31.9113 99.3599 30.9962 100.473 30.985C101.257 30.9149 101.948 31.4945 102.018 32.2781C102.025 32.357 102.025 32.4371 102.019 32.516C102.033 33.853 101.255 34.7668 100.127 34.7794" fill="#009E98"/>
<path d="M82.7316 30.851L85.2428 28.3498L85.567 26.6673L76.6075 26.7599L76.2006 29.0371L81.3408 28.9845L79.4329 30.8823L77.3999 30.9036C76.7389 30.9662 76.1581 31.3693 75.8676 31.9664C75.8488 32.0077 75.8313 32.0478 75.8188 32.0879L75.3894 33.018L77.3073 32.998L74.8111 35.4842L74.4868 37.1817L83.8032 37.0853L84.2401 34.8069L78.6981 34.8645L80.6059 32.9667L82.6464 32.9454C83.3074 32.8828 83.8883 32.4797 84.1787 31.8826C84.1887 31.8588 84.1975 31.8375 84.2063 31.8137L84.2113 31.8112L84.6645 30.8297L82.7316 30.851Z" fill="#009E98"/>
</g>
<defs>
<linearGradient id="paint0_linear_101_14814" x1="154.049" y1="41.3879" x2="6.66757" y2="229.991" gradientUnits="userSpaceOnUse">
<stop stop-color="white"/>
<stop offset="1"/>
</linearGradient>
<linearGradient id="paint1_linear_101_14814" x1="67.693" y1="55.5324" x2="151.675" y2="55.5324" gradientUnits="userSpaceOnUse">
<stop stop-color="#DAE3FE"/>
<stop offset="1" stop-color="#E9EFFD"/>
</linearGradient>
<linearGradient id="paint2_linear_101_14814" x1="69.2325" y1="65.941" x2="125.604" y2="65.941" gradientUnits="userSpaceOnUse">
<stop stop-color="#DAE3FE"/>
<stop offset="1" stop-color="#E9EFFD"/>
</linearGradient>
<linearGradient id="paint3_linear_101_14814" x1="67.693" y1="85.2868" x2="151.675" y2="85.2868" gradientUnits="userSpaceOnUse">
<stop stop-color="#DAE3FE"/>
<stop offset="1" stop-color="#E9EFFD"/>
</linearGradient>
<linearGradient id="paint4_linear_101_14814" x1="69.2325" y1="95.6953" x2="125.604" y2="95.6953" gradientUnits="userSpaceOnUse">
<stop stop-color="#DAE3FE"/>
<stop offset="1" stop-color="#E9EFFD"/>
</linearGradient>
<linearGradient id="paint5_linear_101_14814" x1="67.693" y1="115.041" x2="151.675" y2="115.041" gradientUnits="userSpaceOnUse">
<stop stop-color="#DAE3FE"/>
<stop offset="1" stop-color="#E9EFFD"/>
</linearGradient>
<linearGradient id="paint6_linear_101_14814" x1="69.2325" y1="125.45" x2="125.604" y2="125.45" gradientUnits="userSpaceOnUse">
<stop stop-color="#DAE3FE"/>
<stop offset="1" stop-color="#E9EFFD"/>
</linearGradient>
<linearGradient id="paint7_linear_101_14814" x1="112.655" y1="98.1853" x2="129.972" y2="98.1853" gradientUnits="userSpaceOnUse">
<stop stop-color="#FF928E"/>
<stop offset="1" stop-color="#FEB3B1"/>
</linearGradient>
<linearGradient id="paint8_linear_101_14814" x1="150.878" y1="80.3013" x2="155.51" y2="106.966" gradientUnits="userSpaceOnUse">
<stop stop-color="#FF928E"/>
<stop offset="1" stop-color="#FEB3B1"/>
</linearGradient>
<linearGradient id="paint9_linear_101_14814" x1="144.915" y1="70.6419" x2="154.896" y2="74.9813" gradientUnits="userSpaceOnUse">
<stop stop-color="#FF928E"/>
<stop offset="1" stop-color="#FEB3B1"/>
</linearGradient>
<linearGradient id="paint10_linear_101_14814" x1="144.293" y1="72.0724" x2="154.273" y2="76.4117" gradientUnits="userSpaceOnUse">
<stop stop-color="#FF928E"/>
<stop offset="1" stop-color="#FEB3B1"/>
</linearGradient>
<linearGradient id="paint11_linear_101_14814" x1="162.723" y1="171.577" x2="159.229" y2="171.577" gradientUnits="userSpaceOnUse">
<stop stop-color="#FF928E"/>
<stop offset="1" stop-color="#FEB3B1"/>
</linearGradient>
<linearGradient id="paint12_linear_101_14814" x1="184.934" y1="168.665" x2="180.759" y2="168.665" gradientUnits="userSpaceOnUse">
<stop stop-color="#FF928E"/>
<stop offset="1" stop-color="#FEB3B1"/>
</linearGradient>
<linearGradient id="paint13_linear_101_14814" x1="168.517" y1="105.062" x2="159.062" y2="123.245" gradientUnits="userSpaceOnUse">
<stop stop-color="#FF928E"/>
<stop offset="1" stop-color="#FEB3B1"/>
</linearGradient>
<linearGradient id="paint14_linear_101_14814" x1="82.1168" y1="164.876" x2="80.5625" y2="178.441" gradientUnits="userSpaceOnUse">
<stop stop-color="#A22B25"/>
<stop offset="1" stop-color="#C0423C"/>
</linearGradient>
<linearGradient id="paint15_linear_101_14814" x1="94.5657" y1="166.308" x2="93.8677" y2="179.944" gradientUnits="userSpaceOnUse">
<stop stop-color="#A22B25"/>
<stop offset="1" stop-color="#C0423C"/>
</linearGradient>
<linearGradient id="paint16_linear_101_14814" x1="94.923" y1="66.7028" x2="87.2245" y2="89.9863" gradientUnits="userSpaceOnUse">
<stop stop-color="#A22B25"/>
<stop offset="1" stop-color="#C0423C"/>
</linearGradient>
<linearGradient id="paint17_linear_101_14814" x1="103.639" y1="72.6208" x2="86.6447" y2="74.2938" gradientUnits="userSpaceOnUse">
<stop stop-color="#A22B25"/>
<stop offset="1" stop-color="#C0423C"/>
</linearGradient>
<linearGradient id="paint18_linear_101_14814" x1="103.641" y1="72.6396" x2="86.6465" y2="74.3126" gradientUnits="userSpaceOnUse">
<stop stop-color="#A22B25"/>
<stop offset="1" stop-color="#C0423C"/>
</linearGradient>
<linearGradient id="paint19_linear_101_14814" x1="121.682" y1="84.0883" x2="98.9736" y2="95.3844" gradientUnits="userSpaceOnUse">
<stop stop-color="#A22B25"/>
<stop offset="1" stop-color="#C0423C"/>
</linearGradient>
<linearGradient id="paint20_linear_101_14814" x1="121.349" y1="81.2552" x2="113.582" y2="89.3678" gradientUnits="userSpaceOnUse">
<stop stop-color="#A22B25"/>
<stop offset="1" stop-color="#C0423C"/>
</linearGradient>
<linearGradient id="paint21_linear_101_14814" x1="121.79" y1="83.9544" x2="99.0816" y2="95.2505" gradientUnits="userSpaceOnUse">
<stop stop-color="#A22B25"/>
<stop offset="1" stop-color="#C0423C"/>
</linearGradient>
<linearGradient id="paint22_linear_101_14814" x1="131.279" y1="103.121" x2="65.3779" y2="91.204" gradientUnits="userSpaceOnUse">
<stop stop-color="#A22B25"/>
<stop offset="1" stop-color="#C0423C"/>
</linearGradient>
<clipPath id="clip0_101_14814">
<rect width="280" height="177.935" fill="white" transform="translate(0.0898438 0.067749)"/>
</clipPath>
</defs>
</svg>
