<svg width="41" height="41" viewBox="0 0 41 41" fill="none" xmlns="http://www.w3.org/2000/svg">
<path d="M20.6245 2.1571L34.3195 5.20044C35.0812 5.37044 35.6245 6.04544 35.6245 6.8271V23.4721C35.6245 26.8154 33.9528 29.9388 31.1712 31.7921L20.6245 38.8238L10.0778 31.7921C7.29451 29.9371 5.62451 26.8154 5.62451 23.4738V6.8271C5.62451 6.04544 6.16785 5.37044 6.92951 5.20044L20.6245 2.1571ZM20.6245 5.5721L8.95784 8.16377V23.4721C8.95784 25.7004 10.0712 27.7821 11.9262 29.0188L20.6245 34.8188L29.3228 29.0188C31.1778 27.7821 32.2912 25.7021 32.2912 23.4738V8.16377L20.6245 5.57377V5.5721ZM28.0445 14.1938L30.4028 16.5504L19.7962 27.1571L12.7245 20.0854L15.0812 17.7288L19.7945 22.4421L28.0445 14.1921V14.1938Z" fill="#275A9E"/>
</svg>
