<svg width="9" height="12" viewBox="0 0 9 12" fill="none" xmlns="http://www.w3.org/2000/svg">
<path d="M8.76872 11.6874H7.68538V10.604C7.68538 10.173 7.51418 9.75972 7.20943 9.45497C6.90469 9.15023 6.49136 8.97902 6.06038 8.97902H2.81038C2.37941 8.97902 1.96608 9.15023 1.66134 9.45497C1.35659 9.75972 1.18538 10.173 1.18538 10.604V11.6874H0.102051V10.604C0.102051 9.88573 0.387392 9.19685 0.895303 8.68894C1.40321 8.18103 2.09209 7.89569 2.81038 7.89569H6.06038C6.77868 7.89569 7.46755 8.18103 7.97547 8.68894C8.48338 9.19685 8.76872 9.88573 8.76872 10.604V11.6874ZM4.43538 6.81236C4.00859 6.81236 3.58597 6.72829 3.19166 6.56496C2.79735 6.40164 2.43908 6.16224 2.13729 5.86045C1.8355 5.55866 1.5961 5.20038 1.43278 4.80608C1.26945 4.41177 1.18538 3.98915 1.18538 3.56236C1.18538 3.13556 1.26945 2.71294 1.43278 2.31863C1.5961 1.92433 1.8355 1.56605 2.13729 1.26426C2.43908 0.962468 2.79735 0.723074 3.19166 0.559747C3.58597 0.396419 4.00859 0.312355 4.43538 0.312355C5.29734 0.312355 6.12399 0.654765 6.73348 1.26426C7.34298 1.87375 7.68538 2.7004 7.68538 3.56236C7.68538 4.42431 7.34298 5.25096 6.73348 5.86045C6.12399 6.46995 5.29734 6.81236 4.43538 6.81236ZM4.43538 5.72902C5.01002 5.72902 5.56112 5.50075 5.96745 5.09442C6.37378 4.68809 6.60205 4.13699 6.60205 3.56236C6.60205 2.98772 6.37378 2.43662 5.96745 2.03029C5.56112 1.62396 5.01002 1.39569 4.43538 1.39569C3.86075 1.39569 3.30965 1.62396 2.90332 2.03029C2.49699 2.43662 2.26872 2.98772 2.26872 3.56236C2.26872 4.13699 2.49699 4.68809 2.90332 5.09442C3.30965 5.50075 3.86075 5.72902 4.43538 5.72902Z" fill="#888888"/>
</svg>
