<svg width="15" height="17" viewBox="0 0 15 17" fill="none" xmlns="http://www.w3.org/2000/svg">
<path d="M11.2993 1.70298H14.0955C14.2809 1.70298 14.4587 1.79077 14.5897 1.94705C14.7208 2.10333 14.7945 2.31529 14.7945 2.53631V15.8696C14.7945 16.0907 14.7208 16.3026 14.5897 16.4589C14.4587 16.6152 14.2809 16.703 14.0955 16.703H1.51276C1.32736 16.703 1.14956 16.6152 1.01846 16.4589C0.887369 16.3026 0.813721 16.0907 0.813721 15.8696V2.53631C0.813721 2.31529 0.887369 2.10333 1.01846 1.94705C1.14956 1.79077 1.32736 1.70298 1.51276 1.70298H4.30891V0.0363083H5.70699V1.70298H9.90122V0.0363083H11.2993V1.70298ZM13.3964 8.36964H2.2118V15.0363H13.3964V8.36964ZM9.90122 3.36964H5.70699V5.03631H4.30891V3.36964H2.2118V6.70298H13.3964V3.36964H11.2993V5.03631H9.90122V3.36964ZM3.60987 10.0363H5.00795V11.703H3.60987V10.0363ZM7.10507 10.0363H8.50314V11.703H7.10507V10.0363ZM10.6003 10.0363H11.9983V11.703H10.6003V10.0363Z" fill="#9F9F9F"/>
</svg>
