<svg width="21" height="21" viewBox="0 0 21 21" fill="none" xmlns="http://www.w3.org/2000/svg">
<path d="M17.4023 13.1536C17.3633 13.0129 17.4492 12.8176 17.5312 12.677C17.5563 12.6351 17.5837 12.5947 17.6133 12.5559C18.3149 11.5133 18.6903 10.2853 18.6914 9.02856C18.7031 5.427 15.6641 2.50513 11.9062 2.50513C8.62891 2.50513 5.89453 4.7356 5.25391 7.69653C5.15807 8.13539 5.10961 8.58327 5.10938 9.03247C5.10937 12.6379 8.03125 15.6379 11.7891 15.6379C12.3867 15.6379 13.1914 15.4583 13.6328 15.3372C14.0742 15.2161 14.5117 15.0559 14.625 15.0129C14.7411 14.9692 14.8642 14.9467 14.9883 14.9465C15.1237 14.946 15.2578 14.9726 15.3828 15.0247L17.5977 15.8098C17.6462 15.8304 17.6976 15.8435 17.75 15.8489C17.8329 15.8489 17.9124 15.816 17.971 15.7573C18.0296 15.6987 18.0625 15.6193 18.0625 15.5364C18.0598 15.5006 18.0532 15.4653 18.043 15.4309L17.4023 13.1536Z" stroke="#404040" stroke-miterlimit="10" stroke-linecap="round"/>
<path d="M3.16252 9.69263C2.65019 10.613 2.40235 11.6572 2.4464 12.7097C2.49046 13.7621 2.82468 14.7819 3.41213 15.6563C3.50237 15.7926 3.55315 15.8981 3.53752 15.9688C3.5219 16.0395 3.07151 18.3856 3.07151 18.3856C3.06068 18.4405 3.06478 18.4973 3.08341 18.5501C3.10203 18.6028 3.13448 18.6497 3.17737 18.6856C3.2346 18.7312 3.30576 18.7557 3.37893 18.7551C3.41803 18.7552 3.45673 18.7473 3.4926 18.7317L5.6883 17.8723C5.83942 17.8127 6.00801 17.8155 6.15705 17.8801C6.8969 18.1684 7.71487 18.3489 8.53323 18.3489C9.63138 18.35 10.7103 18.0604 11.6602 17.5094" stroke="#404040" stroke-miterlimit="10" stroke-linecap="round"/>
</svg>
