<svg width="38" height="41" viewBox="0 0 38 41" fill="none" xmlns="http://www.w3.org/2000/svg">
<path d="M37.4149 40.9368H0.749023V8.34882C0.749023 6.55971 2.2047 5.10364 3.99443 5.10364H8.2488V15.6753L19.4898 12.5698L29.9153 15.6541V5.10333H34.1703C35.9594 5.10333 37.4152 6.55932 37.4152 8.34851L37.4149 40.9368ZM2.4158 39.2701H35.7489L35.7486 8.3489C35.7486 7.47868 35.0407 6.77049 34.1704 6.77049H31.5822V17.8862L19.4745 14.3037L6.58212 17.8653V6.77049H3.99444C3.12391 6.77049 2.41573 7.4787 2.41573 8.3489L2.4158 39.2701Z" fill="#275A9E"/>
<path d="M9.68335 16.6842C9.04616 16.6842 8.42653 16.4868 7.88967 16.1045C7.05814 15.512 6.58179 14.5871 6.58179 13.5669V4.05225C6.58179 2.33449 7.97943 0.936768 9.69789 0.936768H28.4657C30.1838 0.936768 31.5815 2.33441 31.5815 4.05225V13.4919C31.5815 14.5108 31.0828 15.4666 30.2464 16.0488C29.4106 16.6309 28.3406 16.7679 27.3851 16.4145L19.0845 13.3592L10.736 16.504C10.3868 16.6249 10.032 16.6842 9.68257 16.6842L9.68335 16.6842ZM9.69785 2.6041C8.89867 2.6041 8.24852 3.25397 8.24852 4.05289V13.5676C8.24852 14.0421 8.47039 14.472 8.85699 14.7476C9.24359 15.0236 9.72179 15.0931 10.1712 14.9371L19.0785 11.582L27.9617 14.8519C28.4151 15.0191 28.9 14.9574 29.2938 14.6824C29.6889 14.4073 29.915 13.9739 29.915 13.493V4.05334C29.915 3.25446 29.2651 2.60455 28.4659 2.60455L9.69785 2.6041Z" fill="#275A9E"/>
<path d="M19.0905 13.8142L6.89771 4.08515L7.93692 2.78206L19.0743 11.6692L30.1667 2.54373L31.2253 3.83142L19.0905 13.8142Z" fill="#275A9E"/>
<path d="M18.2501 14.0045H19.9168V40.3618H18.2501V14.0045Z" fill="#275A9E"/>
<path d="M24.9165 23.4333H32.4164V25.1H24.9165V23.4333Z" fill="#275A9E"/>
</svg>
