<svg width="41" height="41" viewBox="0 0 41 41" fill="none" xmlns="http://www.w3.org/2000/svg">
<path d="M36.3124 35.5943C37.65 34.9877 38.7666 33.9886 39.5157 32.691C41.472 29.3028 40.3067 24.9535 36.9184 22.9966C35.2778 22.0488 33.3648 21.7973 31.5333 22.2875C30.533 22.5554 29.6283 23.0326 28.8535 23.6735V17.5295C28.8535 15.6242 27.8129 13.9603 26.2729 13.0663V5.27127C26.2729 2.78109 24.2469 0.755127 21.7567 0.755127H4.98245C2.49227 0.755127 0.466309 2.78109 0.466309 5.27127V36.2391C0.466309 38.7288 2.49227 40.7553 4.98245 40.7553H38.9675L40.4663 37.0082V35.594L36.3124 35.5943ZM19.8213 31.7233V25.2717H27.4313C27.3616 25.3788 27.2881 25.4825 27.2236 25.5942C25.865 27.9479 26.0151 30.7633 27.3676 32.9206C26.8526 34.4981 25.359 35.5943 23.6919 35.5943C21.5571 35.5943 19.8209 33.8581 19.8209 31.7233H19.8213ZM5.62769 23.9813V20.1103H11.4342V14.3039H15.3051V20.1103H18.531V23.9813H15.3051V29.7878H11.4342V23.9813H5.62769ZM38.6881 31.4682C38.6023 31.6637 38.5075 31.8573 38.3983 32.0462C38.29 32.2346 38.1694 32.4135 38.0429 32.5863L28.0521 26.8178C28.1379 26.6223 28.2327 26.4287 28.3419 26.2398C28.4502 26.0514 28.5708 25.8726 28.6973 25.6998L38.6881 31.4682ZM27.668 28.0857L37.1404 33.5546C36.4907 34.1108 35.7242 34.5235 34.874 34.7513C33.3766 35.1525 31.8115 34.9468 30.4682 34.1712C28.2836 32.91 27.2343 30.4353 27.668 28.0857ZM28.2774 34.0774C28.7244 34.5399 29.2379 34.9521 29.822 35.2896C30.0234 35.4057 30.2325 35.4999 30.4407 35.5955H27.0729C27.5608 35.1701 27.975 34.6618 28.2774 34.0774ZM31.8678 23.535C32.3678 23.4008 32.8756 23.3343 33.3802 23.3343C34.386 23.3343 35.3797 23.5981 36.2737 24.1148C38.4574 25.376 39.5067 27.851 39.0729 30.2007L29.6005 24.7317C30.2502 24.1756 31.0175 23.7625 31.8678 23.535L31.8678 23.535ZM27.564 17.5304V23.982H19.822V17.5304C19.822 15.3956 21.5582 13.6594 23.693 13.6594C25.8278 13.6594 27.564 15.3956 27.564 17.5304ZM23.693 12.369C20.847 12.369 18.5317 14.6844 18.5317 17.5304V18.8207H16.5962V13.0142H10.1445V18.8207H4.33807V25.2723H10.1445V31.0788H16.5962V25.2723H18.5317V31.724C18.5317 32.1704 18.5942 32.6007 18.7013 33.0143H1.75748V11.0787H24.9834V12.5387C24.5698 12.4316 24.1394 12.369 23.693 12.369ZM4.98324 2.04643H21.7575C23.5363 2.04643 24.9833 3.49344 24.9833 5.27225V7.20774H23.693V8.49806H24.9833V9.78839H1.75742V8.49806H22.4027V7.20774H1.75742V5.27225C1.75742 3.49344 3.20443 2.04643 4.98324 2.04643ZM4.98324 39.4659C3.20443 39.4659 1.75742 38.0189 1.75742 36.2401V34.3046H19.2299C19.5119 34.7905 19.8713 35.226 20.2907 35.5949H17.2415V37.0091L18.2242 39.4659H4.98324ZM38.0952 39.4659H19.6133L18.5811 36.8853H39.1268L38.0952 39.4659Z" fill="#275A9E"/>
<path d="M21.1116 21.4007H22.4019V22.691H21.1116V21.4007Z" fill="#275A9E"/>
<path d="M21.1116 17.5297V20.1103H22.4019V17.5297C22.4019 16.818 22.9805 16.2394 23.6922 16.2394V14.949C22.2691 14.949 21.1116 16.1066 21.1116 17.5297Z" fill="#275A9E"/>
</svg>
