<svg width="41" height="41" viewBox="0 0 41 41" fill="none" xmlns="http://www.w3.org/2000/svg">
<path d="M34.3361 12.1054C34.6258 12.1684 34.8462 12.414 34.8462 12.7228V14.5559C34.8462 14.9086 34.5565 15.1986 34.2035 15.1986H33.8257L33.6053 15.841C33.4855 16.1811 33.1581 16.4143 32.7927 16.4143H30.6951C30.3297 16.4143 30.0022 16.1811 29.8825 15.841L29.6557 15.1983H29.2778C28.9252 15.1983 28.6352 14.9086 28.6352 14.5557V12.7226C28.6352 12.414 28.8556 12.1684 29.1517 12.1051C28.969 11.2044 28.509 10.3477 27.8226 9.65458C26.695 8.51431 26.1281 6.94596 26.254 5.33959C26.4683 2.63736 28.7547 0.419915 31.4697 0.287691C32.9879 0.212002 34.4368 0.747639 35.539 1.79947C36.6417 2.85191 37.2527 4.2631 37.2527 5.78735C37.2527 7.24262 36.6921 8.60941 35.678 9.6424C34.9848 10.348 34.5249 11.2047 34.3361 12.1054ZM30.758 15.4695H32.7362L32.8307 15.1986H30.6637L30.758 15.4695ZM29.5864 14.2535H33.9014V13.025H29.5864V14.2535ZM34.8903 2.48619C33.9767 1.61675 32.7738 1.17598 31.5201 1.23248C29.2714 1.33949 27.375 3.17901 27.1987 5.41524C27.0917 6.74431 27.5705 8.04821 28.4965 8.9933C29.3531 9.85636 29.9137 10.9398 30.1092 12.0798H33.3723C33.5675 10.9459 34.1345 9.85606 34.9976 8.98053C35.8418 8.12386 36.3014 6.98997 36.3014 5.78667C36.3075 4.52716 35.8037 3.35556 34.8902 2.48612L34.8903 2.48619Z" fill="#275A9E"/>
<path d="M11.8416 35.3244H13.2023V19.4375C13.2023 18.4547 14.0024 17.6484 14.9914 17.6484H37.0826C38.0655 17.6484 38.8717 18.4485 38.8717 19.4375V35.3304H40.2324C40.4908 35.3304 40.7048 35.5447 40.7048 35.8028C40.7048 38.2406 38.7206 40.2247 36.2829 40.2247H15.7848C13.347 40.2247 11.3689 38.2405 11.3689 35.8028C11.3689 35.538 11.5833 35.324 11.8414 35.324L11.8416 35.3244ZM37.9271 19.4375C37.9271 18.9715 37.5492 18.5933 37.0829 18.5933H14.9916C14.5256 18.5933 14.1474 18.9712 14.1474 19.4375V35.3304H37.9269L37.9271 19.4375ZM15.7853 39.2741H36.2834C38.0408 39.2741 39.496 37.9639 39.7228 36.2693H12.3396C12.5789 37.9638 14.0338 39.2741 15.7852 39.2741H15.7853Z" fill="#275A9E"/>
<path d="M16.3079 20.2824H35.7659C36.0243 20.2824 36.2383 20.4967 36.2383 20.7548V33.1709C36.2383 33.4293 36.024 33.6434 35.7659 33.6434H16.3013C16.0429 33.6434 15.8288 33.429 15.8288 33.1709L15.8291 20.7548C15.8355 20.49 16.0432 20.2824 16.3079 20.2824ZM16.7804 32.6978H35.2939V21.2267H16.7744V32.6978H16.7804Z" fill="#275A9E"/>
<path d="M30.3931 26.1467C29.2339 24.9876 27.6844 24.3452 26.034 24.3452C24.3835 24.3452 22.8401 24.9878 21.6749 26.1467C21.5804 26.2412 21.4606 26.2853 21.3411 26.2853C21.2213 26.2853 21.1018 26.2412 21.0073 26.1467C20.8246 25.964 20.8246 25.6615 21.0073 25.4791C22.3491 24.1373 24.1318 23.4004 26.0343 23.4004C27.9367 23.4004 29.7194 24.1373 31.0612 25.4791C31.2439 25.6618 31.2439 25.9643 31.0612 26.1467C30.8782 26.3294 30.5758 26.3294 30.3931 26.1467Z" fill="#275A9E"/>
<path d="M29.7502 26.7889C29.9329 26.9716 29.9329 27.2741 29.7502 27.4565C29.5675 27.6392 29.265 27.6392 29.0826 27.4565C27.4006 25.7745 24.6667 25.7745 22.9849 27.4565C22.8904 27.551 22.7706 27.5951 22.6511 27.5951C22.5313 27.5951 22.4119 27.551 22.3173 27.4565C22.1346 27.2738 22.1346 26.9713 22.3173 26.7889C24.3705 24.7354 27.7027 24.7354 29.7504 26.7889H29.7502Z" fill="#275A9E"/>
<path d="M26.0403 27.1044C26.9538 27.1044 27.8041 27.4571 28.4467 28.0997C28.6294 28.2824 28.6294 28.5849 28.4467 28.7673C28.264 28.95 27.9615 28.95 27.7791 28.7673C26.8531 27.8413 25.228 27.8413 24.302 28.7673C24.2074 28.8618 24.0876 28.9059 23.9682 28.9059C23.8484 28.9059 23.7289 28.8618 23.6344 28.7673C23.4517 28.5846 23.4517 28.2821 23.6344 28.0997C24.27 27.457 25.1268 27.1044 26.0403 27.1044Z" fill="#275A9E"/>
<path d="M26.0403 29.4222C26.6389 29.4222 27.1174 29.9074 27.1174 30.4993C27.1174 31.0915 26.6322 31.5764 26.0403 31.5764C25.4418 31.5764 24.9632 31.0912 24.9632 30.4993C24.9632 29.9074 25.4418 29.4222 26.0403 29.4222Z" fill="#275A9E"/>
<path d="M6.31054 23.4822C6.31054 22.0585 7.46967 20.8933 8.89941 20.8933C10.3294 20.8933 11.4883 22.0524 11.4883 23.4822C11.4883 24.9122 10.3292 26.0711 8.89941 26.0711C7.46967 26.0711 6.31054 24.9122 6.31054 23.4822ZM10.5374 23.4822C10.5374 22.575 9.80049 21.8381 8.89332 21.8381C7.98615 21.8381 7.24924 22.575 7.24924 23.4822C7.24924 24.3894 7.98615 25.1263 8.89332 25.1263C9.80049 25.1263 10.5374 24.3894 10.5374 23.4822Z" fill="#275A9E"/>
<path d="M6.12795 12.0111C6.12795 10.4866 7.3689 9.24565 8.89344 9.24565C10.418 9.24565 11.6589 10.4866 11.6589 12.0111C11.6589 13.5357 10.418 14.7766 8.89344 14.7766C7.3689 14.7763 6.12795 13.5354 6.12795 12.0111ZM10.7202 12.0111C10.7202 11.0034 9.9012 10.1907 8.89975 10.1907C7.89809 10.1907 7.07935 11.0097 7.07935 12.0111C7.07935 13.0128 7.89831 13.8315 8.89975 13.8315C9.90112 13.8315 10.7202 13.0126 10.7202 12.0111Z" fill="#275A9E"/>
<path d="M13.5298 9.01254C13.5298 8.66598 13.8131 8.38264 14.1597 8.38264C14.5062 8.38264 14.7896 8.66598 14.7896 9.01254C14.7896 9.3591 14.5062 9.64243 14.1597 9.64243C13.8131 9.64243 13.5298 9.3591 13.5298 9.01254Z" fill="#275A9E"/>
<path d="M3.63354 8.38222C3.98009 8.38222 4.26343 8.66555 4.26343 9.01211C4.26343 9.35867 3.98009 9.642 3.63354 9.642C3.28698 9.642 3.00364 9.35867 3.00364 9.01211C3.00335 8.66584 3.28698 8.38222 3.63354 8.38222Z" fill="#275A9E"/>
<path d="M3.63354 28.5469C3.98009 28.5469 4.26343 28.8303 4.26343 29.1768C4.26343 29.5234 3.98009 29.8067 3.63354 29.8067C3.28698 29.8067 3.00364 29.5234 3.00364 29.1768C3.00335 28.8303 3.28698 28.5469 3.63354 28.5469Z" fill="#275A9E"/>
<path d="M2.43685 6.13999H15.363C16.3206 6.13999 17.0952 6.91492 17.0952 7.87219V16.231C17.0952 16.4894 16.8809 16.7035 16.6228 16.7035C16.3644 16.7035 16.1504 16.4891 16.1504 16.231L16.1507 7.87219C16.1507 7.43747 15.798 7.08486 15.3633 7.08486H2.43717C2.00245 7.08486 1.64984 7.43751 1.64984 7.87219V30.3169C1.64984 30.7516 2.00249 31.1042 2.43717 31.1042H11.7856C12.044 31.1042 12.2581 31.3185 12.2581 31.5766C12.2581 31.835 12.0438 32.049 11.7856 32.049H2.43717C1.4796 32.049 0.704966 31.2741 0.704966 30.3168V7.87216C0.704966 6.92098 1.4799 6.13966 2.43717 6.13966L2.43685 6.13999Z" fill="#275A9E"/>
<path d="M12.1565 26.8082C12.3204 27.0097 12.2888 27.3122 12.0808 27.4697C11.1673 28.2005 10.065 28.5848 8.89973 28.5848C6.08405 28.5848 3.79103 26.2917 3.79103 23.4761C3.79103 20.6604 6.08413 18.3674 8.89973 18.3674C10.065 18.3674 11.1676 18.7517 12.0808 19.4825C12.2824 19.6464 12.3201 19.9425 12.1565 20.144C11.9927 20.3456 11.6966 20.3833 11.495 20.2197C10.7517 19.6211 9.85094 19.3062 8.89976 19.3062C6.60666 19.3062 4.73585 21.1706 4.73585 23.4701C4.73585 25.7693 6.60028 27.634 8.89976 27.634C9.85094 27.634 10.7453 27.319 11.495 26.7204C11.6969 26.5688 11.9929 26.6068 12.1565 26.8083V26.8082Z" fill="#275A9E"/>
</svg>
