<svg width="41" height="41" viewBox="0 0 41 41" fill="none" xmlns="http://www.w3.org/2000/svg">
<path d="M26.0651 9.25742C27.4882 9.25742 28.6457 8.0999 28.6457 6.67679C28.6457 6.6549 28.6451 6.63301 28.6446 6.60968C29.1117 6.51291 29.553 6.31101 29.9361 6.01925C30.6025 6.52558 31.4329 6.77272 32.2909 6.64569C33.0219 8.22975 34.6005 9.25743 36.3876 9.25743C38.8773 9.25743 40.9038 7.23097 40.9038 4.74133C40.9038 2.25168 38.8773 0.22522 36.3876 0.22522C35.5057 0.22522 34.6463 0.485296 33.9136 0.966599C32.8044 0.0458289 31.0875 0.00719308 29.9361 0.882787C29.3799 0.459401 28.7019 0.225242 28.0006 0.225242C26.2218 0.225242 24.7748 1.67224 24.7748 3.45103C24.7748 3.76267 24.8226 4.07487 24.9153 4.37615C24.0626 4.80271 23.4845 5.68579 23.4845 6.67682C23.4845 8.09993 24.642 9.25742 26.0651 9.25742ZM25.8839 5.40778C26.0973 5.37754 26.282 5.24189 26.3756 5.04661C26.4692 4.85105 26.4582 4.62265 26.3465 4.43746C26.1593 4.12582 26.0651 3.79431 26.0651 3.45099C26.0651 2.38386 26.9334 1.51552 28.0006 1.51552C28.5579 1.51552 29.0729 1.75371 29.4501 2.18516C29.6958 2.46511 30.176 2.46511 30.4216 2.18516C30.7992 1.7537 31.3142 1.51552 31.8715 1.51552C32.4424 1.51552 32.9838 1.77559 33.3574 2.22836C33.4677 2.36258 33.6278 2.44639 33.8012 2.4605C33.9806 2.47865 34.1462 2.41932 34.2779 2.30555C34.8657 1.79691 35.6146 1.5155 36.3876 1.5155C38.1664 1.5155 39.6134 2.9625 39.6134 4.74129C39.6134 6.52009 38.1664 7.96709 36.3876 7.96709C34.9645 7.96709 33.7257 7.05406 33.3058 5.69546C33.2548 5.52957 33.1382 5.39103 32.9838 5.31154C32.8916 5.26517 32.7908 5.24126 32.6897 5.24126C32.6206 5.24126 32.5509 5.25279 32.4838 5.27554C32.2611 5.34956 32.0613 5.38642 31.8715 5.38642C31.3141 5.38642 30.7992 5.14823 30.4219 4.71679C30.1762 4.43683 29.6961 4.43683 29.4504 4.71679C29.0728 5.14824 28.5578 5.38642 28.0224 5.38642C28.0051 5.38383 27.9346 5.37606 27.9173 5.3749C27.7039 5.36713 27.4922 5.45814 27.3617 5.63297C27.2315 5.80722 27.1978 6.03504 27.2712 6.23866C27.3283 6.39419 27.3553 6.53676 27.3553 6.67674C27.3553 7.38842 26.7767 7.96705 26.065 7.96705C25.3533 7.96705 24.7747 7.38842 24.7747 6.67674C24.7747 6.0431 25.2508 5.49731 25.8839 5.40773L25.8839 5.40778Z" fill="#275A9E"/>
<path d="M40.2586 36.3541H39.6135V20.2251C39.6135 19.8683 39.3252 19.5799 38.9683 19.5799H29.9036L27.9849 11.0506C27.9187 10.7565 27.6571 10.5474 27.3553 10.5474H24.7747C24.4728 10.5474 24.2113 10.7565 24.1451 11.0506L23.0973 15.7087H15.7424V13.1281H14.4521V15.7087H13.1618V13.1281H11.8715V15.7087H11.2263C10.8695 15.7087 10.5812 15.997 10.5812 16.3539V24.7409H5.41992V22.1603H4.1296V24.7409H3.48444C3.12759 24.7409 2.83928 25.0292 2.83928 25.3861V36.3538H1.54897C1.19212 36.3538 0.903809 36.6421 0.903809 36.9989V39.5796C0.903809 39.9364 1.19212 40.2247 1.54897 40.2247H40.2585C40.6153 40.2247 40.9036 39.9364 40.9036 39.5796V36.9989C40.9036 36.6421 40.6153 36.3538 40.2585 36.3538L40.2586 36.3541ZM38.3231 20.8703V36.3541H33.678L30.1942 20.8703H38.3231ZM22.6779 23.4509H29.452L29.7424 24.7412H22.3876L22.6779 23.4509ZM22.0972 26.0315H30.0323L30.613 28.6122H21.5159L22.0972 26.0315ZM21.2263 29.9025H30.9037L31.194 31.1928H20.9364L21.2263 29.9025ZM20.6457 32.4831H31.4843L32.3552 36.3541H19.775L20.6457 32.4831ZM25.2908 11.8381H26.8392L29.1618 22.1606H22.9682L25.2908 11.8381ZM22.8069 16.9993L18.4521 36.3541H11.8715V16.9993H22.8069ZM4.12976 26.0315H10.5813V36.3541H4.12976V26.0315ZM39.6135 38.9347H2.19429V37.6444H39.6135V38.9347Z" fill="#275A9E"/>
<path d="M13.162 18.2896H14.4523V19.58H13.162V18.2896Z" fill="#275A9E"/>
<path d="M15.7426 18.2896H17.0329V19.58H15.7426V18.2896Z" fill="#275A9E"/>
<path d="M18.3232 18.2896H19.6136V19.58H18.3232V18.2896Z" fill="#275A9E"/>
<path d="M13.162 20.8703H14.4523V22.1606H13.162V20.8703Z" fill="#275A9E"/>
<path d="M15.7426 20.8703H17.0329V22.1606H15.7426V20.8703Z" fill="#275A9E"/>
<path d="M18.3232 20.8703H19.6136V22.1606H18.3232V20.8703Z" fill="#275A9E"/>
<path d="M13.162 23.4509H14.4523V24.7412H13.162V23.4509Z" fill="#275A9E"/>
<path d="M15.7426 23.4509H17.0329V24.7412H15.7426V23.4509Z" fill="#275A9E"/>
<path d="M18.3232 23.4509H19.6136V24.7412H18.3232V23.4509Z" fill="#275A9E"/>
<path d="M13.162 26.0315H14.4523V27.3219H13.162V26.0315Z" fill="#275A9E"/>
<path d="M15.7426 26.0315H17.0329V27.3219H15.7426V26.0315Z" fill="#275A9E"/>
<path d="M18.3232 26.0315H19.6136V27.3219H18.3232V26.0315Z" fill="#275A9E"/>
<path d="M13.162 28.6122H14.4523V29.9025H13.162V28.6122Z" fill="#275A9E"/>
<path d="M15.7426 28.6122H17.0329V29.9025H15.7426V28.6122Z" fill="#275A9E"/>
<path d="M13.162 31.1928H14.4523V32.4831H13.162V31.1928Z" fill="#275A9E"/>
<path d="M15.7426 31.1928H17.0329V32.4831H15.7426V31.1928Z" fill="#275A9E"/>
<path d="M13.162 33.7734H14.4523V35.0638H13.162V33.7734Z" fill="#275A9E"/>
<path d="M15.7426 33.7734H17.0329V35.0638H15.7426V33.7734Z" fill="#275A9E"/>
<path d="M18.3232 28.6122H19.6136V29.9025H18.3232V28.6122Z" fill="#275A9E"/>
<path d="M20.9039 18.2896H22.1942V19.58H20.9039V18.2896Z" fill="#275A9E"/>
<path d="M5.42004 27.3219H6.71036V28.6122H5.42004V27.3219Z" fill="#275A9E"/>
<path d="M8.00073 27.3219H9.29105V28.6122H8.00073V27.3219Z" fill="#275A9E"/>
<path d="M5.42004 29.9025H6.71036V31.1928H5.42004V29.9025Z" fill="#275A9E"/>
<path d="M8.00073 29.9025H9.29105V31.1928H8.00073V29.9025Z" fill="#275A9E"/>
<path d="M5.42004 32.4831H6.71036V33.7734H5.42004V32.4831Z" fill="#275A9E"/>
<path d="M8.00073 32.4831H9.29105V33.7734H8.00073V32.4831Z" fill="#275A9E"/>
<path d="M35.7426 22.1606H37.0329V23.4509H35.7426V22.1606Z" fill="#275A9E"/>
<path d="M33.1619 22.1606H34.4522V23.4509H33.1619V22.1606Z" fill="#275A9E"/>
<path d="M35.7426 24.7412H37.0329V26.0315H35.7426V24.7412Z" fill="#275A9E"/>
<path d="M33.1619 24.7412H34.4522V26.0315H33.1619V24.7412Z" fill="#275A9E"/>
<path d="M35.7426 27.3219H37.0329V28.6122H35.7426V27.3219Z" fill="#275A9E"/>
<path d="M33.1619 27.3219H34.4522V28.6122H33.1619V27.3219Z" fill="#275A9E"/>
<path d="M35.7426 29.9025H37.0329V31.1928H35.7426V29.9025Z" fill="#275A9E"/>
<path d="M33.1619 29.9025H34.4522V31.1928H33.1619V29.9025Z" fill="#275A9E"/>
<path d="M35.7426 32.4831H37.0329V33.7734H35.7426V32.4831Z" fill="#275A9E"/>
<path d="M33.1619 32.4831H34.4522V33.7734H33.1619V32.4831Z" fill="#275A9E"/>
</svg>
