<svg width="15" height="15" viewBox="0 0 15 15" fill="none" xmlns="http://www.w3.org/2000/svg">
<path d="M11.7744 10.5857C11.6133 10.5857 11.4827 10.7163 11.4827 10.8774V13.9807C11.4827 14.0581 11.452 14.1322 11.3973 14.1869C11.3426 14.2416 11.2684 14.2724 11.1911 14.2724H1.8578C1.6967 14.2724 1.56614 14.1418 1.56614 13.9807V2.72535L2.85244 1.43905H11.1911C11.2685 1.43905 11.3427 1.46981 11.3974 1.5245C11.452 1.57919 11.4828 1.65336 11.4828 1.73071V4.43159C11.4828 4.59258 11.6134 4.72326 11.7745 4.72326C11.9356 4.72326 12.0661 4.59258 12.0661 4.43159V1.73071C12.0661 1.49864 11.974 1.27612 11.8099 1.11195C11.6457 0.947885 11.4232 0.855713 11.1911 0.855713H2.85243C2.69794 0.856396 2.55006 0.91826 2.44113 1.02775L1.15482 2.31405C1.04534 2.42297 0.983471 2.57085 0.982788 2.72536V13.9807C0.982788 14.2128 1.07496 14.4353 1.23902 14.5995C1.4032 14.7635 1.62571 14.8557 1.85779 14.8557H11.1911C11.4231 14.8557 11.6457 14.7635 11.8098 14.5995C11.9739 14.4353 12.0661 14.2128 12.0661 13.9807V10.8774C12.0661 10.8 12.0353 10.7258 11.9806 10.6711C11.9259 10.6164 11.8518 10.5857 11.7744 10.5857Z" fill="#404040"/>
<path d="M4.33694 3.9182V2.45988C4.33694 2.29878 4.20638 2.16821 4.04528 2.16821C3.88418 2.16821 3.75361 2.29878 3.75361 2.45988V3.62654H2.58695C2.42585 3.62654 2.29529 3.75711 2.29529 3.9182C2.29529 4.0793 2.42585 4.20987 2.58695 4.20987H4.04528C4.12264 4.20987 4.19681 4.17911 4.25149 4.12442C4.30618 4.06973 4.33694 3.99556 4.33694 3.9182Z" fill="#404040"/>
<path d="M14.064 5.27454C13.8341 5.05431 13.5262 4.93434 13.208 4.94093C12.8897 4.94743 12.5871 5.08004 12.3665 5.30951L6.42818 11.2478C6.39821 11.2783 6.37531 11.3153 6.36107 11.3557L5.66688 13.2982H5.66699C5.6286 13.4045 5.65514 13.5235 5.73512 13.6034C5.81499 13.6833 5.93393 13.7099 6.04023 13.6715L7.98278 12.9774C8.02323 12.9632 8.06014 12.9403 8.09067 12.9103L14.029 6.98076C14.2611 6.75985 14.3954 6.45529 14.402 6.13493C14.4085 5.81456 14.2868 5.50479 14.0639 5.27452L14.064 5.27454ZM13.0607 7.115L12.2236 6.27795L12.457 6.04462L13.294 6.88167L13.0607 7.115ZM8.00323 12.1725L7.16618 11.3354L12.0166 6.48504L12.8536 7.32209L8.00323 12.1725ZM6.42243 12.9162L6.8891 11.6125L6.95905 11.5426L7.7961 12.3796L7.72615 12.4496L6.42243 12.9162ZM13.6178 6.55792L13.5011 6.67459L12.6641 5.83754L12.7808 5.72087C12.9302 5.57128 13.1482 5.51295 13.3525 5.56764C13.5568 5.62244 13.7163 5.78194 13.7711 5.98623C13.8258 6.19051 13.7674 6.40848 13.6178 6.55795L13.6178 6.55792Z" fill="#404040"/>
<path d="M9.44107 6.10575C9.44107 6.02839 9.41031 5.95422 9.35562 5.89954C9.30094 5.84485 9.22677 5.81409 9.14941 5.81409H4.48277C4.32167 5.81409 4.1911 5.94465 4.1911 6.10575C4.1911 6.26685 4.32167 6.39742 4.48277 6.39742H9.14941C9.22677 6.39742 9.30094 6.36666 9.35562 6.31197C9.41031 6.25728 9.44107 6.18311 9.44107 6.10575Z" fill="#404040"/>
<path d="M3.46197 6.10571C3.46197 6.34736 3.26612 6.54321 3.02447 6.54321C2.78282 6.54321 2.58698 6.34736 2.58698 6.10571C2.58698 5.86406 2.78282 5.66821 3.02447 5.66821C3.26612 5.66821 3.46197 5.86406 3.46197 6.10571Z" fill="#404040"/>
<path d="M4.48277 8.14734C4.32167 8.14734 4.1911 8.27791 4.1911 8.439C4.1911 8.6001 4.32167 8.73067 4.48277 8.73067H7.39942C7.56052 8.73067 7.69108 8.6001 7.69108 8.439C7.69108 8.27791 7.56052 8.14734 7.39942 8.14734H4.48277Z" fill="#404040"/>
<path d="M3.46197 8.43908C3.46197 8.68073 3.26612 8.87658 3.02447 8.87658C2.78282 8.87658 2.58698 8.68073 2.58698 8.43908C2.58698 8.19743 2.78282 8.00159 3.02447 8.00159C3.26612 8.00159 3.46197 8.19743 3.46197 8.43908Z" fill="#404040"/>
</svg>
