<svg width="41" height="41" viewBox="0 0 41 41" fill="none" xmlns="http://www.w3.org/2000/svg">
<path d="M33.9941 1.0807C33.7858 0.872682 33.503 0.755493 33.2085 0.755493L8.76452 0.756423C8.47001 0.756423 8.18728 0.873612 7.97864 1.08163L1.31209 7.74818C0.994327 8.06595 0.899154 8.54364 1.07121 8.95943C1.24327 9.37454 1.64845 9.64518 2.09801 9.64518H4.3202V39.6439C4.3202 40.2577 4.81746 40.7549 5.43129 40.7549H36.5419C37.1557 40.7549 37.6529 40.2577 37.6529 39.6439V9.64518H39.8751C40.3243 9.64518 40.7299 9.37453 40.9019 8.95943C41.074 8.54401 40.9788 8.06595 40.661 7.74818L33.9941 1.0807ZM18.2095 38.5324H10.4318V37.4213H18.2095V38.5324ZM17.0984 35.1991V36.3102H11.5429V35.1991H17.0984ZM12.654 34.0881V27.9771H15.9873V34.0881H12.654ZM35.4314 38.5324H19.3206V36.8658C19.3206 36.5592 19.0716 36.3102 18.765 36.3102H18.2095V34.6436C18.2095 34.337 17.9605 34.0881 17.6539 34.0881H17.0984V27.4215C17.0984 27.1149 16.8494 26.866 16.5428 26.866H12.0985C11.7919 26.866 11.5429 27.1149 11.5429 27.4215V34.0881H10.9874C10.6808 34.0881 10.4318 34.337 10.4318 34.6436V36.3102H9.87628C9.56968 36.3102 9.32074 36.5592 9.32074 36.8658V38.5324H6.54301V9.64484H35.4314V38.5324ZM36.5425 7.42265H4.78113L9.2255 2.97829L32.7489 2.97736L37.1936 7.42268L36.5425 7.42265Z" fill="#275A9E"/>
<path d="M24.3204 20.1996H30.987C31.2936 20.1996 31.5425 19.9506 31.5425 19.644V12.9775C31.5425 12.6709 31.2936 12.4219 30.987 12.4219H24.3204C24.0138 12.4219 23.7649 12.6709 23.7649 12.9775V19.644C23.7649 19.9506 24.0138 20.1996 24.3204 20.1996ZM24.876 13.533H30.4314V19.0885H24.876V13.533Z" fill="#275A9E"/>
<path d="M24.3204 34.6438H30.987C31.2936 34.6438 31.5425 34.3948 31.5425 34.0882V27.4217C31.5425 27.1151 31.2936 26.8661 30.987 26.8661H24.3204C24.0138 26.8661 23.7649 27.1151 23.7649 27.4217V34.0882C23.7649 34.3948 24.0138 34.6438 24.3204 34.6438ZM24.876 27.9772H30.4314V33.5327H24.876V27.9772Z" fill="#275A9E"/>
<path d="M8.76514 23.5329H19.8761C20.1827 23.5329 20.4316 23.2839 20.4316 22.9773V18.5329C20.4316 18.2263 20.1827 17.9774 19.8761 17.9774H18.2094V12.9775C18.2094 12.6709 17.9605 12.4219 17.6539 12.4219H10.9873C10.6807 12.4219 10.4318 12.6709 10.4318 12.9775V17.9774H8.76514C8.45853 17.9774 8.20959 18.2263 8.20959 18.5329V22.9773C8.20959 23.2839 8.45853 23.5329 8.76514 23.5329ZM18.2094 19.644V19.0885H19.3205V22.4218H18.2094V19.644ZM14.8761 22.4218H13.7651V19.0885H14.8761V22.4218ZM17.0983 22.4218H15.9872V19.0885H17.0983V22.4218ZM11.5429 13.533H17.0983V17.9774H11.5429V13.533ZM11.5429 19.0885H12.654V22.4218H11.5429V19.0885ZM9.32069 19.0885H10.4318V22.4218H9.32069V19.0885Z" fill="#275A9E"/>
</svg>
