<svg width="15" height="11" viewBox="0 0 15 11" fill="none" xmlns="http://www.w3.org/2000/svg">
<g clip-path="url(#clip0_567_3947)">
<path d="M8.98155 10.8871C9.03311 10.9085 9.08756 10.9191 9.1435 10.9191C9.25603 10.9191 9.36193 10.8757 9.44307 10.7958L14.3333 5.90527C14.4135 5.82542 14.4574 5.71887 14.4574 5.6057C14.4575 5.49265 14.4136 5.38621 14.3335 5.30592L9.44329 0.415687C9.32329 0.29569 9.13303 0.260459 8.9823 0.323554C8.82313 0.389316 8.7201 0.543159 8.7201 0.715253V3.55898C4.42923 3.69574 1.29142 5.90598 0.689336 9.24562C0.654427 9.44035 0.76204 9.63647 0.948122 9.71333C1.12951 9.7856 1.34515 9.71994 1.45491 9.56077C2.1371 8.57357 3.96461 7.51856 7.0489 7.51856C7.57949 7.51856 8.14042 7.55037 8.72031 7.61283V10.4956C8.72031 10.6671 8.82238 10.8204 8.98156 10.887L8.98155 10.8871ZM7.04877 6.92688C4.26681 6.92688 2.41053 7.76376 1.43264 8.68969C2.28073 5.94326 5.17554 4.18263 9.01902 4.14546L9.31208 4.14237V1.12181L13.7962 5.60536L9.31208 10.0895V7.08722L9.05223 7.0554C8.35626 6.9701 7.68196 6.92676 7.04877 6.92676L7.04877 6.92688Z" fill="white"/>
</g>
<defs>
<clipPath id="clip0_567_3947">
<rect width="14" height="10.6589" fill="white" transform="translate(0.570068 0.276489)"/>
</clipPath>
</defs>
</svg>
