<svg width="25" height="22" viewBox="0 0 25 22" fill="none" xmlns="http://www.w3.org/2000/svg">
<path d="M24.6713 13.6126C24.4878 13.2935 24.1885 13.0576 23.8353 12.9541C23.4821 12.8506 23.1028 12.8874 22.7761 13.057L17.3096 15.3456C17.241 15.0421 17.0836 14.7661 16.8572 14.5526C16.631 14.3392 16.3462 14.198 16.0393 14.1474C13.995 13.808 12.6964 13.574 12.1822 13.4531C11.8625 13.3101 11.564 13.1241 11.295 12.9003C9.96553 11.936 7.74134 10.3288 4.86644 12.386C4.37782 12.7383 3.87648 13.07 3.37501 13.3837C3.18936 13.2569 2.95224 13.2327 2.74487 13.3193L1.20192 14.0186L1.2021 14.0188C1.1056 14.0588 1.02955 14.1363 0.991161 14.2335C0.952956 14.3307 0.955646 14.4393 0.998874 14.5345C1.0421 14.6296 1.1221 14.7031 1.22039 14.7383C1.31887 14.7734 1.4272 14.767 1.52102 14.7207L2.94807 14.0778L5.34211 20.0201L5.3909 20.1435L3.90466 20.7995C3.73839 20.8736 3.64655 21.0538 3.6844 21.2319C3.72224 21.4101 3.87955 21.5374 4.06143 21.5374C4.11667 21.5369 4.17102 21.5247 4.22089 21.5014L5.76384 20.8097C6.02805 20.7014 6.19091 20.4334 6.16491 20.1489C6.65421 20.0549 7.15684 20.0549 7.64614 20.1489L14.0104 21.6531C14.2145 21.701 14.4233 21.7252 14.6328 21.7252C15.1582 21.7254 15.6719 21.5697 16.1089 21.2777C17.8599 20.1154 20.2798 18.3644 22.419 16.8215C23.0825 16.3406 23.7047 15.8828 24.2884 15.4715C24.6552 15.2086 24.8711 14.7837 24.867 14.3324C24.8638 14.0796 24.7965 13.8319 24.6717 13.6124L24.6713 13.6126ZM23.8357 14.8443C23.2597 15.2557 22.6246 15.716 21.9611 16.1969C19.8472 17.7371 17.4199 19.4804 15.6818 20.635C15.241 20.9243 14.6999 21.0174 14.1878 20.8922L7.8079 19.3878C7.17726 19.2712 6.52972 19.28 5.90247 19.4137L3.73981 14.0545C4.25405 13.7254 4.78895 13.3783 5.29819 13.0106C7.72557 11.2724 9.52052 12.5735 10.8295 13.5249C11.1743 13.8188 11.5687 14.0486 11.9943 14.2038C12.5344 14.3272 13.8535 14.5638 15.9157 14.9083C16.1148 14.9365 16.2948 15.0412 16.4177 15.2002C16.5408 15.3591 16.5967 15.5598 16.574 15.7595C16.5618 15.9681 16.4653 16.1629 16.3067 16.299C16.1483 16.4351 15.9413 16.5011 15.7333 16.4821C14.3672 16.3216 12.9942 16.2298 11.6189 16.207H11.5674C11.3545 16.207 11.1818 16.3795 11.1818 16.5926C11.1818 16.8057 11.3545 16.9783 11.5674 16.9783H11.6189C13.3984 16.9783 15.6355 17.2355 15.6766 17.2509H15.7949C16.121 17.255 16.44 17.1557 16.7062 16.9671C16.9722 16.7786 17.1718 16.5106 17.276 16.2018L23.1026 13.7614L23.1334 13.746H23.1336C23.285 13.6669 23.4611 13.6495 23.6251 13.6974C23.789 13.7455 23.928 13.8549 24.013 14.0032C24.0712 14.1078 24.102 14.2255 24.1029 14.3451C24.099 14.5447 23.9996 14.7302 23.8355 14.8441L23.8357 14.8443Z" fill="#404040"/>
<path d="M16.9621 10.9792C18.3594 10.9785 19.699 10.4228 20.6866 9.43443C21.6743 8.44594 22.2289 7.10568 22.2283 5.70856C22.228 4.31127 21.6725 2.97142 20.6843 1.98362C19.696 0.995825 18.3559 0.441039 16.9586 0.441406C15.5613 0.441586 14.2215 0.996743 13.2335 1.98486C12.2457 2.97302 11.6906 4.31288 11.6906 5.71017C11.692 7.10765 12.2479 8.44732 13.2362 9.4353C14.2246 10.4231 15.5645 10.9784 16.962 10.9791L16.9621 10.9792ZM16.9621 1.20774C18.1547 1.20846 19.2984 1.68272 20.1412 2.52647C20.984 3.37022 21.4574 4.51423 21.457 5.70687C21.4565 6.8995 20.9824 8.04315 20.1388 8.88616C19.2953 9.72936 18.1513 10.2027 16.9586 10.2025C15.766 10.2024 14.6223 9.72849 13.779 8.88492C12.9358 8.04154 12.462 6.8979 12.462 5.70507C12.4647 4.51317 12.94 3.37095 13.7836 2.52899C14.6272 1.68685 15.7701 1.21352 16.962 1.21279L16.9621 1.20774Z" fill="#404040"/>
<path d="M14.5399 8.66715C14.6118 8.72706 14.7035 8.75809 14.7969 8.75468C14.9125 8.75432 15.0219 8.70248 15.0952 8.61316L19.4385 3.29306C19.5734 3.12768 19.5486 2.8841 19.3832 2.7492C19.2177 2.61431 18.9743 2.63907 18.8392 2.80444L14.4859 8.125C14.4204 8.20375 14.3894 8.30563 14.3994 8.40751C14.4097 8.50939 14.4602 8.60302 14.5399 8.66742L14.5399 8.66715Z" fill="#404040"/>
<path d="M15.5887 5.05986C15.9141 5.05986 16.2262 4.93054 16.4563 4.70041C16.6863 4.4701 16.8154 4.15783 16.8152 3.83246C16.8151 3.50708 16.6854 3.19497 16.4551 2.96501C16.2247 2.73524 15.9125 2.60628 15.5869 2.60681C15.2616 2.60717 14.9496 2.73703 14.7198 2.96752C14.4901 3.19801 14.3615 3.51046 14.3622 3.83584C14.3627 4.16068 14.4922 4.47204 14.7222 4.70149C14.9521 4.93109 15.2639 5.05986 15.5887 5.05986ZM15.5887 3.38081C15.7727 3.38081 15.9386 3.49166 16.0091 3.6617C16.0796 3.83174 16.0407 4.02761 15.9105 4.15766C15.7803 4.28788 15.5846 4.32681 15.4145 4.25632C15.2445 4.18601 15.1334 4.01991 15.1334 3.83588C15.1334 3.58458 15.3372 3.38081 15.5887 3.38081Z" fill="#404040"/>
<path d="M18.335 6.35844C18.0095 6.35772 17.6972 6.48633 17.4665 6.7161C17.2361 6.94587 17.1064 7.2578 17.1058 7.58318C17.1053 7.90873 17.2343 8.22103 17.4642 8.45131C17.694 8.6818 18.0061 8.8113 18.3317 8.81149C18.657 8.81184 18.9693 8.6827 19.1994 8.45257C19.4296 8.22262 19.5591 7.91032 19.5591 7.58494C19.5583 7.26029 19.4292 6.94906 19.2 6.71929C18.9705 6.48952 18.6597 6.3597 18.335 6.35844ZM18.335 8.03749C18.1505 8.03857 17.9835 7.92808 17.9125 7.75767C17.8412 7.58745 17.8802 7.39104 18.0106 7.26047C18.1412 7.13007 18.3376 7.09132 18.5078 7.16236C18.678 7.23357 18.7887 7.40038 18.7876 7.58495C18.7876 7.70495 18.7399 7.8201 18.655 7.90494C18.5702 7.98979 18.455 8.03749 18.335 8.03749Z" fill="#404040"/>
</svg>
