<svg xmlns="http://www.w3.org/2000/svg" width="249" height="234.749" viewBox="0 0 249 234.749">
  <g id="Partnership-bro" transform="translate(0 0.5)">
    <g id="freepik--Puzzle--inject-251" transform="translate(20.835 47.495)">
      <path id="Path_7527" data-name="Path 7527" d="M159.22,233.536c-6.344-14.4-5.406-37.986-2.465-39.95,3.235-2.155,8.357,8.9,13.484,5.667s8.629-10.249,4.315-21.306-9.977-3.775-14.024-1.091-7.282.273-6.469-9.437c.595-7.162,3.387-20.324,4.816-26.728.644.278,1.287.545,1.92.856-12.671-5.935-26.7-7.822-32.624-5.935s-4.855,2.427-1.893,9.437c6.191,14.624-17.248,19.637-24,8.373-4.042-6.742,1.9-10.527.284-15.382s-31.55.807-35.324,2.967c0,0,7.277,21.819,6.2,29.662S68.585,182,62.923,176.333s-12.944-.545-13.217,8.9,1.347,16.986,7.822,14.831,11.6-9.977,13.751,0-1.636,22.91-3.775,32.09c0,0,16.991,7.282,24.808,6.742s12.677-.807,10.249-5.662-6.475-8.089-3.507-13.484,14.831-4.855,21.033-3.507,8.9,5.935,7.015,11.057-5.127,10.249.807,11.324c5.591,1.02,19.811-1.32,33.819-5.88C160.9,233.012,160.038,233.274,159.22,233.536Z" transform="translate(-49.678 -124.417)" fill="none" stroke="#fff" stroke-miterlimit="10" stroke-width="1"/>
      <path id="Path_7528" data-name="Path 7528" d="M257.743,312.69c-.829.284-1.664.545-2.493.835C256.079,313.252,256.914,312.974,257.743,312.69Z" transform="translate(-143.117 -205.224)" fill="none" stroke="#263238" stroke-miterlimit="10" stroke-width="1"/>
      <path id="Path_7529" data-name="Path 7529" d="M349.626,165.156c-5.122,0-5.395,4.047-10.789,3.24s-5.929-13.217-.267-35.057c0,0-6.2,4.582-20.226,4.855s-19.686-1.353-16.178-6.475,6.2-9.169,3.235-13.211-17.259-3.507-21.819,0-1.347,7.549,1.887,12.131-.545,7.282-5.935,7.555-19.146.545-31.822-5.395c-.633-.3-1.276-.578-1.92-.856-1.429,6.42-4.222,19.582-4.816,26.728-.813,9.709,2.422,12.137,6.469,9.437s9.709-9.977,14.024,1.091.807,18.066-4.315,21.306-10.271-7.817-13.495-5.662c-2.94,1.964-3.878,25.55,2.466,39.95q2.545-.818,5.084-1.636c14.831-5.127,29.662-7.555,32.363-4.047s1.636,2.967-1.887,8.362-3.24,9.977,2.695,12.671,20.493,2.182,21.819-4.042-6.2-9.709-2.695-15.644,34.523,2.684,34.523,2.684-7.009-23.733-4.315-31.555,4.86-5.913,9.175-2.967,9.977,2.7,12.137-5.929S354.748,165.156,349.626,165.156Z" transform="translate(-136.572 -115.673)" fill="none" stroke="#fff" stroke-miterlimit="10" stroke-width="1"/>
    </g>
    <g id="freepik--Chart--inject-251" transform="translate(142.99)">
      <rect id="Rectangle_1027" data-name="Rectangle 1027" width="5.466" height="13.015" transform="translate(0 24.382)" fill="#fff" stroke="#263238" stroke-miterlimit="10" stroke-width="1"/>
      <rect id="Rectangle_1028" data-name="Rectangle 1028" width="5.466" height="16.959" transform="translate(8.057 20.439)" fill="#fff" stroke="#263238" stroke-miterlimit="10" stroke-width="1"/>
      <rect id="Rectangle_1029" data-name="Rectangle 1029" width="5.466" height="13.015" transform="translate(16.113 24.382)" fill="#fff" stroke="#263238" stroke-miterlimit="10" stroke-width="1"/>
      <rect id="Rectangle_1030" data-name="Rectangle 1030" width="5.466" height="17.815" transform="translate(24.175 19.582)" fill="#fff" stroke="#263238" stroke-miterlimit="10" stroke-width="1"/>
      <rect id="Rectangle_1031" data-name="Rectangle 1031" width="5.466" height="24.333" transform="translate(32.232 13.064)" fill="#fff" stroke="#263238" stroke-miterlimit="10" stroke-width="1"/>
      <path id="Path_7535" data-name="Path 7535" d="M288.573,38.355l2.133.911-14.5,13.92-6.927-3.78L258.3,56.077V58.09l11.018-6.7,7.167,3.911L291.9,40.509l.824,2.166,3.049-7.075Z" transform="translate(-258.131 -35.6)" fill="#263238" stroke="#263238" stroke-linecap="round" stroke-linejoin="round" stroke-width="1"/>
    </g>
    <g id="freepik--Calendar--inject-251" transform="translate(80.223 8.901)">
      <rect id="Rectangle_1032" data-name="Rectangle 1032" width="25.522" height="23.995" transform="translate(0 3.927)" fill="#fff" stroke="#263238" stroke-miterlimit="10" stroke-width="1"/>
      <rect id="Rectangle_1033" data-name="Rectangle 1033" width="25.522" height="6.169" transform="translate(0 3.927)" fill="#128b84" stroke="#263238" stroke-linecap="round" stroke-linejoin="round" stroke-width="1"/>
      <rect id="Rectangle_1034" data-name="Rectangle 1034" width="3.055" height="3.055" transform="translate(2.073 13.522)" fill="#128b84" stroke="#263238" stroke-linecap="round" stroke-linejoin="round" stroke-width="1"/>
      <rect id="Rectangle_1035" data-name="Rectangle 1035" width="3.055" height="3.055" transform="translate(6.655 13.522)" fill="#128b84" stroke="#263238" stroke-linecap="round" stroke-linejoin="round" stroke-width="1"/>
      <rect id="Rectangle_1036" data-name="Rectangle 1036" width="3.055" height="3.055" transform="translate(11.231 13.522)" fill="#128b84" stroke="#263238" stroke-linecap="round" stroke-linejoin="round" stroke-width="1"/>
      <rect id="Rectangle_1037" data-name="Rectangle 1037" width="3.055" height="3.055" transform="translate(15.813 13.522)" fill="#128b84" stroke="#263238" stroke-linecap="round" stroke-linejoin="round" stroke-width="1"/>
      <rect id="Rectangle_1038" data-name="Rectangle 1038" width="3.055" height="3.055" transform="translate(20.395 13.522)" fill="#128b84" stroke="#263238" stroke-linecap="round" stroke-linejoin="round" stroke-width="1"/>
      <rect id="Rectangle_1039" data-name="Rectangle 1039" width="3.055" height="3.055" transform="translate(2.073 18.322)" fill="#128b84" stroke="#263238" stroke-linecap="round" stroke-linejoin="round" stroke-width="1"/>
      <rect id="Rectangle_1040" data-name="Rectangle 1040" width="3.055" height="3.055" transform="translate(6.655 18.322)" fill="#128b84" stroke="#263238" stroke-linecap="round" stroke-linejoin="round" stroke-width="1"/>
      <rect id="Rectangle_1041" data-name="Rectangle 1041" width="3.055" height="3.055" transform="translate(11.231 18.322)" fill="#128b84" stroke="#263238" stroke-linecap="round" stroke-linejoin="round" stroke-width="1"/>
      <rect id="Rectangle_1042" data-name="Rectangle 1042" width="3.055" height="3.055" transform="translate(15.813 18.322)" fill="#128b84" stroke="#263238" stroke-linecap="round" stroke-linejoin="round" stroke-width="1"/>
      <rect id="Rectangle_1043" data-name="Rectangle 1043" width="3.055" height="3.055" transform="translate(20.395 18.322)" fill="#128b84" stroke="#263238" stroke-linecap="round" stroke-linejoin="round" stroke-width="1"/>
      <rect id="Rectangle_1044" data-name="Rectangle 1044" width="3.055" height="3.055" transform="translate(2.073 23.122)" fill="#128b84" stroke="#263238" stroke-linecap="round" stroke-linejoin="round" stroke-width="1"/>
      <rect id="Rectangle_1045" data-name="Rectangle 1045" width="3.055" height="3.055" transform="translate(6.655 23.122)" fill="#128b84" stroke="#263238" stroke-linecap="round" stroke-linejoin="round" stroke-width="1"/>
      <rect id="Rectangle_1046" data-name="Rectangle 1046" width="3.055" height="3.055" transform="translate(11.231 23.122)" fill="#128b84" stroke="#263238" stroke-linecap="round" stroke-linejoin="round" stroke-width="1"/>
      <rect id="Rectangle_1047" data-name="Rectangle 1047" width="3.055" height="3.055" transform="translate(15.813 23.122)" fill="#128b84" stroke="#263238" stroke-linecap="round" stroke-linejoin="round" stroke-width="1"/>
      <rect id="Rectangle_1048" data-name="Rectangle 1048" width="3.055" height="3.055" transform="translate(20.395 23.122)" fill="#128b84" stroke="#263238" stroke-linecap="round" stroke-linejoin="round" stroke-width="1"/>
      <rect id="Rectangle_1049" data-name="Rectangle 1049" width="2.182" height="5.891" transform="translate(3.491 0)" fill="#263238"/>
      <rect id="Rectangle_1050" data-name="Rectangle 1050" width="2.182" height="5.891" transform="translate(8.946 0)" fill="#263238"/>
      <rect id="Rectangle_1051" data-name="Rectangle 1051" width="2.182" height="5.891" transform="translate(14.395 0)" fill="#263238"/>
      <rect id="Rectangle_1052" data-name="Rectangle 1052" width="2.182" height="5.891" transform="translate(19.85 0)" fill="#263238"/>
    </g>
    <g id="freepik--Characters--inject-251" transform="translate(50.586 65.132)">
      <path id="Path_7543" data-name="Path 7543" d="M348.691,172.71s.169-6.158,3.72-7.9,3.753,4.02,3.753,4.02,8.122-5.16,9.884-1.249-.7,5.8-.7,5.8,7.211-.251,7.713,3.7-3.224,5.891-3.224,5.891,4.456,3.638,2.891,5.318-4.991,1.8-4.991,1.8,1.942,3.9-1.445,5.286-7.26-1.195-7.26-1.195.6,1.789-1.942,1.336a8.261,8.261,0,0,1-6.687-5.367C348.828,186.423,346.793,175.857,348.691,172.71Z" transform="translate(-214.992 -155.493)" fill="#263238" stroke="#263238" stroke-linecap="round" stroke-linejoin="round" stroke-width="1"/>
      <path id="Path_7544" data-name="Path 7544" d="M278.668,397.62s-2.024,7.724-1.991,8.58-.671,2.8-.076,3.349a28.548,28.548,0,0,0,3.529,2.46,2.667,2.667,0,0,0,1.418-.431,1.331,1.331,0,0,0,.442-.971,13.533,13.533,0,0,0-.922-1.784c-.109-.284,1.489-3.976,2.095-5.815a32.727,32.727,0,0,0,.971-5.007Z" transform="translate(-182.464 -261.464)" fill="#bdbdbd" stroke="#263238" stroke-miterlimit="10" stroke-width="1"/>
      <path id="Path_7545" data-name="Path 7545" d="M282.391,407.48s-1.151,2.727-1.227,3.2-1.636,1.778-1.429,2.826,2.509.769,3.644-2.329" transform="translate(-183.988 -265.946)" fill="#bdbdbd" stroke="#263238" stroke-miterlimit="10" stroke-width="1"/>
      <path id="Path_7546" data-name="Path 7546" d="M287.147,320.7s-.965,15.753-1.331,17.144-4.751,14.095-5.716,18a53,53,0,0,0-1.26,7.353l5.886,1.238,3.305-14.52s4.32-13.233,3.442-19.435a18.546,18.546,0,0,0-4.326-9.78Z" transform="translate(-183.591 -226.501)" fill="#128b84" stroke="#263238" stroke-miterlimit="10" stroke-width="1"/>
      <path id="Path_7547" data-name="Path 7547" d="M319.781,426.331c.071-3.426.213-8.046.545-10.691.545-4.571,2.5-7.4,4.506-13.091a50.568,50.568,0,0,0,2.182-13.178l-35.946,1.255s-4.167,15.453-6.693,26.821a46.142,46.142,0,0,0-1.195,8.886" transform="translate(-185.563 -257.714)" fill="#0763b2" stroke="#263238" stroke-miterlimit="10" stroke-width="1"/>
      <path id="Path_7548" data-name="Path 7548" d="M306.27,401.063l29.908.84.633-2.313Z" transform="translate(-196.058 -262.36)" fill="#263238" stroke="#263238" stroke-linecap="round" stroke-linejoin="round" stroke-width="1"/>
      <path id="Path_7549" data-name="Path 7549" d="M303,432.085s-.589-18.7-.605-28.855" transform="translate(-194.295 -264.014)" fill="#fff" stroke="#263238" stroke-miterlimit="10" stroke-width="1"/>
      <path id="Path_7550" data-name="Path 7550" d="M320.14,247.9l4.364,2.935s5.166,4.615,6.437,8.433.349,26.493-.933,33.819,1.92,16.451,3.06,21.6,1.636,14.728,1.636,14.728.807,1.124-13.2,1.609-23.777,1.216-24.922,1.445a14.013,14.013,0,0,1-2.1.267l-.545-4.975-1.358,4.1-2.907-.665s1.806-8.9,2.258-12.371,3.311-15.273,3.349-19.713-3.671-11.586-4.4-15.982.736-11.935,4.364-17.629,6.06-7.9,13.151-13.713S320.14,247.9,320.14,247.9Z" transform="translate(-188.513 -193.273)" fill="#128b84" stroke="#263238" stroke-miterlimit="10" stroke-width="1"/>
      <path id="Path_7551" data-name="Path 7551" d="M324.69,367.546l14.635,1.658-.824-3.829-9.131-.786" transform="translate(-204.431 -246.451)" fill="none" stroke="#263238" stroke-miterlimit="10" stroke-width="1"/>
      <path id="Path_7552" data-name="Path 7552" d="M314.692,364.2l-.742,2.509,3.671.415" transform="translate(-199.549 -246.274)" fill="none" stroke="#263238" stroke-miterlimit="10" stroke-width="1"/>
      <path id="Path_7553" data-name="Path 7553" d="M323.807,316.5a16.26,16.26,0,0,1-1.887-2.078" transform="translate(-203.172 -223.647)" fill="none" stroke="#263238" stroke-miterlimit="10" stroke-width="1"/>
      <path id="Path_7554" data-name="Path 7554" d="M332.015,323.928s-1.544-1.167-3.235-2.618" transform="translate(-206.29 -226.779)" fill="none" stroke="#263238" stroke-miterlimit="10" stroke-width="1"/>
      <path id="Path_7555" data-name="Path 7555" d="M321.231,247.9s-4.653-1.936-11.744,3.884-9.518,8.029-13.162,13.713a30.791,30.791,0,0,0-4.255,11.515c.087.425.18.856.284,1.3,2.029,8.575,4.287,12.72,4.287,12.72s3.927-19.539,10.762-27.459,18.186-12.737,18.186-12.737Z" transform="translate(-189.604 -193.272)" fill="#128b84" stroke="#263238" stroke-miterlimit="10" stroke-width="1"/>
      <path id="Path_7556" data-name="Path 7556" d="M306,176.166s-5.122,4.784-5.5,8.553-.78,7.02-1.418,8.237-3.856,2.013-2.766,3.851,2.111,1.8,2.111,1.8,1.636,8.133,2.88,9.273,5.646.485,5.646.485l1.364,9.862s-9.158,8.122-10.942,19.44.256,17.777.256,17.777,1.195-17.831,5.318-24.508,13.7-13,15.115-14.138a26.14,26.14,0,0,1,5-2.531,31.249,31.249,0,0,1-1.931-5.542,13.763,13.763,0,0,1,.169-4.953c.322-.693,6.044-2.771,8.182-9.327s-1.009-14.3-4.364-17.591S310.288,171.923,306,176.166Z" transform="translate(-191.431 -159.648)" fill="#ffbe9d" stroke="#263238" stroke-miterlimit="10" stroke-width="1"/>
      <path id="Path_7557" data-name="Path 7557" d="M337.181,194.459c2.182-6.546-1.009-14.3-4.364-17.591s-14.842-4.942-19.129-.7c0,0-.273.256-.7.7a11.831,11.831,0,0,1,4.98-.164c3.431.545,3.355,3.273,2.422,5.886s-.229,3.076,1.522,4.364-.044,3.758,1.189,4.74,2.236-4.364,4.909-.513.878,5.6-.791,6.676a12.507,12.507,0,0,1-3.016,1.473,19.707,19.707,0,0,0,5.018,4.184C330.418,202.625,335.24,200.35,337.181,194.459Z" transform="translate(-199.113 -159.651)" fill="#263238" stroke="#263238" stroke-linecap="round" stroke-linejoin="round" stroke-width="1"/>
      <path id="Path_7561" data-name="Path 7561" d="M316,236l4.26-1.6-2.967,5.329Z" transform="translate(-200.481 -187.275)" fill="#263238" stroke="#263238" stroke-miterlimit="10" stroke-width="1"/>
      <path id="Path_7562" data-name="Path 7562" d="M288.856,380.87,283.27,404.4l5.013,1.167,2.76-17.2Z" transform="translate(-185.604 -253.851)" fill="#fff" stroke="#263238" stroke-miterlimit="10" stroke-width="1"/>
      <path id="Path_7563" data-name="Path 7563" d="M300.078,277.61a28.843,28.843,0,0,0-2.247,7.337c-1.784,11.313.256,17.777.256,17.777s1.184-17.591,5.236-24.366A14.65,14.65,0,0,1,300.078,277.61Z" transform="translate(-191.89 -206.916)" fill="#fff" stroke="#263238" stroke-miterlimit="10" stroke-width="1"/>
      <path id="Path_7564" data-name="Path 7564" d="M304.769,276.98l-.382,19.964L269.45,302.7l.764,9.409s19.391.382,28.413-.387,16.909-1.342,18.044-2.3,4.424-19.517,5.766-32.57-1.342-17.455-6.715-16.7" transform="translate(-179.323 -198.944)" fill="#128b84" stroke="#263238" stroke-miterlimit="10" stroke-width="1"/>
      <path id="Path_7565" data-name="Path 7565" d="M228.8,335.936l-2.8,8.487,2.727,1.484s3.464,2.684,5.362,4.135,3.355,1.451,4.364,1,5.586-6.927,6.142-8.155-2.122-4.909-4.8-6.48a8.025,8.025,0,0,0-6.48-1.091A29,29,0,0,1,228.8,335.936Z" transform="translate(-159.573 -233.021)" fill="#ffbe9d" stroke="#263238" stroke-miterlimit="10" stroke-width="1"/>
      <path id="Path_7566" data-name="Path 7566" d="M251.691,337.271l-4.418-.382a28.638,28.638,0,0,0-4.222-.769c-1.151,0-2.689,1.151-3.458,1.729s-9.213,9.791-9.213,9.791.769,1.533,1.92,1.151,3.273-1.347,3.273-1.347-2.3,2.307-1.151,3.458a4.868,4.868,0,0,0,3.071,1.151l1.347-.769a5.307,5.307,0,0,0,1.915.96,6.213,6.213,0,0,0,3.818-.96c1.32-.769,4.751-4.773,4.751-4.773l2.945-1.14Z" transform="translate(-161.564 -233.51)" fill="#ffbe9d" stroke="#263238" stroke-miterlimit="10" stroke-width="1"/>
      <path id="Path_7567" data-name="Path 7567" d="M233.92,335.265s5.586-3.24,8.04-2.345,5.7,6.366,4.806,7.151a2.394,2.394,0,0,1-3.126-.338,13.014,13.014,0,0,0-2.122-1.565,10.517,10.517,0,0,1-4.806,1.342" transform="translate(-163.173 -231.985)" fill="#ffbe9d" stroke="#263238" stroke-miterlimit="10" stroke-width="1"/>
      <path id="Path_7568" data-name="Path 7568" d="M262.439,357.883l-1.773-.949a1.227,1.227,0,0,1-.507-1.664h0a1.227,1.227,0,0,1,1.664-.5l1.773.944a1.233,1.233,0,0,1,.507,1.664h0A1.233,1.233,0,0,1,262.439,357.883Z" transform="translate(-175.033 -241.92)" fill="#ffbe9d" stroke="#263238" stroke-miterlimit="10" stroke-width="1"/>
      <path id="Path_7569" data-name="Path 7569" d="M259.58,361.4l-1.773-.949a1.233,1.233,0,0,1-.507-1.636h0a1.233,1.233,0,0,1,1.636-.5l1.773.944a1.227,1.227,0,0,1,.507,1.636h0A1.227,1.227,0,0,1,259.58,361.4Z" transform="translate(-173.74 -243.535)" fill="#ffbe9d" stroke="#263238" stroke-miterlimit="10" stroke-width="1"/>
      <path id="Path_7570" data-name="Path 7570" d="M256.291,364.432l-1.773-.949a1.222,1.222,0,0,1-.5-1.664h0a1.227,1.227,0,0,1,1.664-.5l1.773.949a1.227,1.227,0,0,1,.5,1.664h0a1.227,1.227,0,0,1-1.664.5Z" transform="translate(-172.24 -244.897)" fill="#ffbe9d" stroke="#263238" stroke-miterlimit="10" stroke-width="1"/>
      <path id="Path_7571" data-name="Path 7571" d="M250.48,365.167l-.464-.245a1.227,1.227,0,0,1-.507-1.664h0a1.233,1.233,0,0,1,1.664-.507l.464.251a1.227,1.227,0,0,1,.507,1.664h0a1.227,1.227,0,0,1-1.664.5Z" transform="translate(-170.193 -245.549)" fill="#ffbe9d" stroke="#263238" stroke-miterlimit="10" stroke-width="1"/>
      <path id="Path_7572" data-name="Path 7572" d="M211.594,328.421,188.15,318.51l.867,15.529,19.359,4.435Z" transform="translate(-142.369 -225.506)" fill="#128b84" stroke="#263238" stroke-linecap="round" stroke-linejoin="round" stroke-width="1"/>
      <path id="Path_7573" data-name="Path 7573" d="M222.626,345.524l3.218-10.053-3.278-1.451-.065.333-3,10.413Z" transform="translate(-156.619 -232.556)" fill="#fff" stroke="#263238" stroke-miterlimit="10" stroke-width="1"/>
      <path id="Path_7574" data-name="Path 7574" d="M164,222.8l6,2.787s2.52,7.14,1.68,7.347-7.14-4.827-7.14-4.827Z" transform="translate(-131.392 -182.003)" fill="#fff" stroke="#263238" stroke-linecap="round" stroke-linejoin="round" stroke-width="1"/>
      <path id="Path_7575" data-name="Path 7575" d="M153.895,187.375l.42-2.406s5.564.382,7.789.365,4.167-.3,4.151-2.662-1.315-10.418-1.315-10.418,2.5-.573,3.464-1.691-.431-2.5-1.691-4.162A10.741,10.741,0,0,1,164.177,161c-.147-1.947-3.529-8.318-3.529-8.318s.545-.976-1.271-3.049-11.133-2.433-17.095.545-7.32,7.277-7.293,12,2.727,11.384,2.727,11.384-1.762,7.238-1.9,7.637-1.718,3.5-1.718,3.5,7.457,5.2,10.178,7.533,8.869,6.327,8.907,4.167.284-7.037.284-7.037Z" transform="translate(-117.801 -148.006)" fill="#ffbe9d" stroke="#263238" stroke-linecap="round" stroke-linejoin="round" stroke-width="1"/>
      <path id="Path_7578" data-name="Path 7578" d="M167,182.673c0-2.367-1.315-10.418-1.315-10.418s-1.533-.824-4.451-.115-3.715,5.455-4.271,6-4.184-2.727-5.591-4.969a21.246,21.246,0,0,1-2.553-8.318c-.153-2.242,5.122-3.371,5.946-5.455s-3.066-4.3-1.707-5.695,4.167-.856,5.558-.589a4.909,4.909,0,0,0,2.776-.436s.545-.976-1.271-3.049-11.133-2.433-17.095.545-7.32,7.277-7.293,12c.027,3.818,1.795,8.924,2.46,10.724a4.516,4.516,0,0,0,1.784.371c.545-.142.96-1.811,1.227-3.486s4.287-3.638,4.287-3.638.725,5,.731,5.973-.545,5.842,2.138,8.182a50.048,50.048,0,0,0,6.7,4.686s5.564.382,7.789.365S167.012,185.035,167,182.673Z" transform="translate(-118.542 -148.006)" fill="#263238" stroke="#263238" stroke-linecap="round" stroke-linejoin="round" stroke-width="1"/>
      <path id="Path_7579" data-name="Path 7579" d="M150.589,182.259s-1.156-6.666-3.1-6.376-3.044,2.8-2.051,6,2.94,2.9,4.047,2.618" transform="translate(-122.787 -160.673)" fill="#ffbe9d" stroke="#263238" stroke-linecap="round" stroke-linejoin="round" stroke-width="1"/>
      <path id="Path_7580" data-name="Path 7580" d="M180.22,196.85s1.118,1.385,4.036,1.369" transform="translate(-138.765 -170.207)" fill="none" stroke="#fff" stroke-linecap="round" stroke-linejoin="round" stroke-width="1"/>
      <path id="Path_7581" data-name="Path 7581" d="M119.246,419.195H148.7c.1-1.549,1.244-7.506,1.244-11.411,0-4.511,3.1-33.612,3.1-33.612l-38.308-.5,1.255,17.809Z" transform="translate(-109.002 -250.578)" fill="#263238" stroke="#263238" stroke-linecap="round" stroke-linejoin="round" stroke-width="1"/>
      <path id="Path_7582" data-name="Path 7582" d="M118.282,217.13s-6.715,8.613-8.607,13.44-3.36,5.667-2.94,11.755,3.366,30.442,3.366,30.442l-5.88,31.708a64.426,64.426,0,0,0,21.628,3.775c12.175,0,17.455-1.047,18.268-1.467s8.182-2.307,8.182-2.307,0-35.9-2.313-48.29-5.247-21.819-6.295-24.148-4.413-9.867-4.413-9.867Z" transform="translate(-104.22 -179.425)" fill="#128b84" stroke="#263238" stroke-linecap="round" stroke-linejoin="round" stroke-width="1"/>
      <path id="Path_7583" data-name="Path 7583" d="M152.811,232.038c-1.053-2.307-4.413-9.867-4.413-9.867l-21.011-5.04s-1.418,1.822-3.136,4.26c4.576,2.656,15.906,9.224,16.577,9.387a33.854,33.854,0,0,0,5.04-.207l-1.876,2.307s5.04,3.993,6.72,5.667c.884.884,3.447,3.218,5.684,5.236A91.14,91.14,0,0,0,152.811,232.038Z" transform="translate(-113.324 -179.425)" fill="#128b84" stroke="#263238" stroke-linecap="round" stroke-linejoin="round" stroke-width="1"/>
      <path id="Path_7584" data-name="Path 7584" d="M158.9,231.867l7.14,5.667,5.875,10.5-3.775-15.328-7.767-4.407Z" transform="translate(-129.074 -184.502)" fill="#fff" stroke="#263238" stroke-linecap="round" stroke-linejoin="round" stroke-width="1"/>
      <path id="Path_7585" data-name="Path 7585" d="M130.1,209.82l21.982,9.906v7.767L126.95,214.647Z" transform="translate(-114.552 -176.103)" fill="#fff" stroke="#263238" stroke-linecap="round" stroke-linejoin="round" stroke-width="1"/>
      <rect id="Rectangle_1053" data-name="Rectangle 1053" width="37.986" height="30.737" transform="translate(6.633 113.175)" fill="#128b84" stroke="#263238" stroke-miterlimit="10" stroke-width="1"/>
      <path id="Path_7586" data-name="Path 7586" d="M148.188,382.35s2.826,3.682,3.933,4.053a4.364,4.364,0,0,1,2.182,1.964c.491.736,1.091,6.262,1.473,6.633s.371,1.227-.982.611-2.182-2.727-2.182-2.727l.491,4.909s1.091.245.245.862-1.6,1.473-2.335,1.091a11.744,11.744,0,0,1-1.838-1.353,5.9,5.9,0,0,1-2.727.245c-1.347-.245-1.091.246-2.329-.616s-1.233.125-1.844-1.473a75.525,75.525,0,0,1-2.335-8.727c-.245-1.6-.491-3.818-.491-3.818Z" transform="translate(-120.233 -254.523)" fill="#fff" stroke="#263238" stroke-linecap="round" stroke-linejoin="round" stroke-width="1"/>
      <path id="Path_7587" data-name="Path 7587" d="M147.885,378.07l.856,3.807-10.56,1.473-.491-3.807Z" transform="translate(-119.433 -252.578)" fill="#fff" stroke="#263238" stroke-linecap="round" stroke-linejoin="round" stroke-width="1"/>
      <path id="Path_7588" data-name="Path 7588" d="M123.729,231s-7.347,2.307-7.555,5.667-2.646,44.112-1.593,46.839,11.378,30.366,11.378,30.366l11.968-1.467s-6.131-32.052-6.327-32.684,4.113-36.339,4.113-36.339" transform="translate(-108.81 -185.73)" fill="#128b84" stroke="#263238" stroke-linecap="round" stroke-linejoin="round" stroke-width="1"/>
      <path id="Path_7589" data-name="Path 7589" d="M148.676,272.5l-2.706,26.084,2.58,16.206" transform="translate(-123.197 -204.593)" fill="none" stroke="#263238" stroke-linecap="round" stroke-linejoin="round" stroke-width="1"/>
      <line id="Line_116" data-name="Line 116" x1="0.142" y2="1.385" transform="translate(25.751 63.914)" fill="none" stroke="#263238" stroke-linecap="round" stroke-linejoin="round" stroke-width="1"/>
      <line id="Line_117" data-name="Line 117" x1="0.807" y2="24.491" transform="translate(5.711 59.878)" fill="none" stroke="#263238" stroke-linecap="round" stroke-linejoin="round" stroke-width="1"/>
      <path id="Path_7590" data-name="Path 7590" d="M162.676,341.945l8.073-.295.725,2.907-13.375.856" transform="translate(-128.71 -236.024)" fill="none" stroke="#263238" stroke-linecap="round" stroke-linejoin="round" stroke-width="1"/>
      <line id="Line_118" data-name="Line 118" y1="0.153" x2="4.298" transform="translate(27.241 106.008)" fill="none" stroke="#263238" stroke-linecap="round" stroke-linejoin="round" stroke-width="1"/>
      <path id="Path_7591" data-name="Path 7591" d="M127.52,226.21l14.809,8.695,5.04-.207L145.477,237l9.758,7.773" transform="translate(-114.811 -183.552)" fill="none" stroke="#263238" stroke-linecap="round" stroke-linejoin="round" stroke-width="1"/>
    </g>
    <g id="freepik--Table--inject-251" transform="translate(0 233.749)">
      <line id="Line_119" data-name="Line 119" x2="249" fill="none" stroke="#263238" stroke-miterlimit="10" stroke-width="1"/>
    </g>
    <g id="freepik--lines-1--inject-251" transform="translate(125.262 7.354)">
      <line id="Line_120" data-name="Line 120" y2="36.868" fill="none" stroke="#263238" stroke-miterlimit="10" stroke-width="1"/>
    </g>
  </g>
</svg>
