<?xml version="1.0" encoding="utf-8"?>
<!-- Generator: Adobe Illustrator 26.3.1, SVG Export Plug-In . SVG Version: 6.00 Build 0)  -->
<svg version="1.1" id="Layer_1" xmlns="http://www.w3.org/2000/svg" xmlns:xlink="http://www.w3.org/1999/xlink" x="0px" y="0px"
	 viewBox="0 0 231 212" style="enable-background:new 0 0 231 212;" xml:space="preserve">
<style type="text/css">
	.st0{clip-path:url(#SVGID_00000166672198680227171830000005436320407133766536_);}
	.st1{fill:#FFFFFF;}
	.st2{fill:#E6E6E6;}
	.st3{fill:#E0E0E0;}
	.st4{opacity:0.1;enable-background:new    ;}
	.st5{opacity:0.2;enable-background:new    ;}
	.st6{fill:#EBEBEB;}
	.st7{fill:#128B84;}
	.st8{opacity:0.5;}
	.st9{opacity:0.1;fill:#FFFFFF;enable-background:new    ;}
	.st10{fill:#FFA8A7;}
	.st11{fill:#37474F;}
	.st12{fill:#0763B2;}
	.st13{fill:#263238;}
	.st14{fill:#FFBE9D;}
	.st15{fill:#455A64;}
	.st16{opacity:0.566;fill:#128B84;enable-background:new    ;}
	.st17{opacity:0.2;fill:#128B84;enable-background:new    ;}
	.st18{opacity:0.3;enable-background:new    ;}
	.st19{opacity:0.15;fill:#FFFFFF;enable-background:new    ;}
	.st20{opacity:0.2;fill:#FFFFFF;enable-background:new    ;}
	.st21{fill-rule:evenodd;clip-rule:evenodd;fill:#EBEBEB;enable-background:new    ;}
</style>
<g>
	<defs>
		<rect id="SVGID_1_" x="0.2" y="0.9" width="230" height="210.2"/>
	</defs>
	<clipPath id="SVGID_00000021116453060551651070000013818919355949005979_">
		<use xlink:href="#SVGID_1_"  style="overflow:visible;"/>
	</clipPath>
	<g style="clip-path:url(#SVGID_00000021116453060551651070000013818919355949005979_);">
		<path class="st1" d="M17.9,147.5c15.7-9.1,41-9.1,56.6,0c13.8,8,15.3,20.4,4.7,29.4c8.6-0.5,17.5,1.1,24.1,4.9
			c11.5,6.7,11.5,17.5-0.1,24.2c-11.6,6.7-30.4,6.7-41.8,0c-9.2-5.3-11-13.3-5.5-19.7c-13.2,1.9-27.7-0.1-38-6.1
			C2.1,171.3,2.2,156.6,17.9,147.5z"/>
		<path class="st2" d="M26.7,19.7c2.5-1.4,4.6-0.7,5.3,1.5c0.6-1.2,1.5-2.3,2.7-3c2-1.1,3.6-0.2,3.6,2v1l2.6-1.5
			c1.4-0.8,2.5-0.2,2.5,1.4c-0.1,1.7-1,3.3-2.4,4.3L18.7,38.3c-1.4,0.8-2.5,0.2-2.5-1.4c0.1-1.7,1-3.3,2.5-4.3l2.6-1.5v-1.9
			C21.5,25.3,23.5,21.8,26.7,19.7z"/>
		<path class="st2" d="M48.5,28.1c1.8-1,3.3-0.5,3.8,1.1c0.4-0.9,1.1-1.6,1.9-2.2c1.4-0.8,2.5-0.2,2.5,1.5v0.7l1.9-1.1
			c1-0.6,1.8-0.1,1.8,1c-0.1,1.2-0.7,2.4-1.8,3.1l-16,9.2c-1,0.6-1.8,0.1-1.8-1c0.1-1.2,0.7-2.4,1.8-3.1l1.9-1.1v-1.4
			C44.7,32.2,46.2,29.6,48.5,28.1z"/>
		<path class="st3" d="M115.2,26.5c0-8.7-6.1-19.3-13.7-23.7c-4.1-2.3-7.7-2.4-10.2-0.7l-3,1.8c2.5-1.3,5.8-1.1,9.5,1.1
			c7.6,4.4,13.7,15,13.7,23.7c0,4.3-1.5,7.3-4,8.8l3.4-2.1c0.2-0.1,0.5-0.3,0.7-0.4C113.9,33.5,115.2,30.5,115.2,26.5z"/>
		<path class="st4" d="M115.2,26.5c0-8.7-6.1-19.3-13.7-23.7c-4.1-2.3-7.7-2.4-10.2-0.7l-3,1.8c2.5-1.3,5.8-1.1,9.5,1.1
			c7.6,4.4,13.7,15,13.7,23.7c0,4.3-1.5,7.3-4,8.8l3.4-2.1c0.2-0.1,0.5-0.3,0.7-0.4C113.9,33.5,115.2,30.5,115.2,26.5z"/>
		<path class="st3" d="M111.5,28.7c0-8.7-6.1-19.3-13.7-23.7c-3.7-2.1-7.1-2.4-9.5-1.1c-0.2,0.1-0.5,0.3-0.7,0.4
			c-2.2,1.5-3.6,4.5-3.6,8.5c0,8.7,6.1,19.3,13.7,23.7c3.8,2.2,7.3,2.4,9.8,0.9C110.1,36,111.5,33,111.5,28.7z"/>
		<path class="st3" d="M99.7,34.5c-7.2-4.1-13-14.2-13-22.4c0-3.1,0.9-5.6,2.5-7c-0.1,0-0.1,0.1-0.2,0.1c-0.2,0.1-0.3,0.2-0.5,0.3
			l-0.1,0c-1.8,1.3-2.9,3.9-2.9,7.3c0,8.2,5.8,18.3,13,22.4c1.6,1,3.5,1.6,5.4,1.7c1,0,2-0.2,2.9-0.7c0.3-0.2,0.5-0.4,0.8-0.6
			c-0.8,0.4-1.6,0.6-2.5,0.6C103.2,36.1,101.3,35.5,99.7,34.5z"/>
		<path class="st5" d="M99.7,34.5c-7.2-4.1-13-14.2-13-22.4c0-3.1,0.9-5.6,2.5-7c-0.1,0-0.1,0.1-0.2,0.1c-0.2,0.1-0.3,0.2-0.5,0.3
			l-0.1,0c-1.8,1.3-2.9,3.9-2.9,7.3c0,8.2,5.8,18.3,13,22.4c1.6,1,3.5,1.6,5.4,1.7c1,0,2-0.2,2.9-0.7c0.3-0.2,0.5-0.4,0.8-0.6
			c-0.8,0.4-1.6,0.6-2.5,0.6C103.2,36.1,101.3,35.5,99.7,34.5z"/>
		<path class="st6" d="M97.1,6.3c-1.6-1-3.5-1.6-5.4-1.7c-0.8,0-1.7,0.2-2.5,0.5c-1.6,1.4-2.5,3.8-2.5,7c0,8.2,5.8,18.3,13,22.4
			c1.6,1,3.5,1.6,5.4,1.7c0.9,0,1.7-0.2,2.5-0.6c1.6-1.4,2.5-3.8,2.5-6.9C110.1,20.5,104.3,10.4,97.1,6.3z"/>
		<path class="st7" d="M103.5,26.4l-3.1-2.8c-0.5-0.4-0.7-1-0.8-1.6v-0.5c2,0.3,3.4-1.1,3.4-3.6c-0.2-3.6-2.1-6.9-5.1-8.9
			c-2.8-1.6-5.2-0.3-5.2,2.9c0.2,2.8,1.3,5.5,3.3,7.5v0.5c0,0.5-0.3,0.8-0.8,0.7l-3.1-0.8c-1.2-0.4-2.5,0.3-2.9,1.5
			c-0.1,0.2-0.1,0.4-0.1,0.5l0,0.2c2.3,5.2,6.2,9.9,10.6,12.5c1.6,1,3.5,1.6,5.4,1.7c0.7,0,1.3-0.1,2-0.3l-0.6-4
			C106.1,29.8,105.1,27.8,103.5,26.4z"/>
		<path class="st3" d="M189.3,164.9c0-8.7-6.1-19.3-13.7-23.7c-4.1-2.3-7.7-2.4-10.2-0.7l-3,1.8c2.5-1.3,5.8-1.1,9.5,1.1
			c7.6,4.4,13.7,15,13.7,23.7c0,4.3-1.5,7.3-4,8.8l3.4-2c0.2-0.1,0.5-0.3,0.7-0.4C187.9,171.8,189.3,168.9,189.3,164.9z"/>
		<path class="st4" d="M189.3,164.9c0-8.7-6.1-19.3-13.7-23.7c-4.1-2.3-7.7-2.4-10.2-0.7l-3,1.8c2.5-1.3,5.8-1.1,9.5,1.1
			c7.6,4.4,13.7,15,13.7,23.7c0,4.3-1.5,7.3-4,8.8l3.4-2c0.2-0.1,0.5-0.3,0.7-0.4C187.9,171.8,189.3,168.9,189.3,164.9z"/>
		<path class="st3" d="M185.6,167.1c0-8.7-6.1-19.3-13.7-23.7c-3.7-2.1-7.1-2.4-9.5-1.1c-0.2,0.1-0.5,0.3-0.7,0.4
			c-2.2,1.5-3.6,4.5-3.6,8.5c0,8.7,6.1,19.3,13.7,23.7c3.8,2.2,7.3,2.4,9.8,0.9C184.1,174.4,185.6,171.4,185.6,167.1z"/>
		<path class="st3" d="M173.7,172.9c-7.2-4.1-13-14.2-13-22.4c0-3.1,0.9-5.6,2.5-7l-0.2,0.1c-0.2,0.1-0.3,0.2-0.5,0.3l-0.1,0
			c-1.9,1.3-2.9,3.9-2.9,7.3c0,8.2,5.8,18.3,13,22.4c1.6,1,3.5,1.6,5.4,1.7c1,0,2-0.2,2.9-0.7c0.3-0.2,0.5-0.4,0.8-0.6
			c-0.8,0.4-1.6,0.6-2.5,0.6C177.2,174.5,175.4,173.9,173.7,172.9z"/>
		<path class="st5" d="M173.7,172.9c-7.2-4.1-13-14.2-13-22.4c0-3.1,0.9-5.6,2.5-7l-0.2,0.1c-0.2,0.1-0.3,0.2-0.5,0.3l-0.1,0
			c-1.9,1.3-2.9,3.9-2.9,7.3c0,8.2,5.8,18.3,13,22.4c1.6,1,3.5,1.6,5.4,1.7c1,0,2-0.2,2.9-0.7c0.3-0.2,0.5-0.4,0.8-0.6
			c-0.8,0.4-1.6,0.6-2.5,0.6C177.2,174.5,175.4,173.9,173.7,172.9z"/>
		<path class="st6" d="M171.2,144.7c-1.6-1-3.5-1.6-5.4-1.7c-0.9,0-1.7,0.2-2.5,0.5c-1.6,1.4-2.5,3.8-2.5,7c0,8.2,5.8,18.3,13,22.4
			c1.6,1,3.5,1.6,5.4,1.7c0.9,0,1.7-0.2,2.5-0.6c1.6-1.4,2.4-3.8,2.5-6.9C184.1,158.9,178.3,148.8,171.2,144.7z"/>
		<path class="st7" d="M177.6,164.7l-3.1-2.8c-0.5-0.4-0.7-1-0.8-1.6v-0.5c2,0.3,3.4-1.1,3.4-3.6c-0.2-3.6-2.1-6.9-5.1-8.9
			c-2.8-1.6-5.2-0.3-5.2,2.9c0.2,2.8,1.3,5.5,3.3,7.5v0.5c0,0.5-0.3,0.8-0.8,0.7l-3.1-0.8c-1.2-0.4-2.5,0.3-2.9,1.5
			c-0.1,0.2-0.1,0.4-0.1,0.6l0,0.2c2.3,5.2,6.2,9.9,10.6,12.5c1.6,1,3.5,1.6,5.4,1.7c0.7,0,1.3-0.1,2-0.3l-0.6-4
			C180.2,168.1,179.1,166.2,177.6,164.7z"/>
		<path class="st3" d="M230.2,141.6c0-7.7-5.4-17-12.1-20.9c-3.6-2.1-6.8-2.1-9-0.6l-2.6,1.5c2.2-1.2,5.1-0.9,8.4,1
			c6.7,3.9,12.1,13.2,12.1,20.9c0,3.8-1.3,6.5-3.5,7.7l3-1.8c0.2-0.1,0.4-0.2,0.6-0.4h0C229,147.8,230.2,145.2,230.2,141.6z"/>
		<path class="st4" d="M230.2,141.6c0-7.7-5.4-17-12.1-20.9c-3.6-2.1-6.8-2.1-9-0.6l-2.6,1.5c2.2-1.2,5.1-0.9,8.4,1
			c6.7,3.9,12.1,13.2,12.1,20.9c0,3.8-1.3,6.5-3.5,7.7l3-1.8c0.2-0.1,0.4-0.2,0.6-0.4h0C229,147.8,230.2,145.2,230.2,141.6z"/>
		<path class="st3" d="M226.9,143.6c0-7.7-5.4-17-12.1-20.9c-3.3-1.9-6.2-2.1-8.4-1c-0.2,0.1-0.4,0.2-0.6,0.4
			c-1.9,1.3-3.1,3.9-3.1,7.5c0,7.7,5.4,17,12.1,20.9c3.4,1.9,6.4,2.1,8.6,0.8C225.7,150,226.9,147.4,226.9,143.6z"/>
		<path class="st3" d="M216.5,148.7c-6.3-3.6-11.4-12.5-11.4-19.8c0-2.8,0.8-4.9,2.2-6.1c-0.1,0-0.1,0-0.2,0.1
			c-0.2,0.1-0.3,0.2-0.4,0.3l-0.1,0c-1.6,1.2-2.5,3.4-2.5,6.4c0,7.3,5.1,16.1,11.4,19.8c1.4,0.9,3.1,1.4,4.8,1.5
			c0.9,0,1.8-0.2,2.6-0.7c0.2-0.1,0.5-0.3,0.7-0.5c-0.7,0.3-1.4,0.5-2.2,0.5C219.6,150.1,218,149.6,216.5,148.7z"/>
		<path class="st5" d="M216.5,148.7c-6.3-3.6-11.4-12.5-11.4-19.8c0-2.8,0.8-4.9,2.2-6.1c-0.1,0-0.1,0-0.2,0.1
			c-0.2,0.1-0.3,0.2-0.4,0.3l-0.1,0c-1.6,1.2-2.5,3.4-2.5,6.4c0,7.3,5.1,16.1,11.4,19.8c1.4,0.9,3.1,1.4,4.8,1.5
			c0.9,0,1.8-0.2,2.6-0.7c0.2-0.1,0.5-0.3,0.7-0.5c-0.7,0.3-1.4,0.5-2.2,0.5C219.6,150.1,218,149.6,216.5,148.7z"/>
		<path class="st6" d="M214.3,123.8c-1.4-0.9-3.1-1.4-4.8-1.5c-0.7,0-1.5,0.2-2.2,0.5c-1.4,1.2-2.2,3.4-2.2,6.1
			c0,7.3,5.1,16.1,11.4,19.8c1.4,0.9,3.1,1.4,4.8,1.5c0.8,0,1.5-0.2,2.2-0.5c1.4-1.2,2.2-3.4,2.2-6.1
			C225.7,136.3,220.6,127.5,214.3,123.8z"/>
		<path class="st7" d="M219.9,141.5l-2.7-2.5c-0.4-0.4-0.6-0.9-0.7-1.4v-0.4c1.7,0.3,3-0.9,3-3.2c-0.2-3.2-1.8-6.1-4.5-7.8
			c-2.5-1.4-4.5-0.3-4.5,2.6c0.1,2.5,1.2,4.8,2.9,6.6v0.4c0,0.5-0.3,0.7-0.7,0.6l-2.7-0.7c-1.1-0.3-2.2,0.3-2.6,1.3
			c0,0.2-0.1,0.3-0.1,0.5v0.2c2.1,4.6,5.5,8.8,9.3,11c1.4,0.9,3.1,1.4,4.8,1.5c0.6,0,1.2-0.1,1.8-0.3l-0.5-3.5
			C222.2,144.5,221.3,142.8,219.9,141.5z"/>
		<path class="st3" d="M168.6,33.4c0-6.7-4.7-15-10.6-18.4c-3.1-1.8-6-1.9-7.9-0.5l-2.3,1.4c1.9-1,4.5-0.8,7.4,0.8
			c5.9,3.4,10.6,11.6,10.6,18.4c0,3.3-1.2,5.7-3.1,6.8l2.6-1.6c0.2-0.1,0.4-0.2,0.6-0.3C167.5,38.8,168.6,36.5,168.6,33.4z"/>
		<path class="st4" d="M168.6,33.4c0-6.7-4.7-15-10.6-18.4c-3.1-1.8-6-1.9-7.9-0.5l-2.3,1.4c1.9-1,4.5-0.8,7.4,0.8
			c5.9,3.4,10.6,11.6,10.6,18.4c0,3.3-1.2,5.7-3.1,6.8l2.6-1.6c0.2-0.1,0.4-0.2,0.6-0.3C167.5,38.8,168.6,36.5,168.6,33.4z"/>
		<path class="st3" d="M165.7,35.1c0-6.7-4.7-15-10.6-18.4c-2.9-1.7-5.5-1.8-7.4-0.8c-0.2,0.1-0.4,0.2-0.5,0.3
			c-1.7,1.2-2.8,3.5-2.8,6.6c0,6.7,4.7,15,10.6,18.4c3,1.7,5.7,1.9,7.6,0.7C164.6,40.8,165.7,38.4,165.7,35.1z"/>
		<path class="st3" d="M156.6,39.6c-5.6-3.2-10.1-11-10-17.4c0-2.4,0.7-4.3,1.9-5.4c-0.1,0-0.1,0-0.2,0.1c-0.1,0.1-0.3,0.1-0.4,0.2
			l-0.1,0c-1.4,1-2.2,3-2.2,5.6c0,6.4,4.5,14.2,10,17.4c1.3,0.8,2.7,1.2,4.2,1.3c0.8,0,1.6-0.2,2.2-0.6c0.2-0.1,0.4-0.3,0.6-0.5
			c-0.6,0.3-1.3,0.4-1.9,0.4C159.2,40.8,157.8,40.4,156.6,39.6z"/>
		<path class="st5" d="M156.6,39.6c-5.6-3.2-10.1-11-10-17.4c0-2.4,0.7-4.3,1.9-5.4c-0.1,0-0.1,0-0.2,0.1c-0.1,0.1-0.3,0.1-0.4,0.2
			l-0.1,0c-1.4,1-2.2,3-2.2,5.6c0,6.4,4.5,14.2,10,17.4c1.3,0.8,2.7,1.2,4.2,1.3c0.8,0,1.6-0.2,2.2-0.6c0.2-0.1,0.4-0.3,0.6-0.5
			c-0.6,0.3-1.3,0.4-1.9,0.4C159.2,40.8,157.8,40.4,156.6,39.6z"/>
		<path class="st6" d="M154.6,17.7c-1.3-0.8-2.7-1.2-4.2-1.3c-0.7,0-1.3,0.1-1.9,0.4c-1.2,1.1-1.9,3-1.9,5.4c0,6.4,4.5,14.2,10,17.4
			c1.3,0.8,2.7,1.2,4.2,1.3c0.7,0,1.3-0.1,1.9-0.4c1.2-1.1,1.9-3,1.9-5.4C164.6,28.7,160.1,20.9,154.6,17.7z"/>
		<path class="st7" d="M159.5,33.3l-2.4-2.2c-0.3-0.3-0.6-0.8-0.6-1.3v-0.4c1.5,0.2,2.6-0.8,2.6-2.8c-0.1-2.8-1.6-5.4-4-6.9
			c-2.2-1.3-4-0.2-4,2.3c0.1,2.2,1,4.2,2.6,5.8v0.4c0,0.4-0.3,0.6-0.6,0.6l-2.4-0.6c-0.9-0.3-2,0.2-2.3,1.2c0,0.1-0.1,0.3-0.1,0.4
			l0,0.1c1.7,4,4.6,7.3,8.2,9.7c1.3,0.8,2.7,1.2,4.2,1.3c0.5,0,1-0.1,1.5-0.3l-0.5-3.1C161.6,36,160.8,34.4,159.5,33.3z"/>
		<path class="st3" d="M224.2,93.5c0-6.8-4.7-15-10.6-18.4c-3.1-1.8-6-1.9-7.9-0.5l-2.3,1.4c1.9-1,4.5-0.8,7.4,0.8
			c5.9,3.4,10.6,11.6,10.6,18.4c0,3.3-1.2,5.7-3.1,6.8l2.6-1.6c0.2-0.1,0.4-0.2,0.6-0.3C223.2,98.9,224.2,96.6,224.2,93.5z"/>
		<path class="st4" d="M224.2,93.5c0-6.8-4.7-15-10.6-18.4c-3.1-1.8-6-1.9-7.9-0.5l-2.3,1.4c1.9-1,4.5-0.8,7.4,0.8
			c5.9,3.4,10.6,11.6,10.6,18.4c0,3.3-1.2,5.7-3.1,6.8l2.6-1.6c0.2-0.1,0.4-0.2,0.6-0.3C223.2,98.9,224.2,96.6,224.2,93.5z"/>
		<path class="st3" d="M221.4,95.2c0-6.8-4.7-15-10.6-18.4c-2.9-1.7-5.5-1.8-7.4-0.8c-0.2,0.1-0.4,0.2-0.5,0.3
			c-1.7,1.2-2.8,3.5-2.8,6.6c0,6.8,4.7,15,10.6,18.4c3,1.7,5.7,1.9,7.6,0.7C220.2,100.8,221.4,98.5,221.4,95.2z"/>
		<path class="st3" d="M212.2,99.7c-5.5-3.2-10.1-11-10-17.4c0-2.4,0.7-4.3,1.9-5.4l-0.2,0.1c-0.1,0.1-0.3,0.1-0.4,0.2l0,0
			c-1.4,1-2.2,3-2.2,5.6c0,6.4,4.5,14.2,10,17.4c1.3,0.8,2.7,1.2,4.2,1.3c0.8,0,1.6-0.2,2.3-0.6c0.2-0.1,0.4-0.3,0.6-0.5
			c-0.6,0.3-1.3,0.4-1.9,0.4C214.9,100.9,213.4,100.5,212.2,99.7z"/>
		<path class="st5" d="M212.2,99.7c-5.5-3.2-10.1-11-10-17.4c0-2.4,0.7-4.3,1.9-5.4l-0.2,0.1c-0.1,0.1-0.3,0.1-0.4,0.2l0,0
			c-1.4,1-2.2,3-2.2,5.6c0,6.4,4.5,14.2,10,17.4c1.3,0.8,2.7,1.2,4.2,1.3c0.8,0,1.6-0.2,2.3-0.6c0.2-0.1,0.4-0.3,0.6-0.5
			c-0.6,0.3-1.3,0.4-1.9,0.4C214.9,100.9,213.4,100.5,212.2,99.7z"/>
		<path class="st6" d="M210.2,77.8c-1.3-0.8-2.7-1.2-4.2-1.3c-0.7,0-1.3,0.1-1.9,0.4c-1.2,1.1-1.9,3-1.9,5.4c0,6.4,4.5,14.2,10,17.4
			c1.3,0.8,2.7,1.2,4.2,1.3c0.7,0,1.3-0.1,1.9-0.4c1.2-1.1,1.9-3,1.9-5.4C220.3,88.8,215.8,81,210.2,77.8z"/>
		<path class="st7" d="M215.2,93.4l-2.4-2.2c-0.4-0.3-0.6-0.8-0.6-1.2v-0.4c1.5,0.2,2.6-0.8,2.6-2.8c-0.1-2.8-1.6-5.4-4-6.9
			c-2.2-1.3-4-0.2-4,2.3c0.1,2.2,1,4.2,2.6,5.8v0.4c0,0.4-0.2,0.6-0.6,0.6l-2.4-0.6c-0.9-0.3-1.9,0.2-2.3,1.2c0,0.1-0.1,0.3-0.1,0.4
			V90c1.7,4,4.6,7.3,8.2,9.7c1.3,0.8,2.7,1.2,4.2,1.3c0.5,0,1-0.1,1.5-0.3l-0.5-3.1C217.2,96,216.4,94.5,215.2,93.4z"/>
		<path class="st3" d="M136.1,137.8c0-6.8-4.7-15-10.6-18.4c-3.1-1.8-6-1.9-7.9-0.5l-2.3,1.4c1.9-1,4.5-0.8,7.4,0.8
			c5.9,3.4,10.6,11.6,10.6,18.4c0,3.3-1.2,5.7-3.1,6.8l2.6-1.6c0.2-0.1,0.4-0.2,0.6-0.3C135,143.2,136.1,140.9,136.1,137.8z"/>
		<path class="st4" d="M136.1,137.8c0-6.8-4.7-15-10.6-18.4c-3.1-1.8-6-1.9-7.9-0.5l-2.3,1.4c1.9-1,4.5-0.8,7.4,0.8
			c5.9,3.4,10.6,11.6,10.6,18.4c0,3.3-1.2,5.7-3.1,6.8l2.6-1.6c0.2-0.1,0.4-0.2,0.6-0.3C135,143.2,136.1,140.9,136.1,137.8z"/>
		<path class="st3" d="M133.2,139.5c0-6.8-4.7-15-10.6-18.4c-2.9-1.7-5.5-1.8-7.4-0.8c-0.2,0.1-0.4,0.2-0.5,0.3
			c-1.7,1.2-2.7,3.5-2.8,6.6c0,6.7,4.7,15,10.6,18.4c3,1.7,5.7,1.9,7.6,0.7C132.1,145.2,133.2,142.8,133.2,139.5z"/>
		<path class="st3" d="M124,144c-5.6-3.2-10.1-11-10-17.4c0-2.4,0.7-4.3,1.9-5.4l-0.2,0.1c-0.1,0.1-0.3,0.1-0.4,0.2l-0.1,0
			c-1.4,1-2.2,3-2.2,5.6c0,6.4,4.5,14.2,10,17.4c1.3,0.8,2.7,1.2,4.2,1.3c0.8,0,1.6-0.2,2.2-0.6c0.2-0.1,0.4-0.3,0.6-0.5
			c-0.6,0.3-1.3,0.4-1.9,0.4C126.8,145.2,125.3,144.8,124,144z"/>
		<path class="st5" d="M124,144c-5.6-3.2-10.1-11-10-17.4c0-2.4,0.7-4.3,1.9-5.4l-0.2,0.1c-0.1,0.1-0.3,0.1-0.4,0.2l-0.1,0
			c-1.4,1-2.2,3-2.2,5.6c0,6.4,4.5,14.2,10,17.4c1.3,0.8,2.7,1.2,4.2,1.3c0.8,0,1.6-0.2,2.2-0.6c0.2-0.1,0.4-0.3,0.6-0.5
			c-0.6,0.3-1.3,0.4-1.9,0.4C126.8,145.2,125.3,144.8,124,144z"/>
		<path class="st6" d="M122.1,122.1c-1.3-0.8-2.7-1.2-4.2-1.3c-0.7,0-1.3,0.1-1.9,0.4c-1.2,1.1-1.9,3-1.9,5.4
			c0,6.4,4.5,14.2,10,17.4c1.3,0.8,2.7,1.2,4.2,1.3c0.7,0,1.3-0.1,1.9-0.4c1.2-1.1,1.9-3,1.9-5.4
			C132.1,133.1,127.6,125.3,122.1,122.1z"/>
		<path class="st7" d="M127,137.7l-2.4-2.2c-0.4-0.3-0.6-0.8-0.6-1.3v-0.4c1.5,0.2,2.6-0.8,2.6-2.8c-0.1-2.8-1.6-5.4-4-6.9
			c-2.2-1.3-4-0.3-4,2.3c0.1,2.2,1,4.2,2.6,5.8v0.4c0,0.4-0.2,0.7-0.6,0.6l-2.4-0.6c-0.9-0.3-2,0.2-2.3,1.2c0,0.1-0.1,0.3-0.1,0.4
			l0,0.1c1.7,4,4.6,7.3,8.2,9.7c1.3,0.8,2.7,1.2,4.2,1.3c0.5,0,1-0.1,1.5-0.3l-0.5-3.1C129.1,140.3,128.2,138.8,127,137.7z"/>
		<path class="st3" d="M107.6,87.7c0-6.7-4.7-15-10.6-18.4c-3.1-1.8-6-1.9-7.9-0.5l-2.3,1.4c1.9-1,4.5-0.8,7.4,0.8
			c5.9,3.4,10.6,11.6,10.6,18.4c0,3.3-1.2,5.7-3.1,6.8l2.6-1.6c0.2-0.1,0.4-0.2,0.6-0.3C106.6,93.1,107.6,90.9,107.6,87.7z"/>
		<path class="st4" d="M107.6,87.7c0-6.7-4.7-15-10.6-18.4c-3.1-1.8-6-1.9-7.9-0.5l-2.3,1.4c1.9-1,4.5-0.8,7.4,0.8
			c5.9,3.4,10.6,11.6,10.6,18.4c0,3.3-1.2,5.7-3.1,6.8l2.6-1.6c0.2-0.1,0.4-0.2,0.6-0.3C106.6,93.1,107.6,90.9,107.6,87.7z"/>
		<path class="st3" d="M104.8,89.4c0-6.8-4.7-15-10.6-18.4c-2.9-1.7-5.5-1.9-7.4-0.8c-0.2,0.1-0.4,0.2-0.5,0.3
			c-1.7,1.2-2.8,3.5-2.8,6.6c0,6.8,4.7,15,10.6,18.4c3,1.7,5.7,1.9,7.6,0.7C103.6,95.1,104.8,92.8,104.8,89.4z"/>
		<path class="st3" d="M95.6,93.9c-5.5-3.2-10.1-11-10-17.4c0-2.4,0.7-4.3,1.9-5.4l-0.2,0.1c-0.1,0.1-0.3,0.1-0.4,0.2l0,0
			c-1.4,1-2.2,3-2.2,5.6c0,6.4,4.5,14.2,10,17.4c1.3,0.8,2.7,1.2,4.2,1.3c0.8,0,1.6-0.2,2.2-0.6c0.2-0.1,0.4-0.3,0.6-0.5
			c-0.6,0.3-1.3,0.4-1.9,0.4C98.3,95.2,96.9,94.7,95.6,93.9z"/>
		<path class="st5" d="M95.6,93.9c-5.5-3.2-10.1-11-10-17.4c0-2.4,0.7-4.3,1.9-5.4l-0.2,0.1c-0.1,0.1-0.3,0.1-0.4,0.2l0,0
			c-1.4,1-2.2,3-2.2,5.6c0,6.4,4.5,14.2,10,17.4c1.3,0.8,2.7,1.2,4.2,1.3c0.8,0,1.6-0.2,2.2-0.6c0.2-0.1,0.4-0.3,0.6-0.5
			c-0.6,0.3-1.3,0.4-1.9,0.4C98.3,95.2,96.9,94.7,95.6,93.9z"/>
		<path class="st6" d="M93.6,72.1c-1.3-0.8-2.7-1.2-4.2-1.3c-0.7,0-1.3,0.1-1.9,0.4c-1.2,1.1-1.9,3-1.9,5.4c0,6.4,4.5,14.2,10,17.4
			c1.3,0.8,2.7,1.2,4.2,1.3c0.7,0,1.3-0.1,1.9-0.4c1.2-1.1,1.9-3,1.9-5.4C103.7,83.1,99.2,75.3,93.6,72.1z"/>
		<path class="st7" d="M98.6,87.6l-2.4-2.2c-0.4-0.3-0.6-0.8-0.6-1.2v-0.4c1.5,0.2,2.6-0.8,2.6-2.8c-0.1-2.8-1.6-5.4-4-6.9
			c-2.2-1.3-4-0.2-4,2.3c0.1,2.2,1,4.2,2.6,5.8v0.4c0,0.4-0.2,0.6-0.6,0.6l-2.4-0.6c-0.9-0.3-1.9,0.2-2.3,1.2c0,0.1-0.1,0.3-0.1,0.4
			l0,0.1c1.7,4,4.6,7.3,8.2,9.7c1.3,0.8,2.7,1.2,4.2,1.3c0.5,0,1-0.1,1.5-0.3l-0.5-3.1C100.7,90.3,99.8,88.7,98.6,87.6z"/>
		<path class="st3" d="M229.6,44c0-8.2-5.8-18.3-12.9-22.4c-3.8-2.2-7.3-2.3-9.7-0.6l-2.8,1.7c2.3-1.2,5.5-1,9,1
			c7.2,4.1,13,14.2,12.9,22.4c0,4.1-1.4,6.9-3.8,8.3l3.2-1.9c0.2-0.1,0.5-0.3,0.7-0.4C228.3,50.5,229.6,47.8,229.6,44z"/>
		<path class="st4" d="M229.6,44c0-8.2-5.8-18.3-12.9-22.4c-3.8-2.2-7.3-2.3-9.7-0.6l-2.8,1.7c2.3-1.2,5.5-1,9,1
			c7.2,4.1,13,14.2,12.9,22.4c0,4.1-1.4,6.9-3.8,8.3l3.2-1.9c0.2-0.1,0.5-0.3,0.7-0.4C228.3,50.5,229.6,47.8,229.6,44z"/>
		<path class="st3" d="M226.1,46.1c0-8.2-5.8-18.3-12.9-22.4c-3.5-2-6.7-2.3-9-1c-0.2,0.1-0.4,0.2-0.6,0.4c-2.1,1.4-3.4,4.2-3.4,8.1
			c0,8.2,5.8,18.3,12.9,22.4c3.6,2.1,6.9,2.3,9.3,0.9C224.7,53,226.1,50.1,226.1,46.1z"/>
		<path class="st3" d="M214.9,51.5c-6.8-3.9-12.3-13.4-12.3-21.2c0-3,0.8-5.3,2.3-6.6l-0.2,0.1c-0.2,0.1-0.3,0.2-0.5,0.3l-0.1,0
			c-1.8,1.2-2.7,3.7-2.7,6.9c0,7.8,5.5,17.3,12.3,21.2c1.5,1,3.3,1.5,5.1,1.6c1,0,1.9-0.2,2.7-0.7c0.3-0.2,0.5-0.3,0.7-0.6
			c-0.7,0.3-1.5,0.5-2.3,0.5C218.2,53.1,216.4,52.5,214.9,51.5z"/>
		<path class="st5" d="M214.9,51.5c-6.8-3.9-12.3-13.4-12.3-21.2c0-3,0.8-5.3,2.3-6.6l-0.2,0.1c-0.2,0.1-0.3,0.2-0.5,0.3l-0.1,0
			c-1.8,1.2-2.7,3.7-2.7,6.9c0,7.8,5.5,17.3,12.3,21.2c1.5,1,3.3,1.5,5.1,1.6c1,0,1.9-0.2,2.7-0.7c0.3-0.2,0.5-0.3,0.7-0.6
			c-0.7,0.3-1.5,0.5-2.3,0.5C218.2,53.1,216.4,52.5,214.9,51.5z"/>
		<path class="st6" d="M212.5,24.8c-1.5-1-3.3-1.5-5.1-1.6c-0.8,0-1.6,0.2-2.3,0.5c-1.5,1.3-2.3,3.6-2.3,6.6
			c0,7.8,5.5,17.3,12.3,21.2c1.5,1,3.3,1.5,5.1,1.6c0.8,0,1.6-0.2,2.3-0.5c1.5-1.3,2.3-3.6,2.3-6.6
			C224.7,38.2,219.3,28.7,212.5,24.8z"/>
		<path class="st7" d="M218.5,43.8l-2.9-2.7c-0.4-0.4-0.7-0.9-0.7-1.5v-0.5c1.8,0.3,3.2-1,3.2-3.4c-0.2-3.4-2-6.5-4.9-8.4
			c-2.7-1.5-4.9-0.3-4.9,2.8c0.1,2.7,1.3,5.2,3.1,7.1v0.4c0,0.5-0.3,0.8-0.7,0.7l-2.9-0.7c-1.2-0.4-2.4,0.3-2.8,1.4
			c0,0.2-0.1,0.3-0.1,0.5l0,0.2c2.2,4.9,5.9,9.4,10,11.8c1.5,1,3.3,1.5,5.1,1.6c0.6,0,1.3-0.1,1.9-0.3l-0.6-3.8
			C221,47,220,45.2,218.5,43.8z"/>
		<path class="st7" d="M184.8,143.5c-0.3,0-0.6-0.3-0.6-0.6c0-0.1,0-0.2,0.1-0.3l21.7-40.2c0.1-0.3,0.4-0.5,0.7-0.4
			c0.3,0.1,0.5,0.4,0.4,0.7c0,0.1-0.1,0.1-0.1,0.2l-21.7,40.2C185.2,143.4,185,143.5,184.8,143.5z"/>
		<path class="st7" d="M188.7,151.9c-0.3,0-0.6-0.3-0.6-0.6c0-0.2,0.1-0.4,0.3-0.5l15.5-7.3c0.3-0.2,0.6-0.1,0.8,0.2
			c0.2,0.3,0.1,0.6-0.2,0.8c0,0-0.1,0.1-0.2,0.1l-15.5,7.3C188.8,151.9,188.8,151.9,188.7,151.9z"/>
		<path class="st7" d="M219,117.7c-0.3,0-0.6-0.2-0.6-0.5l-0.7-11.7c0-0.3,0.2-0.6,0.6-0.6c0.3,0,0.6,0.2,0.6,0.6l0.7,11.7
			C219.6,117.5,219.4,117.8,219,117.7L219,117.7z"/>
		<path class="st7" d="M213.1,73.1L213.1,73.1c-0.4-0.1-0.6-0.4-0.6-0.7l2.8-15.5c0.1-0.3,0.4-0.5,0.7-0.4c0.2,0.1,0.4,0.3,0.4,0.6
			l-2.8,15.5C213.6,72.9,213.4,73.1,213.1,73.1z"/>
		<path class="st7" d="M197.1,27.3L197.1,27.3l-26.6-1.2c-0.3,0-0.6-0.3-0.5-0.6c0-0.3,0.3-0.5,0.6-0.5l26.5,1.2
			c0.3,0,0.6,0.3,0.6,0.6C197.7,27,197.4,27.3,197.1,27.3L197.1,27.3z"/>
		<path class="st7" d="M142,20.9c0,0-0.1,0-0.1,0L116,14.6c-0.3-0.1-0.4-0.5-0.3-0.8c0.1-0.2,0.3-0.4,0.6-0.4l25.9,6.3
			c0.3,0,0.6,0.3,0.6,0.6c0,0.3-0.3,0.6-0.6,0.6C142.1,21,142.1,21,142,20.9L142,20.9z"/>
		<path class="st7" d="M94.6,64.4L94.6,64.4c-0.4,0-0.6-0.3-0.6-0.6l3.2-22.9c0.1-0.3,0.4-0.5,0.7-0.5c0.3,0.1,0.5,0.3,0.5,0.6
			l-3.2,22.9C95.2,64.2,94.9,64.4,94.6,64.4z"/>
		<path class="st7" d="M111.9,119c-0.2,0-0.4-0.1-0.5-0.3l-10.6-19.5c-0.1-0.3,0.1-0.6,0.3-0.7c0.2-0.1,0.5,0,0.7,0.2l10.6,19.5
			c0.1,0.3,0,0.6-0.2,0.8C112.1,118.9,112.1,118.9,111.9,119L111.9,119z"/>
		<path class="st7" d="M155.9,150c-0.1,0-0.1,0-0.2,0l-18.4-6.5c-0.3-0.2-0.4-0.5-0.2-0.8c0.1-0.2,0.4-0.3,0.6-0.3l18.4,6.5
			c0.3,0.1,0.4,0.5,0.3,0.8C156.3,149.9,156.1,150,155.9,150z"/>
		<path class="st7" d="M160.2,140.6c-0.2,0-0.3-0.1-0.4-0.2l-50.1-49.9c-0.2-0.2-0.2-0.6,0-0.8c0.2-0.2,0.6-0.2,0.8,0l50.1,49.9
			c0.2,0.2,0.2,0.6,0,0.8C160.5,140.5,160.3,140.6,160.2,140.6z"/>
		<path class="st7" d="M103.6,72.1c-0.3,0-0.6-0.3-0.6-0.6c0-0.2,0.1-0.3,0.2-0.5l42.3-32.5c0.2-0.2,0.6-0.2,0.8,0
			c0.2,0.2,0.2,0.6,0,0.8c0,0-0.1,0.1-0.1,0.1L104,72C103.9,72.1,103.8,72.1,103.6,72.1z"/>
		<path class="st7" d="M202.7,73.1c-0.2,0-0.3-0.1-0.5-0.2l-31.8-40.2c-0.2-0.3-0.1-0.6,0.2-0.8c0.2-0.1,0.5-0.1,0.7,0.1l31.8,40.2
			c0.2,0.2,0.2,0.6-0.1,0.8C202.9,73.1,202.8,73.1,202.7,73.1z"/>
		<g class="st8">
			<path class="st1" d="M184.8,143.5c-0.3,0-0.6-0.3-0.6-0.6c0-0.1,0-0.2,0.1-0.3l21.7-40.2c0.1-0.3,0.4-0.5,0.7-0.4
				c0.3,0.1,0.5,0.4,0.4,0.7c0,0.1-0.1,0.1-0.1,0.2l-21.7,40.2C185.2,143.4,185,143.5,184.8,143.5z"/>
			<path class="st1" d="M188.7,151.9c-0.3,0-0.6-0.3-0.6-0.6c0-0.2,0.1-0.4,0.3-0.5l15.5-7.3c0.3-0.2,0.6-0.1,0.8,0.2
				c0.2,0.3,0.1,0.6-0.2,0.8c-0.1,0-0.1,0.1-0.2,0.1l-15.5,7.3C188.8,151.9,188.8,151.9,188.7,151.9z"/>
			<path class="st1" d="M219,117.7c-0.3,0-0.6-0.2-0.6-0.5l-0.7-11.7c0-0.3,0.2-0.6,0.6-0.6c0.3,0,0.6,0.2,0.6,0.6l0.7,11.7
				C219.6,117.5,219.4,117.7,219,117.7L219,117.7z"/>
			<path class="st1" d="M213.1,73.1L213.1,73.1c-0.4-0.1-0.6-0.4-0.6-0.7l2.8-15.5c0.1-0.3,0.4-0.5,0.7-0.4c0.2,0.1,0.4,0.3,0.4,0.6
				l-2.8,15.5C213.6,73,213.4,73.1,213.1,73.1z"/>
			<path class="st1" d="M197.1,27.3L197.1,27.3l-26.6-1.2c-0.3,0-0.6-0.3-0.5-0.6c0-0.3,0.3-0.5,0.6-0.5l26.5,1.2
				c0.3,0,0.6,0.3,0.6,0.6C197.7,27,197.4,27.3,197.1,27.3L197.1,27.3z"/>
			<path class="st1" d="M142,20.9c0,0-0.1,0-0.1,0L116,14.6c-0.3-0.1-0.4-0.5-0.3-0.8c0.1-0.2,0.3-0.4,0.6-0.4l25.9,6.3
				c0.3,0,0.6,0.3,0.6,0.6c0,0.3-0.3,0.6-0.6,0.6C142.1,21,142.1,21,142,20.9L142,20.9z"/>
			<path class="st1" d="M94.6,64.4L94.6,64.4c-0.4,0-0.6-0.3-0.6-0.6l3.2-22.9c0.1-0.3,0.4-0.5,0.7-0.5c0.3,0.1,0.5,0.3,0.5,0.6
				l-3.2,22.9C95.2,64.2,94.9,64.4,94.6,64.4z"/>
			<path class="st1" d="M111.9,118.9c-0.2,0-0.4-0.1-0.5-0.3l-10.6-19.5c-0.1-0.3,0-0.6,0.3-0.7c0.2-0.1,0.5,0,0.7,0.2l10.6,19.5
				c0.1,0.3,0,0.6-0.2,0.8C112.1,118.9,112,118.9,111.9,118.9L111.9,118.9z"/>
			<path class="st1" d="M155.9,150c-0.1,0-0.1,0-0.2,0l-18.4-6.5c-0.3-0.2-0.4-0.5-0.2-0.8c0.1-0.2,0.4-0.3,0.6-0.3l18.4,6.5
				c0.3,0.1,0.4,0.5,0.3,0.8C156.3,149.9,156.1,150,155.9,150z"/>
			<path class="st1" d="M160.2,140.6c-0.2,0-0.3-0.1-0.4-0.2l-50.1-49.9c-0.2-0.2-0.2-0.6,0-0.8s0.6-0.2,0.8,0l50.1,49.9
				c0.2,0.2,0.2,0.6,0,0.8C160.5,140.5,160.3,140.6,160.2,140.6z"/>
			<path class="st1" d="M103.6,72.1c-0.3,0-0.6-0.3-0.6-0.6c0-0.2,0.1-0.3,0.2-0.5l42.3-32.5c0.2-0.2,0.6-0.2,0.8,0
				c0.2,0.2,0.2,0.6,0,0.8c0,0-0.1,0.1-0.1,0.1L104,72C103.9,72.1,103.8,72.1,103.6,72.1z"/>
			<path class="st1" d="M202.6,73.1c-0.2,0-0.3-0.1-0.5-0.2l-31.8-40.2c-0.2-0.3-0.1-0.6,0.2-0.8c0.2-0.1,0.5-0.1,0.7,0.1l31.8,40.2
				c0.2,0.2,0.2,0.6-0.1,0.8C202.9,73.1,202.8,73.1,202.6,73.1z"/>
		</g>
		<path class="st7" d="M67.1,116.1c5.4,3.7,11.4,6.3,15.9,11.3c8.3,9.3,8.5,24.3,2,34.9c-6.6,10.6-18.7,17-31.2,18.5
			c-13.2,1.6-26.5-2.1-36.9-10.3c-10.4-8.4-16.5-20.9-16.7-34.2c0-13.1,6.7-26.2,17.7-33.3c10-6.5,24.4-8.4,34.5-0.9
			c5.1,3.8,8.5,9.3,13.5,13.2C66.3,115.5,66.7,115.8,67.1,116.1z"/>
		<path class="st5" d="M67.1,116.1c5.4,3.7,11.4,6.3,15.9,11.3c8.3,9.3,8.5,24.3,2,34.9c-6.6,10.6-18.7,17-31.2,18.5
			c-13.2,1.6-26.5-2.1-36.9-10.3c-10.4-8.4-16.5-20.9-16.7-34.2c0-13.1,6.7-26.2,17.7-33.3c10-6.5,24.4-8.4,34.5-0.9
			c5.1,3.8,8.5,9.3,13.5,13.2C66.3,115.5,66.7,115.8,67.1,116.1z"/>
		<path class="st9" d="M67.1,116.1c5.4,3.7,11.4,6.3,15.9,11.3c8.3,9.3,8.5,24.3,2,34.9c-6.6,10.6-18.7,17-31.2,18.5
			c-13.2,1.6-26.5-2.1-36.9-10.3c-10.4-8.4-16.5-20.9-16.7-34.2c0-13.1,6.7-26.2,17.7-33.3c10-6.5,24.4-8.4,34.5-0.9
			c5.1,3.8,8.5,9.3,13.5,13.2C66.3,115.5,66.7,115.8,67.1,116.1z"/>
		<path class="st4" d="M65,170.6l0-0.3c-0.9-6-5.5-10.7-11.4-11.7c-5.2-1-10.1-2.9-14.6-5.6c-3.2-1.9-6.2-4.3-9.8-5.3
			c-3.5-1-7.2-0.8-10.6,0.6c3.2-3.2,7.9-4.5,12.3-3.1c-2.9-4.4-5.4-9.1-6.4-14.2c-1-5.1-0.3-10.7,2.8-14.9
			c4.9-6.7,14.4-8.1,21.1-3.2c0.8,0.6,1.5,1.2,2.2,2c3.1,3.4,4.8,8.1,6.8,12.1c1.4,2.9,2.9,5.9,5.3,8.1c3.6,3.4,8.8,4.6,12.5,7.8
			c4.2,3.7,6.1,9.5,6.1,15.1c-0.1,3.8-0.6,7.5-1.6,11.1c-4.4,4.2-9.6,7.3-15.3,9.3C65.1,175.9,65.4,173.2,65,170.6z"/>
		<path class="st1" d="M7.2,134.6c0.3-18.7,14.1-34.4,32.6-37.2c1.2,0.1,2.5,0.3,3.7,0.6c-19.5,1-35,17-35.3,36.5
			c-0.2,12.2,5.7,24.6,16,33.3c8,6.8,18.7,11.2,30.4,12.8l-0.7,0.1c-1.1,0.1-2.1,0.2-3.2,0.3c-10-1.8-19.3-6.1-27.1-12.5
			C13,159.8,6.9,147.1,7.2,134.6z"/>
		<path class="st10" d="M78.6,166.6c-0.4,2-0.6,4-0.6,6.1l-1.4-0.5c-1.4-0.5-3-0.2-4,0.9l-0.1,0.1c-0.5,0.6-1.4,0.6-2,0.1
			c-0.3-0.3-0.5-0.6-0.5-1.1l-0.2-6.1L78.6,166.6z"/>
		<path class="st1" d="M73,189.4c3,3.2,8.5,6,12.5,3.3l-0.5,1c-4,2.7-9.5-0.1-12.5-3.3c-3-3.2-1.1-5.4-3.7-8.3c-1-1-1.8-2.2-2.3-3.5
			c0.1-0.3,0.2-0.7,0.4-1.2c0.6,1.3,1.4,2.6,2.4,3.6C72,184,70,186.2,73,189.4z"/>
		<path class="st11" d="M68.4,174.2c0.5-0.7,0.8-1.4,0.9-2.2c0-0.4,0.3-0.7,0.6-0.9v1c0,0.8,0.7,1.4,1.5,1.4c0.4,0,0.7-0.2,1-0.4
			l0.1-0.1c1-1.1,2.6-1.4,4-0.9l1.5,0.6c0.5,0.2,0.7,0.6,0.7,1.1c0.1,4.6,1.5,9,3.9,12.8c2.1,0.9,4,3.8,3,5.9l-0.1,0.2
			c-4,2.7-9.5-0.1-12.5-3.3c-3-3.2-1.1-5.4-3.7-8.3c-1-1.1-1.8-2.3-2.4-3.6C67.2,176.3,67.7,175.2,68.4,174.2z"/>
		<path class="st1" d="M74.2,180.3c-0.3,0.1-0.6,0-0.7-0.3c-0.1-0.2,0-0.5,0.2-0.6c1.8-1,4-1,5.8,0c0.1,0.3,0.2,0.7,0.3,1
			C78.1,179.3,75.9,179.3,74.2,180.3z"/>
		<path class="st1" d="M73.5,178c-0.3,0.1-0.6,0-0.7-0.2c-0.1-0.2,0-0.5,0.2-0.7c1.9-1,4.1-1,6,0c0.1,0.3,0.1,0.7,0.2,1
			C77.5,177.1,75.3,177,73.5,178z"/>
		<path class="st1" d="M75,182.5c-0.3,0.1-0.6,0-0.7-0.2c-0.1-0.2,0-0.5,0.2-0.7c1.7-1,3.9-1,5.6,0c0.1,0.4,0.3,0.7,0.4,1
			C78.9,181.6,76.8,181.6,75,182.5z"/>
		<path class="st1" d="M82.6,186.6c2.1,0.9,4,3.8,3,5.9l-0.1,0.2c-4,2.7-9.3,0-12.4-3.1C75.7,184.6,81,185.8,82.6,186.6z"/>
		<path class="st1" d="M75.9,184.7c-0.3,0.1-0.6,0-0.7-0.2c-0.1-0.2,0-0.5,0.2-0.7c1.8-1,3.9-1,5.6,0c0.2,0.4,0.4,0.8,0.6,1.1
			C79.9,183.8,77.7,183.7,75.9,184.7z"/>
		<path class="st10" d="M84.9,178.8c0.5,2,1.1,3.9,1.9,5.8l-1.5,0.1c-1.5,0.1-2.8,1-3.3,2.4l0,0.1c-0.3,0.7-1.1,1.1-1.8,0.9
			c-0.4-0.1-0.7-0.4-0.9-0.8l-2.7-5.5L84.9,178.8z"/>
		<path class="st1" d="M89,201.9c4,1.8,10.2,2.1,12.8-2.1v1.1c-2.6,4.1-8.8,3.8-12.8,2.1c-4-1.7-3.1-4.5-6.8-6.1
			c-1.3-0.5-2.5-1.2-3.5-2.2c0-0.3-0.1-0.7-0.1-1.2c1.1,1,2.3,1.8,3.7,2.3C85.9,197.4,85,200.2,89,201.9z"/>
		<path class="st11" d="M78.6,189.9c0.2-0.8,0.2-1.6,0-2.4c-0.1-0.4,0-0.7,0.2-1.1l0.4,0.9c0.2,0.4,0.5,0.6,0.9,0.8
			c0.7,0.2,1.5-0.2,1.8-0.9l0-0.1c0.5-1.4,1.8-2.4,3.3-2.4l1.6-0.1c0.5,0,0.9,0.3,1.1,0.7c2,4.1,5,7.6,8.8,10.2
			c2.3-0.1,5.1,1.8,5.1,4.2v0.2c-2.6,4.1-8.8,3.8-12.8,2.1c-4-1.7-3.1-4.5-6.8-6.1c-1.3-0.6-2.6-1.3-3.7-2.3
			C78.4,192.3,78.4,191.1,78.6,189.9z"/>
		<path class="st1" d="M86.4,193.1c-0.2,0.2-0.5,0.2-0.7,0c-0.2-0.2-0.2-0.5-0.1-0.7c1.2-1.6,3.2-2.5,5.3-2.3
			c0.2,0.3,0.4,0.5,0.7,0.8C89.6,190.7,87.6,191.5,86.4,193.1z"/>
		<path class="st1" d="M84.8,191.3c-0.2,0.2-0.5,0.2-0.7,0.1c-0.2-0.2-0.3-0.5-0.1-0.7c1.3-1.7,3.4-2.6,5.5-2.4
			c0.2,0.3,0.4,0.6,0.6,0.9C88.1,188.9,86.1,189.7,84.8,191.3z"/>
		<path class="st1" d="M88.1,194.8c-0.2,0.2-0.5,0.2-0.7,0c-0.2-0.2-0.2-0.5-0.1-0.7c1.2-1.6,3.1-2.5,5.1-2.3
			c0.3,0.3,0.5,0.5,0.8,0.8C91.2,192.4,89.3,193.3,88.1,194.8z"/>
		<path class="st1" d="M96.7,195.5c2.3-0.1,5.1,1.8,5.1,4.2v0.2c-2.5,4.1-8.6,3.8-12.6,2.1C89.5,196.4,94.8,195.5,96.7,195.5z"/>
		<path class="st1" d="M89.8,196.5c-0.2,0.2-0.5,0.2-0.7,0c-0.2-0.2-0.2-0.5-0.1-0.7c1.2-1.6,3.1-2.5,5.1-2.3c0.3,0.3,0.6,0.6,1,0.8
			C93,194.1,91,194.9,89.8,196.5z"/>
		<path class="st12" d="M61.2,126.3l20.2,11.3c3.8,2.1,5.8,6.3,5,10.6l-3.9,21.1l4.1,12.5c-3.9,4.9-11.4,4.2-11.4,4.2
			c-3.6-7.1-4.8-12.7-6.8-18.7c-2-6-3.4-10.1-3.4-10.1l-16.8-4.6c-7.9-2.1-13.6-8.8-14.5-16.9c-0.3-2.5-0.3-4.3-0.3-4.3L61.2,126.3z
			"/>
		<path class="st5" d="M61,131.9c0,2.3-0.8,4.4-2.3,6.2L73,147c2.1,1.3,3.6,3.3,4.4,5.7l5,16.5l-4.6-18.4c-0.5-2.1-1.9-3.9-3.7-5.1
			L61,137.6C61.8,135.8,61.8,133.7,61,131.9z"/>
		<path class="st13" d="M73.6,107c-2.1,5.5-9.1,4.1-9.1,4.1C64.2,103.7,73.6,107,73.6,107z"/>
		<path class="st14" d="M59,91.5h0.5c3.5,0,7.9,2.4,10.1,8.5l8.4,16.2l-9.6,4.3l-5.3-15.3L59,91.5z"/>
		<path class="st5" d="M65.7,102.3c0.6,2,0.8,4,0.8,6c0,2.2,0.4,4.3,1.3,6.3c2.1-1.5,4.9-1.3,6.9,0.3c0.7,0.6,1.2,1.3,1.6,2.2
			l-7.9,3.5l-5.3-15.3l-2.6-8.5C63,97.8,64.8,99.8,65.7,102.3z"/>
		<path class="st14" d="M68.3,117.6c0.7-1.8,2.4-3.2,4.3-3.5c2-0.2,4,0.6,5.3,2.2c0.9,1.3,1,3.1,0.2,4.5c-1.1,2.4-3.8,3.7-6.4,3
			C69.3,123.1,67.4,120,68.3,117.6z"/>
		<path class="st15" d="M59,91.5c4.2-0.5,9.4,1.5,14.6,15.5c-6.8,0.2-9.1,4.1-9.1,4.1c-3.1-7.8-6.5-18.5-6.5-18.5L59,91.5z"/>
		<path class="st16" d="M59,91.5c4.2-0.5,9.4,1.5,14.6,15.5c-6.8,0.2-9.1,4.1-9.1,4.1c-3.1-7.8-6.5-18.5-6.5-18.5L59,91.5z"/>
		<path class="st7" d="M33,132.9c3.6,3.4,20.8,4.1,29.6-4.3c-0.7-6.1-0.7-12.3,0-18.5c0.6-6.2,4.2-17.2-2.8-18.5
			c-9.3-1.8-14-0.1-21.7,1.8C31.5,104.6,32.5,121.2,33,132.9z"/>
		<path class="st17" d="M33,132.9c3.6,3.4,20.8,4.1,29.6-4.3c-0.7-6.1-0.7-12.3,0-18.5c0.6-6.2,4.2-17.2-2.8-18.5
			c-9.3-1.8-14-0.1-21.7,1.8C31.5,104.6,32.5,121.2,33,132.9z"/>
		<path class="st13" d="M46.8,87.7c-1.4-0.6-2.4-1.8-2.8-3.2c-0.4-1.4-0.6-2.9-0.6-4.3c-0.1-3.4-0.3-6.8-0.4-10.1
			c-0.2-1.4,0-2.8,0.6-4c1-1.8,3.3-2.4,5.1-1.4c0.2,0.1,0.3,0.2,0.5,0.3c1.4-2.8,4.4-4.5,7.5-4.2c1.7,0.4,3.4,1.1,4.9,2l5.1,2.9
			c1.1,0.5,2.1,1.3,2.8,2.3c0.5,1,0.7,2.1,0.5,3.2s-0.5,2.1-1,3.1c-0.4,1.2-1,2.4-1.7,3.5c-0.7,1.1-1.7,1.9-3,2.3
			c-4,1.2-7.1,4.4-10.7,6.5c-1,0.6-2,1.1-3.1,1.5C49.2,88.3,47.9,88.2,46.8,87.7z"/>
		<path class="st14" d="M55.8,88.5l-0.4,4c0,0.3,0.1,0.6,0.2,0.9c0.5,0.9,0.3,1.9-0.4,2.6c-0.5,0.4-1.2,0.6-1.8,0.6
			c-2.5,0.1-4.9-0.8-6.7-2.6c-0.4-0.4-0.6-0.9-0.5-1.4l0.3-10.3L55.8,88.5z"/>
		<path class="st18" d="M46.6,82.5l9.2,6l-0.3,3.6c-2-0.3-3.8-1.1-5.5-2.3C48,88.2,46.3,86.6,46.6,82.5z"/>
		<path class="st14" d="M66.3,73.9c-0.2,4.7-1.3,9.4-3.3,13.7c-0.4,1-0.9,1.8-1.6,2.6c-0.7,0.8-1.6,1.4-2.6,1.6
			c-1.3,0.1-2.5-0.1-3.7-0.6c-2.2-0.7-4.3-1.7-6.2-3.1c-1.8-1.5-2.9-3.9-2.3-6.2c-1.3,0.5-2.7,0.3-3.8-0.5c-1.1-0.8-1.6-2.2-1.5-3.5
			c-0.1-1.4,1-2.5,2.4-2.6c0.8,0,1.7,0.3,2.1,1c0.5,0.6,0.9,1.3,1.2,2c0.1,0.4,0.3,0.7,0.6,0.9c0.3,0.3,0.7,0.3,1.1,0.2
			c0.3-0.3,0.5-0.7,0.5-1.1l0.4-2.9c0.1-0.5,0.4-0.8,0.8-1c0.6-0.2,1.2-0.7,1.6-1.3c0.3-0.5,0.5-1.1,0.7-1.7
			c0.1-0.4,0.5-0.6,0.9-0.5c0.1,0,0.1,0,0.2,0.1C57.5,73.2,61.9,74.2,66.3,73.9z"/>
		<path class="st13" d="M66.6,73c-0.2,1.4-1.2,2.6-2.5,3l0.7-1.5c-1.2,0.9-2.7,1.5-4.3,1.5c0.7-0.4,1.2-1,1.5-1.8
			c-1.7,1.2-3.6,1.9-5.6,2.1c1.2-0.5,2.3-1.2,3.1-2.2c-1.5,1-3.3,1.5-5.1,1.3l1.4-1.6c-1.4,0.7-3,1-4.5,0.8l1.7-1.6l-2.5,0.4
			c0.5-1.3,0.9-2.6,1.1-3.9c2.5-0.2,5,0,7.5,0.6C61.7,71.1,64.2,72,66.6,73z"/>
		<path class="st19" d="M58.4,132.5v-0.2l6.3-11.7l0.9,1l-6.3,11.7c0,0.1-0.1,0.1-0.1,0.2c0,0,0,0.1,0,0.1l-0.9-1c0,0,0,0,0,0
			C58.4,132.6,58.4,132.6,58.4,132.5L58.4,132.5z"/>
		<path class="st20" d="M64.8,120.6v-0.1c0,0,0,0,0,0l0,0l0,0v-0.1l0.1-0.1h0.1l0,0l7.2-4.1h0.5c0,0,0.1,0,0.1,0l0.9,1
			c0-0.1-0.1-0.1-0.2,0c-0.1,0-0.3,0.1-0.4,0.2l-7.2,4.1c-0.1,0.1-0.3,0.2-0.4,0.3c-0.1,0.1-0.3,0.2-0.4,0.3
			c-0.1,0.1-0.2,0.2-0.3,0.4c-0.1,0.1-0.2,0.2-0.2,0.3l-0.9-1L64.8,120.6z"/>
		<path class="st14" d="M33.6,96.7c0.9-1.8,2.6-2.9,4.6-3.1l1.2,1.8c1.3,2.3,1.9,4.9,1.9,7.5l-0.2,19.5l1.4,0.6
			c4,1.7,8.2,3,12.5,3.8c2.2-1.8,5-2.7,7.9-2.7l-1.1,2c2,1.3,6.6-1,6.6-1c0.3,2.8-1.5,5.8-3.9,7.3c-2.4,1.5-25.7-0.7-30.6-3.9
			c-3.2-2.1-2.5-22.2-2.5-22.2C31.1,102.9,31.9,99.5,33.6,96.7z"/>
		<path class="st14" d="M73.3,119.1c0.2,0.8,0.2,1.6,0.3,2.3c-0.2,1.9-1,3.6-2.2,5c-0.3,0.3-0.6,0.5-1,0.7c-0.4,0.1-0.8,0.1-1.1-0.2
			c-0.3-0.3-0.4-0.7-0.4-1.2c-0.1-0.6,0-1.3,0.1-1.9c0.1-0.6,0.5-1.2,1-1.6c0.4-0.2,0.8-0.4,1.3-0.6c0.4-0.2,0.8-0.5,1.1-0.8
			L73.3,119.1z"/>
		<path class="st15" d="M38.2,93.5c-5.6,0.5-8.7,4.4-7.3,21.5c4,2.6,11,0.4,11,0.4C43.1,96.7,40,94.6,38.2,93.5z"/>
		<path class="st16" d="M38.2,93.5c-5.6,0.5-8.7,4.4-7.3,21.5c4,2.6,11,0.4,11,0.4C43.1,96.7,40,94.6,38.2,93.5z"/>
		<path class="st13" d="M58.4,132.5C58.4,132.6,58.4,132.6,58.4,132.5C58.4,132.6,58.4,132.6,58.4,132.5l0.9,1.1v-0.1
			c0,0.1,0.3,0.1,0.6-0.1l7.2-4.1c0.6-0.3,1-0.8,1.4-1.3l6.3-11.7c0.1-0.2,0.1-0.3,0-0.4l-0.8-1c0,0-0.1,0-0.1,0h-0.5l-7.2,4.1l0,0
			H66l-0.1,0.1v0.1l0,0l0,0c0,0,0,0,0,0v0.2l-6.3,11.7v0.2v0L58.4,132.5z M66.2,120.9l0.2-0.2L66.2,120.9z M65.9,121.3L65.9,121.3
			L65.9,121.3z M59.3,133.5c0-0.1,0-0.1,0.1-0.2C59.3,133.3,59.3,133.4,59.3,133.5C59.3,133.5,59.3,133.5,59.3,133.5L59.3,133.5z"/>
		<path class="st21" d="M152.3,120.5c-2.5-1.7-2.5-1.7-2.8-4.4c-0.1-0.5-0.3-1-0.6-1.5c-1.6-2.8-3.7-5.3-4.4-8.6
			c-0.1-0.5-0.5-0.9-0.8-1.3c-0.6-1-1.3-2-1.8-3.1c-0.4-1-0.5-2.2-0.7-3.3c-0.3-2-0.7-4-0.9-6c-0.1-1.3,0-2.6,0-3.9
			c-0.2,0-0.3,0-0.5,0c0,0.4-0.1,0.8-0.1,1.2c-0.3,1.5-2.1,2.7-3.5,2c-1.5-0.8-2.8-1.9-4.5-3.2c1.3-0.6,2.1-1,3-1.3
			c-1.9,0-3.2-0.9-4.3-2.3c0-0.2,0-0.4,0-0.6c0.8-0.4,1.5-1,2.3-1.1c1.2-0.2,2.5,0,3.8,0c0.1-0.2,0.1-0.4,0.2-0.5
			c-0.9-1.5-1.7-3-2.6-4.4c-0.6-1-0.4-1.8,0.1-2.7c0.6-0.9,1.3-0.8,2.2-0.7c0.5,0.1,1.1,0,1.4-0.2c2.4-2.1,3.6-5.2,5.5-7.7
			c0.1-0.1,0.1-0.4,0.1-0.6c0.1-0.6,0.2-1.3,0.4-2.2c-0.1-0.1-0.5-0.4-0.9-0.4c-1-0.1-1.6-0.4-1.4-1.6c0-0.2,0-0.5-0.2-0.7
			c-1.5-1.2-0.7-2.2,0.7-3.3c-1.2-0.7-2.3-1.3-3.7-2.1c0.8-0.6,1.4-1.3,2.2-1.8c0.6-0.4,1.4-0.6,2.1-0.8c0.6,0,1.2,0,1.8,0
			c1,0.8,2.1,1.5,3,2.3c1,0.9,1.8,1.2,3,0.2c0.4-0.4,1.2-0.6,1.8-0.5c0.6,0.1,1.4,0.5,1.7,1c0.3,0.5,0.1,1.4-0.2,2
			c-0.4,0.9-1.4,1.6-0.9,2.7c0.8,1.9,0.7,2.2-1,3.4c0.7,1.4,1.8,2.2,3.3,2.6c0.7,0.2,1.5,0.1,1.8,1.2c0.3,1-0.1,1.5-0.8,2.1
			c-0.6,0.5-0.9,1.1,0,1.6c2.2,1.2,4.5,1.9,7,2c1.1,0.1,2.2,0.4,3.1,1c1.6,1.1,3.2,0.1,4.7,0.4c0.1,0,0.2-0.2,0.3-0.3
			c0.9-0.7,0.4-1.4,0-2.1c-0.2-0.3-0.1-1,0.1-1.3c0.3-0.4,0.9-0.5,1.3-0.7c0.2,0.4,0.4,0.8,0.6,1.2c0.2,0.4,0.2,1,0.5,1.3
			c1.1,1,5.3,0.2,6.2-1.1c-0.4-0.4-0.8-0.9-1.1-1.3c0.9-0.6,1.8-1,2.4-1.6c1.2-1.4,2.2-3,4.4-2.7c0.1,0,0.3-0.2,0.5-0.3
			c0.5,0,1.3-0.2,1.5,0c0.6,0.8,1.5,0.8,2.3,0.9c0,1.1,0,2.1,0,3.2c-0.8,0.3-1.6,0.5-2.3,0.9c-1.9,1.1-0.9,3-1,4.5
			c-0.1,1.8-0.4,2.8-2.3,3.3c0,1.2,0,2.4,0,3.6c0,0.4-0.3,0.8-0.5,1.2c-0.4-0.3-1-0.5-1.2-0.9c-0.4-0.8-0.5-1.7-0.7-2.7
			c-0.7,0.6-1.3,1.2-1.9,1.8c-0.2-1.4-1.3-2.8,0.3-3.9c0.3-0.2,0.3-0.7,0.4-1.1c-0.4,0-0.8-0.1-1.2-0.1c-0.3,0-0.5,0.2-0.8,0.3
			c-1.8,0.6-2.4,0.3-3.4-1.3c-0.2-0.3-0.6-0.6-0.9-0.6c-0.6,0-1.2,0.2-2.1,0.4c1.5,0.6,2.3,1.2,1,2.4c-0.1,0.1-0.1,0.8,0,0.9
			c1.8,1.3,1.4,3.4,2.1,5.1c0.1,0.3-0.2,1.1-0.6,1.3c-1.1,0.5-2.2,0.8-3.3,1.1c0,0.5,0,0.7,0.1,1c0.5,1.1,0.1,1.8-0.9,2.5
			c-1.6,1.2-3.5,2-4.2,4.1c-0.1,0.4-0.8,0.7-1.1,1.1c-0.9,1.4-2.9,2-2.9,4c0,0.2-0.6,0.5-1,0.7c-1.1,0.6-2.2,1.1-3.3,1.6
			c-0.1,0.1-0.2,0.5-0.1,0.8c0.7,2.7,1.8,5.4,0,8.1c-0.1,0.1,0,0.3,0,0.4c-0.4,1.3,1,3-0.9,4c-0.1,0,0,0.6,0.2,0.8
			c0.2,0.4,0.5,0.7,0.7,1.1c-2.6,0.2-2.6,0.2-4.2,3"/>
	</g>
</g>
</svg>
