<svg xmlns="http://www.w3.org/2000/svg" xmlns:xlink="http://www.w3.org/1999/xlink" width="244.977" height="208.653" viewBox="0 0 244.977 208.653">
  <defs>
    <clipPath id="clip-path">
      <path id="Path_7445" data-name="Path 7445" d="M224.67,288.6s.364,6.969.733,8.794a137.728,137.728,0,0,1,2.4,14.1,47.1,47.1,0,0,0,1.654,8.821s4.46,17.323,4.725-4.438c.094-7.675-.733-19.738-.733-19.738l.364-3.655" transform="translate(-224.67 -288.6)" fill="#fff" stroke="#263238" stroke-linecap="round" stroke-linejoin="round" stroke-width="0.97"/>
    </clipPath>
    <clipPath id="clip-path-2">
      <path id="Path_7453" data-name="Path 7453" d="M219.644,294.83s-3.749.788-5.034,3.716-1.461,9.687-1.279,11.512a31.874,31.874,0,0,1,0,4.411l5.127-1.654" transform="translate(-213.271 -294.83)" fill="#fff" stroke="#263238" stroke-linecap="round" stroke-linejoin="round" stroke-width="0.97"/>
    </clipPath>
    <clipPath id="clip-path-3">
      <path id="Path_7462" data-name="Path 7462" d="M192.934,312.18s-12.085,6.759-12.637,7.857-11.9,35.286-12.08,37.651,8.97,11.33,8.97,11.33" transform="translate(-168.215 -312.18)" fill="none" stroke="#263238" stroke-linecap="round" stroke-linejoin="round" stroke-width="0.97"/>
    </clipPath>
    <clipPath id="clip-path-4">
      <path id="Path_7480" data-name="Path 7480" d="M215.312,233.668s-5.309,3.1-5.673,7.675a28.251,28.251,0,0,0,.915,8.954s-1.654-1.461-1.83,1.83,2.564,5.844,3.661,5.844h1.1s2.442,5.017,5.376,7.393,5.795,2.481,7.807,1.748,5.861-4.019,6.23-8.408a120.223,120.223,0,0,0-.369-16.264c-.369-4.565-1.279-7.862-6.225-9.505A13.453,13.453,0,0,0,215.312,233.668Z" transform="translate(-208.715 -232.105)" fill="#fff" stroke="#263238" stroke-linecap="round" stroke-linejoin="round" stroke-width="0.97"/>
    </clipPath>
    <clipPath id="clip-path-5">
      <path id="Path_7606" data-name="Path 7606" d="M313.344,315.674a7.375,7.375,0,0,1-.308,2.257c-.351,1.083-1.5,2.575-.478,3.244s2.324-1.461,2.663-3.249.586-3.926.586-3.926Z" transform="translate(-312.145 -314)" fill="#fff" stroke="#263238" stroke-miterlimit="10" stroke-width="0.5"/>
    </clipPath>
    <clipPath id="clip-path-6">
      <path id="Path_7610" data-name="Path 7610" d="M308.131,292a34.8,34.8,0,0,0-.861,4.923,3.328,3.328,0,0,0,2.788,3.108c1.989.16,2.721-2.513,3.151-4.036.373-1.322.626-2.465.689-2.747C310.873,294.391,308.131,292,308.131,292Z" transform="translate(-307.27 -292)" fill="#fff" stroke="#263238" stroke-miterlimit="10" stroke-width="0.5"/>
    </clipPath>
    <clipPath id="clip-path-7">
      <path id="Path_7625" data-name="Path 7625" d="M165.29,311.15s.971,3.5,1.215,4.712,1.36,2.965,2.185,2.391a1.914,1.914,0,0,0,.292-2.575,11.356,11.356,0,0,1-.777-1.992Z" transform="translate(-165.29 -311.15)" fill="#fff" stroke="#263238" stroke-miterlimit="10" stroke-width="1"/>
    </clipPath>
    <clipPath id="clip-path-8">
      <path id="Path_7633" data-name="Path 7633" d="M167.62,285.118c-.182-1.045-.662-2.73-.445-3.22a2.219,2.219,0,0,0-2.13-1.248c-1.9-.1-3.935.971-4.325,1.992s.536.478.875,1.215-.536,1.6-.339,2.137,1.116,2.63,1.116,2.63c.146-.583,2.333-1.556,2.333-1.556a3.107,3.107,0,0,0,.971.1c.438-.048.194-.437.194-.437l2.24.134C167.919,286.156,167.692,285.542,167.62,285.118Z" transform="translate(-160.626 -280.644)" fill="#fff" stroke="#263238" stroke-miterlimit="10" stroke-width="1"/>
    </clipPath>
    <clipPath id="clip-path-9">
      <path id="Path_7646" data-name="Path 7646" d="M313.169,192.32a2.636,2.636,0,0,1-.048,1.8c-.34,1.262-1.2,3.347-.8,3.744s2.79-1.411,2.886-2.771.1-4.081.1-4.081Z" transform="translate(-312.22 -191.01)" fill="#fff" stroke="#263238" stroke-miterlimit="10" stroke-width="1"/>
    </clipPath>
    <clipPath id="clip-path-10">
      <path id="Path_7651" data-name="Path 7651" d="M304.975,159.71a21.952,21.952,0,0,0-1.748,4.664c-.339,1.9,1.069,4.76,2.477,4.76s3.586-2.185,3.586-2.185,2.039.048,2.331-.631-.048-1.215-.583-1.215h-1.069s-.292.146-.146-1.215a4.592,4.592,0,0,1,.583-1.992S306.72,162.187,304.975,159.71Z" transform="translate(-303.176 -159.71)" fill="#fff" stroke="#263238" stroke-miterlimit="10" stroke-width="1"/>
    </clipPath>
    <clipPath id="clip-path-11">
      <path id="Path_7667" data-name="Path 7667" d="M176.679,188.21s0,1.752-.186,3.378.062,3.376,1.25,3.5,1-2.687.875-3.813a10.23,10.23,0,0,1,0-2.125Z" transform="translate(-176.437 -188.21)" fill="#fff" stroke="#263238" stroke-miterlimit="10" stroke-width="1"/>
    </clipPath>
    <clipPath id="clip-path-12">
      <path id="Path_7671" data-name="Path 7671" d="M172.229,155.52s.124.813-2,1.815-3.189,1.812-3.376,2.749-.251,1.315-.251,1.315a.91.91,0,0,0-1.25-.44c-.813.438-.062,2.128.689,2.19s.937-.189.937-.189,2.439,2.439,3.875,2.439,2-1.375,2.314-3.825C173.469,159.221,172.229,155.52,172.229,155.52Z" transform="translate(-164.999 -155.52)" fill="#fff" stroke="#263238" stroke-miterlimit="10" stroke-width="1"/>
    </clipPath>
  </defs>
  <g id="Analytics-bro" transform="translate(0.502 0.532)">
    <g id="freepik--chart-4--inject-261" transform="translate(83.558)">
      <rect id="Rectangle_999" data-name="Rectangle 999" width="15.608" height="3.595" transform="translate(34.685 7.063)" fill="#128b84"/>
      <rect id="Rectangle_1000" data-name="Rectangle 1000" width="10.255" height="3.595" transform="translate(34.685 12.256)" fill="#128b84"/>
      <rect id="Rectangle_1001" data-name="Rectangle 1001" width="5.905" height="3.595" transform="translate(34.685 17.45)" fill="#128b84"/>
      <g id="Group_9580" data-name="Group 9580" transform="translate(34.685 7.063)">
        <rect id="Rectangle_1002" data-name="Rectangle 1002" width="15.608" height="3.595" fill="#fff"/>
        <rect id="Rectangle_1003" data-name="Rectangle 1003" width="10.255" height="3.595" transform="translate(0 5.194)" fill="#fff"/>
        <rect id="Rectangle_1004" data-name="Rectangle 1004" width="5.905" height="3.595" transform="translate(0 10.387)" fill="#fff"/>
      </g>
      <rect id="Rectangle_1005" data-name="Rectangle 1005" width="10.823" height="5.293" transform="translate(7.581 57.692) rotate(-90)" fill="#128b84"/>
      <rect id="Rectangle_1006" data-name="Rectangle 1006" width="7.107" height="5.293" transform="translate(15.228 57.692) rotate(-90)" fill="#128b84"/>
      <rect id="Rectangle_1007" data-name="Rectangle 1007" width="4.091" height="5.293" transform="translate(22.869 57.686) rotate(-90)" fill="#128b84"/>
      <g id="Group_9581" data-name="Group 9581" transform="translate(7.581 46.869)" opacity="0.2">
        <rect id="Rectangle_1008" data-name="Rectangle 1008" width="10.823" height="5.293" transform="translate(0 10.823) rotate(-90)" fill="#fff"/>
        <rect id="Rectangle_1009" data-name="Rectangle 1009" width="7.107" height="5.293" transform="translate(7.647 10.823) rotate(-90)" fill="#fff"/>
        <rect id="Rectangle_1010" data-name="Rectangle 1010" width="4.091" height="5.293" transform="translate(15.289 10.817) rotate(-90)" fill="#fff"/>
      </g>
      <path id="Path_7370" data-name="Path 7370" d="M198.335,152.267h64.093a6.384,6.384,0,0,0,6.4-6.384V93.064a6.385,6.385,0,0,0-6.4-6.384H198.335a6.39,6.39,0,0,0-6.4,6.384v52.818A6.39,6.39,0,0,0,198.335,152.267Z" transform="translate(-191.94 -86.68)" fill="none" stroke="#fff" stroke-miterlimit="10" stroke-width="1.063"/>
      <line id="Line_60" data-name="Line 60" x2="22.853" transform="translate(46.808 47.454)" fill="none" stroke="#263238" stroke-miterlimit="10" stroke-width="1.063"/>
      <line id="Line_61" data-name="Line 61" x2="22.853" transform="translate(46.808 49.896)" fill="none" stroke="#263238" stroke-miterlimit="10" stroke-width="1.063"/>
      <line id="Line_62" data-name="Line 62" x2="22.853" transform="translate(46.808 52.338)" fill="none" stroke="#263238" stroke-miterlimit="10" stroke-width="1.063"/>
      <line id="Line_63" data-name="Line 63" x2="22.853" transform="translate(46.808 54.786)" fill="none" stroke="#263238" stroke-miterlimit="10" stroke-width="1.063"/>
      <line id="Line_64" data-name="Line 64" x2="22.853" transform="translate(46.808 57.229)" fill="none" stroke="#263238" stroke-miterlimit="10" stroke-width="1.063"/>
      <line id="Line_65" data-name="Line 65" x2="22.853" transform="translate(6.881 7.597)" fill="none" stroke="#263238" stroke-miterlimit="10" stroke-width="1.063"/>
      <line id="Line_66" data-name="Line 66" x2="22.853" transform="translate(6.881 10.04)" fill="none" stroke="#263238" stroke-miterlimit="10" stroke-width="1.063"/>
      <line id="Line_67" data-name="Line 67" x2="22.853" transform="translate(6.881 12.482)" fill="none" stroke="#263238" stroke-miterlimit="10" stroke-width="1.063"/>
      <line id="Line_68" data-name="Line 68" x2="22.853" transform="translate(6.881 14.925)" fill="none" stroke="#263238" stroke-miterlimit="10" stroke-width="1.063"/>
      <line id="Line_69" data-name="Line 69" x2="22.853" transform="translate(6.881 17.373)" fill="none" stroke="#263238" stroke-miterlimit="10" stroke-width="1.063"/>
      <path id="Path_7371" data-name="Path 7371" d="M265.6,127.166l4.356,2.288-.491-12.284-10.409,6.566,4.356,2.283-3.275,6.236h0a2.624,2.624,0,0,0-1.6.551l-5.767-2.679h0a2.657,2.657,0,1,0-5.315,0,2.619,2.619,0,0,0,.243,1.1l-7.559,8.193a2.536,2.536,0,0,0-.744-.121,2.866,2.866,0,0,0-.38.039l-10.867-13.734a2.619,2.619,0,0,0,.232-1.1,2.657,2.657,0,1,0-5.315,0,2.756,2.756,0,0,0,.138.8L210.8,137.944a2.718,2.718,0,0,0-.91-.165,2.652,2.652,0,1,0,2.657,2.652,2.535,2.535,0,0,0-.088-.651L224.971,127a2.641,2.641,0,0,0,.755.121,2.756,2.756,0,0,0,.485-.044l10.812,13.706a2.657,2.657,0,1,0,4.9.342l7.752-8.4a2.919,2.919,0,0,0,.447.044,2.63,2.63,0,0,0,1.478-.452l5.9,2.757a2.652,2.652,0,1,0,4.83-1.654Z" transform="translate(-198.805 -100.36)" fill="#89c5c2" stroke="#263238" stroke-width="0.5"/>
    </g>
    <g id="freepik--Characters--inject-261" transform="translate(0 38.053)">
      <path id="Path_7409" data-name="Path 7409" d="M204.275,414.79l-24.435,2.823,7.5,6.947,16.849-1.461" transform="translate(-98.485 -276.357)" fill="#263238" stroke="#263238" stroke-linecap="round" stroke-linejoin="round" stroke-width="0.97"/>
      <line id="Line_92" data-name="Line 92" y1="1.709" x2="15.652" transform="translate(89.322 140.655)" fill="none" stroke="#fff" stroke-linecap="round" stroke-linejoin="round" stroke-width="0.485"/>
      <line id="Line_93" data-name="Line 93" y1="1.218" x2="14.186" transform="translate(90.546 142.855)" fill="none" stroke="#fff" stroke-linecap="round" stroke-linejoin="round" stroke-width="0.485"/>
      <line id="Line_94" data-name="Line 94" y1="1.224" x2="12.962" transform="translate(92.013 144.316)" fill="none" stroke="#fff" stroke-linecap="round" stroke-linejoin="round" stroke-width="0.485"/>
      <line id="Line_95" data-name="Line 95" x2="4.46" y2="4.863" transform="translate(90.882 141.361)" fill="none" stroke="#fff" stroke-linecap="round" stroke-linejoin="round" stroke-width="0.485"/>
      <line id="Line_96" data-name="Line 96" x2="4.433" y2="4.582" transform="translate(94.185 141.201)" fill="none" stroke="#fff" stroke-linecap="round" stroke-linejoin="round" stroke-width="0.485"/>
      <line id="Line_97" data-name="Line 97" x2="4.427" y2="4.582" transform="translate(97.614 140.71)" fill="none" stroke="#fff" stroke-linecap="round" stroke-linejoin="round" stroke-width="0.485"/>
      <line id="Line_98" data-name="Line 98" x2="3.694" y2="3.848" transform="translate(101.28 140.468)" fill="none" stroke="#fff" stroke-linecap="round" stroke-linejoin="round" stroke-width="0.485"/>
      <path id="Path_7410" data-name="Path 7410" d="M127.371,267.447c-.8-.342-4.532-14.847-4.532-14.847l-1.919-5.469s-2.883-9.841-3.986-11.672-5.513-3.308-5.513-3.308l-1.654-.91-7.167-3.859v.039l-1.031-2.156L89.23,215.34s.221,2.393.551,4.753a13.575,13.575,0,0,0-3.473,3.1c-.171.27-.32.849-1,2.365-2.757,1.422-13.138,6.864-16.573,9.516-4.03,3.1-4.764,5.3-4.582,7.129l.187,2.922s1.72,10.475,3.512,15.641l-.221-.1-.061,64.3L119.189,323l.083-47.762c1.764-.579,3.6-1.257,4.708-1.748l.276.248,2.327,1.7a3.027,3.027,0,0,0,2.652.491c.987-.281.369-1.45-.347-1.836a13.228,13.228,0,0,1-1.544-1.218l-2.15-2.679c1.29.232,3.358.6,4.218.717,1.279.182,2.928.551,3.11-1.1S128.656,268,127.371,267.447Z" transform="translate(-46.567 -186.871)" fill="#128b84"/>
      <path id="Path_7411" data-name="Path 7411" d="M109.77,215.38s.7,7.774,1.158,9.174c.413,1.268,2.5,8.187,4.333,11.291s4.063,2.757,4.411-.728a90.618,90.618,0,0,0,.171-9.136" transform="translate(-67.047 -186.889)" fill="none" stroke="#263238" stroke-linecap="round" stroke-linejoin="round" stroke-width="0.97"/>
      <path id="Path_7412" data-name="Path 7412" d="M103.93,224.29a12.517,12.517,0,0,0-3.347,2.944c-.915,1.461-4.764,14.985-4.764,14.985l7.322.369-6.225,2.757" transform="translate(-60.788 -190.886)" fill="none" stroke="#263238" stroke-linecap="round" stroke-linejoin="round" stroke-width="0.97"/>
      <path id="Path_7413" data-name="Path 7413" d="M98.15,265.43s6.225,10.238,7.14,11.341a12.73,12.73,0,0,1,1.461,2.205" transform="translate(-61.833 -209.344)" fill="none" stroke="#263238" stroke-linecap="round" stroke-linejoin="round" stroke-width="0.97"/>
      <path id="Path_7414" data-name="Path 7414" d="M111.43,230s3.11,12.8,4.962,19.556,3.622,15.178,3.622,15.178" transform="translate(-67.792 -193.448)" fill="none" stroke="#263238" stroke-linecap="round" stroke-linejoin="round" stroke-width="0.97"/>
      <path id="Path_7415" data-name="Path 7415" d="M128,237.26s.733,14.8.733,20.653v9.318" transform="translate(-75.226 -196.706)" fill="none" stroke="#263238" stroke-linecap="round" stroke-linejoin="round" stroke-width="0.97"/>
      <path id="Path_7416" data-name="Path 7416" d="M132.68,234.6l4.945,10.056-4.03,1.279,6.225,3.468-5.673,17.731" transform="translate(-77.326 -195.512)" fill="none" stroke="#263238" stroke-linecap="round" stroke-linejoin="round" stroke-width="0.97"/>
      <line id="Line_99" data-name="Line 99" x2="7.14" y2="3.837" transform="translate(56.087 40.554)" fill="none" stroke="#263238" stroke-linecap="round" stroke-linejoin="round" stroke-width="0.97"/>
      <line id="Line_100" data-name="Line 100" x2="0.915" y2="17.18" transform="translate(68.906 55.54)" fill="none" stroke="#263238" stroke-linecap="round" stroke-linejoin="round" stroke-width="0.97"/>
      <path id="Path_7417" data-name="Path 7417" d="M85.305,233.94s-12.449,6.4-16.474,9.505-4.764,5.3-4.582,7.129" transform="translate(-46.612 -195.216)" fill="none" stroke="#263238" stroke-linecap="round" stroke-linejoin="round" stroke-width="0.97"/>
      <line id="Line_101" data-name="Line 101" y2="63.966" transform="translate(21.116 73.817)" fill="none" stroke="#263238" stroke-linecap="round" stroke-linejoin="round" stroke-width="0.97"/>
      <line id="Line_102" data-name="Line 102" y2="45.877" transform="translate(53.342 89.535)" fill="none" stroke="#263238" stroke-linecap="round" stroke-linejoin="round" stroke-width="0.97"/>
      <path id="Path_7418" data-name="Path 7418" d="M78.69,262.46s4.2,1.472,6.065,5.039" transform="translate(-53.102 -208.012)" fill="none" stroke="#263238" stroke-linecap="round" stroke-linejoin="round" stroke-width="0.97"/>
      <path id="Path_7419" data-name="Path 7419" d="M83.64,262.08a11.1,11.1,0,0,1,5.464,5.039" transform="translate(-55.323 -207.841)" fill="none" stroke="#263238" stroke-linecap="round" stroke-linejoin="round" stroke-width="0.97"/>
      <path id="Path_7420" data-name="Path 7420" d="M79.07,368.57H93.008V371.3H79.566" transform="translate(-53.273 -255.62)" fill="none" stroke="#263238" stroke-linecap="round" stroke-linejoin="round" stroke-width="0.97"/>
      <path id="Path_7421" data-name="Path 7421" d="M142.171,280.889c-1.312-3.308-2.409-6.065-2.983-7.879a8.094,8.094,0,0,1-2.365,5.943c-3.8,3.716-4.879,2.426-4.708,7.586s2.205,7.5.932,11.9-6.815,8.744-6.616,16.364a10.629,10.629,0,0,0,1.356,4.758L104.84,350.192l32.816-.965V305.412Z" transform="translate(-64.835 -212.745)" fill="#128b84"/>
      <path id="Path_7422" data-name="Path 7422" d="M142.171,280.889c-1.312-3.308-2.409-6.065-2.983-7.879a8.094,8.094,0,0,1-2.365,5.943c-3.8,3.716-4.879,2.426-4.708,7.586s2.205,7.5.932,11.9-6.815,8.744-6.616,16.364a10.629,10.629,0,0,0,1.356,4.758L104.84,350.192l32.816-.965V305.412Z" transform="translate(-64.835 -212.745)" fill="#fff" opacity="0.7"/>
      <line id="Line_103" data-name="Line 103" y2="19.038" transform="translate(72.848 115.547)" fill="none" stroke="#263238" stroke-linecap="round" stroke-linejoin="round" stroke-width="0.97"/>
      <path id="Path_7423" data-name="Path 7423" d="M124.562,177.024c1.1-.182,6.588-3.655,5.673-7.129s-8.617-7.68-14.66-5.662a28.89,28.89,0,0,0-9.891,5.662s-4.025,0-5.513,1.654-.364,4.2.551,6.032c.794,1.582.761,5.778.739,6.864a.265.265,0,0,0-.143.033,2.492,2.492,0,0,0-1.224,1.621c-.248,1.1.21,2.575,1.323,4.24a4.361,4.361,0,0,0,3.573,2.134h0a7,7,0,0,1,1.152,1.841c.463,1.1,5.078,8.182,7.719,8.386.38.033.744.044,1.1.044,2.277,0,3.931-.612,4.819-1.792,1.174-1.56,4.085-7.851,4.449-10.911.061-.551.094-1.241.11-2.068a2.922,2.922,0,0,0,0-3.622c-.061-3.236-.232-6.588-.276-7.36a1.1,1.1,0,0,0,.5.033Z" transform="translate(-62.416 -163.705)" fill="#ffbe9d"/>
      <path id="Path_7424" data-name="Path 7424" d="M124.507,187.53s.551,10.051.182,13.16-3.308,9.318-4.411,10.784-3.308,1.825-5.673,1.654-6.958-6.947-7.509-8.226a6.82,6.82,0,0,0-1.279-2.007,4.036,4.036,0,0,1-3.479-2.012c-1.467-2.194-2.012-4.411-.182-5.486" transform="translate(-63.11 -174.394)" fill="none" stroke="#263238" stroke-linecap="round" stroke-linejoin="round" stroke-width="0.97"/>
      <path id="Path_7430" data-name="Path 7430" d="M107.165,177.2s1.467,3.473,1.83,4.025-1.83,3.1-1.83,3.1v2.558l-2.205.182-2.205-2.007-1.279-.369s.182-5.3-.733-7.123-2.012-4.411-.551-6.032,5.513-1.654,5.513-1.654a28.89,28.89,0,0,1,9.891-5.662c6.065-2.012,13.728,2.205,14.643,5.662s-4.56,6.952-5.662,7.134-2.757-2.007-4.411-2.007H117.6c-1.83,0-2.012-.187-4.03-.187S107.165,177.2,107.165,177.2Z" transform="translate(-62.43 -163.703)" fill="#263238"/>
      <path id="Path_7431" data-name="Path 7431" d="M117.02,177.555a13.2,13.2,0,0,0,4.692-4.681c1.566-2.95-3.65-1.56-5.039.347s1.913,1.213,1.913,1.213" transform="translate(-69.991 -167.053)" fill="none" stroke="#fff" stroke-linecap="round" stroke-linejoin="round" stroke-width="0.485"/>
      <path id="Path_7432" data-name="Path 7432" d="M109.916,188.19a7.434,7.434,0,0,1-4.306,2.205" transform="translate(-65.18 -174.69)" fill="none" stroke="#fff" stroke-linecap="round" stroke-linejoin="round" stroke-width="0.485"/>
      <path id="Path_7433" data-name="Path 7433" d="M110.959,192.82s-3.308,1.56-5.039,1.56" transform="translate(-65.32 -176.767)" fill="none" stroke="#fff" stroke-linecap="round" stroke-linejoin="round" stroke-width="0.485"/>
      <path id="Path_7434" data-name="Path 7434" d="M105.92,198.16s2.608.551,4,0" transform="translate(-65.32 -179.163)" fill="none" stroke="#fff" stroke-linecap="round" stroke-linejoin="round" stroke-width="0.485"/>
      <path id="Path_7435" data-name="Path 7435" d="M122.62,177.453a36.9,36.9,0,0,0,5.9-1.731c4.515-1.56,6.065-3.308,3.126-5.552" transform="translate(-72.812 -166.605)" fill="none" stroke="#fff" stroke-linecap="round" stroke-linejoin="round" stroke-width="0.485"/>
      <path id="Path_7436" data-name="Path 7436" d="M233.8,328.843s-7.195-19.137-9.042-20.978-11.1-7.482-11.1-7.482l-.744-1.274-.452-1.549a6.78,6.78,0,0,0-2.139-3.484l-.127-.27-10.916-4.675s.077,1.444.193,3.187c-1.29.469-4.152,1.726-5.133,3.964a21.426,21.426,0,0,0-1.185,6.125l-.447.331.165-.607s-12.085,6.776-12.631,7.879c-.706.926-2.531,6.864-2.531,6.864s-1.819,5.706-3.821,12.008c-2.823,8.667-5.552,17.328-5.728,18.712v.066c-.182,2.376,8.893,11.137,8.893,11.137h.121l1.1,1.1v-.458c.766,1.56,2.018,3.859,3.01,3.374.816-.4.551-1.819-.11-3.666.822,1.252,1.764,2.161,2.514,1.8,1.3-.64.651-2.85-.651-6.015a1.99,1.99,0,0,0-1.246-1.141c.419-.044.844-.088,1.279-.143.436,2.023,1.411,3.777,2.509,3.545s1.263-1.654,1.042-4.074c.11,0,.259-.325.369-.342.485,1.7,1.229,3.22,2.167,3.021,1.031-.221,1.312-1.246,1.191-3.308,0-.766-.055-1.014-.083-1.5.4.248,2.376,1.439,2.6,1.61.733.551,6.313-.64,6.313-.64,8.149-2.635,21.177-2.757,29.59-8.391C234.39,339.781,233.8,328.843,233.8,328.843ZM182.437,344.5l2.205-14.511.877,13.232-.259,3.264Z" transform="translate(-93.242 -219.978)" fill="#128b84"/>
      <path id="Path_7437" data-name="Path 7437" d="M170.876,281.336,184,273.617s.821-7.035,2.5-7.752a6.9,6.9,0,0,1,4.923-1.615c1.5.221,2.608-1.654,3.457-4.918,0-6.456-.088-14.7-.154-19.848-.551-2.542-1.147-4.6-1.345-5.409l-6.186-2.6s-1.323-4.466-8.127-5.464-14.1,6.3-14.93,11.264,3.981,10.266,2.156,13.083-9.455,6.952-11.446,11.755a16.724,16.724,0,0,0-1.494,8.116s5.475,7.779,3.981,10.431-10.282,5.133-10.117,12.918c.154,7.211,7.294,12.289,15.206,13.232Z" transform="translate(-83.848 -191.619)" fill="#263238"/>
      <path id="Path_7438" data-name="Path 7438" d="M193.758,235.169s-4.686-5.37-10.591-3.639-8.165,7.978-6.947,11.1,3.992,5.717,1.908,10.4-7.294,5.376-9.924,10.751-1.908,7.112-1.908,7.112" transform="translate(-92.367 -193.981)" fill="none" stroke="#fff" stroke-linecap="round" stroke-linejoin="round" stroke-width="0.485"/>
      <path id="Path_7439" data-name="Path 7439" d="M204.786,246.59s-4.339.518-4.339,3.308,2.431,4.157,2.757,7.625-.695,4.857-3.308,9.191-2.757,6.588-.866,9.538,3.126,7.8.695,9.533" transform="translate(-106.522 -200.892)" fill="none" stroke="#fff" stroke-linecap="round" stroke-linejoin="round" stroke-width="0.485"/>
      <path id="Path_7440" data-name="Path 7440" d="M197.453,239.26s-5.21-2.757-9.373-.171,1.389,7.8,2.084,12.653-2.757,8.325-7.465,13.524a14.566,14.566,0,0,0-3.473,11.617" transform="translate(-98.147 -197.03)" fill="none" stroke="#fff" stroke-linecap="round" stroke-linejoin="round" stroke-width="0.485"/>
      <path id="Path_7441" data-name="Path 7441" d="M166.739,319.55s1.213,2.6-2.09,6.065-10.42,4.339-12.129,9.538,1.7,7.978,1.7,7.978" transform="translate(-86.012 -233.626)" fill="none" stroke="#fff" stroke-linecap="round" stroke-linejoin="round" stroke-width="0.485"/>
      <path id="Path_7442" data-name="Path 7442" d="M224.67,288.6s.364,6.969.733,8.794a137.728,137.728,0,0,1,2.4,14.1,47.1,47.1,0,0,0,1.654,8.821s4.46,17.323,4.725-4.438c.094-7.675-.733-19.738-.733-19.738l.364-3.655" transform="translate(-118.598 -219.74)" fill="#ffbe9d"/>
      <g id="Group_9588" data-name="Group 9588" transform="translate(106.072 68.86)" clip-path="url(#clip-path)">
        <path id="Path_7443" data-name="Path 7443" d="M232.376,294.248l-6.726,4.339-.43-7.327S229.713,293.917,232.376,294.248Z" transform="translate(-224.917 -289.793)" fill="#128b84" opacity="0.3" style="mix-blend-mode: multiply;isolation: isolate"/>
        <path id="Path_7444" data-name="Path 7444" d="M239.836,302.23s-.221,12.438-.827,17.7a24.9,24.9,0,0,0,1.014,9.924S240.867,310.61,239.836,302.23Z" transform="translate(-231.048 -294.715)" fill="#128b84" opacity="0.3" style="mix-blend-mode: multiply;isolation: isolate"/>
      </g>
      <path id="Path_7446" data-name="Path 7446" d="M224.67,288.6s.364,6.969.733,8.794a137.728,137.728,0,0,1,2.4,14.1,47.1,47.1,0,0,0,1.654,8.821s4.46,17.323,4.725-4.438c.094-7.675-.733-19.738-.733-19.738l.364-3.655" transform="translate(-118.598 -219.74)" fill="none" stroke="#263238" stroke-linecap="round" stroke-linejoin="round" stroke-width="0.97"/>
      <path id="Path_7447" data-name="Path 7447" d="M214.923,341.56l-1.163,2.492,7.653,7.471Z" transform="translate(-113.703 -243.501)" fill="#128b84"/>
      <path id="Path_7448" data-name="Path 7448" d="M214.923,341.56l-1.163,2.492,7.653,7.471Z" transform="translate(-113.703 -243.501)" fill="#fff" opacity="0.7"/>
      <path id="Path_7449" data-name="Path 7449" d="M198.874,347.673s2.558-5.91,3.363-4.565-4.306,7.118-2.288,7.923,4.962-2.15,4.036.265-2.553,5.238-2.553,6.451.551,13.16.551,13.16l.138.8-1.615,1.1s-1.748-1.748-1.748-3.225-.27-7.388-.27-8.728-.629-6.065-.629-6.065Z" transform="translate(-106.57 -244.106)" fill="#128b84"/>
      <path id="Path_7450" data-name="Path 7450" d="M198.937,347.673s2.558-5.91,3.363-4.565-4.306,7.118-2.288,7.923,4.962-2.15,4.036.265-2.553,5.238-2.553,6.451.551,13.16.551,13.16l.138.8-1.615,1.1s-1.748-1.748-1.748-3.225-.27-7.388-.27-8.728-.551-6.4-.551-6.4Z" transform="translate(-106.633 -244.106)" fill="#fff" opacity="0.7"/>
      <path id="Path_7451" data-name="Path 7451" d="M219.644,294.83s-3.749.788-5.034,3.716-1.461,9.687-1.279,11.512a31.874,31.874,0,0,1,0,4.411l5.127-1.654" transform="translate(-113.484 -222.535)" fill="#fff"/>
      <g id="Group_9589" data-name="Group 9589" transform="translate(99.787 72.295)" clip-path="url(#clip-path-2)">
        <path id="Path_7452" data-name="Path 7452" d="M220.6,299.472a6.787,6.787,0,0,0-4.212,1.593,7.386,7.386,0,0,0-2.393,4.775,13.306,13.306,0,0,1,.684-6.82c1.367-3.181,5.216-4.19,5.216-4.19Z" transform="translate(-213.517 -294.83)" fill="#128b84" opacity="0.3" style="mix-blend-mode: multiply;isolation: isolate"/>
      </g>
      <path id="Path_7454" data-name="Path 7454" d="M219.644,294.83s-3.749.788-5.034,3.716-1.461,9.687-1.279,11.512a31.874,31.874,0,0,1,0,4.411l5.127-1.654" transform="translate(-113.484 -222.535)" fill="none" stroke="#263238" stroke-linecap="round" stroke-linejoin="round" stroke-width="0.97"/>
      <path id="Path_7455" data-name="Path 7455" d="M220.383,328.09l-5.673,6.4a99.536,99.536,0,0,0,6.225,8.772" transform="translate(-114.13 -237.458)" fill="none" stroke="#263238" stroke-linecap="round" stroke-linejoin="round" stroke-width="0.97"/>
      <path id="Path_7456" data-name="Path 7456" d="M247.794,328.407l2.928-11.148-5.127-3.859,4.03-1.279-3.308-11.33s-.612-2.845-2.757-3.76" transform="translate(-127.074 -223.522)" fill="none" stroke="#263238" stroke-linecap="round" stroke-linejoin="round" stroke-width="0.97"/>
      <path id="Path_7457" data-name="Path 7457" d="M230,318.14s1.83,2.205,3.859,1.83,2.012-1.461,2.012-1.461" transform="translate(-120.99 -232.994)" fill="none" stroke="#263238" stroke-linecap="round" stroke-linejoin="round" stroke-width="0.97"/>
      <g id="Group_9590" data-name="Group 9590" transform="translate(74.946 81.861)" clip-path="url(#clip-path-3)">
        <path id="Path_7458" data-name="Path 7458" d="M184.358,322.32s-2.961,3.225-2.828,4.03,3.633,2.283,2.828,3.22-2.828-1.34-3.231-.937-7.8,25.648-7.129,26.04,2.288-1.075,2.691-.132-6.726,3.622-5.249,4.411,5.111-.943,4.411-.673-2.691,2.817-2.15,3.892,6.3,6.522,6.3,6.522a1.417,1.417,0,0,0-.788,1.8,3.054,3.054,0,0,0,1.1,1.748s-1.544-1.274-1.781.1a14.229,14.229,0,0,0-.237,2.178l-3.777-3.738c-3.076-3.132-5.58-6.065-6.318-8.584a18.164,18.164,0,0,1,.678-2.586c.81-2.955,8.877-28.2,8.877-28.2s1.825-5.943,2.525-6.864S184.358,322.32,184.358,322.32Z" transform="translate(-168.206 -316.729)" fill="#128b84"/>
        <path id="Path_7459" data-name="Path 7459" d="M184.293,322.32s-2.961,3.225-2.828,4.03,3.633,2.283,2.828,3.22-2.828-1.34-3.231-.937-7.8,25.648-7.129,26.04,2.288-1.075,2.691-.132-6.726,3.622-5.249,4.411,5.111-.943,4.411-.673-2.691,2.817-2.15,3.892,6.3,6.522,6.3,6.522a1.417,1.417,0,0,0-.788,1.8,3.054,3.054,0,0,0,1.1,1.748s-1.544-1.274-1.781.1-.358,2.283-.358,2.283l-3.655-3.859c-3.815-3.81-6.175-6.815-6.318-8.584,0,0-.447.838.678-2.586.954-2.911,8.877-28.2,8.877-28.2s1.825-5.943,2.525-6.864S184.293,322.32,184.293,322.32Z" transform="translate(-168.142 -316.729)" fill="#fff" opacity="0.7"/>
        <path id="Path_7460" data-name="Path 7460" d="M209.53,314.188v10.293l6.489-1.66,2.161-2.492-6.655,1.329.436-9.279Z" transform="translate(-186.752 -312.27)" fill="#128b84"/>
        <path id="Path_7461" data-name="Path 7461" d="M209.53,314.188v10.293l6.489-1.66,2.161-2.492-6.655,1.329.436-9.279Z" transform="translate(-186.752 -312.27)" fill="#fff" opacity="0.7"/>
      </g>
      <path id="Path_7463" data-name="Path 7463" d="M192.934,312.18s-12.085,6.759-12.637,7.857-11.9,35.286-12.08,37.651,8.97,11.33,8.97,11.33" transform="translate(-93.269 -230.319)" fill="none" stroke="#263238" stroke-linecap="round" stroke-linejoin="round" stroke-width="0.97"/>
      <line id="Line_105" data-name="Line 105" x1="3.661" y2="25.218" transform="translate(89.228 99.04)" fill="none" stroke="#263238" stroke-linecap="round" stroke-linejoin="round" stroke-width="0.97"/>
      <line id="Line_106" data-name="Line 106" y1="2.558" x2="0.551" transform="translate(93.253 95.015)" fill="none" stroke="#263238" stroke-linecap="round" stroke-linejoin="round" stroke-width="0.97"/>
      <path id="Path_7464" data-name="Path 7464" d="M175.19,389.2s2.382-3.308,5.861-3.11,8.6,5.116,8.6,5.116" transform="translate(-96.399 -263.478)" fill="none" stroke="#263238" stroke-linecap="round" stroke-linejoin="round" stroke-width="0.97"/>
      <path id="Path_7465" data-name="Path 7465" d="M177.18,383.812a4.593,4.593,0,0,1,5.679-.364" transform="translate(-97.291 -261.93)" fill="none" stroke="#263238" stroke-linecap="round" stroke-linejoin="round" stroke-width="0.97"/>
      <path id="Path_7466" data-name="Path 7466" d="M205.088,397.2a1.952,1.952,0,0,0-2.757-1.516,1.456,1.456,0,0,0-.8,1.2c-.2,2.012,1.031,6.958,2.685,6.616C205.59,403.186,205.546,400.584,205.088,397.2Z" transform="translate(-108.207 -267.703)" fill="#ffbe9d" stroke="#263238" stroke-linecap="round" stroke-linejoin="round" stroke-width="0.97"/>
      <path id="Path_7467" data-name="Path 7467" d="M198.408,399.853a1.952,1.952,0,0,0-2.757-1.511,1.439,1.439,0,0,0-.8,1.191c-.2,2.012,1.031,6.958,2.685,6.616C198.932,405.84,198.888,403.244,198.408,399.853Z" transform="translate(-105.21 -268.896)" fill="#ffbe9d" stroke="#263238" stroke-linecap="round" stroke-linejoin="round" stroke-width="0.97"/>
      <path id="Path_7468" data-name="Path 7468" d="M192.315,406.907a1.957,1.957,0,0,0-3.065-.783,1.439,1.439,0,0,0-.48,1.356c.3,2,2.724,6.511,4.229,5.745C194.295,412.564,193.578,409.9,192.315,406.907Z" transform="translate(-102.481 -272.267)" fill="#ffbe9d" stroke="#263238" stroke-linecap="round" stroke-linejoin="round" stroke-width="0.97"/>
      <path id="Path_7469" data-name="Path 7469" d="M188.75,413.559a1.456,1.456,0,0,0-2.288-.584,1.1,1.1,0,0,0-.364,1.014c.226,1.494,2.034,4.846,3.165,4.289C190.233,417.8,189.72,415.93,188.75,413.559Z" transform="translate(-101.286 -275.39)" fill="#ffbe9d" stroke="#263238" stroke-linecap="round" stroke-linejoin="round" stroke-width="0.97"/>
      <path id="Path_7470" data-name="Path 7470" d="M208.51,401a8.2,8.2,0,0,0,2.5,1.88c.877.27,5.436-.551,5.436-.551" transform="translate(-111.348 -270.17)" fill="none" stroke="#263238" stroke-linecap="round" stroke-linejoin="round" stroke-width="0.97"/>
      <path id="Path_7471" data-name="Path 7471" d="M210.8,409.64s-2.928.728-4.962,1.1-4.212.551-4.212.551-1.467,1.83-2.564,1.83" transform="translate(-107.108 -274.046)" fill="none" stroke="#263238" stroke-linecap="round" stroke-linejoin="round" stroke-width="0.97"/>
      <path id="Path_7472" data-name="Path 7472" d="M250.75,309s9.257,5.646,11.1,7.487,8.331,19.109,8.331,19.109" transform="translate(-130.3 -228.893)" fill="none" stroke="#263238" stroke-linecap="round" stroke-linejoin="round" stroke-width="0.97"/>
      <line id="Line_107" data-name="Line 107" x2="2.073" y2="14.969" transform="translate(129.25 92.43)" fill="none" stroke="#263238" stroke-linecap="round" stroke-linejoin="round" stroke-width="0.97"/>
      <path id="Path_7473" data-name="Path 7473" d="M269.42,346.18l-1.29-11.12,5.7,12.559-4.152.187Z" transform="translate(-138.097 -240.585)" fill="#128b84"/>
      <path id="Path_7474" data-name="Path 7474" d="M269.42,346.18l-1.29-11.12,5.7,12.559-4.152.187Z" transform="translate(-138.097 -240.585)" fill="#fff" opacity="0.7"/>
      <path id="Path_7475" data-name="Path 7475" d="M203.614,345.29l-3.584,5.883,3.038-2.4" transform="translate(-107.543 -245.175)" fill="none" stroke="#263238" stroke-linecap="round" stroke-linejoin="round" stroke-width="0.97"/>
      <path id="Path_7476" data-name="Path 7476" d="M198.22,364.52s.744,10.927.744,12.416-.21,3.451-.21,3.451" transform="translate(-106.731 -253.802)" fill="none" stroke="#263238" stroke-linecap="round" stroke-linejoin="round" stroke-width="0.97"/>
      <path id="Path_7477" data-name="Path 7477" d="M212.05,265.1Z" transform="translate(-112.936 -209.196)" fill="#263238"/>
      <path id="Path_7478" data-name="Path 7478" d="M215.312,233.668s-5.309,3.1-5.673,7.675a28.251,28.251,0,0,0,.915,8.954s-1.654-1.461-1.83,1.83,2.564,5.844,3.661,5.844h1.1s2.442,5.017,5.376,7.393,5.795,2.481,7.807,1.748,5.861-4.019,6.23-8.408a120.223,120.223,0,0,0-.369-16.264c-.369-4.565-1.279-7.862-6.225-9.505A13.453,13.453,0,0,0,215.312,233.668Z" transform="translate(-111.44 -194.393)" fill="#ffbe9d"/>
      <g id="Group_9591" data-name="Group 9591" transform="translate(97.275 37.712)" clip-path="url(#clip-path-4)">
        <path id="Path_7479" data-name="Path 7479" d="M210.554,256.01s-1.654-1.461-1.83,1.83,2.564,5.844,3.661,5.844h1.1s2.442,5.012,5.376,7.393l1.257.866a9.508,9.508,0,0,0,1.34.673,29.1,29.1,0,0,1-4.141-6.522c-1.334-3.308-1.654-10.293-1.334-14.776s2.663-6.313,2.663-6.313l-3.308-.165c-.491,0-3.054,3.815-5.657,6Z" transform="translate(-208.715 -237.819)" fill="#128b84" opacity="0.3" style="mix-blend-mode: multiply;isolation: isolate"/>
      </g>
      <path id="Path_7481" data-name="Path 7481" d="M215.312,233.668s-5.309,3.1-5.673,7.675a28.251,28.251,0,0,0,.915,8.954s-1.654-1.461-1.83,1.83,2.564,5.844,3.661,5.844h1.1s2.442,5.017,5.376,7.393,5.795,2.481,7.807,1.748,5.861-4.019,6.23-8.408a120.223,120.223,0,0,0-.369-16.264c-.369-4.565-1.279-7.862-6.225-9.505A13.453,13.453,0,0,0,215.312,233.668Z" transform="translate(-111.44 -194.393)" fill="none" stroke="#263238" stroke-linecap="round" stroke-linejoin="round" stroke-width="0.97"/>
      <path id="Path_7487" data-name="Path 7487" d="M233.237,242.44c-.364-4.571-1.279-7.862-6.225-9.505a13.439,13.439,0,0,0-10.988.733s-5.309,3.1-5.673,7.675a28.251,28.251,0,0,0,.915,8.954s1.467,1.461,1.83-.551-.733-5.3,4.411-9.141,12.449-2.007,15.013,1.654a3.562,3.562,0,0,1,.766.849C233.292,243.041,233.243,242.522,233.237,242.44Z" transform="translate(-112.153 -194.393)" fill="#263238"/>
      <path id="Path_7488" data-name="Path 7488" d="M98.353,287.546s-4.411-.728-7.719,1.467a5.91,5.91,0,0,0-2.564,5.844" transform="translate(-57.279 -219.215)" fill="none" stroke="#263238" stroke-linecap="round" stroke-linejoin="round" stroke-width="0.97"/>
      <path id="Path_7489" data-name="Path 7489" d="M87.715,288.31s-2.205,2.558-2.205,4.753" transform="translate(-56.162 -219.61)" fill="none" stroke="#263238" stroke-linecap="round" stroke-linejoin="round" stroke-width="0.97"/>
      <path id="Path_7490" data-name="Path 7490" d="M64.6,268.36s2.205,13.342,4.212,17.362,7.719,7.862,12.085,9.687,24.9,4.753,25.632,4.571-3.479-4.019-2.564-8.772c.458-2.36,3.661-4.753,3.661-4.753s-8.97-3.859-12.449-5.3-7.322-2.757-7.322-2.757-4.962-4.565-7.322-6.577a75.188,75.188,0,0,0-6.776-4.753" transform="translate(-46.781 -210.08)" fill="none" stroke="#263238" stroke-linecap="round" stroke-linejoin="round" stroke-width="0.97"/>
      <path id="Path_7491" data-name="Path 7491" d="M172.261,313.938l2.393,2.977a13.232,13.232,0,0,0,1.544,1.218c.717.386,1.334,1.555.347,1.836a3.027,3.027,0,0,1-2.652-.491l-2.327-1.7-1.946-1.759,1.411-2.536Z" transform="translate(-93.899 -230.903)" fill="#fff" stroke="#263238" stroke-linecap="round" stroke-linejoin="round" stroke-width="0.97"/>
      <path id="Path_7492" data-name="Path 7492" d="M140.388,302.23s5.679,1.279,7.509,1.654,11.17,2.012,12.449,2.558,5.309.733,5.127,2.376-1.83,1.279-3.11,1.1-5.315-.91-5.315-.91,1.285,2.376.921,2.922-8.606,3.473-10.255,3.473-2.757-2.928-3.479-3.859l-2.205-2.757-4.411-2.007" transform="translate(-79.542 -225.855)" fill="#ffbe9d" stroke="#263238" stroke-linecap="round" stroke-linejoin="round" stroke-width="0.97"/>
      <line id="Line_109" data-name="Line 109" x1="1.279" y1="1.83" transform="translate(76.228 81.309)" fill="none" stroke="#263238" stroke-linecap="round" stroke-linejoin="round" stroke-width="0.97"/>
      <path id="Path_7493" data-name="Path 7493" d="M140.65,321.107a8.513,8.513,0,0,0,2.757-6.947" transform="translate(-80.902 -231.208)" fill="none" stroke="#263238" stroke-linecap="round" stroke-linejoin="round" stroke-width="0.97"/>
      <line id="Line_110" data-name="Line 110" x2="1.467" y2="3.473" transform="translate(69.452 85.328)" fill="none" stroke="#263238" stroke-linecap="round" stroke-linejoin="round" stroke-width="0.97"/>
      <line id="Line_111" data-name="Line 111" x2="1.467" y2="3.837" transform="translate(73.113 83.867)" fill="none" stroke="#263238" stroke-linecap="round" stroke-linejoin="round" stroke-width="0.97"/>
      <path id="Path_7494" data-name="Path 7494" d="M228.66,361.842v42.949l57.306-3.286V358.92Z" transform="translate(-120.389 -251.29)" fill="#fff" stroke="#263238" stroke-linecap="round" stroke-linejoin="round" stroke-width="0.97"/>
      <path id="Path_7495" data-name="Path 7495" d="M284.028,357.578l-2.933-1.648-56.755,2.746v41.852l2.382,2.922V360.5Z" transform="translate(-118.45 -249.948)" fill="#fff" stroke="#263238" stroke-linecap="round" stroke-linejoin="round" stroke-width="0.97"/>
      <line id="Line_112" data-name="Line 112" x2="2.376" y2="1.825" transform="translate(105.89 108.727)" fill="none" stroke="#263238" stroke-linecap="round" stroke-linejoin="round" stroke-width="0.97"/>
      <path id="Path_7496" data-name="Path 7496" d="M270.17,408.6V437.66l15.746-1.1V407.32Z" transform="translate(-139.013 -273.005)" fill="#fff" stroke="#263238" stroke-linecap="round" stroke-linejoin="round" stroke-width="0.97"/>
      <path id="Path_7498" data-name="Path 7498" d="M263.462,456.1l-8.242-7.311,8.242-.369" transform="translate(-132.305 -291.445)" fill="#fff" stroke="#263238" stroke-linecap="round" stroke-linejoin="round" stroke-width="0.97"/>
      <path id="Path_7499" data-name="Path 7499" d="M89.05,412.119l52.074,5.216s-2-1.6-1.218-1.759c1.478-.287,3.666-.485,3.666-.485l-4.593-4.841L89.05,412.119" transform="translate(-57.751 -274.32)" fill="#128b84" opacity="0.7"/>
      <path id="Path_7500" data-name="Path 7500" d="M89.05,412.119l52.074,5.216s-2-1.6-1.218-1.759c1.478-.287,3.666-.485,3.666-.485l-4.593-4.841L89.05,412.119" transform="translate(-57.751 -274.32)" fill="#fff" opacity="0.7"/>
      <line id="Line_113" data-name="Line 113" x1="81.267" y2="2.895" transform="translate(0 135.952)" fill="none" stroke="#263238" stroke-linecap="round" stroke-linejoin="round" stroke-width="0.97"/>
      <line id="Line_114" data-name="Line 114" x2="54.781" y2="33.808" transform="translate(165.186 134.204)" fill="none" stroke="#263238" stroke-linecap="round" stroke-linejoin="round" stroke-width="0.97"/>
      <path id="Path_7501" data-name="Path 7501" d="M127.945,422.56l-28.675,3.5,18.475,19.4,30.908-3.821Z" transform="translate(-62.336 -279.843)" fill="#128b84"/>
      <path id="Path_7502" data-name="Path 7502" d="M127.945,422.56l-28.675,3.5,18.475,19.4,30.908-3.821Z" transform="translate(-62.336 -279.843)" fill="#fff" opacity="0.7"/>
      <path id="Path_7503" data-name="Path 7503" d="M98.11,433.821,123.6,430.64,142.079,449.4l-29.315,4.135Z" transform="translate(-61.816 -283.468)" fill="#fff"/>
      <path id="Path_7504" data-name="Path 7504" d="M126.145,464.5a.165.165,0,0,1,0-.331l23.443-3.016a.176.176,0,0,1,.187.143.165.165,0,0,1-.149.187L126.189,464.5Z" transform="translate(-74.32 -297.156)" fill="#128b84"/>
      <path id="Path_7505" data-name="Path 7505" d="M123.775,461.655a.165.165,0,0,1,0-.331l23.443-3.016a.167.167,0,0,1,.044.331l-23.437,3.016Z" transform="translate(-73.256 -295.881)" fill="#128b84"/>
      <path id="Path_7506" data-name="Path 7506" d="M121.415,458.812a.165.165,0,0,1-.165-.149.171.171,0,0,1,.143-.187l23.426-3.016a.182.182,0,0,1,.187.149.165.165,0,0,1-.149.182l-23.437,3.021Z" transform="translate(-72.197 -294.604)" fill="#128b84"/>
      <path id="Path_7507" data-name="Path 7507" d="M119.045,455.966a.165.165,0,1,1,0-.331l23.443-3.016a.171.171,0,0,1,.187.143.165.165,0,0,1-.143.187l-23.443,3.016Z" transform="translate(-71.134 -293.329)" fill="#128b84"/>
      <path id="Path_7508" data-name="Path 7508" d="M116.684,453.126a.166.166,0,0,1-.022-.331l23.443-3.016a.171.171,0,0,1,.187.143.165.165,0,0,1-.149.187l-23.437,3.016Z" transform="translate(-70.074 -292.055)" fill="#128b84"/>
      <path id="Path_7509" data-name="Path 7509" d="M114.315,450.271a.165.165,0,0,1-.165-.149.176.176,0,0,1,.143-.187l23.443-3.016a.171.171,0,0,1,.187.149.165.165,0,0,1-.143.182l-23.443,3.021Z" transform="translate(-69.012 -290.772)" fill="#128b84"/>
      <path id="Path_7510" data-name="Path 7510" d="M111.954,447.436a.166.166,0,0,1-.022-.331l23.443-3.016a.176.176,0,0,1,.187.143.165.165,0,0,1-.149.187l-23.437,3.016Z" transform="translate(-67.952 -289.502)" fill="#128b84"/>
      <path id="Path_7511" data-name="Path 7511" d="M109.585,444.6a.165.165,0,0,1,0-.331l23.443-3.016a.167.167,0,1,1,.044.331L109.63,444.6Z" transform="translate(-66.89 -288.227)" fill="#128b84"/>
      <path id="Path_7512" data-name="Path 7512" d="M107.225,441.752a.165.165,0,0,1-.165-.149.171.171,0,0,1,.143-.187l23.443-3.016a.176.176,0,0,1,.187.149.165.165,0,0,1-.149.182l-23.437,3.021Z" transform="translate(-65.83 -286.949)" fill="#128b84"/>
      <path id="Path_7513" data-name="Path 7513" d="M104.865,438.906a.165.165,0,0,1,0-.331l23.443-3.016a.171.171,0,0,1,.187.143.165.165,0,0,1-.143.187Z" transform="translate(-64.772 -285.675)" fill="#128b84"/>
      <g id="Group_9592" data-name="Group 9592" transform="translate(39.928 149.883)" opacity="0.7">
        <path id="Path_7514" data-name="Path 7514" d="M126.145,464.5a.165.165,0,0,1,0-.331l23.443-3.016a.176.176,0,0,1,.187.143.165.165,0,0,1-.149.187L126.189,464.5Z" transform="translate(-114.248 -447.04)" fill="#fff"/>
        <path id="Path_7515" data-name="Path 7515" d="M123.775,461.655a.165.165,0,0,1,0-.331l23.443-3.016a.167.167,0,0,1,.044.331l-23.437,3.016Z" transform="translate(-113.184 -445.765)" fill="#fff"/>
        <path id="Path_7516" data-name="Path 7516" d="M121.415,458.812a.165.165,0,0,1-.165-.149.171.171,0,0,1,.143-.187l23.426-3.016a.182.182,0,0,1,.187.149.165.165,0,0,1-.149.182l-23.437,3.021Z" transform="translate(-112.125 -444.487)" fill="#fff"/>
        <path id="Path_7517" data-name="Path 7517" d="M119.045,455.966a.165.165,0,1,1,0-.331l23.443-3.016a.171.171,0,0,1,.187.143.165.165,0,0,1-.143.187l-23.443,3.016Z" transform="translate(-111.062 -443.212)" fill="#fff"/>
        <path id="Path_7518" data-name="Path 7518" d="M116.684,453.126a.166.166,0,0,1-.022-.331l23.443-3.016a.171.171,0,0,1,.187.143.165.165,0,0,1-.149.187l-23.437,3.016Z" transform="translate(-110.002 -441.938)" fill="#fff"/>
        <path id="Path_7519" data-name="Path 7519" d="M114.315,450.271a.165.165,0,0,1-.165-.149.176.176,0,0,1,.143-.187l23.443-3.016a.171.171,0,0,1,.187.149.165.165,0,0,1-.143.182l-23.443,3.021Z" transform="translate(-108.939 -440.655)" fill="#fff"/>
        <path id="Path_7520" data-name="Path 7520" d="M111.954,447.436a.166.166,0,0,1-.022-.331l23.443-3.016a.176.176,0,0,1,.187.143.165.165,0,0,1-.149.187l-23.437,3.016Z" transform="translate(-107.88 -439.386)" fill="#fff"/>
        <path id="Path_7521" data-name="Path 7521" d="M109.585,444.6a.165.165,0,0,1,0-.331l23.443-3.016a.167.167,0,1,1,.044.331L109.63,444.6Z" transform="translate(-106.818 -438.111)" fill="#fff"/>
        <path id="Path_7522" data-name="Path 7522" d="M107.225,441.752a.165.165,0,0,1-.165-.149.171.171,0,0,1,.143-.187l23.443-3.016a.176.176,0,0,1,.187.149.165.165,0,0,1-.149.182l-23.437,3.021Z" transform="translate(-105.758 -436.833)" fill="#fff"/>
        <path id="Path_7523" data-name="Path 7523" d="M104.865,438.906a.165.165,0,0,1,0-.331l23.443-3.016a.171.171,0,0,1,.187.143.165.165,0,0,1-.143.187Z" transform="translate(-104.7 -435.558)" fill="#fff"/>
      </g>
      <path id="Path_7524" data-name="Path 7524" d="M150,245.87s4.411,1.467,5.513,3.308,3.937,11.65,3.937,11.65" transform="translate(-85.097 -200.569)" fill="none" stroke="#263238" stroke-linecap="round" stroke-linejoin="round" stroke-width="0.97"/>
    </g>
    <g id="Social_media-bro" data-name="Social media-bro" transform="translate(87.635 -21.913)">
      <g id="freepik--background-simple--inject-1--inject-29" transform="translate(76.228 82.265)">
        <path id="Path_7592" data-name="Path 7592" d="M104.384,93.659a9.92,9.92,0,0,0-11.476,1.913c-5.26,5.26,1.434,8.846,3.347,15.779s-12.432,3.108-17.692,8.368-.495,12.671,3.108,13.747,10.758-1.793,11.715,3.706c0,0,1.674,2.391-2.869,9.324s-4.3,14.345,4.064,16.018,10.28-9.563,16.5-7.889,4.542,14.823,16.5,12.91,5.924-10.88,9.537-14.885,8.394,1.258,13.654-2.807-3.108-12.91-2.391-18.887,6.455-6.455,6.933-11.476-3.108-4.3-11-11-4.064-11.476-9.563-14.584-10.519,6.216-17.692,4.3a81.047,81.047,0,0,1-12.671-4.542Z" transform="translate(-76.228 -92.61)" fill="#128b84"/>
        <path id="Path_7593" data-name="Path 7593" d="M104.384,93.659a9.92,9.92,0,0,0-11.476,1.913c-5.26,5.26,1.434,8.846,3.347,15.779s-12.432,3.108-17.692,8.368-.495,12.671,3.108,13.747,10.758-1.793,11.715,3.706c0,0,1.674,2.391-2.869,9.324s-4.3,14.345,4.064,16.018,10.28-9.563,16.5-7.889,4.542,14.823,16.5,12.91,5.924-10.88,9.537-14.885,8.394,1.258,13.654-2.807-3.108-12.91-2.391-18.887,6.455-6.455,6.933-11.476-3.108-4.3-11-11-4.064-11.476-9.563-14.584-10.519,6.216-17.692,4.3a81.047,81.047,0,0,1-12.671-4.542Z" transform="translate(-76.228 -92.61)" fill="#fff" opacity="0.8"/>
      </g>
      <g id="freepik--Paths--inject-1--inject-29" transform="translate(76.329 79.015)">
        <path id="Path_7594" data-name="Path 7594" d="M168.812,203.16c8.332-2.721,13.678-4.782,19.762-4.853,0,0,8.667,1.116,12.253,0,10.486-3.271,11.4-15.181,5.738-23.975-5.862-9.106-16.413-6.508-16.413-6.508-12.628,2.319-21.053-.239-25.459-2.369a9.118,9.118,0,0,0-10.519,1.748,6.216,6.216,0,0,0-1.408,2.14c-3.875,10.613.588,20.984,2.18,27.317A10.991,10.991,0,0,0,168.812,203.16Z" transform="translate(-133.396 -144.075)" fill="none" stroke="#263238" stroke-linecap="round" stroke-linejoin="round" stroke-width="0.5" stroke-dasharray="2"/>
        <path id="Path_7595" data-name="Path 7595" d="M115.928,94.2a112.826,112.826,0,0,0-.6,11.973c.208,9.62,1.174,19.21,1.786,28.809.366,5.721,1.5,11.767.344,17.453-1.078,5.329-5.322,9.728-10.88,10.122-6.118.435-10.538-5.276-9.871-11.021.5-4.3,3.086-8.279,3.239-12.616.2-5.838-6.62-5.085-11.055-8.846C83.67,125.653,78.517,119.778,77,112.931a10.346,10.346,0,0,1,.179-5.955c3.3-8.54,17.316-10.684,22.762-3.426,5.611,7.483,3.4,18.366,12.583,19.387s18.2-2.89,27.04-5.1,18.705,3.232,17.175,14.794-15.815,11.237-22.447,3.232-3.572-24.319-2.211-30.791c.748-3.548,2.67-6.732,4.356-9.9,1.327-2.5,3-5.1,2.57-8.05-1.27-8.69-15.779-11.148-20.19-3.648C118.814,83.484,116.574,86.566,115.928,94.2Z" transform="translate(-76.653 -79.015)" fill="none" stroke="#263238" stroke-linecap="round" stroke-linejoin="round" stroke-width="0.5" stroke-dasharray="2 2"/>
      </g>
      <g id="freepik--character-4--inject-1--inject-29" transform="translate(125.007 125.365)">
        <circle id="Ellipse_62" data-name="Ellipse 62" cx="10.024" cy="10.024" r="10.024" transform="translate(0 0.051)" fill="#128b84" stroke="#263238" stroke-miterlimit="10" stroke-width="0.5"/>
        <circle id="Ellipse_63" data-name="Ellipse 63" cx="10.024" cy="10.024" r="10.024" transform="translate(0 0.051)" fill="#fff" stroke="#263238" stroke-miterlimit="10" stroke-width="0.5" opacity="0.3"/>
        <path id="Path_7596" data-name="Path 7596" d="M299.98,272.937s-5.071-.55-5.879,1.958,2.6,2.063,2.063,3.228-2.78,2.68-1.884,4.392,2.51,3.586.717,2.96-2.24-.808-1.882,1.164,2.24,2.51,5.288,2.24,2.778,1.167,4.48,1.346,3.407-.808,3.407-3.318-2.061-1.97-.179-3.225,1.525-4.483.987-5.468-1.614-.538-1.614-1.793S302.9,272.77,299.98,272.937Z" transform="translate(-289.956 -272.886)" fill="#263238" stroke="#263238" stroke-miterlimit="10" stroke-width="0.5"/>
        <path id="Path_7602" data-name="Path 7602" d="M297.064,335.958a9.972,9.972,0,0,0,6.2-2.152c-.7-.519-1.956-1.434-2.685-1.913-1.054-.7-2.46-2.89-4.337-2.5a59.085,59.085,0,0,0-7.072,2.725A10.012,10.012,0,0,0,297.064,335.958Z" transform="translate(-287.04 -315.849)" fill="#fff" stroke="#263238" stroke-miterlimit="10" stroke-width="0.5"/>
        <path id="Path_7603" data-name="Path 7603" d="M307.38,327.948s-2.778.806-3.137,3.137,2.286.65,2.286.65,1.389,2.039,2.644,1.413,1.434-2.78.717-4.215A2.256,2.256,0,0,0,307.38,327.948Z" transform="translate(-298.484 -314.733)" fill="#fff" stroke="#263238" stroke-miterlimit="10" stroke-width="0.5"/>
        <path id="Path_7604" data-name="Path 7604" d="M313.344,315.674a7.375,7.375,0,0,1-.308,2.257c-.351,1.083-1.5,2.575-.478,3.244s2.324-1.461,2.663-3.249.586-3.926.586-3.926Z" transform="translate(-304.522 -304.171)" fill="#fff"/>
        <g id="Group_9594" data-name="Group 9594" transform="translate(7.623 9.829)" clip-path="url(#clip-path-5)">
          <path id="Path_7605" data-name="Path 7605" d="M316.17,317.737a4.5,4.5,0,0,0,1.016.239c.311.036.435-.031.478-.11a6.952,6.952,0,0,1-.693,2.577c-.155.277-.282.512-.383.717a5.5,5.5,0,0,0,1.7-3.182c.339-1.786.576-3.918.576-3.918l-2.462,1.674A7.618,7.618,0,0,1,316.17,317.737Z" transform="translate(-315.208 -314.046)" fill="#128b84" opacity="0.5" style="mix-blend-mode: multiply;isolation: isolate"/>
        </g>
        <path id="Path_7607" data-name="Path 7607" d="M313.344,315.674a7.375,7.375,0,0,1-.308,2.257c-.351,1.083-1.5,2.575-.478,3.244s2.324-1.461,2.663-3.249.586-3.926.586-3.926Z" transform="translate(-304.522 -304.171)" fill="none" stroke="#263238" stroke-miterlimit="10" stroke-width="0.5"/>
        <path id="Path_7608" data-name="Path 7608" d="M308.131,292a34.8,34.8,0,0,0-.861,4.923,3.328,3.328,0,0,0,2.788,3.108c1.989.16,2.721-2.513,3.151-4.036.373-1.322.626-2.465.689-2.747C310.873,294.391,308.131,292,308.131,292Z" transform="translate(-300.813 -287.43)" fill="#fff"/>
        <g id="Group_9595" data-name="Group 9595" transform="translate(6.457 4.57)" clip-path="url(#clip-path-6)">
          <path id="Path_7609" data-name="Path 7609" d="M319.88,297.18a4.765,4.765,0,0,1-.93.251,11.713,11.713,0,0,1-1.566,4.528,4.387,4.387,0,0,1-2.254,1.745,2.555,2.555,0,0,0,.911.258c1.989.16,2.721-2.513,3.151-4.036" transform="translate(-313.251 -295.942)" fill="#128b84" opacity="0.5" style="mix-blend-mode: multiply;isolation: isolate"/>
        </g>
        <path id="Path_7611" data-name="Path 7611" d="M308.131,292a34.8,34.8,0,0,0-.861,4.923,3.328,3.328,0,0,0,2.788,3.108c1.989.16,2.721-2.513,3.151-4.036.373-1.322.626-2.465.689-2.747C310.873,294.391,308.131,292,308.131,292Z" transform="translate(-300.813 -287.43)" fill="none" stroke="#263238" stroke-miterlimit="10" stroke-width="0.5"/>
      </g>
      <g id="freepik--character-3--inject-1--inject-29" transform="translate(90.111 123.427)">
        <circle id="Ellipse_64" data-name="Ellipse 64" cx="10.024" cy="10.024" r="10.024" transform="translate(0 1.989)" fill="#128b84" stroke="#263238" stroke-miterlimit="10" stroke-width="1"/>
        <circle id="Ellipse_65" data-name="Ellipse 65" cx="10.024" cy="10.024" r="10.024" transform="translate(0 1.989)" fill="#fff" stroke="#263238" stroke-miterlimit="10" stroke-width="0.5" opacity="0.3"/>
        <path id="Path_7618" data-name="Path 7618" d="M150,332.147a10.015,10.015,0,0,0,13.582-.942c-1.128-1.454-3.44-3.945-6.013-3.945C154.715,327.26,151.324,330.667,150,332.147Z" transform="translate(-146.247 -312.323)" fill="#fff" stroke="#263238" stroke-miterlimit="10" stroke-width="0.5"/>
        <path id="Path_7619" data-name="Path 7619" d="M165.67,323.485s-1.7.194-1.846,1.506a9.6,9.6,0,0,0,.971,3.739c.1.241,2.283-1.941,3.108-1.941a10.885,10.885,0,0,1,2.962,1.164s-.679-2.721-1.893-3.742S166.007,323.1,165.67,323.485Z" transform="translate(-156.755 -309.289)" fill="#fff" stroke="#263238" stroke-miterlimit="10" stroke-width="0.5"/>
        <path id="Path_7620" data-name="Path 7620" d="M158.154,302.816s-.729-.729-1.116-.146a1.3,1.3,0,0,0,.478,1.7c.528.438,1.36.478,1.36.146A8.641,8.641,0,0,0,158.154,302.816Z" transform="translate(-151.474 -293.44)" fill="#128b84" stroke="#263238" stroke-miterlimit="10" stroke-width="1" opacity="0.5"/>
        <path id="Path_7621" data-name="Path 7621" d="M158.154,302.816s-.729-.729-1.116-.146a1.3,1.3,0,0,0,.478,1.7c.528.438,1.36.478,1.36.146A8.641,8.641,0,0,0,158.154,302.816Z" transform="translate(-151.474 -293.44)" fill="none" stroke="#263238" stroke-miterlimit="10" stroke-width="1"/>
        <path id="Path_7622" data-name="Path 7622" d="M188.46,295.736s.339-.875.825.048a1.552,1.552,0,0,1-.437,1.748Z" transform="translate(-175.512 -288.05)" fill="#fff" stroke="#263238" stroke-miterlimit="10" stroke-width="1"/>
        <path id="Path_7623" data-name="Path 7623" d="M165.29,311.15s.971,3.5,1.215,4.712,1.36,2.965,2.185,2.391a1.914,1.914,0,0,0,.292-2.575,11.356,11.356,0,0,1-.777-1.992Z" transform="translate(-157.881 -300.064)" fill="#fff"/>
        <g id="Group_9596" data-name="Group 9596" transform="translate(7.409 11.086)" clip-path="url(#clip-path-7)">
          <path id="Path_7624" data-name="Path 7624" d="M168.981,315.669a11.357,11.357,0,0,1-.777-1.991l-2.914-2.527s.8,2.869,1.126,4.3a4.285,4.285,0,0,0,1.413.729,1.788,1.788,0,0,0,1.32-.151,3.17,3.17,0,0,0-.167-.363Z" transform="translate(-165.29 -311.15)" fill="#128b84" opacity="0.5" style="mix-blend-mode: multiply;isolation: isolate"/>
        </g>
        <path id="Path_7626" data-name="Path 7626" d="M165.29,311.15s.971,3.5,1.215,4.712,1.36,2.965,2.185,2.391a1.914,1.914,0,0,0,.292-2.575,11.356,11.356,0,0,1-.777-1.992Z" transform="translate(-157.881 -300.064)" fill="none" stroke="#263238" stroke-miterlimit="10" stroke-width="1"/>
        <path id="Path_7627" data-name="Path 7627" d="M152.758,272.223s2.283,5.5,3.256,6.754a3.008,3.008,0,0,0,4.712-.478c1.126-1.838-.146-4.322-.339-5.441s-.717-2.962-.39-3.3,1.7-.583,1.167-1.458-1.313-.438-1.408-1.069.387-2.188-1.411-2.429-4.956,1.893-6.216,3.545S150.467,271.494,152.758,272.223Z" transform="translate(-147.092 -264.781)" fill="#263238" stroke="#263238" stroke-miterlimit="10" stroke-width="1"/>
        <path id="Path_7630" data-name="Path 7630" d="M177.787,309.73a1.7,1.7,0,0,1-2.137.679" transform="translate(-165.764 -298.984)" fill="none" stroke="#fff" stroke-linecap="round" stroke-linejoin="round" stroke-width="0.75"/>
        <path id="Path_7631" data-name="Path 7631" d="M167.62,285.118c-.182-1.045-.662-2.73-.445-3.22a2.219,2.219,0,0,0-2.13-1.248c-1.9-.1-3.935.971-4.325,1.992s.536.478.875,1.215-.536,1.6-.339,2.137,1.116,2.63,1.116,2.63c.146-.583,2.333-1.556,2.333-1.556a3.107,3.107,0,0,0,.971.1c.438-.048.194-.437.194-.437l2.24.134C167.919,286.156,167.692,285.542,167.62,285.118Z" transform="translate(-154.332 -276.851)" fill="#fff"/>
        <g id="Group_9597" data-name="Group 9597" transform="translate(6.294 3.792)" clip-path="url(#clip-path-8)">
          <path id="Path_7632" data-name="Path 7632" d="M162.434,286.932a1.125,1.125,0,0,0-1.133-1.162,2.059,2.059,0,0,0-.6.772c-.387,1.021.536.478.875,1.214s-.536,1.6-.339,2.137,1.117,2.63,1.117,2.63a1.506,1.506,0,0,1,.626-.634c-.478-.681-1.062-1.511-1.391-1.992C160.969,288.978,162.575,288.414,162.434,286.932Z" transform="translate(-160.614 -284.544)" fill="#128b84" opacity="0.5" style="mix-blend-mode: multiply;isolation: isolate"/>
        </g>
        <path id="Path_7634" data-name="Path 7634" d="M167.62,285.118c-.182-1.045-.662-2.73-.445-3.22a2.219,2.219,0,0,0-2.13-1.248c-1.9-.1-3.935.971-4.325,1.992s.536.478.875,1.215-.536,1.6-.339,2.137,1.116,2.63,1.116,2.63c.146-.583,2.333-1.556,2.333-1.556a3.107,3.107,0,0,0,.971.1c.438-.048.194-.437.194-.437l2.24.134C167.919,286.156,167.692,285.542,167.62,285.118Z" transform="translate(-154.332 -276.851)" fill="none" stroke="#263238" stroke-miterlimit="10" stroke-width="1"/>
        <line id="Line_122" data-name="Line 122" y1="0.098" x2="1.164" transform="translate(11.588 8.511)" fill="none" stroke="#263238" stroke-linecap="round" stroke-linejoin="round" stroke-width="0.5"/>
      </g>
      <g id="freepik--character-2--inject-1--inject-29" transform="translate(122.939 90.545)">
        <circle id="Ellipse_66" data-name="Ellipse 66" cx="10.024" cy="10.024" r="10.024" transform="translate(0 6.279) rotate(-13.53)" fill="#128b84" stroke="#263238" stroke-miterlimit="10" stroke-width="1"/>
        <circle id="Ellipse_67" data-name="Ellipse 67" cx="10.024" cy="10.024" r="10.024" transform="translate(0 6.279) rotate(-13.53)" fill="#fff" stroke="#263238" stroke-miterlimit="10" stroke-width="0.5" opacity="0.3"/>
        <ellipse id="Ellipse_68" data-name="Ellipse 68" cx="7.031" cy="7.321" rx="7.031" ry="7.321" transform="matrix(0.348, -0.938, 0.938, 0.348, 4.481, 13.185)" fill="#263238" stroke="#263238" stroke-miterlimit="10" stroke-width="0.5"/>
        <path id="Path_7642" data-name="Path 7642" d="M297.681,209.339a9.972,9.972,0,0,0,5.233-1.473c-1.169-1.078-4.212-3.763-5.647-3.88-1.5-.122-5.884,1.281-7.287,1.748A10.005,10.005,0,0,0,297.681,209.339Z" transform="translate(-285.588 -185.633)" fill="#fff" stroke="#263238" stroke-miterlimit="10" stroke-width="0.5"/>
        <path id="Path_7643" data-name="Path 7643" d="M314.429,205.273c.041-.12.077-.239.115-.337a5.081,5.081,0,0,0-2.008-.928,7.5,7.5,0,0,0-1.853.213,15.94,15.94,0,0,0-.55,2.656c-.292,1.652.146,2.137,1.36,1.506A5.765,5.765,0,0,0,314.429,205.273Z" transform="translate(-300.857 -185.656)" fill="#fff" stroke="#263238" stroke-miterlimit="10" stroke-width="0.5"/>
        <path id="Path_7644" data-name="Path 7644" d="M313.169,192.32a2.636,2.636,0,0,1-.048,1.8c-.34,1.262-1.2,3.347-.8,3.744s2.79-1.411,2.886-2.771.1-4.081.1-4.081Z" transform="translate(-302.511 -175.765)" fill="#fff"/>
        <g id="Group_9598" data-name="Group 9598" transform="translate(9.709 15.245)" clip-path="url(#clip-path-9)">
          <path id="Path_7645" data-name="Path 7645" d="M316.3,193.13l1.535,1.2-.117,1.913a2.355,2.355,0,0,0,.509-1.157c.1-1.36.1-4.081.1-4.081l-2.137,1.31A1.714,1.714,0,0,1,316.3,193.13Z" transform="translate(-315.241 -191.002)" fill="#128b84" opacity="0.5" style="mix-blend-mode: multiply;isolation: isolate"/>
        </g>
        <path id="Path_7647" data-name="Path 7647" d="M313.169,192.32a2.636,2.636,0,0,1-.048,1.8c-.34,1.262-1.2,3.347-.8,3.744s2.79-1.411,2.886-2.771.1-4.081.1-4.081Z" transform="translate(-302.511 -175.765)" fill="none" stroke="#263238" stroke-miterlimit="10" stroke-width="1"/>
        <path id="Path_7648" data-name="Path 7648" d="M303,170s-.339-.875-.777-.239a.981.981,0,0,0,.339,1.408C302.8,171.171,303,170,303,170Z" transform="translate(-294.774 -159.421)" fill="#fff" stroke="#263238" stroke-miterlimit="10" stroke-width="1"/>
        <path id="Path_7649" data-name="Path 7649" d="M304.975,159.71a21.952,21.952,0,0,0-1.748,4.664c-.339,1.9,1.069,4.76,2.477,4.76s3.586-2.185,3.586-2.185,2.039.048,2.331-.631-.048-1.215-.583-1.215h-1.069s-.292.146-.146-1.215a4.592,4.592,0,0,1,.583-1.992S306.72,162.187,304.975,159.71Z" transform="translate(-295.629 -151.948)" fill="#fff"/>
        <g id="Group_9599" data-name="Group 9599" transform="translate(7.547 7.762)" clip-path="url(#clip-path-10)">
          <path id="Path_7650" data-name="Path 7650" d="M314.86,173.027a4.652,4.652,0,0,1-3.586,2.89h-.014a1.246,1.246,0,0,0,.6.17c1.408,0,3.586-2.185,3.586-2.185s2.039.048,2.331-.631-.048-1.215-.583-1.215H316.13s-.292.146-.146-1.215a4.593,4.593,0,0,1,.583-1.992,6.255,6.255,0,0,1-.634,0h-.017" transform="translate(-309.327 -166.665)" fill="#128b84" opacity="0.5" style="mix-blend-mode: multiply;isolation: isolate"/>
        </g>
        <path id="Path_7652" data-name="Path 7652" d="M304.975,159.71a21.952,21.952,0,0,0-1.748,4.664c-.339,1.9,1.069,4.76,2.477,4.76s3.586-2.185,3.586-2.185,2.039.048,2.331-.631-.048-1.215-.583-1.215h-1.069s-.292.146-.146-1.215a4.592,4.592,0,0,1,.583-1.992S306.72,162.187,304.975,159.71Z" transform="translate(-295.629 -151.948)" fill="none" stroke="#263238" stroke-miterlimit="10" stroke-width="0.5"/>
      </g>
      <g id="freepik--character-1--inject-1--inject-29" transform="translate(88.618 92.709)">
        <circle id="Ellipse_69" data-name="Ellipse 69" cx="10.024" cy="10.024" r="10.024" transform="matrix(0.987, -0.162, 0.162, 0.987, 0, 3.254)" fill="#128b84" stroke="#263238" stroke-miterlimit="10" stroke-width="1"/>
        <circle id="Ellipse_70" data-name="Ellipse 70" cx="10.024" cy="10.024" r="10.024" transform="matrix(0.987, -0.162, 0.162, 0.987, 0, 3.254)" fill="#fff" stroke="#263238" stroke-miterlimit="10" stroke-width="0.5" opacity="0.3"/>
        <path id="Path_7659" data-name="Path 7659" d="M141.316,155.007c-.172.686-.956.591-.717,1.434a10.02,10.02,0,0,0,13.247,1.781,4.35,4.35,0,0,0,1.167-2.458c.065-2.19-2.25-3.825-2.374-4.88a10.618,10.618,0,0,1,.875-3.438,3.209,3.209,0,0,0,2.376-1.812c.626-1.561-1.755-5.073-3.883-6.137s-5.69-.124-7.44,2.439.375,4.815-.751,6-4.064,1.25-4.377,3.627S141.5,154.256,141.316,155.007Z" transform="translate(-136.695 -138.404)" fill="#263238" stroke="#263238" stroke-miterlimit="10" stroke-width="1"/>
        <path id="Path_7663" data-name="Path 7663" d="M153.49,205.869a10.017,10.017,0,0,0,12.262-1.081,22.421,22.421,0,0,0-2.343-1.879,6.3,6.3,0,0,0-3.689-1.377,8.749,8.749,0,0,0-2,1.564A27.4,27.4,0,0,1,153.49,205.869Z" transform="translate(-147.408 -185.931)" fill="#fff" stroke="#263238" stroke-miterlimit="10" stroke-width="0.5"/>
        <path id="Path_7664" data-name="Path 7664" d="M176.688,203.3a4.3,4.3,0,0,0-.177-1.229,4.543,4.543,0,0,0-2.135-.478,6.946,6.946,0,0,0-1.592,1.2,4.34,4.34,0,0,0-.033.533c0,1.642.88,2.972,1.968,2.972S176.688,204.946,176.688,203.3Z" transform="translate(-162.064 -185.983)" fill="#fff" stroke="#263238" stroke-miterlimit="10" stroke-width="0.5"/>
        <path id="Path_7665" data-name="Path 7665" d="M176.679,188.21s0,1.752-.186,3.378.062,3.376,1.25,3.5,1-2.687.875-3.813a10.23,10.23,0,0,1,0-2.125Z" transform="translate(-164.869 -175.798)" fill="#fff"/>
        <g id="Group_9600" data-name="Group 9600" transform="translate(11.568 12.412)" clip-path="url(#clip-path-11)">
          <path id="Path_7666" data-name="Path 7666" d="M176.52,191.989l2.111-2.046v-.184l-.43-.8-1.466-.717s0,1.752-.186,3.378C176.542,191.735,176.53,191.862,176.52,191.989Z" transform="translate(-176.5 -188.233)" fill="#128b84" opacity="0.5" style="mix-blend-mode: multiply;isolation: isolate"/>
        </g>
        <path id="Path_7668" data-name="Path 7668" d="M176.679,188.21s0,1.752-.186,3.378.062,3.376,1.25,3.5,1-2.687.875-3.813a10.23,10.23,0,0,1,0-2.125Z" transform="translate(-164.869 -175.798)" fill="none" stroke="#263238" stroke-miterlimit="10" stroke-width="0.5"/>
        <path id="Path_7669" data-name="Path 7669" d="M172.229,155.52s.124.813-2,1.815-3.189,1.812-3.376,2.749-.251,1.315-.251,1.315a.91.91,0,0,0-1.25-.44c-.813.438-.062,2.128.689,2.19s.937-.189.937-.189,2.439,2.439,3.875,2.439,2-1.375,2.314-3.825C173.469,159.221,172.229,155.52,172.229,155.52Z" transform="translate(-156.166 -150.924)" fill="#fff"/>
        <g id="Group_9601" data-name="Group 9601" transform="translate(8.833 4.596)" clip-path="url(#clip-path-12)">
          <path id="Path_7670" data-name="Path 7670" d="M167.535,169.538a4.543,4.543,0,0,1,.813-2.188,2.974,2.974,0,0,0-1.5,1.736c-.189.94-.251,1.315-.251,1.315a.91.91,0,0,0-1.25-.44c-.813.438-.062,2.128.689,2.19s.937-.189.937-.189,2.439,2.439,3.875,2.439a6.275,6.275,0,0,1-1.2-.775A5.884,5.884,0,0,1,167.535,169.538Z" transform="translate(-164.999 -164.522)" fill="#128b84" opacity="0.5" style="mix-blend-mode: multiply;isolation: isolate"/>
        </g>
        <path id="Path_7672" data-name="Path 7672" d="M172.229,155.52s.124.813-2,1.815-3.189,1.812-3.376,2.749-.251,1.315-.251,1.315a.91.91,0,0,0-1.25-.44c-.813.438-.062,2.128.689,2.19s.937-.189.937-.189,2.439,2.439,3.875,2.439,2-1.375,2.314-3.825C173.469,159.221,172.229,155.52,172.229,155.52Z" transform="translate(-156.166 -150.924)" fill="none" stroke="#263238" stroke-miterlimit="10" stroke-width="1"/>
      </g>
    </g>
  </g>
</svg>
