<?xml version="1.0" encoding="utf-8"?>
<!-- Generator: Adobe Illustrator 26.3.1, SVG Export Plug-In . SVG Version: 6.00 Build 0)  -->
<svg version="1.1" id="Layer_1" xmlns="http://www.w3.org/2000/svg" xmlns:xlink="http://www.w3.org/1999/xlink" x="0px" y="0px"
	 viewBox="0 0 491.9 567.1" style="enable-background:new 0 0 491.9 567.1;" xml:space="preserve">
<style type="text/css">
	.st0{fill:#B6C7D1;}
	.st1{opacity:0.51;}
	.st2{fill:#EBEBEB;}
	.st3{fill:#C7C7C6;}
	.st4{fill:#FFFFFF;}
	.st5{fill:#DCDBDB;}
	.st6{fill:#A6A5A5;}
	.st7{fill:#37474F;}
	.st8{fill:#263238;}
	.st9{fill:#455B64;}
	.st10{fill:#FFC829;}
	.st11{opacity:0.1;fill:#010101;enable-background:new    ;}
	.st12{opacity:0.4;fill:#FFFFFF;enable-background:new    ;}
	.st13{opacity:0.5;fill:#EBEBEB;enable-background:new    ;}
	.st14{opacity:0.2;fill:#FFFFFF;enable-background:new    ;}
	.st15{opacity:0.5;}
	.st16{opacity:0.6;fill:#FFFFFF;enable-background:new    ;}
	.st17{opacity:0.7;}
	.st18{opacity:0.4;}
	.st19{opacity:0.1;}
	.st20{fill:#010101;}
	.st21{opacity:0.6;}
	.st22{fill:#06B7AE;}
	.st23{fill:#FBBF9E;}
	.st24{fill:#F7996E;}
	.st25{fill:#E0E0E0;}
	.st26{fill:#FAFBFB;stroke:#263238;stroke-miterlimit:10;}
	.st27{fill:#263238;stroke:#263238;stroke-width:0.25;stroke-miterlimit:10;}
	.st28{enable-background:new    ;}
	.st29{fill:#E6E7E8;}
	.st30{fill:#9AB1BA;}
	.st31{fill:#96B2BD;}
	.st32{fill:#3097D3;}
	.st33{fill:#F5F5F5;}
	.st34{fill:#7ACAB7;}
</style>
<g id="Layer_2_00000126319968339606846140000000670939798867031685_">
	<g id="Layer_1-2">
		<polyline class="st0" points="38.3,555 38.3,72 466.6,72 466.6,555 		"/>
		<g class="st1">
			<rect x="267" y="265.6" class="st2" width="62" height="289.4"/>
			<rect x="265.5" y="259.3" class="st3" width="63.5" height="6.3"/>
			<rect x="272.6" y="275" class="st4" width="6.3" height="280"/>
			<rect x="283.7" y="275" class="st4" width="6.3" height="280"/>
			<rect x="294.8" y="275" class="st4" width="6.3" height="280"/>
			<rect x="305.9" y="275" class="st4" width="6.3" height="280"/>
			<rect x="317" y="275" class="st4" width="6.3" height="280"/>
			<rect x="272.6" y="283" class="st2" width="6.3" height="12.5"/>
			<rect x="283.7" y="283" class="st2" width="6.3" height="12.5"/>
			<rect x="294.8" y="283" class="st2" width="6.3" height="12.5"/>
			<rect x="305.9" y="283" class="st2" width="6.3" height="12.5"/>
			<rect x="317" y="283" class="st2" width="6.3" height="12.5"/>
			<rect x="272.6" y="303.3" class="st2" width="6.3" height="12.5"/>
			<rect x="283.7" y="303.3" class="st2" width="6.3" height="12.5"/>
			<rect x="294.8" y="303.3" class="st2" width="6.3" height="12.5"/>
			<rect x="305.9" y="303.3" class="st2" width="6.3" height="12.5"/>
			<rect x="317" y="303.3" class="st2" width="6.3" height="12.5"/>
			<rect x="272.6" y="323.6" class="st2" width="6.3" height="12.5"/>
			<rect x="283.7" y="323.6" class="st2" width="6.3" height="12.5"/>
			<rect x="294.8" y="323.6" class="st2" width="6.3" height="12.5"/>
			<rect x="305.9" y="323.6" class="st2" width="6.3" height="12.5"/>
			<rect x="317" y="323.6" class="st2" width="6.3" height="12.5"/>
			<rect x="272.6" y="343.9" class="st2" width="6.3" height="12.5"/>
			<rect x="283.7" y="343.9" class="st2" width="6.3" height="12.5"/>
			<rect x="294.8" y="343.9" class="st2" width="6.3" height="12.5"/>
			<rect x="305.9" y="343.9" class="st2" width="6.3" height="12.5"/>
			<rect x="317" y="343.9" class="st2" width="6.3" height="12.5"/>
			<rect x="272.6" y="364.2" class="st2" width="6.3" height="12.5"/>
			<rect x="283.7" y="364.2" class="st2" width="6.3" height="12.5"/>
			<rect x="294.8" y="364.2" class="st2" width="6.3" height="12.5"/>
			<rect x="305.9" y="364.2" class="st2" width="6.3" height="12.5"/>
			<rect x="317" y="364.2" class="st2" width="6.3" height="12.5"/>
			<rect x="272.6" y="384.6" class="st2" width="6.3" height="12.5"/>
			<rect x="283.7" y="384.6" class="st2" width="6.3" height="12.5"/>
			<rect x="294.8" y="384.6" class="st2" width="6.3" height="12.5"/>
			<rect x="305.9" y="384.6" class="st2" width="6.3" height="12.5"/>
			<rect x="317" y="384.6" class="st2" width="6.3" height="12.5"/>
			<rect x="272.6" y="404.9" class="st2" width="6.3" height="12.5"/>
			<rect x="283.7" y="404.9" class="st2" width="6.3" height="12.5"/>
			<rect x="294.8" y="404.9" class="st2" width="6.3" height="12.5"/>
			<rect x="305.9" y="404.9" class="st2" width="6.3" height="12.5"/>
			<rect x="317" y="404.9" class="st2" width="6.3" height="12.5"/>
			<rect x="272.6" y="425.2" class="st2" width="6.3" height="12.5"/>
			<rect x="283.7" y="425.2" class="st2" width="6.3" height="12.5"/>
			<rect x="294.8" y="425.2" class="st2" width="6.3" height="12.5"/>
			<rect x="305.9" y="425.2" class="st2" width="6.3" height="12.5"/>
			<rect x="317" y="425.2" class="st2" width="6.3" height="12.5"/>
			<rect x="272.6" y="445.6" class="st2" width="6.3" height="12.5"/>
			<rect x="283.7" y="445.6" class="st2" width="6.3" height="12.5"/>
			<rect x="294.8" y="445.6" class="st2" width="6.3" height="12.5"/>
			<rect x="305.9" y="445.6" class="st2" width="6.3" height="12.5"/>
			<rect x="317" y="445.6" class="st2" width="6.3" height="12.5"/>
			<rect x="272.6" y="465.9" class="st2" width="6.3" height="12.5"/>
			<rect x="283.7" y="465.9" class="st2" width="6.3" height="12.5"/>
			<rect x="294.8" y="465.9" class="st2" width="6.3" height="12.5"/>
			<rect x="305.9" y="465.9" class="st2" width="6.3" height="12.5"/>
			<rect x="317" y="465.9" class="st2" width="6.3" height="12.5"/>
			<rect x="272.6" y="486.2" class="st2" width="6.3" height="12.5"/>
			<rect x="283.7" y="486.2" class="st2" width="6.3" height="12.5"/>
			<rect x="294.8" y="486.2" class="st2" width="6.3" height="12.5"/>
			<rect x="305.9" y="486.2" class="st2" width="6.3" height="12.5"/>
			<rect x="317" y="486.2" class="st2" width="6.3" height="12.5"/>
			<rect x="272.6" y="506.5" class="st2" width="6.3" height="12.5"/>
			<rect x="283.7" y="506.5" class="st2" width="6.3" height="12.5"/>
			<rect x="294.8" y="506.5" class="st2" width="6.3" height="12.5"/>
			<rect x="305.9" y="506.5" class="st2" width="6.3" height="12.5"/>
			<rect x="317" y="506.5" class="st2" width="6.3" height="12.5"/>
			<rect x="272.6" y="526.9" class="st2" width="6.3" height="12.5"/>
			<rect x="283.7" y="526.9" class="st2" width="6.3" height="12.5"/>
			<rect x="294.8" y="526.9" class="st2" width="6.3" height="12.5"/>
			<rect x="305.9" y="526.9" class="st2" width="6.3" height="12.5"/>
			<rect x="317" y="526.9" class="st2" width="6.3" height="12.5"/>
			<rect x="272.6" y="547.2" class="st2" width="6.3" height="7.8"/>
			<rect x="283.7" y="547.2" class="st2" width="6.3" height="7.8"/>
			<rect x="294.8" y="547.2" class="st2" width="6.3" height="7.8"/>
			<rect x="305.9" y="547.2" class="st2" width="6.3" height="7.8"/>
			<rect x="317" y="547.2" class="st2" width="6.3" height="7.8"/>
			<rect x="328.9" y="265.6" class="st5" width="39.8" height="289.4"/>
			<rect x="328.9" y="259.3" class="st3" width="41.5" height="6.3"/>
			<rect x="334.5" y="275" class="st3" width="6.3" height="280"/>
			<rect x="345.6" y="275" class="st3" width="6.3" height="280"/>
			<rect x="356.8" y="275" class="st3" width="6.3" height="280"/>
			<rect x="334.5" y="283" class="st5" width="6.3" height="12.5"/>
			<rect x="345.6" y="283" class="st5" width="6.3" height="12.5"/>
			<rect x="356.8" y="283" class="st5" width="6.3" height="12.5"/>
			<rect x="334.5" y="303.3" class="st5" width="6.3" height="12.5"/>
			<rect x="345.6" y="303.3" class="st5" width="6.3" height="12.5"/>
			<rect x="356.8" y="303.3" class="st5" width="6.3" height="12.5"/>
			<rect x="334.5" y="323.6" class="st5" width="6.3" height="12.5"/>
			<rect x="345.6" y="323.6" class="st5" width="6.3" height="12.5"/>
			<rect x="356.8" y="323.6" class="st5" width="6.3" height="12.5"/>
			<rect x="334.5" y="343.9" class="st5" width="6.3" height="12.5"/>
			<rect x="345.6" y="343.9" class="st5" width="6.3" height="12.5"/>
			<rect x="356.8" y="343.9" class="st5" width="6.3" height="12.5"/>
			<rect x="334.5" y="364.2" class="st5" width="6.3" height="12.5"/>
			<rect x="345.6" y="364.2" class="st5" width="6.3" height="12.5"/>
			<rect x="356.8" y="364.2" class="st5" width="6.3" height="12.5"/>
			<rect x="334.5" y="384.6" class="st5" width="6.3" height="12.5"/>
			<rect x="345.6" y="384.6" class="st5" width="6.3" height="12.5"/>
			<rect x="356.8" y="384.6" class="st5" width="6.3" height="12.5"/>
			<rect x="334.5" y="404.9" class="st5" width="6.3" height="12.5"/>
			<rect x="345.6" y="404.9" class="st5" width="6.3" height="12.5"/>
			<rect x="356.8" y="404.9" class="st5" width="6.3" height="12.5"/>
			<rect x="334.5" y="425.2" class="st5" width="6.3" height="12.5"/>
			<rect x="345.6" y="425.2" class="st5" width="6.3" height="12.5"/>
			<rect x="356.8" y="425.2" class="st5" width="6.3" height="12.5"/>
			<rect x="334.5" y="445.6" class="st5" width="6.3" height="12.5"/>
			<rect x="345.6" y="445.6" class="st5" width="6.3" height="12.5"/>
			<rect x="356.8" y="445.6" class="st5" width="6.3" height="12.5"/>
			<rect x="334.5" y="465.9" class="st5" width="6.3" height="12.5"/>
			<rect x="345.6" y="465.9" class="st5" width="6.3" height="12.5"/>
			<rect x="356.8" y="465.9" class="st5" width="6.3" height="12.5"/>
			<rect x="334.5" y="486.2" class="st5" width="6.3" height="12.5"/>
			<rect x="345.6" y="486.2" class="st5" width="6.3" height="12.5"/>
			<rect x="356.8" y="486.2" class="st5" width="6.3" height="12.5"/>
			<rect x="334.5" y="506.5" class="st5" width="6.3" height="12.5"/>
			<rect x="345.6" y="506.5" class="st5" width="6.3" height="12.5"/>
			<rect x="356.8" y="506.5" class="st5" width="6.3" height="12.5"/>
			<rect x="334.5" y="526.9" class="st5" width="6.3" height="12.5"/>
			<rect x="345.6" y="526.9" class="st5" width="6.3" height="12.5"/>
			<rect x="356.8" y="526.9" class="st5" width="6.3" height="12.5"/>
			<rect x="334.5" y="547.2" class="st5" width="6.3" height="7.8"/>
			<rect x="345.6" y="547.2" class="st5" width="6.3" height="7.8"/>
			<rect x="356.8" y="547.2" class="st5" width="6.3" height="7.8"/>
			<rect x="355" y="352.6" class="st2" width="68.2" height="202.4"/>
			<rect x="364.7" y="335.4" class="st3" width="58.5" height="17.2"/>
			<rect x="362.5" y="361.5" class="st5" width="53.3" height="193.4"/>
			<rect x="362.5" y="380" class="st4" width="53.3" height="4.6"/>
			<rect x="362.5" y="398.9" class="st4" width="53.3" height="4.6"/>
			<rect x="362.5" y="417.9" class="st4" width="53.3" height="4.6"/>
			<rect x="362.5" y="436.8" class="st4" width="53.3" height="4.6"/>
			<rect x="362.5" y="455.7" class="st4" width="53.3" height="4.6"/>
			<rect x="362.5" y="474.7" class="st4" width="53.3" height="4.6"/>
			<rect x="362.5" y="493.6" class="st4" width="53.3" height="4.6"/>
			<rect x="362.5" y="512.5" class="st4" width="53.3" height="4.6"/>
			<rect x="362.5" y="531.5" class="st4" width="53.3" height="4.6"/>
			<rect x="362.5" y="550.4" class="st4" width="53.3" height="4.6"/>
			<rect x="423.2" y="352.6" class="st5" width="42.7" height="202.4"/>
			<rect x="423.2" y="335.4" class="st6" width="36.3" height="17.2"/>
			<rect x="429.1" y="361.5" class="st3" width="32.9" height="193.4"/>
			<rect x="429.1" y="380" class="st4" width="32.9" height="4.6"/>
			<rect x="429.1" y="398.9" class="st4" width="32.9" height="4.6"/>
			<rect x="429.1" y="417.9" class="st4" width="32.9" height="4.6"/>
			<rect x="429.1" y="436.8" class="st4" width="32.9" height="4.6"/>
			<rect x="429.1" y="455.7" class="st4" width="32.9" height="4.6"/>
			<rect x="429.1" y="474.7" class="st4" width="32.9" height="4.6"/>
			<rect x="429.1" y="493.6" class="st4" width="32.9" height="4.6"/>
			<rect x="429.1" y="512.5" class="st4" width="32.9" height="4.6"/>
			<rect x="429.1" y="531.5" class="st4" width="32.9" height="4.6"/>
			<rect x="429.1" y="550.4" class="st4" width="32.9" height="4.6"/>
			<rect x="203.3" y="428.8" class="st3" width="62.8" height="126.2"/>
			<rect x="213.1" y="439.7" class="st5" width="11.1" height="7.7"/>
			<rect x="213.1" y="456.2" class="st5" width="11.1" height="7.7"/>
			<rect x="213.1" y="472.7" class="st5" width="11.1" height="7.7"/>
			<rect x="213.1" y="489.3" class="st5" width="11.1" height="7.7"/>
			<rect x="213.1" y="505.8" class="st5" width="11.1" height="7.7"/>
			<rect x="213.1" y="522.3" class="st5" width="11.1" height="7.7"/>
			<rect x="213.1" y="538.8" class="st5" width="11.1" height="7.7"/>
			<rect x="229.1" y="439.7" class="st5" width="11.1" height="7.7"/>
			<rect x="229.1" y="456.2" class="st5" width="11.1" height="7.7"/>
			<rect x="229.1" y="472.7" class="st5" width="11.1" height="7.7"/>
			<rect x="229.1" y="489.3" class="st5" width="11.1" height="7.7"/>
			<rect x="229.1" y="505.8" class="st5" width="11.1" height="7.7"/>
			<rect x="229.1" y="522.3" class="st5" width="11.1" height="7.7"/>
			<rect x="229.1" y="538.8" class="st5" width="11.1" height="7.7"/>
			<rect x="245.1" y="439.7" class="st5" width="11.1" height="7.7"/>
			<rect x="245.1" y="456.2" class="st5" width="11.1" height="7.7"/>
			<rect x="245.1" y="472.7" class="st5" width="11.1" height="7.7"/>
			<rect x="245.1" y="489.3" class="st5" width="11.1" height="7.7"/>
			<rect x="245.1" y="505.8" class="st5" width="11.1" height="7.7"/>
			<rect x="245.1" y="522.3" class="st5" width="11.1" height="7.7"/>
			<rect x="245.1" y="538.8" class="st5" width="11.1" height="7.7"/>
			<rect x="224.3" y="415.6" class="st5" width="41.8" height="13.1"/>
			<rect x="239.6" y="407.5" class="st2" width="26.5" height="8.1"/>
			<rect x="266.1" y="428.8" class="st6" width="44.1" height="126.2"/>
			<rect x="296.6" y="537.6" class="st3" width="9" height="7.7"/>
			<rect x="296.6" y="521" class="st3" width="9" height="7.7"/>
			<rect x="296.6" y="504.5" class="st3" width="9" height="7.7"/>
			<rect x="296.6" y="488" class="st3" width="9" height="7.7"/>
			<rect x="296.6" y="471.5" class="st3" width="9" height="7.7"/>
			<rect x="296.6" y="455" class="st3" width="9" height="7.7"/>
			<rect x="296.6" y="438.5" class="st3" width="9" height="7.7"/>
			<rect x="283.6" y="537.6" class="st3" width="9" height="7.7"/>
			<rect x="283.6" y="521" class="st3" width="9" height="7.7"/>
			<rect x="283.6" y="504.5" class="st3" width="9" height="7.7"/>
			<rect x="283.6" y="488" class="st3" width="9" height="7.7"/>
			<rect x="283.6" y="471.5" class="st3" width="9" height="7.7"/>
			<rect x="283.6" y="455" class="st3" width="9" height="7.7"/>
			<rect x="283.6" y="438.5" class="st3" width="9" height="7.7"/>
			<rect x="270.6" y="537.6" class="st3" width="9" height="7.7"/>
			<rect x="270.6" y="521" class="st3" width="9" height="7.7"/>
			<rect x="270.6" y="504.5" class="st3" width="9" height="7.7"/>
			<rect x="270.6" y="488" class="st3" width="9" height="7.7"/>
			<rect x="270.6" y="471.5" class="st3" width="9" height="7.7"/>
			<rect x="270.6" y="455" class="st3" width="9" height="7.7"/>
			<rect x="270.6" y="438.5" class="st3" width="9" height="7.7"/>
			<rect x="266.1" y="415.6" class="st3" width="37.4" height="13.1"/>
			<rect x="266.1" y="407.5" class="st5" width="20.3" height="8.1"/>
			<path class="st7" d="M223.4,502.1c0,0,14.3,31.9-9.1,31.9s-8.3-33-8.3-33s-5.4-2.4,0.8-20.2s9.1-17.7,11.7-17.7
				c3.3,0,6.4,7.7,4.1,19.5C222.8,482.6,231,497.3,223.4,502.1z"/>
			<polygon class="st8" points="212.3,555.1 214.5,507.1 216.8,555.1 			"/>
			<polygon class="st8" points="213.6,527.2 222.1,517.3 215.5,528.5 			"/>
			<path class="st9" d="M239.9,505.5c0,0-6.7-2.6-12,6.6c-5.4,9.5,1.4,15.7,6.8,12c0,0,4.2,8.9,12.7,6.8s9.8-8.9,9.8-8.9
				s7.5,0.5,7.7-5.1s-5.3-10.6-5.3-10.6s-0.3-14-9.4-13.9S239.9,505.5,239.9,505.5z"/>
			<polygon class="st8" points="246.1,555.1 248,513.5 250,555.1 			"/>
			<polygon class="st8" points="247.4,529.1 241.6,517.5 248.4,527.3 			"/>
		</g>
		<rect x="340.2" y="441" class="st10" width="12.7" height="5.2"/>
		<rect x="340.2" y="441" class="st11" width="12.7" height="5.2"/>
		<rect x="349.6" y="441" class="st11" width="3.3" height="5.2"/>
		<rect x="282.2" y="446.2" class="st10" width="53.1" height="108.8"/>
		<rect x="282.2" y="446.2" class="st12" width="53.1" height="108.8"/>
		<rect x="282.2" y="446.2" class="st10" width="53.1" height="2.3"/>
		<rect x="322.7" y="451.8" class="st7" width="7.6" height="7.7"/>
		<rect x="310.9" y="451.8" class="st7" width="7.6" height="7.7"/>
		<rect x="299" y="451.8" class="st7" width="7.6" height="7.7"/>
		<rect x="287.2" y="451.8" class="st7" width="7.6" height="7.7"/>
		<polygon class="st9" points="287.2,452.4 287.2,456.1 290.5,459.5 294.2,459.5 		"/>
		<polygon class="st9" points="310.9,451.8 310.9,451.9 318.4,459.5 318.5,459.5 318.5,457.7 312.6,451.8 		"/>
		<polygon class="st9" points="310.9,455.4 310.9,456.4 313.9,459.5 314.9,459.5 		"/>
		<polygon class="st9" points="322.7,452 322.7,452.9 329.2,459.5 330.1,459.5 		"/>
		<polygon class="st9" points="289.5,451.8 294.8,457.1 294.8,456.2 290.5,451.8 		"/>
		<path class="st13" d="M310.3,405.1v-26.4c0-6-4-13.2-4.9-17.5s0.7-12.9-3.5-16.7s-7.2-1-11.4-6.3s-13.3-12.5-19.5-5
			s2.6,17.9,3.9,20.1s0,7.4,3.5,11.7c2.4,3,7.4,1.8,10.4,4.8c2.3,2.4,3.1,8.3,6.7,10.3s7.6,1.2,9.5,3.5c4.7,5.6,4.4,19.9,4.4,21.6
			L310.3,405.1z"/>
		<polygon class="st10" points="303.8,401.4 315.4,401.4 317.8,446.2 301.3,446.2 		"/>
		<rect x="303.1" y="399.6" class="st10" width="12.9" height="1.8"/>
		<rect x="303.1" y="399.6" class="st11" width="12.9" height="1.8"/>
		<rect x="300.7" y="433.8" class="st10" width="18" height="2.5"/>
		<rect x="300.7" y="433.8" class="st11" width="18" height="2.5"/>
		<rect x="300.7" y="429.5" class="st10" width="18" height="2.5"/>
		<rect x="300.7" y="429.5" class="st11" width="18" height="2.5"/>
		<rect x="300.7" y="425.1" class="st10" width="18" height="2.5"/>
		<rect x="300.7" y="425.1" class="st11" width="18" height="2.5"/>
		<rect x="335.3" y="446.2" class="st10" width="21.9" height="108.8"/>
		<rect x="335.3" y="446.2" class="st14" width="21.9" height="108.8"/>
		<rect x="335.3" y="446.2" class="st10" width="21.9" height="2.3"/>
		<path class="st8" d="M345.9,555h-0.4V444.9c0.1-0.5-0.2-0.9-0.6-1c-0.5-0.1-0.9,0.2-1,0.6c0,0.1,0,0.2,0,0.4v1.3h-0.4v-1.3
			c-0.2-0.7,0.3-1.4,1-1.5c0.7-0.2,1.4,0.3,1.5,1c0,0.2,0,0.4,0,0.6V555z"/>
		<path class="st8" d="M349.2,555h-0.4V444.9c0.1-0.5-0.2-0.9-0.6-1c-0.5-0.1-0.9,0.2-1,0.6c0,0.1,0,0.2,0,0.4v1.3h-0.4v-1.3
			c-0.2-0.7,0.3-1.4,1-1.5c0.7-0.2,1.4,0.3,1.5,1c0,0.2,0,0.4,0,0.6V555z"/>
		<rect x="345.7" y="448.2" class="st8" width="3.3" height="0.5"/>
		<rect x="345.7" y="450.2" class="st8" width="3.3" height="0.5"/>
		<rect x="345.7" y="452.3" class="st8" width="3.3" height="0.5"/>
		<rect x="345.7" y="454.4" class="st8" width="3.3" height="0.5"/>
		<rect x="345.7" y="456.4" class="st8" width="3.3" height="0.5"/>
		<rect x="345.7" y="458.5" class="st8" width="3.3" height="0.5"/>
		<rect x="345.7" y="460.6" class="st8" width="3.3" height="0.5"/>
		<rect x="345.7" y="462.6" class="st8" width="3.3" height="0.5"/>
		<rect x="345.7" y="464.7" class="st8" width="3.3" height="0.5"/>
		<rect x="345.7" y="466.8" class="st8" width="3.3" height="0.5"/>
		<rect x="345.7" y="468.8" class="st8" width="3.3" height="0.5"/>
		<rect x="345.7" y="470.9" class="st8" width="3.3" height="0.5"/>
		<rect x="345.7" y="473" class="st8" width="3.3" height="0.5"/>
		<rect x="345.7" y="475" class="st8" width="3.3" height="0.5"/>
		<rect x="345.7" y="477.1" class="st8" width="3.3" height="0.5"/>
		<rect x="345.7" y="479.1" class="st8" width="3.3" height="0.5"/>
		<rect x="345.7" y="481.2" class="st8" width="3.3" height="0.5"/>
		<rect x="345.7" y="483.3" class="st8" width="3.3" height="0.5"/>
		<rect x="345.7" y="485.3" class="st8" width="3.3" height="0.5"/>
		<rect x="345.7" y="487.4" class="st8" width="3.3" height="0.5"/>
		<rect x="345.7" y="489.5" class="st8" width="3.3" height="0.5"/>
		<rect x="345.7" y="491.5" class="st8" width="3.3" height="0.5"/>
		<rect x="345.7" y="493.6" class="st8" width="3.3" height="0.5"/>
		<rect x="345.7" y="495.7" class="st8" width="3.3" height="0.5"/>
		<rect x="345.7" y="497.7" class="st8" width="3.3" height="0.5"/>
		<rect x="345.7" y="499.8" class="st8" width="3.3" height="0.5"/>
		<rect x="345.7" y="501.9" class="st8" width="3.3" height="0.5"/>
		<rect x="345.7" y="503.9" class="st8" width="3.3" height="0.5"/>
		<rect x="345.7" y="506" class="st8" width="3.3" height="0.5"/>
		<rect x="345.7" y="508" class="st8" width="3.3" height="0.5"/>
		<rect x="345.7" y="510.1" class="st8" width="3.3" height="0.5"/>
		<rect x="345.7" y="512.2" class="st8" width="3.3" height="0.5"/>
		<rect x="345.7" y="514.2" class="st8" width="3.3" height="0.5"/>
		<rect x="345.7" y="516.3" class="st8" width="3.3" height="0.5"/>
		<rect x="345.7" y="518.4" class="st8" width="3.3" height="0.5"/>
		<rect x="345.7" y="520.4" class="st8" width="3.3" height="0.5"/>
		<rect x="345.7" y="522.5" class="st8" width="3.3" height="0.5"/>
		<rect x="345.7" y="524.6" class="st8" width="3.3" height="0.5"/>
		<rect x="345.7" y="526.6" class="st8" width="3.3" height="0.5"/>
		<rect x="345.7" y="528.7" class="st8" width="3.3" height="0.5"/>
		<rect x="345.7" y="530.8" class="st8" width="3.3" height="0.5"/>
		<rect x="345.7" y="532.8" class="st8" width="3.3" height="0.5"/>
		<rect x="345.7" y="534.9" class="st8" width="3.3" height="0.5"/>
		<rect x="345.7" y="536.9" class="st8" width="3.3" height="0.5"/>
		<rect x="345.7" y="539" class="st8" width="3.3" height="0.5"/>
		<rect x="345.7" y="541.1" class="st8" width="3.3" height="0.5"/>
		<rect x="345.7" y="543.1" class="st8" width="3.3" height="0.5"/>
		<rect x="345.7" y="545.2" class="st8" width="3.3" height="0.5"/>
		<rect x="345.7" y="547.3" class="st8" width="3.3" height="0.5"/>
		<rect x="345.7" y="549.3" class="st8" width="3.3" height="0.5"/>
		<rect x="345.7" y="551.4" class="st8" width="3.3" height="0.5"/>
		<rect x="345.7" y="553.5" class="st8" width="3.3" height="0.5"/>
		<rect x="323" y="441" class="st10" width="12.7" height="5.2"/>
		<rect x="323" y="441" class="st11" width="12.7" height="5.2"/>
		<rect x="332.4" y="441" class="st11" width="3.3" height="5.2"/>
		<g class="st15">
			<rect x="285.1" y="462" class="st10" width="2.2" height="1.2"/>
			<rect x="283.8" y="463.5" class="st10" width="2.2" height="1.2"/>
			<rect x="286.3" y="463.5" class="st10" width="2.2" height="1.2"/>
			<rect x="352.8" y="450.5" class="st10" width="2.2" height="1.2"/>
			<rect x="351.5" y="451.9" class="st10" width="2.2" height="1.2"/>
			<rect x="354" y="451.9" class="st10" width="2.2" height="1.2"/>
			<rect x="339.1" y="456.1" class="st10" width="2.2" height="1.2"/>
			<rect x="307.2" y="450.5" class="st10" width="2.2" height="1.2"/>
			<rect x="330.3" y="462" class="st10" width="2.2" height="1.2"/>
			<rect x="331.6" y="460.5" class="st10" width="2.2" height="1.2"/>
		</g>
		<rect x="250.5" y="479.6" class="st10" width="96.3" height="75.4"/>
		<rect x="250.5" y="479.6" class="st16" width="96.3" height="75.4"/>
		<rect x="250.5" y="479.6" class="st10" width="96.3" height="2.5"/>
		<rect x="251.8" y="517.3" class="st10" width="2.6" height="37.7"/>
		<g class="st17">
			<rect x="251.8" y="517.3" class="st4" width="2.6" height="37.7"/>
		</g>
		<rect x="254.3" y="517.3" class="st10" width="1.3" height="37.7"/>
		<g class="st18">
			<rect x="254.3" y="517.3" class="st4" width="1.3" height="37.7"/>
		</g>
		<rect x="269.6" y="517.3" class="st10" width="2.6" height="37.7"/>
		<g class="st17">
			<rect x="269.6" y="517.3" class="st4" width="2.6" height="37.7"/>
		</g>
		<rect x="272.2" y="517.3" class="st10" width="1.3" height="37.7"/>
		<g class="st18">
			<rect x="272.2" y="517.3" class="st4" width="1.3" height="37.7"/>
		</g>
		<rect x="287.4" y="517.3" class="st10" width="2.6" height="37.7"/>
		<g class="st17">
			<rect x="287.4" y="517.3" class="st4" width="2.6" height="37.7"/>
		</g>
		<rect x="290" y="517.3" class="st10" width="1.3" height="37.7"/>
		<g class="st18">
			<rect x="290" y="517.3" class="st4" width="1.3" height="37.7"/>
		</g>
		<rect x="305.2" y="517.3" class="st10" width="2.6" height="37.7"/>
		<g class="st17">
			<rect x="305.2" y="517.3" class="st4" width="2.6" height="37.7"/>
		</g>
		<rect x="307.8" y="517.3" class="st10" width="1.3" height="37.7"/>
		<g class="st18">
			<rect x="307.8" y="517.3" class="st4" width="1.3" height="37.7"/>
		</g>
		<rect x="323.1" y="517.3" class="st10" width="2.6" height="37.7"/>
		<g class="st17">
			<rect x="323.1" y="517.3" class="st4" width="2.6" height="37.7"/>
		</g>
		<rect x="325.7" y="517.3" class="st10" width="1.3" height="37.7"/>
		<g class="st18">
			<rect x="325.7" y="517.3" class="st4" width="1.3" height="37.7"/>
		</g>
		<rect x="340.9" y="517.3" class="st10" width="2.6" height="37.7"/>
		<g class="st17">
			<rect x="340.9" y="517.3" class="st4" width="2.6" height="37.7"/>
		</g>
		<rect x="343.5" y="517.3" class="st10" width="1.3" height="37.7"/>
		<g class="st18">
			<rect x="343.5" y="517.3" class="st4" width="1.3" height="37.7"/>
		</g>
		<g class="st15">
			<rect x="254.5" y="511.4" class="st10" width="2.2" height="1.2"/>
			<rect x="253.2" y="512.9" class="st10" width="2.2" height="1.2"/>
			<rect x="255.8" y="512.9" class="st10" width="2.3" height="1.2"/>
			<rect x="304.1" y="485.9" class="st10" width="2.2" height="1.2"/>
			<rect x="332.2" y="517.8" class="st10" width="2.2" height="1.2"/>
			<rect x="331" y="519.3" class="st10" width="2.2" height="1.2"/>
			<rect x="333.5" y="519.3" class="st10" width="2.2" height="1.2"/>
			<rect x="283.5" y="549.1" class="st10" width="2.2" height="1.2"/>
			<rect x="272.2" y="497.7" class="st10" width="2.2" height="1.2"/>
			<rect x="315.7" y="532.2" class="st10" width="2.2" height="1.2"/>
			<rect x="295.6" y="521.5" class="st10" width="2.2" height="1.2"/>
			<rect x="296.8" y="523" class="st10" width="2.2" height="1.2"/>
			<rect x="274.2" y="536.9" class="st10" width="2.2" height="1.2"/>
			<rect x="275.5" y="535.4" class="st10" width="2.2" height="1.2"/>
			<rect x="337.3" y="551.2" class="st10" width="2.2" height="1.2"/>
			<rect x="338.5" y="549.7" class="st10" width="2.2" height="1.2"/>
		</g>
		<polygon class="st9" points="292.3,488 291.2,489.1 291.2,488 		"/>
		<rect x="273.5" y="488" class="st7" width="14" height="20.4"/>
		<polygon class="st9" points="287.4,488 273.5,502.1 273.5,500 285.3,488 		"/>
		<polygon class="st9" points="273.5,506 287.4,491.9 287.4,492.9 273.5,507 		"/>
		<polygon class="st9" points="275.5,488 273.5,490.1 273.5,489.1 274.5,488 		"/>
		<rect x="326.8" y="488" class="st7" width="14" height="20.4"/>
		<polygon class="st9" points="332,488 326.8,493.3 326.8,489.2 328,488 		"/>
		<polygon class="st9" points="340.8,491.4 340.8,493.4 326.8,507.5 326.8,505.5 		"/>
		<polygon class="st9" points="340.8,500.2 340.8,501.3 333.7,508.4 332.6,508.4 		"/>
		<rect x="255.6" y="488" class="st7" width="14" height="20.4"/>
		<polygon class="st9" points="260.9,488 255.6,493.3 255.6,489.2 256.8,488 		"/>
		<polygon class="st9" points="269.6,491.4 269.6,493.4 255.6,507.5 255.6,505.5 		"/>
		<polygon class="st9" points="269.6,500.2 269.6,501.3 262.5,508.4 261.5,508.4 		"/>
		<rect x="291.2" y="488" class="st7" width="14" height="20.4"/>
		<polygon class="st9" points="293.6,508.4 305.2,496.8 305.2,500.9 297.7,508.4 		"/>
		<polygon class="st9" points="291.2,506.6 305.2,492.5 305.2,493.5 291.2,507.6 		"/>
		<rect x="309" y="488" class="st7" width="14" height="20.4"/>
		<polygon class="st9" points="309,507.1 323,493.1 323,497.2 311.8,508.4 309,508.4 		"/>
		<polygon class="st9" points="318,488 309,497 309,492.9 313.9,488 		"/>
		<polygon class="st9" points="310.7,488 309,489.7 309,488.6 309.6,488 		"/>
		<polygon class="st10" points="375.6,555 346.9,555 346.9,479.6 375.6,465.5 		"/>
		<polygon class="st12" points="375.6,555 346.9,555 346.9,479.6 375.6,465.5 		"/>
		<polygon class="st10" points="346.9,479.6 346.9,482 375.6,471.8 375.6,465.5 		"/>
		<polygon class="st10" points="404.4,555 375.6,555 375.6,479.6 404.4,465.5 		"/>
		<polygon class="st16" points="404.4,555 375.6,555 375.6,479.6 404.4,465.5 		"/>
		<polygon class="st10" points="375.6,479.6 375.6,482 404.4,471.8 404.4,465.5 		"/>
		<polygon class="st10" points="433.1,555 404.4,555 404.4,479.6 433.1,465.5 		"/>
		<polygon class="st12" points="433.1,555 404.4,555 404.4,479.6 433.1,465.5 		"/>
		<polygon class="st10" points="404.4,479.6 404.4,482 433.1,471.8 433.1,465.5 		"/>
		<path class="st10" d="M360.1,555H357v-58.5c0.1-0.5-0.3-0.9-0.7-1c0,0,0,0,0,0h-2v-4h2c2.2,0,3.9,2.2,3.9,4.9L360.1,555z"/>
		<path class="st11" d="M360.1,555H357v-58.5c0.1-0.5-0.3-0.9-0.7-1c0,0,0,0,0,0h-2v-4h2c2.2,0,3.9,2.2,3.9,4.9L360.1,555z"/>
		<g class="st19">
			<path class="st20" d="M355.6,495.5c0-0.7,0-1.3,0-2s0-1.3,0-2c0,0.7,0,1.3,0.1,2S355.6,494.8,355.6,495.5z"/>
			<path class="st20" d="M357,499.1c0.5-0.1,1.1-0.1,1.6-0.1s1.1,0,1.6,0.1c-0.5,0.1-1.1,0.1-1.6,0.1S357.5,499.2,357,499.1z"/>
			<path class="st20" d="M357,501c0.5-0.1,1.1-0.1,1.6-0.1s1.1,0,1.6,0.1c-0.5,0.1-1.1,0.1-1.6,0.1S357.5,501.1,357,501z"/>
			<path class="st20" d="M357,502.9c0.5,0,1.1-0.1,1.6-0.1s1.1,0,1.6,0.1c-0.5,0.1-1.1,0.1-1.6,0.1S357.5,503,357,502.9z"/>
			<path class="st20" d="M357,504.9c0.5-0.1,1.1-0.1,1.6-0.1s1.1,0,1.6,0.1c-0.5,0-1.1,0.1-1.6,0.1S357.5,504.9,357,504.9z"/>
			<path class="st20" d="M357,506.8c0.5-0.1,1.1-0.1,1.6-0.1s1.1,0,1.6,0.1c-0.5,0.1-1.1,0.1-1.6,0.1S357.5,506.9,357,506.8z"/>
			<path class="st20" d="M357,508.7c0.5,0,1.1-0.1,1.6-0.1s1.1,0,1.6,0.1c-0.5,0.1-1.1,0.1-1.6,0.1S357.5,508.8,357,508.7z"/>
			<path class="st20" d="M357,510.6c1.1-0.1,2.1-0.1,3.2,0c-0.5,0-1.1,0.1-1.6,0.1S357.5,510.7,357,510.6z"/>
			<path class="st20" d="M357,512.6c0.5-0.1,1.1-0.1,1.6-0.1s1.1,0,1.6,0.1c-0.5,0.1-1.1,0.1-1.6,0.1S357.5,512.6,357,512.6z"/>
			<path class="st20" d="M357,514.5c0.5-0.1,1.1-0.1,1.6-0.1s1.1,0,1.6,0.1c-0.5,0.1-1.1,0.1-1.6,0.1S357.5,514.5,357,514.5z"/>
			<path class="st20" d="M357,516.4c0.5,0,1.1-0.1,1.6-0.1s1.1,0,1.6,0.1c-0.5,0.1-1.1,0.1-1.6,0.1S357.5,516.5,357,516.4z"/>
			<path class="st20" d="M357,518.3c0.5-0.1,1.1-0.1,1.6-0.1s1.1,0,1.6,0.1c-0.5,0-1.1,0.1-1.6,0.1S357.5,518.4,357,518.3z"/>
			<path class="st20" d="M357,520.2c0.5-0.1,1.1-0.1,1.6-0.1s1.1,0,1.6,0.1c-0.5,0.1-1.1,0.1-1.6,0.1S357.5,520.3,357,520.2z"/>
			<path class="st20" d="M357,522.2c0.5,0,1.1-0.1,1.6-0.1s1.1,0,1.6,0.1c-0.5,0.1-1.1,0.1-1.6,0.1S357.5,522.2,357,522.2z"/>
			<path class="st20" d="M357,524.1c1.1-0.1,2.1-0.1,3.2,0c-0.5,0-1.1,0.1-1.6,0.1S357.5,524.2,357,524.1z"/>
			<path class="st20" d="M357,526c0.5-0.1,1.1-0.1,1.6-0.1s1.1,0,1.6,0.1c-0.5,0-1.1,0.1-1.6,0.1S357.5,526.1,357,526z"/>
			<path class="st20" d="M357,527.9c0.5-0.1,1.1-0.1,1.6-0.1s1.1,0,1.6,0.1c-0.5,0.1-1.1,0.1-1.6,0.1S357.5,528,357,527.9z"/>
			<path class="st20" d="M357,529.9c0.5,0,1.1-0.1,1.6-0.1s1.1,0,1.6,0.1c-0.5,0.1-1.1,0.1-1.6,0.1S357.5,529.9,357,529.9z"/>
			<path class="st20" d="M357,531.8c0.5-0.1,1.1-0.1,1.6-0.1s1.1,0,1.6,0.1c-0.5,0-1.1,0.1-1.6,0.1S357.5,531.8,357,531.8z"/>
			<path class="st20" d="M357,533.7c0.5-0.1,1.1-0.1,1.6-0.1s1.1,0,1.6,0.1c-0.5,0.1-1.1,0.1-1.6,0.1S357.5,533.8,357,533.7z"/>
			<path class="st20" d="M357,535.6c0.5,0,1.1-0.1,1.6-0.1s1.1,0,1.6,0.1c-0.5,0.1-1.1,0.1-1.6,0.1S357.5,535.7,357,535.6z"/>
			<path class="st20" d="M357,537.5c0.5,0,1.1-0.1,1.6-0.1s1.1,0,1.6,0.1C359.1,537.6,358.1,537.6,357,537.5z"/>
			<path class="st20" d="M357,539.5c0.5-0.1,1.1-0.1,1.6-0.1s1.1,0,1.6,0.1c-0.5,0-1.1,0.1-1.6,0.1S357.5,539.5,357,539.5z"/>
			<path class="st20" d="M357,541.4c0.5-0.1,1.1-0.1,1.6-0.1s1.1,0,1.6,0.1c-0.5,0.1-1.1,0.1-1.6,0.1S357.5,541.5,357,541.4z"/>
			<path class="st20" d="M357,543.3c0.5,0,1.1-0.1,1.6-0.1s1.1,0,1.6,0.1c-0.5,0.1-1.1,0.1-1.6,0.1S357.5,543.4,357,543.3z"/>
			<path class="st20" d="M357,545.2c0.5-0.1,1.1-0.1,1.6-0.1s1.1,0,1.6,0.1c-0.5,0-1.1,0.1-1.6,0.1S357.5,545.3,357,545.2z"/>
			<path class="st20" d="M357,547.2c0.5-0.1,1.1-0.1,1.6-0.1s1.1,0,1.6,0.1c-0.5,0.1-1.1,0.1-1.6,0.1S357.5,547.2,357,547.2z"/>
			<path class="st20" d="M357,549.1c0.5-0.1,1.1-0.1,1.6-0.1s1.1,0,1.6,0.1c-0.5,0.1-1.1,0.1-1.6,0.1S357.5,549.2,357,549.1z"/>
			<path class="st20" d="M357,551c0.5,0,1.1-0.1,1.6-0.1s1.1,0,1.6,0.1c-0.5,0.1-1.1,0.1-1.6,0.1S357.5,551.1,357,551z"/>
			<path class="st20" d="M357,552.9c0.5-0.1,1.1-0.1,1.6-0.1s1.1,0,1.6,0.1c-0.5,0-1.1,0.1-1.6,0.1S357.5,553,357,552.9z"/>
			<path class="st20" d="M356.6,495.7c0.2-0.6,0.5-1.1,0.8-1.7s0.6-1.1,0.9-1.6c-0.2,0.6-0.5,1.1-0.8,1.7S356.9,495.1,356.6,495.7z"
				/>
			<path class="st20" d="M357,496.3c0.5-0.3,1-0.6,1.5-0.8s1-0.5,1.5-0.7c-0.5,0.3-1,0.6-1.5,0.8S357.5,496.1,357,496.3z"/>
			<path class="st20" d="M357,497.1c0.5,0,1.1,0,1.6,0c0.5,0,1.1,0,1.6,0.1c-0.5,0-1.1,0-1.6,0C358,497.2,357.5,497.2,357,497.1z"/>
		</g>
		<path class="st10" d="M368.2,555h-3.2v-58.5c0.1-0.5-0.3-0.9-0.7-1c0,0,0,0,0,0h-2v-4h2c2.2,0,3.9,2.2,3.9,4.9V555z"/>
		<path class="st11" d="M368.2,555h-3.2v-58.5c0.1-0.5-0.3-0.9-0.7-1c0,0,0,0,0,0h-2v-4h2c2.2,0,3.9,2.2,3.9,4.9V555z"/>
		<g class="st19">
			<path class="st20" d="M363.7,495.5c0-0.7,0-1.3,0-2s0-1.3,0-2c0,0.7,0,1.3,0.1,2S363.7,494.8,363.7,495.5z"/>
			<path class="st20" d="M365.1,499.1c0.5-0.1,1.1-0.1,1.6-0.1s1.1,0,1.6,0.1c-0.5,0.1-1.1,0.1-1.6,0.1S365.6,499.2,365.1,499.1z"/>
			<path class="st20" d="M365.1,501c0.5-0.1,1.1-0.1,1.6-0.1s1.1,0,1.6,0.1c-0.5,0.1-1.1,0.1-1.6,0.1S365.6,501.1,365.1,501z"/>
			<path class="st20" d="M365.1,502.9c0.5,0,1.1-0.1,1.6-0.1s1.1,0,1.6,0.1c-0.5,0.1-1.1,0.1-1.6,0.1S365.6,503,365.1,502.9z"/>
			<path class="st20" d="M365.1,504.9c0.5-0.1,1.1-0.1,1.6-0.1s1.1,0,1.6,0.1c-0.5,0-1.1,0.1-1.6,0.1S365.6,504.9,365.1,504.9z"/>
			<path class="st20" d="M365.1,506.8c0.5-0.1,1.1-0.1,1.6-0.1s1.1,0,1.6,0.1c-0.5,0.1-1.1,0.1-1.6,0.1S365.6,506.9,365.1,506.8z"/>
			<path class="st20" d="M365.1,508.7c0.5,0,1.1-0.1,1.6-0.1s1.1,0,1.6,0.1c-0.5,0.1-1.1,0.1-1.6,0.1S365.6,508.8,365.1,508.7z"/>
			<path class="st20" d="M365.1,510.6c1.1-0.1,2.1-0.1,3.2,0c-0.5,0-1.1,0.1-1.6,0.1S365.6,510.7,365.1,510.6z"/>
			<path class="st20" d="M365.1,512.6c0.5-0.1,1.1-0.1,1.6-0.1s1.1,0,1.6,0.1c-0.5,0.1-1.1,0.1-1.6,0.1S365.6,512.6,365.1,512.6z"/>
			<path class="st20" d="M365.1,514.5c0.5-0.1,1.1-0.1,1.6-0.1s1.1,0,1.6,0.1c-0.5,0.1-1.1,0.1-1.6,0.1S365.6,514.5,365.1,514.5z"/>
			<path class="st20" d="M365.1,516.4c0.5,0,1.1-0.1,1.6-0.1s1.1,0,1.6,0.1c-0.5,0.1-1.1,0.1-1.6,0.1S365.6,516.5,365.1,516.4z"/>
			<path class="st20" d="M365.1,518.3c0.5-0.1,1.1-0.1,1.6-0.1s1.1,0,1.6,0.1c-0.5,0-1.1,0.1-1.6,0.1S365.6,518.4,365.1,518.3z"/>
			<path class="st20" d="M365.1,520.2c0.5-0.1,1.1-0.1,1.6-0.1s1.1,0,1.6,0.1c-0.5,0.1-1.1,0.1-1.6,0.1S365.6,520.3,365.1,520.2z"/>
			<path class="st20" d="M365.1,522.2c0.5,0,1.1-0.1,1.6-0.1s1.1,0,1.6,0.1c-0.5,0.1-1.1,0.1-1.6,0.1S365.6,522.2,365.1,522.2z"/>
			<path class="st20" d="M365.1,524.1c1.1-0.1,2.1-0.1,3.2,0c-0.5,0-1.1,0.1-1.6,0.1S365.6,524.2,365.1,524.1z"/>
			<path class="st20" d="M365.1,526c0.5-0.1,1.1-0.1,1.6-0.1s1.1,0,1.6,0.1c-0.5,0-1.1,0.1-1.6,0.1S365.6,526.1,365.1,526z"/>
			<path class="st20" d="M365.1,527.9c0.5-0.1,1.1-0.1,1.6-0.1s1.1,0,1.6,0.1c-0.5,0.1-1.1,0.1-1.6,0.1S365.6,528,365.1,527.9z"/>
			<path class="st20" d="M365.1,529.9c0.5,0,1.1-0.1,1.6-0.1s1.1,0,1.6,0.1c-0.5,0.1-1.1,0.1-1.6,0.1S365.6,529.9,365.1,529.9z"/>
			<path class="st20" d="M365.1,531.8c0.5-0.1,1.1-0.1,1.6-0.1s1.1,0,1.6,0.1c-0.5,0-1.1,0.1-1.6,0.1S365.6,531.8,365.1,531.8z"/>
			<path class="st20" d="M365.1,533.7c0.5-0.1,1.1-0.1,1.6-0.1s1.1,0,1.6,0.1c-0.5,0.1-1.1,0.1-1.6,0.1S365.6,533.8,365.1,533.7z"/>
			<path class="st20" d="M365.1,535.6c0.5,0,1.1-0.1,1.6-0.1s1.1,0,1.6,0.1c-0.5,0.1-1.1,0.1-1.6,0.1S365.6,535.7,365.1,535.6z"/>
			<path class="st20" d="M365.1,537.5c0.5,0,1.1-0.1,1.6-0.1s1.1,0,1.6,0.1C367.2,537.6,366.1,537.6,365.1,537.5z"/>
			<path class="st20" d="M365.1,539.5c0.5-0.1,1.1-0.1,1.6-0.1s1.1,0,1.6,0.1c-0.5,0-1.1,0.1-1.6,0.1S365.6,539.5,365.1,539.5z"/>
			<path class="st20" d="M365.1,541.4c0.5-0.1,1.1-0.1,1.6-0.1s1.1,0,1.6,0.1c-0.5,0.1-1.1,0.1-1.6,0.1S365.6,541.5,365.1,541.4z"/>
			<path class="st20" d="M365.1,543.3c0.5,0,1.1-0.1,1.6-0.1s1.1,0,1.6,0.1c-0.5,0.1-1.1,0.1-1.6,0.1S365.6,543.4,365.1,543.3z"/>
			<path class="st20" d="M365.1,545.2c0.5-0.1,1.1-0.1,1.6-0.1s1.1,0,1.6,0.1c-0.5,0-1.1,0.1-1.6,0.1S365.6,545.3,365.1,545.2z"/>
			<path class="st20" d="M365.1,547.2c0.5-0.1,1.1-0.1,1.6-0.1s1.1,0,1.6,0.1c-0.5,0.1-1.1,0.1-1.6,0.1S365.6,547.2,365.1,547.2z"/>
			<path class="st20" d="M365.1,549.1c0.5-0.1,1.1-0.1,1.6-0.1s1.1,0,1.6,0.1c-0.5,0.1-1.1,0.1-1.6,0.1S365.6,549.2,365.1,549.1z"/>
			<path class="st20" d="M365.1,551c0.5,0,1.1-0.1,1.6-0.1s1.1,0,1.6,0.1c-0.5,0.1-1.1,0.1-1.6,0.1S365.6,551.1,365.1,551z"/>
			<path class="st20" d="M365.1,552.9c0.5-0.1,1.1-0.1,1.6-0.1s1.1,0,1.6,0.1c-0.5,0-1.1,0.1-1.6,0.1S365.6,553,365.1,552.9z"/>
			<path class="st20" d="M364.7,495.7c0.2-0.6,0.5-1.1,0.8-1.7s0.6-1.1,0.9-1.6c-0.2,0.6-0.5,1.1-0.8,1.7S365,495.1,364.7,495.7z"/>
			<path class="st20" d="M365,496.3c0.5-0.3,1-0.6,1.5-0.8s1-0.5,1.5-0.7c-0.5,0.3-1,0.6-1.5,0.8S365.5,496.1,365,496.3z"/>
			<path class="st20" d="M365.1,497.1c0.5,0,1.1,0,1.6,0c0.5,0,1.1,0,1.6,0.1c-0.5,0-1.1,0-1.6,0
				C366.1,497.2,365.6,497.2,365.1,497.1z"/>
		</g>
		<polygon class="st10" points="250.5,479.6 279.4,465.5 375.6,465.5 346.9,479.6 		"/>
		<polygon class="st11" points="250.5,479.6 279.4,465.5 375.6,465.5 346.9,479.6 		"/>
		<polygon class="st10" points="283.8,471.5 278.8,471.5 288.6,466.8 293.6,466.8 		"/>
		<polygon class="st10" points="271,477.6 266,477.6 275.8,472.9 280.8,472.9 		"/>
		<polygon class="st10" points="290.7,471.5 285.6,471.5 295.4,466.8 300.4,466.8 		"/>
		<polygon class="st10" points="277.8,477.6 272.8,477.6 282.6,472.9 287.6,472.9 		"/>
		<polygon class="st10" points="297.5,471.5 292.4,471.5 302.2,466.8 307.3,466.8 		"/>
		<polygon class="st10" points="284.6,477.6 279.6,477.6 289.4,472.9 294.4,472.9 		"/>
		<polygon class="st10" points="304.3,471.5 299.3,471.5 309,466.8 314.1,466.8 		"/>
		<polygon class="st10" points="291.5,477.6 286.4,477.6 296.2,472.9 301.3,472.9 		"/>
		<polygon class="st10" points="311.1,471.5 306.1,471.5 315.9,466.8 320.9,466.8 		"/>
		<polygon class="st10" points="298.3,477.6 293.3,477.6 303,472.9 308.1,472.9 		"/>
		<polygon class="st10" points="318,471.5 312.9,471.5 322.7,466.8 327.7,466.8 		"/>
		<polygon class="st10" points="305.1,477.6 300.1,477.6 309.9,472.9 314.9,472.9 		"/>
		<polygon class="st10" points="324.8,471.5 319.7,471.5 329.5,466.8 334.6,466.8 		"/>
		<polygon class="st10" points="312,477.6 306.9,477.6 316.7,472.9 321.7,472.9 		"/>
		<polygon class="st10" points="331.6,471.5 326.6,471.5 336.4,466.8 341.4,466.8 		"/>
		<polygon class="st10" points="318.8,477.6 313.7,477.6 323.5,472.9 328.5,472.9 		"/>
		<polygon class="st10" points="338.4,471.5 333.4,471.5 343.2,466.8 348.2,466.8 		"/>
		<polygon class="st10" points="325.6,477.6 320.6,477.6 330.3,472.9 335.4,472.9 		"/>
		<polygon class="st10" points="345.2,471.5 340.2,471.5 350,466.8 355,466.8 		"/>
		<polygon class="st10" points="332.4,477.6 327.4,477.6 337.2,472.9 342.2,472.9 		"/>
		<g class="st15">
			<rect x="351.6" y="493.4" class="st10" width="2.2" height="1.2"/>
			<rect x="350.4" y="494.9" class="st10" width="2.2" height="1.2"/>
			<rect x="352.9" y="494.9" class="st10" width="2.2" height="1.2"/>
			<rect x="428.8" y="481.5" class="st10" width="2.2" height="1.2"/>
			<rect x="394.3" y="521.4" class="st10" width="2.2" height="1.2"/>
			<rect x="393" y="522.9" class="st10" width="2.2" height="1.2"/>
			<rect x="395.5" y="522.9" class="st10" width="2.2" height="1.2"/>
			<rect x="380.6" y="505.7" class="st10" width="2.2" height="1.2"/>
			<rect x="369.4" y="479.6" class="st10" width="2.2" height="1.2"/>
			<rect x="418.7" y="517.6" class="st10" width="2.2" height="1.2"/>
			<rect x="353.4" y="535.3" class="st10" width="2.2" height="1.2"/>
			<rect x="354.6" y="536.8" class="st10" width="2.2" height="1.2"/>
			<rect x="395.4" y="485" class="st10" width="2.2" height="1.2"/>
			<rect x="396.7" y="483.5" class="st10" width="2.2" height="1.2"/>
			<rect x="418.7" y="546.4" class="st10" width="2.2" height="1.2"/>
			<rect x="420" y="544.9" class="st10" width="2.2" height="1.2"/>
		</g>
		<polygon class="st10" points="274.2,512.5 244.8,525.3 244.8,555 274.2,555 		"/>
		<polygon class="st12" points="274.2,512.5 244.8,525.3 244.8,555 274.2,555 		"/>
		<rect x="261" y="532.8" class="st7" width="9.6" height="10.3"/>
		<polygon class="st9" points="270.6,532.8 270.6,532.9 261.1,543.1 261,543.1 261,540.7 268.4,532.8 		"/>
		<polygon class="st9" points="270.6,537.7 270.6,538.9 266.7,543.1 265.6,543.1 		"/>
		<rect x="248.4" y="532.8" class="st7" width="9.6" height="10.3"/>
		<polygon class="st9" points="258,533 258,534.3 249.8,543.1 248.6,543.1 		"/>
		<g class="st15">
			<rect x="249.8" y="545.8" class="st10" width="2.2" height="1.2"/>
			<rect x="269.8" y="552.1" class="st10" width="2.2" height="1.2"/>
			<rect x="264.6" y="525.2" class="st10" width="2.2" height="1.2"/>
			<rect x="265.8" y="523.7" class="st10" width="2.2" height="1.2"/>
		</g>
		<rect x="220.9" y="525.3" class="st10" width="23.9" height="29.7"/>
		<rect x="220.9" y="525.3" class="st16" width="23.9" height="29.7"/>
		<g class="st15">
			<rect x="237.4" y="547.1" class="st10" width="2.2" height="1.2"/>
			<rect x="236.1" y="548.6" class="st10" width="2.2" height="1.2"/>
			<rect x="238.6" y="548.6" class="st10" width="2.2" height="1.2"/>
			<rect x="223.7" y="531.3" class="st10" width="2.2" height="1.2"/>
		</g>
		<rect x="228" y="532.8" class="st7" width="9.6" height="10.3"/>
		<polygon class="st9" points="237.7,534.9 237.7,539.9 234.7,543.1 230,543.1 		"/>
		<polygon class="st10" points="274.2,512.5 250.3,512.5 220.9,525.3 244.8,525.3 		"/>
		<polyline class="st10" points="463.4,504.8 466.2,504.8 450.2,488.3 387.7,488.3 371.5,504.8 463.4,504.8 		"/>
		<polygon class="st10" points="437,555 463.2,555 463.2,504.8 450.1,491.4 437,504.8 		"/>
		<g class="st18">
			<polygon class="st4" points="437,555 463.2,555 463.2,504.8 450.1,491.4 437,504.8 			"/>
		</g>
		<g class="st15">
			<rect x="457.2" y="546.9" class="st10" width="2.2" height="1.2"/>
			<rect x="455.9" y="548.4" class="st10" width="2.2" height="1.2"/>
			<rect x="458.4" y="548.4" class="st10" width="2.2" height="1.2"/>
			<rect x="441" y="530.3" class="st10" width="2.2" height="1.2"/>
			<rect x="456.3" y="508.3" class="st10" width="2.2" height="1.2"/>
			<rect x="457.6" y="506.8" class="st10" width="2.2" height="1.2"/>
		</g>
		<rect x="374.4" y="504.8" class="st10" width="62.5" height="50.1"/>
		<g class="st21">
			<rect x="374.4" y="504.8" class="st4" width="62.5" height="50.1"/>
		</g>
		<g class="st15">
			<rect x="431.1" y="509.4" class="st10" width="2.2" height="1.2"/>
			<rect x="432.4" y="507.9" class="st10" width="2.2" height="1.2"/>
			<rect x="429.9" y="507.9" class="st10" width="2.2" height="1.2"/>
			<rect x="397.5" y="507.9" class="st10" width="2.2" height="1.2"/>
			<rect x="418.1" y="529.2" class="st10" width="2.2" height="1.2"/>
			<rect x="377.6" y="552.3" class="st10" width="2.2" height="1.2"/>
			<rect x="432" y="541.1" class="st10" width="2.2" height="1.2"/>
			<rect x="433.2" y="542.6" class="st10" width="2.2" height="1.2"/>
			<rect x="376.4" y="521.6" class="st10" width="2.2" height="1.2"/>
			<rect x="377.6" y="520.1" class="st10" width="2.2" height="1.2"/>
		</g>
		<rect x="380.5" y="531.8" class="st8" width="23.7" height="23.2"/>
		<rect x="380.5" y="531.8" class="st10" width="23.7" height="5.4"/>
		<rect x="380.5" y="532.2" class="st11" width="23.7" height="0.3"/>
		<rect x="380.5" y="533" class="st11" width="23.7" height="0.3"/>
		<rect x="380.5" y="533.9" class="st11" width="23.7" height="0.3"/>
		<rect x="380.5" y="534.8" class="st11" width="23.7" height="0.3"/>
		<rect x="380.5" y="535.6" class="st11" width="23.7" height="0.3"/>
		<rect x="380.5" y="536.5" class="st11" width="23.7" height="0.3"/>
		<rect x="407.1" y="531.8" class="st8" width="23.7" height="23.2"/>
		<rect x="407.1" y="531.8" class="st10" width="23.7" height="5.4"/>
		<rect x="407.1" y="532.2" class="st11" width="23.7" height="0.3"/>
		<rect x="407.1" y="533" class="st11" width="23.7" height="0.3"/>
		<rect x="407.1" y="533.9" class="st11" width="23.7" height="0.3"/>
		<rect x="407.1" y="534.8" class="st11" width="23.7" height="0.3"/>
		<rect x="407.1" y="535.6" class="st11" width="23.7" height="0.3"/>
		<rect x="407.1" y="536.5" class="st11" width="23.7" height="0.3"/>
		<polygon class="st9" points="407.9,511.2 407.2,511.9 407.2,511.2 		"/>
		<rect x="393.9" y="511.2" class="st7" width="10.4" height="15.3"/>
		<polygon class="st9" points="404.3,511.2 393.9,521.7 393.9,520.1 402.7,511.2 		"/>
		<polygon class="st9" points="393.9,524.6 404.3,514 404.3,514.8 393.9,525.3 		"/>
		<polygon class="st9" points="395.4,511.2 393.9,512.7 393.9,512 394.6,511.2 		"/>
		<rect x="380.5" y="511.2" class="st7" width="10.4" height="15.3"/>
		<polygon class="st9" points="384.5,511.2 380.5,515.1 380.5,512 381.4,511.2 		"/>
		<polygon class="st9" points="391,513.7 391,515.2 380.5,525.7 380.5,524.2 		"/>
		<polygon class="st9" points="391,520.3 391,521.1 385.7,526.4 384.9,526.4 		"/>
		<rect x="407.2" y="511.2" class="st7" width="10.4" height="15.3"/>
		<polygon class="st9" points="409,526.4 417.6,517.7 417.6,520.8 412,526.4 		"/>
		<polygon class="st9" points="407.2,525 417.6,514.5 417.6,515.3 407.2,525.8 		"/>
		<rect x="420.5" y="511.2" class="st7" width="10.4" height="15.3"/>
		<polygon class="st9" points="420.5,525.5 430.9,514.9 430.9,518 422.5,526.4 420.5,526.4 		"/>
		<polygon class="st9" points="427.1,511.2 420.5,517.9 420.5,514.8 424.1,511.2 		"/>
		<polygon class="st9" points="421.7,511.2 420.5,512.4 420.5,511.6 420.9,511.2 		"/>
		<ellipse class="st7" cx="450.1" cy="504.8" rx="3.1" ry="3.8"/>
		<rect x="446" y="531.2" class="st8" width="8.2" height="23.8"/>
		<rect x="454.2" y="531.2" class="st10" width="1" height="23.8"/>
		<polygon class="st8" points="75.7,554.4 67,554.4 63.8,515.2 74,515.2 		"/>
		<polygon class="st8" points="151.2,554.4 160,554.4 163.2,515.2 152.9,515.2 		"/>
		<path class="st22" d="M169.2,520.2L57,522.8l-3.4-72.4c-0.3-6.9,5-12.7,11.9-13c0.2,0,0.4,0,0.6,0h95.6c6.9,0,12.4,5.6,12.4,12.5
			c0,0.3,0,0.6,0,0.8L169.2,520.2z"/>
		<path class="st8" d="M174.9,450.1h-0.3h-0.9h-3.5l-13,0c-11,0-26.1-0.1-42.9,0.3c-16.8,0.6-31.9,0.5-42.9,0.3
			c-5.5-0.1-9.9-0.2-13-0.3l-3.5-0.1h-0.9h-0.3h1.2h3.5l13,0.1c11,0.1,26.1,0.1,42.9-0.4c16.8-0.4,31.9-0.2,42.9-0.1l13,0.1h3.5h0.9
			L174.9,450.1z"/>
		<path class="st8" d="M94.5,438.5c-2.5,0.4-5,1.1-7.3,2.2c-2.2,1.2-4.2,2.8-6,4.6c0.4-0.7,0.8-1.3,1.4-1.8c2.6-2.7,6-4.4,9.7-4.9
			C93,438.4,93.8,438.4,94.5,438.5z"/>
		<path class="st23" d="M140.6,306.7l13.7,25l20.1-11.2l9.8,3.2c0,0-24.6,26.7-28.6,28.1s-11.6,1.7-15.9-3.8
			c-3.9-4.9-15.4-30.8-15.4-30.8L140.6,306.7z"/>
		<path class="st8" d="M197.1,290.4c-0.4-0.4-0.9-0.7-1.5-0.6l-9.6,1.3c-0.8,0.1-1.5,0.6-2,1.3l-19.8,30.5l1.5,0.9l10.6-0.3
			l21.1-32.7L197.1,290.4z"/>
		<path class="st4" d="M190.3,294.3c0.3,0.2,0.6,0.1,0.8-0.2c0.2-0.2,0.3-0.6,0.1-0.8c-0.3-0.2-0.6-0.1-0.8,0.2
			C190.2,293.7,190.1,294.1,190.3,294.3z"/>
		<path class="st9" d="M197.4,290.8c-0.6,0.2-1.2,0.3-1.8,0.4l-5.1,0.8l-3.5,0.5c-0.6,0-1.1,0.4-1.5,0.9l-1.1,1.7l-5.1,7.8
			c-3.6,5.5-6.9,10.5-9.3,14.1l-2.9,4.2c-0.3,0.5-0.7,1-1.1,1.5c0.3-0.6,0.6-1.1,0.9-1.6l2.7-4.4c2.3-3.6,5.6-8.7,9.2-14.2l5.1-7.8
			l1.2-1.7c0.4-0.6,1.1-1,1.8-1l3.5-0.5l5.1-0.6C196.1,290.8,196.8,290.8,197.4,290.8z"/>
		<path class="st23" d="M186.8,301.6c0,0-0.9-0.1-1.3,2.2s-2,9-2,9l-4.5-2.4l-5.6,0.7c0,0-1.2,1.1-0.3,1.7s4.4,1.2,4.4,1.2l2.6,3.7
			l-7.5-3.6c0,0-2.5,0.6-1.8,2.2s5.8,6.3,5.8,6.3l-3.7-0.3l-4.4-2.7c0,0-1.4,0.1-0.9,1.2s5.1,5.4,5.1,5.4l5.6,2.7
			c0,0,3.1-0.2,3.4-1.1c0.2-0.7,0.3-1.4,0.4-2.2c0,0,1.6-0.4,1.9-1.2c0.2-0.7,0.2-1.3,0.1-2c0,0,2.6,0.5,2.9-1
			c0.2-1.8,0.2-3.6-0.2-5.3c-0.3-1.1,1.1-11.3,1-11.6S188.4,301,186.8,301.6z"/>
		<path class="st24" d="M182,328c-0.4,0.3-1,0.4-1.5,0.5c-2.5,0.4-5-0.2-7.1-1.7c-0.8-0.6-1.1-1-1.1-1.1c1.4,0.9,3,1.5,4.6,2
			C179.7,328.4,181.9,327.8,182,328z"/>
		<path class="st24" d="M180.6,326c-0.1,0.1-1.1-0.4-2.1-1.3s-1.8-1.7-1.7-1.9s1,0.6,2,1.4S180.7,325.8,180.6,326z"/>
		<path class="st24" d="M183.6,321.1c-0.1,0.1-1.1-0.4-2.1-1.3s-1.6-1.9-1.5-2s0.9,0.6,1.9,1.5S183.7,321,183.6,321.1z"/>
		<path class="st24" d="M186.7,317.2c-0.1,0.1-0.7-1-1.6-2.1s-1.8-2-1.6-2.1s1.2,0.5,2.1,1.8C186.2,315.4,186.6,316.3,186.7,317.2z"
			/>
		<path class="st8" d="M190.5,497.7c0.1-0.3,0.1-0.6,0-0.9c-0.1-0.8-0.5-1.6-0.9-2.4c-0.2-0.3-0.3-0.5-0.6-0.7
			c-0.3-0.2-0.6-0.3-1-0.2c-0.2,0.1-0.4,0.2-0.5,0.5c-0.1,0.2-0.1,0.4,0,0.6c0.1,0.3,0.3,0.6,0.5,0.9c0.4,0.6,0.7,1.2,1.1,1.9
			c0.3,0.4,0.8,0.6,1.2,0.6c0.4-0.1,0.8-0.3,1.2-0.5c0.7-0.5,1.2-1,1.8-1.6c0.2-0.3,0.5-0.6,0.7-0.9c0.2-0.3,0.4-0.6,0.5-1
			c0.1-0.5-0.1-0.9-0.5-1.1c-0.4-0.1-0.8,0-1.1,0.2c-0.4,0.4-0.8,0.8-1.2,1.3c-0.5,0.7-0.9,1.4-1.1,2.2c-0.1,0.3-0.2,0.6-0.2,0.9
			c0.5-1,1-2,1.7-2.9c0.3-0.4,0.7-0.8,1.1-1.2c0.2-0.1,0.5-0.3,0.7-0.2c0.2,0.1,0.3,0.4,0.2,0.6c-0.1,0.3-0.3,0.6-0.5,0.8
			c-0.2,0.3-0.4,0.6-0.7,0.8c-0.5,0.6-1.1,1.1-1.7,1.5c-0.3,0.2-0.6,0.4-0.9,0.4c-0.3,0-0.6-0.1-0.8-0.4c-0.4-0.6-0.8-1.2-1.1-1.8
			c-0.2-0.3-0.3-0.5-0.5-0.8c-0.1-0.3,0-0.4,0.1-0.5c0.4-0.2,0.8,0.3,1.1,0.7C189.9,495.6,190.3,496.7,190.5,497.7z"/>
		<polygon class="st23" points="166.6,498.5 154.7,524.3 135.5,515.4 147.8,483.6 		"/>
		<path class="st9" d="M156.9,522.6l-6.9,13.2c0,0,17.8,18.4,16.1,22.5l-41.8-20l11.5-26.5L156.9,522.6z"/>
		<path class="st25" d="M138,527.8c-1-0.1-1.9,0.4-2.1,1.4c-0.2,0.9,0.4,1.9,1.4,2.1c1,0.2,2-0.5,2.2-1.5c0.1-1-0.7-1.9-1.6-2"/>
		<g class="st21">
			<path class="st4" d="M124.3,538.3l1.7-3.3l39.4,20.4c0,0,1.5,1.7,0.6,2.9L124.3,538.3z"/>
		</g>
		<path class="st8" d="M150.8,535.9c-0.1,0.2-1.2-0.2-2.5,0s-2.3,0.8-2.4,0.6s0.7-1.2,2.3-1.4S150.9,535.8,150.8,535.9z"/>
		<path class="st8" d="M154.3,539.8c0,0.2-1.1,0.1-2.2,0.7s-1.7,1.3-1.9,1.2s0.2-1.3,1.6-2S154.4,539.6,154.3,539.8z"/>
		<path class="st8" d="M154.3,546.3c-0.2,0,0-1.2,1.1-2.1s2.2-0.8,2.2-0.6s-0.9,0.5-1.7,1.2S154.5,546.3,154.3,546.3z"/>
		<path class="st8" d="M152.8,530.8c-0.2,0.2-1-0.6-2.2-1.1s-2.3-0.5-2.3-0.8s1.2-0.5,2.6,0S152.9,530.7,152.8,530.8z"/>
		<path class="st8" d="M160.9,519.1l31.3-78.4c0,0-0.7-13.4-3.2-17.6s-77.1-28.8-77.1-28.8s-19-4.6-31.7,0s-22.2,20.4-20.4,29.2
			s9.2,15.2,9.2,15.2l54.8,1.6l29.9,10.9L133.7,509L160.9,519.1z"/>
		<polygon class="st23" points="188.7,465.6 189.4,493.9 168.3,494.5 165.2,460.4 		"/>
		<path class="st9" d="M190.6,491.4l-0.4,14.9c0,0,24,8.6,24.4,13.1l-46.3,0.5l-1.4-28.9L190.6,491.4z"/>
		<path class="st25" d="M175.9,504.5c-0.9,0.3-1.5,1.2-1.3,2.2c0.3,0.9,1.2,1.5,2.1,1.3c1-0.3,1.6-1.3,1.4-2.3
			c-0.4-0.9-1.4-1.4-2.4-1.1"/>
		<g class="st21">
			<path class="st4" d="M168.3,519.9l0.1-3.8l44.4,1c0,0,2.1,0.9,1.9,2.3L168.3,519.9z"/>
		</g>
		<path class="st8" d="M191,506.1c0,0.2-1.1,0.3-2.2,1.1s-1.7,1.7-1.9,1.6s0.1-1.4,1.5-2.3S191.1,505.9,191,506.1z"/>
		<path class="st8" d="M195.9,508.1c0,0.2-0.9,0.6-1.7,1.6s-1,2-1.2,2s-0.4-1.3,0.6-2.5S195.9,507.8,195.9,508.1z"/>
		<path class="st8" d="M198.7,513.8c-0.2,0-0.5-1.1,0-2.3s1.6-1.8,1.7-1.6s-0.6,0.9-1,1.9S198.9,513.8,198.7,513.8z"/>
		<path class="st8" d="M190.6,500.6c-0.1,0.2-1.1-0.1-2.4,0s-2.3,0.5-2.4,0.3s0.8-1,2.3-1.1S190.7,500.5,190.6,500.6z"/>
		<path class="st8" d="M176.4,386.9c0,0,12.6-1,14,12.7s2.8,77.8,2.8,77.8l-29.6,2.5l-4.6-65.4l-47.1-20
			C111.9,394.4,167.9,385.1,176.4,386.9z"/>
		<path class="st8" d="M124.2,368.4c0,0,7.7,21.5,6.2,23.9s-21.2,12.3-21.2,12.3l-49.4,19c0,0-5.1-8.1-5.1-20.5S72,368.4,72,368.4
			H124.2z"/>
		<path class="st9" d="M109.6,393.2c0,0,0.1,0,0.2,0.1l0.7,0.3l2.7,1.2l10.3,4.5l35.5,15.3l-0.2-0.2c0.4,6.5,0.9,13.4,1.4,20.7
			c1.2,16.9,2.3,32.5,3.2,44.8v0.2h0.2l21.5-1.9l5.9-0.5l1.6-0.2c0.2,0,0.4,0,0.5-0.1c-0.2,0-0.4,0-0.5,0l-1.6,0.1l-5.9,0.4
			l-21.5,1.7l0.2,0.2c-0.9-12.3-1.9-27.9-3.1-44.8c-0.5-7.2-1-14.2-1.4-20.7v-0.2l-0.1-0.1l-35.5-15.1l-10.3-4.3l-2.8-1.1l-0.7-0.3
			L109.6,393.2z"/>
		<path class="st9" d="M70.3,395.4c0.5-0.1,0.9-0.2,1.4-0.4l3.7-1.2c4.1-1.4,8.2-2.4,12.4-3.1c4.2-0.7,8.5-0.6,12.7,0.2
			c3.2,0.7,5.1,1.6,5.1,1.5c-0.4-0.3-0.8-0.5-1.3-0.6c-1.2-0.5-2.5-0.9-3.7-1.2c-4.2-0.9-8.6-1-12.9-0.3c-4.3,0.7-8.4,1.8-12.5,3.3
			c-1.6,0.6-2.8,1-3.7,1.4C71.2,395,70.8,395.2,70.3,395.4z"/>
		<path class="st9" d="M77.3,384.1c1.4-0.1,2.9-0.1,4.3,0c1.3,0.1,2.9,0.3,4.7,0.5s3.7,0.5,5.7,0.8c3.4,0.5,6.7,1.8,9.7,3.6
			c1.2,0.8,2.3,1.7,3.4,2.7c-0.2-0.3-0.4-0.7-0.7-0.9c-0.7-0.8-1.5-1.5-2.4-2.1c-3-2-6.3-3.3-9.8-3.8c-2-0.4-4-0.6-5.7-0.8
			s-3.4-0.3-4.7-0.4c-1.1,0-2.1,0-3.2,0.1C78.1,383.8,77.7,383.9,77.3,384.1z"/>
		<path class="st8" d="M99.1,211.1c-5.7-1-10.7,1.2-15.5,4.4c-4.8,3.3-8.4,8-10.5,13.4c-2.3,5.7-2.6,12-1,17.9
			c1.7,5.9,5.7,10.9,11.1,13.8c7.4,3.8,16.8,2.4,23.5-2.6s10.4-13.3,10.7-21.6c0.3-5.7-1.2-11.4-4.3-16.3
			C109.9,215.4,104.9,212.1,99.1,211.1"/>
		<path class="st8" d="M83,230.5c0.8-2.2,0.5-4.6,0.8-6.9c0.7-5.1,4.8-9.1,9.5-11.1c4.4-1.8,9.8-1.4,15.1,0.3c3.7,1.1,7,3.3,9.5,6.2
			c3.2,4,4.3,9.3,2.9,14.3l-26-3.8c-2.4,2-4.9,4.1-7.9,5.2c-0.9,0.4-1.8,0.5-2.7,0.4c-0.9-0.1-1.7-0.8-2-1.7
			C82,232.4,82.6,231.4,83,230.5z"/>
		<path class="st23" d="M109,219.9l-22.7,4.8c-2.2,0.1-4,1.9-4,4.1l0.3,49c0,3.4,1.1,6.6,3.2,9.2l2.2,2.8c4.9,6.4,14.9,5.7,18.7-1.4
			c0.2-0.4,0.4-0.8,0.5-1.3c0.1-0.4,0.2-0.7,0.2-1.1l0.4-4.8c0.2-4.4,0.2-8.8,0.2-8.8s9.3-1.2,11.7-13.1c1.2-5.9,1.3-15.8,1.1-23.8
			C120.6,228.4,116.2,219.4,109,219.9z"/>
		<path class="st8" d="M117.3,244.9c0,0.8-0.7,1.5-1.6,1.5c-0.8,0-1.5-0.6-1.5-1.4c0,0,0,0,0,0c0-0.8,0.7-1.5,1.6-1.5
			C116.6,243.4,117.3,244,117.3,244.9C117.3,244.9,117.3,244.9,117.3,244.9z"/>
		<path class="st8" d="M118.5,240.7c-0.2,0.2-1.3-0.7-3-0.8s-2.9,0.7-3.1,0.5s0.1-0.4,0.7-0.8c0.7-0.5,1.6-0.7,2.5-0.7
			c0.9,0,1.7,0.3,2.4,0.9C118.4,240.2,118.6,240.6,118.5,240.7z"/>
		<path class="st8" d="M102.5,244.5c0,0.8-0.7,1.5-1.5,1.5c-0.8,0-1.5-0.6-1.5-1.4c0,0,0,0,0-0.1c0-0.8,0.7-1.5,1.6-1.5
			C101.8,243,102.4,243.6,102.5,244.5C102.5,244.5,102.5,244.5,102.5,244.5z"/>
		<path class="st8" d="M102.7,240.3c-0.2,0.2-1.3-0.7-3-0.8s-2.9,0.7-3.1,0.5s0.1-0.4,0.7-0.8c0.7-0.5,1.6-0.7,2.5-0.7
			c0.9,0,1.7,0.3,2.4,0.9C102.7,239.8,102.8,240.2,102.7,240.3z"/>
		<path class="st8" d="M107.7,252.9c0.9-0.2,1.8-0.4,2.7-0.4c0.4,0,0.8-0.1,0.9-0.4c0.1-0.4,0-0.9-0.2-1.3c-0.4-1-0.7-2.1-1.1-3.3
			c-1.6-4.7-2.7-8.5-2.5-8.6s1.6,3.7,3.2,8.3c0.4,1.1,0.7,2.2,1.1,3.3c0.2,0.5,0.3,1.1,0.2,1.7c-0.1,0.3-0.4,0.5-0.7,0.6
			c-0.2,0-0.5,0.1-0.7,0.1C109.5,253.1,108.6,253,107.7,252.9z"/>
		<path class="st24" d="M108.1,272.6c-5.7-0.1-11.2-1.8-15.9-4.9c0,0,3.7,8.5,15.8,7.8L108.1,272.6z"/>
		<path class="st24" d="M106.8,256.9c-0.6-0.8-1.6-1.3-2.6-1.2c-0.7,0-1.4,0.4-1.9,0.9c-0.5,0.6-0.6,1.4-0.2,2
			c0.5,0.6,1.4,0.9,2.2,0.6c0.8-0.3,1.5-0.7,2.2-1.2c0.2-0.1,0.4-0.3,0.5-0.5C107,257.4,107,257.1,106.8,256.9"/>
		<path class="st8" d="M102.8,253.9c0.3,0,0.2,1.8,1.7,3.1s3.4,1.2,3.4,1.5s-0.4,0.3-1.2,0.3c-1.1,0-2.1-0.4-2.9-1.1
			c-0.8-0.7-1.2-1.6-1.3-2.6C102.4,254.3,102.6,253.8,102.8,253.9z"/>
		<path class="st8" d="M102.6,235.4c-0.2,0.4-1.8,0.2-3.8,0.3s-3.6,0.6-3.8,0.2c-0.1-0.2,0.2-0.6,0.8-1c0.9-0.5,1.8-0.8,2.8-0.9
			c1-0.1,2,0.1,2.9,0.5C102.3,234.8,102.7,235.1,102.6,235.4z"/>
		<path class="st8" d="M118.3,233.4c-0.3,0.4-1.4-0.1-2.8-0.1s-2.6,0.2-2.8-0.2c-0.1-0.2,0.1-0.6,0.6-0.9c0.7-0.4,1.5-0.6,2.3-0.5
			c0.8,0,1.6,0.3,2.2,0.9C118.3,232.8,118.4,233.2,118.3,233.4z"/>
		<path class="st8" d="M78.8,227c2.3-6.9,12.6-16.3,19.9-15.6l11.5,7.2c-0.9,4-3.8,7.2-7.8,8.4c-2.1,0.6-4.5,0.7-5.8,2.4
			s-0.6,4.4-1.8,6.3c-1.7,2.5-6,2.3-7.3,5.1c-0.6,1.2-0.3,2.7-0.9,3.9c-0.8,1.6-4.9,3.6-6.6,3s-1.6-3.4-2.1-5
			c-0.7-1.7-0.7-3.6-0.1-5.4C78.6,233.9,77.7,230.3,78.8,227z"/>
		<path class="st23" d="M85,249.1c0-0.9-0.9-3-1.8-3.2c-2.3-0.5-6.6-0.4-6.9,5.6c-0.4,8.2,7.9,6.9,8,6.6S84.9,252.2,85,249.1z"/>
		<path class="st24" d="M81.9,254.9c0,0-0.2,0.1-0.4,0.2c-0.3,0.1-0.7,0.1-1.1,0c-0.8-0.4-1.5-1.8-1.5-3.2c0-0.7,0.2-1.4,0.5-2
			c0.2-0.5,0.6-0.9,1.1-1c0.3-0.1,0.7,0.1,0.8,0.4c0.1,0.2,0,0.4,0.1,0.4s0.2-0.1,0.1-0.5c0-0.2-0.1-0.4-0.3-0.5
			c-0.2-0.2-0.5-0.3-0.8-0.2c-0.7,0.1-1.2,0.5-1.5,1.1c-0.4,0.7-0.6,1.5-0.6,2.3c0,1.6,0.8,3.2,1.9,3.6c0.4,0.2,0.9,0.1,1.3-0.2
			C81.9,255.1,81.9,254.9,81.9,254.9z"/>
		<path class="st8" d="M77.1,224.8L77.1,224.8c0-2.6-3.2-4.2-5.7-4.8c-2.6-0.4-5.2,0.1-7.4,1.4c-1.3,0.7-2.7,1.7-2.9,3.2
			s1.1,3.2,2.5,2.7c-2.5,0.9-3.9,3.6-3,6.2s3.6,3.9,6.2,3c0.6-0.2,1.1-0.5,1.6-0.9c-0.7,2.4-2.2,4.4-4.3,5.8
			c6.7,0.9,12.8-3.7,13.8-10.4C78.1,229,77.8,226.8,77.1,224.8L77.1,224.8z"/>
		<path class="st22" d="M71.4,237.9c-0.2-0.8-0.3-1.6-0.3-2.5c0-2,0.3-4,0.9-5.9c0.6-1.9,1.6-3.7,2.8-5.3c0.5-0.7,1.1-1.3,1.7-1.8
			c0.2,0.1-2.6,2.8-4,7.2C71.7,232.3,71.3,235.1,71.4,237.9z"/>
		<path class="st8" d="M107.8,216c0.8,3.3,5.8,7.6,8,10.2c4.2,5,5.1,6.6,5.1,17.7c2-3.8,3.5-7.6,3.4-11.9c-0.1-4.4-1.8-8.5-4.7-11.8
			C116.4,217.1,112.1,215.5,107.8,216"/>
		<path class="st22" d="M142.5,307.2c0,0-8.8-14.7-11.3-17.7c-2-2.3-4.4-4.1-7.2-5.3c-1.1-0.5-2.3-0.8-3.4-1l-12.7-2.8
			c0,0,0,8.7-9.1,9.2S82,277.5,82,277.5s-14.7,2.3-18.2,4.1s-9,4.1-12.1,19.3l-2.1,14.9l25.3,2.3l2.4,37.6l12.6,8.7
			c0,0,34.8,9,37,9.6s3-56,3-56S138.8,312.3,142.5,307.2z"/>
		<path class="st9" d="M125.9,300.9c0.2,0.3,0.4,0.7,0.5,1.1c0.3,0.7,0.7,1.8,1.1,3.1c2.1,6.8,3,14,2.6,21.1
			c-0.1,1.4-0.2,2.5-0.3,3.2c0,0.4-0.1,0.8-0.2,1.2c0-0.4,0-0.8,0-1.2c0-0.8,0.1-1.9,0.1-3.2c0.1-3.5-0.1-7.1-0.5-10.6
			c-0.4-3.5-1.1-7-2.1-10.4c-0.4-1.3-0.7-2.4-0.9-3.1C126,301.7,125.9,301.3,125.9,300.9z"/>
		<path class="st23" d="M124.8,362.5l-47.6-10.4l-2.2-34.1l-21.2-2c0,0,0.8,23.3,1.6,30.2c1.2,10,7.1,23.5,10.5,26.2
			c3.4,2.7,61.1,1.5,61.1,1.5L124.8,362.5z"/>
		<path class="st23" d="M151.8,368.7c-0.3,0.7-1,1.1-1.8,1c-0.2,0-0.3,0-0.5-0.1c-1.1-0.3-1-2.5-1-2.5l-5.1-0.8c0,0-6.6,4.2-8.9,7
			s-8.3,0.5-8.3,0.5l-2.1-10.8l9.3-8.4c0,0-0.6,0.5,0.1-1.1s3.6-1,3.6-1c0.5-0.8,2.4-1.1,2.4-1.1l8.1,0.9c1.7,0.2,3.2,1.1,4.1,2.6
			l3.4,5.5c0,0,1.8,3.9,1.5,4.9c-0.3,0.8-1.1,1.3-1.9,1.1c0,0-0.4,2.6-1.1,2.7C153.1,369,152.5,368.9,151.8,368.7L151.8,368.7z"/>
		<path class="st24" d="M134.5,360.9c0,0.1,1.1,0,2.8,0.1c2.3,0.1,4.5,0.5,6.7,1.2c1.2,0.4,2.3,0.9,3.4,1.5c1,0.5,2,1,2.3,1.7
			c0.2,0.3,0.1,0.7-0.1,1c-0.2,0.2-0.4,0.4-0.6,0.5c-0.2,0.1-0.5,0.1-0.7,0.1c0,0,0.2,0.2,0.8,0.1c0.3-0.1,0.6-0.3,0.8-0.5
			c0.3-0.4,0.4-0.8,0.2-1.3c-0.2-0.5-0.6-0.9-1-1.1c-0.4-0.3-0.9-0.6-1.4-0.9c-3.2-1.7-6.7-2.7-10.3-2.7
			C136.4,360.6,135.4,360.7,134.5,360.9z"/>
		<path class="st24" d="M133.9,366.1c0,0.1,3.3,0,7.4,0.2s7.4,0.7,7.4,0.6c-0.7-0.3-1.4-0.4-2.1-0.5c-3.5-0.6-7-0.8-10.5-0.6
			C135.4,365.9,134.6,366,133.9,366.1z"/>
		<path class="st24" d="M151.8,368.5c0.1-0.3,0.1-0.6,0.1-0.9c0.1-0.8,0.1-1.6,0-2.4c0-0.6-0.1-1.1-0.2-1.6
			c-0.2-0.6-0.4-1.2-0.8-1.8c-0.8-1.2-1.8-2.3-3.1-3.1c-1.2-0.9-2.5-1.5-3.9-2c-1.1-0.3-2.3-0.5-3.5-0.5c-1,0-1.8,0-2.4,0
			c-0.3,0-0.6,0-0.9,0.1c1.1,0.2,2.1,0.2,3.2,0.3c1.2,0.1,2.3,0.3,3.4,0.6c1.3,0.5,2.6,1.1,3.7,1.9c1.2,0.8,2.2,1.8,3,3
			c0.6,0.9,1,2,1.1,3.2C151.7,367.2,151.7,368.5,151.8,368.5z"/>
		<path class="st24" d="M140,353.7c0,0.1,1.2,0.1,3.2,0.3s4.9,0.4,6.6,3c1.7,1.9,3,4.1,4.1,6.4c0.3,1,0.6,2,0.8,3
			c0.1-0.3,0.1-0.6,0.1-0.9c0-0.8-0.2-1.6-0.5-2.3c-1-2.4-2.3-4.6-4-6.6c-0.5-0.6-1-1.1-1.6-1.6c-0.6-0.4-1.2-0.7-1.9-0.9
			c-1.1-0.3-2.3-0.5-3.5-0.5C142.2,353.5,141.1,353.5,140,353.7z"/>
		<path class="st24" d="M136.5,371.6c0.2-0.1,0.3-0.2,0.5-0.4l1.4-1.1c1.7-1.3,3.5-2.6,5.4-3.7h-0.1l5.1,0.9l-0.2-0.2
			c0,0.4,0,0.8,0.1,1.2c0.1,0.5,0.3,0.9,0.6,1.2c0.2,0.2,0.4,0.3,0.7,0.3c0.2,0,0.5,0,0.7,0c0.5-0.1,0.9-0.3,1.3-0.7l0.2-0.3v-0.1
			l0,0l0,0l0,0l-0.3,0.1l0,0l0.2,0.1c0.2,0.1,0.4,0.2,0.6,0.2c0.2,0.1,0.5,0.1,0.7,0.2h0.4c0.2,0,0.3,0,0.5-0.1
			c0.2-0.2,0.4-0.4,0.5-0.7c0.1-0.2,0.2-0.5,0.2-0.7c0.1-0.5,0.2-0.9,0.3-1.4l-0.3,0.2c0.7,0.2,1.4-0.1,1.9-0.6
			c0.2-0.3,0.3-0.6,0.4-1c0-0.3-0.1-0.7-0.2-1c-0.4-1.2-0.8-2.5-1.4-3.6l0,0l0,0l-1.8-2.9l-1.2-1.8c-0.4-0.6-0.8-1.2-1.3-1.8
			c-0.5-0.5-1.1-0.9-1.8-1.2c-0.7-0.2-1.4-0.4-2.1-0.4l-7.7-0.9h-0.1c-0.5,0.1-0.9,0.2-1.4,0.4c-0.5,0.1-0.9,0.4-1.2,0.8l0.3-0.1
			c-0.8-0.4-1.8-0.3-2.6,0.1c-0.7,0.5-1.1,1.2-1.3,2.1l0.1-0.1l-6.4,5.8l-1.7,1.6c-0.2,0.2-0.4,0.4-0.6,0.6c0.2-0.1,0.5-0.3,0.7-0.5
			l1.8-1.5l6.5-5.6l0,0v-0.1c0.2-0.7,0.7-1.4,1.3-1.8c0.7-0.4,1.5-0.4,2.2-0.1l0.2,0.1l0.1-0.2c0.3-0.3,0.6-0.5,1-0.6
			c0.4-0.1,0.8-0.3,1.3-0.3h-0.1l7.7,0.9c0.7,0,1.3,0.2,1.9,0.4c0.6,0.3,1.2,0.6,1.6,1.1c0.5,0.5,0.9,1.1,1.2,1.7l1.2,1.8
			c0.6,1,1.3,2,1.8,2.9l0,0c0.5,1.1,1,2.3,1.4,3.5c0.1,0.3,0.1,0.6,0.2,0.9c0,0.3-0.1,0.5-0.2,0.7c-0.3,0.4-0.9,0.6-1.4,0.5h-0.2
			l-0.1,0.2c-0.1,0.5-0.2,0.9-0.3,1.4c-0.1,0.4-0.3,0.8-0.5,1.1c-0.1,0-0.1,0-0.2,0h-0.3c-0.2,0-0.4-0.1-0.6-0.2
			c-0.2-0.1-0.4-0.1-0.6-0.2l-0.1-0.1l0,0l-0.3,0.1l0,0l0,0v0.1c-0.1,0.1-0.1,0.2-0.2,0.2c-0.3,0.3-0.6,0.5-1,0.6
			c-0.2,0-0.4,0-0.6,0c-0.2,0-0.3-0.1-0.5-0.2c-0.4-0.6-0.6-1.4-0.6-2.1V367h-0.2l-5.1-0.8h-0.1h-0.1c-1.8,1.2-3.6,2.4-5.3,3.8
			c-0.6,0.5-1,0.9-1.3,1.2C136.8,371.3,136.7,371.5,136.5,371.6z"/>
		<path class="st25" d="M213.7,337.4l-62.8,0.5c-2,0-4,1-4.3,3l-6.9,45.7h-32.3c-1-0.1-1.9,0.7-2,1.7c-0.1,1,0.7,1.9,1.7,2
			c0.1,0,0.2,0,0.3,0h103.2l7.1-48.3c0.3-2.2-1.2-4.4-3.5-4.7C214.1,337.4,213.9,337.4,213.7,337.4z"/>
		<path class="st8" d="M213.7,337.4c0.3,0,0.7,0,1,0.1c1.7,0.4,3,1.8,3.2,3.6c0,0.9-0.1,1.7-0.2,2.6c-0.3,1.9-0.6,4-0.9,6.4
			c-1.4,9.6-3.4,23.4-5.8,40.4v0.2h-0.2l-100.2,0.1h-2.7c-0.5,0-1-0.1-1.4-0.3c-0.5-0.2-0.8-0.6-1-1.1c-0.4-1,0.1-2.1,1-2.6
			c0.4-0.2,0.9-0.3,1.4-0.3h31.9l-0.2,0.2c2.5-16.4,4.8-31.7,6.8-45.4c0.1-0.9,0.5-1.8,1.2-2.4c0.7-0.6,1.5-0.9,2.4-1.1
			c0.8-0.1,1.7-0.1,2.5-0.1h2.5l9.4-0.1l16.8-0.1l23.9-0.1h8C213.5,337.3,213.6,337.3,213.7,337.4l-0.6,0h-1.6l-6.4,0.1l-23.9,0.3
			l-16.8,0.2l-9.4,0.1h-2.5c-0.8,0-1.6,0-2.5,0.1c-0.8,0.1-1.6,0.5-2.2,1c-0.6,0.6-1,1.3-1,2.1c-2.1,13.7-4.3,29-6.8,45.4v0.2h-32.2
			c-0.4-0.1-0.8,0-1.2,0.2c-0.7,0.4-1,1.2-0.7,2c0.1,0.4,0.4,0.7,0.7,0.9c0.4,0.2,0.8,0.3,1.2,0.2h2.7l100.2,0.1l-0.2,0.2
			c2.5-17,4.6-30.8,6-40.4c0.4-2.4,0.7-4.5,1-6.4c0.2-0.8,0.3-1.7,0.3-2.5c-0.1-0.7-0.3-1.4-0.7-2c-0.6-0.8-1.4-1.4-2.3-1.6
			C214.4,337.4,214,337.4,213.7,337.4z"/>
		<circle class="st4" cx="179.6" cy="363.3" r="3.9"/>
		<path class="st8" d="M142.3,390c0.1,0,2.1-11.6,4.5-26s4.2-26.1,4.1-26.1s-2.1,11.6-4.5,26S142.2,389.9,142.3,390z"/>
		<path class="st26" d="M289.7,229.2h-45.3l-8.6,12.8l-8.4-12.8h-44.5c-2.8,0-5.1-2.3-5.1-5.1v-88.2c0-2.8,2.3-5.1,5.1-5.1h106.8
			c2.8,0,5.1,2.3,5.1,5.1V224C294.9,226.9,292.6,229.2,289.7,229.2C289.7,229.2,289.7,229.2,289.7,229.2z"/>
		<path class="st27" d="M289.7,229.2h0.3c0.3,0,0.6,0,0.8-0.1c1.1-0.2,2.1-0.8,2.8-1.7c0.5-0.6,0.9-1.3,1.1-2.1
			c0.1-0.2,0.1-0.5,0.1-0.7c0-0.2,0-0.5,0-0.7v-1.5c0-2.1,0-4.6,0-7.3c0-11,0-27,0-46.7c0-9.9,0-20.7,0-32.3c0-1.4-0.6-2.8-1.6-3.8
			c-0.5-0.5-1.2-0.9-1.9-1.1c-0.7-0.2-1.4-0.3-2.2-0.2h-106c-0.2,0-0.5,0-0.7,0c-0.2,0-0.4,0.1-0.7,0.1c-1.8,0.4-3.2,1.9-3.7,3.7
			c-0.1,0.8-0.2,1.7-0.1,2.5v17.6c0,6.6,0,13.2,0,19.6v37.4c0,3,0,6,0,8.9v2.2c0,0.7,0,1.4,0.1,2.1c0.3,1.4,1.1,2.6,2.4,3.3
			c0.6,0.4,1.3,0.6,2,0.7c0.7,0.1,1.4,0,2.1,0h43l0,0l8.4,13h-0.2l8.7-12.8l0,0h0.1l33.4,0.1h8.9h2.3L289.7,229.2l-3,0h-8.9h-33.4
			h0.1l-8.6,12.8l-0.1,0.1l-0.1-0.1c-2.7-4.1-5.5-8.3-8.4-12.8l0.1,0.1h-30.5h-12.5c-0.7,0-1.4,0-2.1,0c-0.7-0.1-1.4-0.3-2.1-0.7
			c-1.3-0.8-2.2-2-2.5-3.5c-0.1-0.7-0.1-1.5-0.1-2.2c0-0.7,0-1.5,0-2.2v-46.3c0-6.4,0-13,0-19.6v-18.9c0-0.4,0.1-0.9,0.2-1.3
			c0.5-1.9,2-3.4,3.9-3.9c0.2-0.1,0.5-0.1,0.7-0.1h0.7h106c0.8,0,1.5,0,2.2,0.3c0.7,0.2,1.4,0.6,2,1.1c0.6,0.5,1,1.1,1.3,1.8
			c0.3,0.7,0.4,1.4,0.4,2.2c0,11.6,0,22.4,0,32.3c0,19.7,0,35.7,0,46.7c0,2.8,0,5.2,0,7.3c0,0.5,0,1,0,1.5c0,0.2,0,0.5,0,0.7
			c0,0.2-0.1,0.5-0.1,0.7c-0.2,0.8-0.6,1.5-1.1,2.2c-0.7,0.8-1.7,1.4-2.8,1.7c-0.3,0.1-0.6,0.1-0.8,0.1L289.7,229.2z"/>
		<path class="st2" d="M203.9,197.1L203.9,197.1c3.8,0,6.9,3.1,6.9,6.9v5.3c0,3.8-3.1,6.9-6.9,6.9h0c-3.8,0-6.9-3.1-6.9-6.9v-5.3
			C197,200.1,200.1,197.1,203.9,197.1z"/>
		<path class="st2" d="M236.6,197.1L236.6,197.1c3.7,0,6.7,3,6.7,6.7v5.7c0,3.7-3,6.7-6.7,6.7h0c-3.7,0-6.7-3-6.7-6.7v-5.7
			C229.9,200.1,232.9,197.1,236.6,197.1z"/>
		<path class="st2" d="M220.5,197.1L220.5,197.1c3.7,0,6.7,3,6.7,6.7v5.7c0,3.7-3,6.7-6.7,6.7h0c-3.7,0-6.7-3-6.7-6.7v-5.7
			C213.8,200.1,216.8,197.1,220.5,197.1z"/>
		<path class="st2" d="M252.9,197.1L252.9,197.1c3.8,0,6.9,3.1,6.9,6.9v5.3c0,3.8-3.1,6.9-6.9,6.9h0c-3.8,0-6.9-3.1-6.9-6.9v-5.3
			C246,200.1,249.1,197.1,252.9,197.1z"/>
		<path class="st2" d="M268.7,197.1L268.7,197.1c3.8,0,6.9,3.1,6.9,6.9v5.3c0,3.8-3.1,6.9-6.9,6.9h0c-3.8,0-6.9-3.1-6.9-6.9v-5.3
			C261.8,200.1,264.9,197.1,268.7,197.1z"/>
		<path class="st22" d="M205.6,206.1l1.5,0.8l-0.7,1.1l-1.5-0.9v1.6h-1.3v-1.6l-1.5,0.9l-0.6-1.1l1.5-0.8l-1.5-0.8l0.6-1.1l1.5,0.9
			v-1.6h1.3v1.6l1.5-0.9l0.7,1.1L205.6,206.1z"/>
		<path class="st22" d="M221.7,206l1.5,0.8l-0.7,1.1l-1.5-0.9v1.6h-1.3V207l-1.5,0.9l-0.6-1.1l1.5-0.8l-1.5-0.8l0.6-1.1l1.5,0.9
			v-1.6h1.3v1.6l1.5-0.9l0.7,1.1L221.7,206z"/>
		<path class="st22" d="M238.2,206l1.5,0.8l-0.7,1.1l-1.5-0.9v1.6h-1.3V207l-1.5,0.9l-0.6-1.1l1.5-0.8l-1.5-0.8l0.6-1.1l1.5,0.9
			v-1.6h1.3v1.6l1.5-0.9l0.7,1.1L238.2,206z"/>
		<path class="st22" d="M254.2,206l1.5,0.8l-0.7,1.1l-1.5-0.9v1.6h-1.3V207l-1.5,0.9l-0.6-1.1l1.5-0.8l-1.5-0.8l0.6-1.1l1.5,0.9
			v-1.6h1.3v1.6l1.5-0.9l0.7,1.1L254.2,206z"/>
		<path class="st8" d="M207.4,216.3h-7.1c-1.8,0-3.3-1.5-3.3-3.3v-12.7c0-1.8,1.5-3.3,3.3-3.3h7.1c1.8,0,3.3,1.5,3.3,3.3v12.7
			C210.8,214.8,209.3,216.3,207.4,216.3z M200.3,197.2c-1.7,0-3.1,1.4-3.1,3.1v12.7c0,1.7,1.4,3.1,3.1,3.1h7.1
			c1.7,0,3.1-1.4,3.1-3.1v-12.7c0-1.7-1.4-3.1-3.1-3.1H200.3z"/>
		<path class="st8" d="M224,216.3h-7.1c-1.8,0-3.3-1.5-3.3-3.3v-12.7c0-1.8,1.5-3.3,3.3-3.3h7.1c1.8,0,3.3,1.5,3.3,3.3v12.7
			C227.3,214.8,225.8,216.3,224,216.3z M216.9,197.2c-1.7,0-3.1,1.4-3.1,3.1v12.7c0,1.7,1.4,3.1,3.1,3.1h7.1c1.7,0,3.1-1.4,3.1-3.1
			v-12.7c0-1.7-1.4-3.1-3.1-3.1H216.9z"/>
		<path class="st8" d="M240.1,216.3H233c-1.8,0-3.3-1.5-3.3-3.3v-12.7c0-1.8,1.5-3.3,3.3-3.3h7.1c1.8,0,3.3,1.5,3.3,3.3v12.7
			C243.5,214.8,242,216.3,240.1,216.3z M233,197.2c-1.7,0-3.1,1.4-3.1,3.1v12.7c0,1.7,1.4,3.1,3.1,3.1h7.1c1.7,0,3.1-1.4,3.1-3.1
			v-12.7c0-1.7-1.4-3.1-3.1-3.1H233z"/>
		<path class="st8" d="M256.5,216.3h-7.1c-1.8,0-3.3-1.5-3.3-3.3v-12.7c0-1.8,1.5-3.3,3.3-3.3h7.1c1.8,0,3.3,1.5,3.3,3.3v12.7
			C259.8,214.8,258.3,216.3,256.5,216.3z M249.3,197.2c-1.7,0-3.1,1.4-3.1,3.1v12.7c0,1.7,1.4,3.1,3.1,3.1h7.1
			c1.7,0,3.1-1.4,3.1-3.1v-12.7c0-1.7-1.4-3.1-3.1-3.1H249.3z"/>
		<path class="st8" d="M272.3,216.3h-7.1c-1.8,0-3.3-1.5-3.3-3.3v-12.7c0-1.8,1.5-3.3,3.3-3.3h7.1c1.8,0,3.3,1.5,3.3,3.3v12.7
			C275.6,214.8,274.1,216.3,272.3,216.3z M265.1,197.2c-1.7,0-3.1,1.4-3.1,3.1v12.7c0,1.7,1.4,3.1,3.1,3.1h7.1
			c1.7,0,3.1-1.4,3.1-3.1v-12.7c0-1.7-1.4-3.1-3.1-3.1H265.1z"/>
		<path class="st22" d="M272.5,211.2c-2.5,0.2-5.1,0.2-7.6,0C267.4,211,270,211,272.5,211.2z"/>
		<circle class="st22" cx="236.9" cy="161.8" r="15.4"/>
		<path class="st4" d="M234.2,159H234v-1.4c0-1.7,1.3-3,3-3s3,1.3,3,3v1.2h-0.3v-1.2c0-1.5-1.2-2.8-2.8-2.8s-2.8,1.2-2.8,2.8
			L234.2,159z"/>
		<path class="st4" d="M240.8,169.1h-7.6c-0.7,0-1.3-0.6-1.3-1.3c0,0,0,0,0,0v-7.6c0-0.7,0.6-1.3,1.3-1.3c0,0,0,0,0,0h7.6
			c0.7,0,1.3,0.6,1.3,1.3c0,0,0,0,0,0v7.6C242,168.5,241.5,169.1,240.8,169.1C240.8,169.1,240.8,169.1,240.8,169.1z M233.1,159.1
			c-0.6,0-1,0.4-1,1v7.6c0,0.6,0.4,1,1,1h7.6c0.6,0,1-0.4,1-1v-7.6c0-0.6-0.4-1-1-1H233.1z"/>
		<path class="st4" d="M237,164.2c-0.7,0-1.2-0.5-1.2-1.2s0.5-1.2,1.2-1.2s1.2,0.5,1.2,1.2c0,0,0,0,0,0
			C238.2,163.7,237.7,164.2,237,164.2z M237,162.1c-0.5,0-1,0.4-1,0.9s0.4,1,0.9,1c0.5,0,1-0.4,1-0.9c0,0,0,0,0,0
			C237.9,162.5,237.5,162.1,237,162.1L237,162.1L237,162.1z"/>
		<rect x="236.8" y="164.1" class="st4" width="0.3" height="2.2"/>
		<g class="st28">
			<path class="st8" d="M231.1,188.9c-0.5,0-0.9-0.1-1.3-0.2c-0.4-0.2-0.8-0.4-1.1-0.7c-0.3-0.3-0.5-0.6-0.7-1
				c-0.2-0.4-0.2-0.8-0.2-1.3c0-0.5,0.1-0.9,0.2-1.3c0.2-0.4,0.4-0.7,0.7-1s0.7-0.5,1.1-0.7c0.4-0.2,0.8-0.2,1.3-0.2
				c0.5,0,0.9,0.1,1.3,0.2c0.4,0.2,0.8,0.4,1.1,0.7s0.5,0.6,0.7,1c0.2,0.4,0.3,0.8,0.3,1.3c0,0.5-0.1,0.9-0.3,1.3
				c-0.2,0.4-0.4,0.7-0.7,1c-0.3,0.3-0.6,0.5-1.1,0.7C232,188.8,231.6,188.9,231.1,188.9z M231.1,187.7c0.3,0,0.5,0,0.8-0.1
				c0.2-0.1,0.4-0.2,0.6-0.4s0.3-0.4,0.4-0.6c0.1-0.2,0.1-0.5,0.1-0.8c0-0.3,0-0.6-0.1-0.8c-0.1-0.2-0.2-0.4-0.4-0.6
				c-0.2-0.2-0.4-0.3-0.6-0.4c-0.2-0.1-0.5-0.1-0.8-0.1c-0.3,0-0.5,0-0.8,0.1c-0.2,0.1-0.4,0.2-0.6,0.4s-0.3,0.4-0.4,0.6
				c-0.1,0.2-0.1,0.5-0.1,0.8c0,0.3,0,0.5,0.1,0.8c0.1,0.2,0.2,0.4,0.4,0.6s0.4,0.3,0.6,0.4C230.6,187.7,230.8,187.7,231.1,187.7z"
				/>
			<path class="st8" d="M236.6,188.8v-4.9h-1.9v-1.1h5.3v1.1H238v4.9H236.6z"/>
			<path class="st8" d="M240.6,188.8v-6.1h2.6c0.5,0,1,0.1,1.4,0.3c0.4,0.2,0.7,0.4,0.9,0.8c0.2,0.3,0.3,0.7,0.3,1.2
				c0,0.5-0.1,0.8-0.3,1.2c-0.2,0.3-0.5,0.6-0.9,0.8s-0.9,0.3-1.4,0.3h-1.9l0.6-0.6v2.3H240.6z M242,186.6l-0.6-0.7h1.8
				c0.4,0,0.8-0.1,1-0.3s0.3-0.4,0.3-0.8c0-0.3-0.1-0.6-0.3-0.8c-0.2-0.2-0.5-0.3-1-0.3h-1.8l0.6-0.7V186.6z"/>
		</g>
		<polygon class="st29" points="476.7,567.1 26.3,566.3 37.5,555 466.6,555 		"/>
		<polygon class="st30" points="38.3,555 26.3,566.2 26.3,72 37.9,72 		"/>
		<polygon class="st31" points="476.7,567.1 466.6,555 466.6,71 476.9,71 		"/>
		<polyline class="st32" points="0,73.2 0,0 491.9,0 491.9,73.2 		"/>
		<g class="st28">
			<path class="st33" d="M47.2,52.8V29.5h9.6c2.1,0,3.8,0.3,5.3,1c1.5,0.7,2.6,1.6,3.4,2.9s1.2,2.7,1.2,4.4c0,1.7-0.4,3.2-1.2,4.4
				s-1.9,2.2-3.4,2.8c-1.5,0.7-3.2,1-5.3,1h-7.2l1.9-2v8.8H47.2z M51.5,44.5l-1.9-2.1h7c1.9,0,3.3-0.4,4.3-1.2c1-0.8,1.4-2,1.4-3.4
				c0-1.5-0.5-2.6-1.4-3.4s-2.4-1.2-4.3-1.2h-7l1.9-2.1V44.5z M62.5,52.8l-5.9-8.5h4.6l5.9,8.5H62.5z"/>
			<path class="st33" d="M82.5,53.2c-1.8,0-3.5-0.3-5-0.9c-1.5-0.6-2.9-1.4-4-2.5c-1.1-1.1-2-2.3-2.6-3.8c-0.6-1.5-0.9-3-0.9-4.8
				c0-1.7,0.3-3.3,0.9-4.8c0.6-1.5,1.5-2.7,2.6-3.8c1.1-1.1,2.5-1.9,4-2.5c1.5-0.6,3.2-0.9,5-0.9c1.8,0,3.5,0.3,5,0.9
				c1.5,0.6,2.8,1.4,4,2.5c1.1,1.1,2,2.3,2.6,3.8c0.6,1.5,0.9,3,0.9,4.8c0,1.7-0.3,3.3-0.9,4.8s-1.5,2.7-2.6,3.8
				c-1.1,1.1-2.5,1.9-4,2.5C86,52.9,84.3,53.2,82.5,53.2z M82.5,49.4c1.2,0,2.3-0.2,3.3-0.6c1-0.4,1.9-1,2.6-1.7
				c0.7-0.7,1.3-1.6,1.7-2.6c0.4-1,0.6-2.1,0.6-3.3c0-1.2-0.2-2.3-0.6-3.3c-0.4-1-1-1.9-1.7-2.6c-0.7-0.7-1.6-1.3-2.6-1.7
				c-1-0.4-2.1-0.6-3.3-0.6c-1.2,0-2.3,0.2-3.2,0.6c-1,0.4-1.9,1-2.6,1.7c-0.7,0.7-1.3,1.6-1.7,2.6c-0.4,1-0.6,2.1-0.6,3.3
				c0,1.2,0.2,2.3,0.6,3.3c0.4,1,1,1.9,1.7,2.6c0.7,0.7,1.6,1.3,2.6,1.7C80.2,49.2,81.3,49.4,82.5,49.4z"/>
			<path class="st33" d="M104.4,52.8v-9.2l1,2.7L95.2,29.5h4.6L108,43h-2.6l8.2-13.5h4.3l-10.1,16.8l1-2.7v9.2H104.4z"/>
			<path class="st33" d="M116,52.8l10.5-23.3h4.3l10.5,23.3h-4.5l-9-21h1.7l-9,21H116z M120.8,47.4L122,44h12.6l1.2,3.4H120.8z"/>
			<path class="st33" d="M144.2,52.8V29.5h4.3v19.7h12.2v3.7H144.2z"/>
			<path class="st33" d="M184.2,53.2c-1.8,0-3.4-0.3-4.9-0.9c-1.5-0.6-2.8-1.4-4-2.5c-1.1-1.1-2-2.3-2.6-3.8
				c-0.6-1.5-0.9-3.1-0.9-4.8c0-1.7,0.3-3.3,0.9-4.8c0.6-1.5,1.5-2.7,2.6-3.8c1.1-1.1,2.5-1.9,4-2.5c1.5-0.6,3.2-0.9,5-0.9
				c1.9,0,3.7,0.3,5.2,1c1.6,0.7,2.9,1.6,4,2.9l-2.8,2.6c-0.8-0.9-1.8-1.6-2.8-2c-1-0.5-2.2-0.7-3.4-0.7c-1.2,0-2.3,0.2-3.3,0.6
				c-1,0.4-1.9,1-2.6,1.7c-0.7,0.7-1.3,1.6-1.7,2.6c-0.4,1-0.6,2.1-0.6,3.3c0,1.2,0.2,2.3,0.6,3.3c0.4,1,1,1.9,1.7,2.6
				c0.7,0.7,1.6,1.3,2.6,1.7c1,0.4,2.1,0.6,3.3,0.6c1.2,0,2.4-0.2,3.4-0.7c1-0.5,2-1.1,2.8-2.1l2.8,2.7c-1.1,1.3-2.4,2.2-4,2.9
				C187.9,52.8,186.1,53.2,184.2,53.2z"/>
			<path class="st33" d="M208,53.2c-1.8,0-3.5-0.3-5-0.9c-1.5-0.6-2.9-1.4-4-2.5c-1.1-1.1-2-2.3-2.6-3.8c-0.6-1.5-0.9-3-0.9-4.8
				c0-1.7,0.3-3.3,0.9-4.8c0.6-1.5,1.5-2.7,2.6-3.8c1.1-1.1,2.5-1.9,4-2.5c1.5-0.6,3.2-0.9,5-0.9c1.8,0,3.5,0.3,5,0.9
				c1.5,0.6,2.8,1.4,4,2.5c1.1,1.1,2,2.3,2.6,3.8c0.6,1.5,0.9,3,0.9,4.8c0,1.7-0.3,3.3-0.9,4.8s-1.5,2.7-2.6,3.8
				c-1.1,1.1-2.5,1.9-4,2.5C211.5,52.9,209.8,53.2,208,53.2z M208,49.4c1.2,0,2.3-0.2,3.3-0.6c1-0.4,1.9-1,2.6-1.7
				c0.7-0.7,1.3-1.6,1.7-2.6c0.4-1,0.6-2.1,0.6-3.3c0-1.2-0.2-2.3-0.6-3.3c-0.4-1-1-1.9-1.7-2.6c-0.7-0.7-1.6-1.3-2.6-1.7
				c-1-0.4-2.1-0.6-3.3-0.6c-1.2,0-2.3,0.2-3.2,0.6c-1,0.4-1.9,1-2.6,1.7c-0.7,0.7-1.3,1.6-1.7,2.6c-0.4,1-0.6,2.1-0.6,3.3
				c0,1.2,0.2,2.3,0.6,3.3c0.4,1,1,1.9,1.7,2.6c0.7,0.7,1.6,1.3,2.6,1.7C205.7,49.2,206.8,49.4,208,49.4z"/>
			<path class="st33" d="M225.2,52.8V29.5h3.6l14.6,18h-1.8v-18h4.3v23.3h-3.6l-14.6-18h1.8v18H225.2z"/>
			<path class="st33" d="M259.4,53.2c-1.8,0-3.6-0.3-5.2-0.8c-1.7-0.5-3-1.2-4-2l1.5-3.4c0.9,0.7,2.1,1.3,3.5,1.8
				c1.4,0.5,2.8,0.7,4.2,0.7c1.2,0,2.2-0.1,3-0.4c0.8-0.3,1.3-0.6,1.7-1.1c0.4-0.5,0.5-1,0.5-1.5c0-0.7-0.3-1.3-0.8-1.7
				c-0.5-0.4-1.2-0.8-2-1c-0.8-0.3-1.7-0.5-2.7-0.7s-2-0.5-3-0.8s-1.9-0.7-2.7-1.2c-0.8-0.5-1.5-1.1-2-1.9c-0.5-0.8-0.8-1.8-0.8-3.1
				c0-1.3,0.3-2.4,1-3.5c0.7-1.1,1.7-1.9,3.1-2.5c1.4-0.6,3.1-0.9,5.3-0.9c1.4,0,2.8,0.2,4.2,0.5c1.4,0.4,2.6,0.9,3.6,1.5l-1.4,3.4
				c-1-0.6-2.1-1.1-3.2-1.4c-1.1-0.3-2.2-0.5-3.2-0.5c-1.2,0-2.2,0.1-2.9,0.4c-0.7,0.3-1.3,0.7-1.6,1.1c-0.3,0.5-0.5,1-0.5,1.6
				c0,0.7,0.2,1.3,0.8,1.7c0.5,0.4,1.2,0.8,2,1c0.8,0.2,1.7,0.5,2.7,0.7c1,0.2,2,0.5,3,0.8c1,0.3,1.9,0.7,2.7,1.1
				c0.8,0.5,1.5,1.1,2,1.9c0.5,0.8,0.7,1.8,0.7,3c0,1.2-0.3,2.4-1,3.4c-0.7,1.1-1.7,1.9-3.1,2.5C263.3,52.8,261.5,53.2,259.4,53.2z"
				/>
			<path class="st33" d="M277.5,52.8V33.2h-7.7v-3.7h19.8v3.7h-7.7v19.7H277.5z"/>
			<path class="st33" d="M292.8,52.8V29.5h9.6c2.1,0,3.8,0.3,5.3,1c1.5,0.7,2.6,1.6,3.4,2.9s1.2,2.7,1.2,4.4c0,1.7-0.4,3.2-1.2,4.4
				s-1.9,2.2-3.4,2.8c-1.5,0.7-3.2,1-5.3,1h-7.2l1.9-2v8.8H292.8z M297.2,44.5l-1.9-2.1h7c1.9,0,3.3-0.4,4.3-1.2
				c1-0.8,1.5-2,1.5-3.4c0-1.5-0.5-2.6-1.5-3.4c-1-0.8-2.4-1.2-4.3-1.2h-7l1.9-2.1V44.5z M308.1,52.8l-5.9-8.5h4.6l5.9,8.5H308.1z"
				/>
			<path class="st33" d="M327.2,53.2c-3.2,0-5.7-0.9-7.5-2.7c-1.8-1.8-2.7-4.4-2.7-7.8V29.5h4.3v13c0,2.4,0.5,4.1,1.5,5.2
				c1,1.1,2.5,1.6,4.4,1.6c1.9,0,3.3-0.5,4.4-1.6c1-1.1,1.5-2.8,1.5-5.2v-13h4.3v13.2c0,3.4-0.9,6-2.7,7.8
				C332.9,52.3,330.4,53.2,327.2,53.2z"/>
			<path class="st33" d="M354.3,53.2c-1.8,0-3.4-0.3-4.9-0.9s-2.8-1.4-4-2.5c-1.1-1.1-2-2.3-2.6-3.8s-0.9-3.1-0.9-4.8
				c0-1.7,0.3-3.3,0.9-4.8s1.5-2.7,2.6-3.8c1.1-1.1,2.5-1.9,4-2.5c1.5-0.6,3.2-0.9,5-0.9c1.9,0,3.7,0.3,5.2,1s2.9,1.6,4,2.9
				l-2.8,2.6c-0.8-0.9-1.8-1.6-2.8-2c-1-0.5-2.2-0.7-3.4-0.7c-1.2,0-2.3,0.2-3.3,0.6s-1.9,1-2.6,1.7c-0.7,0.7-1.3,1.6-1.7,2.6
				s-0.6,2.1-0.6,3.3c0,1.2,0.2,2.3,0.6,3.3s1,1.9,1.7,2.6c0.7,0.7,1.6,1.3,2.6,1.7s2.1,0.6,3.3,0.6c1.2,0,2.4-0.2,3.4-0.7
				c1-0.5,2-1.1,2.8-2.1l2.8,2.7c-1.1,1.3-2.4,2.2-4,2.9S356.2,53.2,354.3,53.2z"/>
			<path class="st33" d="M372.2,52.8V33.2h-7.7v-3.7h19.8v3.7h-7.7v19.7H372.2z"/>
			<path class="st33" d="M387.5,52.8V29.5h4.3v23.3H387.5z"/>
			<path class="st33" d="M409.1,53.2c-1.8,0-3.5-0.3-5-0.9c-1.5-0.6-2.9-1.4-4-2.5c-1.1-1.1-2-2.3-2.6-3.8c-0.6-1.5-0.9-3-0.9-4.8
				c0-1.7,0.3-3.3,0.9-4.8c0.6-1.5,1.5-2.7,2.6-3.8c1.1-1.1,2.5-1.9,4-2.5c1.5-0.6,3.2-0.9,5-0.9c1.8,0,3.5,0.3,5,0.9
				c1.5,0.6,2.8,1.4,4,2.5c1.1,1.1,2,2.3,2.6,3.8c0.6,1.5,0.9,3,0.9,4.8c0,1.7-0.3,3.3-0.9,4.8s-1.5,2.7-2.6,3.8
				c-1.1,1.1-2.5,1.9-4,2.5C412.5,52.9,410.9,53.2,409.1,53.2z M409,49.4c1.2,0,2.3-0.2,3.3-0.6s1.9-1,2.6-1.7
				c0.7-0.7,1.3-1.6,1.7-2.6c0.4-1,0.6-2.1,0.6-3.3c0-1.2-0.2-2.3-0.6-3.3c-0.4-1-1-1.9-1.7-2.6c-0.7-0.7-1.6-1.3-2.6-1.7
				S410.2,33,409,33s-2.3,0.2-3.2,0.6c-1,0.4-1.9,1-2.6,1.7c-0.7,0.7-1.3,1.6-1.7,2.6c-0.4,1-0.6,2.1-0.6,3.3c0,1.2,0.2,2.3,0.6,3.3
				c0.4,1,1,1.9,1.7,2.6c0.7,0.7,1.6,1.3,2.6,1.7S407.9,49.4,409,49.4z"/>
			<path class="st33" d="M426.2,52.8V29.5h3.6l14.6,18h-1.8v-18h4.3v23.3h-3.6l-14.6-18h1.8v18H426.2z"/>
		</g>
		<path class="st34" d="M0,0l66.6,0.2C60.4,13.1,38.4,41.7,0.4,40.5L0,0z"/>
		<path class="st34" d="M491.8,0l-0.2,66.6c-12.8-6.2-41.5-28.2-40.3-66.2L491.8,0z"/>
	</g>
</g>
</svg>
