<?xml version="1.0" encoding="utf-8"?>
<!-- Generator: Adobe Illustrator 26.3.1, SVG Export Plug-In . SVG Version: 6.00 Build 0)  -->
<svg version="1.1" id="Layer_1" xmlns="http://www.w3.org/2000/svg" xmlns:xlink="http://www.w3.org/1999/xlink" x="0px" y="0px"
	 viewBox="0 0 441.2 439.6" style="enable-background:new 0 0 441.2 439.6;" xml:space="preserve">
<style type="text/css">
	.st0{fill:#E8F1F9;}
	.st1{fill:none;stroke:#B8D3E0;stroke-miterlimit:10;}
	.st2{fill:none;}
	.st3{fill:#3497D3;}
	.st4{enable-background:new    ;}
	.st5{fill:#FFFFFF;}
	.st6{fill:#0E5582;}
	.st7{fill:none;stroke:#FFFFFF;stroke-width:2;stroke-miterlimit:10;}
	.st8{fill:#FBBF9E;}
	.st9{fill:#06B7AE;}
	.st10{opacity:0.3;}
	.st11{fill:#263238;}
	.st12{fill:#F7996E;}
	.st13{fill:#E0E0E0;}
	.st14{fill:#455B64;}
	.st15{fill:#F4CD9E;}
	.st16{opacity:0.21;fill:#B78A4D;enable-background:new    ;}
	.st17{fill:#A57D48;}
	.st18{fill:#DFB682;}
	.st19{opacity:7.000000e-02;fill:#8F775B;enable-background:new    ;}
	.st20{fill:#474647;}
	.st21{fill:#B5B5B6;}
	.st22{fill:#C79754;}
	.st23{opacity:0.43;fill:#87653A;enable-background:new    ;}
	.st24{fill:#FFFFFF;stroke:#263238;stroke-miterlimit:10;}
	.st25{fill:#1365B0;}
	.st26{fill:#F3725F;}
	.st27{fill:#FAFBFB;}
	.st28{fill:#F5F5F5;}
	.st29{fill:url(#SVGID_1_);}
	.st30{fill:#E6E7E8;}
	.st31{fill:#9AB1BA;}
	.st32{fill:#96B2BD;}
	.st33{fill:#3097D3;}
	.st34{fill:#7ACAB7;}
</style>
<g>
	<g id="Layer_2_00000090989957972567935200000015578053214458117008_">
		<g id="Layer_1-2">
			<rect x="33.7" y="46.7" class="st0" width="384.9" height="269.9"/>
			<path class="st1" d="M387.8,206.3c0,0,6.1-4.1,11.4-2.9c0,0,3.4,0.5,3.5,2.9"/>
			<path class="st1" d="M403.7,199.2c0.3,1.3,1,2.5,1.9,3.4c1.1,0.9,2.4,1.2,3.8,1c1.1-0.2,2.1-0.4,3.1-0.7c2.4-0.7,4.9-0.7,7.4-0.2
				"/>
			<line class="st2" x1="414" y1="199" x2="400.1" y2="202.9"/>
			<rect x="33.7" y="335.4" class="st3" width="384.9" height="93.3"/>
			<g class="st4">
				<path class="st5" d="M60.9,394.2v-21.7h10.3c2.7,0,4.6,0.5,6,1.6c1.3,1,2,2.4,2,4.1c0,1.1-0.3,2.1-0.8,3
					c-0.5,0.8-1.3,1.5-2.2,1.9c-0.9,0.5-2,0.7-3.3,0.7l0.6-1.3c1.3,0,2.5,0.2,3.5,0.7c1,0.4,1.8,1.1,2.4,2c0.6,0.9,0.9,1.9,0.9,3.2
					c0,1.9-0.7,3.3-2.1,4.4c-1.4,1-3.5,1.6-6.3,1.6H60.9z M65.8,390.5h5.7c1.3,0,2.2-0.2,2.9-0.6c0.7-0.4,1-1.1,1-2
					c0-0.9-0.3-1.6-1-2c-0.7-0.4-1.6-0.7-2.9-0.7h-6.1v-3.7h5.2c1.2,0,2.1-0.2,2.7-0.6c0.6-0.4,0.9-1.1,0.9-1.9
					c0-0.8-0.3-1.5-0.9-1.9c-0.6-0.4-1.5-0.6-2.7-0.6h-4.9V390.5z"/>
				<path class="st5" d="M91.7,394.5c-1.8,0-3.5-0.4-4.9-1.1c-1.4-0.7-2.5-1.8-3.2-3.1c-0.8-1.3-1.1-2.8-1.1-4.4
					c0-1.7,0.4-3.2,1.1-4.5c0.8-1.3,1.8-2.3,3.1-3c1.3-0.7,2.8-1.1,4.4-1.1c1.6,0,3,0.3,4.3,1c1.3,0.7,2.3,1.7,3,3
					c0.7,1.3,1.1,2.8,1.1,4.6c0,0.2,0,0.4,0,0.6c0,0.2,0,0.5-0.1,0.7H86.2v-2.8h10.7l-1.8,0.8c0-0.9-0.2-1.6-0.5-2.3
					c-0.3-0.6-0.8-1.1-1.4-1.5s-1.3-0.5-2.1-0.5c-0.8,0-1.5,0.2-2.1,0.5c-0.6,0.4-1.1,0.9-1.4,1.5c-0.3,0.7-0.5,1.4-0.5,2.3v0.7
					c0,0.9,0.2,1.7,0.6,2.4c0.4,0.7,0.9,1.2,1.7,1.6c0.7,0.4,1.6,0.5,2.5,0.5c0.9,0,1.6-0.1,2.3-0.4c0.7-0.3,1.2-0.7,1.8-1.2
					l2.5,2.8c-0.7,0.9-1.7,1.5-2.8,2C94.4,394.3,93.1,394.5,91.7,394.5z"/>
				<path class="st5" d="M110.5,394.5c-1.7,0-3.3-0.4-4.7-1.1c-1.4-0.7-2.4-1.8-3.2-3.1c-0.8-1.3-1.2-2.8-1.2-4.4
					c0-1.7,0.4-3.2,1.2-4.5c0.8-1.3,1.8-2.3,3.2-3c1.4-0.7,2.9-1.1,4.7-1.1c1.7,0,3.2,0.4,4.5,1.1c1.3,0.7,2.2,1.8,2.8,3.2l-3.6,2
					c-0.4-0.8-0.9-1.4-1.6-1.7s-1.3-0.6-2.1-0.6c-0.8,0-1.5,0.2-2.2,0.6c-0.6,0.4-1.1,0.9-1.5,1.6c-0.4,0.7-0.6,1.5-0.6,2.5
					c0,1,0.2,1.8,0.6,2.5c0.4,0.7,0.9,1.2,1.5,1.6c0.6,0.4,1.4,0.6,2.2,0.6c0.7,0,1.4-0.2,2.1-0.5s1.2-0.9,1.6-1.8l3.6,2
					c-0.6,1.3-1.5,2.4-2.8,3.1C113.7,394.1,112.2,394.5,110.5,394.5z"/>
				<path class="st5" d="M127.9,394.5c-1.7,0-3.3-0.4-4.6-1.1c-1.3-0.7-2.4-1.8-3.2-3.1c-0.8-1.3-1.2-2.8-1.2-4.4
					c0-1.7,0.4-3.2,1.2-4.5c0.8-1.3,1.8-2.3,3.2-3c1.3-0.7,2.9-1.1,4.6-1.1c1.7,0,3.2,0.4,4.6,1.1c1.3,0.7,2.4,1.7,3.2,3
					c0.8,1.3,1.1,2.8,1.1,4.5c0,1.7-0.4,3.1-1.1,4.4c-0.8,1.3-1.8,2.3-3.2,3.1C131.2,394.1,129.6,394.5,127.9,394.5z M127.9,390.5
					c0.8,0,1.5-0.2,2.1-0.6c0.6-0.4,1.1-0.9,1.5-1.6c0.4-0.7,0.5-1.5,0.5-2.5c0-1-0.2-1.8-0.5-2.5s-0.9-1.2-1.5-1.6
					c-0.6-0.4-1.3-0.6-2.1-0.6c-0.8,0-1.5,0.2-2.1,0.6s-1.1,0.9-1.5,1.6c-0.4,0.7-0.6,1.5-0.6,2.5c0,1,0.2,1.8,0.6,2.5
					c0.4,0.7,0.9,1.2,1.5,1.6S127.2,390.5,127.9,390.5z"/>
				<path class="st5" d="M160.7,377.3c1.3,0,2.4,0.3,3.4,0.8c1,0.5,1.8,1.3,2.4,2.4c0.6,1.1,0.9,2.5,0.9,4.2v9.6h-4.7v-8.8
					c0-1.3-0.3-2.3-0.8-3c-0.5-0.6-1.3-1-2.3-1c-0.7,0-1.3,0.2-1.8,0.5c-0.5,0.3-1,0.8-1.3,1.4c-0.3,0.6-0.5,1.5-0.5,2.5v8.4h-4.7
					v-8.8c0-1.3-0.3-2.3-0.8-3c-0.5-0.6-1.3-1-2.3-1c-0.7,0-1.3,0.2-1.8,0.5c-0.5,0.3-1,0.8-1.3,1.4c-0.3,0.6-0.5,1.5-0.5,2.5v8.4
					H140v-16.7h4.5v4.6l-0.8-1.3c0.6-1.1,1.4-2,2.4-2.6c1-0.6,2.2-0.9,3.5-0.9c1.5,0,2.8,0.4,3.9,1.2s1.9,2,2.2,3.6l-1.7-0.5
					c0.5-1.3,1.4-2.3,2.6-3.1C157.8,377.7,159.2,377.3,160.7,377.3z"/>
				<path class="st5" d="M179.7,394.5c-1.8,0-3.5-0.4-4.9-1.1c-1.4-0.7-2.5-1.8-3.2-3.1c-0.8-1.3-1.1-2.8-1.1-4.4
					c0-1.7,0.4-3.2,1.1-4.5c0.8-1.3,1.8-2.3,3.1-3c1.3-0.7,2.8-1.1,4.4-1.1c1.6,0,3,0.3,4.3,1c1.3,0.7,2.3,1.7,3,3
					c0.7,1.3,1.1,2.8,1.1,4.6c0,0.2,0,0.4,0,0.6c0,0.2,0,0.5-0.1,0.7h-13.2v-2.8H185l-1.8,0.8c0-0.9-0.2-1.6-0.5-2.3
					c-0.3-0.6-0.8-1.1-1.4-1.5s-1.3-0.5-2.1-0.5c-0.8,0-1.5,0.2-2.1,0.5c-0.6,0.4-1.1,0.9-1.4,1.5c-0.3,0.7-0.5,1.4-0.5,2.3v0.7
					c0,0.9,0.2,1.7,0.6,2.4c0.4,0.7,0.9,1.2,1.7,1.6c0.7,0.4,1.6,0.5,2.5,0.5c0.9,0,1.6-0.1,2.3-0.4c0.7-0.3,1.2-0.7,1.8-1.2
					l2.5,2.8c-0.7,0.9-1.7,1.5-2.8,2C182.5,394.3,181.2,394.5,179.7,394.5z"/>
				<path class="st5" d="M204.2,394.5c-1.3,0-2.4-0.2-3.3-0.7s-1.6-1.1-2.1-1.8c-0.5-0.8-0.7-1.6-0.7-2.6c0-1,0.2-1.9,0.7-2.6
					c0.5-0.7,1.2-1.3,2.2-1.8s2.4-0.6,4-0.6h4.3v2.8h-3.8c-1.1,0-1.9,0.2-2.3,0.6c-0.4,0.4-0.6,0.8-0.6,1.4c0,0.6,0.2,1.1,0.7,1.5
					c0.5,0.4,1.1,0.5,1.9,0.5c0.8,0,1.5-0.2,2.1-0.6c0.6-0.4,1.1-0.9,1.4-1.7l0.7,2.2c-0.3,1.1-1,1.9-1.9,2.5
					C206.8,394.2,205.6,394.5,204.2,394.5z M209.2,394.2V391l-0.3-0.7v-5.8c0-1-0.3-1.8-0.9-2.4c-0.6-0.6-1.6-0.9-2.8-0.9
					c-0.9,0-1.7,0.1-2.5,0.4c-0.8,0.3-1.5,0.7-2.1,1.1l-1.7-3.4c0.9-0.6,1.9-1.1,3.2-1.5c1.2-0.4,2.5-0.5,3.8-0.5
					c2.5,0,4.4,0.6,5.8,1.8c1.4,1.2,2,3.1,2,5.6v9.5H209.2z"/>
				<path class="st5" d="M225.3,394.2V391l13-16.2l0.6,1.8h-13.4v-4.1h17.7v3.3l-13,16.2l-0.6-1.8h14.1v4.1H225.3z"/>
				<path class="st5" d="M252.1,394.2v-8.9l1.1,3l-9.3-15.9h5.2l7.1,12.2h-3l7.1-12.2h4.8l-9.3,15.9l1.1-3v8.9H252.1z"/>
				<path class="st5" d="M263.2,394.2l9.4-21.7h4.8l9.4,21.7h-5.1L274,375h1.9l-7.7,19.2H263.2z M267.9,389.6l1.3-3.8H280l1.3,3.8
					H267.9z"/>
				<path class="st5" d="M289,394.2v-21.7h9.1c1.9,0,3.5,0.3,4.9,0.9s2.4,1.5,3.2,2.7c0.7,1.2,1.1,2.6,1.1,4.2c0,1.6-0.4,3-1.1,4.2
					c-0.7,1.2-1.8,2.1-3.2,2.7s-3,0.9-4.9,0.9h-6.4l2.2-2.3v8.3H289z M293.9,386.5l-2.2-2.4h6.1c1.5,0,2.6-0.3,3.4-1
					c0.7-0.7,1.1-1.6,1.1-2.8c0-1.2-0.4-2.1-1.1-2.8c-0.7-0.7-1.9-1-3.4-1h-6.1l2.2-2.4V386.5z"/>
				<path class="st5" d="M307,394.2l9.4-21.7h4.8l9.4,21.7h-5.1l-7.7-19.2h1.9l-7.7,19.2H307z M311.7,389.6l1.3-3.8h10.8l1.3,3.8
					H311.7z"/>
				<path class="st5" d="M330.7,394.2l9.4-21.7h4.8l9.4,21.7h-5.1l-7.7-19.2h1.9l-7.7,19.2H330.7z M335.4,389.6l1.3-3.8h10.8
					l1.3,3.8H335.4z"/>
				<path class="st5" d="M356.6,394.2v-21.7h9.1c1.9,0,3.5,0.3,4.9,0.9s2.4,1.5,3.2,2.7c0.7,1.2,1.1,2.6,1.1,4.2
					c0,1.6-0.4,3-1.1,4.2c-0.7,1.2-1.8,2.1-3.2,2.7s-3,0.9-4.9,0.9h-6.4l2.2-2.2v8.3H356.6z M361.5,386.5l-2.2-2.4h6.1
					c1.5,0,2.6-0.3,3.4-1c0.7-0.7,1.1-1.6,1.1-2.8c0-1.2-0.4-2.1-1.1-2.8c-0.7-0.7-1.9-1-3.4-1h-6.1l2.2-2.4V386.5z M370,394.2
					l-5.3-7.9h5.2l5.3,7.9H370z"/>
				<path class="st5" d="M378.7,394.2v-21.7h4.9v21.7H378.7z"/>
				<path class="st5" d="M390.5,394.5c-0.8,0-1.5-0.3-2.1-0.8c-0.5-0.6-0.8-1.2-0.8-2c0-0.8,0.3-1.4,0.8-2c0.5-0.5,1.2-0.8,2.1-0.8
					c0.9,0,1.6,0.3,2.1,0.8c0.5,0.5,0.8,1.2,0.8,2c0,0.8-0.3,1.4-0.8,2C392,394.2,391.3,394.5,390.5,394.5z M388.6,386.7l-0.9-14.2
					h5.6l-0.9,14.2H388.6z"/>
			</g>
			<rect x="341.9" y="256.6" class="st6" width="15" height="1.8"/>
			<line class="st7" x1="337.1" y1="248.7" x2="323" y2="248.7"/>
			<polygon class="st8" points="315.1,200.2 297.1,197.6 261.3,202.9 251.2,206.5 253,228.5 287.5,234.9 310.8,228 319.5,215 			"/>
			<path class="st9" d="M326.4,202.3l-15-3.5c0,0-10.6,32.8-36.8,31.4c-21.3-1.1-21.6-25-21.6-25l-15.4,4.9c0,0-5.9,39.4,0.6,67.4
				c1.5,6.5,3.6,15.3,3.6,15.3l-2.1,40.8l113.7,0.2L326.4,202.3z"/>
			<g class="st10">
				<path d="M281.8,325.8c5.5-0.1,10.6,0.3,16.2,0.2c6.6-0.2,13.3-0.3,19.9,0.8c4.9,0.8,9.7,2.3,14.6,3.1c6.7,1.1,13.9,0.7,19.8-2.5
					l-1-5.6l-22.7-5.5L281.8,325.8z"/>
			</g>
			<path class="st9" d="M224.8,219.3c5.2-6.7,13.9-9.5,13.9-9.5l5.8,50.7l-11,73.8l-36.1-0.2C197.3,334.1,217.2,229.1,224.8,219.3z"
				/>
			<path class="st9" d="M324.6,202c0,0,24.3,1.9,33,41.8c4,18,8.9,39.1,10.4,53.3c1,10.3-4.5,26.4-14.8,27.7l-12.9,1.7
				c-2.5,0.4-5.1,0.3-7.6-0.3c-8.1-1.9-9-7.5-10.4-13.4l-3.8-11.9c-2.1-11.3,8.5-13.4,14.3-13.3l-4.3-51.6L324.6,202z"/>
			<path class="st11" d="M235.6,238c-0.1,0.2-0.1,0.4-0.1,0.6l-0.2,1.6c0,0.4-0.1,0.7-0.2,1.2s-0.1,0.9-0.1,1.4
				c-0.1,1-0.2,2.1-0.3,3.4c-0.2,2.9-0.2,5.9-0.1,8.9c0.2,3.6,0.5,7.2,1.1,10.8c0.6,3.8,1.3,7.4,2,10.7s1.4,6.2,2,8.6
				s1.1,4.4,1.5,5.8l0.4,1.6c0,0.2,0.1,0.4,0.2,0.5c0-0.2-0.1-0.4-0.1-0.6l-0.4-1.6l-1.4-5.8c-0.6-2.5-1.3-5.4-1.9-8.6
				s-1.4-6.9-1.9-10.6s-1-7.4-1.1-10.8s-0.2-6.3,0-8.8c0-1.2,0.1-2.4,0.2-3.4c0-0.5,0.1-1,0.1-1.4s0.1-0.8,0.1-1.2
				c0.1-0.7,0.1-1.2,0.2-1.6C235.6,238.4,235.6,238.2,235.6,238z"/>
			<path class="st11" d="M351.9,301.6c0-0.3-0.1-0.7-0.2-1c-0.2-0.9-0.5-1.8-0.9-2.6c-2.6-5.7-8-9.7-14.3-10.4
				c-0.9-0.1-1.9-0.1-2.8-0.1c-0.3,0-0.7,0-1,0.1c0,0.1,1.5-0.1,3.8,0.2c3,0.4,5.9,1.6,8.3,3.4c2.4,1.8,4.4,4.2,5.7,6.9
				C351,299.2,351.5,300.4,351.9,301.6z"/>
			<path class="st11" d="M346.3,281.7c0,0-0.2,0-0.6-0.1c-0.5,0-1.1,0-1.6,0.1c-3.5,0.4-6.9,1.8-9.7,4c-0.4,0.3-0.8,0.7-1.2,1.1
				c-0.1,0.1-0.3,0.3-0.4,0.5c0,0,0.7-0.5,1.7-1.3c1.4-1,2.9-1.9,4.5-2.5c1.6-0.7,3.3-1.1,5-1.4
				C345.4,281.8,346.3,281.8,346.3,281.7z"/>
			<path class="st11" d="M321.1,230.2c0-0.4,0.1-0.7,0-1.1c0-0.7,0-1.7,0.1-2.9c0.4-6.4,2.2-12.6,5.1-18.2c0.6-1.1,1-1.9,1.4-2.5
				c0.2-0.3,0.4-0.6,0.5-0.9c-0.2,0.3-0.5,0.5-0.6,0.9c-0.4,0.6-0.9,1.4-1.5,2.5c-1.5,2.8-2.8,5.8-3.6,8.9c-0.9,3.1-1.4,6.3-1.5,9.5
				c0,1.2,0,2.2,0,2.9C321,229.5,321.1,229.8,321.1,230.2z"/>
			<path class="st11" d="M274.6,266.3c0,0.1,0.1,0.3,0.1,0.4c0.1,0.3,0.2,0.7,0.4,1.2c0.5,1.4,1.2,2.8,2,4.1
				c5.4,8.8,15.5,13.7,25.8,12.4c1.5-0.2,3-0.5,4.5-1c0.5-0.1,0.9-0.3,1.2-0.4c0.1,0,0.3-0.1,0.4-0.2c0,0-0.6,0.2-1.6,0.5
				c-1.5,0.4-2.9,0.7-4.5,0.9c-10.2,1.2-20.1-3.6-25.5-12.2c-0.8-1.3-1.5-2.6-2.1-4C274.8,266.9,274.6,266.3,274.6,266.3z"/>
			<path class="st11" d="M325.8,322.3c0,0,0.4,0.5,1.3,1.3c1.3,1,2.8,1.7,4.5,2.1c2.4,0.6,4.9,0.8,7.3,0.6c2.8-0.2,5.8-0.5,9-1
				c3-0.4,5.9-1.1,8.8-2c1.2-0.5,2.3-1.3,3.2-2.2c0.8-0.8,1.6-1.6,2.3-2.6c1-1.3,1.8-2.8,2.5-4.3c0.2-0.5,0.4-1,0.5-1.2
				c0-0.2,0.1-0.3,0.2-0.4c0,0.2-0.1,0.3-0.1,0.5c-0.1,0.3-0.2,0.7-0.5,1.3c-0.6,1.6-1.4,3-2.4,4.4c-0.7,1-1.4,1.8-2.3,2.6
				c-1,0.9-2.1,1.7-3.3,2.2c-2.9,1-5.9,1.7-8.9,2.1c-3.2,0.5-6.2,0.8-9,1c-2.5,0.2-5-0.1-7.4-0.7c-1.6-0.4-3.2-1.2-4.5-2.3
				c-0.3-0.3-0.7-0.6-1-1C325.9,322.6,325.9,322.5,325.8,322.3z"/>
			<path class="st11" d="M321.8,242.9c0.1,0,2.7,9.9,5.7,22.2c3.1,12.3,5.5,22.3,5.3,22.3s-2.7-9.9-5.7-22.2
				S321.7,242.9,321.8,242.9z"/>
			<path class="st11" d="M318.7,299c-0.1-0.3-0.1-0.5-0.1-0.8c-0.1-0.8-0.1-1.5,0-2.3c0.1-1.1,0.5-2.2,1.1-3.2
				c0.4-0.6,0.8-1.1,1.2-1.6c0.5-0.5,1.1-0.9,1.7-1.3c2.2-1.2,4.6-1.9,7.1-2.3c0.7-0.1,1.5-0.2,2.2-0.2c0.3,0,0.6,0,0.8,0
				c0,0.1-1.2,0.1-3,0.4c-2.4,0.4-4.7,1.2-6.9,2.4c-0.6,0.3-1.2,0.7-1.7,1.2c-0.5,0.5-0.9,1-1.2,1.5c-0.6,0.9-1,1.9-1.1,3
				c-0.1,0.7-0.1,1.5-0.1,2.2C318.8,298.4,318.7,298.7,318.7,299z"/>
			<g class="st10">
				<path d="M236.7,271.4c-6.2-10.5-6.3-24.1-0.9-35.1c-1.7,11.6-1.4,23.5,1.1,35"/>
			</g>
			<path class="st8" d="M269.5,297.6L269.5,297.6z"/>
			<path class="st8" d="M269.8,297.7h0.1H269.8z"/>
			<path class="st8" d="M269.6,297.6l0.2,0.1L269.6,297.6z"/>
			<path class="st8" d="M269.5,297.6L269.5,297.6L269.5,297.6z"/>
			<path class="st8" d="M246.6,318.5c1.9-3.7,17.2-13.4,17.2-13.4l-4.1-1l-4.6,1.9c-0.4,1.5-1,3-2,4.3c-1.7,2.4-4.5-0.1-4.5-0.1
				l1.9-9.2l9-5.4c0,0,8.5,1.3,9.9,2l3.6,3.3c1.6,1.2,6.2,6.1,7.4,6.3s40.6-8.7,40.6-8.7l0,0c5.4,4.3,8.2,12.8,9.1,18.9
				c0,0,1,3-0.1,4.6l-48.3,3.8l-10.2,2.8c-2.7,1.1-5.6,2.1-8.4,2.9c-3.4,0.7-5.7-0.4-5.8-2.3s2.5-2.1,2.5-2.1
				c2.3-0.8,4.5-1.8,6.6-2.9c1.5-1,2.8-2.4,3.7-4.1l-3.6,0.4c0,0-7.8,5.4-10.7,7s-3.5-1.3-3.7-2.2s8.7-9.6,8.7-9.6s-8.5,5.2-10,6.6
				s-3.8,1.7-4.3,0.8S244.7,322.2,246.6,318.5z"/>
			<path class="st8" d="M269.9,297.8L269.9,297.8L269.9,297.8z"/>
			<path class="st8" d="M270,297.9"/>
			<path class="st8" d="M270,297.8L270,297.8L270,297.8z"/>
			<path class="st12" d="M288.6,319.4c0-0.2,0-0.4,0-0.6c0-0.2,0-0.5,0-0.7c0-0.3-0.1-0.6-0.2-0.9c-0.5-1.7-1.3-3.4-2.4-4.8
				c-1.1-1.4-2.4-2.7-3.7-3.9c-0.5-0.5-1.1-1-1.8-1.4c0.5,0.5,1,1.1,1.6,1.5c1.3,1.2,2.5,2.5,3.6,3.9c1.1,1.4,2,2.9,2.5,4.6
				C288.4,317.9,288.5,318.7,288.6,319.4z"/>
			<path class="st12" d="M264.2,304.8c1.8,0.3,3.6-0.3,4.8-1.6c-0.1-0.1-1,0.6-2.3,1S264.2,304.7,264.2,304.8z"/>
			<path class="st12" d="M261.6,314.9c1.3-0.3,2.6-0.8,3.9-1.4c1.3-0.5,2.5-1.1,3.7-1.7c-1.3,0.4-2.6,0.8-3.9,1.4
				C264.1,313.7,262.8,314.2,261.6,314.9z"/>
			<path class="st12" d="M269.8,320.1c0.7-0.2,1.4-0.4,2-0.7c0.7-0.2,1.3-0.5,1.9-0.8c-0.7,0-1.4,0.2-2.1,0.5
				C271,319.3,270.3,319.6,269.8,320.1z"/>
			<path class="st12" d="M262.9,315.6c0.6,0.4,1.1,0.8,1.5,1.3c0.4,0.6,0.7,1.2,0.9,1.8c0,0,0.1-0.2,0-0.6c-0.1-0.5-0.3-1-0.6-1.4
				c-0.3-0.4-0.7-0.7-1.2-1C263.1,315.6,262.9,315.5,262.9,315.6z"/>
			<path class="st12" d="M259.3,310c0,0.1,0.6,0.5,1.1,1.2c0.2,0.5,0.4,1,0.5,1.5c0.2-0.6,0.1-1.2-0.2-1.7
				C260.2,310.1,259.3,309.9,259.3,310z"/>
			<path class="st12" d="M260.5,299.9c0,0,0.2-0.1,0.3-0.5c0.3-0.9,0-1.9-0.6-2.5c-0.2-0.2-0.5-0.3-0.5-0.3c0.3,0.5,0.6,1,0.8,1.6
				C260.6,298.7,260.6,299.3,260.5,299.9z"/>
			<path class="st11" d="M330.5,323.4c-0.1-0.4-0.1-0.7-0.1-1.1c0-0.4,0-0.8,0-1.3s0-1.1-0.1-1.7c-0.3-3.3-1-6.6-2.1-9.7
				c-0.6-1.7-1.4-3.4-2.3-5c-0.4-0.7-0.8-1.4-1.3-2l-0.6-0.9l-0.6-0.8c-1.6-2-2.8-3-2.8-3c0.3,0.2,0.6,0.4,0.9,0.7
				c0.4,0.3,0.7,0.6,1,0.9c0.4,0.4,0.8,0.8,1.2,1.3l0.6,0.8c0.2,0.3,0.4,0.6,0.6,0.9c0.5,0.6,0.9,1.3,1.3,2c0.9,1.6,1.7,3.3,2.3,5
				c1.1,3.2,1.8,6.4,2,9.8c0.1,0.6,0,1.2,0.1,1.7s0,0.9,0,1.3C330.7,322.6,330.6,323,330.5,323.4z"/>
			<g class="st10">
				<path d="M347.1,288.9c-4.5-1.9-9.5-2.3-14.3-1.3l0,0c8.4-0.4,16.2,4.6,19.3,12.5c0.4,0.9,1,2,2,1.9s1.3-1.3,1.3-2.2
					C355.4,294.9,351.5,290.7,347.1,288.9z"/>
			</g>
			<path class="st5" d="M235.3,234.6c-0.2,0-0.4-0.1-0.6-0.2c-0.4-0.2-1-0.4-1.7-0.8c-3.7-1.8-7-4.3-9.8-7.2c-0.5-0.6-1-1-1.2-1.4
				c-0.2-0.2-0.3-0.3-0.4-0.6c0.6,0.5,1.2,1.1,1.8,1.7c1.5,1.4,3,2.7,4.6,3.9c1.6,1.2,3.3,2.3,5.1,3.3
				C233.9,233.7,234.6,234.1,235.3,234.6z"/>
			<path class="st5" d="M321.5,237.4l-0.2,0.1l-0.6,0.3c-0.5,0.3-1.2,0.7-2.2,1.2c-2.8,1.4-5.7,2.7-8.7,3.7c-4.4,1.5-9,2.6-13.6,3.3
				c-5.7,0.8-11.4,1.3-17.1,1.4c-6.1,0.1-11.9,0-17.1-0.1c-4.7-0.1-9.3-0.4-14-1.1c-3.1-0.4-6.2-1.2-9.2-2.1
				c-1.1-0.4-1.9-0.7-2.4-0.9l-0.6-0.3c-0.1-0.1-0.2-0.1-0.2-0.1l0.2,0.1l0.6,0.2c0.6,0.2,1.4,0.5,2.4,0.8c3,0.9,6.1,1.6,9.2,2
				c4.6,0.6,9.3,0.9,14,1c5.3,0.1,11,0.2,17.1,0.1c5.7-0.1,11.4-0.6,17-1.4c4.6-0.7,9.1-1.7,13.6-3.2c3-1,5.9-2.2,8.7-3.5
				c1-0.5,1.8-0.9,2.3-1.2l0.6-0.3C321.4,237.4,321.5,237.4,321.5,237.4z"/>
			<path class="st5" d="M235.6,263.9c-0.3,0-0.6-0.1-0.9-0.2l-2.5-0.7c-2.1-0.6-5-1.4-8.1-2.4s-6.1-1.8-8.1-2.5l-2.4-0.8
				c-0.3-0.1-0.6-0.2-0.9-0.3c0.3,0,0.6,0.1,0.9,0.2l2.5,0.7c2.1,0.6,5,1.4,8.1,2.4s6,1.8,8.1,2.5l2.4,0.8
				C235,263.7,235.3,263.8,235.6,263.9z"/>
			<path class="st5" d="M237.8,305.2c0,0.1-7.5-2-16.6-4.8s-16.6-5-16.5-5.1s7.5,2,16.6,4.8S237.8,305.1,237.8,305.2z"/>
			<path class="st5" d="M345.6,216c-0.3,0.2-0.5,0.5-0.8,0.6c-0.5,0.4-1.4,1-2.4,1.6c-5.3,3.4-10.9,6.2-16.9,8.3
				c-1.1,0.4-2.1,0.7-2.7,0.9c-0.3,0.1-0.7,0.2-1,0.3c0.3-0.2,0.7-0.3,1-0.4l2.7-1c2.2-0.9,5.3-2.1,8.6-3.7s6.2-3.3,8.2-4.5l2.4-1.5
				C345,216.3,345.3,216.1,345.6,216z"/>
			<path class="st5" d="M360.5,258.4c-0.4,0.2-0.8,0.4-1.2,0.6c-0.8,0.4-1.9,0.8-3.4,1.4c-3.8,1.4-7.7,2.5-11.6,3.2
				c-4,0.8-8,1.3-12,1.4c-1.5,0.1-2.8,0.1-3.6,0c-0.4,0-0.9,0-1.3-0.1c0.4-0.1,0.9-0.1,1.3-0.1c0.9,0,2.1-0.1,3.6-0.2
				c8-0.5,15.9-2.1,23.5-4.7c1.5-0.5,2.6-0.9,3.4-1.2C359.6,258.6,360,258.5,360.5,258.4z"/>
			<path class="st5" d="M339,326.2c0-0.1,0-0.3,0-0.4c0-0.3,0.1-0.7,0.2-1.2s0.2-1.1,0.3-1.9s0.2-1.6,0.2-2.5c0-0.5,0-0.9,0.1-1.4
				s0-1,0-1.6c0-1.1,0-2.2-0.1-3.5c-0.4-5.3-1.6-10.5-3.7-15.3c-0.5-1.1-1-2.2-1.5-3.1c-0.2-0.5-0.5-1-0.7-1.4l-0.7-1.2
				c-0.5-0.8-0.9-1.5-1.3-2.1s-0.8-1.1-1.1-1.5l-0.7-1c-0.1-0.1-0.2-0.2-0.2-0.4c0.1,0.1,0.2,0.2,0.3,0.3l0.8,0.9
				c0.3,0.4,0.7,0.9,1.1,1.5s0.9,1.3,1.4,2.1l0.8,1.2c0.3,0.4,0.5,0.9,0.8,1.4c0.5,1,1,2,1.5,3.1c1,2.4,1.9,5,2.5,7.6
				c0.6,2.6,1,5.2,1.2,7.9c0,1.2,0.1,2.4,0.1,3.5c0,0.5,0,1.1,0,1.6s-0.1,1-0.1,1.5c0,0.9-0.2,1.8-0.3,2.5s-0.2,1.4-0.3,1.9
				s-0.2,0.9-0.3,1.2C339.1,325.9,339,326.1,339,326.2z"/>
			<path class="st5" d="M367.8,303.3c0,0-0.1-0.6-0.2-1.7c-0.3-1.5-0.7-3-1.5-4.3c-1.1-2-2.5-3.8-4.2-5.3c-2.1-1.8-4.5-3.3-7.2-4.2
				c-2.6-0.9-5.4-1.4-8.2-1.5c-2.3-0.1-4.6,0-6.9,0.3c-2,0.2-3.5,0.4-4.6,0.5l-1.2,0.1c-0.1,0-0.3,0-0.4,0c0.1,0,0.3-0.1,0.4-0.1
				l1.2-0.2c1.1-0.2,2.7-0.4,4.6-0.6c2.3-0.3,4.6-0.4,6.9-0.3c2.8,0.1,5.6,0.5,8.3,1.4c2.7,0.9,5.2,2.4,7.3,4.3
				c1.7,1.5,3.2,3.4,4.2,5.5c0.7,1.4,1.2,2.9,1.4,4.5c0.1,0.4,0.1,0.8,0.1,1.3C367.8,303.1,367.8,303.2,367.8,303.3z"/>
			<path class="st5" d="M287.5,281.7l-0.4,0.1l-1.2,0.1l-4.5,0.4c-3.8,0.3-9,0.6-14.8,1s-11,0.5-14.8,0.5c-1.9,0-3.4,0-4.5,0h-1.2
				c-0.1,0-0.3,0-0.4,0h0.4h1.2l4.5-0.1c3.8-0.1,9-0.3,14.8-0.6l14.8-1l4.5-0.2h1.2C287.3,281.7,287.4,281.7,287.5,281.7z"/>
			<g class="st10">
				<path d="M291.9,283.3c4.7,1.4,11.2,1.7,15.8,0c-3.6,5.1-10.5,6.9-16.5,5.3s-11.5-7.7-12-13.9
					C282.4,278.8,286.9,281.8,291.9,283.3z"/>
			</g>
			<path class="st5" d="M330,278.4c-0.1,0.1-0.2,0.1-0.4,0.1l-1.1,0.2c-0.9,0.2-2.3,0.5-4,0.8c-3.4,0.6-8.1,1.3-13.3,2
				s-10,1.1-13.4,1.3c-1.7,0.1-3.1,0.2-4.1,0.2h-1.1c-0.3,0-0.4,0-0.4,0c0.1,0,0.3-0.1,0.4-0.1l1.1-0.1l4.1-0.4
				c3.4-0.3,8.2-0.8,13.4-1.4s9.9-1.3,13.3-1.9l4-0.6l1.1-0.1C329.9,278.4,330,278.3,330,278.4z"/>
			<g class="st10">
				<path d="M322.2,245.1c-1.2,13.5,2.5,26.9,6.1,40c0.2,0.8,0.5,1.6,1,2.2c0.5,0.7,1.4,0.9,2.2,0.6c1.1-0.6,1-2.2,0.7-3.5
					l-10.1-38.8"/>
			</g>
			<path class="st13" d="M133.2,258.6l15.3,75.3h133.1c1.5,0,2.7-1.2,2.7-2.7l0,0l0,0c0-1.5-1.2-2.7-2.7-2.7l0,0h-26.8l-14.2-70
				c-0.3-1.3-1.4-2.3-2.8-2.3l-101.8-1.1c-1.6,0-2.9,1.3-2.9,2.9C133.2,258.2,133.2,258.4,133.2,258.6z"/>
			<path class="st11" d="M133.2,258.6c0,0,0-0.1,0-0.2c0-0.2,0-0.5,0-0.7c0.1-0.9,0.6-1.7,1.4-2.2c0.3-0.2,0.6-0.3,0.9-0.4
				c0.3-0.1,0.7-0.1,1-0.1h2.4h6l38.5,0.4l26.8,0.3l15,0.2l7.9,0.1h4c0.3,0,0.7,0,1,0c0.3,0,0.7,0.1,1,0.3c0.6,0.3,1.2,0.9,1.5,1.5
				c0.1,0.3,0.2,0.7,0.3,1l0.2,1l0.4,2c0.3,1.4,0.6,2.7,0.8,4.1c0.6,2.8,1.1,5.5,1.7,8.4c1.1,5.7,2.3,11.4,3.5,17.3
				c2.4,11.8,4.9,24.1,7.5,36.7l-0.2-0.1h26.4c0.3,0,0.7,0,1,0.1c1.5,0.3,2.5,1.9,2.2,3.4c-0.2,0.8-0.7,1.5-1.4,1.9
				c-0.4,0.2-0.8,0.3-1.3,0.3h-70.6h-62.5h-0.1v-0.1c-4.7-23.1-8.5-42-11.1-55c-1.3-6.5-2.3-11.6-3-15c-0.3-1.7-0.6-3-0.8-3.9
				s-0.2-1.3-0.2-1.3s0.1,0.5,0.3,1.3s0.4,2.2,0.8,3.9c0.7,3.5,1.8,8.5,3.1,15c2.7,13,6.5,31.9,11.3,55l-0.1-0.1h62.5h70.7
				c0.4,0,0.8-0.1,1.1-0.3c1.2-0.6,1.6-2.1,1-3.3c-0.3-0.6-1-1.1-1.7-1.2c-0.3-0.1-0.7-0.1-1-0.1h-26.5v-0.1
				c-2.6-12.7-5.1-24.9-7.4-36.7c-1.2-5.9-2.4-11.7-3.5-17.3c-0.6-2.8-1.1-5.6-1.7-8.4c-0.3-1.4-0.6-2.8-0.8-4.1l-0.4-2l-0.2-1
				c-0.1-0.3-0.1-0.7-0.3-1c-0.3-0.6-0.7-1.1-1.3-1.4c-0.3-0.1-0.6-0.2-0.9-0.3c-0.3,0-0.7,0-1,0l-4,0l-7.9-0.1l-15-0.2l-26.8-0.3
				l-38.5-0.5l-6-0.1h-2.4c-0.3,0-0.7,0-1,0.1c-0.3,0.1-0.6,0.2-0.9,0.3c-0.8,0.5-1.3,1.3-1.4,2.2
				C133.2,258,133.2,258.3,133.2,258.6z"/>
			<path class="st5" d="M194.6,293c0,2.4-2,4.4-4.4,4.4c-2.4,0-4.4-2-4.4-4.4s2-4.4,4.4-4.4h0C192.6,288.6,194.6,290.6,194.6,293z"
				/>
			<path class="st11" d="M133.4,259.2h7l19,0.1l62.8,0.4l9.1,0.1h2.2c0.4,0,0.8,0,1.1,0.1c0.4,0.1,0.7,0.2,1.1,0.4
				c0.7,0.4,1.1,1.1,1.4,1.8c0.2,0.7,0.3,1.4,0.4,2.1c1.1,5.7,2.2,11.1,3.2,16.4c2.1,10.4,3.9,19.8,5.5,27.7s2.8,14.3,3.7,18.7
				c0.4,2.2,0.8,3.9,1,5.1c0.1,0.6,0.2,1,0.2,1.3s0.1,0.5,0.1,0.5s0-0.1-0.1-0.5s-0.2-0.8-0.3-1.3l-1-5.1
				c-0.9-4.4-2.2-10.8-3.8-18.7l-5.6-27.7c-1-5.2-2.1-10.7-3.3-16.4c-0.1-0.7-0.3-1.4-0.4-2.1c-0.3-1-1.1-1.8-2.1-2
				c-0.4-0.1-0.7-0.1-1.1-0.1h-2.2l-9.1-0.1l-62.8-0.5l-19-0.2l-5.2-0.1h-1.3C133.5,259.2,133.4,259.2,133.4,259.2z"/>
			<path class="st11" d="M311.1,144.9c0.3,14.1-5.4,27.6-15.7,37.2l-7-20.4"/>
			<path class="st11" d="M258.1,104.3c6-3.3,13.3-3.8,20.1-2.4s13,4.4,19,7.8c3.3,1.9,6.7,4.1,9.1,7.1c4.4,5.5,8.7,14.6,9.1,21.6
				c0.4,5.7-1.8,19.9-4.2,25.1c-2.2,4.7-12.5,8.4-17.6,9.5l-46.8-54.4C248.5,112.6,252.6,107.4,258.1,104.3z"/>
			<path class="st11" d="M250.1,111.7l11.2-2c-6.1,14.6-7.8,48-11.3,63.4c-4.1-6-13.7-24.2-13.2-31.5S236.8,110.4,250.1,111.7z"/>
			<path class="st8" d="M303.2,136c-0.4-8.4-6.3-15.6-14.4-17.6l-25.8-6.6c-11.1-1.2-18.6,12.5-19.3,23.7
				c-0.8,12.4-1.3,25.6,0.1,34.8c2.9,18.7,17.2,21.1,17.2,21.1s0,8.9,0,14.3l8.6,35.7l27.9-38.4l5.8-66.8
				C303.3,135.9,303.2,136.4,303.2,136z"/>
			<path class="st11" d="M249.3,149.6c0,1.3,1,2.4,2.3,2.4c1.3,0.1,2.4-0.8,2.5-2.1c0,0,0,0,0-0.1c0-1.3-1-2.4-2.3-2.4
				C250.5,147.3,249.4,148.2,249.3,149.6C249.3,149.5,249.3,149.5,249.3,149.6z"/>
			<path class="st11" d="M246.5,142.8c0.3,0.3,2.1-1,4.7-1s4.5,1.3,4.7,1c0.1-0.1-0.2-0.7-1-1.3c-1.1-0.8-2.4-1.2-3.8-1.2
				c-1.3,0-2.6,0.4-3.7,1.2C246.6,142.1,246.3,142.6,246.5,142.8z"/>
			<path class="st11" d="M271.7,149.6c0,1.3,1,2.4,2.3,2.4c1.3,0.1,2.4-0.8,2.5-2.1c0,0,0,0,0-0.1c0-1.3-1-2.4-2.3-2.4
				C272.9,147.3,271.8,148.3,271.7,149.6C271.7,149.5,271.7,149.5,271.7,149.6z"/>
			<path class="st11" d="M270.9,142.8c0.3,0.3,2.1-1,4.7-1s4.5,1.3,4.7,1c0.1-0.1-0.2-0.7-1-1.3c-1.1-0.8-2.4-1.2-3.8-1.2
				c-1.3,0-2.6,0.4-3.7,1.2C271,142.1,270.8,142.6,270.9,142.8z"/>
			<path class="st11" d="M262.9,163c0-0.1-1.6-0.4-4.2-0.8c-0.7-0.1-1.3-0.2-1.4-0.6c-0.1-0.7,0.1-1.4,0.4-1.9c0.6-1.6,1.3-3.3,2-5
				c2.7-7.1,4.7-13,4.4-13.1s-2.7,5.6-5.4,12.7l-1.9,5c-0.4,0.8-0.5,1.7-0.3,2.6c0.2,0.5,0.6,0.9,1.1,1c0.4,0.1,0.7,0.2,1.1,0.2
				C261.2,163.1,262.9,163.1,262.9,163z"/>
			<path class="st12" d="M285.8,184.7c0,0-6.1,12.8-24.7,11v-4.4C269.7,191.5,278.3,189.2,285.8,184.7z"/>
			<path class="st11" d="M271.7,133.4c0.2,0.7,2.8,0.4,5.8,0.8s5.5,1.2,5.9,0.6c0.2-0.3-0.2-1-1.2-1.6c-2.7-1.7-6-2.1-8.9-1
				C272.2,132.6,271.6,133.1,271.7,133.4z"/>
			<path class="st11" d="M247.3,134.9c0.4,0.6,2.2,0,4.4,0s3.9,0.4,4.3-0.2c0.2-0.3-0.1-0.9-0.9-1.4c-1-0.7-2.3-1-3.5-1
				c-1.3,0-2.5,0.4-3.5,1.2C247.4,134,247.1,134.6,247.3,134.9z"/>
			<path class="st11" d="M248.7,118.4c1.1-2.8,4.2-4.5,7.2-4.6c3.1,0,6,0.9,8.6,2.5c11.1,6.4,16.8,21.9,27.8,28.6
				c2.7,1.6,6.2,0.1,8.5,2.3s3.8,5.6,2.5,8.5c1.6-2,2.9-4.1,3.8-6.4c1-2.4,0.8-5-0.3-7.3c-1-1.6-2.6-2.9-3.1-4.7
				c-0.4-1.6,0.2-3.3,0.2-5c-0.2-1.7-0.8-3.3-1.7-4.8c-4.3-7.6-10.2-14.5-17.8-18.8c-5-2.9-10.6-4.3-16.4-4.2
				c-5.8,0.1-11.3,2.3-15.6,6.2C250,112.9,247.5,115.3,248.7,118.4"/>
			<path class="st8" d="M300.6,149.5c0.2-0.5,9.9-4.1,10.1,6.3c0.1,10.1-10,8.1-10,7.8S300.6,149.5,300.6,149.5z"/>
			<path class="st12" d="M303.7,159.7c0,0,0.2,0.1,0.5,0.3c0.4,0.2,0.9,0.2,1.3,0c1.1-0.4,1.9-2.1,2-3.9c0-0.9-0.2-1.7-0.5-2.5
				c-0.2-0.6-0.7-1.1-1.3-1.3c-0.4-0.1-0.8,0.1-1,0.5c-0.1,0.3-0.1,0.5-0.1,0.5s-0.2-0.2-0.1-0.6c0.1-0.2,0.2-0.5,0.4-0.6
				c0.3-0.2,0.6-0.3,1-0.3c0.8,0.2,1.5,0.7,1.9,1.5c0.4,0.9,0.6,1.8,0.6,2.8c0,2-1.1,3.9-2.5,4.4c-0.5,0.2-1.1,0.1-1.6-0.2
				C303.8,160,303.7,159.7,303.7,159.7z"/>
			<path class="st14" d="M304.6,144.3c-0.2-0.1-0.4-0.2-0.6-0.3c-0.4-0.2-1-0.6-1.7-1.1c-2-1.4-3.8-3.1-5.4-4.9
				c-2.4-2.7-4.6-5.6-6.6-8.6c-2.5-3.7-5.2-7.1-8.2-10.4c-1.6-1.6-3.4-3-5.4-4.2c-1.8-1.1-3.8-2-5.8-2.6c-3.4-1.1-7-1.5-10.6-1.3
				c-2.4,0.2-4.8,0.6-7.1,1.4c-0.8,0.2-1.4,0.5-1.9,0.7c-0.2,0.1-0.4,0.2-0.6,0.2c0.2-0.1,0.4-0.2,0.6-0.3c0.6-0.3,1.2-0.6,1.8-0.8
				c2.3-0.9,4.7-1.4,7.2-1.6c3.6-0.3,7.3,0.1,10.8,1.2c2.1,0.6,4,1.5,5.9,2.6c2,1.2,3.8,2.7,5.4,4.3c3.1,3.2,5.9,6.7,8.3,10.4
				c2,3,4.2,5.9,6.5,8.6c1.6,1.8,3.4,3.5,5.3,5c0.7,0.5,1.3,0.9,1.6,1.1C304.3,144,304.5,144.1,304.6,144.3z"/>
			<path class="st5" d="M304.9,161.5c1.1-0.2,2.1,0.5,2.3,1.6c0.2,1.1-0.5,2.1-1.6,2.3c-1.1,0.2-2.1-0.5-2.3-1.6
				c-0.2-0.9,0.3-1.8,1.1-2.2"/>
			<path class="st11" d="M304.4,161.6c-0.4,0.3-0.7,0.8-0.9,1.4c-0.1,0.6,0,1.2,0.4,1.6c0.6,0.7,1.7,0.8,2.5,0.2
				c0.4-0.3,0.6-0.7,0.6-1.2c0.1-0.6-0.2-1.1-0.6-1.5c-0.4-0.3-1-0.6-1.5-0.6c0,0,0.1-0.1,0.5-0.1c0.5,0,0.9,0.2,1.2,0.4
				c0.6,0.4,0.9,1.1,0.8,1.8c-0.1,1.2-1.1,2.1-2.3,2c-0.6,0-1.2-0.3-1.5-0.8c-0.5-0.5-0.6-1.3-0.4-1.9c0.1-0.4,0.4-0.8,0.8-1.1
				C304.2,161.6,304.4,161.6,304.4,161.6z"/>
			<path class="st11" d="M302.1,147.1c0.2,2.7,0.3,5.6-1,8.1s-4.5,4.1-6.9,2.7c-2-1.1-2.5-3.6-2.9-5.8c-1-6.4-1.4-12.9-2.4-19.3
				L302.1,147.1z"/>
			<path class="st14" d="M251.2,113.6c0,0.1,0.9-0.2,2.5-0.2c2.3,0,4.5,0.4,6.7,1.2c1.5,0.6,2.9,1.3,4.2,2.2c1.5,1,2.9,2.1,4.3,3.3
				c3.2,2.7,6,5.7,8.4,9.1c1.3,1.8,2.4,3.6,3.6,5.3c1.2,1.7,2.5,3.2,4,4.5c2.6,2.2,5.5,4.1,8.5,5.7c2.6,1.4,4.7,2.3,6.2,3l1.7,0.7
				c0.2,0.1,0.4,0.2,0.6,0.2c-0.2-0.1-0.4-0.2-0.6-0.3l-1.7-0.8c-1.5-0.7-3.6-1.7-6.1-3.1c-3-1.6-5.8-3.5-8.3-5.7
				c-1.5-1.3-2.8-2.8-3.9-4.5c-1.2-1.7-2.3-3.5-3.6-5.4c-2.5-3.4-5.3-6.5-8.5-9.1c-1.4-1.2-2.9-2.3-4.4-3.3
				c-1.3-0.9-2.8-1.6-4.3-2.1c-2.2-0.8-4.5-1.2-6.8-1.1c-0.6,0-1.2,0.1-1.9,0.2C251.6,113.5,251.4,113.5,251.2,113.6z"/>
			<path class="st14" d="M302.4,140.9c0.3,0.2,0.6,0.4,0.9,0.6l2.5,1.5l0.9,0.5c0.3,0.2,0.7,0.3,1.1,0.4c0.2,0,0.5,0,0.7-0.2
				c0.2-0.2,0.4-0.4,0.4-0.7c0-0.5-0.2-0.9-0.5-1.3l-3-4.7l-0.4,0.4c2,1.4,4.4,2.1,6.8,2c0.3,0,0.6-0.1,0.9-0.2
				c0.3-0.1,0.6-0.3,0.8-0.7c0.1-0.3,0.1-0.7-0.2-1c-0.2-0.2-0.4-0.4-0.6-0.6c-1.3-1.3-2.5-2.7-3.4-4.3c-0.8-1.5-1.6-3-2.2-4.6
				c0,0.5,0.1,0.9,0.3,1.4c0.4,1.2,0.9,2.4,1.5,3.5c0.9,1.6,2.1,3.2,3.4,4.5c0.4,0.4,0.8,0.8,0.6,1.1s-0.7,0.5-1.2,0.5
				c-1.1,0.1-2.3-0.1-3.4-0.4c-1.1-0.3-2.1-0.8-3.1-1.5l-1.2-0.9l0.8,1.2l3,4.7c0.2,0.3,0.4,0.6,0.4,1c0,0.3-0.3,0.5-0.5,0.4
				c0,0,0,0-0.1,0c-0.6-0.1-1.3-0.4-1.8-0.7l-2.6-1.4C303.1,141.2,302.7,141,302.4,140.9z"/>
			<path class="st12" d="M272.7,167.7c-0.4-1.6-1.9-2.7-3.5-2.6c-1.2,0.2-2.2,0.9-2.7,1.9c-0.5,1.1-0.6,2.3-0.1,3.4l0,0.2
				c1.1,1.2,2.8,1.6,4.3,0.9C272.2,170.9,273,169.3,272.7,167.7z"/>
			<path class="st11" d="M264.5,170.8c0-0.4,2.6-0.3,4.6-2.4s1.8-4.9,2.2-4.9c0.2,0,0.5,0.6,0.5,1.8c-0.1,1.5-0.6,3-1.7,4.1
				c-1,1.1-2.3,1.8-3.8,1.9C265.1,171.3,264.5,170.9,264.5,170.8z"/>
			<rect x="113.6" y="286.4" class="st15" width="9.4" height="48.2"/>
			<polygon class="st16" points="119.4,286.4 116.7,286.4 116.7,296.7 117.5,296 117.7,296.7 118.3,296 118.5,296.7 119.1,295.9 
				119.4,296.7 			"/>
			<rect x="45.8" y="286.6" class="st17" width="74.3" height="48.9"/>
			<rect x="45.8" y="286.6" class="st15" width="9.4" height="48.2"/>
			<polygon class="st16" points="51.7,286.6 49,286.6 49,296.9 49.7,296.2 49.9,296.9 50.5,296.2 50.8,296.9 51.4,296.1 51.7,296.9 
							"/>
			<rect x="54.5" y="286.6" class="st18" width="64.9" height="48.2"/>
			<path class="st19" d="M119.4,286.6L119.4,286.6c-3.7,30.3-24.1,48-52.3,46l-12.7,2.2h65L119.4,286.6z"/>
			<path class="st20" d="M62.5,298.4v0.1c0,0.3,0.2,0.5,0.5,0.5s0.5-0.2,0.5-0.5v-3c0.2,0,0.4,0,0.6,0.1h0.1c0.2,0,0.3,0.1,0.5,0.1
				h0.1c0.4-0.1,0.8-0.1,1.2,0l0,0c-0.1-1.3-1.2-2.2-2.4-2.2c0,0,0,0,0,0h-0.3c-0.3,0-0.7,0.1-1,0.2l0,0c-0.8,0.3-1.4,1-1.5,1.9v0.1
				c0.4-0.1,0.8-0.1,1.2,0h0l0.2,0l0.2,0c0.2,0,0.3-0.1,0.5-0.1h0.3v3c0,0.1-0.1,0.2-0.2,0.2s-0.2-0.1-0.2-0.2v-0.1L62.5,298.4z"/>
			<path class="st20" d="M69.2,296.9L69.2,296.9c-0.7,0-1.3-0.6-1.3-1.3v-2.1h2.6v2.1C70.5,296.4,69.9,296.9,69.2,296.9z"/>
			<rect x="69.1" y="296.8" class="st20" width="0.3" height="2.2"/>
			<rect x="68.1" y="298.7" class="st20" width="2.2" height="0.3"/>
			<rect x="73" y="293.7" class="st20" width="0.3" height="4.3"/>
			
				<rect x="72.4" y="293.8" transform="matrix(0.7071 -0.7071 0.7071 0.7071 -186.5178 137.6529)" class="st20" width="1" height="0.3"/>
			
				<rect x="73.3" y="293.4" transform="matrix(0.7071 -0.7071 0.7071 0.7071 -186.3505 138.017)" class="st20" width="0.3" height="1"/>
			<rect x="74.9" y="293.7" class="st20" width="0.3" height="4.3"/>
			
				<rect x="74.3" y="293.8" transform="matrix(0.7071 -0.7071 0.7071 0.7071 -185.9532 139.0194)" class="st20" width="1" height="0.3"/>
			
				<rect x="75.2" y="293.4" transform="matrix(0.7071 -0.7071 0.7071 0.7071 -185.787 139.381)" class="st20" width="0.3" height="1"/>
			<rect x="72.4" y="298.7" class="st20" width="3.4" height="0.3"/>
			<rect x="100.9" y="291.1" class="st5" width="13.6" height="9.3"/>
			<rect x="102.8" y="293.8" class="st21" width="9.8" height="0.7"/>
			<rect x="102.8" y="295.3" class="st21" width="9.8" height="0.7"/>
			<rect x="102.8" y="296.9" class="st21" width="4.3" height="0.7"/>
			<rect x="96.3" y="325" class="st5" width="18.8" height="4.6"/>
			<rect x="97.8" y="325.9" class="st21" width="2.3" height="3"/>
			<rect x="98.3" y="325.9" class="st21" width="0.2" height="3"/>
			<rect x="98.9" y="325.9" class="st21" width="0.2" height="3"/>
			<rect x="99.4" y="325.9" class="st21" width="0.3" height="3"/>
			<rect x="100" y="325.9" class="st21" width="0.2" height="3"/>
			<rect x="100.5" y="325.9" class="st21" width="1.3" height="3"/>
			<rect x="101.1" y="325.9" class="st21" width="0.2" height="3"/>
			<rect x="101.6" y="325.9" class="st21" width="0.2" height="3"/>
			<rect x="102.2" y="325.9" class="st21" width="0.3" height="3"/>
			<rect x="102.7" y="325.9" class="st21" width="1.9" height="3"/>
			<rect x="103.3" y="325.9" class="st21" width="0.3" height="3"/>
			<rect x="104" y="325.9" class="st21" width="0.2" height="3"/>
			<rect x="104.4" y="325.9" class="st21" width="0.3" height="3"/>
			<rect x="106.6" y="326.2" class="st21" width="7.1" height="0.7"/>
			<rect x="106.6" y="327.7" class="st21" width="4.1" height="0.7"/>
			<rect x="344.6" y="237.2" class="st17" width="74.3" height="48.9"/>
			<rect x="344.6" y="237.2" class="st15" width="9.4" height="48.2"/>
			<polygon class="st16" points="350.4,237.2 347.7,237.2 347.7,247.5 348.5,246.8 348.7,247.5 349.3,246.8 349.5,247.5 
				350.1,246.8 350.4,247.5 			"/>
			<rect x="353.2" y="237.2" class="st18" width="64.9" height="48.2"/>
			<path class="st19" d="M418.1,237.2L418.1,237.2c-3.7,30.3-24,48-52.2,46l-12.7,2.2h64.9V237.2z"/>
			<path class="st20" d="M361.3,249v0.1c0,0.3,0.2,0.5,0.5,0.5c0,0,0,0,0,0c0.3,0,0.5-0.2,0.5-0.5v-3c0.2,0,0.4,0,0.6,0h0.1l0.5,0.1
				h0.1c0.4-0.1,0.8-0.1,1.2,0l0,0c-0.1-1.3-1.2-2.2-2.4-2.2c0,0,0,0,0,0h-0.3c-0.3,0-0.6,0.1-1,0.2h0c-0.8,0.3-1.4,1-1.5,1.9v0.1
				c0.4-0.1,0.8-0.1,1.2,0h0.1h0.2l0.2-0.1l0.5-0.1h0.3v3c0,0.1-0.1,0.2-0.2,0.2c-0.1,0-0.2-0.1-0.2-0.2V249H361.3z"/>
			<path class="st20" d="M367.9,247.6L367.9,247.6c-0.7,0-1.3-0.6-1.3-1.3c0,0,0,0,0,0v-2.1h2.6v2.1
				C369.2,247,368.7,247.5,367.9,247.6C367.9,247.5,367.9,247.6,367.9,247.6z"/>
			<rect x="367.8" y="247.4" class="st20" width="0.3" height="2.2"/>
			<rect x="366.8" y="249.3" class="st20" width="2.2" height="0.3"/>
			<rect x="371.7" y="244.3" class="st20" width="0.3" height="4.3"/>
			
				<rect x="371.1" y="244.4" transform="matrix(0.7071 -0.7071 0.7071 0.7071 -64.0913 334.4224)" class="st20" width="1" height="0.3"/>
			
				<rect x="372" y="244" transform="matrix(0.7071 -0.7071 0.7071 0.7071 -63.9308 334.7744)" class="st20" width="0.3" height="1"/>
			<rect x="373.7" y="244.3" class="st20" width="0.3" height="4.3"/>
			
				<rect x="373.1" y="244.4" transform="matrix(0.7071 -0.7071 0.7071 0.7071 -63.5268 335.7889)" class="st20" width="1" height="0.3"/>
			
				<rect x="373.9" y="244.1" transform="matrix(0.7071 -0.7071 0.7071 0.7071 -63.3673 336.1385)" class="st20" width="0.3" height="1"/>
			<rect x="371.2" y="249.3" class="st20" width="3.4" height="0.3"/>
			<rect x="399.6" y="241.7" class="st5" width="13.6" height="9.3"/>
			<rect x="401.5" y="244.4" class="st21" width="9.8" height="0.7"/>
			<rect x="401.5" y="245.9" class="st21" width="9.8" height="0.7"/>
			<rect x="401.5" y="247.5" class="st21" width="4.4" height="0.7"/>
			<rect x="395" y="275.7" class="st5" width="18.8" height="4.6"/>
			<rect x="396.5" y="276.5" class="st21" width="2.3" height="3"/>
			<rect x="397" y="276.5" class="st21" width="0.2" height="3"/>
			<rect x="397.6" y="276.5" class="st21" width="0.2" height="3"/>
			<rect x="398.1" y="276.5" class="st21" width="0.3" height="3"/>
			<rect x="398.7" y="276.5" class="st21" width="0.2" height="3"/>
			<rect x="399.3" y="276.5" class="st21" width="1.3" height="3"/>
			<rect x="399.8" y="276.5" class="st21" width="0.2" height="3"/>
			<rect x="400.4" y="276.5" class="st21" width="0.2" height="3"/>
			<rect x="400.9" y="276.5" class="st21" width="0.3" height="3"/>
			<rect x="401.5" y="276.5" class="st21" width="1.9" height="3"/>
			<rect x="402" y="276.5" class="st21" width="0.3" height="3"/>
			<rect x="402.7" y="276.5" class="st21" width="0.2" height="3"/>
			<rect x="403.1" y="276.5" class="st21" width="0.3" height="3"/>
			<rect x="405.3" y="276.8" class="st21" width="7.1" height="0.7"/>
			<rect x="405.3" y="278.3" class="st21" width="4.1" height="0.7"/>
			<rect x="308.2" y="286.1" class="st17" width="75.2" height="48.9"/>
			<rect x="373.2" y="286.1" class="st22" width="10.3" height="48.2"/>
			<polygon class="st16" points="379.9,286.1 377.2,286.1 377.2,296.4 378,295.6 378.2,296.4 378.8,295.6 379,296.4 379.6,295.6 
				379.9,296.4 			"/>
			<rect x="308.2" y="286.1" class="st18" width="64.9" height="48.2"/>
			<path class="st19" d="M373.2,286.1L373.2,286.1c-3.7,30.3-24.1,48-52.3,46l-12.7,2.2h64.9V286.1z"/>
			<path class="st20" d="M316.3,297.8v0.1c0,0.3,0.1,0.5,0.4,0.5s0.5-0.1,0.5-0.4c0,0,0-0.1,0-0.1v-3c0.2,0,0.4,0,0.6,0.1h0.1
				l0.5,0.1h0.1c0.4-0.1,0.8-0.1,1.2,0l0,0c-0.1-1.3-1.2-2.2-2.4-2.2c0,0,0,0,0,0H317c-0.3,0-0.6,0.1-1,0.2H316
				c-0.8,0.3-1.4,1-1.4,1.9v0.1c0.4-0.1,0.8-0.1,1.2,0h0.1l0.2,0l0.2,0c0.2,0,0.3-0.1,0.5-0.1h0.3v3c0,0.1-0.1,0.2-0.2,0.2
				c-0.1,0-0.2-0.1-0.2-0.2v-0.1L316.3,297.8z"/>
			<path class="st20" d="M323,296.4L323,296.4c-0.7,0-1.3-0.6-1.3-1.3V293h2.6v2.1C324.3,295.8,323.7,296.4,323,296.4z"/>
			<rect x="322.8" y="296.2" class="st20" width="0.3" height="2.2"/>
			<rect x="321.9" y="298.1" class="st20" width="2.2" height="0.3"/>
			<rect x="326.8" y="293.2" class="st20" width="0.3" height="4.3"/>
			
				<rect x="326.1" y="293.3" transform="matrix(0.7071 -0.7071 0.7071 0.7071 -111.8035 316.9139)" class="st20" width="1" height="0.3"/>
			
				<rect x="327" y="292.9" transform="matrix(0.707 -0.7072 0.7072 0.707 -111.6488 317.3511)" class="st20" width="0.3" height="1"/>
			<rect x="328.7" y="293.2" class="st20" width="0.3" height="4.3"/>
			
				<rect x="328" y="293.3" transform="matrix(0.7072 -0.707 0.707 0.7072 -111.2483 318.186)" class="st20" width="1" height="0.3"/>
			
				<rect x="328.9" y="292.9" transform="matrix(0.7071 -0.7071 0.7071 0.7071 -111.0619 318.6379)" class="st20" width="0.3" height="1"/>
			<rect x="326.2" y="298.1" class="st20" width="3.4" height="0.3"/>
			<rect x="354.7" y="290.6" class="st5" width="13.6" height="9.3"/>
			<rect x="356.5" y="293.2" class="st21" width="9.8" height="0.7"/>
			<rect x="356.5" y="294.8" class="st21" width="9.8" height="0.7"/>
			<rect x="356.5" y="296.4" class="st21" width="4.4" height="0.7"/>
			<rect x="350" y="324.5" class="st5" width="18.8" height="4.6"/>
			<rect x="351.5" y="325.3" class="st21" width="2.3" height="3"/>
			<rect x="352" y="325.3" class="st21" width="0.2" height="3"/>
			<rect x="352.6" y="325.3" class="st21" width="0.2" height="3"/>
			<rect x="353.2" y="325.3" class="st21" width="0.3" height="3"/>
			<rect x="353.7" y="325.3" class="st21" width="0.2" height="3"/>
			<rect x="354.3" y="325.3" class="st21" width="1.3" height="3"/>
			<rect x="354.8" y="325.3" class="st21" width="0.2" height="3"/>
			<rect x="355.4" y="325.3" class="st21" width="0.2" height="3"/>
			<rect x="355.9" y="325.3" class="st21" width="0.3" height="3"/>
			<rect x="356.5" y="325.3" class="st21" width="1.9" height="3"/>
			<rect x="357" y="325.3" class="st21" width="0.3" height="3"/>
			<rect x="357.7" y="325.3" class="st21" width="0.2" height="3"/>
			<rect x="358.1" y="325.3" class="st21" width="0.3" height="3"/>
			<rect x="360.3" y="325.6" class="st21" width="7.1" height="0.7"/>
			<rect x="360.3" y="327.2" class="st21" width="4.1" height="0.7"/>
			<rect x="380.5" y="286.1" class="st18" width="37.7" height="48.2"/>
			<path class="st20" d="M388.5,297.9v0.1c0,0.3,0.2,0.5,0.5,0.5c0,0,0,0,0,0c0.3,0,0.5-0.2,0.5-0.5c0,0,0,0,0,0v-3
				c0.2,0,0.4,0,0.6,0h0.1c0.2,0,0.3,0.1,0.5,0.1h0.1c0.4-0.1,0.8-0.1,1.2,0l0,0c-0.1-1.3-1.2-2.2-2.4-2.1h-0.3
				c-0.3,0-0.6,0.1-1,0.2h-0.1c-0.8,0.3-1.4,1-1.5,1.9v0.1c0.4-0.1,0.8-0.1,1.2,0h0.1h0.2l0.2-0.1l0.5-0.1h0.3v3
				c0,0.1-0.1,0.2-0.2,0.2c-0.1,0-0.2-0.1-0.2-0.2v-0.1L388.5,297.9z"/>
			<path class="st20" d="M395.2,296.4L395.2,296.4c-0.7,0-1.3-0.6-1.3-1.3V293h2.6v2.1C396.5,295.9,395.9,296.4,395.2,296.4
				C395.2,296.4,395.2,296.4,395.2,296.4z"/>
			<rect x="395" y="296.3" class="st20" width="0.3" height="2.2"/>
			<rect x="394.1" y="298.2" class="st20" width="2.2" height="0.3"/>
			<rect x="399" y="293.2" class="st20" width="0.3" height="4.3"/>
			
				<rect x="398.4" y="293.3" transform="matrix(0.7071 -0.7071 0.7071 0.7071 -90.6674 368.0262)" class="st20" width="1" height="0.3"/>
			
				<rect x="399.2" y="292.9" transform="matrix(0.707 -0.7072 0.7072 0.707 -90.5029 368.439)" class="st20" width="0.3" height="1"/>
			<rect x="400.9" y="293.2" class="st20" width="0.3" height="4.3"/>
			
				<rect x="400.3" y="293.3" transform="matrix(0.7072 -0.707 0.707 0.7072 -90.1388 369.2645)" class="st20" width="1" height="0.3"/>
			
				<rect x="401.2" y="293" transform="matrix(0.707 -0.7072 0.7072 0.707 -89.9647 369.8281)" class="st20" width="0.3" height="1"/>
			<rect x="398.4" y="298.2" class="st20" width="3.4" height="0.3"/>
			<rect x="424.3" y="325.3" class="st21" width="0.2" height="3"/>
			<rect x="424.8" y="325.3" class="st21" width="0.2" height="3"/>
			<polygon class="st23" points="406.5,334.5 406.3,286.1 372.7,286.1 372.7,334.5 			"/>
			<rect x="308.2" y="237.2" class="st17" width="42.6" height="48.9"/>
			<rect x="308.2" y="237.2" class="st15" width="5.3" height="48.2"/>
			<polygon class="st16" points="320,237.2 317.3,237.2 317.3,247.5 318.1,246.8 318.3,247.5 318.9,246.8 319.1,247.5 319.8,246.8 
				320,247.5 			"/>
			<rect x="313.2" y="237.2" class="st18" width="37" height="48.2"/>
			<path class="st19" d="M350.1,237.2L350.1,237.2c-3.7,30.3-1,48-29.2,46l-12.7,2.2h41.9V237.2z"/>
			<path class="st20" d="M330.9,249v0.1c0,0.3,0.3,0.4,0.5,0.4c0.2,0,0.4-0.2,0.4-0.4v-3c0.2,0,0.4,0,0.6,0h0.1l0.5,0.1h0.1
				c0.4-0.1,0.8-0.1,1.2,0l0,0c-0.1-1.3-1.2-2.2-2.4-2.1h-0.3c-0.3,0-0.6,0.1-1,0.2h-0.1c-0.8,0.3-1.4,1-1.4,1.9v0.1
				c0.4-0.1,0.8-0.1,1.2,0h0.1h0.2l0.2-0.1l0.5-0.1h0.3v3c0,0.1-0.1,0.2-0.2,0.2c-0.1,0-0.2-0.1-0.2-0.2V249H330.9z"/>
			<path class="st20" d="M337.6,247.6L337.6,247.6c-0.7,0-1.3-0.6-1.3-1.3c0,0,0,0,0,0v-2.1h2.6v2.1
				C338.9,247,338.3,247.5,337.6,247.6C337.6,247.5,337.6,247.6,337.6,247.6z"/>
			<rect x="337.4" y="247.4" class="st20" width="0.3" height="2.2"/>
			<rect x="336.5" y="249.3" class="st20" width="2.2" height="0.3"/>
			<rect x="341.4" y="244.3" class="st20" width="0.3" height="4.3"/>
			
				<rect x="340.8" y="244.4" transform="matrix(0.7071 -0.7071 0.7071 0.7071 -72.9833 312.9539)" class="st20" width="1" height="0.3"/>
			
				<rect x="341.6" y="244" transform="matrix(0.7071 -0.7071 0.7071 0.7071 -72.8224 313.3069)" class="st20" width="0.3" height="1"/>
			<rect x="343.3" y="244.3" class="st20" width="0.3" height="4.3"/>
			
				<rect x="342.7" y="244.4" transform="matrix(0.7071 -0.7071 0.7071 0.7071 -72.4199 314.3234)" class="st20" width="1" height="0.3"/>
			
				<rect x="343.6" y="244" transform="matrix(0.7071 -0.7071 0.7071 0.7071 -72.2489 314.6809)" class="st20" width="0.3" height="1"/>
			<rect x="340.8" y="249.3" class="st20" width="3.4" height="0.3"/>
			<rect x="331.6" y="241.7" class="st5" width="13.6" height="9.3"/>
			<rect x="333.5" y="244.4" class="st21" width="9.8" height="0.7"/>
			<rect x="333.5" y="245.9" class="st21" width="9.8" height="0.7"/>
			<rect x="333.5" y="247.5" class="st21" width="4.4" height="0.7"/>
			<rect x="327" y="275.7" class="st5" width="18.8" height="4.6"/>
			<rect x="328.5" y="276.5" class="st21" width="2.3" height="3"/>
			<rect x="329" y="276.5" class="st21" width="0.2" height="3"/>
			<rect x="329.6" y="276.5" class="st21" width="0.2" height="3"/>
			<rect x="330.1" y="276.5" class="st21" width="0.3" height="3"/>
			<rect x="330.7" y="276.5" class="st21" width="0.2" height="3"/>
			<rect x="331.2" y="276.5" class="st21" width="1.3" height="3"/>
			<rect x="331.8" y="276.5" class="st21" width="0.2" height="3"/>
			<rect x="332.3" y="276.5" class="st21" width="0.2" height="3"/>
			<rect x="332.9" y="276.5" class="st21" width="0.3" height="3"/>
			<rect x="333.4" y="276.5" class="st21" width="1.9" height="3"/>
			<rect x="334" y="276.5" class="st21" width="0.3" height="3"/>
			<rect x="334.7" y="276.5" class="st21" width="0.2" height="3"/>
			<rect x="335.1" y="276.5" class="st21" width="0.3" height="3"/>
			<rect x="337.2" y="276.8" class="st21" width="7.1" height="0.7"/>
			<rect x="337.2" y="278.3" class="st21" width="4.1" height="0.7"/>
			<rect x="352.4" y="188.2" class="st17" width="71.7" height="48.9"/>
			<rect x="352.4" y="188.2" class="st15" width="9.4" height="48.2"/>
			<polygon class="st16" points="358.2,188.2 355.5,188.2 355.5,198.5 356.3,197.8 356.5,198.5 357.1,197.8 357.3,198.5 
				357.9,197.7 358.2,198.5 			"/>
			<rect x="361" y="188.2" class="st18" width="63.8" height="48.2"/>
			<path class="st19" d="M426,188.2L426,188.2c-3.7,30.3-24.1,48-52.3,46l-12.7,2.2h65V188.2z"/>
			<path class="st20" d="M369.1,200v0.1c0,0.3,0.2,0.5,0.5,0.5c0,0,0,0,0,0c0.3,0,0.5-0.2,0.5-0.5l0,0v-3c0.2,0,0.4,0,0.6,0.1h0.1
				c0.2,0,0.3,0.1,0.5,0.1h0.1c0.4-0.1,0.8-0.1,1.2,0l0,0c-0.1-1.3-1.2-2.2-2.4-2.2h-0.3c-0.3,0-0.7,0.1-1,0.2h-0.1
				c-0.8,0.3-1.4,1-1.4,1.9v0.1c0.4-0.1,0.8-0.1,1.2,0h0.1l0.2-0.1l0.2-0.1c0.2,0,0.3-0.1,0.5-0.1h0.3v3c0,0.1-0.1,0.2-0.2,0.2
				c-0.1,0-0.2-0.1-0.2-0.2V200H369.1z"/>
			<path class="st20" d="M375.7,198.5L375.7,198.5c-0.7,0-1.3-0.6-1.3-1.3v-2.1h2.5v2.1C377,197.9,376.4,198.5,375.7,198.5z"/>
			<rect x="375.6" y="198.4" class="st20" width="0.3" height="2.2"/>
			<rect x="374.6" y="200.3" class="st20" width="2.2" height="0.3"/>
			<rect x="379.5" y="195.3" class="st20" width="0.3" height="4.3"/>
			
				<rect x="378.9" y="195.4" transform="matrix(0.7071 -0.7071 0.7071 0.7071 -27.1501 325.5725)" class="st20" width="1" height="0.3"/>
			
				<rect x="379.8" y="195" transform="matrix(0.7071 -0.7071 0.7071 0.7071 -26.9861 325.9224)" class="st20" width="0.3" height="1"/>
			<rect x="381.5" y="195.3" class="st20" width="0.3" height="4.3"/>
			
				<rect x="380.9" y="195.4" transform="matrix(0.7071 -0.7071 0.7071 0.7071 -26.5797 326.939)" class="st20" width="1" height="0.3"/>
			
				<rect x="381.7" y="195" transform="matrix(0.7071 -0.7071 0.7071 0.7071 -26.4126 327.2964)" class="st20" width="0.3" height="1"/>
			<rect x="379" y="200.2" class="st20" width="3.4" height="0.3"/>
			<rect x="407.5" y="192.7" class="st5" width="13.6" height="9.3"/>
			<rect x="409.3" y="195.3" class="st21" width="9.8" height="0.7"/>
			<rect x="409.3" y="196.9" class="st21" width="9.8" height="0.7"/>
			<rect x="409.3" y="198.5" class="st21" width="4.4" height="0.7"/>
			<rect x="402.8" y="226.6" class="st5" width="18.8" height="4.6"/>
			<rect x="404.3" y="227.4" class="st21" width="2.3" height="3"/>
			<rect x="404.8" y="227.4" class="st21" width="0.2" height="3"/>
			<rect x="405.4" y="227.4" class="st21" width="0.2" height="3"/>
			<rect x="406" y="227.4" class="st21" width="0.3" height="3"/>
			<rect x="406.5" y="227.4" class="st21" width="0.2" height="3"/>
			<rect x="407" y="227.4" class="st21" width="1.3" height="3"/>
			<rect x="407.6" y="227.4" class="st21" width="0.2" height="3"/>
			<rect x="408.2" y="227.4" class="st21" width="0.2" height="3"/>
			<rect x="408.7" y="227.4" class="st21" width="0.3" height="3"/>
			<rect x="409.3" y="227.4" class="st21" width="1.9" height="3"/>
			<rect x="409.8" y="227.4" class="st21" width="0.3" height="3"/>
			<rect x="410.5" y="227.4" class="st21" width="0.2" height="3"/>
			<rect x="410.9" y="227.4" class="st21" width="0.3" height="3"/>
			<rect x="413.1" y="227.7" class="st21" width="7.1" height="0.7"/>
			<rect x="413.1" y="229.3" class="st21" width="4.1" height="0.7"/>
			<rect x="27.9" y="238.7" class="st18" width="64.9" height="48.2"/>
			<path class="st19" d="M92.8,238.7L92.8,238.7c-3.7,30.3-24.1,48-52.3,46l-12.7,2.2h64.9V238.7z"/>
			<path class="st20" d="M35.9,250.4v0.1c0,0.3,0.2,0.5,0.5,0.5s0.5-0.2,0.5-0.5v-3c0.2,0,0.4,0,0.6,0.1h0.1l0.5,0.1h0.1
				c0.4-0.1,0.8-0.1,1.2,0l0,0c-0.1-1.3-1.2-2.2-2.4-2.2c0,0,0,0,0,0h-0.3c-0.3,0-0.6,0.1-1,0.2h-0.1c-0.8,0.3-1.4,1-1.4,1.9v0.1
				c0.4-0.1,0.8-0.1,1.2,0h0.1h0.2l0.2-0.1c0.2,0,0.3-0.1,0.5-0.1h0.3v3c0,0.1-0.1,0.2-0.2,0.2c-0.1,0-0.2-0.1-0.2-0.2v-0.1
				L35.9,250.4z"/>
			<path class="st20" d="M42.6,249L42.6,249c-0.7,0-1.3-0.6-1.3-1.3v-2.1h2.6v2.1C43.9,248.4,43.3,249,42.6,249L42.6,249z"/>
			<rect x="42.4" y="248.8" class="st20" width="0.3" height="2.2"/>
			<rect x="41.5" y="250.7" class="st20" width="2.2" height="0.3"/>
			<rect x="46.4" y="245.8" class="st20" width="0.3" height="4.3"/>
			
				<rect x="45.8" y="245.9" transform="matrix(0.7071 -0.7071 0.7071 0.7071 -160.4047 104.7835)" class="st20" width="1" height="0.3"/>
			
				<rect x="46.6" y="245.5" transform="matrix(0.7071 -0.7071 0.7071 0.7071 -160.2454 105.1396)" class="st20" width="0.3" height="1"/>
			<rect x="48.3" y="245.8" class="st20" width="0.3" height="4.3"/>
			
				<rect x="47.7" y="245.9" transform="matrix(0.7071 -0.7071 0.7071 0.7071 -159.8372 106.1429)" class="st20" width="1" height="0.3"/>
			
				<rect x="48.6" y="245.5" transform="matrix(0.7071 -0.7071 0.7071 0.7071 -159.6719 106.5136)" class="st20" width="0.3" height="1"/>
			<rect x="45.8" y="250.7" class="st20" width="3.4" height="0.3"/>
			<rect x="74.3" y="243.2" class="st5" width="13.6" height="9.3"/>
			<rect x="76.2" y="245.8" class="st21" width="9.8" height="0.7"/>
			<rect x="76.2" y="247.4" class="st21" width="9.8" height="0.7"/>
			<rect x="76.2" y="248.9" class="st21" width="4.3" height="0.7"/>
			<rect x="69.7" y="277.1" class="st5" width="18.8" height="4.6"/>
			<rect x="71.1" y="277.9" class="st21" width="2.3" height="3"/>
			<rect x="71.7" y="277.9" class="st21" width="0.2" height="3"/>
			<rect x="72.2" y="277.9" class="st21" width="0.2" height="3"/>
			<rect x="72.8" y="277.9" class="st21" width="0.3" height="3"/>
			<rect x="73.3" y="277.9" class="st21" width="0.2" height="3"/>
			<rect x="73.9" y="277.9" class="st21" width="1.3" height="3"/>
			<rect x="74.5" y="277.9" class="st21" width="0.2" height="3"/>
			<rect x="75" y="277.9" class="st21" width="0.2" height="3"/>
			<rect x="75.6" y="277.9" class="st21" width="0.3" height="3"/>
			<rect x="76.1" y="277.9" class="st21" width="1.9" height="3"/>
			<rect x="76.7" y="277.9" class="st21" width="0.3" height="3"/>
			<rect x="77.3" y="277.9" class="st21" width="0.2" height="3"/>
			<rect x="77.8" y="277.9" class="st21" width="0.3" height="3"/>
			<rect x="79.9" y="278.2" class="st21" width="7.1" height="0.7"/>
			<rect x="79.9" y="279.8" class="st21" width="4.1" height="0.7"/>
			<path class="st24" d="M54.5,74.5h157c3.2,0,5.8,2.6,5.8,5.8v144.4c0,3.2-2.6,5.8-5.8,5.8h-157c-3.2,0-5.8-2.6-5.8-5.8V80.3
				C48.8,77.1,51.4,74.5,54.5,74.5z"/>
			<path class="st11" d="M210.2,230.5h1.7c1.1-0.1,2.1-0.5,3-1.1c0.7-0.6,1.4-1.3,1.8-2.1c0.5-1.1,0.7-2.3,0.6-3.5
				c0-1.3,0-2.8,0-4.3c0-3.1,0-6.7,0-10.7c0-16.2,0-39.6-0.1-68.5c0-14.4,0-30.3,0-47.3c0-4.2,0-8.6,0-13c-0.1-2.2-1.6-4.1-3.6-4.9
				c-1-0.3-2.1-0.4-3.2-0.3h-31.4H54.5c-1.3,0-2.6,0.5-3.6,1.3c-1,0.9-1.7,2.1-1.9,3.4c-0.1,0.7-0.1,1.3-0.1,2v54.1
				c0,20.8,0,40.9,0,60c0,9.6,0,18.9,0,27.9c0,0.6,0,1.1,0,1.7c0.1,0.5,0.2,1.1,0.4,1.6c0.4,1,1.1,1.9,2,2.5c0.9,0.6,1.9,1,3,1h16.3
				H118l68.4,0.2h18.7h4.8h1.7c0,0-0.6-0.2-1.6-0.2h-4.8h-18.6l-68.5,0.1H70.7H54.4c-2.3,0-4.4-1.3-5.4-3.4
				c-0.2-0.5-0.4-1.1-0.4-1.7c0-0.6,0-1.1,0-1.7c0-9.1,0-18.4,0-27.9c0-19.1,0-39.2,0-60v-31.8c0-5.4,0-10.8,0-16.2v-6.1
				c0-0.7,0-1.4,0.1-2.1c0.2-1.4,0.9-2.7,2-3.7c1.1-0.9,2.5-1.5,3.9-1.5H179h31.3c1.1-0.1,2.3,0,3.4,0.4c2.2,0.8,3.7,2.9,3.9,5.2
				c0,4.4,0,8.7,0,13c0,17,0,32.8,0,47.3c0,28.9-0.1,52.3-0.1,68.5c0,4,0,7.6,0,10.7c0,1.6,0,3,0,4.3c0.1,1.2-0.1,2.4-0.6,3.5
				c-0.4,0.9-1,1.6-1.8,2.2c-0.6,0.4-1.2,0.5-1.9,0.7c-0.4,0.1-0.8,0.2-1.2,0.2L210.2,230.5z"/>
			<path class="st11" d="M217.3,93.6c0,0.1-37.7,0.2-84.3,0.2s-84.3-0.1-84.3-0.2s37.7-0.2,84.3-0.2S217.3,93.5,217.3,93.6z"/>
			<path class="st9" d="M156.8,152.4l0.2-0.3l0.1-0.1c0-0.1,0.1-0.1,0.1-0.2c0.1-0.2,0.2-0.3,0.3-0.5c0-0.1,0.1-0.2,0.1-0.3l0.1-0.4
				c0-0.1,0.1-0.3,0.1-0.4c0-0.1,0.1-0.3,0.1-0.5c0.1-0.7,0-1.5-0.1-2.2c-0.4-2-1-3.9-2-5.7c-1.2-2.4-2.7-4.6-4.3-6.7
				c-2-2.6-4.1-5-6.4-7.2c-2.6-2.6-5.5-5-8.4-7.2c-1.6-1.2-3.2-2.3-5-3.3c-1.8-1.1-3.6-2.1-5.5-2.9c-2-0.9-4-1.6-6.2-1.9
				c-1.1-0.2-2.2-0.2-3.3-0.1c-0.5,0.1-1.1,0.2-1.6,0.5c-0.5,0.2-1,0.6-1.3,1c-0.4,0.4-0.6,0.9-0.8,1.4c-0.2,0.5-0.3,1.1-0.3,1.6
				c0,1.1,0.1,2.2,0.5,3.3c0.6,2.1,1.5,4.1,2.6,5.9c1.1,1.8,2.2,3.5,3.5,5.2c1.2,1.6,2.6,3.1,3.9,4.6c2.5,2.7,5.2,5.2,8.1,7.6
				c2.5,2,5.1,3.9,7.9,5.6c2.3,1.4,4.7,2.6,7.1,3.5c1.9,0.8,3.8,1.2,5.9,1.4c0.7,0,1.5,0,2.2-0.1c0.2,0,0.3-0.1,0.4-0.1
				c0.1,0,0.3-0.1,0.4-0.1l0.4-0.1l0.3-0.2c0.2-0.1,0.3-0.2,0.5-0.3l0.2-0.1l0.1-0.1L156.8,152.4l-0.2,0.3l-0.1,0.1
				c-0.1,0.1-0.1,0.1-0.2,0.1c-0.1,0.1-0.3,0.2-0.5,0.3l-0.3,0.2l-0.4,0.1c-0.1,0.1-0.3,0.1-0.4,0.1c-0.1,0.1-0.3,0.1-0.4,0.1
				c-0.7,0.1-1.5,0.2-2.2,0.2c-2-0.1-4-0.6-5.9-1.3c-2.5-1-4.9-2.1-7.2-3.5c-2.8-1.7-5.4-3.5-7.9-5.6c-2.9-2.3-5.6-4.8-8.1-7.5
				c-1.3-1.4-2.6-3-3.9-4.6c-1.3-1.6-2.5-3.4-3.5-5.2c-1.1-1.9-2-3.9-2.6-5.9c-0.3-1.1-0.5-2.2-0.5-3.3c0-0.6,0.1-1.1,0.3-1.7
				c0.2-0.5,0.5-1,0.8-1.5c0.4-0.4,0.9-0.8,1.4-1c0.5-0.2,1.1-0.4,1.6-0.5c1.1-0.1,2.2-0.1,3.3,0.1c2.1,0.4,4.2,1,6.2,1.9
				c1.9,0.8,3.8,1.8,5.6,2.9c1.8,1.1,3.4,2.2,5,3.3c3,2.2,5.8,4.6,8.4,7.2c2.3,2.3,4.5,4.7,6.4,7.2c1.6,2.1,3.1,4.4,4.3,6.7
				c1,1.8,1.6,3.7,2,5.7c0.1,0.7,0.2,1.5,0.1,2.2c0,0.2,0,0.3-0.1,0.4c0,0.1,0,0.3-0.1,0.4l-0.1,0.4l-0.1,0.3
				c-0.1,0.2-0.2,0.3-0.3,0.5l-0.1,0.2l-0.1,0.1L156.8,152.4z"/>
			<path class="st9" d="M164.8,133.1v-0.3v-0.2c0-0.1,0-0.1-0.1-0.2c0-0.2-0.1-0.4-0.1-0.6c0-0.1-0.1-0.2-0.1-0.3l-0.2-0.4
				c-0.1-0.1-0.1-0.2-0.2-0.4c-0.1-0.1-0.2-0.3-0.2-0.4c-0.4-0.6-1-1.1-1.5-1.6c-1.6-1.2-3.4-2.2-5.3-2.9c-2.5-0.9-5.1-1.7-7.7-2.1
				c-3.2-0.6-6.4-1-9.6-1.1c-3.7-0.2-7.4-0.1-11.1,0.2c-2,0.2-3.9,0.4-6,0.8c-2.1,0.4-4.1,0.9-6.1,1.5c-2.1,0.6-4,1.5-5.9,2.7
				c-0.9,0.6-1.8,1.3-2.5,2.1c-0.4,0.4-0.6,0.9-0.9,1.4c-0.5,1-0.5,2.2,0,3.2c0.2,0.5,0.5,1,0.9,1.4c0.7,0.8,1.6,1.5,2.5,2.1
				c1.8,1.1,3.8,2,5.9,2.7c2,0.6,4,1.1,6.1,1.5c2,0.4,4,0.6,6,0.8c3.7,0.3,7.4,0.4,11.1,0.2c3.2-0.1,6.4-0.5,9.6-1.1
				c2.6-0.5,5.2-1.2,7.7-2.1c1.9-0.7,3.7-1.7,5.3-2.9c0.6-0.5,1.1-1,1.5-1.6c0.1-0.1,0.2-0.2,0.2-0.4c0.1-0.1,0.2-0.2,0.2-0.4
				l0.2-0.4c0-0.1,0.1-0.2,0.1-0.3c0.1-0.2,0.1-0.4,0.1-0.6c0-0.1,0-0.2,0.1-0.2v-0.2V133.1c0,0,0,0.1,0,0.3v0.2c0,0.1,0,0.1,0,0.2
				c0,0.2-0.1,0.4-0.1,0.6c0,0.1-0.1,0.2-0.1,0.3l-0.2,0.3c-0.1,0.1-0.1,0.3-0.2,0.4c-0.1,0.1-0.2,0.3-0.2,0.4
				c-0.4,0.6-1,1.1-1.5,1.6c-1.6,1.2-3.4,2.2-5.3,2.9c-2.5,0.9-5.1,1.7-7.7,2.1c-3.2,0.6-6.4,1-9.6,1.1c-3.7,0.2-7.4,0.1-11.1-0.2
				c-1.9-0.2-3.9-0.4-5.9-0.8c-2.1-0.4-4.1-0.9-6.2-1.5c-2.1-0.6-4.1-1.5-5.9-2.7c-1-0.6-1.8-1.3-2.5-2.1c-0.4-0.4-0.7-0.9-0.9-1.4
				c-0.2-0.5-0.3-1.1-0.3-1.7c0-0.6,0.1-1.1,0.3-1.7c0.2-0.5,0.5-1,0.9-1.4c0.7-0.8,1.6-1.6,2.5-2.2c1.9-1.1,3.8-2,5.9-2.7
				c2-0.6,4-1.1,6.1-1.5c2-0.4,4-0.7,5.9-0.8c3.7-0.3,7.4-0.4,11.1-0.2c3.2,0.2,6.4,0.5,9.6,1.1c2.6,0.5,5.2,1.2,7.7,2.2
				c1.9,0.7,3.7,1.7,5.3,2.9c0.6,0.5,1.1,1,1.5,1.6c0.1,0.1,0.2,0.2,0.2,0.4c0.1,0.1,0.2,0.2,0.2,0.4l0.2,0.4c0,0.1,0.1,0.2,0.1,0.3
				c0.1,0.2,0.1,0.4,0.1,0.6c0,0.1,0,0.2,0,0.2v0.2C164.8,133,164.8,133.1,164.8,133.1z"/>
			<path class="st9" d="M154.2,109.1L154,109l-0.2-0.1l-0.2-0.1c-0.2-0.1-0.3-0.2-0.5-0.2l-0.3-0.1l-0.4-0.1c-0.1,0-0.3,0-0.4-0.1
				s-0.3,0-0.5,0c-0.7,0-1.5,0.1-2.2,0.2c-1.9,0.5-3.8,1.3-5.5,2.4c-2.3,1.4-4.4,3-6.4,4.8c-2.4,2.1-4.7,4.5-6.8,6.9
				c-2.4,2.8-4.6,5.8-6.6,8.9c-1,1.6-2,3.4-3,5.2c-1,1.9-1.8,3.8-2.5,5.7c-0.8,2-1.3,4.1-1.5,6.3c-0.1,1.1-0.1,2.2,0.2,3.3
				c0.1,0.5,0.3,1.1,0.6,1.6c0.3,0.5,0.6,0.9,1.1,1.3c0.4,0.3,1,0.6,1.5,0.7c0.5,0.1,1.1,0.2,1.7,0.2c1.1-0.1,2.2-0.3,3.2-0.7
				c2-0.8,3.9-1.8,5.7-3c1.7-1.2,3.4-2.5,4.9-3.9c1.5-1.4,3-2.8,4.3-4.2c2.5-2.7,4.9-5.6,7-8.6c1.9-2.6,3.5-5.4,5-8.3
				c1.2-2.4,2.2-4.8,3-7.4c0.6-1.9,1-3.9,1-5.9c0-0.7-0.1-1.5-0.3-2.2c0-0.2-0.1-0.3-0.1-0.4c0-0.1-0.1-0.3-0.2-0.4l-0.2-0.3
				l-0.2-0.3c-0.1-0.2-0.2-0.3-0.3-0.4c-0.1-0.1-0.1-0.1-0.1-0.2l-0.1-0.1L154.2,109.1l0.3,0.3l0.1,0.1l0.1,0.2
				c0.1,0.1,0.2,0.3,0.4,0.5l0.2,0.3l0.2,0.3c0.1,0.1,0.1,0.3,0.2,0.4c0.1,0.1,0.1,0.3,0.1,0.4c0.2,0.7,0.3,1.4,0.3,2.2
				c0,2-0.3,4.1-0.9,6c-0.8,2.6-1.8,5-3,7.4c-1.5,2.9-3.1,5.6-5,8.3c-2.1,3-4.5,5.9-7,8.6c-1.3,1.4-2.8,2.8-4.3,4.2
				c-1.6,1.3-3.2,2.6-5,3.7c-1.8,1.2-3.7,2.2-5.7,3c-1,0.4-2.1,0.6-3.3,0.7c-0.6,0-1.1,0-1.7-0.2c-0.6-0.2-1.1-0.4-1.5-0.8
				c-0.4-0.4-0.8-0.8-1.1-1.3c-0.3-0.5-0.5-1-0.6-1.6c-0.2-1.1-0.3-2.2-0.1-3.3c0.2-2.2,0.7-4.3,1.5-6.3c0.7-2,1.6-3.9,2.5-5.7
				c0.9-1.8,1.9-3.6,3-5.2c2-3.1,4.2-6.1,6.6-8.9c2.1-2.5,4.4-4.8,6.8-6.9c2-1.8,4.1-3.4,6.4-4.8c1.7-1.1,3.6-1.9,5.5-2.4
				c0.7-0.2,1.5-0.3,2.2-0.2c0.2,0,0.3,0,0.5,0c0.1,0,0.3,0,0.4,0.1l0.4,0.1l0.3,0.1c0.2,0.1,0.4,0.1,0.5,0.2l0.2,0.1l0.1,0.1
				L154.2,109.1z"/>
			<path class="st25" d="M106.6,145c0.4,0.4,0.4,1.1,0,1.5c-0.4,0.4-1.1,0.4-1.5,0c-0.4-0.4-0.4-1.1,0-1.5
				C105.5,144.6,106.2,144.6,106.6,145C106.6,145,106.6,145,106.6,145z"/>
			<path class="st25" d="M167.3,111.7c0,0.6-0.5,1.1-1.1,1.1c-0.6,0-1.1-0.5-1.1-1.1c0-0.6,0.5-1.1,1.1-1.1c0,0,0,0,0,0
				C166.8,110.7,167.3,111.1,167.3,111.7z"/>
			<path class="st25" d="M113.4,148.6c0,0.1-0.1,0.3-0.3,0.3c-0.1,0-0.3-0.1-0.3-0.3s0.1-0.3,0.3-0.3
				C113.3,148.3,113.4,148.4,113.4,148.6z"/>
			<path class="st25" d="M119.2,118.5c0,0.1-0.1,0.3-0.3,0.3s-0.3-0.1-0.3-0.3s0.1-0.3,0.3-0.3h0
				C119.1,118.2,119.2,118.3,119.2,118.5z"/>
			<path class="st25" d="M161.9,133.1c0,0.1-0.1,0.3-0.3,0.3c0,0,0,0,0,0c-0.1,0-0.3-0.1-0.3-0.3c0-0.1,0.1-0.3,0.3-0.3c0,0,0,0,0,0
				C161.7,132.8,161.9,133,161.9,133.1z"/>
			<path class="st25" d="M165.7,120.4c0,0.1-0.1,0.3-0.3,0.3c-0.1,0-0.3-0.1-0.3-0.3c0-0.1,0.1-0.3,0.3-0.3S165.7,120.2,165.7,120.4
				L165.7,120.4z"/>
			<path class="st26" d="M147.3,139.1h-3.4v-18.4c-0.2-4.3-3.8-7.7-8.1-7.6c-4.1,0.1-7.4,3.4-7.6,7.6v18.4h-3.4v-18.4
				c0.2-6.2,5.4-11.1,11.6-10.9c5.9,0.2,10.7,5,10.9,10.9V139.1z"/>
			<path class="st25" d="M147.3,139.1h-3.4v-18.4c-0.2-4.3-3.8-7.7-8.1-7.6c-4.1,0.1-7.4,3.4-7.6,7.6v18.4h-3.4v-18.4
				c0.2-6.2,5.4-11.1,11.6-10.9c5.9,0.2,10.7,5,10.9,10.9V139.1z"/>
			<path class="st9" d="M123.2,130.9h25.8c1.2,0,2.2,1,2.2,2.2v14.9c0,1.2-1,2.2-2.2,2.2h-25.8c-1.2,0-2.2-1-2.2-2.2v-14.9
				C120.9,131.9,121.9,130.9,123.2,130.9z"/>
			<g class="st10">
				<path d="M138.6,138.1c0-1.4-1.1-2.5-2.5-2.5s-2.5,1.1-2.5,2.5c0,1.1,0.8,2.1,1.8,2.4v3.8h1.4v-3.8
					C137.8,140.2,138.6,139.2,138.6,138.1z"/>
			</g>
			<path class="st27" d="M122.5,148.5c-0.1,0-0.1-3.2-0.1-7.2s0-7.2,0.1-7.2s0.1,3.2,0.1,7.2S122.6,148.5,122.5,148.5z"/>
			<path class="st27" d="M134.1,141.4c-0.1,0-0.2-0.1-0.3-0.2c-0.3-0.2-0.5-0.4-0.6-0.7c-1.2-1.5-0.9-3.8,0.7-4.9
				c0.2-0.1,0.4-0.3,0.6-0.4c0.3-0.1,0.6-0.2,0.9-0.3c0.2,0,0.3,0,0.3,0c-0.4,0.1-0.8,0.3-1.1,0.5c-0.9,0.5-1.5,1.3-1.7,2.3
				c-0.2,1,0,2,0.5,2.8C133.5,140.8,133.8,141.1,134.1,141.4z"/>
			<path class="st28" d="M80.6,167h107.5c0.6,0,1,0.4,1,1v15.4c0,0.6-0.4,1-1,1H80.6c-0.6,0-1-0.4-1-1V168
				C79.6,167.4,80.1,167,80.6,167z"/>
			
				<linearGradient id="SVGID_1_" gradientUnits="userSpaceOnUse" x1="80.42" y1="240.3848" x2="189.94" y2="240.3848" gradientTransform="matrix(1 0 0 -1 0 439.8898)">
				<stop  offset="0" style="stop-color:#06B7AE"/>
				<stop  offset="1" style="stop-color:#127DC2"/>
			</linearGradient>
			<path class="st29" d="M81.4,190.8h107.5c0.6,0,1,0.4,1,1v15.4c0,0.6-0.4,1-1,1H81.4c-0.6,0-1-0.4-1-1v-15.4
				C80.4,191.3,80.9,190.8,81.4,190.8z"/>
			<g class="st4">
				<path class="st5" d="M119.3,202.8c-0.4,0-0.8-0.1-1.2-0.2c-0.4-0.1-0.7-0.3-1-0.5l0.4-0.9c0.2,0.2,0.5,0.3,0.8,0.4
					c0.3,0.1,0.6,0.2,1,0.2c0.2,0,0.4,0,0.6-0.1c0.2,0,0.3-0.1,0.3-0.2c0.1-0.1,0.1-0.2,0.1-0.3c0-0.1-0.1-0.3-0.2-0.3
					c-0.1-0.1-0.3-0.2-0.4-0.2c-0.2-0.1-0.4-0.1-0.6-0.2s-0.4-0.1-0.7-0.2c-0.2-0.1-0.4-0.2-0.6-0.3s-0.3-0.3-0.5-0.4
					c-0.1-0.2-0.2-0.4-0.2-0.7c0-0.3,0.1-0.6,0.3-0.8c0.2-0.3,0.4-0.5,0.8-0.6c0.3-0.2,0.8-0.2,1.3-0.2c0.3,0,0.7,0,1,0.1
					c0.3,0.1,0.6,0.2,0.9,0.4l-0.4,0.9c-0.3-0.1-0.5-0.2-0.8-0.3s-0.5-0.1-0.7-0.1c-0.2,0-0.4,0-0.6,0.1c-0.2,0.1-0.3,0.1-0.3,0.2
					c-0.1,0.1-0.1,0.2-0.1,0.3c0,0.1,0.1,0.2,0.2,0.3c0.1,0.1,0.3,0.2,0.4,0.2c0.2,0.1,0.4,0.1,0.6,0.2c0.2,0.1,0.4,0.1,0.7,0.2
					c0.2,0.1,0.4,0.2,0.6,0.3s0.3,0.3,0.5,0.4c0.1,0.2,0.2,0.4,0.2,0.7c0,0.3-0.1,0.6-0.3,0.8c-0.2,0.3-0.4,0.5-0.8,0.6
					C120.2,202.7,119.8,202.8,119.3,202.8z"/>
				<path class="st5" d="M124.4,202.8c-0.5,0-0.9-0.1-1.2-0.3c-0.4-0.2-0.6-0.4-0.8-0.8s-0.3-0.7-0.3-1.1c0-0.4,0.1-0.8,0.3-1.1
					c0.2-0.3,0.5-0.6,0.8-0.8c0.3-0.2,0.7-0.3,1.1-0.3c0.4,0,0.8,0.1,1.1,0.3s0.6,0.4,0.8,0.7c0.2,0.3,0.3,0.7,0.3,1.2
					c0,0,0,0.1,0,0.2c0,0.1,0,0.1,0,0.2H123v-0.7h2.7l-0.5,0.2c0-0.2,0-0.4-0.1-0.6s-0.2-0.3-0.4-0.4s-0.3-0.1-0.5-0.1
					s-0.4,0-0.5,0.1c-0.2,0.1-0.3,0.2-0.4,0.4c-0.1,0.2-0.1,0.4-0.1,0.6v0.2c0,0.2,0.1,0.4,0.2,0.6c0.1,0.2,0.2,0.3,0.4,0.4
					c0.2,0.1,0.4,0.1,0.6,0.1c0.2,0,0.4,0,0.6-0.1c0.2-0.1,0.3-0.2,0.5-0.3l0.6,0.7c-0.2,0.2-0.4,0.4-0.7,0.5
					C125.1,202.7,124.8,202.8,124.4,202.8z"/>
			</g>
			<g class="st4">
				<path class="st5" d="M129.7,198.5c0.3,0,0.6,0.1,0.9,0.2c0.3,0.1,0.5,0.3,0.6,0.6c0.1,0.3,0.2,0.6,0.2,1v2.4h-1.2v-2.2
					c0-0.3-0.1-0.6-0.2-0.7s-0.4-0.2-0.6-0.2c-0.2,0-0.4,0-0.5,0.1c-0.2,0.1-0.3,0.2-0.4,0.4c-0.1,0.2-0.1,0.4-0.1,0.6v2.1h-1.2
					v-4.1h1.1v1.1l-0.2-0.3c0.1-0.3,0.4-0.5,0.6-0.6C129.1,198.6,129.4,198.5,129.7,198.5z"/>
			</g>
			<g class="st4">
				<path class="st5" d="M134.3,202.8c-0.4,0-0.7-0.1-1.1-0.3c-0.3-0.2-0.6-0.4-0.7-0.7s-0.3-0.7-0.3-1.1c0-0.4,0.1-0.8,0.3-1.1
					c0.2-0.3,0.4-0.6,0.7-0.7s0.7-0.3,1.1-0.3c0.3,0,0.7,0.1,0.9,0.2s0.5,0.4,0.6,0.7c0.1,0.3,0.2,0.7,0.2,1.2
					c0,0.5-0.1,0.9-0.2,1.2c-0.1,0.3-0.3,0.6-0.6,0.7C135,202.7,134.7,202.8,134.3,202.8z M134.6,201.8c0.2,0,0.4,0,0.5-0.1
					c0.2-0.1,0.3-0.2,0.4-0.4c0.1-0.2,0.1-0.4,0.1-0.6c0-0.2,0-0.4-0.1-0.6c-0.1-0.2-0.2-0.3-0.4-0.4s-0.3-0.1-0.5-0.1
					c-0.2,0-0.4,0-0.5,0.1s-0.3,0.2-0.4,0.4c-0.1,0.2-0.1,0.4-0.1,0.6c0,0.2,0,0.4,0.1,0.6s0.2,0.3,0.4,0.4
					C134.2,201.7,134.4,201.8,134.6,201.8z M135.6,202.7v-0.8l0-1.2l-0.1-1.2V197h1.2v5.7H135.6z"/>
			</g>
			<g class="st4">
				<path class="st5" d="M142.8,202.8c-0.4,0-0.8-0.1-1.2-0.2c-0.4-0.1-0.7-0.3-0.9-0.6c-0.3-0.3-0.5-0.5-0.6-0.9
					c-0.1-0.3-0.2-0.7-0.2-1.1c0-0.4,0.1-0.8,0.2-1.1c0.1-0.3,0.4-0.6,0.6-0.9c0.3-0.3,0.6-0.4,0.9-0.6s0.8-0.2,1.2-0.2
					c0.4,0,0.8,0.1,1.2,0.2c0.4,0.1,0.7,0.3,0.9,0.6s0.5,0.5,0.6,0.9s0.2,0.7,0.2,1.1c0,0.4-0.1,0.8-0.2,1.1s-0.4,0.6-0.6,0.9
					c-0.3,0.2-0.6,0.4-0.9,0.6C143.6,202.7,143.2,202.8,142.8,202.8z M142.8,201.7c0.2,0,0.5,0,0.7-0.1s0.4-0.2,0.5-0.4
					c0.2-0.2,0.3-0.3,0.4-0.5s0.1-0.4,0.1-0.7s0-0.5-0.1-0.7c-0.1-0.2-0.2-0.4-0.4-0.5c-0.2-0.2-0.3-0.3-0.5-0.4
					c-0.2-0.1-0.4-0.1-0.7-0.1s-0.5,0-0.7,0.1c-0.2,0.1-0.4,0.2-0.5,0.4s-0.3,0.3-0.4,0.5c-0.1,0.2-0.1,0.4-0.1,0.7
					c0,0.3,0,0.5,0.1,0.7c0.1,0.2,0.2,0.4,0.4,0.6c0.2,0.2,0.3,0.3,0.5,0.4S142.5,201.7,142.8,201.7z"/>
			</g>
			<g class="st4">
				<path class="st5" d="M147.7,202.7v-4.4H146v-1h4.7v1H149v4.4H147.7z"/>
				<path class="st5" d="M151.4,202.7v-5.4h2.3c0.5,0,0.9,0.1,1.2,0.2c0.3,0.2,0.6,0.4,0.8,0.7c0.2,0.3,0.3,0.6,0.3,1
					c0,0.4-0.1,0.7-0.3,1c-0.2,0.3-0.5,0.5-0.8,0.7c-0.3,0.2-0.8,0.2-1.2,0.2H152l0.6-0.6v2.1H151.4z M152.6,200.8l-0.6-0.6h1.6
					c0.4,0,0.7-0.1,0.9-0.2c0.2-0.2,0.3-0.4,0.3-0.7c0-0.3-0.1-0.5-0.3-0.7c-0.2-0.2-0.5-0.2-0.9-0.2H152l0.6-0.6V200.8z"/>
			</g>
			<g class="st4">
				<path class="st11" d="M94.7,178.4h3v0.8h-4v-5.4h3.9v0.8h-2.9V178.4z M94.7,176h2.7v0.8h-2.7V176z"/>
				<path class="st11" d="M101.1,175c0.3,0,0.6,0.1,0.9,0.2c0.3,0.1,0.5,0.3,0.6,0.6s0.2,0.6,0.2,1v2.4h-1V177
					c0-0.4-0.1-0.6-0.3-0.8c-0.2-0.2-0.4-0.3-0.7-0.3c-0.2,0-0.4,0-0.6,0.1c-0.2,0.1-0.3,0.2-0.4,0.4s-0.1,0.4-0.1,0.7v2.1h-1v-4.1
					h0.9v1.1l-0.2-0.3c0.1-0.3,0.4-0.5,0.6-0.6C100.5,175.1,100.8,175,101.1,175z"/>
				<path class="st11" d="M103.5,175.9v-0.8h2.7v0.8H103.5z M105.6,179.3c-0.5,0-0.8-0.1-1-0.4c-0.2-0.2-0.4-0.6-0.4-1v-3.7h1v3.7
					c0,0.2,0.1,0.3,0.2,0.5c0.1,0.1,0.2,0.2,0.4,0.2c0.2,0,0.4-0.1,0.5-0.2l0.3,0.7c-0.1,0.1-0.3,0.2-0.4,0.2
					C106,179.2,105.8,179.3,105.6,179.3z"/>
				<path class="st11" d="M109.2,179.3c-0.5,0-0.9-0.1-1.2-0.3s-0.6-0.4-0.8-0.8c-0.2-0.3-0.3-0.7-0.3-1.1c0-0.4,0.1-0.8,0.3-1.1
					c0.2-0.3,0.4-0.6,0.8-0.7s0.7-0.3,1.1-0.3c0.4,0,0.8,0.1,1.1,0.3s0.6,0.4,0.7,0.7c0.2,0.3,0.3,0.7,0.3,1.1c0,0,0,0.1,0,0.1
					c0,0.1,0,0.1,0,0.1h-3.4v-0.6h2.9l-0.4,0.2c0-0.2,0-0.4-0.1-0.6c-0.1-0.2-0.2-0.3-0.4-0.4s-0.4-0.2-0.6-0.2
					c-0.2,0-0.4,0.1-0.6,0.2c-0.2,0.1-0.3,0.2-0.4,0.4c-0.1,0.2-0.2,0.4-0.2,0.6v0.2c0,0.2,0.1,0.5,0.2,0.7c0.1,0.2,0.3,0.3,0.5,0.4
					c0.2,0.1,0.4,0.2,0.7,0.2c0.2,0,0.4,0,0.6-0.1c0.2-0.1,0.3-0.2,0.5-0.3l0.5,0.6c-0.2,0.2-0.4,0.4-0.7,0.5
					C109.8,179.2,109.5,179.3,109.2,179.3z"/>
				<path class="st11" d="M112,179.2v-4.1h0.9v1.1l-0.1-0.3c0.1-0.3,0.3-0.5,0.6-0.6c0.3-0.1,0.6-0.2,1-0.2v0.9c0,0-0.1,0-0.1,0
					c0,0-0.1,0-0.1,0c-0.4,0-0.7,0.1-0.9,0.3c-0.2,0.2-0.3,0.5-0.3,1v2H112z"/>
				<path class="st11" d="M117.5,179.2v-5.4h0.8l2.4,3.9h-0.4l2.3-3.9h0.8l0,5.4h-0.9l0-3.9h0.2l-2,3.3h-0.4l-2-3.3h0.2v3.9H117.5z"
					/>
				<path class="st11" d="M126.6,179.3c-0.4,0-0.8-0.1-1.1-0.3s-0.6-0.4-0.8-0.8c-0.2-0.3-0.3-0.7-0.3-1.1c0-0.4,0.1-0.8,0.3-1.1
					s0.4-0.6,0.8-0.7s0.7-0.3,1.1-0.3c0.4,0,0.8,0.1,1.1,0.3c0.3,0.2,0.6,0.4,0.8,0.7s0.3,0.7,0.3,1.1c0,0.4-0.1,0.8-0.3,1.1
					c-0.2,0.3-0.4,0.6-0.8,0.8C127.4,179.2,127,179.3,126.6,179.3z M126.6,178.4c0.2,0,0.4-0.1,0.6-0.2c0.2-0.1,0.3-0.3,0.4-0.4
					s0.2-0.4,0.2-0.7c0-0.3-0.1-0.5-0.2-0.7c-0.1-0.2-0.2-0.3-0.4-0.4c-0.2-0.1-0.4-0.2-0.6-0.2c-0.2,0-0.4,0.1-0.6,0.2
					c-0.2,0.1-0.3,0.3-0.4,0.4c-0.1,0.2-0.2,0.4-0.2,0.7c0,0.3,0.1,0.5,0.2,0.7c0.1,0.2,0.3,0.3,0.4,0.4
					C126.2,178.4,126.4,178.4,126.6,178.4z"/>
				<path class="st11" d="M129.7,179.2v-5.7h1v2.6l-0.1,1.1l0,1.1v1H129.7z M132,179.3c-0.3,0-0.7-0.1-0.9-0.2
					c-0.3-0.2-0.5-0.4-0.6-0.7c-0.2-0.3-0.2-0.7-0.2-1.2c0-0.5,0.1-0.9,0.2-1.2c0.2-0.3,0.4-0.5,0.7-0.7c0.3-0.2,0.6-0.2,0.9-0.2
					c0.4,0,0.8,0.1,1.1,0.3c0.3,0.2,0.6,0.4,0.7,0.7s0.3,0.7,0.3,1.1s-0.1,0.8-0.3,1.1s-0.4,0.6-0.7,0.7
					C132.8,179.2,132.4,179.3,132,179.3z M131.9,178.4c0.2,0,0.4-0.1,0.6-0.2c0.2-0.1,0.3-0.3,0.4-0.4c0.1-0.2,0.2-0.4,0.2-0.7
					c0-0.3-0.1-0.5-0.2-0.7c-0.1-0.2-0.3-0.3-0.4-0.4c-0.2-0.1-0.4-0.2-0.6-0.2c-0.2,0-0.4,0.1-0.6,0.2c-0.2,0.1-0.3,0.3-0.4,0.4
					c-0.1,0.2-0.2,0.4-0.2,0.7c0,0.3,0.1,0.5,0.2,0.7s0.3,0.3,0.4,0.4C131.5,178.4,131.7,178.4,131.9,178.4z"/>
				<path class="st11" d="M135.5,174.4c-0.2,0-0.3-0.1-0.4-0.2c-0.1-0.1-0.2-0.2-0.2-0.4c0-0.2,0.1-0.3,0.2-0.4
					c0.1-0.1,0.3-0.2,0.4-0.2c0.2,0,0.3,0.1,0.4,0.2c0.1,0.1,0.2,0.2,0.2,0.4c0,0.2-0.1,0.3-0.2,0.4
					C135.8,174.3,135.7,174.4,135.5,174.4z M135,179.2v-4.1h1v4.1H135z"/>
				<path class="st11" d="M137.2,179.2v-5.7h1v5.7H137.2z"/>
				<path class="st11" d="M141.4,179.3c-0.5,0-0.9-0.1-1.2-0.3s-0.6-0.4-0.8-0.8c-0.2-0.3-0.3-0.7-0.3-1.1c0-0.4,0.1-0.8,0.3-1.1
					s0.4-0.6,0.8-0.7s0.7-0.3,1.1-0.3c0.4,0,0.8,0.1,1.1,0.3s0.6,0.4,0.7,0.7s0.3,0.7,0.3,1.1c0,0,0,0.1,0,0.1c0,0.1,0,0.1,0,0.1
					h-3.4v-0.6h2.9l-0.4,0.2c0-0.2,0-0.4-0.1-0.6c-0.1-0.2-0.2-0.3-0.4-0.4c-0.2-0.1-0.4-0.2-0.6-0.2c-0.2,0-0.4,0.1-0.6,0.2
					c-0.2,0.1-0.3,0.2-0.4,0.4s-0.2,0.4-0.2,0.6v0.2c0,0.2,0.1,0.5,0.2,0.7c0.1,0.2,0.3,0.3,0.5,0.4c0.2,0.1,0.4,0.2,0.7,0.2
					c0.2,0,0.4,0,0.6-0.1s0.3-0.2,0.5-0.3l0.5,0.6c-0.2,0.2-0.4,0.4-0.7,0.5C142.1,179.2,141.8,179.3,141.4,179.3z"/>
				<path class="st11" d="M146.5,179.2v-5.4h0.8l3.4,4.2h-0.4v-4.2h1v5.4h-0.8l-3.4-4.2h0.4v4.2H146.5z"/>
				<path class="st11" d="M154.4,179.3c-0.3,0-0.7-0.1-0.9-0.2c-0.3-0.1-0.5-0.3-0.6-0.6s-0.2-0.6-0.2-1v-2.4h1v2.2
					c0,0.4,0.1,0.6,0.3,0.8c0.2,0.2,0.4,0.3,0.7,0.3c0.2,0,0.4,0,0.6-0.1c0.2-0.1,0.3-0.2,0.4-0.4c0.1-0.2,0.1-0.4,0.1-0.7v-2.1h1
					v4.1h-0.9v-1.1l0.2,0.3c-0.1,0.3-0.3,0.5-0.6,0.6S154.7,179.3,154.4,179.3z"/>
				<path class="st11" d="M163.1,175c0.3,0,0.6,0.1,0.9,0.2c0.3,0.1,0.5,0.3,0.6,0.6c0.1,0.3,0.2,0.6,0.2,1v2.4h-1V177
					c0-0.4-0.1-0.6-0.2-0.8c-0.2-0.2-0.4-0.3-0.7-0.3c-0.2,0-0.4,0-0.6,0.1c-0.2,0.1-0.3,0.2-0.4,0.4s-0.1,0.4-0.1,0.7v2.1h-1V177
					c0-0.4-0.1-0.6-0.2-0.8c-0.2-0.2-0.4-0.3-0.7-0.3c-0.2,0-0.4,0-0.6,0.1c-0.2,0.1-0.3,0.2-0.4,0.4s-0.1,0.4-0.1,0.7v2.1h-1v-4.1
					h0.9v1.1l-0.2-0.3c0.1-0.3,0.3-0.5,0.6-0.6c0.3-0.1,0.6-0.2,0.9-0.2c0.4,0,0.7,0.1,1,0.3c0.3,0.2,0.5,0.5,0.6,0.9l-0.4-0.1
					c0.1-0.3,0.4-0.6,0.7-0.7C162.3,175.1,162.7,175,163.1,175z"/>
				<path class="st11" d="M166,179.2v-5.7h1v2.6l-0.1,1.1l0,1.1v1H166z M168.3,179.3c-0.3,0-0.7-0.1-0.9-0.2
					c-0.3-0.2-0.5-0.4-0.6-0.7s-0.2-0.7-0.2-1.2c0-0.5,0.1-0.9,0.2-1.2s0.4-0.5,0.7-0.7c0.3-0.2,0.6-0.2,0.9-0.2
					c0.4,0,0.8,0.1,1.1,0.3c0.3,0.2,0.6,0.4,0.7,0.7s0.3,0.7,0.3,1.1s-0.1,0.8-0.3,1.1s-0.4,0.6-0.7,0.7
					C169,179.2,168.7,179.3,168.3,179.3z M168.2,178.4c0.2,0,0.4-0.1,0.6-0.2c0.2-0.1,0.3-0.3,0.4-0.4c0.1-0.2,0.2-0.4,0.2-0.7
					c0-0.3-0.1-0.5-0.2-0.7c-0.1-0.2-0.3-0.3-0.4-0.4c-0.2-0.1-0.4-0.2-0.6-0.2s-0.4,0.1-0.6,0.2c-0.2,0.1-0.3,0.3-0.4,0.4
					c-0.1,0.2-0.2,0.4-0.2,0.7c0,0.3,0.1,0.5,0.2,0.7c0.1,0.2,0.3,0.3,0.4,0.4C167.7,178.4,167.9,178.4,168.2,178.4z"/>
				<path class="st11" d="M173.2,179.3c-0.5,0-0.9-0.1-1.2-0.3s-0.6-0.4-0.8-0.8c-0.2-0.3-0.3-0.7-0.3-1.1c0-0.4,0.1-0.8,0.3-1.1
					c0.2-0.3,0.4-0.6,0.8-0.7s0.7-0.3,1.1-0.3c0.4,0,0.8,0.1,1.1,0.3s0.6,0.4,0.7,0.7c0.2,0.3,0.3,0.7,0.3,1.1c0,0,0,0.1,0,0.1
					c0,0.1,0,0.1,0,0.1h-3.4v-0.6h2.9l-0.4,0.2c0-0.2,0-0.4-0.1-0.6c-0.1-0.2-0.2-0.3-0.4-0.4s-0.4-0.2-0.6-0.2
					c-0.2,0-0.4,0.1-0.6,0.2c-0.2,0.1-0.3,0.2-0.4,0.4c-0.1,0.2-0.2,0.4-0.2,0.6v0.2c0,0.2,0.1,0.5,0.2,0.7c0.1,0.2,0.3,0.3,0.5,0.4
					c0.2,0.1,0.4,0.2,0.7,0.2c0.2,0,0.4,0,0.6-0.1c0.2-0.1,0.3-0.2,0.5-0.3l0.5,0.6c-0.2,0.2-0.4,0.4-0.7,0.5
					C173.9,179.2,173.6,179.3,173.2,179.3z"/>
				<path class="st11" d="M176.1,179.2v-4.1h0.9v1.1l-0.1-0.3c0.1-0.3,0.3-0.5,0.6-0.6c0.3-0.1,0.6-0.2,1-0.2v0.9c0,0-0.1,0-0.1,0
					c0,0-0.1,0-0.1,0c-0.4,0-0.7,0.1-0.9,0.3c-0.2,0.2-0.3,0.5-0.3,1v2H176.1z"/>
			</g>
			<polygon class="st30" points="427.6,439.6 23.6,438.9 33.7,428.7 418.6,428.7 			"/>
			<polygon class="st31" points="33.7,428.7 23.6,438.8 23.6,65.4 34,65.4 			"/>
			<polygon class="st32" points="427.6,439.6 418.6,428.7 418.6,65.5 427.8,65.5 			"/>
			<polyline class="st33" points="0,65.7 0,0 441.2,0 441.2,65.7 			"/>
			<g class="st4">
				<path class="st28" d="M70,44.5c-1.4,0-2.8-0.3-4-0.8c-1.2-0.6-2.2-1.4-3-2.4l2.4-2.9c0.6,0.9,1.3,1.5,2.1,1.9s1.6,0.6,2.4,0.6
					c2.3,0,3.5-1.4,3.5-4.2V25.1h-8v-3.5h12.2v15c0,2.7-0.7,4.7-2,6C74.3,43.8,72.4,44.5,70,44.5z"/>
				<path class="st28" d="M79.1,44.2l10.2-22.6h4.1l10.2,22.6h-4.4l-8.8-20.4h1.7l-8.7,20.4H79.1z M83.8,38.9l1.1-3.3h12.2l1.1,3.3
					H83.8z"/>
				<path class="st28" d="M110.1,44.2v-9l0.9,2.6l-9.8-16.3h4.5l7.9,13.1h-2.5l7.9-13.1h4.1l-9.8,16.3l1-2.6v9H110.1z"/>
				<path class="st28" d="M133.5,44.2V21.6h10.6c2.7,0,4.8,0.5,6.2,1.6c1.4,1.1,2.1,2.5,2.1,4.3c0,1.2-0.3,2.2-0.8,3.1
					c-0.6,0.9-1.3,1.5-2.2,2s-2,0.7-3.1,0.7l0.6-1.2c1.3,0,2.4,0.2,3.4,0.7c1,0.5,1.8,1.1,2.4,2c0.6,0.9,0.9,2,0.9,3.3
					c0,1.9-0.7,3.4-2.2,4.5c-1.5,1.1-3.7,1.6-6.6,1.6H133.5z M137.7,40.9h6.8c1.6,0,2.8-0.3,3.6-0.8c0.8-0.5,1.3-1.3,1.3-2.5
					c0-1.1-0.4-1.9-1.3-2.5c-0.8-0.5-2-0.8-3.6-0.8h-7.1v-3.3h6.3c1.5,0,2.6-0.3,3.4-0.8c0.8-0.5,1.2-1.3,1.2-2.3
					c0-1.1-0.4-1.8-1.2-2.4c-0.8-0.5-1.9-0.8-3.4-0.8h-5.9V40.9z"/>
				<path class="st28" d="M161.6,44.2h-4.2V21.6h4.2V44.2z M173.7,34.5h-12.4v-3.6h12.4V34.5z M173.3,21.6h4.2v22.6h-4.2V21.6z"/>
				<path class="st28" d="M179.8,44.2L190,21.6h4.1l10.2,22.6h-4.4l-8.8-20.4h1.7l-8.7,20.4H179.8z M184.5,38.9l1.1-3.3h12.2
					l1.1,3.3H184.5z"/>
				<path class="st28" d="M206.5,44.2V21.6h9.3c2,0,3.7,0.3,5.2,1c1.4,0.6,2.5,1.6,3.3,2.8c0.8,1.2,1.2,2.6,1.2,4.3
					c0,1.7-0.4,3.1-1.2,4.3s-1.9,2.1-3.3,2.7c-1.4,0.6-3.2,1-5.2,1h-7l1.9-1.9v8.5H206.5z M210.7,36.1l-1.9-2h6.8
					c1.9,0,3.2-0.4,4.2-1.2c0.9-0.8,1.4-1.9,1.4-3.3c0-1.4-0.5-2.6-1.4-3.3s-2.3-1.2-4.2-1.2h-6.8l1.9-2.1V36.1z M221.3,44.2
					l-5.7-8.2h4.5l5.8,8.2H221.3z"/>
				<path class="st28" d="M226.3,44.2l10.2-22.6h4.1l10.2,22.6h-4.4l-8.8-20.4h1.7l-8.7,20.4H226.3z M231,38.9l1.1-3.3h12.2l1.1,3.3
					H231z"/>
				<path class="st28" d="M256.5,44.2V25.1H249v-3.6h19.2v3.6h-7.5v19.1H256.5z"/>
				<path class="st28" d="M286,44.5c-1.8,0-3.5-0.3-5.1-0.8s-2.9-1.2-3.8-2l1.5-3.3c0.9,0.7,2,1.3,3.4,1.8c1.3,0.5,2.7,0.7,4.1,0.7
					c1.2,0,2.1-0.1,2.9-0.4c0.7-0.3,1.3-0.6,1.6-1.1c0.3-0.4,0.5-0.9,0.5-1.5c0-0.7-0.2-1.2-0.7-1.7c-0.5-0.4-1.1-0.8-1.9-1
					c-0.8-0.2-1.7-0.5-2.6-0.7c-1-0.2-1.9-0.5-2.9-0.8c-1-0.3-1.8-0.7-2.6-1.1c-0.8-0.5-1.4-1.1-1.9-1.9c-0.5-0.8-0.7-1.8-0.7-3
					c0-1.2,0.3-2.4,1-3.4s1.7-1.8,3-2.5c1.3-0.6,3.1-0.9,5.1-0.9c1.4,0,2.7,0.2,4,0.5c1.3,0.3,2.5,0.8,3.5,1.5l-1.3,3.3
					c-1-0.6-2.1-1-3.1-1.3s-2.1-0.4-3.1-0.4c-1.2,0-2.1,0.1-2.8,0.4s-1.2,0.6-1.6,1.1c-0.3,0.5-0.5,1-0.5,1.6c0,0.7,0.2,1.2,0.7,1.7
					c0.5,0.4,1.1,0.7,1.9,1c0.8,0.2,1.7,0.5,2.6,0.7s1.9,0.5,2.9,0.8c1,0.3,1.8,0.6,2.6,1.1c0.8,0.5,1.4,1.1,1.9,1.8
					s0.7,1.8,0.7,2.9c0,1.2-0.3,2.3-1,3.3c-0.7,1-1.7,1.8-3,2.5C289.8,44.2,288.1,44.5,286,44.5z"/>
				<path class="st28" d="M302.9,44.2V25.1h-7.5v-3.6h19.2v3.6h-7.5v19.1H302.9z"/>
				<path class="st28" d="M321.4,40.7h12.8v3.5h-17V21.6h16.5v3.5h-12.3V40.7z M321,31h11.2v3.5H321V31z"/>
				<path class="st28" d="M342.4,40.7h12.8v3.5h-17V21.6h16.5v3.5h-12.3V40.7z M342,31h11.2v3.5H342V31z"/>
				<path class="st28" d="M359.2,44.2V21.6h4.2v19.1h11.8v3.6H359.2z"/>
			</g>
			<path class="st34" d="M0,0l59.7,0.2C54.2,11.7,34.4,37.4,0.4,36.3L0,0z"/>
			<path class="st34" d="M441.1,0l-0.2,59.7c-11.5-5.5-37.2-25.3-36.1-59.4L441.1,0z"/>
		</g>
	</g>
</g>
</svg>
