<?xml version="1.0" encoding="utf-8"?>
<!-- Generator: Adobe Illustrator 26.3.1, SVG Export Plug-In . SVG Version: 6.00 Build 0)  -->
<svg version="1.1" id="Layer_1" xmlns="http://www.w3.org/2000/svg" xmlns:xlink="http://www.w3.org/1999/xlink" x="0px" y="0px"
	 viewBox="0 0 564.8 487.4" style="enable-background:new 0 0 564.8 487.4;" xml:space="preserve">
<style type="text/css">
	.st0{opacity:0.41;}
	.st1{fill:#EBEBEB;}
	.st2{fill:#C7C7C6;}
	.st3{fill:#FFFFFF;}
	.st4{fill:#DCDBDB;}
	.st5{fill:#A6A5A5;}
	.st6{fill:#37474F;}
	.st7{fill:#263238;}
	.st8{fill:#455B64;}
	.st9{fill:#06B7AE;}
	.st10{opacity:0.3;}
	.st11{fill:#FFC829;}
	.st12{opacity:0.1;fill:#010101;enable-background:new    ;}
	.st13{fill:#FBBF9E;}
	.st14{fill:#F7996E;}
	.st15{fill:#D7FFFC;}
</style>
<g id="Layer_2_00000039852345074557250400000003245349418482383518_">
	<g id="Layer_1-2">
		<g class="st0">
			<path class="st1" d="M402.5,38.3c6.9,0,122,0.8,129.3,0.5c0.5,0,0.8-0.8,0.3-1c-4.6-2.3-9.7-1.8-14.5-3.4
				c-2.8-0.9-4.5-2.8-6.4-4.8c-1.6-1.8-3.7-3.2-6-3.9c-2.1-0.6-4.4-0.7-6.5-0.2c-2.3,0.6-4.4,1.9-6.6,2.7c-5.5,2.1-10.9,0.1-14.9-4
				c-3.3-3.4-6.5-6.6-10.9-8.4c-3.7-1.7-7.8-1.7-11.5-0.2c-4.2,1.9-7.1,5.8-11.1,8.1c-4.7,2.8-10.3,2.1-15.5,2.9s-9.2,5.2-13.7,7.7
				c-1.5,1-3.2,1.5-5,1.5c-1-0.1-2-0.2-3-0.4c-1.6-0.2-3.1-0.1-4.1,1.2C402,37,402.1,38.3,402.5,38.3z"/>
			<path class="st1" d="M301.5,72c5,0,89.1,0.6,94.4,0.4c0.4,0,0.6-0.6,0.2-0.8c-3.3-1.7-7.1-1.3-10.6-2.5c-1.9-0.7-3.5-2-4.7-3.6
				c-1.2-1.3-2.7-2.3-4.4-2.9c-1.5-0.5-3.2-0.5-4.8-0.1c-1.6,0.6-3.3,1.2-4.8,2c-4,1.5-8,0.1-10.9-2.9c-2.4-2.5-4.7-4.8-8-6.1
				c-2.7-1.2-5.7-1.3-8.4-0.1c-3.1,1.4-5.2,4.2-8.1,5.9c-3.4,2-7.5,1.5-11.3,2.1c-3.8,0.6-6.7,3.8-10,5.6c-1.1,0.7-2.3,1.1-3.6,1.1
				c-0.7,0-1.5-0.2-2.2-0.3c-1.1-0.3-2.2,0-3,0.8C301.2,71,301.2,72,301.5,72z"/>
			<path class="st1" d="M413,83.5c0.1,0.3,132.5,0,130.9,0c-0.8,0,1.2-1.1,0.4-1.5c-4.3-2.1-9-2.2-13.7-2.6c-2.8-0.1-5.5-0.8-8-1.9
				c-2.5-1.3-4-3.6-5.8-5.7c-5.6-6.6-14.1-9.8-22.6-8.6c-9.4,1.5-16.8,8.7-26.3,10c-5.7,0.8-11-1.4-16.6-2.2
				c-4.3-0.6-8.6,0.2-12.4,2.3c-3,1.5-5.8,2.7-9.1,3c-2.6,0.2-5.2-0.1-7.8-0.2c-4.3,0.1-8.3,1.7-11.5,4.6
				C410,81,408.7,83.5,413,83.5z"/>
		</g>
		<g class="st0">
			<path class="st1" d="M264.5,41.3c6.9,0,122,0.8,129.3,0.5c0.5,0,0.8-0.8,0.3-1c-4.6-2.3-9.7-1.8-14.5-3.4
				c-2.8-0.9-4.5-2.8-6.4-4.8c-1.6-1.8-3.7-3.2-6-3.9c-2.1-0.6-4.4-0.7-6.5-0.2c-2.3,0.6-4.4,1.9-6.6,2.7c-5.5,2.1-10.9,0.1-14.9-4
				c-3.3-3.4-6.5-6.6-10.9-8.4c-3.7-1.7-7.8-1.7-11.5-0.2c-4.2,1.9-7.1,5.8-11.1,8.1c-4.7,2.8-10.3,2.1-15.5,2.9s-9.2,5.2-13.7,7.7
				c-1.5,1-3.2,1.5-5,1.5c-1-0.1-2-0.2-3-0.4c-1.6-0.2-3.1-0.1-4.1,1.2C264,40,264.1,41.3,264.5,41.3z"/>
			<path class="st1" d="M33.7,32.4c6.9,0,122,0.8,129.3,0.5c0.5,0,0.8-0.8,0.3-1c-4.6-2.3-9.7-1.8-14.5-3.4
				c-2.8-0.9-4.5-2.8-6.4-4.8c-1.6-1.8-3.7-3.2-6-3.9c-2.1-0.6-4.4-0.7-6.5-0.2c-2.3,0.6-4.4,1.9-6.6,2.7c-5.5,2.1-10.9,0.1-14.9-4
				c-3.3-3.4-6.5-6.6-10.9-8.4C93.8,8.3,89.7,8.2,86,9.8c-4.2,1.9-7.1,5.8-11.1,8.1c-4.7,2.8-10.3,2.1-15.5,2.9s-9.2,5.2-13.7,7.7
				c-1.5,1-3.2,1.5-5,1.5c-1-0.1-2-0.2-3-0.4c-1.6-0.2-3.1-0.1-4.1,1.2C33.2,31.1,33.3,32.4,33.7,32.4z"/>
			<path class="st1" d="M5.7,78.2c5,0,89.1,0.6,94.4,0.4c0.4,0,0.6-0.6,0.2-0.8c-3.3-1.7-7.1-1.3-10.6-2.5c-1.9-0.7-3.5-2-4.7-3.6
				c-1.2-1.3-2.7-2.3-4.4-2.9c-1.5-0.5-3.2-0.5-4.8-0.1c-1.6,0.6-3.3,1.2-4.8,2c-4,1.5-8,0.1-10.9-2.9c-2.4-2.5-4.7-4.8-8-6.1
				c-2.7-1.2-5.7-1.3-8.4-0.1c-3.1,1.4-5.2,4.2-8.1,5.9c-3.4,2-7.5,1.5-11.3,2.1s-6.7,3.8-10,5.6c-1.1,0.7-2.3,1.1-3.6,1.1
				c-0.7,0-1.5-0.2-2.2-0.3c-1.1-0.3-2.2,0-3,0.8C5.3,77.2,5.4,78.2,5.7,78.2z"/>
		</g>
		<rect x="101.8" y="36.6" class="st1" width="70.8" height="450.2"/>
		<rect x="100.1" y="26.7" class="st2" width="72.5" height="9.9"/>
		<rect x="108.2" y="51.1" class="st3" width="7.2" height="435.6"/>
		<rect x="120.9" y="51.1" class="st3" width="7.2" height="435.6"/>
		<rect x="133.6" y="51.1" class="st3" width="7.2" height="435.6"/>
		<rect x="146.3" y="51.1" class="st3" width="7.2" height="435.6"/>
		<rect x="159" y="51.1" class="st3" width="7.2" height="435.6"/>
		<rect x="108.2" y="63.6" class="st1" width="7.2" height="19.4"/>
		<rect x="120.9" y="63.6" class="st1" width="7.2" height="19.4"/>
		<rect x="133.6" y="63.6" class="st1" width="7.2" height="19.4"/>
		<rect x="146.3" y="63.6" class="st1" width="7.2" height="19.4"/>
		<rect x="159" y="63.6" class="st1" width="7.2" height="19.4"/>
		<rect x="108.2" y="95.2" class="st1" width="7.2" height="19.4"/>
		<rect x="120.9" y="95.2" class="st1" width="7.2" height="19.4"/>
		<rect x="133.6" y="95.2" class="st1" width="7.2" height="19.4"/>
		<rect x="146.3" y="95.2" class="st1" width="7.2" height="19.4"/>
		<rect x="159" y="95.2" class="st1" width="7.2" height="19.4"/>
		<rect x="108.2" y="126.8" class="st1" width="7.2" height="19.4"/>
		<rect x="120.9" y="126.8" class="st1" width="7.2" height="19.4"/>
		<rect x="133.6" y="126.8" class="st1" width="7.2" height="19.4"/>
		<rect x="146.3" y="126.8" class="st1" width="7.2" height="19.4"/>
		<rect x="159" y="126.8" class="st1" width="7.2" height="19.4"/>
		<rect x="108.2" y="158.4" class="st1" width="7.2" height="19.4"/>
		<rect x="120.9" y="158.4" class="st1" width="7.2" height="19.4"/>
		<rect x="133.6" y="158.4" class="st1" width="7.2" height="19.4"/>
		<rect x="146.3" y="158.4" class="st1" width="7.2" height="19.4"/>
		<rect x="159" y="158.4" class="st1" width="7.2" height="19.4"/>
		<rect x="108.2" y="190.1" class="st1" width="7.2" height="19.4"/>
		<rect x="120.9" y="190.1" class="st1" width="7.2" height="19.4"/>
		<rect x="133.6" y="190.1" class="st1" width="7.2" height="19.4"/>
		<rect x="146.3" y="190.1" class="st1" width="7.2" height="19.4"/>
		<rect x="159" y="190.1" class="st1" width="7.2" height="19.4"/>
		<rect x="108.2" y="221.7" class="st1" width="7.2" height="19.4"/>
		<rect x="120.9" y="221.7" class="st1" width="7.2" height="19.4"/>
		<rect x="133.6" y="221.7" class="st1" width="7.2" height="19.4"/>
		<rect x="146.3" y="221.7" class="st1" width="7.2" height="19.4"/>
		<rect x="159" y="221.7" class="st1" width="7.2" height="19.4"/>
		<rect x="108.2" y="253.3" class="st1" width="7.2" height="19.4"/>
		<rect x="120.9" y="253.3" class="st1" width="7.2" height="19.4"/>
		<rect x="133.6" y="253.3" class="st1" width="7.2" height="19.4"/>
		<rect x="146.3" y="253.3" class="st1" width="7.2" height="19.4"/>
		<rect x="159" y="253.3" class="st1" width="7.2" height="19.4"/>
		<rect x="108.2" y="284.9" class="st1" width="7.2" height="19.4"/>
		<rect x="120.9" y="284.9" class="st1" width="7.2" height="19.4"/>
		<rect x="133.6" y="284.9" class="st1" width="7.2" height="19.4"/>
		<rect x="146.3" y="284.9" class="st1" width="7.2" height="19.4"/>
		<rect x="159" y="284.9" class="st1" width="7.2" height="19.4"/>
		<rect x="108.2" y="316.5" class="st1" width="7.2" height="19.4"/>
		<rect x="120.9" y="316.5" class="st1" width="7.2" height="19.4"/>
		<rect x="133.6" y="316.5" class="st1" width="7.2" height="19.4"/>
		<rect x="146.3" y="316.5" class="st1" width="7.2" height="19.4"/>
		<rect x="159" y="316.5" class="st1" width="7.2" height="19.4"/>
		<rect x="108.2" y="348.2" class="st1" width="7.2" height="19.4"/>
		<rect x="120.9" y="348.2" class="st1" width="7.2" height="19.4"/>
		<rect x="133.6" y="348.2" class="st1" width="7.2" height="19.4"/>
		<rect x="146.3" y="348.2" class="st1" width="7.2" height="19.4"/>
		<rect x="159" y="348.2" class="st1" width="7.2" height="19.4"/>
		<rect x="108.2" y="379.8" class="st1" width="7.2" height="19.4"/>
		<rect x="120.9" y="379.8" class="st1" width="7.2" height="19.4"/>
		<rect x="133.6" y="379.8" class="st1" width="7.2" height="19.4"/>
		<rect x="146.3" y="379.8" class="st1" width="7.2" height="19.4"/>
		<rect x="159" y="379.8" class="st1" width="7.2" height="19.4"/>
		<rect x="108.2" y="411.4" class="st1" width="7.2" height="19.4"/>
		<rect x="120.9" y="411.4" class="st1" width="7.2" height="19.4"/>
		<rect x="133.6" y="411.4" class="st1" width="7.2" height="19.4"/>
		<rect x="146.3" y="411.4" class="st1" width="7.2" height="19.4"/>
		<rect x="159" y="411.4" class="st1" width="7.2" height="19.4"/>
		<rect x="108.2" y="443" class="st1" width="7.2" height="19.4"/>
		<rect x="120.9" y="443" class="st1" width="7.2" height="19.4"/>
		<rect x="133.6" y="443" class="st1" width="7.2" height="19.4"/>
		<rect x="146.3" y="443" class="st1" width="7.2" height="19.4"/>
		<rect x="159" y="443" class="st1" width="7.2" height="19.4"/>
		<rect x="108.2" y="474.6" class="st1" width="7.2" height="12.1"/>
		<rect x="120.9" y="474.6" class="st1" width="7.2" height="12.1"/>
		<rect x="133.6" y="474.6" class="st1" width="7.2" height="12.1"/>
		<rect x="146.3" y="474.6" class="st1" width="7.2" height="12.1"/>
		<rect x="159" y="474.6" class="st1" width="7.2" height="12.1"/>
		<rect x="172.6" y="36.6" class="st4" width="45.5" height="450.2"/>
		<rect x="172.6" y="26.7" class="st2" width="47.4" height="9.9"/>
		<rect x="179" y="51.1" class="st2" width="7.2" height="435.6"/>
		<rect x="191.7" y="51.1" class="st2" width="7.2" height="435.6"/>
		<rect x="204.4" y="51.1" class="st2" width="7.2" height="435.6"/>
		<rect x="179" y="63.6" class="st4" width="7.2" height="19.4"/>
		<rect x="191.7" y="63.6" class="st4" width="7.2" height="19.4"/>
		<rect x="204.4" y="63.6" class="st4" width="7.2" height="19.4"/>
		<rect x="179" y="95.2" class="st4" width="7.2" height="19.4"/>
		<rect x="191.7" y="95.2" class="st4" width="7.2" height="19.4"/>
		<rect x="204.4" y="95.2" class="st4" width="7.2" height="19.4"/>
		<rect x="179" y="126.8" class="st4" width="7.2" height="19.4"/>
		<rect x="191.7" y="126.8" class="st4" width="7.2" height="19.4"/>
		<rect x="204.4" y="126.8" class="st4" width="7.2" height="19.4"/>
		<rect x="179" y="158.4" class="st4" width="7.2" height="19.4"/>
		<rect x="191.7" y="158.4" class="st4" width="7.2" height="19.4"/>
		<rect x="204.4" y="158.4" class="st4" width="7.2" height="19.4"/>
		<rect x="179" y="190.1" class="st4" width="7.2" height="19.4"/>
		<rect x="191.7" y="190.1" class="st4" width="7.2" height="19.4"/>
		<rect x="204.4" y="190.1" class="st4" width="7.2" height="19.4"/>
		<rect x="179" y="221.7" class="st4" width="7.2" height="19.4"/>
		<rect x="191.7" y="221.7" class="st4" width="7.2" height="19.4"/>
		<rect x="204.4" y="221.7" class="st4" width="7.2" height="19.4"/>
		<rect x="179" y="253.3" class="st4" width="7.2" height="19.4"/>
		<rect x="191.7" y="253.3" class="st4" width="7.2" height="19.4"/>
		<rect x="204.4" y="253.3" class="st4" width="7.2" height="19.4"/>
		<rect x="179" y="284.9" class="st4" width="7.2" height="19.4"/>
		<rect x="191.7" y="284.9" class="st4" width="7.2" height="19.4"/>
		<rect x="204.4" y="284.9" class="st4" width="7.2" height="19.4"/>
		<rect x="179" y="316.5" class="st4" width="7.2" height="19.4"/>
		<rect x="191.7" y="316.5" class="st4" width="7.2" height="19.4"/>
		<rect x="204.4" y="316.5" class="st4" width="7.2" height="19.4"/>
		<rect x="179" y="348.2" class="st4" width="7.2" height="19.4"/>
		<rect x="191.7" y="348.2" class="st4" width="7.2" height="19.4"/>
		<rect x="204.4" y="348.2" class="st4" width="7.2" height="19.4"/>
		<rect x="179" y="379.8" class="st4" width="7.2" height="19.4"/>
		<rect x="191.7" y="379.8" class="st4" width="7.2" height="19.4"/>
		<rect x="204.4" y="379.8" class="st4" width="7.2" height="19.4"/>
		<rect x="179" y="411.4" class="st4" width="7.2" height="19.4"/>
		<rect x="191.7" y="411.4" class="st4" width="7.2" height="19.4"/>
		<rect x="204.4" y="411.4" class="st4" width="7.2" height="19.4"/>
		<rect x="179" y="443" class="st4" width="7.2" height="19.4"/>
		<rect x="191.7" y="443" class="st4" width="7.2" height="19.4"/>
		<rect x="204.4" y="443" class="st4" width="7.2" height="19.4"/>
		<rect x="179" y="474.6" class="st4" width="7.2" height="12.1"/>
		<rect x="191.7" y="474.6" class="st4" width="7.2" height="12.1"/>
		<rect x="204.4" y="474.6" class="st4" width="7.2" height="12.1"/>
		<rect x="202.4" y="171.9" class="st1" width="78" height="314.9"/>
		<rect x="213.5" y="145.2" class="st2" width="66.9" height="26.7"/>
		<rect x="210.9" y="185.8" class="st4" width="60.9" height="300.9"/>
		<rect x="210.9" y="214.5" class="st3" width="60.9" height="7.1"/>
		<rect x="210.9" y="244" class="st3" width="60.9" height="7.1"/>
		<rect x="210.9" y="273.5" class="st3" width="60.9" height="7.1"/>
		<rect x="210.9" y="302.9" class="st3" width="60.9" height="7.1"/>
		<rect x="210.9" y="332.4" class="st3" width="60.9" height="7.1"/>
		<rect x="210.9" y="361.8" class="st3" width="60.9" height="7.1"/>
		<rect x="210.9" y="391.3" class="st3" width="60.9" height="7.1"/>
		<rect x="210.9" y="420.7" class="st3" width="60.9" height="7.1"/>
		<rect x="210.9" y="450.2" class="st3" width="60.9" height="7.1"/>
		<rect x="210.9" y="479.6" class="st3" width="60.9" height="7.1"/>
		<rect x="280.4" y="171.9" class="st4" width="48.9" height="314.9"/>
		<rect x="280.4" y="145.2" class="st5" width="41.5" height="26.7"/>
		<rect x="287.1" y="185.8" class="st2" width="37.6" height="300.9"/>
		<rect x="287.1" y="214.5" class="st3" width="37.6" height="7.1"/>
		<rect x="287.1" y="244" class="st3" width="37.6" height="7.1"/>
		<rect x="287.1" y="273.5" class="st3" width="37.6" height="7.1"/>
		<rect x="287.1" y="302.9" class="st3" width="37.6" height="7.1"/>
		<rect x="287.1" y="332.4" class="st3" width="37.6" height="7.1"/>
		<rect x="287.1" y="361.8" class="st3" width="37.6" height="7.1"/>
		<rect x="287.1" y="391.3" class="st3" width="37.6" height="7.1"/>
		<rect x="287.1" y="420.7" class="st3" width="37.6" height="7.1"/>
		<rect x="287.1" y="450.2" class="st3" width="37.6" height="7.1"/>
		<rect x="287.1" y="479.6" class="st3" width="37.6" height="7.1"/>
		<rect x="28.9" y="290.4" class="st2" width="71.8" height="196.3"/>
		<rect x="40.2" y="307.4" class="st4" width="12.7" height="12"/>
		<rect x="40.2" y="333.1" class="st4" width="12.7" height="12"/>
		<rect x="40.2" y="358.8" class="st4" width="12.7" height="12"/>
		<rect x="40.2" y="384.5" class="st4" width="12.7" height="12"/>
		<rect x="40.2" y="410.2" class="st4" width="12.7" height="12"/>
		<rect x="40.2" y="435.9" class="st4" width="12.7" height="12"/>
		<rect x="40.2" y="461.6" class="st4" width="12.7" height="12"/>
		<rect x="58.5" y="307.4" class="st4" width="12.7" height="12"/>
		<rect x="58.5" y="333.1" class="st4" width="12.7" height="12"/>
		<rect x="58.5" y="358.8" class="st4" width="12.7" height="12"/>
		<rect x="58.5" y="384.5" class="st4" width="12.7" height="12"/>
		<rect x="58.5" y="410.2" class="st4" width="12.7" height="12"/>
		<rect x="58.5" y="435.9" class="st4" width="12.7" height="12"/>
		<rect x="58.5" y="461.6" class="st4" width="12.7" height="12"/>
		<rect x="76.8" y="307.4" class="st4" width="12.7" height="12"/>
		<rect x="76.8" y="333.1" class="st4" width="12.7" height="12"/>
		<rect x="76.8" y="358.8" class="st4" width="12.7" height="12"/>
		<rect x="76.8" y="384.5" class="st4" width="12.7" height="12"/>
		<rect x="76.8" y="410.2" class="st4" width="12.7" height="12"/>
		<rect x="76.8" y="435.9" class="st4" width="12.7" height="12"/>
		<rect x="76.8" y="461.6" class="st4" width="12.7" height="12"/>
		<rect x="53" y="270" class="st4" width="47.8" height="20.5"/>
		<rect x="70.5" y="257.3" class="st1" width="30.3" height="12.7"/>
		<rect x="100.8" y="290.4" class="st5" width="50.4" height="196.3"/>
		<rect x="135.7" y="459.7" class="st2" width="10.3" height="12"/>
		<rect x="135.7" y="434" class="st2" width="10.3" height="12"/>
		<rect x="135.7" y="408.3" class="st2" width="10.3" height="12"/>
		<rect x="135.7" y="382.6" class="st2" width="10.3" height="12"/>
		<rect x="135.7" y="356.9" class="st2" width="10.3" height="12"/>
		<rect x="135.7" y="331.2" class="st2" width="10.3" height="12"/>
		<rect x="135.7" y="305.5" class="st2" width="10.3" height="12"/>
		<rect x="120.8" y="459.7" class="st2" width="10.3" height="12"/>
		<rect x="120.8" y="434" class="st2" width="10.3" height="12"/>
		<rect x="120.8" y="408.3" class="st2" width="10.3" height="12"/>
		<rect x="120.8" y="382.6" class="st2" width="10.3" height="12"/>
		<rect x="120.8" y="356.9" class="st2" width="10.3" height="12"/>
		<rect x="120.8" y="331.2" class="st2" width="10.3" height="12"/>
		<rect x="120.8" y="305.5" class="st2" width="10.3" height="12"/>
		<rect x="105.9" y="459.7" class="st2" width="10.3" height="12"/>
		<rect x="105.9" y="434" class="st2" width="10.3" height="12"/>
		<rect x="105.9" y="408.3" class="st2" width="10.3" height="12"/>
		<rect x="105.9" y="382.6" class="st2" width="10.3" height="12"/>
		<rect x="105.9" y="356.9" class="st2" width="10.3" height="12"/>
		<rect x="105.9" y="331.2" class="st2" width="10.3" height="12"/>
		<rect x="105.9" y="305.5" class="st2" width="10.3" height="12"/>
		<rect x="100.8" y="270" class="st2" width="42.8" height="20.5"/>
		<rect x="100.8" y="257.3" class="st4" width="23.2" height="12.7"/>
		<path class="st6" d="M52,404.5c0,0,16.4,49.5-10.4,49.6s-9.4-51.2-9.4-51.2s-6.2-3.6,1-31.4c7.2-27.7,10.4-27.7,13.4-27.7
			c3.8,0,7.3,12,4.7,30.3C51.2,374.1,60.6,397.1,52,404.5z"/>
		<polygon class="st7" points="39.3,487 41.8,412.3 44.4,487 		"/>
		<polygon class="st7" points="40.8,443.6 50.5,428.1 42.9,445.6 		"/>
		<path class="st8" d="M70.8,409.8c0,0-7.6-4.1-13.7,10.2c-6.2,14.7,1.6,24.4,7.8,18.6c0,0,4.9,13.8,14.5,10.5s11.2-13.9,11.2-13.9
			s8.6,0.8,8.8-7.9c0.2-8.7-6.1-16.4-6.1-16.4s-0.4-21.8-10.8-21.6S70.8,409.8,70.8,409.8z"/>
		<polygon class="st7" points="77.9,486.9 80.1,422.2 82.3,486.9 		"/>
		<polygon class="st7" points="79.4,446.5 72.7,428.4 80.5,443.7 		"/>
		<path class="st9" d="M507.1,430.9l1.9,42.9h36.5l-3.8-18.1l-12.2-3.8c-0.6-0.2-1.1-0.7-1.4-1.4l-7.2-18.7L507.1,430.9z"/>
		<polygon class="st8" points="511.1,433.9 512,450 525.2,451.2 519.5,434.5 		"/>
		<g class="st10">
			<polygon class="st3" points="511.6,442.7 511.8,446.4 515.7,450.3 519.5,450.7 			"/>
			<polygon class="st3" points="513.8,434.1 522.2,442.6 521.3,439.9 515.6,434.2 			"/>
			<polygon class="st3" points="511.2,435.8 511.2,436.2 524.6,449.7 524.4,449.1 			"/>
			<polygon class="st3" points="511.9,447.7 511.9,448.2 513.8,450.2 514.3,450.2 			"/>
		</g>
		<polygon class="st7" points="511.1,433.9 519.5,434.5 525.2,451.2 524.3,451.1 518.9,435.3 511.1,434.6 		"/>
		<rect x="529" y="452.3" class="st7" width="0.2" height="20.9"/>
		<path class="st3" d="M543.4,455.7l-3-0.5l1.7,6.1l1.5-0.2c0.3,0,0.6-0.3,0.6-0.7l-0.3-4.2C543.9,456,543.7,455.8,543.4,455.7z"/>
		<path class="st11" d="M526.8,446.9c-0.7,0.6-0.1,6.1,0.4,6c0.7-0.1,1.4-0.3,2-0.6c0.4-0.4,2.9-4.8,2.3-5.7
			S527.3,446.4,526.8,446.9z"/>
		<path class="st8" d="M526.8,446.9c-0.7,0.6-0.1,6.1,0.4,6c0.7-0.1,1.4-0.3,2-0.6c0.4-0.4,2.9-4.8,2.3-5.7S527.3,446.4,526.8,446.9
			z"/>
		<polygon class="st12" points="517.2,454.7 512.7,454.7 512.7,453.4 517.2,453.7 		"/>
		<polygon class="st1" points="508,473.8 388.7,473.8 392.6,420.2 505.6,421.6 		"/>
		<polygon class="st12" points="508,473.8 388.7,473.8 388.9,470.9 507.7,466.2 		"/>
		<polygon class="st5" points="388.3,476.2 547.3,476.2 547.3,472.8 547.3,472.8 388.3,472.8 		"/>
		<polygon class="st4" points="549.7,471.1 538.2,471.8 538.2,471.8 538.2,476.7 550.5,476.7 550.5,476.7 		"/>
		<polygon class="st4" points="332.2,476.7 332.2,472 325,471.2 324.1,476.7 		"/>
		<path class="st2" d="M402,477.4l-2.4-0.4c0.5-3.1,3.2-8.9,10.2-8.9s9.7,5.9,10.1,9l-2.4,0.3l1.2-0.2l-1.2,0.2c0-0.3-1-6.9-7.7-6.9
			S402.1,477.1,402,477.4z"/>
		<path class="st6" d="M409.8,469.6c-11.2,0-11.2,17.4,0,17.4S421,469.6,409.8,469.6z"/>
		<path class="st2" d="M409.8,474.3c-5.1,0-5.1,7.9,0,7.9S414.9,474.3,409.8,474.3z"/>
		<path class="st2" d="M513.3,477.4l-2.4-0.4c0.5-3.1,3.1-8.9,10.2-8.9s9.7,5.9,10.1,9l-2.4,0.3l1.2-0.2l-1.2,0.2
			c0-0.3-1-6.9-7.7-6.9S513.3,477.1,513.3,477.4z"/>
		<path class="st6" d="M521.1,469.6c-11.2,0-11.2,17.4,0,17.4C532.3,487,532.3,469.6,521.1,469.6z"/>
		<path class="st2" d="M521.1,474.3c-5.1,0-5.1,7.9,0,7.9C526.2,482.2,526.2,474.3,521.1,474.3z"/>
		<path class="st3" d="M100.7,453l-10.9,14.8l18.4,13.7c1.2-1.8-5.7-12.4-5.7-12.4l7.4-9.2L100.7,453z"/>
		<path class="st7" d="M97.4,464.1c-0.4-0.2-0.9,0-1.2,0.5c-0.2,0.4,0,1,0.5,1.1c0.5,0.2,1-0.1,1.2-0.5
			C98.1,464.7,97.8,464.2,97.4,464.1"/>
		<path class="st3" d="M89.8,467.9l1.2-1.6l17.2,13.8c0,0,0.6,1,0,1.5L89.8,467.9z"/>
		<path class="st7" d="M102.9,469.3c-0.1,0.1-0.6-0.2-1.2-0.2s-1.2,0.2-1.2,0.1s0.5-0.5,1.3-0.4S103,469.2,102.9,469.3z"/>
		<path class="st7" d="M104.2,471.5c0,0.1-0.5,0-1.1,0.1s-1,0.5-1.1,0.4s0.2-0.6,1-0.8S104.3,471.4,104.2,471.5z"/>
		<path class="st7" d="M103.6,474.6c-0.1,0,0.1-0.6,0.7-0.9s1.2-0.2,1.2-0.1s-0.5,0.2-1,0.4S103.7,474.7,103.6,474.6z"/>
		<path class="st7" d="M104.3,467c-0.1,0-0.4-0.4-1-0.7c-0.6-0.3-1-0.5-1-0.6c0-0.1,0.6-0.1,1.2,0.3S104.4,466.9,104.3,467z"/>
		<path class="st7" d="M145.2,391c0.3,1.9,0.9,17.7,1.2,26s-0.5,12.5-1.4,14.3s-36.9,28.4-39.7,34.8l-9.1-7.4c0,0,13.3-24,19.1-28.4
			s16.7-8.4,16.7-8.4l-3.1-45.7l15-0.8L145.2,391z"/>
		<path class="st3" d="M111.8,467.7l-0.2,18.4l22.9,0.3c-0.1-2.2-11.9-6.8-11.9-6.8l0.6-11.8L111.8,467.7z"/>
		<path class="st7" d="M115.5,478.6c-0.5,0.1-0.7,0.6-0.7,1.1c0.1,0.4,0.5,0.7,1,0.7c0.5-0.1,0.8-0.6,0.7-1.1
			c-0.2-0.5-0.7-0.7-1.2-0.6"/>
		<path class="st3" d="M111.6,486.2v-2l22,1.1c0,0,1,0.5,0.9,1.2L111.6,486.2z"/>
		<path class="st7" d="M123,479.6c0,0.1-0.6,0.2-1.1,0.5s-0.9,0.8-1,0.8s0.1-0.7,0.8-1.1S123,479.5,123,479.6z"/>
		<path class="st7" d="M125.4,480.6c0,0.1-0.5,0.3-0.8,0.8s-0.5,1-0.6,1s-0.2-0.6,0.3-1.2S125.4,480.5,125.4,480.6z"/>
		<path class="st7" d="M126.7,483.5c-0.1,0-0.2-0.5,0-1.1s0.8-0.9,0.9-0.8s-0.3,0.4-0.5,0.9S126.8,483.5,126.7,483.5z"/>
		<path class="st7" d="M122.8,476.9c0,0.1-0.6-0.1-1.2,0s-1.1,0.2-1.2,0.1s0.4-0.5,1.2-0.5S122.9,476.8,122.8,476.9z"/>
		<path class="st7" d="M146.9,373.6c0,1.1,1.7,28.3-7.2,48c0,0-3.1,6.2-3.6,8.9c-0.5,2.7-12.1,47.4-12.1,47.4l-13.3-0.5
			c0,0-2.1-22.4,0-35.3c2.1-12.9,6.1-11.4,6.1-19.8s-2-25.7-2-25.7s-2.9-4.7-3.9-13.9c-0.8-7.5,2.7-15.4,2.7-15.4l3.5-6.1l29.4-1.5
			L146.9,373.6z"/>
		<path class="st8" d="M146.9,373.6c0,0,0-0.3,0-0.9s0-1.5,0-2.7c-0.1-2.4-0.1-5.9-0.3-10.5v-0.1h-0.1l-29.4,1.5H117l0,0l-3.5,6.1
			l0,0c-0.9,2.2-1.6,4.4-2.1,6.7c-0.5,2.4-0.8,4.9-0.7,7.4c0.2,2.6,0.6,5.2,1.2,7.7c0.6,2.7,1.6,5.2,2.8,7.6v-0.1
			c0.5,4.5,1,9.2,1.4,14.1c0.2,2.4,0.4,4.9,0.5,7.4c0.1,1.2,0.1,2.5,0.1,3.8c0,0.6,0,1.3,0,1.9c0,0.6-0.1,1.3-0.2,1.9
			c-0.2,1.2-0.7,2.5-1.3,3.6c-0.6,1.1-1.2,2.3-1.8,3.4c-1.1,2.4-1.9,4.9-2.4,7.5c-1,5.3-1.5,10.8-1.4,16.2c0,7.2,0.3,14.3,0.9,21.2
			v0.1h0.2l13.3,0.5h0.1v-0.1c3.8-15,7.4-28.9,10.6-41.5c0.4-1.6,0.8-3.1,1.2-4.7c0.2-0.8,0.3-1.5,0.6-2.3s0.5-1.4,0.8-2.2
			c0.6-1.4,1.2-2.8,1.8-4.1c0.1-0.3,0.3-0.7,0.5-1c0.2-0.3,0.3-0.7,0.4-1l0.8-2c1.9-4.9,3.3-10,4.2-15.2c1.3-7.4,2-14.8,2-22.3
			C147,376.4,146.8,373.5,146.9,373.6l-0.1,0.6c0,0.4,0,0.9,0,1.5c0,1.4,0.1,3.4,0,6c-0.1,7.5-0.8,14.9-2.1,22.3
			c-0.9,5.2-2.3,10.2-4.2,15.1c-0.3,0.6-0.6,1.3-0.8,2c-0.1,0.3-0.3,0.7-0.4,1l-0.5,1c-0.6,1.3-1.2,2.7-1.8,4.1
			c-0.3,0.7-0.6,1.4-0.8,2.2s-0.4,1.5-0.6,2.3l-1.2,4.6c-3.2,12.6-6.8,26.5-10.7,41.5l0.2-0.1l-13.2-0.6l0.2,0.1
			c-0.6-6.9-1-14-0.9-21.2c-0.1-5.4,0.4-10.8,1.3-16.1c0.5-2.6,1.3-5.1,2.4-7.5c0.6-1.2,1.2-2.3,1.8-3.4c0.6-1.1,1-2.4,1.3-3.7
			c0.1-0.6,0.2-1.3,0.2-1.9c0-0.6,0.1-1.3,0-1.9c0-1.3-0.1-2.5-0.1-3.8c-0.1-2.5-0.3-5-0.5-7.4c-0.4-4.8-0.9-9.5-1.4-14.1v-0.1
			c-1.3-2.4-2.2-4.9-2.8-7.5c-0.6-2.5-1-5.1-1.2-7.7c-0.1-2.5,0.2-4.9,0.7-7.3c0.5-2.3,1.2-4.5,2.1-6.7l0,0c1.2-2.1,2.4-4.2,3.5-6.1
			l-0.1,0.1l29.4-1.6l-0.1-0.1c0.1,4.6,0.3,8.1,0.3,10.5c0,1.2,0.1,2.1,0.1,2.7S146.9,373.6,146.9,373.6z"/>
		<path class="st9" d="M137.3,317.8c0,0-7.9-1.4-7.2,8.8c0.4,6.1,2.2,16.5,3.2,23.2c0.4,2.3,1.1,6.4,4.1,8.9l21.8,15.1l6.9-8.2
			l-19.5-18.6l-3.1-18.4L137.3,317.8z"/>
		<path class="st7" d="M138.2,281.1c2.6,2,4,5.2,3.8,8.5c-0.1,1.6-0.6,3.3,0.5,4.5s3,1.1,3.9,2.4c1.1,1.4,0.2,3.5,0.6,5.3
			c0.4,1.7,2.1,2.8,3.8,2.7c-2,1.6-4.4,2.7-7,3l-1.9-2.5c0.7,1,0.6,2.3-0.2,3.2c-0.8,0.8-1.8,1.4-2.9,1.7
			c-5.3,1.6-11.1,0.7-15.6-2.5"/>
		<path class="st7" d="M109,294.8c0.5-1.1,0.9-2.3,1.3-3.5c0.6-2.6-0.7-5.6,0.6-8c0.9-1.7,2.8-2.5,4.7-3.1s3.8-1,5.2-2.4
			c1-1,1.6-2.3,2.6-3.3c1.5-1.3,3.5-2,5.5-2c2.1-0.2,4.1,0.2,6,1c1.9,0.9,3.3,2.6,3.7,4.6c0,1,0.2,2,0.4,3c0.5,1,1,1.9,1.7,2.8
			c1.1,2.2,0.5,4.8-1.3,6.3l-14,18.2c-3,1.1-10.1-0.2-12.4-2.4C110.5,303.9,108.1,297.9,109,294.8z"/>
		<path class="st13" d="M138.9,288c-0.6-4.1-3.7-9-7.8-8.3l-12.7,4.2c-1.2,0.2-0.4,2.3-0.2,3.5l2.8,28.6c0,0-1.7,1.2-2.3,1
			c-0.1,0-0.2,0-0.2,0.1c0,0.1,0,0.1,0,0.2c1.5,2.2,8.7,11.9,16.1,8.9c1.6-0.7-0.2-5.9,0-7.8l-0.2-4.9c-0.2-2.5-0.2-3.6-0.2-3.5
			c0,0,5.2-1.3,5.8-8.3C140.1,298.2,139.5,292.6,138.9,288z"/>
		<path class="st7" d="M138,294.4c0.1,0.5-0.3,0.9-0.8,1c0,0,0,0,0,0c-0.5,0.1-0.9-0.2-1-0.7c0,0,0,0,0,0c-0.1-0.5,0.3-0.9,0.8-1
			c0,0,0,0,0,0C137.5,293.5,137.9,293.8,138,294.4C138,294.3,138,294.3,138,294.4z"/>
		<path class="st7" d="M129.4,294.9c0.1,0.5-0.3,0.9-0.8,1c0,0,0,0,0,0c-0.5,0.1-0.9-0.2-1-0.7c0,0,0,0,0-0.1
			c-0.1-0.5,0.3-0.9,0.8-1c0,0,0,0,0,0C128.9,294.1,129.3,294.4,129.4,294.9C129.4,294.9,129.4,294.9,129.4,294.9z"/>
		<path class="st7" d="M138.3,291.4c-0.1,0.2-0.9-0.4-2-0.2c-1.1,0.2-1.7,0.9-1.8,0.7c-0.1-0.1,0-0.3,0.3-0.7
			c0.4-0.4,0.9-0.7,1.4-0.8c0.6-0.1,1.1,0,1.6,0.4C138.2,291.1,138.4,291.4,138.3,291.4z"/>
		<path class="st7" d="M129.1,292.2c-0.1,0.1-0.9-0.4-2.1-0.4c-1.1,0-1.9,0.7-2,0.5c-0.1-0.1,0.1-0.3,0.4-0.6c0.5-0.4,1-0.6,1.6-0.6
			c0.6,0,1.2,0.2,1.6,0.5C129,291.9,129.1,292.1,129.1,292.2z"/>
		<path class="st7" d="M132.5,298.7c0.5-0.2,1-0.3,1.5-0.4c0.2,0,0.5-0.1,0.5-0.3c0-0.3-0.1-0.5-0.2-0.7l-0.9-1.8
			c-0.8-1.5-1.5-3.1-2-4.7c0.9,1.5,1.7,3,2.4,4.6l0.8,1.8c0.2,0.3,0.2,0.6,0.2,0.9c-0.1,0.2-0.2,0.3-0.4,0.4c-0.1,0-0.3,0.1-0.4,0.1
			C133.6,298.7,133.1,298.8,132.5,298.7z"/>
		<path class="st14" d="M134.1,310c-3.3,0.3-6.5-0.3-9.5-1.8c0,0,2.7,4.7,9.6,3.5L134.1,310z"/>
		<path class="st14" d="M129.6,301.5c0.1-0.2,0.3-0.4,0.5-0.6c0.3-0.1,0.5-0.2,0.8-0.1c0.4,0.1,0.8,0.3,1.1,0.6
			c0.3,0.3,0.4,0.7,0.3,1.1l0,0c-0.1,0.4-0.7,0.6-1.1,0.7c-0.4,0.1-0.8,0-1.2-0.2c-0.3-0.1-0.6-0.4-0.6-0.8
			C129.4,302,129.5,301.7,129.6,301.5z"/>
		<path class="st7" d="M129.8,300.2c0.2,0,0.2,1,1.2,1.7s2,0.5,2.1,0.6c0.1,0.1-0.2,0.2-0.7,0.3c-0.6,0.1-1.2-0.1-1.7-0.5
			c-0.5-0.3-0.8-0.8-0.9-1.4C129.6,300.5,129.7,300.2,129.8,300.2z"/>
		<path class="st7" d="M129,288.5c-0.1,0.3-1,0.2-2.2,0.4s-2,0.6-2.2,0.4s0.1-0.4,0.4-0.6c0.5-0.3,1-0.6,1.6-0.7
			c0.6-0.1,1.2-0.1,1.7,0.1C128.8,288.1,129,288.3,129,288.5z"/>
		<path class="st7" d="M137.7,287.9c-0.2,0.2-0.9,0.1-1.9,0.1s-1.7,0.3-1.9,0.1c-0.2-0.2,0-0.3,0.3-0.6c0.4-0.3,0.9-0.5,1.5-0.5
			c0.5,0,1,0.1,1.5,0.3C137.7,287.6,137.8,287.8,137.7,287.9z"/>
		<path class="st7" d="M115.6,285c0.7-0.9,1.7-1.6,2.9-1.9c4.7-1.8,9.6-3.1,14.7-3.7c0.5,1.1,0.1,2.5-0.9,3.2
			c-1,0.6-2.1,1.1-3.3,1.4c-1.2,0.3-2.2,1.1-2.7,2.2c-0.5,1.2-0.1,2.6-0.5,3.8c-0.7,2.1-3.6,2.7-4.4,4.8c-0.6,1.6,0.3,3.2,0.6,4.9
			c0.5,3.3-1.8,6.3-5.1,6.7c-0.3,0-0.5,0.1-0.8,0.1c-0.3-6-0.7-11.9-1-17.9C114.9,287.4,115.1,286.1,115.6,285z"/>
		<path class="st7" d="M103.6,300c0.9-0.8,2.1-1.6,2.5-2.8c0.6-1.8-0.9-3.8,0.1-5.4s3.3-1.4,4-2.9c0.6-1.2-0.1-2.2,0.1-3.2
			c0.4-1.1,1.5-1.8,2.7-1.8l8.1,11.8c0.8,4,1.5,6.1,0.7,8.4c-0.6,1.2-1,2.5-1.2,3.8c-0.3,1.4,0.2,2.7,1.2,3.6
			c-4.9,0.4-9.4-2.2-13.6-4.6l-4.4-2.6c-0.5-0.2-0.9-0.6-1.2-1C101.9,302.3,102.7,300.9,103.6,300z"/>
		<path class="st8" d="M108.1,305.8c0.2,0.1,0.3,0.1,0.5,0.1c0.5,0.1,1,0,1.5-0.1c0.8-0.2,1.5-0.6,2.1-1.1c1.2-1.2,1.7-3,1.2-4.7
			c-0.2-0.6-0.5-1.3-0.9-1.8c-0.4-0.6-0.7-1.2-0.9-1.9c-0.2-0.7-0.1-1.4,0.3-2.1c0.4-0.6,1.3-0.7,2-1c0.4-0.2,0.7-0.4,1-0.8
			c0.2-0.4,0.4-0.8,0.3-1.3c-0.1-0.9-0.3-1.7-0.6-2.5c-0.1-0.4-0.1-0.8,0-1.2c0.1-0.4,0.4-0.8,0.7-1c0.7-0.4,1.6-0.7,2.4-0.7
			c0.9,0,1.7-0.3,2.5-0.7c0.8-0.4,1.4-1.1,1.8-1.9c0.3-0.7,0.5-1.5,0.6-2.3c0.1-0.7,0.2-1.5,0.5-2.2c0.2-0.6,0.6-1.2,1.1-1.7
			c1.7-1.6,4.3-2,6.4-0.9c0.7,0.4,1.3,0.8,1.9,1.4c0.4,0.5,0.8,1.1,1.2,1.7c0,0,0,0-0.1-0.1c0-0.1-0.1-0.2-0.2-0.4
			c-0.6-1.2-1.6-2.1-2.7-2.7c-2.2-1.2-4.8-0.8-6.6,0.9c-0.5,0.5-0.9,1.1-1.2,1.8c-0.2,0.7-0.4,1.5-0.5,2.2c-0.1,0.8-0.3,1.5-0.6,2.2
			c-0.4,0.7-0.9,1.3-1.6,1.8c-0.7,0.4-1.5,0.7-2.4,0.7c-0.9,0-1.8,0.2-2.6,0.7c-0.4,0.3-0.7,0.7-0.8,1.1c-0.1,0.5-0.1,0.9,0,1.4
			c0.3,0.8,0.4,1.6,0.6,2.5c0.1,0.8-0.4,1.6-1.2,1.8c-0.4,0.2-0.8,0.3-1.1,0.4c-0.4,0.1-0.7,0.4-1,0.7c-0.4,0.7-0.5,1.5-0.3,2.3
			c0.2,0.7,0.6,1.3,1,1.9c0.4,0.5,0.7,1.1,0.9,1.8c0.2,0.6,0.2,1.2,0.2,1.8c-0.1,1-0.6,2-1.3,2.7c-0.6,0.5-1.2,0.9-2,1.1
			C109.5,305.8,108.8,305.9,108.1,305.8z"/>
		<path class="st7" d="M101.6,297.4c-0.1,0.1-0.1,0.3-0.2,0.4c-0.1,0.4,0,0.8,0.2,1.2c0.1,0.3,0.4,0.5,0.6,0.7
			c0.3,0.2,0.6,0.3,1,0.3c0.9,0,1.7-0.5,2.1-1.4c0.2-0.5,0.3-1,0.3-1.5c0-0.6-0.1-1.1-0.3-1.6c-0.6-1-0.9-2.1-1.1-3.3
			c0-0.6,0.2-1.2,0.6-1.7c0.5-0.4,1.1-0.6,1.8-0.6c0.7,0.1,1.4,0,2.1-0.2c0.4-0.1,0.7-0.4,0.9-0.7c0.2-0.3,0.3-0.7,0.3-1.1
			c0-0.7,0-1.5-0.2-2.2c-0.1-0.7-0.1-1.3,0.1-2c0.3-1.3,1.2-2.3,2.3-3c1-0.5,2.2-0.8,3.4-0.8c1,0,2.1-0.2,3.1-0.5
			c0.8-0.3,1.5-0.8,2.2-1.4c0.5-0.4,0.9-0.9,1.2-1.5c0.3-0.5,0.5-1,0.6-1.5c-0.2,0.5-0.4,1-0.7,1.5c-0.8,1.3-1.9,2.2-3.3,2.8
			c-1,0.3-2,0.4-3,0.4c-1.2,0-2.4,0.2-3.5,0.8c-1.2,0.7-2,1.8-2.4,3.1c-0.2,0.7-0.2,1.4-0.1,2.1c0.1,0.7,0.2,1.4,0.2,2.1
			c0,0.7-0.4,1.3-1,1.6c-0.6,0.2-1.3,0.3-2,0.2c-0.7-0.1-1.4,0.2-2,0.6c-0.5,0.5-0.7,1.2-0.6,1.9c0,0.6,0.2,1.2,0.4,1.8
			c0.2,0.6,0.5,1.1,0.7,1.6c0.2,0.5,0.3,1,0.3,1.5c0,0.5-0.1,1-0.3,1.4c-0.4,0.8-1.1,1.3-2,1.3c-0.3,0-0.7-0.1-1-0.2
			c-0.2-0.1-0.4-0.4-0.6-0.6c-0.2-0.3-0.3-0.7-0.2-1.1C101.6,297.5,101.6,297.4,101.6,297.4z"/>
		<path class="st7" d="M152.8,300.3c0.1,0.4,0.1,0.9,0,1.3c-0.2,0.5-0.5,0.8-1,1c-0.6,0.2-1.3,0-1.8-0.5c-0.3-0.3-0.4-0.6-0.4-1
			c0-0.4,0.1-0.8,0.2-1.2c0.4-0.9,0.7-1.8,0.7-2.8c-0.1-1.1-0.6-2.1-1.5-2.8c-0.4-0.4-1-0.6-1.5-0.8c-0.6-0.2-1.1-0.2-1.7-0.2
			c-0.6,0-1.1-0.1-1.7-0.2c-0.5-0.1-1-0.4-1.3-0.8c-0.3-0.4-0.5-0.9-0.5-1.4c0-0.5,0-1,0.1-1.5c0.3-0.9,0.4-1.9,0.4-2.8
			c0-0.9-0.3-1.7-0.9-2.4c-0.4-0.5-1-1-1.6-1.3c-0.4-0.3-0.9-0.5-1.3-0.9c-0.3-0.3-0.6-0.6-0.8-1c0,0,0,0.1,0,0.1
			c0,0.1,0.1,0.2,0.1,0.2c0.1,0.3,0.4,0.6,0.6,0.8c0.4,0.3,0.8,0.7,1.3,0.9c0.6,0.3,1.1,0.8,1.5,1.3c0.5,0.7,0.7,1.4,0.8,2.2
			c0,0.9-0.2,1.9-0.5,2.8c-0.1,0.5-0.2,1-0.1,1.6c0,0.6,0.2,1.1,0.5,1.6c0.4,0.5,0.9,0.8,1.5,0.9c0.6,0.1,1.2,0.2,1.7,0.2
			c0.6,0,1.1,0.1,1.7,0.2c0.5,0.2,1,0.4,1.4,0.7c0.8,0.6,1.3,1.6,1.4,2.6c0,0.9-0.3,1.9-0.7,2.7c-0.1,0.4-0.2,0.9-0.2,1.3
			c0,0.4,0.2,0.8,0.5,1.1c0.5,0.5,1.3,0.7,2,0.5c0.9-0.3,1.3-1.3,1.1-2.2C153,300.5,152.9,300.4,152.8,300.3z"/>
		<path class="st9" d="M147,347.9v-6.7c0.8-3.9,0.3-8-1.4-11.7c-1.3-2.2-2.7-4.4-4.2-6.4l-6.7-8.7c-3.7,2.7-9.4,0.7-14.4-1.1
			c0,0-4.9,2.7-7.2,5.2s5.8,36.1,5.8,36.1c-3.7,7.4-8.5,14-9.2,20.7l38.7,1.5l-1.6-17.7L147,347.9z"/>
		<path class="st7" d="M146.5,359.4c0-0.2,0-0.5,0-0.8c0-0.6,0-1.2,0-2.1c0-1.8,0.1-4.2,0.1-6.8c0-2.6,0.1-5.1,0.2-6.8
			c0-0.9,0.1-1.6,0.1-2.1c0-0.3,0-0.5,0.1-0.8c0,0.3,0,0.5,0,0.8c0,0.5,0,1.2,0,2.1c0,1.8-0.1,4.2-0.1,6.8s-0.1,5-0.2,6.8
			c0,0.9-0.1,1.6-0.1,2.1C146.6,358.9,146.5,359.1,146.5,359.4z"/>
		<path class="st13" d="M164.1,365.5c2.1,0.1,4.2,0.7,6.1,1.7c2.3,1.5,6.1,3.7,7.6,6.5c0.7,1.3-1.3,1.6-2.3,0.8s-2.5-2.2-3.3-2.3
			l-0.8-0.2c0.7,1.6,1.5,3.1,2.3,4.6c0.8,1.2,1.5,3.2-0.9,3.3c0,0-1.6,2.1-3.2,0.5c0,0-1.2,1.9-3.3-0.7c0,0-1.2,1.5-1.7,0.9
			s-2.1-1.5-2.6-3.3c-0.7-2.2-1.5-4.3-2.4-6.4L164.1,365.5z"/>
		<path class="st13" d="M248.5,313.3c0.4,0,17.7-1.8,17.7-1.8s1.5-7,1.4-8.8s-1.3-13.9-1.3-13.9l6.5-3.1c0,0,8.6,29.1,6.8,31.6
			c-1.6,1.9-3.5,3.5-5.7,4.6c-0.3,0-16.7,7.3-28.1,3.5C234.2,321.6,248.5,313.3,248.5,313.3z"/>
		<path class="st9" d="M233.4,329c2.5,2.5,6.9,4.6,14.2,2.8c14.5-3.6,25.3-6.7,29.6-9c4.3-2.3,2.6-12.6,3-13.1
			c1.1-1.4-0.1-4.4-1.7-4.9c-4.4-1.3-12.1-0.8-12.5-0.4c-2.3,2.4-0.2,5.3-0.2,5.3l-19,2.5c-2.3-0.1-4.7,0-7,0.5"/>
		<path class="st7" d="M239.8,312.6c0.2,0,0.3-0.1,0.5-0.1c0.3-0.1,0.8-0.1,1.4-0.2c1.7-0.2,3.5-0.3,5.2-0.2l0,0l19-2.5l-0.1,0.2
			c-0.6-0.9-0.9-2-0.9-3.1c0-0.6,0.2-1.1,0.5-1.6c0.2-0.2,0.3-0.5,0.5-0.7c0.1-0.1,0.2-0.1,0.2-0.1l0.2-0.1c0.1,0,0.3,0,0.4-0.1
			c2.4-0.3,4.7-0.3,7.1-0.1c1.2,0.1,2.5,0.2,3.7,0.5l0.9,0.2c0.3,0.1,0.6,0.3,0.9,0.5c0.5,0.5,0.8,1,1.1,1.7c0.2,0.6,0.3,1.3,0.2,2
			c-0.1,0.4-0.2,0.7-0.4,1c-0.1,0.1,0,0.2-0.1,0.4v0.5c0,1.3,0.1,2.6,0.1,4c0,1.9-0.3,3.8-0.9,5.6c-0.4,1.4-1.5,2.5-2.8,3
			c-0.4,0.2-0.8,0.4-1.2,0.6c-1.7,0.7-3.3,1.3-5,1.8s-3.3,1-4.9,1.5c-6.4,1.8-12.1,3.3-17,4.5c-1.2,0.3-2.3,0.6-3.5,0.7
			c-1.1,0.1-2.1,0.2-3.2,0.2c-1.7,0-3.4-0.4-5-1.1c-1-0.4-1.9-1-2.7-1.7c-0.3-0.2-0.6-0.5-0.8-0.8c0,0,0.3,0.3,0.9,0.7
			c0.8,0.7,1.8,1.2,2.7,1.6c1.6,0.6,3.2,1,4.9,1c1.1,0,2.1,0,3.1-0.2c1.2-0.2,2.3-0.4,3.5-0.7c4.8-1.2,10.6-2.7,17-4.6
			c1.6-0.5,3.2-1,4.8-1.5c1.6-0.5,3.3-1.1,5-1.8c0.4-0.2,0.8-0.4,1.2-0.6c0.4-0.2,0.8-0.4,1.1-0.7c0.7-0.6,1.2-1.3,1.5-2.2
			c0.6-1.8,0.9-3.6,0.9-5.5c0-1.3,0-2.6-0.1-4v-0.5c0-0.1,0-0.2,0-0.3c0,0,0-0.1,0-0.1s0-0.1,0-0.1l0,0c0.2-0.2,0.3-0.5,0.3-0.8
			c0.1-0.6,0-1.2-0.2-1.8c-0.2-0.6-0.6-1.1-1-1.5c-0.2-0.2-0.5-0.3-0.8-0.4l-0.9-0.2c-1.2-0.3-2.4-0.4-3.6-0.5
			c-2.3-0.2-4.7-0.1-7,0.1l-0.4,0.1h-0.2l-0.1,0.1c-0.2,0.2-0.3,0.4-0.5,0.6c-0.3,0.4-0.5,1-0.5,1.5c-0.1,1,0.2,2.1,0.8,2.9l0.1,0.2
			h-0.2l-19,2.4l0,0c-1.7-0.1-3.5,0-5.2,0.1c-0.6,0.1-1.1,0.1-1.4,0.2L239.8,312.6z"/>
		<path class="st15" d="M188.2,332.4l-7.7-13.9l0,0L329,235.8c2.5-1.4,5.7-0.5,7,2l2.7,4.9c1.4,2.5,0.5,5.7-2,7L188.2,332.4
			L188.2,332.4z"/>
		<path class="st15" d="M310.1,259.7l-17.7-31.4c-0.6-1.1-0.2-2.4,0.8-3l6.7-3.8c1.1-0.6,2.4-0.3,3.1,0.7c0,0,0,0,0,0.1l17.7,31.4
			l0,0L310.1,259.7L310.1,259.7z"/>
		<path class="st15" d="M288.4,266.1l-11.9-21.3c-0.9-1.6-0.3-3.5,1.3-4.4l5-2.8c1.6-0.9,3.5-0.3,4.4,1.3l11.9,21.3
			c0.9,1.6,0.3,3.5-1.3,4.4l-5,2.8C291.2,268.2,289.2,267.6,288.4,266.1z"/>
		
			<rect x="290.3" y="236.6" transform="matrix(0.8738 -0.4863 0.4863 0.8738 -81.3006 176.7064)" class="st15" width="18.9" height="16.7"/>
		<path class="st15" d="M128.8,359.3c10.8,19.4,33.6,27.4,51,17.7s22.6-33.2,11.8-52.6c-10.8-19.4-33.6-27.4-51-17.7
			C123.2,316.3,118,339.9,128.8,359.3z M182.1,329.6c7.6,13.6,3.9,30.1-8.3,36.9s-28.1,1.2-35.7-12.4s-3.9-30.1,8.3-36.9
			C158.6,310.4,174.6,316,182.1,329.6z"/>
		<path class="st15" d="M213.7,319.9l-9.1-16.4c-0.8-1.4-0.3-3.1,1.1-3.8l2.6-1.5c1.4-0.8,3.1-0.3,3.8,1.1l9.1,16.4
			c0.8,1.4,0.3,3.1-1.1,3.8l-2.6,1.5C216.2,321.8,214.5,321.3,213.7,319.9z"/>
		<path class="st15" d="M229.1,311.4L220,295c-0.8-1.4-0.3-3.1,1.1-3.8l2.6-1.5c1.4-0.8,3.1-0.3,3.8,1.1l9.1,16.4
			c0.8,1.4,0.3,3.1-1.1,3.8l-2.6,1.5C231.6,313.2,229.8,312.7,229.1,311.4z"/>
		<path class="st7" d="M264.7,274.2c1.6,0.2,3-0.9,3.2-2.5c0.2-1.4-0.7-2.7-2-3.1c1.1-1.2,1-3.1-0.2-4.2c-0.6-0.6-1.5-0.9-2.4-0.8
			c-0.1-2-1.7-3.5-3.7-3.4c-0.6,0-1.2,0.2-1.7,0.5c-1.4-1.2-3.5-1.2-5-0.1c-1.6-0.3-3.1,0.8-3.3,2.3c-0.2,0.9,0.1,1.9,0.8,2.5"/>
		<path class="st13" d="M252.4,263.3h0.6c6.4,0,11.6,4.9,12.1,11.2c0.5,5.9,0.9,12.4,0.8,15.6c-0.1,6.5-6.6,7.5-6.6,7.5l0.5,7.9
			L244,305l-1.4-28.5C242.1,269.7,245.6,263.7,252.4,263.3z"/>
		<path class="st14" d="M259.4,297.7c-3,0-6-0.9-8.6-2.6c0,0,2.1,5,8.6,4.4L259.4,297.7z"/>
		<path class="st7" d="M261.5,280.7c0,0.5-0.4,0.9-0.9,0.9c-0.5,0.1-0.9-0.3-1-0.8c0,0,0,0,0-0.1c0-0.5,0.4-0.9,0.9-0.9
			C261,279.8,261.4,280.2,261.5,280.7C261.5,280.7,261.5,280.7,261.5,280.7z"/>
		<path class="st7" d="M263.7,277.8c-0.1,0.1-0.8-0.4-1.8-0.4s-1.7,0.5-1.9,0.4s0.1-0.3,0.4-0.5c0.4-0.3,1-0.5,1.5-0.5
			c0.5,0,1,0.2,1.5,0.5C263.6,277.5,263.8,277.7,263.7,277.8z"/>
		<path class="st7" d="M252.4,280.3c0,0.5-0.4,0.9-0.9,0.9c0,0,0,0,0,0c-0.5,0.1-0.9-0.3-1-0.8c0,0,0-0.1,0-0.1
			c0-0.5,0.4-0.9,0.9-0.9c0,0,0,0,0,0C251.9,279.4,252.4,279.7,252.4,280.3C252.4,280.2,252.4,280.3,252.4,280.3z"/>
		<path class="st7" d="M253.8,278c-0.1,0.1-0.8-0.4-1.8-0.4s-1.8,0.5-1.9,0.4s0.1-0.3,0.4-0.5c0.4-0.3,1-0.5,1.5-0.4
			c0.5,0,1,0.2,1.4,0.5C253.8,277.7,253.9,277.9,253.8,278z"/>
		<path class="st7" d="M257.4,285.4c0.5-0.2,1.1-0.3,1.6-0.3c0.3,0,0.5-0.1,0.5-0.2c0-0.3,0-0.5-0.2-0.8c-0.2-0.6-0.5-1.3-0.8-2
			c-0.7-1.6-1.3-3.3-1.7-5.1c0.8,1.6,1.5,3.3,2.1,5c0.3,0.7,0.5,1.3,0.7,2c0.2,0.3,0.2,0.7,0.1,1c-0.1,0.2-0.2,0.3-0.4,0.4
			c-0.1,0-0.3,0.1-0.4,0.1C258.5,285.5,258,285.5,257.4,285.4z"/>
		<path class="st7" d="M254.7,274.1c-0.1,0.2-1,0-2.1-0.1s-1.9,0.1-2-0.1s0.1-0.4,0.5-0.6c0.5-0.2,1-0.4,1.6-0.3
			c0.5,0,1.1,0.2,1.5,0.5C254.6,273.7,254.8,274,254.7,274.1z"/>
		<path class="st7" d="M263.8,273.6c-0.2,0.2-1,0-2,0s-1.8,0.1-2-0.1c-0.2-0.2,0-0.4,0.4-0.6c0.5-0.3,1.1-0.4,1.7-0.4
			c0.6,0,1.1,0.2,1.6,0.5C263.7,273.3,263.8,273.5,263.8,273.6z"/>
		<path class="st7" d="M264.5,271.6c0,0-1.7-4.1-3.7-5.1c-2.4-1.2-3.4,1.5-5.7,0.8c-2.3-0.6-4.6-1.8-6.9,0c-2.6,1.9-1.4,3.3-1.5,6.2
			c-0.7,11.8-2.8,15.1-3.4,9.5c-0.1-0.6-1.8-1.1-2-3.7c-0.3-3.3-0.4-7.4,0.3-9.7c0.7-2,2-3.7,3.8-4.9c3.2-2.4,7.6-2.4,10.6-2.1
			S264.8,266.5,264.5,271.6z"/>
		<path class="st13" d="M243.7,282.9c0-1-0.9-1.8-1.8-1.7c0,0-0.1,0-0.1,0c-1.2,0.1-2.6,0.8-2.5,3.3c0.1,4.5,4.6,3.4,4.6,3.3
			S243.7,284.8,243.7,282.9z"/>
		<path class="st14" d="M242.8,286.1c0,0-0.1,0.1-0.2,0.1c-0.2,0.1-0.4,0.1-0.6,0c-0.6-0.4-1-1-0.9-1.7c0-0.4,0-0.8,0.2-1.1
			c0.1-0.3,0.3-0.5,0.6-0.6c0.2-0.1,0.4,0,0.5,0.2c0.1,0.1,0,0.2,0.1,0.2s0.1-0.1,0-0.3c0-0.1-0.1-0.2-0.2-0.3
			c-0.1-0.1-0.3-0.1-0.4-0.1c-0.4,0.1-0.7,0.4-0.8,0.7c-0.2,0.4-0.3,0.8-0.2,1.2c0,0.8,0.4,1.6,1.2,1.9c0.2,0.1,0.5,0,0.7-0.1
			C242.8,286.2,242.8,286.1,242.8,286.1z"/>
		<path class="st7" d="M243.8,274.2c0.5,0.4,1.2,0.8,1.9,0.9c0.7,0.1,1.4-0.3,1.6-1c0.1-0.3,0-0.7,0.2-0.9c0.2-0.2,0.7-0.2,1.1-0.2
			c1.3,0.1,2.8-1.3,3.2-2.6c0.4,0.5,1,0.6,1.6,0.3c0.4-0.3,0.8-0.6,1.1-1c0.4-0.5,0.9-0.8,1.5-0.8c0.3,0.1,0.7,0.2,1,0.2
			c0.6,0,0.9-0.7,1-1.3c0.1-0.6,0.2-1.3,0.7-1.6c0.5-0.2,1.1-0.2,1.6,0c0.5,0.1,1.2,0,1.4-0.6c0-0.3,0-0.6-0.2-0.8
			c-0.7-1.1-2.2-1.6-3.4-1.1c-0.6-2.1-2.8-3.3-4.9-2.7c-1,0.3-1.9,1-2.4,1.9c-1.6-1.5-4.2-1.3-5.6,0.3c-0.3,0.3-0.5,0.7-0.7,1.1
			c-1.5-0.4-3.1,0.5-3.6,2c-0.2,0.7-0.1,1.5,0.2,2.2c-0.8,0.4-1.4,1.2-1.5,2.2c0,0.9,0.6,1.6,1.5,1.6c0.1,0,0.2,0,0.3,0
			c-0.4,0.8-0.1,1.8,0.7,2.1c0.7,0.3,1.5,0.1,2-0.5"/>
		<path class="st8" d="M258.2,265.2C258.2,265.2,258.2,265.2,258.2,265.2c0,0.2,0,0.2,0,0.3c-0.1,0.3-0.2,0.6-0.3,0.9
			c-0.3,0.4-0.6,0.7-1,1c-0.5,0.4-1.2,0.6-1.8,0.5l0.1-0.1c0.2,0.4,0.1,0.9-0.1,1.3c-0.2,0.4-0.5,0.7-0.8,1
			c-0.2,0.2-0.3,0.4-0.5,0.5c-0.2,0.1-0.5,0.2-0.7,0.3c-0.5,0.1-1.1-0.1-1.4-0.5h0.2c-0.1,0.9-0.6,1.8-1.4,2.3
			c-0.4,0.3-0.9,0.5-1.5,0.5c-0.5,0-1-0.1-1.4-0.3h0.1c-0.2,0.5-0.6,1-1.1,1.4c-0.4,0.4-1,0.5-1.6,0.4c-1-0.2-1.7-1-1.9-2h0.1
			c-0.5,0.2-1,0.3-1.5,0.2c-0.4-0.1-0.8-0.2-1.1-0.5c-0.2-0.2-0.4-0.3-0.5-0.5c0-0.1-0.1-0.1-0.1-0.2c0.2,0.3,0.4,0.5,0.6,0.7
			c0.3,0.2,0.7,0.4,1.1,0.4c0.5,0.1,1,0,1.4-0.2l0.1,0v0.1c0.2,0.9,0.9,1.6,1.8,1.8c0.5,0.1,1-0.1,1.4-0.4c0.4-0.3,0.8-0.8,1-1.3
			v-0.1h0.1c0.4,0.2,0.9,0.3,1.4,0.3c0.5,0,1-0.2,1.4-0.4c0.7-0.5,1.2-1.3,1.4-2.2V270l0.1,0.2c0.3,0.4,0.8,0.5,1.3,0.5
			c0.2,0,0.4-0.1,0.6-0.2c0.2-0.1,0.3-0.3,0.5-0.5c0.3-0.3,0.5-0.6,0.8-1c0.2-0.3,0.2-0.7,0.1-1.1v-0.1h0.1c0.6,0,1.2-0.1,1.8-0.5
			c0.4-0.3,0.7-0.6,1-1C258,265.9,258.1,265.6,258.2,265.2z"/>
		<path class="st7" d="M257.4,288.8c0-0.2-1.1,0.1-2.1-0.6s-1.2-1.9-1.3-1.9s-0.1,0.3,0,0.8c0.1,0.6,0.5,1.2,1,1.6
			c0.5,0.4,1.1,0.5,1.8,0.5C257.2,289,257.4,288.8,257.4,288.8z"/>
		<path class="st3" d="M291.1,458.8l4.3,14.7c0,0,16.4,0.6,17.5,3.2l-28.2,9.4l-7.7-22.6L291.1,458.8z"/>
		<path class="st7" d="M286.3,475.2c-0.5,0.4-0.6,1-0.4,1.6c0.3,0.5,1,0.7,1.6,0.4c0.5-0.4,0.7-1.1,0.4-1.7
			C287.5,475,286.7,474.9,286.3,475.2"/>
		<path class="st3" d="M311.3,475.7c0,0,1.4,0.1,1.6,1.1l-28.2,9.4l-0.7-2.3L311.3,475.7"/>
		<path class="st7" d="M295.9,473.2c0,0.1-0.6,0.4-1.2,1.1s-0.7,1.4-0.8,1.4c-0.1,0-0.2-0.9,0.5-1.7S295.8,473.1,295.9,473.2z"/>
		<path class="st7" d="M299.2,473.5c0.1,0.1-0.4,0.6-0.7,1.3c-0.3,0.7-0.2,1.4-0.4,1.4s-0.5-0.7-0.1-1.6S299.2,473.4,299.2,473.5z"
			/>
		<path class="st7" d="M302.1,476.5c-0.1,0.1-0.5-0.6-0.4-1.4s0.6-1.4,0.7-1.3s-0.2,0.6-0.2,1.4S302.2,476.4,302.1,476.5z"/>
		<path class="st7" d="M294.5,470c0,0.1-0.7,0.2-1.5,0.5s-1.3,0.8-1.4,0.7s0.3-0.8,1.2-1.1S294.5,469.9,294.5,470z"/>
		<path class="st3" d="M225.3,459l-6.1,14c0,0,12.2,11,11.3,13.7l-27.7-10.9l8.7-22.3L225.3,459z"/>
		<path class="st7" d="M211.1,468.4c-0.6,0-1.2,0.4-1.3,1c-0.1,0.6,0.4,1.2,1,1.3c0.6,0.1,1.2-0.4,1.4-1
			C212.1,469.1,211.6,468.4,211.1,468.4"/>
		<path class="st3" d="M229.9,484.8c0,0,1,1,0.5,1.8l-27.7-10.9l1-2.2L229.9,484.8"/>
		<path class="st7" d="M219.6,473c-0.1,0.1-0.8-0.1-1.6,0.1s-1.4,0.6-1.5,0.5c-0.1-0.1,0.4-0.8,1.4-1
			C218.9,472.4,219.7,472.9,219.6,473z"/>
		<path class="st7" d="M222.1,475.4c0,0.1-0.7,0.1-1.4,0.5s-1.1,0.9-1.2,0.9s0.1-0.9,0.9-1.3C221.3,475,222.1,475.3,222.1,475.4z"/>
		<path class="st7" d="M222.3,479.5c-0.1,0-0.1-0.8,0.6-1.4s1.4-0.6,1.4-0.5s-0.5,0.4-1,0.9S222.5,479.6,222.3,479.5z"/>
		<path class="st3" d="M220.7,469.7c-0.1,0.1-0.6-0.3-1.4-0.6s-1.5-0.2-1.5-0.4s0.7-0.4,1.7-0.1S220.8,469.6,220.7,469.7z"/>
		<path class="st7" d="M235.6,381.8l-9.7,39.3c0,0-17.5,29.4-20.4,44.1l16,6.3c0,0,11.6-28.4,15-33.6c1.5-2.3,3.3-4.5,5.3-6.5
			c1.3-1.3,2.2-2.9,2.6-4.6l7.3-28L235.6,381.8z"/>
		<path class="st7" d="M231.5,375.5c0,0,1.4,10.6,11.5,15.2l21.4,34.8c1.1,7.1,2.7,14,4.9,20.8c3.2,9.5,9.6,27.9,9.6,27.9l17.6-6.6
			l-11.2-38.3l-1.9-13.3L266,371.8l-15-9L231.5,375.5z"/>
		<path class="st8" d="M231.5,375.5c0,0,0.1-0.1,0.3-0.2l1-0.6l3.8-2.5l14.4-9.5l0,0h0.1l15,9l0,0l0,0c5,12.4,10.9,27.5,17.5,44.4
			l0,0l0,0c0.6,4.2,1.2,8.7,1.8,13.3l0,0c3,10.3,6.3,21.4,9.6,32.8l1.6,5.5v0.1l-0.1,0.1l-17.6,6.6l-0.1,0.1v-0.1
			c-3-8.8-6-17.3-8.8-25.4c-0.7-2-1.4-4-2-6s-1.1-4-1.6-5.9c-0.9-3.9-1.7-7.7-2.2-11.4l0,0l-21.3-34.8l0,0c-2.6-1.2-4.9-2.9-6.7-5.1
			c-1.4-1.6-2.5-3.4-3.3-5.3c-0.5-1.2-0.9-2.4-1.2-3.6c-0.1-0.4-0.2-0.7-0.2-1C231.5,375.5,231.5,375.5,231.5,375.5l0.1,0.2
			c0.1,0.2,0.1,0.5,0.2,1c0.3,1.2,0.7,2.4,1.3,3.6c0.8,1.9,1.9,3.6,3.3,5.2c1.8,2.1,4.1,3.8,6.7,5l0,0l0,0l21.4,34.8v0.1
			c0.6,3.7,1.3,7.5,2.3,11.4c0.5,2,1,3.9,1.5,5.9c0.5,2,1.3,4,2,6c2.8,8.1,5.7,16.5,8.8,25.4l-0.2-0.1l17.6-6.6l-0.1,0.2
			c-0.5-1.8-1.1-3.6-1.6-5.5l-9.6-32.8l0,0c-0.6-4.6-1.2-9.1-1.8-13.3l0,0c-6.6-16.8-12.5-32-17.4-44.4l0,0l-15-9h0.1l-14.4,9.4
			l-3.8,2.5l-1,0.6L231.5,375.5z"/>
		<path class="st9" d="M240.9,300.4c0,0-5.1,3.9-7.6,8.3c-3,5.3-3.3,13.1-3.4,25.2c-0.1,11.2,1.6,14.3,0.9,18.6
			c-1.3,8.3-2.2,36-2.2,36s16.4-6.3,19.6-9.1l3.2-2.8l20.6,6.8l-4.2-25.2l-2.8-31.5l-3.7-16.6l-0.6-6.5l-17.6-7.1L240.9,300.4z"/>
		<path class="st7" d="M260.1,303.2c0.2,0-0.5,1.5-1.8,3.6l-0.1,0.1h-0.1c-1.8-0.7-4.1-1.6-6.7-2.5c-2.9-1.1-5.5-2-7.4-2.8
			c-0.9-0.4-1.7-0.7-2.2-0.9c-0.3-0.1-0.5-0.2-0.8-0.4c0.3,0.1,0.6,0.2,0.8,0.3l2.2,0.8l7.4,2.7c2.6,0.9,4.9,1.8,6.7,2.6h-0.1
			C258.9,305.5,259.5,304.4,260.1,303.2z"/>
		<path class="st13" d="M281.3,290c0,0-1.3-2-2.5-3.9s-3.1-2.8-3.4-3.8c-0.3-1-1.9-5.3-2.2-6.4c-0.2-1-0.3-2.1-0.3-3.2
			c0,0,1.3-0.6,2,1.4c0.5,1.8,1.2,3.6,1.9,5.3c0.3,0.2,0.6-0.1,0.6-0.1c-0.5-1.5-1-3-1.4-4.5c-0.1-0.7,0.2-5.4,0.2-5.4
			c0.7-0.1,1.4,0.3,1.6,0.9c0.6,1.2,0.7,4.3,0.7,4.3l1,3.4l-0.3-3.4l0.5-6.2c1,0.1,1.7,0.9,1.9,1.8c0.4,1.7-0.1,4,0.1,4.5
			c0.3,1.1,0.5,2.3,0.6,3.5c0,0,0.3-7.2,1.1-7.5c0.8-0.2,1.4,0.6,1.3,2c-0.2,2-0.1,4,0.3,5.9c0.4,1.4,4.5,6.7,4.2,9
			c-0.2,1.4-0.3,2.8-0.4,4.2h-7.1L281.3,290z"/>
		<path class="st13" d="M256.6,308.3c0.4,0.1,17.2,4.3,17.2,4.3s3.8-6.1,4.3-7.8s3.5-13.5,3.5-13.5l7.1-0.7c0,0-1.8,30.3-4.4,32
			c-2.1,1.2-4.5,2-7,2.4c-0.3-0.1-18.2,1.2-27.7-6.3C240.3,311.2,256.6,308.3,256.6,308.3z"/>
		<g class="st10">
			<path d="M244.5,324.3c1.8,2,4.2,3.4,6.9,4c4.5,1,14,2.7,14,2.7l-0.5-4.7l-20.7-2.2"/>
		</g>
		<path class="st9" d="M237,317.9c1.5,3.2,4.9,6.7,12.4,7.5c14.8,1.5,26,2.4,30.9,1.6c4.9-0.7,6.8-11,7.3-11.3
			c1.5-1,1.4-4.2,0.1-5.2c-3.7-2.8-11.1-4.9-11.6-4.6c-2.9,1.5-2,4.9-2,4.9l-18.8-4.1c-2.2-0.9-4.4-1.6-6.7-2"/>
		<path class="st7" d="M248.6,304.7c0,0,0.2,0,0.5,0.1s0.8,0.1,1.3,0.3c1.7,0.4,3.4,0.9,5,1.6l0,0l18.8,4.1l-0.2,0.2
			c-0.3-1.1-0.2-2.2,0.2-3.2c0.2-0.5,0.6-1,1.1-1.3c0.2-0.2,0.5-0.3,0.7-0.5c0.1,0,0.2,0,0.3,0h0.2c0.1,0,0.3,0,0.4,0.1
			c2.3,0.6,4.5,1.3,6.7,2.3c1.1,0.5,2.2,1.1,3.3,1.7c0.3,0.2,0.5,0.4,0.8,0.5c0.3,0.2,0.5,0.5,0.6,0.8c0.3,0.6,0.4,1.3,0.4,1.9
			c0,0.7-0.1,1.3-0.4,1.9c-0.2,0.3-0.4,0.6-0.7,0.8c-0.1,0-0.1,0.2-0.2,0.3l-0.2,0.5c-0.4,1.2-0.8,2.5-1.3,3.8
			c-0.6,1.8-1.6,3.5-2.8,5c-0.6,0.7-1.4,1.3-2.3,1.6c-0.4,0.1-0.9,0.2-1.4,0.3c-0.5,0.1-0.9,0.1-1.4,0.1c-1.8,0.1-3.6,0.1-5.3,0
			s-3.4-0.1-5.1-0.2c-6.6-0.4-12.5-1-17.5-1.6c-1.2-0.1-2.4-0.3-3.5-0.5c-1-0.2-2.1-0.5-3.1-0.9c-1.6-0.6-3.1-1.5-4.3-2.7
			c-0.8-0.7-1.5-1.6-2-2.5c-0.2-0.3-0.4-0.7-0.5-1c0,0,0.2,0.4,0.6,1c0.6,0.9,1.2,1.7,2,2.5c1.2,1.1,2.7,2,4.3,2.6
			c1,0.4,2,0.7,3,0.9c1.2,0.2,2.3,0.4,3.5,0.5c5,0.5,10.9,1.1,17.5,1.5c1.6,0.1,3.3,0.2,5.1,0.2s3.5,0.1,5.3,0
			c0.5,0,0.9-0.1,1.3-0.1c0.4,0,0.9-0.1,1.3-0.2c0.8-0.3,1.6-0.9,2.1-1.6c1.2-1.5,2.1-3.1,2.7-4.9c0.5-1.2,0.9-2.5,1.3-3.8l0.2-0.5
			c0-0.1,0.1-0.2,0.1-0.2c0,0,0-0.1,0.1-0.1l0.1-0.1h0c0.2-0.2,0.4-0.4,0.6-0.7c0.3-0.6,0.4-1.2,0.4-1.8c0-0.6-0.1-1.2-0.4-1.8
			c-0.1-0.3-0.3-0.5-0.5-0.7l-0.8-0.5c-1-0.7-2.1-1.2-3.3-1.7c-2.1-1-4.3-1.8-6.6-2.4c-0.1,0-0.3-0.1-0.4-0.1h-0.2h-0.1
			c-0.2,0.1-0.5,0.3-0.7,0.4c-0.4,0.3-0.8,0.7-1,1.2c-0.4,0.9-0.5,2-0.2,3l0,0.2H274l-18.8-4.2l0,0c-1.6-0.7-3.2-1.2-4.9-1.6
			l-1.3-0.3L248.6,304.7z"/>
		<path class="st7" d="M280.3,316.6c-0.4-0.1-0.8-0.3-1.2-0.5c-0.9-0.5-1.8-1.2-2.6-1.9c-0.8-0.7-1.4-1.6-2-2.5
			c-0.3-0.4-0.4-0.8-0.6-1.2c0.8,1.2,1.8,2.4,2.8,3.4C277.8,314.9,279,315.8,280.3,316.6z"/>
		<path class="st13" d="M148,366.7c2.1,0.1,4.2,0.7,6.1,1.7c2.3,1.5,6.1,3.7,7.6,6.6c0.7,1.3-1.3,1.6-2.3,0.8s-2.5-2.2-3.3-2.3
			l-0.8-0.2c0.7,1.6,1.5,3.1,2.3,4.6c0.8,1.2,1.5,3.2-0.9,3.3c0,0-1.6,2.1-3.2,0.5c0,0-1.3,1.9-3.3-0.7c0,0-1.2,1.5-1.7,0.9
			s-2.1-1.5-2.6-3.3c-0.7-2.2-1.5-4.3-2.4-6.4L148,366.7z"/>
		<path class="st9" d="M116,317.1c-1.9,0.6-3.6,1.9-4.7,3.5c-1.4,2.2-1.9,6.1-1.5,9c0.9,6,3.7,16.2,5.2,22.8
			c0.5,2.3,1.6,6.3,4.9,8.5l23,13.8l6.2-9.1l-21-17.1l-4.2-23.4L116,317.1z"/>
		<path class="st7" d="M112,340.2c0,0.1,0.1,0.2,0.1,0.2l0.2,0.7c0.2,0.6,0.4,1.6,0.7,2.8c0.6,2.4,1.5,5.9,2.6,10.2
			c0.6,2.3,1.9,4.4,3.8,6c1.1,0.8,2.2,1.6,3.4,2.2l3.7,2.2l16.6,10h-0.2c0.7-1,1.5-2.2,2.2-3.3l3.9-5.9v0.2l-20.8-17.1l0,0l0,0
			c-1.4-5.8-2.4-10.5-3-13.8c-0.3-1.6-0.5-2.9-0.7-3.8c-0.1-0.4-0.1-0.8-0.1-1c0-0.1,0-0.2,0-0.4c0,0,0,0.1,0.1,0.3
			c0.1,0.2,0.1,0.6,0.2,1c0.2,0.9,0.4,2.2,0.7,3.8c0.7,3.3,1.7,8,3.1,13.8v-0.1c5.7,4.7,12.9,10.6,20.9,17.1l0.1,0.1l-0.1,0.1
			c-1.3,1.9-2.6,3.9-3.9,5.9l-2.3,3.2l-0.1,0.1l-0.1-0.1l-16.6-10l-3.7-2.2c-1.2-0.7-2.3-1.4-3.4-2.3c-1.9-1.6-3.2-3.8-3.8-6.1
			c-1-4.3-1.9-7.8-2.4-10.2l-0.7-2.8l-0.2-0.7C112,340.3,112,340.3,112,340.2z"/>
		<path class="st7" d="M112.3,320.4c0.1-0.1,0.3-0.2,0.5-0.2c0.4-0.1,0.9-0.2,1.3-0.3c1.5-0.2,3.1,0,4.5,0.6
			c1.4,0.7,2.5,1.8,3.4,3.1c0.3,0.4,0.5,0.8,0.6,1.2c0.1,0.2,0.1,0.3,0.1,0.5c-0.3-0.6-0.6-1.1-0.9-1.6c-0.9-1.2-2-2.2-3.3-2.9
			c-1.4-0.6-2.9-0.8-4.3-0.7C113.1,320.2,112.4,320.4,112.3,320.4z"/>
	</g>
</g>
</svg>
